<?xml version="1.0" encoding="utf-8"?>
<!-- Generator: Adobe Illustrator 26.0.2, SVG Export Plug-In . SVG Version: 6.00 Build 0)  -->
<svg version="1.1" id="Слой_1" xmlns="http://www.w3.org/2000/svg" xmlns:xlink="http://www.w3.org/1999/xlink" x="0px" y="0px"
		 viewBox="0 0 1000 1000" style="enable-background:new 0 0 1000 1000;" xml:space="preserve">
<style type="text/css">
	.st0{opacity:0.5;fill:#929495;}
	.st1{fill:#DCE0E4;}
	.st2{fill:#ACADAE;}
	.st3{fill:#7B7C7D;}
	.st4{fill:#CACCCE;}
	.st5{fill:#3A3B3B;}
	.st6{fill:#FFFFFF;}
</style>
	<g>
	<g>
		<ellipse class="st0" cx="500" cy="643.23" rx="375.29" ry="16.77"/>
		<g>
			<g>
				<rect x="314.61" y="631.59" class="st1" width="501.92" height="11.37"/>
				<rect x="314.61" y="459.02" class="st2" width="501.92" height="172.57"/>
				<rect x="799.02" y="459.02" class="st1" width="17.51" height="172.57"/>
				<polygon class="st3" points="790.95,463.98 794.07,463.98 799.02,459.02 790.95,459.02 				"/>
				<rect x="782.68" y="459.02" class="st1" width="8.26" height="172.57"/>
				<polygon class="st3" points="774.6,463.98 777.73,463.98 782.68,459.02 774.6,459.02 				"/>
				<rect x="766.34" y="459.02" class="st1" width="8.26" height="172.57"/>
				<polygon class="st3" points="758.26,463.98 761.39,463.98 766.34,459.02 758.26,459.02 				"/>
				<rect x="750" y="459.02" class="st1" width="8.26" height="172.57"/>
				<polygon class="st3" points="741.92,463.98 745.05,463.98 750,459.02 741.92,459.02 				"/>
				<rect x="733.66" y="459.02" class="st1" width="8.26" height="172.57"/>
				<polygon class="st3" points="725.58,463.98 728.71,463.98 733.66,459.02 725.58,459.02 				"/>
				<rect x="717.32" y="459.02" class="st1" width="8.26" height="172.57"/>
				<polygon class="st3" points="709.24,463.98 712.36,463.98 717.32,459.02 709.24,459.02 				"/>
				<rect x="700.98" y="459.02" class="st1" width="8.26" height="172.57"/>
				<polygon class="st3" points="692.9,463.98 696.02,463.98 700.98,459.02 692.9,459.02 				"/>
				<rect x="684.64" y="459.02" class="st1" width="8.26" height="172.57"/>
				<polygon class="st3" points="676.56,463.98 679.68,463.98 684.64,459.02 676.56,459.02 				"/>
				<rect x="668.29" y="459.02" class="st1" width="8.26" height="172.57"/>
				<polygon class="st3" points="660.21,463.98 663.34,463.98 668.29,459.02 660.21,459.02 				"/>
				<rect x="651.95" y="459.02" class="st1" width="8.26" height="172.57"/>
				<polygon class="st3" points="643.87,463.98 647,463.98 651.95,459.02 643.87,459.02 				"/>
				<rect x="635.61" y="459.02" class="st1" width="8.26" height="172.57"/>
				<polygon class="st3" points="627.53,463.98 630.66,463.98 635.61,459.02 627.53,459.02 				"/>
				<rect x="619.27" y="459.02" class="st1" width="8.26" height="172.57"/>
				<polygon class="st3" points="611.19,463.98 614.32,463.98 619.27,459.02 611.19,459.02 				"/>
				<rect x="602.93" y="459.02" class="st1" width="8.26" height="172.57"/>
				<polygon class="st3" points="594.85,463.98 597.98,463.98 602.93,459.02 594.85,459.02 				"/>
				<rect x="586.59" y="459.02" class="st1" width="8.26" height="172.57"/>
				<polygon class="st3" points="578.51,463.98 581.63,463.98 586.59,459.02 578.51,459.02 				"/>
				<rect x="570.25" y="459.02" class="st1" width="8.26" height="172.57"/>
				<polygon class="st3" points="562.17,463.98 565.29,463.98 570.25,459.02 562.17,459.02 				"/>
				<rect x="553.91" y="459.02" class="st1" width="8.26" height="172.57"/>
				<polygon class="st3" points="545.83,463.98 548.95,463.98 553.91,459.02 545.83,459.02 				"/>
				<rect x="537.56" y="459.02" class="st1" width="8.26" height="172.57"/>
				<polygon class="st3" points="529.48,463.98 532.61,463.98 537.56,459.02 529.48,459.02 				"/>
				<rect x="521.22" y="459.02" class="st1" width="8.26" height="172.57"/>
				<polygon class="st3" points="513.14,463.98 516.27,463.98 521.22,459.02 513.14,459.02 				"/>
				<rect x="504.88" y="459.02" class="st1" width="8.26" height="172.57"/>
				<polygon class="st3" points="496.8,463.98 499.93,463.98 504.88,459.02 496.8,459.02 				"/>
				<rect x="488.54" y="459.02" class="st1" width="8.26" height="172.57"/>
				<polygon class="st3" points="480.46,463.98 483.59,463.98 488.54,459.02 480.46,459.02 				"/>
				<rect x="472.2" y="459.02" class="st1" width="8.26" height="172.57"/>
				<polygon class="st3" points="464.12,463.98 467.25,463.98 472.2,459.02 464.12,459.02 				"/>
				<rect x="455.86" y="459.02" class="st1" width="8.26" height="172.57"/>
				<polygon class="st3" points="447.78,463.98 450.9,463.98 455.86,459.02 447.78,459.02 				"/>
				<rect x="439.52" y="459.02" class="st1" width="8.26" height="172.57"/>
				<polygon class="st3" points="431.44,463.98 434.56,463.98 439.52,459.02 431.44,459.02 				"/>
				<rect x="423.17" y="459.02" class="st1" width="8.26" height="172.57"/>
				<polygon class="st3" points="415.1,463.98 418.22,463.98 423.17,459.02 415.1,459.02 				"/>
				<rect x="406.83" y="459.02" class="st1" width="8.26" height="172.57"/>
				<polygon class="st3" points="398.75,463.98 401.88,463.98 406.83,459.02 398.75,459.02 				"/>
				<rect x="390.49" y="459.02" class="st1" width="8.26" height="172.57"/>
				<polygon class="st3" points="382.41,463.98 385.54,463.98 390.49,459.02 382.41,459.02 				"/>
				<rect x="374.15" y="459.02" class="st1" width="8.26" height="172.57"/>
				<polygon class="st3" points="366.07,463.98 369.2,463.98 374.15,459.02 366.07,459.02 				"/>
				<rect x="357.81" y="459.02" class="st1" width="8.26" height="172.57"/>
				<polygon class="st3" points="349.73,463.98 352.86,463.98 357.81,459.02 349.73,459.02 				"/>
				<rect x="341.47" y="459.02" class="st1" width="8.26" height="172.57"/>
				<polygon class="st3" points="333.39,463.98 336.51,463.98 341.47,459.02 333.39,459.02 				"/>
				<rect x="314.61" y="459.02" class="st1" width="18.77" height="172.57"/>
				<rect x="314.61" y="447.65" class="st1" width="501.92" height="11.37"/>
				<rect x="183.47" y="447.65" class="st4" width="131.14" height="195.31"/>
			</g>
			<rect x="320.57" y="459.14" class="st5" width="6.66" height="10.74"/>
			<rect x="320.57" y="621.21" class="st5" width="6.66" height="10.74"/>
			<rect x="804.25" y="459.14" class="st5" width="6.66" height="10.74"/>
			<rect x="804.25" y="621.21" class="st5" width="6.66" height="10.74"/>
			<rect x="301.97" y="458.87" class="st2" width="5.99" height="172.75"/>
			<rect x="245.38" y="458.87" class="st2" width="5.99" height="172.75"/>
			<rect x="188.65" y="458.87" class="st2" width="5.99" height="172.75"/>
			<rect x="199.56" y="624.82" class="st2" width="40.22" height="6.81"/>
			<rect x="256.65" y="624.82" class="st2" width="40.22" height="6.81"/>
			<rect x="199.56" y="569.42" class="st2" width="40.22" height="6.81"/>
			<rect x="256.65" y="569.42" class="st2" width="40.22" height="6.81"/>
			<rect x="199.56" y="514.03" class="st2" width="40.22" height="6.81"/>
			<rect x="256.65" y="514.03" class="st2" width="40.22" height="6.81"/>
			<rect x="199.56" y="458.64" class="st2" width="40.22" height="6.81"/>
			<rect x="256.65" y="458.64" class="st2" width="40.22" height="6.81"/>
			<g>
				<rect x="256.65" y="449.96" class="st6" width="3.49" height="190.34"/>
				<rect x="260.14" y="449.96" class="st6" width="3.47" height="8.68"/>
				<rect x="260.14" y="520.84" class="st6" width="3.47" height="8.68"/>
				<rect x="260.14" y="576.23" class="st6" width="3.47" height="8.68"/>
				<rect x="260.14" y="631.63" class="st6" width="3.47" height="8.68"/>
			</g>
			<g>
				<rect x="278.65" y="449.96" class="st6" width="3.49" height="190.34"/>
				<rect x="282.14" y="449.96" class="st6" width="3.47" height="8.68"/>
				<rect x="282.14" y="520.84" class="st6" width="3.47" height="8.68"/>
				<rect x="282.14" y="576.23" class="st6" width="3.47" height="8.68"/>
				<rect x="282.14" y="631.63" class="st6" width="3.47" height="8.68"/>
			</g>
			<g>
				<rect x="209.51" y="449.96" class="st6" width="3.49" height="190.34"/>
				<rect x="213" y="449.96" class="st6" width="3.47" height="8.68"/>
				<rect x="213" y="520.84" class="st6" width="3.47" height="8.68"/>
				<rect x="213" y="576.23" class="st6" width="3.47" height="8.68"/>
				<rect x="213" y="631.63" class="st6" width="3.47" height="8.68"/>
			</g>
			<g>
				<rect x="232.36" y="449.96" class="st6" width="3.49" height="190.34"/>
				<rect x="235.85" y="449.96" class="st6" width="3.47" height="8.68"/>
				<rect x="235.85" y="520.84" class="st6" width="3.47" height="8.68"/>
				<rect x="235.85" y="576.23" class="st6" width="3.47" height="8.68"/>
				<rect x="235.85" y="631.63" class="st6" width="3.47" height="8.68"/>
			</g>
		</g>
	</g>
		<g>
		<path class="st2" d="M368.62,350.6v14.06h-15.36v40.63h-16.74v-40.63h-15.29V350.6H368.62z"/>
			<path class="st2" d="M404.8,365.27v13.29c-2.15-0.72-4.02-1.08-5.61-1.08c-3.07,0-5.42,0.86-7.03,2.57
			c-1.61,1.72-2.42,4.14-2.42,7.26v17.97h-15.13v-39.63h14.52l-0.08,6.14c1.43-2.46,3.07-4.27,4.92-5.45
			c1.84-1.18,4.15-1.77,6.91-1.77C402.11,364.58,403.42,364.81,404.8,365.27z"/>
			<path class="st2" d="M449.5,405.29h-15.36c-0.36-1.33-0.56-2.56-0.62-3.69c-3.33,3.33-7.55,4.99-12.67,4.99
			c-4.51,0-8.03-1.1-10.56-3.3c-2.53-2.2-3.8-5.25-3.8-9.14c0-2,0.41-3.74,1.23-5.22c0.82-1.48,1.65-2.62,2.5-3.42
			c0.84-0.79,2.29-1.51,4.34-2.15c2.05-0.64,3.51-1.04,4.38-1.19c0.87-0.15,2.56-0.41,5.07-0.77c0.1-0.05,0.19-0.08,0.27-0.08
			s0.18-0.01,0.31-0.04c0.13-0.02,0.24-0.04,0.35-0.04c0.26-0.05,0.87-0.12,1.84-0.19c0.97-0.08,1.73-0.17,2.27-0.27
			c0.54-0.1,1.18-0.28,1.92-0.54c0.74-0.26,1.29-0.64,1.65-1.15c0.36-0.51,0.54-1.13,0.54-1.84c0-2.3-1.67-3.46-4.99-3.46
			c-1.84,0-3.17,0.28-3.99,0.84c-0.82,0.56-1.36,1.61-1.61,3.15h-14.21c0.36-8.86,6.96-13.29,19.82-13.29
			c10.19,0,16.44,2.46,18.74,7.37c0.72,1.49,1.08,3.89,1.08,7.22c0,1.59-0.03,3.93-0.08,7.03c-0.05,3.1-0.08,5.72-0.08,7.87
			C447.81,399.27,448.37,403.03,449.5,405.29z M433.22,387.24c-1.13,0.77-3.48,1.54-7.07,2.3c-2.77,0.61-4.15,2-4.15,4.15
			c0,1.23,0.38,2.2,1.15,2.92c0.77,0.72,1.82,1.08,3.15,1.08c2.76,0,4.76-1.02,5.99-3.07c0.62-1.02,0.92-2.69,0.92-4.99V387.24z"/>
			<path class="st2" d="M497.2,350.6v54.69h-14.52v-4.3c-2.71,3.53-6.4,5.3-11.06,5.3c-5.33,0-9.59-1.92-12.79-5.76
			c-3.2-3.84-4.8-8.96-4.8-15.36c0-6.19,1.52-11.16,4.57-14.9c3.05-3.74,7.1-5.61,12.17-5.61c4.51,0,8.27,1.77,11.29,5.3V350.6
			H497.2z M475.92,376.25c-4.4,0-6.61,3.05-6.61,9.14c0,5.89,2.2,8.83,6.61,8.83c2.15,0,3.8-0.77,4.95-2.3
			c1.15-1.54,1.73-3.74,1.73-6.61c0-2.92-0.58-5.16-1.73-6.72C479.72,377.03,478.07,376.25,475.92,376.25z"/>
			<path class="st2" d="M546.74,393.38c-1.18,4.2-3.73,7.43-7.64,9.68c-3.92,2.25-8.21,3.38-12.87,3.38c-6.45,0-11.8-1.82-16.05-5.45
			c-4.25-3.64-6.38-8.65-6.38-15.05c0-6.2,2.06-11.29,6.18-15.28c4.12-3.99,9.36-5.99,15.71-5.99c6.66,0,11.97,2.07,15.94,6.22
			c3.97,4.15,5.95,9.73,5.95,16.74v1.15H518.4c0.1,2.51,0.83,4.46,2.19,5.84c1.36,1.38,3.21,2.07,5.57,2.07
			c2.82,0,4.94-1.1,6.38-3.3H546.74z M532.76,381.17c-0.41-4.51-2.74-6.76-6.99-6.76c-4.1,0-6.53,2.25-7.3,6.76H532.76z"/>
			<path class="st2" d="M554.34,350.6h27.57c12.96,0,19.43,4.56,19.43,13.67c0,4.61-2.28,8.27-6.84,10.98
			c6.35,2.2,9.52,6.68,9.52,13.44c0,3.07-0.58,5.72-1.73,7.95s-2.75,3.96-4.8,5.18c-2.05,1.23-4.25,2.11-6.61,2.65
			c-2.36,0.54-4.97,0.81-7.83,0.81h-28.73V350.6z M570.62,363.04v8.45h9.45c1.59,0,2.83-0.37,3.73-1.11
			c0.89-0.74,1.34-1.75,1.34-3.03c0-2.87-1.95-4.3-5.84-4.3H570.62z M570.62,382.01v10.29h10.37c4.25,0,6.38-1.69,6.38-5.07
			c0-3.48-2.13-5.22-6.38-5.22H570.62z"/>
			<path class="st2" d="M626.39,350.6v10.6h-15.21v-10.6H626.39z M626.39,365.65v39.63h-15.21v-39.63H626.39z"/>
			<path class="st2" d="M676.46,350.6v54.69h-14.52v-4.3c-2.71,3.53-6.4,5.3-11.06,5.3c-5.33,0-9.59-1.92-12.79-5.76
			c-3.2-3.84-4.8-8.96-4.8-15.36c0-6.19,1.52-11.16,4.57-14.9c3.05-3.74,7.11-5.61,12.17-5.61c4.51,0,8.27,1.77,11.29,5.3V350.6
			H676.46z M655.19,376.25c-4.4,0-6.61,3.05-6.61,9.14c0,5.89,2.2,8.83,6.61,8.83c2.15,0,3.8-0.77,4.95-2.3
			c1.15-1.54,1.73-3.74,1.73-6.61c0-2.92-0.58-5.16-1.73-6.72C658.99,377.03,657.34,376.25,655.19,376.25z"/>
	</g>
</g>
</svg>
