<svg width="32" height="32" viewBox="0 0 32 32" fill="none" xmlns="http://www.w3.org/2000/svg">
	<rect opacity="0.1" width="32" height="32" rx="4" fill="#EF8727"/>
	<path d="M26.3601 12.27L26.0701 9.5C25.6501 6.48 24.2801 5.25 21.3501 5.25H18.9901H17.5101H14.4701H12.9901H10.5901C7.65014 5.25 6.29014 6.48 5.86014 9.53L5.59014 12.28C5.49014 13.35 5.78014 14.39 6.41014 15.2C7.17014 16.19 8.34014 16.75 9.64014 16.75C10.9001 16.75 12.1101 16.12 12.8701 15.11C13.5501 16.12 14.7101 16.75 16.0001 16.75C17.2901 16.75 18.4201 16.15 19.1101 15.15C19.8801 16.14 21.0701 16.75 22.3101 16.75C23.6401 16.75 24.8401 16.16 25.5901 15.12C26.1901 14.32 26.4601 13.31 26.3601 12.27Z" fill="#EF8727"/>
	<path d="M15.3501 20.66C14.0801 20.79 13.1201 21.87 13.1201 23.15V25.89C13.1201 26.16 13.3401 26.38 13.6101 26.38H18.3801C18.6501 26.38 18.8701 26.16 18.8701 25.89V23.5C18.8801 21.41 17.6501 20.42 15.3501 20.66Z" fill="#EF8727"/>
	<path d="M25.3699 18.4001V21.3801C25.3699 24.1401 23.1299 26.3801 20.3699 26.3801C20.0999 26.3801 19.8799 26.1601 19.8799 25.8901V23.5001C19.8799 22.2201 19.4899 21.2201 18.7299 20.5401C18.0599 19.9301 17.1499 19.6301 16.0199 19.6301C15.7699 19.6301 15.5199 19.6401 15.2499 19.6701C13.4699 19.8501 12.1199 21.3501 12.1199 23.1501V25.8901C12.1199 26.1601 11.8999 26.3801 11.6299 26.3801C8.86988 26.3801 6.62988 24.1401 6.62988 21.3801V18.4201C6.62988 17.7201 7.31988 17.2501 7.96988 17.4801C8.23988 17.5701 8.50988 17.6401 8.78988 17.6801C8.90988 17.7001 9.03988 17.7201 9.15988 17.7201C9.31988 17.7401 9.47988 17.7501 9.63988 17.7501C10.7999 17.7501 11.9399 17.3201 12.8399 16.5801C13.6999 17.3201 14.8199 17.7501 15.9999 17.7501C17.1899 17.7501 18.2899 17.3401 19.1499 16.6001C20.0499 17.3301 21.1699 17.7501 22.3099 17.7501C22.4899 17.7501 22.6699 17.7401 22.8399 17.7201C22.9599 17.7101 23.0699 17.7001 23.1799 17.6801C23.4899 17.6401 23.7699 17.5501 24.0499 17.4601C24.6999 17.2401 25.3699 17.7201 25.3699 18.4001Z" fill="#EF8727"/>
</svg>
