<svg width="32" height="32" viewBox="0 0 32 32" fill="none" xmlns="http://www.w3.org/2000/svg">
	<rect opacity="0.1" width="32" height="32" rx="4" fill="#407BFF"/>
	<path d="M23.9602 13.5615C23.2902 12.8511 22.2802 12.4383 20.8802 12.2943V11.5647C20.8802 10.2495 20.3002 8.98233 19.2802 8.09913C18.2502 7.19673 16.9102 6.77433 15.5202 6.89913C13.1302 7.11993 11.1202 9.33753 11.1202 11.7375V12.2943C9.72023 12.4383 8.71023 12.8511 8.04023 13.5615C7.07023 14.5983 7.10023 15.9807 7.21023 16.9407L7.91023 22.2879C8.12023 24.1599 8.91023 26.0799 13.2102 26.0799H18.7902C23.0902 26.0799 23.8802 24.1599 24.0902 22.2975L24.7902 16.9311C24.9002 15.9807 24.9202 14.5983 23.9602 13.5615ZM15.6602 8.23353C16.6602 8.14713 17.6102 8.44473 18.3502 9.08793C19.0802 9.72153 19.4902 10.6239 19.4902 11.5647V12.2367H12.5102V11.7375C12.5102 10.0287 13.9802 8.38713 15.6602 8.23353ZM12.4202 17.5839H12.4102C11.8602 17.5839 11.4102 17.1519 11.4102 16.6239C11.4102 16.0959 11.8602 15.6639 12.4102 15.6639C12.9702 15.6639 13.4202 16.0959 13.4202 16.6239C13.4202 17.1519 12.9702 17.5839 12.4202 17.5839ZM19.4202 17.5839H19.4102C18.8602 17.5839 18.4102 17.1519 18.4102 16.6239C18.4102 16.0959 18.8602 15.6639 19.4102 15.6639C19.9702 15.6639 20.4202 16.0959 20.4202 16.6239C20.4202 17.1519 19.9702 17.5839 19.4202 17.5839Z" fill="#407BFF"/>
</svg>

