<svg width="24" height="24" viewBox="0 0 24 24" fill="none" xmlns="http://www.w3.org/2000/svg">
	<path fill-rule="evenodd" clip-rule="evenodd" d="M15.395 4.13878C16.222 3.55988 16.8 3.15622 17.2552 2.89586C17.7184 2.63099 17.9362 2.58712 18.0546 2.5923C18.4238 2.60845 18.7668 2.78707 18.9917 3.0802C19.0639 3.17428 19.1529 3.37784 19.2015 3.90917C19.2492 4.43144 19.25 5.13642 19.25 6.14589L19.25 7.99992L19.25 13.9999L19.25 15.8537C19.25 16.8632 19.2492 17.5682 19.2015 18.0904C19.1529 18.6218 19.0639 18.8253 18.9917 18.9194C18.7668 19.2125 18.4238 19.3911 18.0546 19.4073C17.9362 19.4125 17.7184 19.3686 17.2552 19.1037C16.8 18.8434 16.222 18.4397 15.395 17.8608L10.75 14.6093L10.75 7.39029L15.395 4.13878ZM20.75 14.6749L20.75 15.8537L20.75 15.8925C20.75 16.8541 20.75 17.6282 20.6952 18.2271C20.6405 18.825 20.5228 19.388 20.1818 19.8325C19.687 20.4774 18.9323 20.8703 18.1202 20.9059C17.5605 20.9304 17.0318 20.7039 16.5106 20.4058C15.9886 20.1073 15.3545 19.6635 14.5669 19.1121L14.5668 19.112L14.5667 19.112L14.5666 19.1119L14.5348 19.0897L9.76393 15.75L9.75 15.75L9.75 19.5002C9.75 20.7428 8.74264 21.7502 7.5 21.7502C6.25736 21.7502 5.25 20.7428 5.25 19.5002L5.25 15.6912C2.98301 15.3316 1.25 13.3682 1.25 11C1.25 8.37669 3.37665 6.25004 6 6.25004L9.76323 6.25004L14.5348 2.90993L14.5666 2.88767C15.3544 2.33621 15.9885 1.8923 16.5106 1.59375C17.0318 1.2957 17.5605 1.06924 18.1202 1.09374C18.9323 1.12927 19.687 1.52222 20.1818 2.1671C20.5228 2.61162 20.6405 3.17463 20.6952 3.7725C20.75 4.37135 20.75 5.14536 20.75 6.10689L20.75 6.10707L20.75 6.14589L20.75 7.32493C22.4617 7.67238 23.75 9.1857 23.75 10.9999C23.75 12.8141 22.4617 14.3275 20.75 14.6749ZM20.75 13.1219C21.6239 12.813 22.25 11.9796 22.25 10.9999C22.25 10.0203 21.6239 9.18682 20.75 8.87795L20.75 13.1219ZM9.25 7.75004L6 7.75004C4.20507 7.75004 2.75 9.20511 2.75 11C2.75 12.795 4.20507 14.25 6 14.25L9.25 14.25L9.25 7.75004ZM6.75 15.7502L6.75 19.5002C6.75 19.9144 7.08578 20.2502 7.5 20.2502C7.91421 20.2502 8.25 19.9144 8.25 19.5002L8.25 15.7502L6.75 15.7502Z" fill="black"/>
</svg>

