<?xml version="1.0" encoding="utf-8"?>
<!-- Generator: Adobe Illustrator 26.0.3, SVG Export Plug-In . SVG Version: 6.00 Build 0)  -->
<svg version="1.1" id="Слой_1" xmlns="http://www.w3.org/2000/svg" xmlns:xlink="http://www.w3.org/1999/xlink" x="0px" y="0px"
	 viewBox="0 0 500 500" style="enable-background:new 0 0 500 500;" xml:space="preserve">
<style type="text/css">
	.st0{fill-rule:evenodd;clip-rule:evenodd;fill:#FFFFFF;}
	.st1{fill-rule:evenodd;clip-rule:evenodd;fill:#5F8B46;}
	.st2{fill:#5F8B46;}
</style>
<path class="st0" d="M0,0h500v500H0V0z"/>
<g>
	<path class="st1" d="M244.5,407.3c51.2,0,102-9.1,142-31.1c54.8-30.3,85.4-78.3,88.4-127.8c1.1-17.6-4.4-33.5-12.2-49.4
		C429.3,131.4,346.5,93.2,247,92.7c-50.7-0.2-96.6,12.2-136.2,33.8C55.5,156.7,25,202.2,25,252.2C25,338.1,123,407.3,244.5,407.3
		L244.5,407.3z"/>
	<path class="st0" d="M246.5,392.9c48,0,93.1-8.9,129.1-26.1c56.3-26.9,90.5-70.9,90.8-118.1c0.6-75.8-90.5-139.3-213.5-139.3
		c-42.3,0-81.7,7.5-115.6,19.1C72.4,150.6,33.6,204.8,33.6,254.6C33.6,330.4,123.4,392.9,246.5,392.9z"/>
	<path class="st1" d="M97.6,246.1l3.1-10H32.3l-2.8,10H97.6z M144.4,135.1h63.2l-3.5,9.7h-50.8l-11.9,40.1H191l-2,7.7h-50.3
		l-13.9,42.1h56.2l-2.2,11.1h-68.4L144.4,135.1L144.4,135.1z M279.7,194.3c0,0,4.2-26.3,14.9-38.9c10.7-12.6,18.1-16.1,18.1-16.1
		c6.2-5.5,32.4-13.6,48.5-3.7c16.1,9.9,20.8,21.9,18.3,45.6c-2.2,21.1-16.3,40.4-16.3,40.4c0-0.2-14.6,23.3-44.1,23.5
		c0,0-22.5,2-32.9-13.9C275.7,215.3,279.7,194.3,279.7,194.3L279.7,194.3z"/>
	<path class="st0" d="M340.6,140.8c0,0,25.3-2,26.7,23.5c1.5,25.5-11.6,47.6-11.6,47.6s-11.6,23.5-37.6,24.3
		c-23,0.7-25.5-16.1-25.5-16.1s-3.2-11.9,1.2-30.5c0,0,4.3-18.4,11.6-28.7C314.3,148.2,322.5,141,340.6,140.8z"/>
	<path class="st1" d="M221.4,250.2h62.9l-3.5,9.8H231l-12.4,37.8h49.8l-2.9,9.7h-50.2l-12.3,41.9h57.3l-3.7,11.6h-69.1L221.4,250.2z
		 M467.2,259.3l2.3-11.3h-21.8l-3.1,11.3H467.2z M361,248l-3.8,11h34.1l-30.6,101.7l11.9-0.2l30-101.4h29L435,248H361z M262.8,361
		l33.7-110.7h39.6c0,0,20.3,0.5,21.3,22.8c0.9,19.3-26.3,29.2-26.3,29.2s10.9,1,8.9,25.3c-2,24.3-1,32.7-1,32.7h-12.9l2.8-38.1
		c0,0,3.8-14-9.1-14.5c-12.9-0.5-30.3,0-30.3,0L273.8,361L262.8,361L262.8,361L262.8,361z"/>
	<path class="st0" d="M292.5,297.7l11.5-37.6h30.1c0,0,19.3,1.1,10.8,21.5c-3.4,8.1-16.3,16.2-24.7,16.2H292.5z"/>
	<path class="st1" d="M191.7,281.2c0,0,5.9-24.3-21.5-23.5c0,0-8.9-1-17,4.2c-7.2,4.7-13.3,10.6-18.2,19.5c0,0-6.4,6.4-11.6,26.3
		c0,0-2.2,10.9-2,21.8c0.2,9.7,1.5,23.3,24.8,23.5c23.3,0.3,28.7-17.8,28.7-17.8h13.9c0,0-7.4,27.7-42.6,27.7c0,0-30,0.1-34.7-22
		c-5.2-24.8,4.5-47.1,4.5-47.1s11.6-27.7,28.5-36.4c0,0,13.1-7.4,26.5-7.4c13.4,0,35.7,4.5,32.9,31.2L191.7,281.2L191.7,281.2z
		 M275,164.3c0,0,5.9-24.3-21.5-23.5c0,0-8.9-1-17,4.2c-7.2,4.7-13.3,10.6-18.2,19.5c0,0-6.4,6.4-11.6,26.3c0,0-2.2,10.9-2,21.8
		c0.2,9.7,1.5,23.3,24.8,23.5c23.3,0.2,28.7-17.8,28.7-17.8H272c0,0-7.4,27.7-42.6,27.7c0,0-30,0.1-34.7-22
		c-5.2-24.8,4.5-47.1,4.5-47.1s11.6-27.7,28.5-36.4c0,0,13.1-7.4,26.5-7.4c13.4,0,35.7,4.5,32.9,31.2L275,164.3L275,164.3z
		 M440.9,378.6v-12.5h1.3c1.8,0,3.9-0.1,5.5,0.7c2.2,1,3.2,3.3,3.2,5.5c0,1.8-0.7,3.7-2.2,4.8c-1.5,1.3-3.5,1.4-5.4,1.4L440.9,378.6
		L440.9,378.6z M444.1,380.4c5.1,0.1,8.8-2.7,8.8-8c0-2.6-0.9-5-3.1-6.6c-2.1-1.5-4.5-1.5-7-1.5H439v30.6h2v-14.5h1l10,14.5h2.2
		L444.1,380.4L444.1,380.4z"/>
	<path class="st2" d="M444.9,402.9L444.9,402.9c-12.9-0.2-23.1-10.4-23.2-23.2c-0.1-6.3,2.3-12.3,6.7-16.8s10.3-7.1,16.6-7.1
		c13,0,23.6,10.6,23.6,23.6C468.4,392.3,457.9,402.9,444.9,402.9z M444.9,358.7c-5.5,0.1-10.6,2.3-14.4,6.2
		c-3.8,3.9-5.9,9.1-5.8,14.6c0.2,11.2,9.1,20.1,20.3,20.3c11.3,0,20.6-9.2,20.6-20.6C465.4,368,456.2,358.7,444.9,358.7z"/>
</g>
</svg>
