<?xml version="1.0" encoding="utf-8"?>
<!-- Generator: Adobe Illustrator 26.0.3, SVG Export Plug-In . SVG Version: 6.00 Build 0)  -->
<svg version="1.1" id="Слой_1" xmlns="http://www.w3.org/2000/svg" xmlns:xlink="http://www.w3.org/1999/xlink" x="0px" y="0px"
	 viewBox="0 0 600 600" style="enable-background:new 0 0 600 600;" xml:space="preserve">
<style type="text/css">
	.st0{fill:#EEEEEE;}
	.st1{fill:#464646;}
</style>
<path class="st0" d="M466,600H134C60,600,0,540,0,466V134C0,60,60,0,134,0h332c74,0,134,60,134,134v332C600,540,540,600,466,600z"/>
<g>
	<path class="st1" d="M510.5,226.4c-0.1,2.2-0.3,4.4-0.8,6.5c-0.7,3.1,0.2,5.9,2,8.4c0.4,0.5,0.9,1,1.3,1.5
		c4.6,4.8,7.4,10.5,8.3,17.1c0.6,4.8,0.3,9.5-1.3,14.2c-0.4,1.2-0.8,2.4-0.9,3.7c-0.3,2.3,0.4,4.5,1.5,6.5c1.4,2.4,2.5,5,3.2,7.7
		c2.3,8.8,1,17-3.7,24.7c-0.2,0.3-0.4,0.7-0.7,1c-1.9,3.1-2.2,6.3-1,9.7c0.7,2,1.4,4,1.8,6.1c1.8,9.8-0.6,18.5-7,26.2
		c-0.4,0.5-0.9,1-1.3,1.5c-1.7,2-2.7,4.3-2.6,6.9c0,0.9,0,1.7,0.2,2.6c1.8,11.8-3.7,23.4-13,29.8c-0.3,0.2-0.7,0.4-1,0.7
		c-2.8,2.1-4.4,4.9-4.5,8.5c-0.1,4.3-0.8,8.4-2.6,12.4c-3,6.8-7.7,11.8-14.3,15.2c-0.5,0.2-1,0.5-1.4,0.7c-2.8,1.5-4.7,3.7-5.5,6.7
		c-0.7,2.7-1.6,5.3-3.1,7.8c-4.7,8.2-11.7,13.3-20.9,15.2c-2.3,0.5-4.4,1.5-6,3.2c-0.9,1-1.6,2.1-2.2,3.3c-0.7,1.4-1.3,2.9-2.2,4.3
		c-4.8,7.7-11.8,12.5-20.7,14.2c-1.6,0.3-3.2,0.4-4.7,0.5c-3.5,0.1-6.4,1.5-8.6,4.3c-1.2,1.5-2.4,3-3.8,4.4
		c-4.7,4.6-10.4,7.4-16.8,8.4c-3.4,0.5-6.9,0.5-10.3-0.2c-1.3-0.2-2.6-0.5-4-0.3c-2.6,0.3-4.8,1.4-6.7,3.2c-3,3-6.5,5.2-10.5,6.7
		c-3.6,1.4-7.4,2.1-11.3,2.1c-3.3,0-6.5-0.6-9.6-1.6c-0.4-0.1-0.9-0.3-1.3-0.5c-3-1-5.9-0.7-8.6,0.9c-2,1.1-4,2.2-6.1,2.8
		c-9.2,3-17.9,2-26.2-3c-0.4-0.2-0.8-0.5-1.2-0.8c-3.1-2-6.4-2.3-9.9-1.1c-1.8,0.7-3.6,1.3-5.5,1.7c-10,2.1-18.9-0.3-26.8-6.9
		c-0.5-0.4-0.9-0.8-1.3-1.2c-2.6-2.3-5.7-3.1-9.1-2.6c-12.8,2-24.1-3.8-30.4-13c-0.2-0.2-0.3-0.4-0.4-0.7c-2.2-3.2-5.2-4.8-9.1-4.8
		c-6.4-0.1-12.3-2-17.5-5.7c-3.9-2.7-6.9-6.2-9.2-10.3c-0.3-0.5-0.5-0.9-0.7-1.4c-1.5-3.5-4.2-5.6-7.9-6.6
		c-7.8-2.1-13.8-6.6-18.1-13.4c-1.9-3-3.2-6.2-3.9-9.7c-0.1-0.5-0.2-1-0.4-1.6c-0.8-3-2.6-5.3-5.4-6.8c-0.7-0.4-1.4-0.7-2.2-1
		c-9.4-4.6-15.1-12-17.2-22.3c-0.3-1.3-0.3-2.6-0.4-3.9c-0.1-1.2-0.2-2.4-0.5-3.5c-0.6-2.4-2-4.3-3.9-5.8c-1.4-1.1-2.7-2.1-3.9-3.3
		c-4.8-4.8-7.7-10.5-8.8-17.3c-0.6-3.6-0.5-7.2,0.2-10.7c0.8-4-0.2-7.4-3-10.2c-3.3-3.3-5.7-7.2-7.1-11.6
		c-2.2-6.6-2.2-13.2-0.1-19.8c0.4-1.3,0.9-2.6,0.9-4.1c0.1-2.2-0.4-4.2-1.5-6.1c-1.5-2.6-2.7-5.3-3.4-8.2c-2-8.5-0.9-16.5,3.7-23.9
		c0.3-0.5,0.6-0.9,0.9-1.3c1.9-3,2.1-6.2,1-9.5c-0.5-1.6-1.2-3.1-1.5-4.7c-2.3-10.4-0.1-19.7,6.9-27.9c0.4-0.5,0.9-1,1.3-1.5
		c1.9-2.4,2.8-5.1,2.3-8.2c-0.2-1.6-0.5-3.3-0.5-5c0.1-10.8,4.4-19.4,13.1-25.7c0.5-0.4,1.1-0.7,1.6-1.2c2.2-1.8,3.6-4,4-6.9
		c0.1-0.9,0.2-1.8,0.2-2.8c0.2-10.4,6.5-21.1,17-26.3c0.1-0.1,0.2-0.1,0.4-0.2c3.6-1.5,5.6-4.3,6.6-8c2.9-11.1,12.2-19.9,23.6-22.1
		c4-0.8,6.8-3.1,8.4-6.8c2.8-6.6,7.4-11.6,13.7-15c4.1-2.3,8.6-3.5,13.3-3.6c4-0.1,7.1-1.7,9.5-4.9c4.8-6.6,11.3-10.5,19.3-12.1
		c3.8-0.7,7.5-0.7,11.3,0.1c4.1,0.8,7.6,0,10.6-3c0.2-0.2,0.4-0.4,0.6-0.5c4.2-3.8,9-6.3,14.5-7.5c5.3-1.1,10.5-0.9,15.7,0.7
		c0.9,0.3,1.9,0.7,2.9,0.9c2.7,0.6,5.3,0.2,7.7-1.2c2.3-1.3,4.7-2.5,7.3-3.2c9-2.4,17.5-1.3,25.4,3.7c0.3,0.2,0.7,0.4,1,0.7
		c3,1.8,6.1,2.1,9.4,1c1.7-0.6,3.5-1.3,5.3-1.7c10.2-2.2,19.3,0.1,27.3,6.9c0.6,0.5,1.1,1,1.6,1.5c2.5,2,5.3,2.7,8.6,2.3
		c12.4-1.6,22.4,2.4,30.1,12.4c0.3,0.4,0.5,0.8,0.8,1.1c2.2,3.2,5.2,4.8,9.1,4.9c2.3,0.1,4.6,0.2,6.9,0.8
		c9.1,2.3,15.8,7.5,20.3,15.8c0.3,0.6,0.6,1.3,1,2c1.3,2.4,3.3,4.1,5.9,5c0.6,0.2,1.2,0.3,1.7,0.5c11.4,3.6,18.7,11.2,21.7,22.8
		c0.1,0.4,0.2,0.9,0.3,1.4c0.8,3.4,2.7,5.9,5.8,7.4c0.6,0.3,1.2,0.5,1.8,0.8c9.6,4.7,15.4,12.4,17.4,22.9c0.3,1.5,0.4,3,0.4,4.6
		c0.1,3.4,1.6,6.1,4.2,8.2c1.4,1.1,2.8,2.2,4.1,3.5c4.6,4.6,7.5,10.1,8.5,16.5C510.3,222.8,510.4,224.6,510.5,226.4z M100.2,299.9
		c0.2,111.7,90.7,199.5,199.2,199.8c109.6,0.3,200-88.2,200.4-199c0.4-110.3-88.7-200.5-199.7-200.5
		C189.7,100.1,100.4,189.3,100.2,299.9z"/>
	<path class="st1" d="M104.3,300c-0.1-107.3,86.6-195.7,195.7-195.7c109.6,0,195.6,89.1,195.7,195.5
		c0.1,107.9-87.6,195.9-195.8,195.8C192.4,495.6,104.3,408.4,104.3,300z M299.9,487.3c103.1-0.1,187.2-83.4,187.4-187.1
		c0.1-104.5-84.9-187.3-186.9-187.5c-103.9-0.2-187.6,84.5-187.7,187.1C112.6,401.6,195.2,487,299.9,487.3z"/>
	<path class="st1" d="M168.6,300.1c0.2-74.3,60.6-131.7,131.2-131.4c71.4-0.5,131.4,57.6,131.5,131c0.1,73.5-59.7,131.7-131.4,131.7
		C229.1,431.4,168.8,374.2,168.6,300.1z M428.7,300.1c-0.2-71.2-57.4-127.8-126.9-128.7c-72.4-0.9-130.1,57.8-130.4,128
		c-0.3,69.5,55.8,129.1,128.4,129.3C370.7,428.8,428.3,371.4,428.7,300.1z"/>
	<path class="st1" d="M237.8,426.3c1.2,0.5,2.4,0.9,3.5,1.3c2.6,1,5.2,2,7.8,3c0.9,0.4,1.9,0.7,2.7,1.2c1.1,0.6,2.2,1.3,3.1,2.1
		c3.2,2.7,4.3,6.1,2.9,10.6c-0.3,1-0.8,2-1.3,2.9c-1.3,2.2-3.1,3.6-5.6,4.2c-0.8,0.2-1.7,0.4-2.5,0.6c-0.3,1-0.1,2,0,3
		c0.4,3.2,0.7,6.3,1.1,9.5c0.1,0.7,0.2,1.4,0.3,2.2c0,0.4-0.1,0.9-0.1,1.5c-2.4-0.7-4.5-1.6-6.6-2.5c-0.2-1.2-0.3-2.4-0.5-3.6
		c-0.3-3-0.6-6.1-0.9-9.1c0-0.3,0-0.7-0.1-1c-0.1-0.3-0.4-0.8-0.7-0.9c-1.6-0.7-3.2-1.5-5.1-1.9c-1.1,1.9-1.6,4-2.5,5.9
		c-0.8,1.9-1.4,3.9-2.4,5.7c-1.1-0.1-2-0.6-3-1c-1-0.4-2-0.8-2.9-1.1c-0.4-0.7-0.1-1.1,0.1-1.6c2.1-5.4,4.2-10.9,6.3-16.3
		c1.7-4.3,3.3-8.5,5-12.8C236.9,427.6,237,426.9,237.8,426.3z M238.2,443.9c0.1,0.1,0.3,0.3,0.4,0.4c1.9,0.8,3.8,1.5,5.7,2.2
		c0.5,0.2,1,0.2,1.6,0.3c1.2,0.1,2.4-0.2,3.4-0.9c3.4-2.6,3-7.4-0.7-9.4c-0.2-0.1-0.5-0.3-0.7-0.3c-1.6-0.6-3.2-1.3-4.8-1.9
		c-0.3-0.1-0.8-0.1-1.1-0.2C240.9,435.9,238.4,442.4,238.2,443.9z"/>
	<path class="st1" d="M248,153.9c1.2,1.5,2.8,2.5,4.1,3.7c1.3,1.1,2.6,2.2,4,3.3c1.4,1.1,2.8,2.3,4.2,3.6c-0.4,0.3-0.6,0.5-0.9,0.6
		c-1.9,0.8-3.8,1.6-5.8,2.4c-0.6-0.4-1.1-0.8-1.6-1.3c-2.6-2.2-5.1-4.4-7.7-6.6c-0.5-0.4-0.9-0.8-1.4-1.1c-0.3-0.2-0.7-0.3-0.9-0.2
		c-1.7,0.6-3.4,1.1-5,2.1c0.1,0.5,0.2,1,0.3,1.4c1.1,2.8,2.2,5.5,3.4,8.3c0.3,0.7,0.5,1.3,0.7,2c-1.2,0.9-4.2,2.2-6,2.6
		c-0.6-0.4-0.7-1.1-0.9-1.7c-3.2-7.8-6.4-15.6-9.6-23.4c-0.7-1.8-1.5-3.6-2.2-5.3c-0.2-0.5-0.3-1-0.5-1.6c0.5-0.3,0.8-0.5,1.3-0.7
		c3.7-1.5,7.3-3.1,11-4.5c2.2-0.9,4.4-1.4,6.8-1.3c3.2,0.2,5.7,1.5,7.5,4.2c1.2,1.9,1.9,3.9,2,6.2c0.1,2.1-0.4,3.9-1.6,5.6
		C248.9,152.6,248.5,153.2,248,153.9z M230.9,145.1c0.1,1.2,0.7,2.2,1.1,3.3c0.4,1.1,0.9,2.2,1.3,3.3c0.5,1.1,0.7,2.3,1.6,3.2
		c0.4-0.1,0.7-0.1,1-0.2c1.6-0.6,3.2-1.3,4.8-2c0.5-0.2,1.1-0.5,1.5-0.9c1.8-1.3,2.5-3.1,2-5.2c-0.5-2.3-1.7-4-4.2-4.6
		c-1.1-0.3-2.1,0-3.1,0.4c-1.9,0.7-3.7,1.5-5.5,2.3C231.2,144.7,231.1,144.9,230.9,145.1z"/>
	<path class="st1" d="M155.1,317.6c-0.9-0.4-1.5-0.7-2.1-1c-2.6-1.4-5.2-2.7-7.7-4.1c-1.1-0.6-2.1-0.6-3.2,0
		c-2.6,1.4-5.2,2.7-7.7,4.1c-0.6,0.3-1.2,0.6-1.7,0.8c-0.5-0.3-0.3-0.6-0.3-0.9c0.5-3.1,1.1-6.3,1.6-9.4c0.1-0.3,0.1-0.7,0.1-1
		c0.2-0.9-0.1-1.5-0.8-2.1c-2.2-2.1-4.4-4.3-6.6-6.4c-0.5-0.5-1-0.8-1.3-1.6c0.3-0.1,0.6-0.3,0.9-0.4c3-0.4,6-0.9,9.1-1.3
		c0.3,0,0.7-0.1,1-0.1c1-0.1,1.6-0.6,2.1-1.6c1.4-2.9,2.9-5.8,4.3-8.8c0.2-0.4,0.4-0.8,0.8-1.4c0.3,0.5,0.5,0.8,0.7,1.1
		c1.4,2.8,2.8,5.6,4.2,8.4c0.2,0.4,0.4,0.8,0.6,1.2c0.2,0.4,0.6,0.7,1.1,0.8c0.4,0.1,0.8,0.2,1.2,0.2c3.2,0.4,6.3,0.9,9.5,1.3
		c0.4,0.1,0.7,0.2,1.2,0.4c-0.4,0.5-0.7,0.8-1,1.1c-2.1,2-4.2,4.1-6.3,6.1c-0.3,0.3-0.7,0.7-1,1c-0.5,0.5-0.7,1.1-0.6,1.8
		c0.6,3.2,1.1,6.4,1.7,9.6C155,316.2,155.1,316.7,155.1,317.6z"/>
	<path class="st1" d="M462.6,236.8c-0.6,2-1.7,3.7-2.6,5.6c-0.9,1.9-1.8,3.7-2.7,5.6c0.3,0.6,0.6,1.2,0.9,1.8c1.5,2.7,3,5.3,4.5,8
		c0.3,0.4,0.4,0.9,0.8,1.6c-1.1-0.1-1.9-0.1-2.7-0.2c-2.4-0.3-4.9-0.7-7.3-1c-0.1,0-0.1,0-0.2,0c-3-0.2-2.3-0.4-4.1,1.5
		c-1.9,2.1-3.8,4.2-5.8,6.3c-0.3,0.4-0.7,0.7-1.3,1.2c-0.2-0.7-0.4-1.3-0.5-1.8c-0.6-3.1-1.1-6.1-1.6-9.2c-0.2-1-0.7-1.6-1.6-2
		c-3-1.3-5.9-2.7-8.9-4c-0.4-0.2-0.8-0.4-1.4-0.7c0.6-0.4,1-0.7,1.4-0.9c2.5-1.4,5-2.7,7.5-4.1c0.4-0.2,0.8-0.5,1.2-0.7
		c0.8-0.3,1.1-0.9,1.2-1.7c0.2-1.3,0.3-2.6,0.4-4c0.2-1.7,0.3-3.4,0.5-5.2c0.1-0.7,0.2-1.4,0.4-2.4c0.6,0.5,1,0.7,1.4,1.1
		c2.1,2,4.2,4,6.3,6.1c0.2,0.2,0.5,0.5,0.7,0.7c0.6,0.6,1.2,0.8,2.1,0.6c3.1-0.7,6.2-1.3,9.3-1.9
		C461.3,236.6,461.9,236.4,462.6,236.8z"/>
	<path class="st1" d="M169.9,366.1c-1-0.1-1.8-0.1-2.6-0.2c-2.4-0.3-4.7-0.6-7.1-1c-0.4-0.1-0.8-0.1-1.2-0.2
		c-1.3-0.3-2.2,0.1-3.1,1.1c-2,2.3-4.1,4.5-6.1,6.8c-0.3,0.4-0.7,0.7-1.3,1.2c-0.2-0.5-0.3-0.8-0.4-1.1c-0.6-3.1-1.1-6.3-1.7-9.4
		c0-0.1-0.1-0.3-0.1-0.4c-0.1-1.1-0.7-1.9-1.8-2.3c-2.8-1.1-5.5-2.4-8.2-3.7c-0.6-0.3-1.2-0.6-1.7-0.8c0-0.5,0.3-0.6,0.6-0.8
		c2.7-1.5,5.4-2.9,8.1-4.3c0.5-0.3,0.9-0.5,1.4-0.8c0.6-0.3,1-0.8,1.1-1.6c0.2-2.1,0.5-4.2,0.7-6.3c0.2-1.6,0.3-3.2,0.5-4.7
		c0-0.1,0.1-0.2,0.3-0.4c0.3,0.3,0.7,0.5,1,0.8c2.2,2.1,4.3,4.1,6.5,6.2c0.3,0.3,0.6,0.5,0.9,0.8c0.5,0.6,1.1,0.7,2,0.6
		c3.2-0.7,6.4-1.3,9.5-2c0.5-0.1,1-0.1,1.7-0.2c-0.2,0.6-0.3,1-0.4,1.4c-1.2,2.6-2.5,5.1-3.7,7.7c-0.2,0.4-0.4,0.9-0.6,1.3
		c-0.5,0.8-0.4,1.5,0.1,2.2c1.6,2.8,3.2,5.6,4.8,8.5C169.4,364.9,169.6,365.4,169.9,366.1z"/>
	<path class="st1" d="M157.8,267c-0.6-0.7-1.1-1.1-1.6-1.6c-2-2.2-4-4.4-6-6.6c-0.7-0.8-1.4-1.1-2.4-1c-1.5,0.2-3,0.4-4.5,0.6
		c-2.1,0.3-4.2,0.6-6.3,0.8c-0.1,0-0.2-0.1-0.5-0.2c0.2-0.5,0.4-0.9,0.7-1.4c1.6-2.8,3.1-5.6,4.8-8.3c0.6-1,0.6-1.8,0.1-2.8
		c-1.3-2.6-2.6-5.2-3.8-7.9c-0.3-0.6-0.5-1.2-0.8-1.7c0.4-0.7,0.9-0.5,1.3-0.4c2.1,0.4,4.2,0.9,6.2,1.3c1.2,0.3,2.5,0.4,3.7,0.8
		c0.8,0.2,1.4,0,2-0.6c2-2,4.1-4,6.2-5.9c0.7-0.6,1.3-1.4,2.2-1.9c0.2,0.4,0.4,0.8,0.4,1.1c0.3,3,0.5,5.9,0.9,8.9
		c0.4,3,0.1,2.4,2.4,3.6c2.6,1.4,5.1,2.8,7.7,4.2c0.4,0.2,0.8,0.5,1.3,0.8c-0.4,0.3-0.7,0.6-1,0.7c-2.7,1.2-5.3,2.4-8,3.6
		c-0.4,0.2-0.7,0.4-1.1,0.5c-1.1,0.3-1.6,1.1-1.8,2.2c-0.3,1.6-0.6,3.3-0.9,4.9c-0.3,1.7-0.6,3.4-0.9,5.1
		C158.2,266.2,158,266.4,157.8,267z"/>
	<path class="st1" d="M429.9,366.2c0.5-0.9,0.8-1.5,1.1-2.1c1.5-2.6,2.9-5.2,4.5-7.8c0.6-1,0.6-1.8,0.1-2.8
		c-1.4-2.7-2.6-5.4-3.9-8.1c-0.3-0.6-0.5-1.2-0.7-1.8c0.6-0.4,1.1-0.2,1.6-0.1c3.2,0.7,6.4,1.3,9.5,2c0.9,0.2,1.5,0,2.1-0.6
		c2.3-2.2,4.6-4.4,6.9-6.6c0.4-0.4,0.9-0.8,1.4-1.2c0.4,0.7,0.3,1.3,0.4,1.8c0.1,0.6,0.2,1.2,0.2,1.8c0.3,2.6,0.6,5.3,0.8,7.9
		c0.1,0.9,0.6,1.4,1.4,1.8c2.7,1.4,5.4,2.9,8.1,4.3c0.6,0.3,1.1,0.6,1.7,0.9c0.1,0.6-0.3,0.6-0.6,0.7c-2.8,1.3-5.6,2.5-8.3,3.8
		c-0.4,0.2-0.8,0.4-1.3,0.6c-0.8,0.3-1.2,0.9-1.4,1.8c-0.3,2.1-0.7,4.2-1.1,6.3c-0.3,1.4-0.5,2.9-0.8,4.3c0,0.2-0.2,0.3-0.3,0.7
		c-0.4-0.4-0.8-0.7-1.2-1.1c-2.1-2.3-4.2-4.6-6.3-6.9c-0.8-0.9-1.6-1.2-2.8-1c-2.5,0.4-5,0.7-7.5,1
		C432.5,365.9,431.4,366,429.9,366.2z"/>
	<path class="st1" d="M444.9,317.4c0-0.3,0-0.6,0-1c0.6-3.3,1.1-6.7,1.8-10c0.2-1,0-1.8-0.8-2.5c-2.4-2.2-4.7-4.5-7-6.8
		c-0.3-0.3-0.6-0.7-1-1.1c0.4-0.2,0.7-0.4,1-0.4c3-0.4,6-0.9,9.1-1.3c0.2,0,0.4,0,0.6-0.1c1.9-0.3,1.9-0.3,2.8-2.1
		c1.3-2.6,2.6-5.2,3.9-7.8c0.3-0.5,0.6-1,0.9-1.5c0.7,0.1,0.8,0.6,1,1c1.3,2.7,2.6,5.3,4,8c1.1,2.1,1.1,2.1,3.4,2.4
		c3.1,0.4,6.2,0.9,9.2,1.3c0.3,0,0.5,0.2,0.9,0.3c-0.3,0.4-0.5,0.7-0.7,0.9c-2.3,2.2-4.5,4.5-6.9,6.7c-1,1-1.4,1.9-1.1,3.3
		c0.7,3.2,1.2,6.5,1.7,9.8c0,0.2,0,0.4,0,0.6c-0.5,0.4-0.9,0-1.3-0.2c-2.7-1.4-5.4-2.8-8.1-4.2c-0.3-0.2-0.6-0.3-0.9-0.5
		c-0.8-0.5-1.5-0.4-2.2,0c-2.7,1.5-5.5,2.9-8.3,4.3C446.2,317,445.7,317.5,444.9,317.4z"/>
	<path class="st1" d="M399.9,399.3c0.1-0.2,0.2-0.3,0.2-0.4c2.3-2.8,4.5-5.6,6.9-8.3c2.2-2.5,4.9-4.2,8.2-5
		c3.7-0.9,7.1-0.2,10.4,1.4c3.2,1.6,6,4,8.2,6.8c2,2.4,3.1,5.3,3.4,8.4c0.2,2.4-0.3,4.8-1.2,7c-0.6,1.4-1.4,2.7-2.3,3.9
		c-2.2,2.6-4.3,5.2-6.5,7.8c-0.2,0.2-0.4,0.4-0.5,0.5c-0.2,0-0.2,0-0.3,0c-0.1,0-0.1,0-0.2-0.1c-8.3-6.9-16.7-13.8-25-20.7
		c-0.4-0.3-0.7-0.6-1-0.9C400,399.7,400,399.6,399.9,399.3z M408.5,397.7c0.3,0.3,0.6,0.7,0.9,1c5.4,4.5,10.7,8.9,16.1,13.4
		c0.3,0.3,0.7,0.5,1.1,0.7c1.9-1.4,3.7-3.9,4.3-5.7c0.5-1.6,0.5-3.3,0-4.9c-0.5-1.5-1.4-2.9-2.5-4.1c-1.8-2-3.8-3.7-6.1-5
		c-1.1-0.6-2.3-1.1-3.5-1.4c-1.7-0.5-3.4-0.3-5,0.5C412,393.1,409.6,395.5,408.5,397.7z"/>
	<path class="st1" d="M398.2,199c0.2-0.2,0.2-0.5,0.4-0.6c8.4-7.2,16.8-14.5,25.2-21.7c0.2-0.2,0.4-0.3,0.7-0.4c0.4,0.3,0.7,0.6,1,1
		c2.1,2.4,4.2,4.8,6.2,7.3c1.4,1.7,2.5,3.6,3.1,5.7c1,3.7,0.8,7.4-0.9,10.9c-0.2,0.5-0.5,1-0.8,1.4c-2.7,4-6.2,7.2-10.6,9
		c-5.5,2.3-10.7,1.4-15.3-2.3c-0.8-0.7-1.6-1.4-2.3-2.2c-2.1-2.3-4.1-4.7-6.1-7.1C398.6,199.7,398.4,199.3,398.2,199z M424.9,185.1
		c-0.4,0.3-0.7,0.4-1,0.6c-5.4,4.7-10.9,9.3-16.3,14c-0.3,0.2-0.5,0.6-0.8,1c1.3,1.6,2.4,3.2,4.1,4.4c2,1.4,4.2,1.9,6.6,1.2
		c1.5-0.4,2.9-1,4.1-1.9c1.7-1.4,3.4-2.8,5-4.3c1-1,1.8-2.1,2.4-3.4c1.1-2.4,1-4.8-0.3-7.1C427.7,188,426.3,186.6,424.9,185.1z"/>
	<path class="st1" d="M397.4,439c1.6-1.1,3-2.2,4.5-3.2c1.4-1,2.8-2.1,4.2-3.1c1.5-1,2.8-2.2,4.4-3.1c1.2,1.2,2.1,2.6,3,4.1
		c-0.3,0.3-0.5,0.6-0.8,0.8c-5.7,4.2-11.3,8.3-17,12.5c-0.2,0.1-0.3,0.2-0.6,0.3c-0.7-0.2-1-0.9-1.3-1.4
		c-5.1-6.9-10.1-13.8-15.2-20.7c-1-1.4-2.1-2.8-3.1-4.2c-0.3-0.5-0.6-1-1-1.6c0.3-0.3,0.5-0.6,0.8-0.9c5.6-4.1,11.2-8.3,16.9-12.4
		c0.2-0.2,0.5-0.3,0.8-0.4c1.3,1.2,2.2,2.6,3.1,4.2c-0.4,0.4-0.8,0.7-1.2,1.1c-3.3,2.4-6.6,4.9-10,7.3c-0.5,0.4-1,0.8-1.6,1.2
		c0.4,1.5,1.5,2.5,2.3,3.7c0.8,1.1,1.5,2.3,2.5,3.2c0.8,0,1.2-0.4,1.7-0.8c2.5-1.8,5-3.7,7.6-5.5c0.6-0.5,1.3-0.9,2-1.5
		c1.4,1.1,2.1,2.6,3.2,4.1c-1.9,1.5-3.7,2.8-5.5,4.1c-1.8,1.4-3.7,2.6-5.4,4.1c0.6,1.6,1.8,2.8,2.7,4
		C395.2,436.4,396.1,437.8,397.4,439z"/>
	<path class="st1" d="M206.8,151.2c1.2,1.3,2.1,2.6,3,4c-0.2,0.8-0.9,1.1-1.4,1.5c-3.2,2.4-6.4,4.7-9.6,7.1
		c-0.6,0.4-1.3,0.8-1.6,1.4c0.7,1.6,3.8,5.9,5.1,6.9c1.3-0.7,2.5-1.7,3.7-2.6c1.2-0.8,2.3-1.7,3.5-2.6c1.2-0.9,2.4-1.9,3.8-2.7
		c1.2,1.2,2,2.5,2.9,3.7c-0.1,0.9-0.7,1.1-1.2,1.5c-2.7,2-5.4,3.9-8,5.9c-0.5,0.4-1.1,0.7-1.5,1.4c0.3,1,1.1,1.7,1.7,2.6
		c0.6,0.9,1.2,1.7,1.9,2.6c0.6,0.8,1.1,1.8,2,2.4c0.8-0.1,1.3-0.6,1.8-0.9c3.2-2.3,6.3-4.6,9.5-6.9c0.6-0.4,1.2-0.8,1.9-1.3
		c1.4,1.2,2.2,2.6,3.1,4.1c-0.2,0.3-0.4,0.5-0.6,0.6c-5.9,4.4-11.9,8.7-17.9,13.1c-0.4-0.4-0.7-0.6-0.9-0.9
		c-6.4-8.8-12.8-17.6-19.3-26.4c-0.2-0.2-0.3-0.4-0.5-0.8c0.3-0.3,0.5-0.6,0.8-0.8c5.5-4,11-8.1,16.6-12.1
		C205.9,151.7,206.4,151.5,206.8,151.2z"/>
	<path class="st1" d="M398.1,178.8c-1.9-1.2-3.7-2.6-5.5-3.8c-1.8-1.3-3.7-2.6-5.6-3.9c-0.3,0.3-0.6,0.4-0.8,0.7
		c-1.5,2.2-3.1,4.3-4.6,6.5c-0.1,0.2-0.2,0.4-0.2,0.5c0.2,0.8,0.8,1,1.4,1.4c3.2,2.3,6.5,4.6,9.7,6.9c0.6,0.4,1.2,0.9,1.7,1.3
		c-0.5,1.4-1.6,3-3,4.4c-0.3-0.2-0.7-0.3-1-0.5c-7.3-5-16.3-11.5-17.6-12.8c0.1-0.7,0.6-1.2,1-1.8c5-7.1,10-14.2,15.1-21.3
		c1-1.4,2-2.8,3-4.2c0.2-0.3,0.5-0.6,0.8-1c0.3,0.2,0.6,0.3,0.9,0.5c5.7,4.1,11.5,8.1,17.2,12.2c0.2,0.2,0.4,0.4,0.7,0.6
		c-0.7,1.6-1.8,2.9-2.9,4.2c-0.8-0.1-1.2-0.6-1.8-0.9c-3.3-2.3-6.6-4.7-9.9-7c-0.5-0.4-1-0.9-1.7-0.9c-1.1,1-4,5-4.9,6.8
		c0.2,0.7,0.8,1,1.3,1.3c2.6,1.9,5.3,3.8,8,5.6c0.5,0.4,1,0.8,1.6,1.2c-0.3,0.9-0.9,1.5-1.4,2.2
		C399.2,177.5,398.8,178.2,398.1,178.8z"/>
	<path class="st1" d="M212.4,446.1c-1.1,1.5-2,2.8-3,4.2c-0.4-0.2-0.8-0.4-1.1-0.6c-5.7-4-11.4-8-17.1-12.1
		c-0.3-0.2-0.5-0.4-0.7-0.6c0-0.2,0-0.2,0-0.3c0-0.1,0-0.1,0.1-0.2c6.3-9,12.6-17.9,18.9-26.9c0.2-0.3,0.4-0.5,0.6-0.8
		c0.1-0.1,0.2-0.2,0.4-0.3c0.3,0.2,0.7,0.3,1,0.5c5.8,3.9,16.3,11.4,17.6,12.7c-0.6,1.4-1.6,2.9-2.9,4.3c-0.5-0.3-1-0.6-1.5-0.9
		c-3.4-2.4-6.7-4.7-10.1-7.1c-0.5-0.4-1-0.9-1.7-0.9c-1.3,1.3-4.1,5.4-4.8,6.8c0.2,0.7,0.9,1,1.4,1.3c2.6,1.9,5.2,3.7,7.8,5.5
		c0.5,0.4,1,0.8,1.6,1.2c-0.7,1.6-1.7,2.9-2.8,4.2c-0.5-0.3-1.1-0.6-1.5-0.9c-2.6-1.8-5.2-3.7-7.8-5.5c-0.6-0.4-1.2-0.8-1.8-1.2
		c-0.3,0.2-0.6,0.3-0.7,0.5c-1.6,2.3-3.2,4.6-4.8,6.8c-0.1,0.1-0.1,0.2-0.1,0.4c0.2,0.7,0.8,1,1.3,1.4c3.2,2.3,6.5,4.6,9.7,6.9
		C211.1,445,211.6,445.5,212.4,446.1z"/>
	<path class="st1" d="M188.5,197.2c1.3-1.7,2.7-3.3,4.1-5c0.4,0.4,0.8,0.5,1,0.8c3.1,3.6,3.8,7.7,2.3,12.1c-1.2,3.4-3.3,6.1-6.2,8.1
		c-3.4,2.4-7.2,2.9-11.2,1.8c-1.8-0.5-3.5-1.3-5.1-2.3c-2.5-1.6-4.8-3.5-6.9-5.7c-1.5-1.6-2.8-3.4-3.6-5.4
		c-1.9-4.4-1.5-8.7,1.1-12.7c1.7-2.5,3.8-4.7,6.6-5.9c4.4-2,8.5-1.4,12.6,1.2c-0.4,1.2-1.3,1.9-2,2.8c-0.6,0.8-1.4,1.6-2.1,2.5
		c-0.7-0.3-1.3-0.6-1.8-0.9c-2.4-1.2-4.5-0.8-6.4,0.9c-0.7,0.6-1.3,1.3-1.9,2.1c-1.5,2.1-1.6,4.4-0.5,6.8c0.4,0.9,1,1.7,1.7,2.5
		c2.5,2.8,5.4,5.3,8.7,7.2c0.9,0.5,1.9,0.9,2.9,1.2c1.8,0.6,3.4,0.3,4.9-0.8c1.7-1.1,2.9-2.7,3.6-4.7c0.6-1.7,0.3-3.3-0.6-4.7
		C189.4,198.4,188.9,197.8,188.5,197.2z"/>
	<path class="st1" d="M180.8,412.7c1.5,1.7,2.9,3.2,4.2,5c-1.5,1.4-3.2,2.1-5,2.4c-3.5,0.6-6.7-0.1-9.6-2.2c-1.6-1.1-2.9-2.5-4.1-4
		c-3.3-4.5-3.6-9.3-1.2-14.3c0.9-1.9,2.2-3.6,3.8-5.1c1.7-1.5,3.4-3,5.1-4.4c2.2-1.7,4.6-2.8,7.4-3.4c3.3-0.7,6.4-0.2,9.2,1.5
		c3.7,2.3,6.3,5.5,7.4,9.8c1.1,4.5-0.2,8.3-3.3,11.7c-1.2-0.9-3.2-3.1-4.5-5c0.4-0.5,0.7-1,1.1-1.6c1.5-2.1,1.5-4.3,0.1-6.5
		c-0.6-0.9-1.4-1.8-2.2-2.6c-1.7-1.5-3.6-1.8-5.8-1.3c-1.4,0.4-2.6,1-3.8,1.8c-2.7,1.9-5.2,4-7.4,6.4c-0.7,0.8-1.4,1.8-1.9,2.8
		c-1.3,2.4-1.1,4.7,0.5,6.9c0.7,0.9,1.5,1.7,2.4,2.4c1.7,1.3,3.6,1.5,5.6,0.6C179.4,413.4,180,413.1,180.8,412.7z"/>
	<path class="st1" d="M332,127.6c0.6,0.1,1.2,0.1,1.7,0.3c6,1.5,12,2.9,18,4.4c2.3,0.6,2.2,0.4,1.6,2.6c-0.2,0.8-0.4,1.7-0.7,2.5
		c0,0.1-0.2,0.2-0.3,0.4c-0.4,0-0.8,0-1.2-0.1c-3.8-0.9-7.6-1.9-11.4-2.8c-0.7-0.2-1.4-0.3-2.2-0.4c-0.9,1.4-1,3-1.4,4.4
		c-0.4,1.5-0.8,2.9-1,4.3c0.5,0.6,1.1,0.7,1.7,0.9c3.2,0.8,6.4,1.6,9.7,2.4c0.6,0.2,1.3,0.4,1.9,0.5c-0.1,2-0.6,3.7-1.3,5.1
		c-2.2-0.5-4.3-1-6.5-1.5c-2.2-0.5-4.3-1.2-6.5-1.5c-0.7,0.7-0.7,1.6-0.9,2.3c-0.8,3.3-1.6,6.6-2.4,9.9c-0.1,0.5-0.3,1-0.5,1.4
		c-2.1-0.1-5.1-0.9-6.4-1.6C323.9,159.2,331.3,129.2,332,127.6z"/>
	<path class="st1" d="M351.1,452.7c-0.8,0.3-1.3,0.4-1.8,0.6c-3.1,0.8-6.2,1.6-9.2,2.4c-0.7,0.2-1.6,0.2-2.2,0.9
		c-0.1,0.8,0.2,1.5,0.4,2.3c0.8,3.1,1.7,6.3,2.5,9.4c0.2,0.6,0.3,1.2,0.4,1.8c-0.9,0.8-2,0.8-3,1.1c-1,0.3-2,0.5-3,0.8
		c-0.6-0.2-0.7-0.7-0.8-1.1c-1.1-4.3-2.3-8.6-3.4-12.9c-1.6-6-3.1-11.9-4.7-17.9c-0.4-1.7-0.4-1.8,1.2-2.2c6.3-1.7,12.6-3.3,18.8-5
		c0.3-0.1,0.6-0.1,1.1-0.1c0.2,0.3,0.4,0.5,0.5,0.8c0.3,1.1,0.6,2.3,0.9,3.5c0.1,0.4-0.1,0.8-0.5,0.9c-0.6,0.2-1.3,0.4-1.9,0.5
		c-3.5,0.9-7.1,1.8-10.6,2.8c-0.6,0.1-1.1,0.4-1.7,0.6c0,0.5,0,0.9,0.1,1.3c0.7,2.5,1.2,5.1,2.1,7.7c0.8,0.2,1.5-0.1,2.2-0.3
		c3-0.8,6-1.6,9-2.4c0.6-0.2,1.3-0.3,2-0.5C350.4,449.2,350.6,450.9,351.1,452.7z"/>
	<path class="st1" d="M279.2,131.8c1.2,9.6,2.8,19,4,28.4c-1,1.1-2.2,0.7-3.3,1c-1,0.3-2.1,0.3-3.2,0.3c-0.3-0.9-0.4-1.7-0.5-2.5
		c-0.6-4.3-1.2-8.5-1.8-12.8c-0.5-3.2-0.9-6.4-1.4-9.7c-0.2-1.2-0.2-2.5-0.8-3.7c-1.8-0.4-3.5,0.3-5.2,0.4c-1.6,0.1-3.3,0.5-4.9,0.7
		c-0.6-0.8-0.7-1.7-0.8-2.6c-0.1-0.8-0.2-1.7-0.3-2.5c0.3-0.1,0.4-0.3,0.6-0.3c8.9-1.3,17.9-2.6,26.8-3.8c0.1,0,0.2,0.1,0.5,0.2
		c0.6,1.5,0.5,3.2,0.8,4.9c-0.5,0.2-0.9,0.4-1.3,0.5c-2.2,0.3-4.3,0.6-6.5,0.9C281.1,131.2,280.2,131.3,279.2,131.8z"/>
	<path class="st1" d="M281,473.9c-2.2,0.1-5.1-0.3-6.4-0.8c-0.1-2.4,0.6-4.8,0.8-7.2c0.2-2.4,0.6-4.7,0.9-7.1c0.3-2.4,0.7-4.9,1-7.3
		c0.2-2.4,0.7-4.7,0.8-7.1c-1.7-0.9-3.4-0.6-5.1-1c-1.6-0.3-3.3-0.4-4.9-0.6c-0.5-1.8,0.1-3.4,0.3-5c0.8-0.4,1.6-0.2,2.3-0.1
		c4,0.5,8,1,12,1.5c4.2,0.5,8.4,1.1,12.6,1.6c0.8,0.1,1,0.4,1,1.2c-0.1,1.3-0.3,2.6-0.5,3.9c-1.8,0.5-3.5-0.2-5.2-0.3
		c-1.7-0.1-3.4-0.4-5.2-0.6c-0.2,0.5-0.5,0.9-0.5,1.3c-0.6,4.5-1.1,8.9-1.7,13.4c-0.5,3.6-0.9,7.2-1.4,10.8
		c-0.1,0.6-0.1,1.2-0.2,1.8C281.4,472.9,281.2,473.3,281,473.9z"/>
	<path class="st1" d="M357.5,428.2c1.2-0.9,3.9-2.3,5.8-2.8c0.2,0.3,0.4,0.6,0.6,0.9c4.6,9.6,9.2,19.3,13.8,28.9
		c0.2,0.4,0.3,0.9,0.5,1.3c-1.1,0.9-4.1,2.4-5.9,2.9c-0.1-0.2-0.3-0.4-0.4-0.6c-4.8-10-9.5-20-14.2-30
		C357.4,428.6,357.5,428.4,357.5,428.2z"/>
	<path class="st1" d="M355,170.9c4.8-10.5,9.5-20.8,14.1-31c0.1-0.2,0.3-0.4,0.5-0.6c2,0.8,3.9,1.6,5.9,2.7
		c-0.2,0.5-0.3,0.9-0.4,1.4c-4.4,9.7-8.8,19.3-13.2,28.9c-0.2,0.4-0.4,0.8-0.7,1.3C359.1,173,357.2,171.9,355,170.9z"/>
	<path class="st1" d="M310.8,160.1c-2.1,0.1-4-0.3-6.1-0.3c-0.1-0.5-0.3-1-0.3-1.4c0.1-2.1,0.2-4.1,0.3-6.2c0-0.3,0.1-0.7,0.1-1
		c0.2-3.6,0.3-7.3,0.5-10.9c0.3-4.8,0.5-9.5,0.8-14.3c0-0.3,0.1-0.5,0.2-0.7c1.7-0.4,4.3-0.3,6.5,0.3c0.1,0.1,0.1,0.2,0.2,0.3
		c0,0.2,0.1,0.4,0,0.6c-0.6,10.9-1.3,21.9-1.9,32.8C311,159.5,310.9,159.7,310.8,160.1z"/>
	<path class="st1" d="M306.8,440.2c2.1-0.4,4.1-0.3,6.3-0.4c0.1,0.5,0.3,0.8,0.3,1.2c0.3,3.6,0.5,7.3,0.8,10.9
		c0.2,2.8,0.4,5.6,0.7,8.3c0.2,2.1,0.3,4.2,0.5,6.4c0.1,1.8,0.3,3.6,0.4,5.4c0,0.7,0,1.4,0,2.2c-0.4,0.1-0.7,0.3-1,0.4
		c-1.6,0.1-3.2,0.2-4.8,0.2c-0.5,0-0.8-0.3-1-0.8c-0.1-0.3-0.1-0.5-0.1-0.8c-0.2-2.5-0.3-4.9-0.5-7.4c-0.2-2.8-0.4-5.7-0.7-8.5
		c-0.1-1.9-0.3-3.8-0.4-5.8c-0.2-3.5-0.4-7-0.7-10.5C306.6,440.8,306.7,440.6,306.8,440.2z"/>
	<path class="st1" d="M175.1,300c-0.3-69.2,56.5-125.3,124.9-124.9c67.7-0.4,125.1,54.8,125,125.1c-0.1,69.7-57,125-125.4,124.8
		C230.9,424.8,174.8,368.7,175.1,300z M416.3,300.1c-0.2-64.9-52.6-115.8-115.2-116.4c-65.2-0.6-117.2,52.6-117.4,116
		c-0.2,62.6,50.5,116.4,116,116.6C363.9,416.5,416.1,364.5,416.3,300.1z"/>
	<path class="st1" d="M397.6,273.6c-0.3,0.4-0.5,0.7-0.8,1c-5.9,6.3-106.6,106.8-108.3,108c-0.3-0.2-0.7-0.5-1-0.8
		c-1.9-1.9-3.8-3.8-5.6-5.6c-21.9-21.9-43.9-43.9-65.8-65.8c-0.6-0.6-1.1-1.1-1.7-1.8c0.3-0.4,0.5-0.8,0.8-1.1c0.5-0.5,1-1,1.5-1.6
		c9.7-9.7,19.4-19.4,29.2-29.2c0.6-0.6,1-1.2,1.8-1.5c0.8,0.4,1.2,1,1.8,1.6c10.8,10.8,21.6,21.6,32.4,32.4c1.7,1.7,3.4,3.4,5.1,5.1
		c0.5,0.5,0.8,1,1.6,1.2c0.2-0.1,0.5-0.3,0.7-0.5c0.4-0.4,0.9-0.8,1.3-1.3c23.9-23.9,47.7-47.7,71.6-71.6c0.6-0.6,1.2-1.4,2-1.8
		C365.6,241.3,396.3,272,397.6,273.6z"/>
</g>
</svg>
