<?xml version="1.0" encoding="utf-8"?>
<!-- Generator: Adobe Illustrator 26.0.3, SVG Export Plug-In . SVG Version: 6.00 Build 0)  -->
<svg version="1.1" id="Слой_1" xmlns="http://www.w3.org/2000/svg" xmlns:xlink="http://www.w3.org/1999/xlink" x="0px" y="0px"
	 viewBox="0 0 500 500" style="enable-background:new 0 0 500 500;" xml:space="preserve">
<g>
	<path d="M333.9,368.3c-63,0-114.2-51.1-114.2-114.1c0-63,51.1-114.1,114.2-114.1c37.8,0,71.3,18.4,92.1,46.6l49.1-0.1
		c-25.2-52.5-78.9-88.8-141.1-88.8c-79.4,0-145,59.2-155.1,135.8c-9.7,0-93.7,0-97.4,0c-3.9,0-3.1-1.5-3.1-1.5s0-68.4,0-76.1
		c0-7.7,8.5-10.8,8.5-10.8s96.7,0,101.3,0c4.6,0,1.6-2.3,1.6-2.3v-51l-1.6-2.3c0,0-94.3,0-119.9,0c-11.5,0-23.6,9-31,19.3
		C28.2,121.4,25,135.8,25,135.8s0,261.4,0,266.8c0,5.4,7.7,7.7,7.7,7.7s37.1,0,44.1,0c7,0,2.3-0.8,2.3-0.8s0-128.3,0-132.2
		c0-3.9,2.3-2.3,2.3-2.3h97.4c10.2,76.5,75.7,135.5,155,135.5c61.8,0,115.3-35.4,140.7-87.4l-50,0.4
		C403.7,350.7,370.8,368.3,333.9,368.3"/>
	<path d="M333.9,199.7c18.8,0,35.4,8.2,45.2,22.7l44.9-0.2c-13.1-37-48.5-63.6-90.1-63.6c-52.7,0-95.5,42.8-95.5,95.5
		c0,52.7,42.8,95.5,95.5,95.5c41.1,0,76.1-25.9,89.6-62.2l-46.7,0.4c-10,12.7-25.5,20.8-42.9,20.8c-30.1,0-54.5-24.4-54.5-54.5
		C279.4,224.1,303.8,199.7,333.9,199.7"/>
</g>
</svg>
