<?xml version="1.0" encoding="utf-8"?>
<!-- Generator: Adobe Illustrator 27.5.0, SVG Export Plug-In . SVG Version: 6.00 Build 0)  -->
<svg version="1.1" id="_x2018_ëîé_x5F_1" xmlns="http://www.w3.org/2000/svg" xmlns:xlink="http://www.w3.org/1999/xlink"
	 x="0px" y="0px" viewBox="0 0 2000 2000" style="enable-background:new 0 0 2000 2000;" xml:space="preserve">
<rect style="fill:#FFFFFF;" width="2000" height="2000"/>
<g>
	<g>
		<linearGradient id="SVGID_1_" gradientUnits="userSpaceOnUse" x1="619.7272" y1="373.559" x2="1381.2159" y2="1627.9946">
			<stop  offset="0" style="stop-color:#A7D63F"/>
			<stop  offset="0.0738" style="stop-color:#9FD340"/>
			<stop  offset="1" style="stop-color:#39B54A"/>
		</linearGradient>
		<circle style="fill:url(#SVGID_1_);" cx="1000" cy="1000" r="653.712"/>
		
			<linearGradient id="SVGID_00000160170029442857557050000010026426289532286108_" gradientUnits="userSpaceOnUse" x1="1000" y1="1463.6708" x2="1000" y2="374.4248">
			<stop  offset="0" style="stop-color:#A7D63F"/>
			<stop  offset="0.0738" style="stop-color:#9FD340"/>
			<stop  offset="1" style="stop-color:#39B54A"/>
		</linearGradient>
		<circle style="fill:url(#SVGID_00000160170029442857557050000010026426289532286108_);" cx="1000" cy="1000" r="432.048"/>
		
			<ellipse transform="matrix(0.7071 -0.7071 0.7071 0.7071 -414.2136 999.9999)" style="fill:#FFFFFF;" cx="1000" cy="1000" rx="408.695" ry="408.694"/>
	</g>
	<g>
		
			<linearGradient id="SVGID_00000098187250758514644450000012040655515084079292_" gradientUnits="userSpaceOnUse" x1="985.0641" y1="346.1575" x2="985.0641" y2="1661.6353">
			<stop  offset="0" style="stop-color:#A7D63F"/>
			<stop  offset="0.0738" style="stop-color:#9FD340"/>
			<stop  offset="1" style="stop-color:#39B54A"/>
		</linearGradient>
		<polygon style="fill:url(#SVGID_00000098187250758514644450000012040655515084079292_);" points="985.064,1191.904 
			1007.805,1238.689 1058.655,1246.192 1021.86,1282.609 1030.546,1334.031 985.064,1309.753 939.582,1334.031 948.268,1282.609 
			911.473,1246.192 962.323,1238.689 		"/>
		<g>
			
				<linearGradient id="SVGID_00000003809591073522344480000016831967106374159535_" gradientUnits="userSpaceOnUse" x1="1200.6208" y1="346.1582" x2="1200.6208" y2="1661.6329">
				<stop  offset="0" style="stop-color:#A7D63F"/>
				<stop  offset="0.0738" style="stop-color:#9FD340"/>
				<stop  offset="1" style="stop-color:#39B54A"/>
			</linearGradient>
			<polygon style="fill:url(#SVGID_00000003809591073522344480000016831967106374159535_);" points="1200.621,1146.869 
				1216.312,1179.151 1251.398,1184.327 1226.01,1209.455 1232.003,1244.936 1200.621,1228.184 1169.239,1244.936 
				1175.232,1209.455 1149.844,1184.327 1184.93,1179.151 			"/>
			
				<linearGradient id="SVGID_00000092451011497220599100000010995367247810699445_" gradientUnits="userSpaceOnUse" x1="769.507" y1="346.1582" x2="769.507" y2="1661.6329">
				<stop  offset="0" style="stop-color:#A7D63F"/>
				<stop  offset="0.0738" style="stop-color:#9FD340"/>
				<stop  offset="1" style="stop-color:#39B54A"/>
			</linearGradient>
			<polygon style="fill:url(#SVGID_00000092451011497220599100000010995367247810699445_);" points="769.507,1146.869 
				785.198,1179.151 820.284,1184.327 794.896,1209.455 800.89,1244.936 769.507,1228.184 738.125,1244.936 744.118,1209.455 
				718.73,1184.327 753.816,1179.151 			"/>
		</g>
	</g>
	<g>
		
			<linearGradient id="SVGID_00000065784540620225916470000012090387767375647624_" gradientUnits="userSpaceOnUse" x1="985.0641" y1="346.1582" x2="985.0641" y2="1661.636">
			<stop  offset="0" style="stop-color:#A7D63F"/>
			<stop  offset="0.0738" style="stop-color:#9FD340"/>
			<stop  offset="1" style="stop-color:#39B54A"/>
		</linearGradient>
		<polygon style="fill:url(#SVGID_00000065784540620225916470000012090387767375647624_);" points="985.064,652.639 
			1007.805,699.425 1058.655,706.927 1021.86,743.344 1030.546,794.766 985.064,770.488 939.582,794.766 948.268,743.344 
			911.473,706.927 962.323,699.425 		"/>
		<g>
			
				<linearGradient id="SVGID_00000145052249313672401690000001907488755110972833_" gradientUnits="userSpaceOnUse" x1="1200.6208" y1="346.1583" x2="1200.6208" y2="1661.6331">
				<stop  offset="0" style="stop-color:#A7D63F"/>
				<stop  offset="0.0738" style="stop-color:#9FD340"/>
				<stop  offset="1" style="stop-color:#39B54A"/>
			</linearGradient>
			<polygon style="fill:url(#SVGID_00000145052249313672401690000001907488755110972833_);" points="1200.621,741.734 
				1216.312,774.016 1251.398,779.192 1226.01,804.32 1232.003,839.802 1200.621,823.049 1169.239,839.802 1175.232,804.32 
				1149.844,779.192 1184.93,774.016 			"/>
			
				<linearGradient id="SVGID_00000112625338217930237560000006008027041405837445_" gradientUnits="userSpaceOnUse" x1="769.507" y1="346.1583" x2="769.507" y2="1661.6331">
				<stop  offset="0" style="stop-color:#A7D63F"/>
				<stop  offset="0.0738" style="stop-color:#9FD340"/>
				<stop  offset="1" style="stop-color:#39B54A"/>
			</linearGradient>
			<polygon style="fill:url(#SVGID_00000112625338217930237560000006008027041405837445_);" points="769.507,741.734 
				785.198,774.016 820.284,779.192 794.896,804.32 800.89,839.802 769.507,823.049 738.125,839.802 744.118,804.32 718.73,779.192 
				753.816,774.016 			"/>
		</g>
	</g>
	<g>
		<g>
			<path style="fill:#FFFFFF;" d="M628.501,600.289c-10.207-0.367-18.463,3.022-24.755,10.164c-2.77,3.145-4.761,6.559-5.977,10.244
				c-1.218,3.687-1.693,7.358-1.426,11.017c0.264,3.66,1.265,7.241,3.004,10.737c1.74,3.501,4.179,6.634,7.323,9.402
				c3.215,2.833,6.667,4.891,10.357,6.175c3.69,1.286,7.403,1.826,11.132,1.623c3.731-0.202,7.332-1.121,10.804-2.76
				c3.469-1.634,6.56-3.989,9.265-7.061c5.914-6.713,8.38-15.269,7.381-25.661l24.858,21.901l-1.135,2.803
				c-1.688,4.223-3.494,7.964-5.412,11.221c-1.918,3.257-4.074,6.244-6.464,8.957c-4.908,5.572-10.67,9.982-17.273,13.235
				c-6.606,3.253-13.537,5.14-20.791,5.668c-7.247,0.527-14.54-0.345-21.868-2.614c-7.325-2.267-14.097-6.141-20.312-11.614
				c-6.214-5.476-10.888-11.656-14.024-18.541c-3.134-6.881-4.859-13.924-5.18-21.12c-0.323-7.198,0.732-14.297,3.154-21.297
				c2.427-7,6.121-13.322,11.093-18.965c2.833-3.215,5.958-6.078,9.373-8.586c3.418-2.51,7.347-4.848,11.798-7.019L628.501,600.289z
				"/>
			<polygon style="fill:#FFFFFF;" points="711.109,520.579 684.013,539.888 694.457,554.542 720.039,536.309 733.799,555.615 
				708.212,573.846 718.987,588.966 746.083,569.656 759.841,588.961 709.949,624.514 647.462,536.826 697.354,501.273 			"/>
			<path style="fill:#FFFFFF;" d="M876.08,536.265l-32.31,13.042l-40.267-28.408l15.502,38.402l-25.956,10.475l-40.301-99.848
				l40.389-16.301c5.561-2.245,10.745-3.387,15.558-3.43c4.805-0.039,9.126,0.809,12.957,2.546c3.836,1.74,7.183,4.186,10.051,7.34
				c2.862,3.157,5.153,6.854,6.863,11.089c3.066,7.595,3.716,14.493,1.96,20.692c-1.757,6.203-5.872,11.585-12.346,16.148
				L876.08,536.265z M796.716,504.081l4.898-1.978c5.121-2.067,8.622-4.711,10.506-7.936c1.879-3.222,2.018-6.82,0.416-10.794
				c-1.605-3.973-4.203-6.464-7.795-7.479c-3.592-1.013-7.947-0.487-13.067,1.578l-4.901,1.978L796.716,504.081z"/>
			<polygon style="fill:#FFFFFF;" points="933.313,441.53 946.278,524.494 918.621,528.815 905.659,445.851 882.945,449.402 
				879.282,425.981 952.37,414.559 956.028,437.981 			"/>
			
				<rect x="962.306" y="453.33" transform="matrix(0.0218 -0.9998 0.9998 0.0218 526.766 1473.0313)" style="fill:#FFFFFF;" width="107.675" height="27.987"/>
			<polygon style="fill:#FFFFFF;" points="1148.041,454.982 1115.022,448.223 1111.415,465.851 1141.494,472.008 1136.743,495.233 
				1106.664,489.077 1098.189,530.488 1070.767,524.876 1092.356,419.388 1152.792,431.758 			"/>
			
				<rect x="1144.559" y="490.677" transform="matrix(0.3738 -0.9275 0.9275 0.3738 282.364 1427.5663)" style="fill:#FFFFFF;" width="107.674" height="27.99"/>
			<polygon style="fill:#FFFFFF;" points="1325.884,539.736 1297.799,521.89 1288.149,537.075 1314.666,553.923 1301.951,573.933 
				1275.437,557.083 1265.479,572.75 1293.559,590.597 1280.844,610.605 1229.142,577.746 1286.892,486.867 1338.599,519.728 			"/>
			<path style="fill:#FFFFFF;" d="M1389.344,559.315l28.559,29.993c5.055,5.307,8.729,11.307,11.022,17.995
				c2.295,6.689,3.325,13.466,3.09,20.328c-0.237,6.862-1.764,13.543-4.58,20.04c-2.821,6.495-6.816,12.206-11.984,17.13
				c-5.104,4.859-10.953,8.553-17.542,11.084c-6.596,2.535-13.344,3.767-20.243,3.699c-6.902-0.068-13.637-1.412-20.204-4.031
				c-6.572-2.618-12.414-6.617-17.535-11.995l-28.559-29.991L1389.344,559.315z M1347.837,637.492l4.433,4.652
				c3.347,3.517,6.885,6.128,10.614,7.835c3.729,1.706,7.462,2.59,11.201,2.648c3.734,0.057,7.404-0.678,11.012-2.207
				c3.604-1.528,6.995-3.8,10.166-6.82c3.102-2.956,5.505-6.23,7.213-9.824c1.701-3.594,2.615-7.258,2.74-10.994
				c0.122-3.732-0.573-7.505-2.099-11.313c-1.522-3.807-3.922-7.436-7.208-10.883l-4.431-4.653L1347.837,637.492z"/>
		</g>
		<g>
			<path style="fill:#FFFFFF;" d="M665.797,1394.079c1.077-10.158-1.727-18.624-8.409-25.403c-2.942-2.984-6.207-5.211-9.799-6.684
				c-3.592-1.473-7.222-2.204-10.89-2.197c-3.67,0.01-7.31,0.758-10.919,2.246c-3.616,1.49-6.912,3.704-9.894,6.647
				c-3.051,3.007-5.346,6.307-6.887,9.897c-1.539,3.592-2.339,7.257-2.398,10.99c-0.061,3.736,0.602,7.394,1.994,10.971
				c1.387,3.577,3.52,6.824,6.396,9.74c6.282,6.37,14.643,9.427,25.078,9.163l-23.588,23.262l-2.721-1.333
				c-4.088-1.982-7.695-4.042-10.812-6.185c-3.115-2.141-5.942-4.502-8.482-7.078c-5.213-5.286-9.212-11.343-11.989-18.159
				c-2.784-6.819-4.179-13.862-4.196-21.131c-0.02-7.271,1.363-14.482,4.137-21.633c2.782-7.149,7.117-13.633,13.014-19.448
				c5.899-5.816,12.39-10.046,19.477-12.688c7.086-2.645,14.23-3.873,21.432-3.687c7.203,0.184,14.212,1.732,21.024,4.639
				c6.811,2.911,12.859,7.042,18.139,12.397c3.009,3.051,5.644,6.369,7.908,9.95c2.263,3.584,4.321,7.673,6.175,12.263
				L665.797,1394.079z"/>
			<polygon style="fill:#FFFFFF;" points="755.654,1441.536 727.765,1423.392 717.952,1438.473 744.285,1455.606 731.357,1475.476 
				705.024,1458.344 694.9,1473.905 722.792,1492.052 709.861,1511.92 658.511,1478.509 717.233,1388.258 768.582,1421.667 			"/>
			<path style="fill:#FFFFFF;" d="M845.289,1570.13l-32.638-12.199l-10.518-48.14l-14.496,38.794l-26.22-9.801l37.695-100.859
				l40.8,15.247c5.617,2.099,10.212,4.759,13.789,7.976c3.575,3.215,6.188,6.758,7.841,10.628c1.654,3.871,2.471,7.934,2.454,12.199
				c-0.02,4.262-0.824,8.534-2.425,12.813c-2.869,7.671-7.044,13.2-12.527,16.586c-5.485,3.389-12.155,4.58-20.011,3.574
				L845.289,1570.13z M808.482,1492.802l4.95,1.85c5.172,1.933,9.542,2.346,13.107,1.238c3.562-1.106,6.094-3.665,7.594-7.68
				c1.502-4.013,1.265-7.607-0.697-10.778c-1.965-3.176-5.534-5.73-10.704-7.663l-4.949-1.847L808.482,1492.802z"/>
			<polygon style="fill:#FFFFFF;" points="946.381,1502.865 934.314,1585.963 906.616,1581.938 918.683,1498.841 895.934,1495.536 
				899.34,1472.077 972.545,1482.71 969.137,1506.171 			"/>
			
				<rect x="1002.867" y="1482.197" transform="matrix(0.9997 -0.0236 0.0236 0.9997 -35.9124 24.3876)" style="fill:#FFFFFF;" width="27.991" height="107.674"/>
			<polygon style="fill:#FFFFFF;" points="1133.65,1490.263 1100.572,1496.724 1104.019,1514.382 1134.154,1508.5 1138.7,1531.765 
				1108.565,1537.649 1116.666,1579.136 1089.195,1584.502 1068.558,1478.823 1129.104,1466.998 			"/>
			
				<rect x="1178.733" y="1447.903" transform="matrix(0.9356 -0.353 0.353 0.9356 -453.3471 517.738)" style="fill:#FFFFFF;" width="27.991" height="107.674"/>
			<polygon style="fill:#FFFFFF;" points="1287.394,1420.214 1258.699,1437.061 1267.813,1452.578 1294.905,1436.67 
				1306.908,1457.111 1279.814,1473.019 1289.216,1489.03 1317.905,1472.18 1329.911,1492.621 1277.083,1523.642 1222.56,1430.793 
				1275.39,1399.772 			"/>
			<path style="fill:#FFFFFF;" d="M1303.593,1380.415l30-28.554c5.309-5.052,11.308-8.725,17.995-11.02
				c6.692-2.292,13.469-3.32,20.329-3.083c6.863,0.237,13.542,1.766,20.038,4.585c6.498,2.823,12.206,6.816,17.129,11.988
				c4.859,5.104,8.551,10.954,11.081,17.547c2.532,6.594,3.763,13.344,3.694,20.241c-0.071,6.902-1.414,13.638-4.035,20.204
				c-2.618,6.567-6.62,12.412-12.001,17.53l-29.996,28.555L1303.593,1380.415z M1381.76,1421.939l4.653-4.431
				c3.518-3.347,6.129-6.885,7.839-10.614c1.708-3.729,2.589-7.46,2.65-11.198c0.059-3.734-0.678-7.406-2.202-11.015
				c-1.532-3.604-3.802-6.995-6.821-10.168c-2.951-3.102-6.227-5.507-9.823-7.21c-3.592-1.705-7.257-2.62-10.993-2.748
				c-3.731-0.125-7.504,0.575-11.311,2.094c-3.809,1.524-7.44,3.924-10.887,7.205l-4.654,4.431L1381.76,1421.939z"/>
		</g>
	</g>
	<g>
		<ellipse style="fill:#FFFFFF;" cx="460.366" cy="999.778" rx="31.486" ry="31.706"/>
		<ellipse style="fill:#FFFFFF;" cx="1530.332" cy="999.778" rx="31.486" ry="31.706"/>
	</g>
	<g>
		
			<linearGradient id="SVGID_00000124153205399875834510000002788196527523121584_" gradientUnits="userSpaceOnUse" x1="727.2551" y1="929.1971" x2="727.2551" y2="1080.9026">
			<stop  offset="0" style="stop-color:#A7D63F"/>
			<stop  offset="0.0738" style="stop-color:#9FD340"/>
			<stop  offset="1" style="stop-color:#39B54A"/>
		</linearGradient>
		<polygon style="fill:url(#SVGID_00000124153205399875834510000002788196527523121584_);" points="700.076,983.482 
			754.434,983.482 754.434,927.587 792.081,927.587 792.081,1072.414 754.434,1072.414 754.434,1012.678 700.076,1012.678 
			700.076,1072.414 662.429,1072.414 662.429,927.587 700.076,927.587 		"/>
		
			<linearGradient id="SVGID_00000034809719903112841860000005206377314117822643_" gradientUnits="userSpaceOnUse" x1="884.2763" y1="929.1971" x2="884.2763" y2="1080.9026">
			<stop  offset="0" style="stop-color:#A7D63F"/>
			<stop  offset="0.0738" style="stop-color:#9FD340"/>
			<stop  offset="1" style="stop-color:#39B54A"/>
		</linearGradient>
		<path style="fill:url(#SVGID_00000034809719903112841860000005206377314117822643_);" d="M911.166,1047.252h-53.781l-8.644,25.162
			h-40.143l55.124-144.826h41.105l55.126,144.826H919.81L911.166,1047.252z M901.179,1018.633l-16.902-48.212l-16.904,48.212
			H901.179z"/>
		
			<linearGradient id="SVGID_00000172423893951184928720000004087323838658287796_" gradientUnits="userSpaceOnUse" x1="1019.9755" y1="929.1973" x2="1019.9755" y2="1080.9031">
			<stop  offset="0" style="stop-color:#A7D63F"/>
			<stop  offset="0.0738" style="stop-color:#9FD340"/>
			<stop  offset="1" style="stop-color:#39B54A"/>
		</linearGradient>
		<path style="fill:url(#SVGID_00000172423893951184928720000004087323838658287796_);" d="M1075.39,975.992
			c-8.71-10.628-19.466-15.943-32.27-15.943c-5.635,0-10.853,1.027-15.654,3.073c-4.803,2.05-8.932,4.835-12.39,8.355
			c-3.458,3.523-6.18,7.716-8.162,12.581c-1.988,4.868-2.977,10.117-2.977,15.75c0,5.762,0.989,11.077,2.977,15.942
			c1.982,4.868,4.735,9.094,8.259,12.677c3.519,3.586,7.651,6.404,12.39,8.451c4.735,2.05,9.857,3.073,15.365,3.073
			c12.035,0,22.857-5.12,32.461-15.366v44.562l-3.841,1.344c-5.763,2.046-11.141,3.553-16.136,4.513
			c-4.992,0.96-9.925,1.44-14.79,1.44c-9.987,0-19.56-1.89-28.715-5.665c-9.157-3.775-17.224-9.09-24.201-15.942
			c-6.981-6.849-12.581-14.982-16.807-24.394c-4.226-9.411-6.338-19.687-6.338-30.828c0-11.14,2.079-21.35,6.241-30.635
			c4.16-9.284,9.732-17.288,16.711-24.01c6.979-6.722,15.079-11.971,24.299-15.75c9.219-3.776,18.887-5.666,29.004-5.666
			c5.761,0,11.427,0.61,16.997,1.825c5.572,1.219,11.43,3.106,17.576,5.666V975.992z"/>
		
			<linearGradient id="SVGID_00000078764437153162376050000005498159301138450607_" gradientUnits="userSpaceOnUse" x1="1148.089" y1="929.1973" x2="1148.089" y2="1080.9031">
			<stop  offset="0" style="stop-color:#A7D63F"/>
			<stop  offset="0.0738" style="stop-color:#9FD340"/>
			<stop  offset="1" style="stop-color:#39B54A"/>
		</linearGradient>
		<path style="fill:url(#SVGID_00000078764437153162376050000005498159301138450607_);" d="M1203.503,975.992
			c-8.71-10.628-19.466-15.943-32.269-15.943c-5.635,0-10.853,1.027-15.654,3.073c-4.803,2.05-8.932,4.835-12.39,8.355
			c-3.458,3.523-6.179,7.716-8.162,12.581c-1.988,4.868-2.977,10.117-2.977,15.75c0,5.762,0.989,11.077,2.977,15.942
			c1.982,4.868,4.735,9.094,8.259,12.677c3.519,3.586,7.651,6.404,12.39,8.451c4.735,2.05,9.857,3.073,15.365,3.073
			c12.035,0,22.857-5.12,32.461-15.366v44.562l-3.841,1.344c-5.763,2.046-11.141,3.553-16.136,4.513
			c-4.993,0.96-9.925,1.44-14.79,1.44c-9.987,0-19.56-1.89-28.715-5.665c-9.157-3.775-17.224-9.09-24.201-15.942
			c-6.981-6.849-12.581-14.982-16.807-24.394c-4.226-9.411-6.338-19.687-6.338-30.828c0-11.14,2.079-21.35,6.241-30.635
			c4.16-9.284,9.732-17.288,16.711-24.01c6.979-6.722,15.079-11.971,24.299-15.75c9.219-3.776,18.886-5.666,29.004-5.666
			c5.761,0,11.428,0.61,16.997,1.825c5.572,1.219,11.43,3.106,17.576,5.666V975.992z"/>
		
			<linearGradient id="SVGID_00000146495655225871878590000003294762288856664757_" gradientUnits="userSpaceOnUse" x1="1282.4447" y1="929.1971" x2="1282.4447" y2="1080.9026">
			<stop  offset="0" style="stop-color:#A7D63F"/>
			<stop  offset="0.0738" style="stop-color:#9FD340"/>
			<stop  offset="1" style="stop-color:#39B54A"/>
		</linearGradient>
		<path style="fill:url(#SVGID_00000146495655225871878590000003294762288856664757_);" d="M1264.965,1072.414h-37.647V927.587
			h59.927c16.261,0,28.717,4.226,37.359,12.677c8.644,8.451,12.967,20.361,12.967,35.727c0,15.366-4.323,27.275-12.967,35.726
			c-8.642,8.451-21.097,12.677-37.359,12.677h-22.28V1072.414z M1264.965,994.047h12.484c13.83,0,20.745-6.018,20.745-18.055
			c0-12.035-6.915-18.056-20.745-18.056h-12.484V994.047z"/>
	</g>
</g>
</svg>
