<?xml version="1.0" encoding="utf-8"?>
<!-- Generator: Adobe Illustrator 27.5.0, SVG Export Plug-In . SVG Version: 6.00 Build 0)  -->
<svg version="1.1" id="Layer_1" xmlns="http://www.w3.org/2000/svg" xmlns:xlink="http://www.w3.org/1999/xlink" x="0px" y="0px"
	 viewBox="0 0 5000 5000" style="enable-background:new 0 0 5000 5000;" xml:space="preserve">
<rect style="fill:#FFFFFF;" width="5000" height="5000"/>
<g>
	<g>
		<linearGradient id="SVGID_1_" gradientUnits="userSpaceOnUse" x1="609.7931" y1="609.7931" x2="4223.0112" y2="4223.0112">
			<stop  offset="0" style="stop-color:#009F43"/>
			<stop  offset="1" style="stop-color:#075426"/>
		</linearGradient>
		<circle style="fill:url(#SVGID_1_);" cx="2500" cy="2500" r="1390"/>
	</g>
	<g>
		<g>
			
				<linearGradient id="SVGID_00000053523018611715078090000017589761932534160036_" gradientUnits="userSpaceOnUse" x1="1218.1398" y1="279.7528" x2="3668.4829" y2="4523.8716">
				<stop  offset="0" style="stop-color:#009F43"/>
				<stop  offset="1" style="stop-color:#075426"/>
			</linearGradient>
			<path style="fill:url(#SVGID_00000053523018611715078090000017589761932534160036_);" d="M4584.034,2637.437l0.986-0.897
				c80.458-73.247,80.458-199.832,0-273.079l-0.987-0.898c-68.652-62.501-80.221-166.258-27.022-242.345l0.451-0.645
				c62.47-89.346,34.339-213.081-60.619-266.637l-1.063-0.599c-80.684-45.505-115.164-143.748-80.617-229.696l0.289-0.719
				c40.723-101.311-14.885-215.642-119.724-246.155l-1.084-0.316c-88.776-25.838-144.755-113.355-130.988-204.784l0.084-0.559
				c16.29-108.185-64.528-206.729-173.808-211.932l-1.134-0.054c-92.077-4.383-166.816-76.004-175.117-167.811l-0.02-0.215
				c-9.883-109.308-112.365-185.916-220.001-164.456l-0.991,0.198c-90.02,17.948-179.555-32.955-210.175-119.488l-0.001-0.004
				c-36.739-103.827-155.618-152.61-254.699-104.519l-0.519,0.252c-82.323,39.958-181.493,13.593-233.104-61.972l-0.188-0.275
				c-62.169-91.024-189.724-107.654-273.154-35.614l-0.153,0.132c-69.318,59.856-172.036,59.856-241.354,0l-0.152-0.131
				c-83.43-72.041-210.986-55.41-273.154,35.615l-0.183,0.268c-51.611,75.566-150.783,101.932-233.107,61.972l-0.513-0.249
				c-99.08-48.093-217.961,0.691-254.7,104.518v0c-30.62,86.534-120.156,137.437-210.176,119.488l-0.99-0.197
				c-107.635-21.461-210.118,55.146-220.002,164.454l-0.02,0.216c-8.301,91.806-83.04,163.426-175.116,167.81l-1.138,0.054
				c-109.28,5.202-190.098,103.746-173.808,211.931l0.084,0.56c13.767,91.429-42.212,178.946-130.989,204.784l-1.086,0.316
				c-104.839,30.513-160.447,144.843-119.725,246.154l0.291,0.724c34.546,85.947,0.066,184.189-80.617,229.694l-1.069,0.603
				c-94.957,53.556-123.087,177.289-60.618,266.635l0.453,0.648c53.199,76.088,41.629,179.844-27.023,242.344l-0.986,0.898
				c-80.457,73.247-80.458,199.831,0,273.079l0.987,0.898c68.652,62.501,80.222,166.258,27.022,242.345l-0.451,0.645
				c-62.47,89.346-34.339,213.081,60.619,266.636l1.063,0.599c80.684,45.505,115.164,143.748,80.617,229.696l-0.289,0.719
				c-40.723,101.311,14.885,215.642,119.724,246.155l1.085,0.316c88.776,25.838,144.755,113.355,130.988,204.784l-0.084,0.559
				c-16.29,108.185,64.528,206.729,173.809,211.931l1.134,0.054c92.077,4.383,166.816,76.004,175.117,167.811l0.019,0.215
				c9.883,109.309,112.365,185.916,220.001,164.456l0.991-0.197c90.02-17.948,179.555,32.955,210.175,119.488l0.001,0.004
				c36.739,103.826,155.618,152.61,254.698,104.519l0.519-0.252c82.323-39.958,181.494-13.593,233.104,61.972l0.188,0.275
				c62.169,91.023,189.724,107.654,273.154,35.614l0.153-0.132c69.318-59.855,172.036-59.855,241.354,0l0.151,0.13
				c83.43,72.041,210.986,55.41,273.154-35.615l0.183-0.268c51.611-75.566,150.783-101.931,233.107-61.972l0.513,0.249
				c99.08,48.093,217.961-0.691,254.7-104.518v0c30.62-86.534,120.156-137.437,210.176-119.488l0.99,0.197
				c107.636,21.461,210.118-55.146,220.002-164.454l0.02-0.216c8.301-91.806,83.04-163.426,175.116-167.81l1.139-0.054
				c109.28-5.202,190.098-103.747,173.808-211.931l-0.084-0.56c-13.767-91.429,42.212-178.945,130.988-204.783l1.086-0.316
				c104.839-30.513,160.447-144.843,119.725-246.154l-0.292-0.724c-34.546-85.947-0.065-184.189,80.617-229.694l1.069-0.603
				c94.957-53.556,123.087-177.289,60.618-266.635l-0.453-0.648C4503.812,2803.694,4515.382,2699.937,4584.034,2637.437z
				 M2500,4420.689c-1060.768,0-1920.69-859.922-1920.69-1920.689S1439.232,579.31,2500,579.31S4420.689,1439.232,4420.689,2500
				S3560.768,4420.689,2500,4420.689z"/>
		</g>
	</g>
	<g>
		<path style="fill:#009F43;" d="M2500,4355c-250.332,0-493.286-49.072-722.112-145.859
			c-220.918-93.438-419.277-227.163-589.57-397.456c-170.295-170.298-304.019-368.657-397.458-589.57
			C694.075,2993.286,645,2750.332,645,2500s49.075-493.286,145.859-722.112c93.44-220.918,227.163-419.277,397.458-589.57
			c170.293-170.295,368.652-304.019,589.57-397.458C2006.714,694.075,2249.668,645,2500,645s493.286,49.075,722.114,145.859
			c220.913,93.44,419.272,227.163,589.57,397.458c170.293,170.293,304.019,368.652,397.456,589.57
			C4305.928,2006.714,4355,2249.668,4355,2500s-49.072,493.286-145.859,722.114c-93.438,220.913-227.163,419.272-397.456,589.57
			c-170.298,170.293-368.657,304.019-589.57,397.456C2993.286,4305.928,2750.332,4355,2500,4355z M2500,1055
			c-796.775,0-1445,648.225-1445,1445c0,796.777,648.225,1445,1445,1445c796.777,0,1445-648.223,1445-1445
			C3945,1703.225,3296.777,1055,2500,1055z"/>
	</g>
	<g>
		<g>
			<polygon style="fill:#FFFFFF;" points="827.884,2052.359 887.885,2040.405 912.053,1984.201 941.963,2037.571 1002.885,2043.188 
				961.369,2088.126 974.853,2147.802 919.285,2122.205 866.697,2153.47 873.87,2092.712 			"/>
		</g>
		<g>
			<polygon style="fill:#FFFFFF;" points="4007.6,2904.361 4067.6,2892.407 4091.768,2836.203 4121.678,2889.573 4182.6,2895.19 
				4141.084,2940.128 4154.568,2999.804 4099,2974.208 4046.413,3005.472 4053.585,2944.714 			"/>
		</g>
		<g>
			<polygon style="fill:#FFFFFF;" points="766.558,2498.645 824.165,2470.215 833.402,2406.642 878.243,2452.644 941.558,2441.784 
				911.665,2498.645 941.558,2555.506 878.243,2544.646 833.402,2590.648 824.165,2527.076 			"/>
		</g>
		<g>
			<polygon style="fill:#FFFFFF;" points="4058.442,2498.645 4116.048,2470.215 4125.286,2406.642 4170.126,2452.644 
				4233.442,2441.784 4203.548,2498.645 4233.442,2555.506 4170.126,2544.646 4125.286,2590.648 4116.048,2527.076 			"/>
		</g>
		<g>
			<polygon style="fill:#FFFFFF;" points="827.884,2944.931 873.87,2904.578 866.697,2843.82 919.285,2875.085 974.853,2849.489 
				961.369,2909.164 1002.885,2954.103 941.963,2959.719 912.053,3013.089 887.885,2956.885 			"/>
		</g>
		<g>
			<polygon style="fill:#FFFFFF;" points="4007.6,2092.929 4053.585,2052.576 4046.413,1991.818 4099,2023.083 4154.568,1997.486 
				4141.084,2057.162 4182.6,2102.1 4121.678,2107.717 4091.768,2161.087 4067.6,2104.883 			"/>
		</g>
	</g>
	<path id="XMLID_00000104700403722114357740000002136562220467792019_" style="fill:#FFFFFF;" d="M2245.895,2307.021
		c-140.218-143.503-151.858-186.487-114.027-274.231c3.139-7.284,12.794-8.121,17.41-1.674
		c48.418,67.642,130.957,108.922,160.559,122.159c5.119,2.294,7.29,8.364,4.596,13.283
		c-30.593,55.773,67.651,189.884,144.245,294.76c13.443,18.413,21.155,37.829,25.137,56.493c0,0,0,0,0,0.251
		c6.616,31.982,1.883,62.141-3.833,83.045c-2.525,9.252-15.505,9.958-18.804,0.951l-80.165-138.575
		C2347.498,2418.082,2303.762,2366.333,2245.895,2307.021z M1895.772,1970.209c-3.342-18.304-26.463-24.329-38.758-10.363
		c-64.112,72.804-38.06,105.114-25.314,304.947c16.268,255.086,77.825,592.903-185.165,652.936
		c-264.819,60.458-322.531-194.68-263.119-354.639c3.645-9.812-0.543-20.704-10.135-24.9c-9.795-4.279-21.424,0.251-25.663,10.066
		c-138.215,319.921,25.96,476.946,147.193,504.894c184.508,42.528,439.948-65.962,434.353-391.773
		c-5.591-325.814-57.973-418.322-11.549-455.948c46.427-37.626,85.238-50.797,46.804-90.849
		C1944.801,2094.134,1906.189,2027.277,1895.772,1970.209z M3689.561,2548.347c-33.404,3.296-89.943,3.519-154.663-18.547
		c-103.814-35.395-262.802-128.969-401.237-103.523c-128.8,23.675-193.734,122.208-154.183,264.25
		c3.714,13.34,21.624,16.094,29.299,4.568l10.29-15.451c11.031-16.565,12.257-37.283,5.013-55.819
		c-5.804-14.857-5.619-34.341,19.79-51.557c45.71-30.973,206.614-31.779,398.195,39.943
		c-194.214,114.315-372.655,212.921-555.72,180.483c-203.761-36.104-159.25-255.563-167.506-365.931
		c-6.787-90.726-8.884-375.985-9.415-474.638c-0.069-12.646-15.357-18.787-24.306-9.849l-42.351,42.296
		c-12.989,12.971-20.05,30.767-19.313,49.115c9.089,224.77,6.319,573.122-158.639,724.094
		c-107.208,98.115-202.041,131.731-296.489,155.337c-14.428,3.608-12.591,24.677,2.262,25.397
		c85.273,4.113,223.128-2.52,320.672-72.961c102.195-73.804,139.372-151.05,154.709-203.421
		c16.582,95.787,72.51,248.094,260.6,254.801c373.389,13.317,479.083-257.886,720.778-271.58
		c19.801-1.123,37.866-11.763,48.355-28.602l24.872-39.945C3710.616,2560.679,3702.121,2547.105,3689.561,2548.347z"/>
	<g>
		<g>
			<path style="fill:#FFFFFF;" d="M1389.956,3598.784c28.433-10.562,57.344-13.135,86.743-7.715
				c29.39,5.42,56.489,18.511,81.284,39.263c29.006,24.282,48.196,52.998,57.571,86.147c9.37,33.14,7.4,66.494-5.901,100.054
				l-59.875-50.122c4.419-17.383,3.828-33.687-1.77-48.921c-5.603-15.225-15.466-28.76-29.597-40.586
				c-15.127-12.666-31.533-20.391-49.219-23.174c-17.69-2.793-35.217-0.488-52.566,6.909c-17.358,7.402-33.296,19.785-47.81,37.144
				c-14.312,17.114-23.628,34.932-27.947,53.457c-4.321,18.516-3.547,36.245,2.319,53.174c5.862,16.924,16.36,31.719,31.484,44.38
				c14.133,11.831,29.236,19.097,45.31,21.802c16.074,2.7,32.268,0.347,48.591-7.075l59.875,50.117
				c-30.876,19.277-63.328,27.217-97.358,23.813c-34.041-3.403-65.684-17.349-94.937-41.836
				c-24.795-20.757-42.456-45.127-52.971-73.12c-10.525-27.993-13.145-56.865-7.874-86.606s18.586-57.383,39.951-82.935
				C1336.624,3627.412,1361.521,3609.355,1389.956,3598.784z"/>
			<path style="fill:#FFFFFF;" d="M1769.705,3845.713l-39.131,75.317l101.096,52.632l-24.819,47.773l-101.096-52.632l-41.365,79.619
				l114.001,59.351l-25.491,49.063l-174.229-90.703l156.296-300.84l174.226,90.708l-25.488,49.063L1769.705,3845.713z"/>
			<path style="fill:#FFFFFF;" d="M2048.013,4258.267l-35.247-147.412l-30.762-8.848l-36.533,126.758l-65.254-18.77l93.752-325.288
				l122.117,35.127c25.168,7.241,45.334,17.837,60.493,31.787c15.161,13.95,24.995,29.736,29.509,47.349
				c4.512,17.622,4.082,35.747-1.289,54.385c-6.179,21.44-17.974,38.989-35.366,52.661c-17.402,13.667-39.316,20.229-65.74,19.692
				l39.827,154.282L2048.013,4258.267z M1996.108,4053.071l54.534,15.688c17.71,5.098,32.144,4.629,43.311-1.416
				c11.157-6.04,18.938-16.67,23.325-31.899c4.299-14.912,3.279-27.734-3.044-38.472c-6.331-10.732-18.345-18.652-36.057-23.745
				l-54.534-15.688L1996.108,4053.071z"/>
			<path style="fill:#FFFFFF;" d="M2512.349,3980.815l-4.131,54.653l-89.963-6.704l-21.384,282.92l-67.712-5.044l21.384-282.92
				l-89.961-6.704l4.131-54.648L2512.349,3980.815z"/>
			<path style="fill:#FFFFFF;" d="M2646.255,3968.975l25.786,337.544l-67.71,5.098l-25.781-337.544L2646.255,3968.975z"/>
			<path style="fill:#FFFFFF;" d="M2934.756,3915.317l12.017,53.472l-137.734,30.806l19.028,84.702l105.547-23.604l11.802,52.524
				l-105.547,23.608l31.357,139.595l-66.265,14.819l-74.199-330.298L2934.756,3915.317z"/>
			<path style="fill:#FFFFFF;" d="M3059.58,3866.421l121.055,316.143l-63.403,24.297l-121.06-316.147L3059.58,3866.421z"/>
			<path style="fill:#FFFFFF;" d="M3224.15,3849.038l41.484,74.043l99.385-55.801l26.313,46.963l-99.38,55.806l43.853,78.276
				l112.07-62.93l27.021,48.237l-171.27,96.167l-165.708-295.757l171.274-96.167l27.021,48.232L3224.15,3849.038z"/>
			<path style="fill:#FFFFFF;" d="M3541.26,3577.358c29.448-7.363,58.179-6.25,86.196,3.354
				c28.008,9.609,53.213,27.173,75.61,52.686s36.44,52.666,42.134,81.45c5.693,28.789,2.983,57.314-8.125,85.576
				c-11.113,28.271-30.029,54.141-56.748,77.612l-88.901,78.11l-223.335-254.414l88.906-78.105
				C3483.716,3600.156,3511.802,3584.736,3541.26,3577.358z M3683.174,3759.98c1.777-27.388-8.96-54.321-32.212-80.806
				c-23.247-26.484-48.721-40.801-76.416-42.939c-27.69-2.139-54.897,8.53-81.616,32.002l-36.069,31.689l147.5,168.027
				l36.069-31.689C3667.148,3812.793,3681.396,3787.363,3683.174,3759.98z"/>
		</g>
		<g>
			<path style="fill:#FFFFFF;" d="M1141.252,1289.624l269.402,205l-41.157,54.006l-114.631-87.229l-87.898,115.339l114.629,87.227
				l-41.155,54.006L971.04,1512.971l41.157-54.004l110.769,84.292l87.9-115.339l-110.771-84.292L1141.252,1289.624z"/>
			<path style="fill:#FFFFFF;" d="M1579.539,1263.105l-104.492,85.208l23.445,64.114l-55.254,45.056l-119.749-339.792l61.27-49.961
				l308.435,185.93l-55.63,45.361L1579.539,1263.105z M1530.952,1232.634l-127.4-78.85l51.472,140.764L1530.952,1232.634z"/>
			<path style="fill:#FFFFFF;" d="M1778.406,1150.94l98.66-52.056l25.083,47.634l-158.713,83.74L1585.71,930.718l60.054-31.685
				L1778.406,1150.94z"/>
			<path style="fill:#FFFFFF;" d="M2130.354,1002.844l-129.377,37.954l-3.223,68.169l-68.413,20.071l21.24-359.534l75.857-22.253
				l212.385,290.996l-68.877,20.205L2130.354,1002.844z M2097.356,955.916l-86.929-122.087l-7.08,149.666L2097.356,955.916z"/>
			<path style="fill:#FFFFFF;" d="M2357.285,976.96l111.14-9.56l4.673,53.63l-178.789,15.381l-29.392-337.251l67.649-5.82
				L2357.285,976.96z"/>
			<path style="fill:#FFFFFF;" d="M2937.446,735.151l-9.824,53.918l-138.877-25.144l-15.562,85.408l106.426,19.27l-9.653,52.961
				l-106.426-19.267l-25.649,140.757l-66.812-12.097l60.688-333.047L2937.446,735.151z"/>
			<path style="fill:#FFFFFF;" d="M3001.641,1088.862c-18.633-24.026-29.966-51.201-34.004-81.526
				c-4.043-30.317,0.42-60.815,13.379-91.497c12.837-30.381,31.523-54.68,56.074-72.913c24.551-18.227,51.924-29.028,82.134-32.402
				c30.2-3.369,59.897,1.111,89.087,13.457c29.482,12.468,53.457,30.691,71.943,54.653c18.481,23.967,29.668,51.079,33.56,81.335
				c3.887,30.261-0.581,60.576-13.413,90.957c-12.964,30.681-31.65,55.164-56.04,73.455c-24.404,18.296-51.714,29.126-81.914,32.495
				c-30.21,3.374-59.902-1.113-89.082-13.457C3044.175,1131.077,3020.264,1112.891,3001.641,1088.862z M3151.914,1095.813
				c17.881-2.441,34.175-9.851,48.887-22.241c14.707-12.383,26.465-28.999,35.273-49.851c8.809-20.845,12.495-40.794,11.06-59.829
				c-1.431-19.038-7.534-35.747-18.306-50.137c-10.771-14.38-25.537-25.544-44.297-33.482c-18.76-7.934-37.129-10.784-55.093-8.555
				c-17.969,2.229-34.272,9.463-48.916,21.699c-14.648,12.236-26.377,28.784-35.181,49.629
				c-8.809,20.85-12.529,40.869-11.157,60.054c1.372,19.189,7.48,36.077,18.345,50.676c10.854,14.595,25.664,25.862,44.424,33.799
				C3115.718,1095.51,3134.038,1098.257,3151.914,1095.813z"/>
			<path style="fill:#FFFFFF;" d="M3343.711,1263.013c-11.914-27.979-15.962-57.144-12.153-87.502
				c3.804-30.352,15.874-58.718,36.206-85.095c20.137-26.118,44.39-44.868,72.769-56.257c28.369-11.382,57.588-14.866,87.661-10.442
				c30.059,4.424,57.637,16.313,82.725,35.681c25.337,19.561,43.887,43.284,55.669,71.167
				c11.777,27.883,15.698,56.953,11.768,87.207c-3.936,30.256-15.967,58.442-36.104,84.563
				c-20.332,26.377-44.629,45.303-72.866,56.79c-28.252,11.487-57.412,15.015-87.471,10.591
				c-30.073-4.424-57.646-16.318-82.725-35.681C3374.106,1314.666,3355.61,1290.994,3343.711,1263.013z M3487.256,1307.971
				c17.915,2.188,35.552-0.835,52.93-9.075c17.368-8.235,32.964-21.316,46.787-39.243c13.813-17.92,22.456-36.277,25.908-55.056
				s1.802-36.492-4.956-53.149c-6.758-16.65-18.198-31.206-34.321-43.655c-16.123-12.446-33.159-19.875-51.094-22.292
				c-17.949-2.412-35.547,0.435-52.822,8.545c-17.275,8.108-32.827,21.128-46.641,39.05c-13.818,17.927-22.505,36.343-26.06,55.247
				c-3.555,18.911-1.938,36.799,4.854,53.682c6.782,16.88,18.242,31.548,34.365,43.997
				C3452.329,1298.467,3469.346,1305.786,3487.256,1307.971z"/>
			<path style="fill:#FFFFFF;" d="M3953.555,1446.88c5.791,29.8,3.145,58.428-7.939,85.886
				c-11.089,27.451-29.971,51.682-56.646,72.686c-26.675,21.001-54.541,33.577-83.584,37.727
				c-29.058,4.148-57.402-0.078-85.039-12.678c-27.642-12.6-52.471-32.866-74.487-60.796l-73.271-92.93l265.981-209.421
				l73.267,92.93C3933.857,1388.21,3947.759,1417.08,3953.555,1446.88z M3763.613,1578.843c27.256,3.232,54.727-6.052,82.417-27.854
				c27.686-21.799,43.34-46.472,46.953-74.009c3.613-27.534-5.591-55.271-27.612-83.198l-29.727-37.705l-175.669,138.315
				l29.727,37.705C3711.724,1560.024,3736.362,1575.608,3763.613,1578.843z"/>
		</g>
	</g>
</g>
</svg>
