<?xml version="1.0" standalone="no"?>
<!DOCTYPE svg PUBLIC "-//W3C//DTD SVG 20010904//EN"
 "http://www.w3.org/TR/2001/REC-SVG-20010904/DTD/svg10.dtd">
<svg version="1.0" xmlns="http://www.w3.org/2000/svg"
 width="1266.000000pt" height="1012.000000pt" viewBox="0 0 1266.000000 1012.000000"
 preserveAspectRatio="xMidYMid meet">
<metadata>
Created by potrace 1.16, written by Peter Selinger 2001-2019
</metadata>
<g transform="translate(0.000000,1012.000000) scale(0.100000,-0.100000)"
fill="#000000" stroke="none">
<path d="M6090 9609 c-1115 -81 -2135 -536 -2931 -1306 -751 -727 -1240 -1705
-1373 -2748 -42 -325 -46 -785 -11 -1090 86 -746 337 -1441 740 -2055 391
-595 922 -1097 1536 -1457 562 -328 1163 -527 1839 -610 208 -26 812 -26 1020
0 570 70 1062 215 1555 458 1024 506 1837 1387 2255 2445 137 345 228 684 280
1037 61 415 66 865 14 1272 -219 1716 -1375 3171 -2997 3774 -358 133 -746
223 -1147 266 -177 19 -609 27 -780 14z m817 -441 c24 -11 52 -31 63 -45 22
-29 47 -100 37 -109 -3 -4 -22 -3 -42 0 -28 6 -38 14 -49 41 -26 62 -118 85
-184 45 -68 -41 -97 -185 -55 -268 49 -95 190 -93 224 2 12 34 16 36 56 36 49
0 51 -6 24 -65 -33 -72 -102 -115 -184 -115 -128 0 -214 82 -225 215 -17 213
155 347 335 263z m462 -74 c86 -20 160 -40 165 -44 4 -4 5 -21 2 -38 l-7 -29
-122 28 c-67 16 -125 29 -129 29 -7 0 -24 -56 -30 -99 -3 -23 3 -25 112 -51
l115 -27 -3 -29 c-2 -16 -6 -31 -8 -33 -2 -3 -57 7 -121 22 -64 15 -117 26
-118 24 -1 -1 -8 -32 -17 -69 l-15 -67 118 -27 c65 -15 123 -30 129 -34 19
-12 2 -73 -18 -68 -10 3 -82 20 -162 38 -80 18 -149 37 -154 41 -8 7 92 469
102 469 2 0 75 -16 161 -36z m-1305 -38 c82 -34 103 -127 43 -193 -29 -30 -40
-36 -78 -37 -113 -3 -168 124 -88 203 25 26 39 32 82 40 4 0 22 -5 41 -13z
m-659 -29 c52 -30 91 -88 111 -166 27 -108 -2 -208 -73 -252 -47 -29 -257 -90
-262 -75 -13 35 -129 451 -126 454 1 2 47 16 101 32 123 36 194 38 249 7z
m2460 -82 c131 -50 185 -95 185 -156 0 -45 -39 -107 -79 -125 -38 -17 -38 -17
-23 -44 15 -26 15 -34 -1 -101 -10 -41 -17 -84 -17 -97 0 -22 -1 -22 -37 -7
-53 23 -55 26 -38 81 20 67 19 117 -3 137 -17 16 -132 67 -150 67 -4 0 -23
-40 -41 -90 -18 -49 -36 -90 -39 -90 -13 0 -72 25 -72 30 0 6 142 385 160 427
10 25 1 27 155 -32z m-2968 -78 c-3 -7 -55 -34 -116 -61 -61 -26 -111 -52
-111 -56 0 -8 39 -102 44 -108 2 -1 51 18 109 43 58 25 110 45 114 45 5 0 14
-13 20 -29 l11 -29 -109 -48 c-60 -25 -109 -50 -109 -55 0 -20 46 -119 55
-119 6 0 62 23 124 50 62 28 114 50 116 50 7 0 27 -61 22 -67 -4 -3 -76 -36
-161 -73 l-154 -68 -96 221 c-53 121 -94 222 -92 224 2 2 73 34 157 72 l154
68 13 -24 c8 -14 11 -30 9 -36z m3493 -158 c94 -50 170 -93 170 -96 0 -3 -7
-18 -17 -33 l-16 -28 -65 36 c-78 43 -60 59 -179 -165 l-85 -162 -37 21 -37
21 93 176 c51 96 93 179 93 183 0 4 -28 22 -62 39 -35 17 -64 33 -66 34 -5 4
27 65 34 65 3 0 81 -41 174 -91z m-3875 -234 c59 -107 104 -199 101 -203 -7
-11 -65 -36 -70 -31 -18 22 -226 412 -222 417 3 3 18 13 33 22 24 16 30 16 40
3 6 -8 59 -102 118 -208z m-312 75 l18 -29 -93 -62 c-51 -34 -97 -65 -102 -70
-10 -9 51 -109 66 -109 6 0 46 25 89 55 43 30 81 55 85 55 9 0 33 -33 34 -46
0 -6 -38 -37 -85 -69 -47 -32 -85 -60 -85 -63 0 -2 25 -40 55 -83 30 -43 55
-82 55 -86 0 -4 -15 -18 -33 -29 l-34 -22 -133 199 c-96 143 -131 202 -123
210 13 13 256 177 263 178 3 1 14 -12 23 -29z m4543 -65 c-8 -23 -257 -395
-264 -395 -4 0 -20 10 -36 23 l-29 23 132 202 133 201 34 -22 c19 -12 32 -26
30 -32z m304 -211 c99 -80 118 -99 110 -113 -23 -44 -32 -42 -127 35 -51 41
-96 74 -100 74 -4 -1 -25 -23 -46 -50 l-37 -49 85 -66 c75 -59 84 -69 74 -86
-19 -37 -37 -32 -115 30 -42 34 -80 61 -85 61 -4 0 -36 -36 -70 -79 l-63 -79
-33 25 c-20 16 -30 30 -25 38 32 55 290 364 299 360 7 -2 67 -48 133 -101z
m-2360 16 c427 -39 823 -151 1201 -341 333 -166 604 -362 869 -628 539 -541
872 -1235 955 -1991 18 -167 21 -521 5 -680 -69 -692 -337 -1322 -790 -1855
-97 -114 -327 -337 -450 -435 -289 -230 -647 -426 -1005 -550 -344 -118 -688
-174 -1075 -174 -299 0 -521 26 -795 93 -462 113 -919 338 -1290 636 -123 98
-341 309 -445 430 -449 523 -720 1160 -790 1855 -16 158 -13 512 5 680 143
1297 1027 2390 2270 2805 215 71 507 132 740 154 132 12 463 13 595 1z m-2778
-206 c140 -170 146 -180 130 -197 -42 -46 -41 -47 -202 150 l-153 187 29 23
c16 12 34 21 39 20 6 -2 76 -84 157 -183z m-305 24 l23 -22 -55 -56 -56 -56
142 -148 142 -147 -30 -30 -30 -30 -142 147 -143 147 -54 -54 -54 -53 -28 27
-27 27 140 135 c77 74 142 134 144 134 3 1 15 -9 28 -21z m5677 -160 c-32 -35
-107 -113 -165 -175 l-106 -112 -27 28 c-14 15 -26 31 -26 35 0 4 73 84 162
177 l162 170 30 -30 30 -30 -60 -63z m405 -354 c-13 -14 -26 -23 -29 -22 -5 2
-163 179 -174 195 -1 1 -23 -17 -50 -41 l-49 -42 77 -88 c42 -48 76 -91 76
-95 0 -4 -9 -16 -21 -27 -23 -21 -23 -21 -139 113 l-45 52 -54 -48 -53 -47 86
-98 c47 -55 86 -102 86 -106 0 -4 -12 -16 -27 -25 -27 -18 -27 -18 -52 12 -14
17 -66 76 -115 132 -49 56 -87 103 -85 105 2 2 84 74 182 159 l179 156 114
-131 115 -130 -22 -24z m-6402 86 c41 -25 66 -64 67 -105 1 -32 2 -32 39 -27
31 4 48 -2 96 -32 32 -19 69 -39 81 -44 l22 -8 -27 -32 c-15 -18 -32 -32 -38
-32 -7 0 -37 16 -67 35 -55 36 -87 42 -119 26 -17 -10 -101 -112 -101 -124 0
-3 34 -33 75 -67 l75 -62 -22 -28 c-13 -16 -26 -29 -30 -29 -4 -1 -91 65 -193
145 -149 119 -183 150 -175 163 22 40 159 198 189 218 42 28 86 29 128 3z
m6607 -316 c62 -94 70 -112 74 -164 5 -73 -14 -116 -80 -175 -90 -81 -209
-105 -289 -58 -17 10 -63 66 -105 127 l-74 110 198 132 c108 73 199 133 202
133 3 0 36 -47 74 -105z m-7001 -88 c9 -7 17 -17 17 -21 0 -6 -74 -134 -117
-201 -13 -21 -11 -24 42 -54 31 -18 57 -31 59 -29 2 2 29 48 61 102 31 53 62
97 67 97 16 0 48 -20 48 -30 0 -5 -25 -51 -56 -102 -31 -51 -58 -96 -60 -99
-4 -7 116 -82 121 -77 2 2 33 54 70 116 l66 112 30 -17 c18 -11 27 -23 24 -32
-4 -11 -161 -277 -171 -290 -2 -2 -401 234 -413 245 -8 7 170 294 182 294 7 0
20 -7 30 -14z m-163 -500 c0 -2 -7 -20 -15 -40 -12 -28 -21 -36 -41 -36 -57 0
-109 -50 -115 -111 -4 -49 2 -69 33 -104 42 -48 99 -76 167 -82 68 -5 115 19
137 72 23 57 18 90 -22 135 -34 38 -35 40 -23 75 7 19 17 35 21 35 19 0 88
-75 99 -108 35 -107 -20 -236 -120 -279 -128 -55 -324 39 -361 172 -27 97 24
213 115 263 18 10 125 17 125 8z m7424 -157 c43 -37 54 -81 32 -132 -16 -39
-67 -77 -104 -77 -71 0 -122 54 -122 131 0 33 6 47 34 75 29 29 41 34 80 34
36 0 52 -6 80 -31z m264 -585 c164 -68 186 -305 35 -383 -20 -10 -22 -8 -28
31 -6 34 -4 44 13 57 28 23 42 54 42 96 0 52 -25 92 -72 116 -81 42 -214 6
-266 -71 -19 -28 -23 -43 -18 -78 10 -73 45 -107 120 -114 23 -2 31 -9 38 -33
13 -49 4 -58 -49 -50 -61 9 -93 26 -131 69 -85 97 -61 267 47 330 82 47 197
61 269 30z m-7871 -79 c12 -3 34 -20 48 -36 77 -92 -27 -232 -138 -186 -43 18
-77 68 -77 113 0 43 39 97 80 111 34 11 42 11 87 -2z m8063 -487 c1 -13 7 -88
14 -168 14 -156 13 -162 -34 -158 -25 3 -25 5 -35 128 l-10 125 -58 3 c-45 2
-59 0 -63 -13 -4 -8 -2 -64 2 -124 l9 -109 -30 -5 c-16 -3 -32 -3 -34 -1 -3 2
-9 58 -14 124 l-10 119 -66 -6 c-36 -3 -68 -7 -70 -9 -2 -2 0 -61 6 -131 5
-71 9 -129 8 -130 -1 -1 -17 -4 -36 -5 l-34 -3 -13 135 c-7 74 -11 153 -10
175 l3 40 180 16 c99 9 206 17 238 18 53 1 57 -1 57 -21z m-8131 -139 c66 -14
128 -60 152 -112 14 -32 19 -65 19 -138 0 -53 -3 -111 -6 -128 l-6 -31 -82 0
c-44 0 -153 3 -240 7 l-159 6 6 124 c5 98 10 134 27 169 46 94 154 132 289
103z m7990 -355 l174 -6 -8 -137 c-8 -156 -25 -210 -74 -235 -58 -30 -144 -11
-171 39 l-12 23 -22 -25 c-19 -22 -34 -26 -109 -33 -47 -5 -91 -11 -97 -15 -6
-4 -10 10 -10 38 0 52 8 57 79 57 107 0 131 28 131 151 l0 69 -94 0 c-52 0
-98 4 -101 10 -3 5 -3 26 1 46 l7 36 66 -6 c36 -3 144 -8 240 -12z m-7806
-346 c9 -94 15 -174 12 -176 -6 -6 -469 -50 -475 -45 -2 2 -11 80 -20 173
l-15 168 30 5 c16 3 33 3 36 1 4 -2 9 -41 13 -86 4 -46 9 -103 12 -128 l6 -45
61 5 c59 5 62 6 61 30 -1 14 -5 68 -9 121 l-7 96 28 6 c16 3 32 3 35 1 4 -2 9
-50 13 -106 10 -145 5 -137 79 -131 34 3 65 8 69 12 4 3 1 63 -5 133 -13 135
-13 136 34 137 l26 1 16 -172z m7940 -214 c-3 -29 -54 -327 -59 -346 -5 -19
-39 -24 -61 -10 -10 6 -10 23 -1 75 6 37 8 70 5 74 -4 3 -93 21 -198 39 -106
19 -193 35 -195 37 -2 2 -1 20 3 40 4 24 11 37 21 37 9 0 98 -14 199 -32 101
-17 185 -29 188 -26 3 2 10 31 16 64 16 86 14 83 51 75 25 -6 33 -12 31 -27z
m-7888 -155 l7 -36 -199 -38 c-109 -20 -215 -41 -236 -45 -42 -9 -43 -8 -52
41 l-7 36 149 28 c81 15 186 35 233 45 47 9 88 14 92 11 3 -3 9 -22 13 -42z
m7543 -284 c114 -31 215 -58 225 -61 15 -5 17 -12 12 -37 -4 -18 -11 -36 -15
-40 -6 -6 -236 50 -451 110 -14 4 -15 11 -7 44 6 21 15 39 20 39 5 0 102 -25
216 -55z m-7683 -55 c16 -55 34 -100 40 -100 6 0 49 11 96 25 46 13 87 25 91
25 9 0 31 -70 24 -77 -5 -5 -444 -133 -456 -133 -11 0 -93 311 -84 320 5 5 20
11 34 15 24 6 26 3 59 -115 27 -95 37 -120 49 -115 8 3 34 10 58 16 25 6 46
14 48 18 2 3 -7 42 -20 86 -36 125 -36 123 -17 128 48 12 50 10 78 -93z m7596
-181 c106 -39 207 -76 225 -84 l32 -13 -56 -154 c-30 -84 -56 -154 -57 -156
-4 -5 -65 20 -65 28 0 4 18 56 40 115 22 59 40 109 40 111 0 3 -108 44 -118
44 -4 0 -23 -43 -41 -95 -18 -53 -37 -98 -42 -101 -7 -4 -42 9 -57 21 -1 1 14
46 33 100 28 76 33 100 23 106 -7 4 -46 20 -88 35 -41 15 -79 30 -84 34 -7 7
10 80 19 80 2 0 90 -32 196 -71z m-7271 -125 c7 -19 10 -37 8 -39 -2 -2 -98
-41 -213 -86 -116 -44 -215 -83 -221 -86 -10 -4 -28 29 -36 65 -2 8 72 42 212
97 118 46 220 84 227 84 6 1 17 -15 23 -35z m7144 -328 c108 -52 196 -100 196
-106 0 -6 -7 -24 -15 -40 l-15 -29 -137 66 c-76 36 -175 83 -221 104 l-82 38
17 36 c14 29 21 35 39 31 12 -3 110 -48 218 -100z m-7007 19 c9 -19 15 -37 12
-39 -2 -2 -83 -43 -179 -91 -96 -48 -177 -89 -179 -91 -3 -3 9 -34 27 -70 18
-35 32 -66 32 -68 0 -6 -60 -29 -64 -25 -9 10 -166 330 -166 339 0 5 13 16 30
25 l30 15 35 -70 35 -70 178 89 c97 50 180 90 185 90 4 1 15 -15 24 -34z
m6917 -260 c91 -55 165 -105 164 -110 -2 -6 -41 -75 -87 -153 l-84 -141 -28
16 c-16 10 -29 20 -29 23 0 3 23 43 50 89 90 149 88 135 28 170 -29 16 -55 28
-58 26 -4 -2 -33 -49 -65 -104 l-58 -100 -29 15 c-15 8 -28 17 -28 20 0 3 25
49 56 102 31 54 58 100 60 103 2 4 -23 23 -56 42 -43 26 -61 32 -68 24 -5 -7
-33 -52 -62 -102 -76 -128 -67 -122 -118 -87 -10 7 6 40 63 138 42 71 83 139
91 152 l15 23 38 -23 c21 -13 113 -68 205 -123z m-6813 -104 c-76 -69 -79 -91
-21 -179 22 -34 43 -62 47 -62 5 0 43 23 87 50 43 28 79 50 80 48 2 -2 12 -17
24 -34 l21 -31 -200 -133 c-116 -78 -203 -130 -208 -124 -22 24 -135 200 -147
230 -30 71 -10 128 60 164 40 22 50 23 85 14 l41 -11 0 30 c0 25 13 43 72 98
l72 67 25 -36 24 -36 -62 -55z m6514 -299 c94 -74 174 -138 179 -143 9 -8 -46
-85 -122 -170 -100 -111 -233 -102 -351 26 -72 78 -90 154 -53 227 32 62 152
209 165 201 7 -3 89 -67 182 -141z m-6105 -113 c52 -61 103 -121 112 -133 17
-22 16 -24 -154 -172 -94 -82 -176 -152 -183 -156 -8 -5 -50 36 -121 118 -60
69 -110 129 -112 134 -2 5 9 17 24 26 l26 18 57 -64 c31 -36 70 -80 86 -98
l30 -33 48 43 47 43 -79 90 -80 90 25 25 24 25 48 -55 c26 -30 63 -72 82 -93
l35 -38 52 48 53 48 -86 98 -87 98 23 24 c13 14 26 25 29 24 3 0 49 -50 101
-110z m308 -325 c79 -33 141 -120 142 -199 0 -64 -18 -112 -63 -167 -105 -129
-260 -145 -364 -36 -60 62 -77 135 -48 204 l15 36 27 -20 c25 -18 28 -26 28
-81 0 -53 4 -63 30 -90 77 -82 195 -49 265 72 33 57 38 103 15 147 -35 68
-108 89 -174 49 l-34 -20 -28 27 c-34 32 -27 47 36 75 49 23 104 24 153 3z
m5256 -163 c27 -27 31 -39 31 -82 0 -46 -4 -54 -37 -85 -28 -25 -47 -34 -73
-34 -43 0 -88 22 -109 52 -20 28 -20 90 -1 128 35 68 131 78 189 21z m-606
-290 c117 -61 188 -240 136 -344 -64 -127 -220 -173 -318 -96 -34 26 -33 35 6
55 29 15 34 15 59 0 83 -49 189 18 189 120 0 53 -45 140 -91 177 -71 56 -162
40 -204 -36 -17 -31 -18 -42 -9 -76 11 -40 10 -42 -21 -61 -41 -26 -41 -26
-54 11 -39 113 36 237 164 270 41 11 99 2 143 -20z m-4111 -101 c6 0 25 -13
41 -30 94 -94 -3 -244 -127 -194 -66 26 -92 87 -65 153 21 54 70 85 119 75 11
-2 25 -4 32 -4z m3718 -299 c46 -109 86 -204 87 -210 3 -10 -287 -141 -311
-141 -11 0 -32 58 -23 64 4 2 58 25 120 51 61 26 112 49 112 52 0 4 -41 105
-46 111 -1 2 -51 -17 -109 -42 -59 -25 -111 -46 -115 -46 -5 0 -13 14 -19 30
-9 28 -8 31 22 44 18 7 67 28 110 46 42 18 77 36 77 41 0 4 -12 34 -26 67
l-26 60 -121 -53 -122 -53 -13 25 c-7 13 -12 29 -10 35 2 6 74 41 159 78 115
50 156 63 162 54 4 -7 45 -103 92 -213z m-2939 68 c49 -18 93 -35 97 -39 7 -6
-144 -434 -158 -448 -6 -6 -143 42 -213 75 -72 34 -105 84 -110 167 -8 123 74
255 173 280 57 15 84 10 211 -35z m2414 -24 c0 -2 27 -102 60 -222 33 -119 60
-222 60 -229 0 -10 -137 -52 -253 -78 -39 -9 -99 9 -127 39 -33 36 -39 113
-12 160 20 33 20 35 3 35 -26 0 -56 37 -85 110 -15 36 -29 70 -32 75 -2 6 14
16 36 22 39 10 41 9 54 -16 7 -14 19 -42 25 -62 28 -88 81 -98 228 -44 9 3 7
22 -8 72 -35 119 -35 119 -3 131 32 12 54 15 54 7z m-1968 -100 c76 -17 116
-30 113 -38 -2 -7 -25 -109 -51 -227 -26 -118 -50 -219 -55 -223 -4 -5 -81 8
-172 29 l-166 37 6 31 c3 17 7 33 9 35 2 2 56 -8 121 -23 65 -14 123 -26 129
-26 9 0 34 81 34 110 0 10 -30 19 -152 45 -75 16 -78 18 -78 45 0 16 4 31 9
34 5 3 59 -5 119 -19 61 -14 113 -25 115 -25 3 0 10 24 17 53 6 28 14 59 16
68 4 13 -19 21 -123 44 -71 16 -129 30 -131 31 -2 1 0 18 3 37 l7 35 56 -13
c32 -7 110 -25 174 -40z m1368 -122 c47 -329 45 -318 65 -316 11 1 45 5 76 8
l56 7 7 -33 c3 -18 5 -34 3 -36 -2 -2 -88 -15 -191 -30 -202 -29 -205 -28
-206 23 0 19 8 23 71 32 39 6 73 13 76 15 2 3 -7 85 -21 182 -14 98 -26 188
-26 200 0 23 5 25 66 34 8 0 17 -33 24 -86z m-1032 63 c3 -3 -8 -112 -24 -242
l-28 -236 -39 5 c-21 3 -41 7 -43 10 -2 2 9 109 26 238 16 128 30 235 30 238
0 5 71 -7 78 -13z m447 -215 c-3 -102 -8 -210 -11 -238 l-5 -53 -58 0 c-32 0
-106 3 -164 7 l-107 6 0 35 0 35 125 -5 125 -6 0 69 0 69 -105 0 -105 0 0 36
0 36 108 -4 107 -3 3 95 c1 52 4 100 6 105 2 6 22 9 46 7 l41 -4 -6 -187z
m235 197 c2 -9 27 -473 26 -474 0 -1 -19 -4 -42 -6 l-41 -6 -6 102 c-4 55 -10
165 -13 244 l-7 142 42 0 c22 0 41 -1 41 -2z"/>
<path d="M5215 8962 c-50 -15 -59 -21 -57 -37 5 -27 83 -299 88 -304 6 -6 95
20 135 40 19 9 40 29 47 44 20 43 14 124 -12 182 -40 85 -95 106 -201 75z"/>
<path d="M7763 8883 c-3 -10 -15 -40 -25 -67 -10 -27 -17 -50 -15 -52 11 -12
142 -54 167 -54 33 0 57 21 66 56 12 46 -9 69 -90 103 -87 36 -94 37 -103 14z"/>
<path d="M6205 8130 c-661 -43 -1276 -283 -1800 -703 -126 -102 -366 -342
-470 -472 -380 -474 -612 -1031 -686 -1650 -20 -161 -17 -557 5 -720 71 -522
229 -946 511 -1370 847 -1272 2462 -1758 3870 -1164 953 402 1667 1275 1869
2285 47 236 59 362 60 619 1 253 -9 367 -50 590 -116 636 -439 1239 -908 1693
-645 624 -1518 948 -2401 892z m95 -834 l0 -624 27 -7 c15 -3 60 -22 100 -40
l73 -34 0 665 0 666 33 -7 c375 -78 739 -489 973 -1102 l39 -101 112 1 c62 1
113 4 113 6 0 3 -14 43 -31 90 -145 399 -341 731 -568 964 -36 37 -60 67 -54
67 24 0 252 -73 360 -115 249 -97 563 -278 763 -440 110 -89 220 -187 220
-197 0 -20 -300 -202 -506 -308 l-134 -67 53 -7 c28 -4 100 -18 159 -33 l107
-26 103 58 c57 31 163 96 237 143 l134 85 34 -39 c68 -78 202 -261 260 -354
253 -405 402 -851 443 -1330 5 -63 10 -121 10 -127 0 -10 -85 -13 -393 -13
l-392 0 -43 -54 c-24 -30 -71 -76 -104 -102 l-60 -49 496 -3 c387 -2 496 -5
496 -15 -1 -134 -48 -442 -96 -625 -108 -416 -332 -847 -601 -1159 l-54 -62
-87 58 c-110 73 -276 173 -350 210 -121 62 -126 60 166 61 l262 0 -2 618 -3
617 -286 3 -286 2 5 72 5 71 -34 -7 c-19 -4 -67 -12 -106 -18 l-73 -10 0 -54
0 -54 -660 0 -660 0 0 120 c0 66 -2 120 -4 120 -2 0 -42 -18 -89 -40 -47 -22
-90 -40 -96 -40 -7 0 -11 -28 -11 -80 l0 -80 -660 0 -660 0 0 70 0 70 -106 0
-106 0 4 -70 4 -70 -286 -2 -285 -3 -3 -617 -2 -618 262 -2 c258 -3 262 -3
233 -21 -16 -10 -86 -50 -155 -88 -69 -39 -175 -104 -237 -145 l-112 -73 -54
62 c-189 219 -380 538 -490 818 -112 283 -174 561 -202 901 l-7 78 299 2 298
3 3 103 3 102 -301 0 c-233 0 -300 3 -300 13 0 44 23 259 35 342 62 395 215
799 433 1140 49 76 190 266 246 329 l33 39 134 -85 c74 -47 166 -104 206 -126
l71 -42 326 0 c231 0 326 3 326 11 0 26 109 286 175 414 189 372 420 632 665
748 59 29 167 65 198 66 9 1 12 -130 12 -623z m-671 477 c-96 -99 -163 -183
-252 -318 -96 -145 -238 -433 -303 -610 -26 -71 -50 -134 -54 -138 -18 -21
-545 268 -661 362 l-24 19 69 64 c246 226 598 447 899 565 102 40 354 122 377
123 8 0 -15 -30 -51 -67z m2851 -3828 l0 -505 -2080 0 -2080 0 0 505 0 505
2080 0 2080 0 0 -505z m-2182 -1272 c3 -749 16 -669 -104 -632 -136 42 -244
110 -378 239 -195 187 -363 451 -503 794 -39 94 -93 242 -93 253 0 2 242 2
538 1 l537 -3 3 -652z m1282 654 c0 -33 -125 -337 -200 -487 -180 -360 -415
-630 -650 -750 -58 -30 -177 -70 -207 -70 l-23 0 0 648 c0 357 3 652 7 655 6
7 1073 10 1073 4z m-2520 -197 c76 -219 196 -465 311 -641 90 -138 142 -203
243 -308 51 -52 82 -91 71 -88 -339 94 -609 210 -861 370 -167 106 -469 347
-481 383 -4 11 160 119 324 213 124 71 347 181 354 173 3 -4 21 -50 39 -102z
m2992 -26 c113 -62 346 -202 393 -238 20 -14 20 -15 -10 -46 -50 -53 -214
-188 -325 -267 -260 -185 -577 -340 -878 -427 -68 -20 -126 -36 -130 -36 -3 0
35 42 84 93 152 156 281 342 394 572 64 130 151 337 180 430 7 22 14 43 16 47
6 9 129 -48 276 -128z"/>
<path d="M5775 6566 c-107 -17 -229 -59 -301 -102 -75 -45 -165 -133 -199
-195 -37 -69 -58 -178 -50 -263 28 -298 212 -436 649 -490 170 -21 239 -41
283 -83 32 -30 35 -37 30 -74 -7 -51 -44 -92 -106 -116 -71 -28 -272 -25 -367
5 l-71 22 -7 61 c-3 34 -6 77 -6 95 l0 34 -205 0 -205 0 0 -205 0 -205 51 -40
c108 -85 248 -146 403 -175 90 -17 313 -22 401 -10 367 51 585 251 585 535 0
304 -216 478 -660 530 -172 20 -252 46 -284 92 -23 33 -21 109 4 141 11 14 46
35 78 47 51 20 70 21 177 17 165 -8 165 -7 165 -72 0 -29 3 -73 6 -99 l7 -46
201 2 201 3 3 185 c1 102 0 194 -2 205 -6 25 -148 114 -236 148 -144 56 -385
80 -545 53z"/>
<path d="M7550 6564 c-254 -39 -427 -119 -560 -260 -70 -74 -90 -102 -135
-193 -148 -295 -113 -718 79 -966 154 -198 389 -306 697 -322 344 -18 647 100
813 316 195 253 232 664 87 966 -120 250 -334 400 -642 450 -84 13 -274 18
-339 9z m230 -405 c139 -22 255 -104 312 -221 37 -76 50 -137 50 -245 0 -140
-36 -244 -113 -328 -87 -94 -196 -139 -339 -138 -269 0 -450 189 -450 467 0
240 130 415 343 461 77 17 115 18 197 4z"/>
<path d="M4180 6345 l0 -185 100 0 100 0 0 -465 0 -465 -100 0 -100 0 0 -185
0 -185 435 0 435 0 0 185 0 185 -100 0 -100 0 0 465 0 465 100 0 100 0 0 185
0 185 -435 0 -435 0 0 -185z"/>
<path d="M6705 5014 c-20 -31 -57 -76 -81 -99 -24 -24 -44 -46 -44 -49 0 -3
97 -6 215 -6 l215 0 -107 105 c-131 129 -143 131 -198 49z"/>
<path d="M4999 4260 c-25 -4 -60 -15 -77 -24 -42 -22 -102 -75 -102 -91 0 -7
27 -27 61 -45 l61 -32 21 20 c72 68 178 40 163 -42 -6 -29 -33 -60 -146 -168
l-140 -133 0 -52 0 -53 240 0 240 0 0 70 0 70 -116 0 -115 0 85 80 c97 93 126
143 126 219 0 79 -37 134 -110 165 -46 19 -134 26 -191 16z"/>
<path d="M5599 4257 c-63 -14 -130 -54 -155 -92 -9 -14 -15 -27 -13 -29 2 -2
30 -18 62 -36 l58 -33 23 22 c33 31 84 43 123 30 36 -12 50 -41 39 -85 -6 -24
-175 -196 -248 -254 -25 -19 -28 -28 -28 -81 l0 -59 235 0 235 0 0 70 0 70
-112 0 -111 0 95 98 c87 90 97 104 108 155 11 49 11 62 -4 100 -40 105 -165
155 -307 124z"/>
<path d="M6280 4259 c-150 -30 -239 -210 -199 -401 33 -153 139 -237 285 -225
105 8 178 63 221 167 28 70 26 238 -5 306 -54 119 -172 179 -302 153z m126
-177 c41 -60 43 -206 3 -271 -36 -59 -107 -50 -141 19 -13 25 -18 59 -18 118
0 128 28 175 100 169 26 -1 39 -10 56 -35z"/>
<path d="M6973 4260 c-125 -25 -200 -126 -210 -281 -14 -198 84 -335 247 -347
118 -9 199 38 252 145 30 62 33 75 33 163 0 113 -19 178 -70 238 -59 68 -158
100 -252 82z m110 -158 c28 -30 39 -75 38 -157 0 -89 -9 -123 -42 -154 -31
-29 -71 -27 -102 5 -32 32 -42 76 -41 170 1 69 11 101 42 137 20 23 84 23 105
-1z"/>
<path d="M7663 4260 c-81 -17 -140 -65 -184 -150 -31 -60 -38 -203 -15 -282
43 -149 184 -229 331 -188 195 55 259 371 111 548 -49 57 -156 89 -243 72z
m111 -165 c28 -30 36 -65 36 -159 0 -82 -20 -132 -62 -155 -36 -20 -76 -6
-100 35 -41 70 -32 232 14 282 30 31 82 30 112 -3z"/>
<path d="M3190 7607 c-23 -11 -120 -123 -120 -138 0 -13 109 -91 119 -85 5 4
30 34 55 67 56 74 59 106 15 143 -35 30 -36 30 -69 13z"/>
<path d="M9675 7274 c-72 -48 -134 -90 -139 -95 -13 -12 58 -116 97 -140 57
-36 152 -6 220 70 52 58 51 105 -3 189 -22 34 -41 62 -42 62 -2 0 -62 -39
-133 -86z"/>
<path d="M2303 5230 c-44 -26 -60 -63 -64 -145 l-4 -70 165 -6 c91 -4 168 -5
173 -2 13 8 7 132 -8 169 -19 47 -78 73 -165 74 -47 0 -74 -5 -97 -20z"/>
<path d="M10414 4855 c-3 -20 -4 -63 -2 -97 5 -70 21 -88 80 -88 52 0 66 24
70 130 l3 85 -72 3 -72 3 -7 -36z"/>
<path d="M2950 2813 c-28 -10 -60 -46 -60 -68 0 -24 86 -165 101 -165 10 0
119 70 119 77 0 12 -83 124 -106 142 -28 22 -30 23 -54 14z"/>
<path d="M9428 2633 c-46 -62 -58 -86 -58 -118 0 -39 24 -78 76 -124 93 -82
167 -75 245 23 22 27 38 53 37 57 -3 7 -255 209 -261 209 -2 0 -19 -21 -39
-47z"/>
<path d="M4969 1374 c-56 -35 -105 -147 -94 -215 4 -21 18 -48 34 -63 29 -28
142 -79 152 -68 6 7 106 276 111 301 2 9 -20 22 -62 37 -77 27 -106 29 -141 8z"/>
<path d="M7487 1100 c-84 -27 -107 -44 -107 -83 0 -46 25 -77 61 -77 46 0 160
31 166 46 2 7 -3 40 -13 73 -19 69 -20 69 -107 41z"/>
</g>
</svg>
