<?xml version="1.0" encoding="utf-8"?>
<!-- Generator: Adobe Illustrator 26.0.3, SVG Export Plug-In . SVG Version: 6.00 Build 0)  -->
<svg version="1.1" id="Ñëîé_1" xmlns="http://www.w3.org/2000/svg" xmlns:xlink="http://www.w3.org/1999/xlink" x="0px" y="0px"
	 viewBox="0 0 500 500" style="enable-background:new 0 0 500 500;" xml:space="preserve">
<style type="text/css">
	.st0{fill:#FFFFFF;}
</style>
<rect class="st0" width="500" height="500"/>
<g>
	<g>
		<ellipse transform="matrix(0.7071 -0.7071 0.7071 0.7071 -103.5534 250)" cx="250" cy="250" rx="225" ry="225"/>
		<circle class="st0" cx="250" cy="250" r="161.3"/>
		<g>
			<path class="st0" d="M279.1,61.5c-0.5,2.8-1.7,5-3.7,6.6c-2,1.5-4.4,2.2-7.3,1.9c-3.3-0.3-5.8-1.7-7.6-4.1
				c-1.8-2.4-2.5-5.5-2.1-9.2c0.2-2.2,0.8-4.2,1.9-6c1-1.7,2.4-3.1,4.3-4.1c1.8-1,3.9-1.3,6.2-1.1c2.5,0.2,4.6,1.1,6.3,2.7
				s2.6,3.6,2.7,6.2l-4.1-0.4c-0.1-1.4-0.7-2.6-1.7-3.5c-1-0.9-2.2-1.4-3.7-1.6c-1.6-0.1-2.9,0.2-4.1,0.9c-1.2,0.8-2,1.8-2.6,3
				c-0.6,1.2-0.9,2.6-1.1,4.1c-0.1,1.1-0.1,2.2,0.1,3.3c0.2,1,0.5,2,0.9,2.9c0.4,0.9,1.1,1.6,2,2.2c0.9,0.6,1.9,0.9,3.1,1.1
				c3.5,0.3,5.7-1.5,6.5-5.4L279.1,61.5z"/>
			<path class="st0" d="M305.4,52.4l-0.8,3.4l-12.5-2.9l-1.4,6.1l11.6,2.7l-0.8,3.2l-11.6-2.7l-1.6,6.7l12.7,3l-0.8,3.4l-16.7-3.9
				l5.3-22.8L305.4,52.4z"/>
			<path class="st0" d="M313.7,54.9l10.4,3.9c2.2,0.8,3.8,2,4.8,3.5c1,1.5,1.1,3.3,0.3,5.4c-0.5,1.3-1.2,2.3-2.2,3
				c-1,0.7-2.1,1-3.4,1c0.5,0.3,0.9,0.7,1.2,1.1c0.3,0.4,0.5,0.8,0.6,1.1c0.1,0.4,0.1,0.8,0.1,1.3c0,0.5-0.1,0.9-0.2,1.3
				c-0.1,0.4-0.2,0.8-0.4,1.4c0,0.2-0.1,0.4-0.2,0.9c-0.1,0.4-0.2,0.7-0.2,0.8c0,0.1-0.1,0.4-0.2,0.7c-0.1,0.3-0.2,0.6-0.2,0.7
				c0,0.1-0.1,0.4-0.1,0.6c0,0.3-0.1,0.5-0.1,0.6c0,0.1,0,0.3,0,0.5c0,0.2,0,0.4,0,0.5c0,0.2,0.1,0.3,0.1,0.4l-4.1-1.6
				c0-0.1-0.1-0.2-0.1-0.4c0-0.1,0-0.3,0-0.4c0-0.1,0-0.3,0-0.4c0-0.1,0.1-0.3,0.1-0.5c0-0.2,0.1-0.4,0.1-0.5c0-0.1,0.1-0.3,0.2-0.6
				c0.1-0.3,0.1-0.4,0.2-0.6c0-0.1,0.1-0.3,0.2-0.7c0.1-0.3,0.2-0.5,0.2-0.7c0.6-1.8,0.7-3.2,0.3-4.1c-0.4-0.9-1.5-1.7-3.3-2.4
				l-5.1-1.9l-3.4,9.1l-3.8-1.4L313.7,54.9z M316.4,59.5l-2.6,6.9l5.1,1.9c0.7,0.3,1.4,0.5,1.9,0.6c0.5,0.1,1.1,0.2,1.7,0.1
				c0.6,0,1.1-0.2,1.6-0.6c0.5-0.4,0.8-1,1.1-1.7c0.3-0.7,0.4-1.3,0.3-1.9c-0.1-0.6-0.3-1-0.7-1.4c-0.4-0.4-0.8-0.7-1.2-1
				c-0.5-0.3-1-0.5-1.7-0.8L316.4,59.5z"/>
			<path class="st0" d="M354.6,73.5l-1.7,3.1l-6.6-3.5L337,90.7l-3.6-1.9l9.3-17.6l-6.6-3.5l1.7-3.1L354.6,73.5z"/>
			<path class="st0" d="M363.8,79.5L351,99.2l-3.5-2.3l12.8-19.6L363.8,79.5z"/>
			<path class="st0" d="M384.1,94.8l-2.2,2.7l-9.5-7.5l-4,5l8.3,6.6l-2.1,2.6l-8.3-6.6l-6.4,8l-3.3-2.6l14.6-18.4L384.1,94.8z"/>
			<path class="st0" d="M392.5,102.7l-16.1,17l-3-2.9l16.1-17L392.5,102.7z"/>
			<path class="st0" d="M410.2,121.9l-2.6,2.3l-8.4-9.6l-4.7,4.1l7.8,9l-2.5,2.2l-7.8-9l-5.2,4.6l8.6,9.8l-2.7,2.3l-11.3-12.9
				l17.7-15.4L410.2,121.9z"/>
			<path class="st0" d="M415.6,128.8l4.9,7.4c0.9,1.4,1.5,2.6,1.9,3.9c0.4,1.2,0.5,2.5,0.3,3.9c-0.4,3.1-2.3,5.7-5.5,7.8
				c-3.5,2.3-6.7,3.1-9.8,2.5c-1.3-0.3-2.5-0.8-3.4-1.5c-0.9-0.7-1.9-1.9-3-3.4l-5.1-7.6L415.6,128.8z M414.9,134.2l-13.7,9.1l2.7,4
				c1.4,2.1,3,3.2,4.9,3.3c1.8,0.1,3.8-0.7,6.1-2.1c2.1-1.4,3.4-3,3.9-4.8c0.5-1.8,0.1-3.7-1.3-5.8L414.9,134.2z"/>
			<path class="st0" d="M430,168.9c1.5,0.6,2.6,1.7,3.2,3.1c0.6,1.5,0.7,3,0.1,4.5c-0.6,1.5-1.7,2.6-3.1,3.2c-1.5,0.6-3,0.7-4.5,0.1
				c-1.5-0.6-2.6-1.7-3.2-3.1c-0.6-1.5-0.7-3-0.1-4.5c0.6-1.5,1.7-2.6,3.1-3.2C427,168.3,428.5,168.3,430,168.9z"/>
			<path class="st0" d="M438.2,219.1c-2.9,0.4-5.3-0.1-7.4-1.5c-2.1-1.4-3.4-3.6-4.1-6.4c-0.7-3.2-0.2-6.1,1.6-8.5
				c1.8-2.4,4.4-4.1,8.1-4.9c2.2-0.5,4.3-0.5,6.2-0.1c2,0.4,3.7,1.4,5.2,2.8c1.5,1.4,2.5,3.3,3,5.5c0.5,2.4,0.3,4.7-0.6,6.8
				c-0.9,2.1-2.6,3.6-5.1,4.5l-0.9-4c1.3-0.6,2.2-1.5,2.8-2.6c0.6-1.2,0.7-2.5,0.3-4c-0.3-1.5-1.1-2.7-2.1-3.6
				c-1.1-0.9-2.3-1.4-3.7-1.6c-1.4-0.2-2.8-0.1-4.2,0.2c-1.1,0.2-2.1,0.6-3.1,1.1c-0.9,0.5-1.8,1.1-2.5,1.8
				c-0.7,0.7-1.2,1.5-1.5,2.5c-0.3,1-0.3,2.1-0.1,3.3c0.8,3.4,3.1,4.9,7.2,4.6L438.2,219.1z"/>
			<path class="st0" d="M455,241.3l-3.4,0.3l-1.1-12.8l-6.2,0.5l1,11.9l-3.3,0.3l-1-11.9l-6.9,0.6l1.1,13l-3.5,0.3l-1.5-17l23.4-2
				L455,241.3z"/>
			<path class="st0" d="M455.1,250l-0.5,11.1c-0.1,2.3-0.7,4.2-1.8,5.6c-1.1,1.4-2.8,2.1-5.1,2c-1.4-0.1-2.6-0.5-3.6-1.2
				c-1-0.7-1.6-1.7-2-3c-0.2,0.6-0.4,1-0.7,1.5c-0.3,0.4-0.6,0.7-0.9,0.9c-0.3,0.2-0.7,0.4-1.2,0.5c-0.5,0.1-0.9,0.2-1.3,0.3
				c-0.4,0-0.8,0.1-1.4,0.1c-0.2,0-0.5,0-0.9,0c-0.4,0-0.7,0-0.9,0c-0.1,0-0.4,0-0.7,0c-0.4,0-0.6,0-0.7,0c-0.1,0-0.4,0-0.6,0.1
				c-0.3,0-0.5,0.1-0.6,0.1c-0.1,0-0.3,0.1-0.5,0.1c-0.2,0.1-0.4,0.1-0.5,0.2c-0.1,0.1-0.3,0.2-0.4,0.3l0.2-4.4
				c0.1-0.1,0.2-0.1,0.3-0.2c0.1,0,0.3-0.1,0.4-0.1c0.1,0,0.3-0.1,0.4-0.1c0.1,0,0.3,0,0.5-0.1c0.2,0,0.4,0,0.5,0c0.1,0,0.3,0,0.6,0
				c0.3,0,0.5,0,0.6,0c0.1,0,0.4,0,0.7,0c0.3,0,0.6,0,0.7,0c1.9,0,3.2-0.4,4-1c0.7-0.7,1.2-2,1.2-3.9l0.2-5.5l-9.7-0.4l0.2-4.1
				L455.1,250z M451.6,254l-7.3-0.3l-0.2,5.4c0,0.8,0,1.5,0,2c0.1,0.6,0.2,1.1,0.4,1.7c0.2,0.6,0.6,1,1.1,1.3c0.5,0.3,1.2,0.5,2,0.5
				c0.7,0,1.4-0.1,1.9-0.3c0.5-0.2,0.9-0.6,1.2-1.1c0.3-0.5,0.4-1,0.6-1.5c0.1-0.5,0.2-1.1,0.2-1.8L451.6,254z"/>
			<path class="st0" d="M450.3,294.6l-3.5-0.6l1.3-7.4l-19.6-3.4l0.7-4.1l19.6,3.4l1.3-7.4l3.5,0.6L450.3,294.6z"/>
			<path class="st0" d="M447.4,305.2l-22.7-6.1l1.1-4l22.7,6.1L447.4,305.2z"/>
			<path class="st0" d="M439.3,329.3l-3.3-1.2l4.2-11.3l-6-2.2l-3.7,10l-3.1-1.2l3.7-10l-9.6-3.5l1.4-3.9l22,8.1L439.3,329.3z"/>
			<path class="st0" d="M434.3,339.8l-21.2-10.1l1.8-3.7l21.2,10.1L434.3,339.8z"/>
			<path class="st0" d="M421.6,362.5l-3-1.8l6.6-11l-5.3-3.2l-6.1,10.2l-2.9-1.7l6.1-10.2l-5.9-3.5l-6.7,11.2l-3-1.8l8.8-14.7
				l20.1,12L421.6,362.5z"/>
			<path class="st0" d="M416.6,369.8l-5.5,7c-1,1.3-2,2.3-3.1,3c-1,0.8-2.2,1.2-3.6,1.5c-3.1,0.5-6.1-0.4-9.1-2.8
				c-3.3-2.6-5.1-5.4-5.4-8.5c-0.2-1.4,0-2.6,0.4-3.7c0.4-1.1,1.2-2.4,2.3-3.9l5.7-7.2L416.6,369.8z M411.3,370.8l-12.9-10.2l-3,3.8
				c-1.6,2-2.1,3.9-1.6,5.7c0.5,1.8,1.8,3.5,3.9,5.1c2,1.6,3.9,2.3,5.7,2.3c1.8-0.1,3.5-1,5.1-3L411.3,370.8z"/>
			<path class="st0" d="M383,395.9c-0.1,1.6-0.8,3-2,4c-1.2,1.1-2.6,1.6-4.3,1.4c-1.6-0.1-3-0.8-4-2c-1.1-1.2-1.6-2.6-1.4-4.3
				c0.1-1.6,0.8-3,2-4c1.2-1.1,2.6-1.6,4.3-1.4c1.6,0.1,3,0.8,4,2C382.6,392.9,383.1,394.3,383,395.9z"/>
			<path class="st0" d="M337.8,419.3c-1.3-2.6-1.6-5.1-0.9-7.5c0.7-2.4,2.3-4.4,4.8-5.9c2.9-1.7,5.7-2.1,8.6-1.2
				c2.9,0.9,5.2,3,7.1,6.2c1.1,1.9,1.8,3.9,2,5.9c0.2,2-0.2,3.9-1,5.8c-0.9,1.8-2.3,3.4-4.3,4.5c-2.1,1.3-4.3,1.8-6.6,1.5
				c-2.3-0.2-4.3-1.4-5.9-3.4l3.5-2.1c1,1.1,2.1,1.7,3.4,1.8c1.3,0.2,2.6-0.1,3.9-0.9c1.3-0.8,2.3-1.8,2.7-3.2
				c0.5-1.3,0.6-2.6,0.3-4c-0.3-1.3-0.8-2.7-1.6-4c-0.6-1-1.2-1.8-2-2.6c-0.7-0.7-1.6-1.3-2.4-1.8c-0.9-0.5-1.8-0.7-2.9-0.6
				c-1,0-2.1,0.4-3.1,1c-3,1.8-3.7,4.5-2.1,8.2L337.8,419.3z"/>
			<path class="st0" d="M321.9,442.2l-1.4-3.2l11.8-5l-2.4-5.7l-10.9,4.7l-1.3-3.1l10.9-4.7l-2.7-6.4l-12,5.1l-1.4-3.2l15.7-6.7
				l9.2,21.6L321.9,442.2z"/>
			<path class="st0" d="M313.7,445.1l-10.7,3c-2.2,0.6-4.2,0.6-5.9,0c-1.7-0.6-2.8-2-3.5-4.2c-0.4-1.4-0.4-2.6,0-3.7
				c0.4-1.1,1.1-2.1,2.2-2.8c-0.6,0-1.1,0-1.6-0.2c-0.5-0.1-0.9-0.3-1.2-0.6c-0.3-0.2-0.6-0.6-0.9-1s-0.5-0.8-0.6-1.1
				c-0.1-0.3-0.3-0.8-0.5-1.3c-0.1-0.1-0.2-0.4-0.3-0.8c-0.1-0.4-0.2-0.7-0.3-0.8c0-0.1-0.1-0.4-0.3-0.7c-0.1-0.3-0.2-0.6-0.3-0.7
				c-0.1-0.1-0.2-0.3-0.3-0.6c-0.1-0.2-0.2-0.4-0.3-0.6c-0.1-0.1-0.2-0.3-0.3-0.4c-0.1-0.2-0.2-0.3-0.3-0.4
				c-0.1-0.1-0.2-0.2-0.4-0.3l4.3-1.2c0.1,0.1,0.2,0.2,0.3,0.3c0.1,0.1,0.2,0.2,0.2,0.3c0.1,0.1,0.1,0.2,0.2,0.4
				c0.1,0.1,0.1,0.3,0.2,0.5c0.1,0.2,0.2,0.4,0.2,0.5c0,0.1,0.1,0.3,0.2,0.6c0.1,0.2,0.2,0.4,0.2,0.6c0,0.1,0.1,0.3,0.2,0.7
				c0.1,0.3,0.2,0.5,0.2,0.7c0.6,1.8,1.4,3,2.2,3.5c0.9,0.5,2.2,0.5,4.1,0l5.3-1.5l-2.6-9.3l3.9-1.1L313.7,445.1z M308.8,442.9
				l-2-7.1l-5.2,1.5c-0.8,0.2-1.4,0.4-1.9,0.7c-0.5,0.2-1,0.5-1.5,0.9c-0.5,0.4-0.8,0.9-0.9,1.4c-0.1,0.6-0.1,1.3,0.1,2.1
				c0.2,0.7,0.5,1.3,0.9,1.7c0.4,0.4,0.8,0.7,1.4,0.8s1.1,0.1,1.6,0.1c0.5-0.1,1.1-0.2,1.8-0.4L308.8,442.9z"/>
			<path class="st0" d="M269.8,454.2l-0.5-3.5l7.4-1.1l-2.8-19.7l4.1-0.6l2.8,19.7l7.4-1.1l0.5,3.5L269.8,454.2z"/>
			<path class="st0" d="M258.8,454.8l-1.2-23.4l4.1-0.2l1.2,23.4L258.8,454.8z"/>
			<path class="st0" d="M233.4,454.5l0.1-3.5l12.1,0.4l0.2-6.4l-10.6-0.4l0.1-3.3l10.6,0.4l0.4-10.2l4.1,0.2l-0.9,23.4L233.4,454.5z
				"/>
			<path class="st0" d="M221.9,453l3-23.3l4.1,0.5l-3,23.3L221.9,453z"/>
			<path class="st0" d="M196.4,448l0.8-3.4l12.5,2.8l1.4-6.1l-11.6-2.6l0.7-3.2l11.6,2.6l1.5-6.8l-12.7-2.8l0.8-3.4l16.7,3.7
				l-5.1,22.9L196.4,448z"/>
			<path class="st0" d="M187.9,445.6l-8.4-3.1c-1.5-0.6-2.8-1.2-3.8-2c-1-0.7-1.9-1.7-2.5-3c-1.4-2.7-1.5-5.9-0.2-9.6
				c1.4-3.9,3.6-6.5,6.4-7.8c1.2-0.6,2.5-0.8,3.7-0.8c1.2,0,2.7,0.4,4.4,1l8.6,3.2L187.9,445.6z M185.2,440.9l5.7-15.5l-4.5-1.7
				c-2.4-0.9-4.4-0.8-5.9,0.2c-1.5,1-2.7,2.8-3.6,5.3c-0.9,2.4-1,4.4-0.4,6.2c0.6,1.7,2.1,3,4.4,3.9L185.2,440.9z"/>
			<path class="st0" d="M152.6,421.7c-1.6,0.4-3,0.2-4.4-0.7c-1.4-0.8-2.3-2-2.7-3.6c-0.4-1.6-0.2-3,0.7-4.4c0.8-1.4,2-2.3,3.6-2.7
				c1.6-0.4,3-0.2,4.4,0.7c1.4,0.8,2.3,2,2.7,3.6c0.4,1.6,0.2,3-0.7,4.4C155.3,420.4,154.1,421.3,152.6,421.7z"/>
			<path class="st0" d="M116.3,386c2.1-2,4.4-3.1,6.9-3.2c2.5-0.1,4.9,0.8,7.1,2.8c2.5,2.2,3.7,4.8,3.8,7.8c0,3-1.2,5.9-3.6,8.7
				c-1.5,1.7-3.1,2.9-5,3.7c-1.9,0.8-3.8,1.1-5.8,0.8c-2-0.3-3.9-1.2-5.6-2.7c-1.9-1.6-3-3.6-3.5-5.8c-0.5-2.2,0-4.5,1.4-6.7
				l3.1,2.7c-0.7,1.2-0.9,2.5-0.7,3.8c0.2,1.3,0.9,2.4,2.1,3.4c1.2,1,2.5,1.6,3.9,1.6c1.4,0.1,2.7-0.2,3.9-0.9
				c1.2-0.7,2.3-1.6,3.3-2.7c0.8-0.9,1.4-1.8,1.8-2.7c0.5-0.9,0.8-1.9,0.9-2.9c0.2-1,0.1-2-0.3-2.9c-0.4-1-1-1.9-1.9-2.7
				c-2.6-2.3-5.4-2.1-8.5,0.5L116.3,386z"/>
			<path class="st0" d="M89.7,378l2.6-2.3l8.4,9.7l4.7-4.1l-7.8-9l2.5-2.2l7.8,9l5.2-4.6l-8.6-9.8l2.7-2.3l11.2,12.9l-17.7,15.4
				L89.7,378z"/>
			<path class="st0" d="M84.4,371.1l-6.2-9.2c-1.3-1.9-1.9-3.8-1.9-5.6c0.1-1.8,1-3.3,2.9-4.6c1.2-0.8,2.4-1.2,3.6-1.1
				c1.2,0,2.3,0.4,3.4,1.2c-0.2-0.5-0.3-1.1-0.3-1.6c0-0.5,0-0.9,0.2-1.3c0.1-0.4,0.4-0.7,0.7-1.1c0.3-0.4,0.6-0.7,0.9-1
				c0.3-0.2,0.6-0.6,1.1-0.9c0.1-0.1,0.3-0.3,0.7-0.6s0.6-0.4,0.7-0.5c0.1-0.1,0.3-0.2,0.6-0.5c0.3-0.2,0.5-0.4,0.6-0.5
				c0.1-0.1,0.3-0.2,0.5-0.4c0.2-0.2,0.3-0.4,0.4-0.5c0.1-0.1,0.2-0.3,0.3-0.4c0.1-0.2,0.2-0.3,0.3-0.5c0.1-0.1,0.1-0.3,0.1-0.4
				l2.4,3.7c0,0.1-0.1,0.2-0.2,0.3c-0.1,0.1-0.2,0.2-0.2,0.3c-0.1,0.1-0.2,0.2-0.3,0.3c-0.1,0.1-0.2,0.2-0.4,0.3
				c-0.2,0.1-0.3,0.3-0.4,0.3c-0.1,0.1-0.3,0.2-0.5,0.4c-0.2,0.2-0.4,0.3-0.5,0.4c-0.1,0.1-0.3,0.2-0.5,0.4
				c-0.3,0.2-0.4,0.3-0.6,0.4c-1.5,1.2-2.4,2.2-2.6,3.2c-0.2,1,0.2,2.3,1.3,3.9l3,4.6l8.1-5.4l2.3,3.4L84.4,371.1z M84.9,365.8
				l6.1-4.1l-3-4.5c-0.4-0.7-0.8-1.2-1.2-1.6c-0.4-0.4-0.8-0.8-1.3-1.1c-0.5-0.3-1.1-0.5-1.7-0.4c-0.6,0-1.2,0.3-1.9,0.7
				c-0.6,0.4-1.1,0.9-1.3,1.4c-0.3,0.5-0.4,1-0.3,1.6c0.1,0.5,0.2,1.1,0.4,1.5c0.2,0.5,0.5,1,0.9,1.6L84.9,365.8z"/>
			<path class="st0" d="M62,332.3l3.2-1.6l3.3,6.7l17.8-8.8l1.8,3.7l-17.8,8.8l3.3,6.7l-3.2,1.6L62,332.3z"/>
			<path class="st0" d="M58,321.9l21.9-8.5l1.5,3.9l-21.9,8.5L58,321.9z"/>
			<path class="st0" d="M50.4,297.7l3.4-1l3.3,11.6l6.1-1.8l-2.9-10.2l3.2-0.9l2.9,10.2l9.9-2.8l1.1,4l-22.6,6.4L50.4,297.7z"/>
			<path class="st0" d="M48.3,286.3l23-4.4l0.8,4.1l-23,4.4L48.3,286.3z"/>
			<path class="st0" d="M45.1,260.5l3.4-0.3l1.2,12.8l6.2-0.6l-1.1-11.8l3.3-0.3l1.1,11.8l6.9-0.6l-1.2-13l3.5-0.3l1.6,17l-23.4,2.2
				L45.1,260.5z"/>
			<path class="st0" d="M44.9,251.7l0.3-8.9c0.1-1.6,0.3-3,0.7-4.3c0.4-1.2,1.1-2.3,2-3.3c2.1-2.2,5.2-3.3,9.1-3.1
				c4.1,0.2,7.3,1.4,9.4,3.6c0.9,1,1.6,2.1,1.9,3.2c0.3,1.1,0.5,2.6,0.4,4.5l-0.3,9.2L44.9,251.7z M48.5,247.7l16.5,0.6l0.2-4.8
				c0.1-2.6-0.6-4.4-2-5.5c-1.5-1.1-3.5-1.7-6.2-1.8c-2.5-0.1-4.5,0.4-6,1.6c-1.5,1.1-2.2,2.9-2.3,5.4L48.5,247.7z"/>
			<path class="st0" d="M56.5,210.7c-0.9-1.4-1.1-2.8-0.8-4.4c0.4-1.6,1.2-2.8,2.6-3.7c1.4-0.9,2.8-1.1,4.4-0.8
				c1.6,0.4,2.8,1.2,3.7,2.6c0.9,1.4,1.1,2.8,0.8,4.4c-0.4,1.6-1.2,2.8-2.6,3.7c-1.4,0.9-2.8,1.1-4.4,0.8
				C58.6,213,57.4,212.1,56.5,210.7z"/>
			<path class="st0" d="M79.2,165.1c2.6,1.3,4.3,3.2,5.1,5.6c0.9,2.4,0.7,4.9-0.4,7.6c-1.3,3-3.4,5-6.2,6c-2.8,1-6,0.7-9.4-0.8
				c-2.1-0.9-3.8-2.1-5.1-3.6c-1.3-1.5-2.2-3.3-2.6-5.3c-0.4-2-0.1-4.1,0.8-6.2c1-2.3,2.5-4,4.5-5.2c2-1.2,4.2-1.4,6.8-0.7l-1.6,3.8
				c-1.4-0.3-2.7-0.1-3.8,0.5c-1.1,0.6-2,1.6-2.6,3c-0.6,1.4-0.7,2.8-0.4,4.2c0.4,1.3,1.1,2.5,2.1,3.4c1,0.9,2.2,1.7,3.6,2.3
				c1,0.4,2.1,0.8,3.1,0.9c1,0.2,2,0.2,3,0c1-0.2,1.9-0.5,2.7-1.2c0.8-0.6,1.5-1.5,2-2.6c1.4-3.2,0.3-5.8-3.1-7.9L79.2,165.1z"/>
			<path class="st0" d="M78.5,137.3l3,1.8l-6.6,11l5.3,3.2l6.1-10.2l2.9,1.7L83.1,155l5.9,3.5l6.7-11.2l3,1.8L90,163.9l-20.1-12
				L78.5,137.3z"/>
			<path class="st0" d="M83.5,130.2l6.9-8.7c1.4-1.8,3-3,4.8-3.5c1.7-0.5,3.5-0.1,5.3,1.3c1.1,0.9,1.8,1.9,2.2,3
				c0.4,1.2,0.3,2.4-0.1,3.6c0.5-0.4,0.9-0.6,1.4-0.8c0.5-0.2,0.9-0.2,1.3-0.2c0.4,0,0.8,0.1,1.3,0.3c0.5,0.2,0.9,0.4,1.2,0.5
				c0.3,0.2,0.7,0.4,1.2,0.8c0.1,0.1,0.4,0.2,0.7,0.5c0.4,0.2,0.6,0.4,0.7,0.5c0.1,0.1,0.3,0.2,0.6,0.4c0.3,0.2,0.5,0.3,0.6,0.4
				c0.1,0.1,0.3,0.2,0.6,0.3c0.2,0.1,0.4,0.2,0.6,0.3c0.1,0.1,0.3,0.1,0.5,0.2c0.2,0.1,0.4,0.1,0.5,0.1c0.2,0,0.3,0,0.5,0l-2.7,3.5
				c-0.1,0-0.2,0-0.4-0.1c-0.1,0-0.3-0.1-0.4-0.1c-0.1-0.1-0.3-0.1-0.4-0.2c-0.1-0.1-0.3-0.1-0.4-0.2c-0.2-0.1-0.3-0.2-0.4-0.3
				c-0.1-0.1-0.3-0.2-0.5-0.3c-0.2-0.1-0.4-0.3-0.5-0.3c-0.1-0.1-0.3-0.2-0.6-0.4c-0.3-0.2-0.5-0.3-0.6-0.4
				c-1.6-1.1-2.8-1.6-3.8-1.5c-1,0.1-2.1,0.9-3.3,2.4l-3.4,4.3l7.6,6l-2.5,3.2L83.5,130.2z M88.7,129l5.8,4.6l3.4-4.3
				c0.5-0.6,0.9-1.2,1.1-1.7c0.3-0.5,0.5-1,0.7-1.6c0.2-0.6,0.1-1.2-0.1-1.7c-0.2-0.6-0.7-1.1-1.3-1.6c-0.6-0.5-1.2-0.7-1.7-0.8
				c-0.6-0.1-1.1,0-1.6,0.2c-0.5,0.2-0.9,0.5-1.3,0.9c-0.4,0.4-0.8,0.8-1.2,1.4L88.7,129z"/>
			<path class="st0" d="M113.5,96.8l2.5,2.5l-5.3,5.2l13.9,14.2l-2.9,2.9l-13.9-14.2l-5.3,5.2l-2.5-2.5L113.5,96.8z"/>
			<path class="st0" d="M122,89.9l14.8,18.2l-3.2,2.6l-14.8-18.2L122,89.9z"/>
			<path class="st0" d="M142.7,75.2l2,2.9l-10,6.8l3.6,5.3l8.8-5.9l1.9,2.8l-8.8,5.9l5.7,8.5l-3.4,2.3l-13.2-19.4L142.7,75.2z"/>
			<path class="st0" d="M152.8,69.5L164.2,90l-3.6,2l-11.3-20.5L152.8,69.5z"/>
			<path class="st0" d="M176.4,58.5l1.4,3.2L166,66.8l2.5,5.7l10.9-4.8l1.3,3.1l-10.9,4.8l2.8,6.3l11.9-5.2l1.4,3.2l-15.7,6.8
				l-9.4-21.5L176.4,58.5z"/>
			<path class="st0" d="M184.7,55.5l8.6-2.4c1.6-0.4,3-0.7,4.3-0.7c1.3,0,2.5,0.3,3.8,0.9c2.8,1.4,4.7,3.9,5.8,7.6
				c1.1,4,1,7.3-0.6,10.1c-0.7,1.2-1.5,2.1-2.5,2.8c-1,0.7-2.4,1.3-4.1,1.8l-8.8,2.5L184.7,55.5z M189.6,57.7l4.5,15.9l4.7-1.3
				c2.5-0.7,4-1.9,4.6-3.6c0.6-1.7,0.5-3.9-0.2-6.4c-0.7-2.4-1.8-4.2-3.3-5.2c-1.5-1-3.5-1.2-5.9-0.5L189.6,57.7z"/>
			<path class="st0" d="M227.3,53.9c1-1.2,2.4-1.9,4-2.1c1.6-0.2,3,0.3,4.3,1.3c1.2,1,1.9,2.4,2.1,4c0.2,1.6-0.3,3-1.3,4.3
				c-1,1.2-2.4,1.9-4,2.1c-1.6,0.2-3-0.3-4.3-1.3c-1.2-1-1.9-2.4-2.1-4C225.8,56.6,226.2,55.1,227.3,53.9z"/>
		</g>
		<g>
			<path d="M365.2,149c-2.2-2.5-4.5-4.9-6.9-7.3c0,0,0,0,0,0c-27.7-27.8-66-45-108.3-45c-42.3,0-80.6,17.2-108.4,45c0,0,0,0,0,0
				c-2.4,2.4-4.6,4.8-6.8,7.3c-23.7,27-38.1,62.3-38.1,101c0,38.6,14.4,74,38.1,101c2.2,2.5,4.5,4.9,6.8,7.3h0
				c27.7,27.8,66.1,45,108.4,45c42.3,0,80.6-17.2,108.3-45c2.4-2.4,4.6-4.8,6.9-7.3c23.7-27,38-62.3,38-101S388.9,176,365.2,149z
				 M216.4,110.8c-13.7,12.1-25.1,31.5-33.1,55.7c-11.1-5-22.2-11.3-33.3-18.9C168.1,129.9,191,116.9,216.4,110.8z M150,352.4
				c11.1-7.5,22.2-13.8,33.3-18.8c8,24.2,19.4,43.6,33.1,55.7C191,383.1,168.1,370.1,150,352.4z M289.7,323.7H255h-10h-34.6h-30.1
				h-30.9V275h22.5H182h63h10h63h10.1h22.5v48.7h-30.9H289.7z M192.9,329.5c0.1,0,0.2-0.1,0.3-0.1H245v63.4
				C223.6,389.5,204.6,364.9,192.9,329.5z M255,392.8C255,392.8,255,392.8,255,392.8l0-63.4h51.8c0.1,0,0.2,0.1,0.3,0.1
				C295.4,364.9,276.4,389.5,255,392.8z M283.6,389.2c13.7-12.1,25.1-31.5,33.1-55.7c11.1,5,22.2,11.3,33.3,18.9
				C331.9,370.1,309.1,383.1,283.6,389.2z M357,345.1c-8.8-6-17.6-11.2-26.3-15.7h25.6v-60h-27.7c0.2-2.4,0.3-4.7,0.4-7.1
				c-3.2,0.8-6.6,1.4-10.1,1.7c-0.1,1.8-0.2,3.6-0.3,5.5H255v-12.2c-3,1.9-6.3,3.4-10,4.5v7.7h-63.4c-0.2-2.4-0.3-4.7-0.4-7.1h-10.1
				c0.1,2.4,0.2,4.8,0.4,7.1h-27.7v60h25.7c-8.8,4.5-17.6,9.7-26.4,15.7c-21.5-24.2-35-55.6-36.2-90.1h28.7v-10h-28.7
				c0.6-17.3,4.3-33.8,10.5-49c6.2-15.2,14.9-29.1,25.7-41.2c6.7,4.6,13.4,8.7,20,12.4H194c11.7-33.6,30.2-56.8,51-60v60.2
				c3.5,1,6.9,2.4,10,4.3v-64.5c0,0,0,0,0,0c20.4,3.2,38.7,25.7,50.4,58.5c2.3-0.2,4.6-0.4,7-0.4c1.3,0,2.6,0,3.9,0.1
				c-8-23.8-19.3-42.8-32.8-54.7c25.5,6.1,48.3,19.1,66.4,36.8c-10.5,7.1-21.1,13.2-31.5,18c5.6,0.5,10.7,1.6,15.4,3.3
				c7.7-4.1,15.4-8.8,23.1-14c21.5,24.2,35,55.6,36.1,90.1h-37.8c-2.8,3.9-6.3,7.2-10.3,10h48.1C391.9,289.5,378.5,321,357,345.1z"
				/>
			<path d="M269.6,245h-3.1c-1.9,3.8-4.7,7.2-8.4,10h21.8C275.9,252.2,272.4,248.9,269.6,245z"/>
			<polygon points="142.7,174.3 142.7,192.2 152.2,192.2 152.2,237.2 142.7,237.2 142.7,245 142.7,255 142.7,255.2 170.9,255.2 
				181,255.2 184.8,255.2 184.8,255 184.8,245 184.8,237.2 181.2,237.2 175.2,237.2 175.2,199.2 175.2,192.2 176.5,192.2 
				184.8,192.2 184.8,174.3 177,174.3 			"/>
			<path d="M262.6,231c0-0.2,0-0.4,0-0.5c0-3.4-0.7-6.4-1.7-8.9c0,0,0,0,0,0c-1.3-3.2-3.3-5.7-5.8-7.8c-2.8-2.4-6.3-4.1-10-5.4
				c-4.9-1.7-10.2-2.6-15.4-3.1c-8.1-0.8-13.6-2.3-13.6-7.7c0-5.4,6.9-6.8,11.2-6.8c3.7,0,7.2,0.4,10.3,1.3l0.4,9.4h7.2h10h2.5V191
				v-9.2c-0.1-0.1-0.3-0.2-0.4-0.3c-0.7-0.5-1.4-1-2-1.5c-3.3-2.3-6.6-3.9-10-5.2c-5.5-1.9-11.3-2.7-17.9-2.7
				c-6.1,0-12.7,1.2-18.4,3.7c-3.9,1.7-7.4,4-10.1,7c-3.4,3.8-5.6,8.7-5.6,14.7c0,20,16.8,24.6,33.2,26.1c8.9,0.9,13.6,3,13.6,6.9
				c0,4.6-5.2,7.3-12.8,7.3c-4.2,0-9-0.7-13.9-2.5l-0.3-9.4H193v19v1.2c0.6,0.5,1.2,1,1.9,1.5c0.3,0.2,0.6,0.5,0.9,0.7
				c0.6,0.5,1.3,0.9,1.9,1.3s1.3,0.8,1.9,1.2c3,1.8,6,3.1,9.2,4.1h0c1.2,0.4,2.4,0.7,3.6,1c0.1,0,0.3,0.1,0.4,0.1
				c0.6,0.1,1.1,0.2,1.7,0.3c0.1,0,0.3,0.1,0.4,0.1c0.6,0.1,1.2,0.2,1.8,0.3c0.8,0.1,1.7,0.2,2.5,0.3c0.6,0.1,1.3,0.1,1.9,0.1
				c0.1,0,0.2,0,0.3,0c0.7,0.1,1.4,0.1,2.1,0.1c0.8,0,1.6,0,2.5,0h0.8c5.6,0,11.1-0.8,16-2.4c6.3-2,11.7-5.3,15.3-10
				C261,241.2,262.6,236.6,262.6,231z"/>
			<path d="M357.3,214.7c0-22.5-12.9-37.1-32.8-41.1c-3.8-0.8-7.8-1.2-12-1.2c-16.3,0-29.5,6-37.3,16.8c-4.9,6.7-7.6,15.4-7.6,25.5
				c0,1.8,0.1,3.5,0.2,5.2c0.3,3.3,0.9,6.5,1.8,9.4c1.9,6.2,5.1,11.4,9.3,15.6c4.7,4.7,10.6,8,17.6,10c4.9,1.4,10.3,2.1,16,2.1
				c2.2,0,4.4-0.1,6.5-0.3c11.1-1.1,20.4-5.2,27-11.8C353.2,237.8,357.3,227.6,357.3,214.7z M328.6,231.2c-2.6,2.7-5.9,4.7-9.8,5.7
				c-1.9,0.5-4.1,0.8-6.3,0.8c-12.9,0-22.1-9.4-22.1-22.9c0-13.3,9-22.8,22.1-22.8c0.2,0,0.3,0,0.5,0c4.2,0.1,7.9,1,11,2.7
				c6.6,3.6,10.4,10.7,10.4,20C334.4,221.4,332.3,227.1,328.6,231.2z"/>
		</g>
	</g>
	<g>
		<path d="M216.1,287.7c2.5,2.5,3.7,6.1,3.7,10.8c0,3.4-0.7,6.3-2,8.7c-1.3,2.4-3.2,4.3-5.5,5.6c-2.4,1.3-5.1,1.9-8.3,1.9
			c-1.7,0-3.3-0.2-4.8-0.6c-1.5-0.4-2.8-0.9-3.9-1.6l3-6c1.4,1,3.3,1.5,5.5,1.5c2.1,0,3.8-0.6,5.1-1.8c1.3-1.2,2.1-2.9,2.3-5.1
			c-1.7,1.4-3.9,2.2-6.6,2.2c-1.9,0-3.6-0.4-5.1-1.2c-1.6-0.8-2.8-1.9-3.7-3.3c-0.9-1.4-1.4-3.1-1.4-4.9c0-2,0.5-3.8,1.5-5.3
			c1-1.5,2.4-2.7,4.2-3.6c1.8-0.8,3.7-1.2,5.9-1.2C210.2,283.9,213.6,285.2,216.1,287.7z M209.5,296.4c0.8-0.7,1.1-1.6,1.1-2.7
			c0-1.1-0.4-2-1.1-2.7c-0.7-0.7-1.8-1-3-1c-1.2,0-2.2,0.3-2.9,1c-0.7,0.7-1.1,1.6-1.1,2.7c0,1.1,0.4,2,1.1,2.7c0.7,0.7,1.7,1,2.9,1
			C207.8,297.4,208.8,297,209.5,296.4z"/>
		<path d="M233.1,312.9c-2-1.2-3.5-3-4.6-5.3c-1.1-2.3-1.7-5.1-1.7-8.3c0-3.2,0.6-5.9,1.7-8.3c1.1-2.3,2.7-4.1,4.6-5.3
			c2-1.2,4.2-1.8,6.8-1.8c2.5,0,4.8,0.6,6.7,1.8c2,1.2,3.5,3,4.6,5.3c1.1,2.3,1.7,5.1,1.7,8.3c0,3.2-0.6,5.9-1.7,8.3
			c-1.1,2.3-2.7,4.1-4.6,5.3c-2,1.2-4.2,1.8-6.7,1.8C237.4,314.7,235.1,314.1,233.1,312.9z M243.3,305.8c0.8-1.4,1.2-3.5,1.2-6.5
			c0-3-0.4-5.1-1.2-6.5c-0.8-1.4-2-2.1-3.4-2.1c-1.4,0-2.6,0.7-3.4,2.1c-0.8,1.4-1.2,3.5-1.2,6.5c0,3,0.4,5.1,1.2,6.5
			c0.8,1.4,2,2.1,3.4,2.1C241.3,307.9,242.4,307.2,243.3,305.8z"/>
		<path d="M266.4,312.9c-2-1.2-3.5-3-4.6-5.3c-1.1-2.3-1.7-5.1-1.7-8.3c0-3.2,0.6-5.9,1.7-8.3c1.1-2.3,2.7-4.1,4.6-5.3
			c2-1.2,4.2-1.8,6.8-1.8c2.5,0,4.8,0.6,6.7,1.8c2,1.2,3.5,3,4.6,5.3c1.1,2.3,1.7,5.1,1.7,8.3c0,3.2-0.6,5.9-1.7,8.3
			c-1.1,2.3-2.7,4.1-4.6,5.3c-2,1.2-4.2,1.8-6.7,1.8C270.6,314.7,268.3,314.1,266.4,312.9z M276.5,305.8c0.8-1.4,1.2-3.5,1.2-6.5
			c0-3-0.4-5.1-1.2-6.5c-0.8-1.4-2-2.1-3.4-2.1c-1.4,0-2.6,0.7-3.4,2.1c-0.8,1.4-1.2,3.5-1.2,6.5c0,3,0.4,5.1,1.2,6.5
			c0.8,1.4,2,2.1,3.4,2.1C274.5,307.9,275.7,307.2,276.5,305.8z"/>
		<path d="M305.6,284.5v29.6h-8.4V291h-5.5v-6.5H305.6z"/>
	</g>
</g>
</svg>
