<?xml version="1.0" encoding="utf-8"?>
<!-- Generator: Adobe Illustrator 26.0.3, SVG Export Plug-In . SVG Version: 6.00 Build 0)  -->
<svg version="1.1" id="_x2018_ëîé_x5F_1" xmlns="http://www.w3.org/2000/svg" xmlns:xlink="http://www.w3.org/1999/xlink"
	 x="0px" y="0px" viewBox="0 0 500 500" style="enable-background:new 0 0 500 500;" xml:space="preserve">
<style type="text/css">
	.st0{fill:#FFFFFF;}
	.st1{fill:url(#SVGID_1_);}
	.st2{fill:url(#SVGID_00000056410088814395283520000010697818477809533614_);}
	.st3{fill:url(#SVGID_00000093165582614995667260000013123640183763500935_);}
</style>
<rect class="st0" width="500" height="500"/>
<g>
	<g>
		<g>
			<g>
				<g>
					
						<linearGradient id="SVGID_1_" gradientUnits="userSpaceOnUse" x1="250" y1="477.8855" x2="250" y2="30.7536" gradientTransform="matrix(1 0 0 -1 0 499.937)">
						<stop  offset="0" style="stop-color:#00BEFF"/>
						<stop  offset="1" style="stop-color:#007DFF"/>
					</linearGradient>
					<circle class="st1" cx="250" cy="250" r="225"/>
					
						<linearGradient id="SVGID_00000011735174150668122050000005377787744211888796_" gradientUnits="userSpaceOnUse" x1="249.3275" y1="410.024" x2="250.6558" y2="93.8275" gradientTransform="matrix(1 0 0 -1 0 499.937)">
						<stop  offset="0" style="stop-color:#004AA2"/>
						<stop  offset="1" style="stop-color:#003979"/>
					</linearGradient>
					<circle style="fill:url(#SVGID_00000011735174150668122050000005377787744211888796_);" cx="250" cy="250" r="157.2"/>
					<g>
						
							<linearGradient id="SVGID_00000001654701756101034430000005557764631007431837_" gradientUnits="userSpaceOnUse" x1="250" y1="376.7173" x2="250" y2="126.3514" gradientTransform="matrix(1 0 0 -1 0 499.937)">
							<stop  offset="0" style="stop-color:#00BDFF"/>
							<stop  offset="1" style="stop-color:#0174E8"/>
						</linearGradient>
						<path style="fill:url(#SVGID_00000001654701756101034430000005557764631007431837_);" d="M250,371.9l-34.4-60h-71.1L180,250
							l-35.5-61.9h71.1l34.4-60l34.4,60h71.1L320,250l35.5,61.9h-71.1L250,371.9z M154,306.4h64.7l31.2,54.4l31.2-54.4H346
							L313.6,250l32.4-56.4h-64.7L250,139.2l-31.2,54.4H154l32.4,56.4L154,306.4z M250,344.2l-21.7-37.8h43.4L250,344.2z
							 M237.8,311.9l12.2,21.2l12.2-21.2H237.8z M331.7,298.1H286l22.8-39.8L331.7,298.1z M295.5,292.5h26.6l-13.3-23.2L295.5,292.5
							z M276.5,298.1h-53L195.9,250l27.6-48.1h53l27.6,48.1L276.5,298.1z M226.7,292.5h46.6l24.4-42.5l-24.4-42.5h-46.6L202.3,250
							L226.7,292.5z M214,298.1h-45.7l22.8-39.8L214,298.1z M177.9,292.5h26.6l-13.3-23.2L177.9,292.5z M308.8,241.7L286,201.9h45.7
							L308.8,241.7z M295.5,207.5l13.3,23.2l13.3-23.2H295.5z M191.2,241.7l-22.8-39.8H214L191.2,241.7z M177.9,207.5l13.3,23.2
							l13.3-23.2H177.9z M271.7,193.6h-43.4l21.7-37.8L271.7,193.6z M237.8,188.1h24.4L250,166.9L237.8,188.1z"/>
					</g>
				</g>
			</g>
			<g>
				<g>
					<circle class="st0" cx="440.6" cy="250" r="13.7"/>
				</g>
				<g>
					<circle class="st0" cx="59.4" cy="250" r="13.7"/>
				</g>
			</g>
		</g>
	</g>
	<g>
		<path class="st0" d="M140.5,90.8l1.9-22.2l11.6-7.4l-3.4,26.2l27.8,9l-12.1,7.8L144,96.3l10,15.6l-9.4,6l-23-36l9.4-6L140.5,90.8z
			"/>
		<path class="st0" d="M170,76.7c-1-3-1.3-6-1-9c0.3-3,1.1-5.7,2.5-8.3c1.4-2.6,3.2-4.9,5.7-6.8c2.4-2,5.3-3.5,8.6-4.5
			c3.3-1,6.5-1.5,9.6-1.2c3.1,0.2,6,1,8.6,2.3c2.6,1.3,4.9,3.1,6.9,5.4c1.9,2.3,3.4,4.9,4.4,7.9c1,3,1.3,6,1,9
			c-0.3,3-1.1,5.7-2.5,8.3c-1.4,2.6-3.3,4.9-5.7,6.8c-2.4,2-5.3,3.5-8.6,4.5c-3.3,1.1-6.5,1.5-9.6,1.2c-3.1-0.2-6-1-8.6-2.3
			c-2.6-1.3-4.9-3.1-6.8-5.4C172.4,82.3,170.9,79.7,170,76.7z M181.1,73.1c0.5,1.6,1.3,3,2.3,4.2c1,1.2,2.3,2.1,3.6,2.8
			c1.4,0.7,2.8,1.1,4.4,1.2c1.6,0.1,3.1-0.1,4.7-0.6c1.5-0.5,2.9-1.2,4.1-2.2c1.2-1,2.2-2.2,2.9-3.5c0.7-1.3,1.2-2.8,1.4-4.4
			c0.2-1.6,0-3.2-0.5-4.8c-0.5-1.6-1.3-3-2.3-4.2c-1-1.2-2.3-2.1-3.6-2.8c-1.4-0.7-2.9-1.1-4.4-1.2c-1.6-0.1-3.1,0.1-4.7,0.6
			c-1.5,0.5-2.9,1.2-4.1,2.2c-1.2,1-2.2,2.2-2.9,3.5c-0.7,1.3-1.2,2.8-1.4,4.4C180.4,69.9,180.5,71.5,181.1,73.1z"/>
		<path class="st0" d="M248.1,49.9c-1.3-0.9-2.5-1.6-3.7-2c-1.2-0.4-2.4-0.6-3.6-0.5c-1.4,0.1-2.6,0.5-3.5,1.2
			c-0.9,0.7-1.3,1.6-1.2,2.7c0,0.8,0.3,1.4,0.8,1.8c0.5,0.5,1.1,0.9,1.9,1.2c0.8,0.3,1.6,0.6,2.5,0.8c0.9,0.2,1.9,0.4,2.8,0.7
			c3.7,1,6.4,2.5,8.2,4.4c1.8,1.9,2.8,4.5,3,7.8c0.1,2.2-0.1,4.2-0.8,6c-0.6,1.8-1.6,3.4-3,4.7c-1.3,1.3-3,2.4-5,3.2
			c-2,0.8-4.3,1.3-6.9,1.4c-5.4,0.3-10.5-1-15.3-4l4.2-9.2c1.7,1.4,3.5,2.4,5.1,3c1.7,0.6,3.3,0.9,4.9,0.8c1.8-0.1,3.1-0.6,4-1.5
			c0.8-0.9,1.2-1.9,1.2-2.9c0-0.6-0.2-1.2-0.4-1.7c-0.3-0.5-0.7-0.9-1.2-1.2c-0.6-0.4-1.3-0.7-2.1-1c-0.9-0.3-1.9-0.6-3.2-1
			c-1.5-0.4-2.9-0.8-4.3-1.3c-1.4-0.5-2.7-1.1-3.8-2c-1.1-0.8-2.1-1.9-2.8-3.3c-0.7-1.3-1.2-3.1-1.3-5.2c-0.1-2.1,0.1-4,0.7-5.8
			c0.6-1.8,1.5-3.3,2.7-4.6c1.2-1.3,2.7-2.3,4.5-3.1c1.8-0.8,3.8-1.2,6.1-1.4c2.1-0.1,4.3,0,6.7,0.5c2.3,0.5,4.6,1.2,6.8,2.2
			L248.1,49.9z"/>
		<path class="st0" d="M276.5,57.4l15.8,2.8l2.9-16.2l10.9,2L298.6,88l-10.9-2l3.1-17.4l-15.8-2.8l-3.1,17.4l-10.9-2l7.5-42.1
			l10.9,2L276.5,57.4z"/>
		<path class="st0" d="M340.3,69.5l-12.2-5.2l-2.8,6.6l11.5,4.9l-3.7,8.7l-11.5-4.9l-2.9,6.8l12.2,5.2l-3.7,8.7l-22.4-9.5l16.7-39.4
			l22.4,9.5L340.3,69.5z"/>
		<path class="st0" d="M362,123.1l-11.4-7.9l0.6-19.6l-9.4,13.5l-9.1-6.3l24.3-35.2l14.2,9.8c2,1.4,3.5,2.8,4.5,4.4
			c1.1,1.6,1.7,3.2,2,4.9c0.3,1.7,0.2,3.3-0.2,4.9c-0.4,1.6-1.1,3.2-2.2,4.7c-1.9,2.7-4,4.4-6.4,5.2c-2.4,0.8-5.1,0.6-8.1-0.6
			L362,123.1z M355.4,89.7l1.7,1.2c1.8,1.2,3.4,1.8,4.9,1.8c1.5-0.1,2.7-0.8,3.7-2.2c1-1.4,1.2-2.8,0.8-4.2c-0.4-1.4-1.6-2.7-3.4-4
			l-1.7-1.2L355.4,89.7z"/>
	</g>
	<g>
		<path class="st0" d="M152.2,405.3c-0.1-4.1-1.7-7.2-4.7-9.5c-1.3-1-2.7-1.7-4.2-2.1c-1.5-0.4-3-0.5-4.4-0.3
			c-1.4,0.2-2.8,0.7-4.2,1.5c-1.3,0.8-2.5,1.8-3.5,3.2c-1,1.4-1.8,2.8-2.2,4.3c-0.4,1.5-0.5,3-0.3,4.5c0.2,1.5,0.6,2.9,1.4,4.2
			c0.7,1.3,1.8,2.5,3.1,3.5c2.8,2.2,6.3,2.9,10.4,2.2l-8,10.5l-1.1-0.4c-1.7-0.6-3.3-1.2-4.6-1.8c-1.3-0.7-2.6-1.4-3.7-2.3
			c-2.3-1.8-4.3-3.9-5.7-6.5c-1.5-2.5-2.4-5.2-2.8-8.1c-0.4-2.9-0.3-5.8,0.4-8.7c0.7-3,2-5.8,4-8.4c2-2.6,4.3-4.6,7-6.1
			c2.6-1.4,5.4-2.3,8.2-2.6c2.8-0.3,5.7-0.1,8.5,0.7c2.8,0.8,5.4,2.1,7.8,3.9c1.4,1,2.6,2.2,3.7,3.5c1.1,1.3,2.1,2.8,3.1,4.5
			L152.2,405.3z"/>
		<path class="st0" d="M181.9,414.8l-11.8-5.9l-3.2,6.4l11.2,5.6l-4.2,8.4l-11.2-5.6l-3.3,6.6l11.8,5.9l-4.2,8.4l-21.8-10.8l19-38.3
			l21.8,10.8L181.9,414.8z"/>
		<path class="st0" d="M213.3,459l-13.3-3.7l-5.9-18.7l-4.4,15.9l-10.7-3l11.4-41.2l16.7,4.6c2.3,0.6,4.2,1.5,5.7,2.7
			c1.5,1.1,2.7,2.5,3.5,3.9c0.8,1.5,1.3,3.1,1.4,4.7c0.1,1.7,0,3.4-0.5,5.2c-0.9,3.1-2.3,5.5-4.4,7c-2.1,1.5-4.6,2.2-7.8,2.1
			L213.3,459z M196.1,429.7l2,0.6c2.1,0.6,3.9,0.6,5.2,0c1.4-0.6,2.3-1.7,2.7-3.3s0.2-3.1-0.7-4.2c-0.9-1.2-2.4-2.1-4.5-2.7l-2-0.6
			L196.1,429.7z"/>
		<path class="st0" d="M241.8,427.8l-2.6,33.2l-11.1-0.9l2.6-33.2l-9.1-0.7l0.7-9.4l29.3,2.3l-0.7,9.4L241.8,427.8z"/>
		<path class="st0" d="M265.3,417.9l2.5,42.7l-11.1,0.6l-2.5-42.7L265.3,417.9z"/>
		<path class="st0" d="M297.7,421.9l-13.1,2.6l1.4,7l12-2.4l1.8,9.2l-12,2.4l3.3,16.5l-10.9,2.2l-8.4-41.9l24-4.8L297.7,421.9z"/>
		<path class="st0" d="M310.4,407.4l14,40.4l-10.5,3.6l-14-40.4L310.4,407.4z"/>
		<path class="st0" d="M342.5,402.4l-11.8,6l3.3,6.4l11.1-5.7l4.3,8.4l-11.1,5.7l3.4,6.6l11.8-6l4.3,8.4l-21.6,11.1l-19.5-38
			l21.6-11.1L342.5,402.4z"/>
		<path class="st0" d="M342.3,392.1l12.8-10.3c2.3-1.8,4.8-3.1,7.5-3.8c2.7-0.7,5.4-0.9,8.1-0.6c2.7,0.3,5.3,1.1,7.8,2.5
			c2.5,1.3,4.6,3.1,6.4,5.3c1.8,2.2,3,4.6,3.8,7.3c0.8,2.7,1.1,5.4,0.8,8.1c-0.2,2.7-1,5.4-2.2,7.9c-1.2,2.5-3,4.7-5.3,6.6
			l-12.8,10.3L342.3,392.1z M371.9,411l2-1.6c1.5-1.2,2.6-2.5,3.4-4c0.8-1.4,1.3-2.9,1.4-4.3c0.1-1.5,0-3-0.5-4.4
			c-0.5-1.5-1.3-2.9-2.4-4.2c-1.1-1.3-2.3-2.4-3.7-3.2c-1.4-0.8-2.8-1.3-4.3-1.4c-1.5-0.2-3,0-4.5,0.5c-1.6,0.5-3.1,1.3-4.5,2.5
			l-2,1.6L371.9,411z"/>
	</g>
</g>
</svg>
