<svg width="24" height="24" viewBox="0 0 24 24" fill="none" xmlns="http://www.w3.org/2000/svg">
	<path d="M22.8001 17.4C22.8001 18.8322 22.2312 20.2057 21.2185 21.2184C20.2058 22.2311 18.8323 22.8 17.4001 22.8C15.968 22.8 14.5945 22.2311 13.5818 21.2184C12.5691 20.2057 12.0001 18.8322 12.0001 17.4C12.0001 15.9678 12.5691 14.5943 13.5818 13.5816C14.5945 12.5689 15.968 12 17.4001 12C18.8323 12 20.2058 12.5689 21.2185 13.5816C22.2312 14.5943 22.8001 15.9678 22.8001 17.4ZM18.0001 15C18.0001 14.8409 17.9369 14.6882 17.8244 14.5757C17.7119 14.4632 17.5593 14.4 17.4001 14.4C17.241 14.4 17.0884 14.4632 16.9759 14.5757C16.8633 14.6882 16.8001 14.8409 16.8001 15V16.8H15.0001C14.841 16.8 14.6884 16.8632 14.5759 16.9757C14.4633 17.0882 14.4001 17.2409 14.4001 17.4C14.4001 17.5591 14.4633 17.7117 14.5759 17.8243C14.6884 17.9368 14.841 18 15.0001 18H16.8001V19.8C16.8001 19.9591 16.8633 20.1117 16.9759 20.2243C17.0884 20.3368 17.241 20.4 17.4001 20.4C17.5593 20.4 17.7119 20.3368 17.8244 20.2243C17.9369 20.1117 18.0001 19.9591 18.0001 19.8V18H19.8001C19.9593 18 20.1119 17.9368 20.2244 17.8243C20.3369 17.7117 20.4001 17.5591 20.4001 17.4C20.4001 17.2409 20.3369 17.0882 20.2244 16.9757C20.1119 16.8632 19.9593 16.8 19.8001 16.8H18.0001V15ZM11.8705 13.7952C12.3722 13.0275 13.0276 12.3721 13.7953 11.8704C13.7705 11.5263 13.6474 11.1966 13.4405 10.9205C13.2336 10.6444 12.9518 10.4336 12.6285 10.3132C12.3053 10.1927 11.9542 10.1677 11.6171 10.241C11.28 10.3144 10.9711 10.4831 10.7272 10.7271C10.4833 10.971 10.3146 11.2799 10.2412 11.617C10.1678 11.9541 10.1928 12.3051 10.3133 12.6284C10.4338 12.9517 10.6446 13.2335 10.9207 13.4404C11.1967 13.6472 11.5264 13.7704 11.8705 13.7952ZM10.8409 16.6596C9.70599 16.374 8.71439 15.6838 8.05244 14.7187C7.39049 13.7535 7.10375 12.5799 7.2461 11.4182C7.38845 10.2566 7.95009 9.18693 8.82549 8.41018C9.7009 7.63344 10.8298 7.20309 12.0001 7.19999C13.0717 7.20004 14.1124 7.55844 14.9567 8.21817C15.8011 8.87791 16.4006 9.80108 16.6597 10.8408C17.0661 10.7953 17.4759 10.7872 17.8837 10.8168C17.5866 9.36071 16.76 8.06661 15.5637 7.18493C14.3674 6.30326 12.8866 5.8967 11.4078 6.04393C9.92905 6.19116 8.55747 6.88173 7.55853 7.98197C6.55958 9.08222 6.00429 10.5139 6.00013 12C6.00032 13.3862 6.48029 14.7296 7.35854 15.8021C8.23679 16.8746 9.45918 17.6101 10.8181 17.8836C10.7887 17.4757 10.7956 17.066 10.8409 16.6596ZM11.5141 20.3856C9.89697 20.2917 8.34144 19.7322 7.03496 18.7745C5.72848 17.8168 4.72678 16.5018 4.15053 14.9879C3.57427 13.474 3.44806 11.8257 3.78709 10.2417C4.12612 8.65766 4.91592 7.20546 6.06136 6.06002C7.2068 4.91458 8.659 4.12477 10.243 3.78575C11.827 3.44672 13.4753 3.57293 14.9892 4.14918C16.5032 4.72543 17.8182 5.72714 18.7759 7.03362C19.7335 8.3401 20.293 9.89562 20.3869 11.5128C20.8181 11.7314 21.2237 11.9971 21.5965 12.3048C21.6576 10.3811 21.1391 8.48344 20.1082 6.85813C19.0773 5.23282 17.5817 3.9549 15.8155 3.19022C14.0492 2.42555 12.0939 2.20943 10.2033 2.56992C8.3127 2.93041 6.57409 3.85086 5.21315 5.2118C3.8522 6.57275 2.93175 8.31135 2.57126 10.202C2.21078 12.0926 2.42689 14.0479 3.19157 15.8141C3.95624 17.5804 5.23416 19.076 6.85947 20.1069C8.48478 21.1378 10.3824 21.6563 12.3061 21.5952C11.9987 21.2222 11.7331 20.8165 11.5141 20.3856Z" fill="black"/>
</svg>
