<svg width="24" height="24" viewBox="0 0 24 24" fill="none" xmlns="http://www.w3.org/2000/svg">
<path d="M7.377 18.9039C6.97433 18.9039 6.64433 18.7645 6.387 18.4859C6.129 18.2065 6 17.8655 6 17.4629V9.29685L4.329 5.42285H2.462V4.42285H5.006L6.54 7.99985H19.642C19.95 7.99985 20.1843 8.12918 20.345 8.38785C20.5063 8.64718 20.5143 8.91152 20.369 9.18085L17.962 13.9099C18.6067 13.9659 19.146 14.2332 19.58 14.7119C20.0133 15.1899 20.23 15.7539 20.23 16.4039C20.23 17.0945 19.99 17.6839 19.51 18.1719C19.0287 18.6599 18.4437 18.9039 17.755 18.9039C17.0543 18.9039 16.4627 18.6599 15.98 18.1719C15.4973 17.6839 15.256 17.0945 15.256 16.4039C15.256 16.0799 15.3103 15.7802 15.419 15.5049C15.5283 15.2295 15.6837 14.9842 15.885 14.7689L11.205 14.3539L8.705 18.0839C8.553 18.3152 8.35966 18.5095 8.125 18.6669C7.88966 18.8249 7.64033 18.9039 7.377 18.9039ZM16.85 13.8749L19.325 8.99985H6.962L8.245 11.9999C8.38166 12.3332 8.60533 12.6125 8.916 12.8379C9.22667 13.0632 9.61233 13.1985 10.073 13.2439L16.85 13.8749ZM7.383 17.8789C7.519 17.8789 7.68366 17.7602 7.877 17.5229L10.09 14.2499C9.41466 14.1665 8.863 13.9865 8.435 13.7099C8.00633 13.4339 7.682 13.0652 7.462 12.6039L7 11.5269V17.4689C7 17.5929 7.03333 17.6922 7.1 17.7669C7.16666 17.8415 7.261 17.8789 7.383 17.8789ZM17.731 17.9229C18.1643 17.9229 18.5227 17.7772 18.806 17.4859C19.0893 17.1945 19.231 16.8402 19.231 16.4229C19.231 15.9895 19.0893 15.6312 18.806 15.3479C18.5227 15.0645 18.1643 14.9229 17.731 14.9229C17.3143 14.9229 16.96 15.0645 16.668 15.3479C16.376 15.6312 16.2303 15.9895 16.231 16.4229C16.231 16.8395 16.3767 17.1939 16.668 17.4859C16.9593 17.7779 17.3137 17.9235 17.731 17.9229Z" fill="black"/>
</svg>
