<svg width="40" height="40" viewBox="0 0 40 40" fill="none" xmlns="http://www.w3.org/2000/svg">
<rect x="0.5" y="0.5" width="39" height="39" rx="5.5" stroke="currentColor"/>
<path d="M30 17.5V17V17C30 16.071 30 15.6065 29.9384 15.2178C29.5996 13.0784 27.9216 11.4004 25.7822 11.0616C25.3935 11 24.929 11 24 11H18C15.1997 11 13.7996 11 12.73 11.545C11.7892 12.0243 11.0243 12.7892 10.545 13.73C10 14.7996 10 16.1997 10 19V21C10 23.8003 10 25.2004 10.545 26.27C11.0243 27.2108 11.7892 27.9757 12.73 28.455C13.7996 29 15.1997 29 18 29H24C24.929 29 25.3935 29 25.7822 28.9384C27.9216 28.5996 29.5996 26.9216 29.9384 24.7822C30 24.3935 30 23.929 30 23V23V22.5M26 16L25 16.6667L24.4376 17.0416C22.8338 18.1108 22.0319 18.6454 21.1652 18.8531C20.3992 19.0366 19.6008 19.0366 18.8348 18.8531C17.9681 18.6454 17.1662 18.1108 15.5624 17.0416L15 16.6667L14 16" stroke="currentColor" stroke-width="1.5" stroke-linecap="round"/>
</svg>
