<?xml version="1.0" encoding="utf-8"?>
<!-- Generator: Adobe Illustrator 27.5.0, SVG Export Plug-In . SVG Version: 6.00 Build 0)  -->
<svg version="1.1" id="_x2018_ëîé_x5F_1" xmlns="http://www.w3.org/2000/svg" xmlns:xlink="http://www.w3.org/1999/xlink"
	 x="0px" y="0px" viewBox="0 0 2000 2000" style="enable-background:new 0 0 2000 2000;" xml:space="preserve">
<rect x="0" style="fill:#FFFFFF;" width="2000" height="2000"/>
<g>
	<g>
		<g>
			<path style="fill:#77B81D;" d="M1750,1000c0,35.522-32.255,68.348-37.126,102.525c-4.992,35.028,16.679,75.571,6.93,108.826
				c-9.918,33.833-50.132,56.236-64.594,87.854c-14.623,31.969-5.32,77.014-24.195,106.324
				c-18.989,29.488-63.882,39.65-86.772,66.045c-22.934,26.445-26.647,72.314-53.092,95.249
				c-26.395,22.89-72.317,20.079-101.805,39.069c-29.31,18.875-45.744,61.874-77.713,76.497
				c-31.618,14.462-74.858-1.179-108.691,8.739c-33.254,9.749-61.174,46.342-96.202,51.333
				c-34.176,4.871-71.218-22.345-106.741-22.345c-35.523,0-72.565,27.216-106.741,22.345c-35.028-4.992-62.948-41.585-96.202-51.334
				c-33.833-9.918-77.074,5.723-108.692-8.74c-31.969-14.623-48.403-57.622-77.713-76.497
				c-29.488-18.989-75.41-16.178-101.805-39.069c-26.445-22.934-30.157-68.804-53.091-95.249
				c-22.89-26.395-67.783-36.557-86.772-66.045c-18.875-29.31-9.571-74.355-24.194-106.324
				c-14.462-31.618-54.676-54.02-64.594-87.853c-9.749-33.254,11.922-73.798,6.93-108.825C282.255,1068.348,250,1035.522,250,1000
				c0-35.523,32.255-68.348,37.126-102.525c4.992-35.028-16.679-75.571-6.93-108.826c9.918-33.833,50.132-56.236,64.594-87.854
				c14.623-31.969,5.32-77.014,24.194-106.324c18.989-29.488,63.882-39.65,86.772-66.045c22.934-26.445,26.647-72.314,53.092-95.249
				c26.395-22.89,72.317-20.079,101.805-39.069c29.31-18.875,45.744-61.874,77.713-76.497c31.618-14.462,74.858,1.179,108.691-8.739
				c33.254-9.749,61.174-46.342,96.202-51.333c34.176-4.871,71.219,22.345,106.741,22.345c35.522,0,72.565-27.216,106.741-22.345
				c35.028,4.992,62.948,41.585,96.202,51.334c33.833,9.918,77.074-5.723,108.692,8.74c31.969,14.623,48.403,57.622,77.713,76.497
				c29.488,18.989,75.41,16.178,101.805,39.069c26.445,22.934,30.157,68.804,53.092,95.249
				c22.89,26.394,67.783,36.557,86.772,66.045c18.875,29.31,9.571,74.355,24.194,106.324c14.462,31.618,54.676,54.02,64.594,87.853
				c9.749,33.254-11.922,73.798-6.93,108.825C1717.745,931.652,1750,964.478,1750,1000z"/>
		</g>
	</g>
	<g>
		<g>
			<path style="fill:#FFFFFF;" d="M1000,1667.286c-90.079,0-177.469-17.645-259.74-52.442
				c-79.461-33.609-150.823-81.722-212.102-143.001c-61.28-61.28-109.392-132.642-143.001-212.102
				c-34.798-82.272-52.442-169.661-52.442-259.74s17.644-177.469,52.442-259.74c33.609-79.461,81.721-150.823,143.001-212.102
				c61.28-61.28,132.641-109.392,212.102-143.001c82.272-34.798,169.661-52.442,259.74-52.442s177.469,17.643,259.74,52.442
				c79.461,33.609,150.823,81.721,212.102,143.001c61.28,61.28,109.392,132.641,143.001,212.102
				c34.798,82.272,52.442,169.661,52.442,259.74s-17.644,177.469-52.442,259.74c-33.609,79.46-81.721,150.822-143.001,212.102
				c-61.28,61.279-132.641,109.392-212.102,143.001C1177.469,1649.641,1090.079,1667.286,1000,1667.286z M1000,348.713
				c-87.927,0-173.219,17.219-253.508,51.178c-77.554,32.803-147.206,79.764-207.022,139.58
				c-59.816,59.815-106.777,129.468-139.58,207.022c-33.959,80.289-51.178,165.581-51.178,253.508s17.219,173.219,51.178,253.507
				c32.803,77.555,79.764,147.206,139.58,207.022c59.815,59.815,129.468,106.777,207.022,139.579
				c80.289,33.959,165.581,51.178,253.508,51.178s173.219-17.219,253.508-51.178c77.554-32.802,147.206-79.764,207.022-139.579
				c59.816-59.816,106.777-129.468,139.58-207.022c33.959-80.289,51.177-165.58,51.177-253.507s-17.219-173.219-51.177-253.508
				c-32.803-77.554-79.764-147.206-139.58-207.022c-59.815-59.816-129.468-106.777-207.022-139.58
				C1173.219,365.932,1087.927,348.713,1000,348.713z"/>
		</g>
	</g>
	<g>
		<g>
			<path style="fill:#FFFFFF;" d="M1000,1454.288c-61.325,0-120.82-12.012-176.832-35.704
				c-54.098-22.881-102.68-55.635-144.398-97.354c-41.719-41.719-74.473-90.301-97.354-144.399
				c-23.691-56.012-35.703-115.507-35.703-176.832c0-61.325,12.012-120.82,35.703-176.832
				c22.881-54.097,55.636-102.68,97.354-144.398c41.718-41.719,90.301-74.473,144.398-97.354
				c56.013-23.691,115.507-35.703,176.832-35.703s120.82,12.012,176.832,35.703c54.098,22.881,102.68,55.636,144.398,97.354
				c41.719,41.718,74.473,90.301,97.354,144.398c23.691,56.013,35.703,115.507,35.703,176.832
				c0,61.325-12.012,120.82-35.703,176.832c-22.881,54.097-55.636,102.68-97.354,144.399
				c-41.718,41.719-90.301,74.473-144.398,97.354C1120.82,1442.276,1061.325,1454.288,1000,1454.288z M1000,562.298
				c-59.093,0-116.414,11.572-170.371,34.394c-52.12,22.045-98.931,53.606-139.131,93.807
				c-40.201,40.2-71.762,87.011-93.807,139.131C573.87,883.586,562.298,940.907,562.298,1000
				c0,59.093,11.572,116.415,34.394,170.371c22.045,52.121,53.606,98.93,93.807,139.131c40.201,40.202,87.011,71.763,139.131,93.808
				c53.957,22.822,111.278,34.393,170.371,34.393s116.414-11.572,170.371-34.393c52.12-22.045,98.93-53.606,139.131-93.808
				c40.2-40.2,71.761-87.01,93.807-139.131c22.822-53.957,34.394-111.279,34.394-170.371c0-59.093-11.572-116.414-34.394-170.371
				c-22.045-52.12-53.606-98.931-93.807-139.131c-40.2-40.2-87.011-71.761-139.131-93.807
				C1116.414,573.869,1059.093,562.298,1000,562.298z"/>
		</g>
	</g>
	<g>
		<g>
			<g>
				<g>
					<g>
						<path style="fill:#FFFFFF;" d="M1473.783,754.221c-0.785,0-1.58-0.073-2.354-0.23c-0.764-0.157-1.517-0.387-2.249-0.691
							c-0.722-0.293-1.423-0.669-2.072-1.098c-0.659-0.439-1.277-0.942-1.831-1.496c-0.555-0.554-1.057-1.172-1.496-1.831
							c-0.439-0.649-0.806-1.35-1.109-2.082c-0.303-0.722-0.533-1.475-0.69-2.25c-0.147-0.774-0.23-1.569-0.23-2.354
							c0-3.159,1.287-6.266,3.526-8.506c0.554-0.554,1.171-1.056,1.831-1.496c0.648-0.429,1.35-0.806,2.072-1.099
							c0.732-0.303,1.485-0.533,2.249-0.69c1.559-0.314,3.149-0.314,4.708,0c0.764,0.157,1.517,0.387,2.249,0.69
							c0.722,0.293,1.423,0.67,2.072,1.099c0.659,0.439,1.276,0.942,1.831,1.496c2.239,2.239,3.526,5.346,3.526,8.506
							c0,0.785-0.084,1.58-0.23,2.354c-0.157,0.774-0.387,1.528-0.69,2.25c-0.303,0.732-0.67,1.433-1.109,2.082
							c-0.439,0.659-0.942,1.277-1.496,1.831c-0.554,0.555-1.172,1.057-1.831,1.496c-0.649,0.429-1.35,0.806-2.072,1.098
							c-0.732,0.303-1.485,0.534-2.249,0.691C1475.363,754.148,1474.568,754.221,1473.783,754.221z"/>
					</g>
				</g>
			</g>
			<g>
				<g>
					<g>
						<path style="fill:#FFFFFF;" d="M1534.568,1100.235c-6.581-1.004-11.101-7.124-10.107-13.695l0,0
							c0.994-6.57,7.125-11.101,13.695-10.106l0,0c6.57,0.994,11.09,7.125,10.107,13.695l0,0l0,0l0,0
							c-0.9,5.964-6.037,10.242-11.885,10.242l0,0C1535.782,1100.37,1535.175,1100.318,1534.568,1100.235z M1522.066,912.168
							L1522.066,912.168c-1.182-6.539,3.17-12.795,9.709-13.967l0,0c6.539-1.182,12.795,3.17,13.967,9.709l0,0l0,0l0,0
							c1.183,6.539-3.17,12.795-9.709,13.967l0,0c-0.722,0.136-1.433,0.199-2.134,0.199l0,0
							C1528.176,922.076,1523.112,917.985,1522.066,912.168z"/>
					</g>
				</g>
			</g>
			<g>
				<g>
					<g>
						<path style="fill:#FFFFFF;" d="M1480.939,1269.836c-0.785,0-1.569-0.084-2.354-0.241c-0.764-0.156-1.517-0.387-2.249-0.69
							c-0.722-0.293-1.423-0.67-2.072-1.099c-0.659-0.439-1.276-0.941-1.831-1.496c-2.239-2.239-3.526-5.347-3.526-8.506
							c0-0.785,0.084-1.58,0.241-2.354c0.147-0.774,0.377-1.527,0.681-2.25c0.303-0.733,0.669-1.433,1.109-2.081
							c0.44-0.66,0.942-1.277,1.496-1.831c0.554-0.555,1.172-1.057,1.831-1.497c0.649-0.429,1.35-0.805,2.072-1.109
							c0.733-0.293,1.485-0.523,2.249-0.681c1.559-0.314,3.149-0.314,4.708,0c0.764,0.157,1.517,0.387,2.249,0.681
							c0.722,0.303,1.423,0.679,2.072,1.109c0.659,0.439,1.276,0.942,1.831,1.497c0.554,0.554,1.056,1.171,1.496,1.831
							c0.439,0.648,0.806,1.349,1.109,2.081c0.303,0.722,0.534,1.475,0.68,2.25c0.157,0.774,0.241,1.569,0.241,2.354
							c0,3.159-1.287,6.267-3.525,8.506c-0.555,0.555-1.172,1.056-1.831,1.496c-0.649,0.429-1.35,0.806-2.072,1.099
							c-0.732,0.302-1.486,0.533-2.249,0.69C1482.52,1269.753,1481.724,1269.836,1480.939,1269.836z"/>
					</g>
				</g>
			</g>
		</g>
		<g>
			<g>
				<g>
					<g>
						<path style="fill:#FFFFFF;" d="M519.053,1269.836c-0.785,0-1.58-0.084-2.354-0.241c-0.764-0.156-1.517-0.387-2.249-0.69
							c-0.722-0.293-1.423-0.67-2.071-1.099c-0.659-0.439-1.277-0.941-1.831-1.496c-2.239-2.239-3.526-5.347-3.526-8.506
							c0-0.785,0.084-1.58,0.241-2.354c0.147-0.774,0.376-1.527,0.68-2.25c0.303-0.733,0.67-1.433,1.109-2.081
							c0.439-0.66,0.941-1.277,1.496-1.831c0.554-0.555,1.172-1.057,1.831-1.497c0.649-0.429,1.35-0.805,2.071-1.109
							c0.733-0.293,1.486-0.523,2.249-0.681c1.559-0.314,3.149-0.314,4.708,0c0.764,0.157,1.517,0.387,2.249,0.681
							c0.722,0.303,1.423,0.679,2.072,1.109c0.659,0.439,1.277,0.942,1.831,1.497c0.555,0.554,1.057,1.171,1.496,1.831
							c0.439,0.648,0.806,1.349,1.109,2.081c0.303,0.722,0.533,1.475,0.68,2.25c0.157,0.774,0.241,1.569,0.241,2.354
							c0,3.159-1.287,6.267-3.526,8.506c-0.554,0.555-1.171,1.056-1.831,1.496c-0.648,0.429-1.35,0.806-2.072,1.099
							c-0.732,0.302-1.486,0.533-2.249,0.69C520.633,1269.753,519.837,1269.836,519.053,1269.836z"/>
					</g>
				</g>
			</g>
			<g>
				<g>
					<g>
						<path style="fill:#FFFFFF;" d="M451.74,1090.139c-0.994-6.57,3.526-12.702,10.096-13.696l0,0
							c6.57-0.993,12.701,3.537,13.695,10.107l0,0c0.994,6.571-3.525,12.702-10.106,13.695l0,0c-0.607,0.084-1.214,0.137-1.81,0.137
							l0,0C457.765,1100.382,452.639,1096.102,451.74,1090.139z M463.959,921.887c-6.539-1.172-10.891-7.428-9.719-13.967l0,0
							c1.182-6.539,7.428-10.891,13.967-9.709l0,0c6.549,1.171,10.891,7.428,9.719,13.967l0,0c-1.046,5.816-6.11,9.907-11.822,9.907
							l0,0C465.392,922.086,464.681,922.023,463.959,921.887z"/>
					</g>
				</g>
			</g>
			<g>
				<g>
					<g>
						<path style="fill:#FFFFFF;" d="M526.208,754.221c-3.17,0-6.267-1.276-8.506-3.515c-0.554-0.554-1.056-1.172-1.496-1.831
							c-0.44-0.649-0.806-1.35-1.109-2.082c-0.303-0.722-0.534-1.475-0.691-2.25c-0.147-0.774-0.23-1.569-0.23-2.354
							c0-0.774,0.084-1.569,0.23-2.343c0.157-0.774,0.387-1.527,0.691-2.249c0.303-0.733,0.669-1.433,1.109-2.082
							c0.439-0.659,0.941-1.276,1.496-1.831c0.555-0.554,1.172-1.056,1.831-1.496c0.649-0.429,1.35-0.806,2.071-1.099
							c0.733-0.303,1.486-0.533,2.249-0.69c1.559-0.314,3.149-0.314,4.708,0c0.764,0.157,1.517,0.387,2.25,0.69
							c0.722,0.293,1.423,0.67,2.071,1.099c0.659,0.439,1.276,0.942,1.831,1.496c2.238,2.239,3.525,5.346,3.525,8.506
							c0,0.785-0.083,1.58-0.23,2.354c-0.157,0.774-0.387,1.528-0.691,2.25c-0.304,0.732-0.67,1.433-1.109,2.082
							c-0.439,0.659-0.941,1.277-1.496,1.831c-0.555,0.555-1.172,1.057-1.831,1.496c-0.649,0.429-1.35,0.806-2.071,1.098
							c-0.732,0.303-1.486,0.534-2.25,0.691C527.778,754.148,526.993,754.221,526.208,754.221z"/>
					</g>
				</g>
			</g>
		</g>
	</g>
	<g>
		<ellipse style="fill:#FFFFFF;" cx="895.972" cy="1069.826" rx="23.585" ry="28.422"/>
		<ellipse style="fill:#FFFFFF;" cx="1104.026" cy="1069.826" rx="23.585" ry="28.422"/>
		<path style="fill:#FFFFFF;" d="M1229.058,997.321c-18.403-29.275-44.786-54.979-76.496-74.562l10.365-23.186
			c7.286-16.304,17.007-38.061,26.752-59.877c11.713-26.219,39.009-87.33,39.521-88.531c0.051-0.119,0.099-0.239,0.143-0.361
			c4.849-13.248,4.214-27.633-1.787-40.503c-6.032-12.939-16.724-22.735-30.098-27.579c-27.617-10.04-58.285,4.199-68.361,31.74
			c-0.052,0.141-0.099,0.282-0.142,0.425l-52.597,175.547c-49.433-12.878-103.292-12.878-152.715,0l-52.598-175.547
			c-0.043-0.143-0.09-0.284-0.141-0.424c-10.076-27.542-40.74-41.785-68.354-31.744c-13.383,4.847-24.075,14.643-30.107,27.582
			c-6,12.871-6.634,27.255-1.785,40.503c0.044,0.122,0.092,0.242,0.143,0.361c0.512,1.201,27.808,62.313,39.52,88.531
			c9.745,21.815,19.467,43.573,26.752,59.877l10.365,23.185c-31.697,19.572-58.089,45.281-76.495,74.563
			c-19.844,31.567-30.333,67.29-30.333,103.306c0,58.977,27.148,114.346,76.444,155.906
			c48.927,41.249,113.898,63.966,182.946,63.966s134.02-22.717,182.945-63.966c49.296-41.56,76.444-96.929,76.444-155.906
			C1259.39,1064.61,1248.902,1028.887,1229.058,997.321z M1000,1305.499c-134.758,0-244.391-91.905-244.391-204.872
			c0-33.188,9.693-66.15,28.032-95.323c17.854-28.403,43.838-53.259,75.117-71.867c4.271-2.521,6.086-7.746,4.317-12.425
			c-0.067-0.178-0.141-0.352-0.22-0.52c-1.441-3.208-75.345-168.605-78.186-175.046c-3.387-9.42-2.903-19.642,1.369-28.806
			c4.335-9.3,12.014-16.337,21.628-19.819c19.798-7.195,41.763,2.937,49.076,22.597l53.877,179.817
			c1.643,5.338,7.15,8.349,12.546,6.862c49.55-13.769,104.121-13.769,153.667,0c0.003,0,0.006,0.001,0.009,0.002
			c5.387,1.488,10.896-1.526,12.554-6.919l53.86-179.763c7.314-19.66,29.276-29.796,49.085-22.594
			c9.605,3.479,17.284,10.517,21.619,19.816c4.271,9.162,4.757,19.382,1.372,28.801c-2.972,6.732-76.74,171.825-78.189,175.05
			c-0.079,0.17-0.152,0.344-0.22,0.521c-1.769,4.679,0.047,9.904,4.295,12.411c31.303,18.621,57.285,43.477,75.141,71.881
			c18.338,29.173,28.031,62.135,28.031,95.323C1244.39,1213.594,1134.757,1305.499,1000,1305.499z"/>
		<path style="fill:#FFFFFF;" d="M1085.119,1185.879c-3.41-2.348-8.082-1.485-10.43,1.928c-8.506,12.361-20.6,18.629-35.945,18.629
			c-7.361,0-13.243-2.4-17.98-7.338c-5.208-5.428-9.07-14.054-11.27-25.073c8.341-3.769,19.976-11.506,25.482-26.573
			c0.374-1.024,0.654-2.089,0.773-3.172c2.1-19.073-35.755-19.051-35.755-19.051s-37.855-0.022-35.755,19.051
			c0.119,1.083,0.399,2.148,0.773,3.172c5.506,15.065,17.138,22.803,25.48,26.572c-1.855,9.177-5.256,18.794-11.247,25.052
			c-4.741,4.953-10.63,7.36-18.002,7.36c-15.346,0-27.438-6.268-35.944-18.629c-2.349-3.413-7.019-4.277-10.43-1.928
			c-3.413,2.348-4.275,7.018-1.928,10.43c7.887,11.463,22.669,25.127,48.302,25.127c11.521,0,21.223-4.033,28.838-11.988
			c4.259-4.448,7.475-9.799,9.914-15.43c2.439,5.632,5.656,10.982,9.914,15.431c7.614,7.954,17.316,11.987,28.837,11.987
			c25.633,0,40.416-13.664,48.303-25.127C1089.394,1192.896,1088.532,1188.226,1085.119,1185.879z"/>
	</g>
	<g>
		<path style="fill:#FFFFFF;" d="M906.71,1498.433l-51.541-12.631c-0.806-0.197-1.617,0.295-1.814,1.1l-19.344,78.928
			c-0.095,0.387-0.032,0.795,0.175,1.135c0.206,0.341,0.539,0.585,0.925,0.68l11.508,2.82c0.118,0.028,0.238,0.043,0.357,0.043
			c0.271,0,0.541-0.074,0.777-0.218c0.341-0.206,0.585-0.539,0.68-0.925l8.14-33.215l36.066,8.84
			c0.389,0.094,0.795,0.032,1.135-0.175c0.341-0.206,0.585-0.539,0.68-0.925l2.431-9.918c0.095-0.387,0.032-0.795-0.175-1.135
			c-0.206-0.341-0.539-0.585-0.925-0.68l-36.066-8.837l5.271-21.511l38.575,9.454c0.807,0.197,1.617-0.295,1.815-1.1l2.432-9.917
			c0.095-0.387,0.032-0.795-0.175-1.135C907.429,1498.771,907.096,1498.527,906.71,1498.433z"/>
		<path style="fill:#FFFFFF;" d="M960.207,1504.981l-32.384-2.804c-0.818-0.076-1.552,0.538-1.623,1.365l-7.01,80.959
			c-0.034,0.397,0.09,0.791,0.346,1.095c0.256,0.305,0.623,0.495,1.019,0.529l11.867,1.027c0.819,0.073,1.552-0.538,1.623-1.365
			l2.905-33.55l14.106,1.222c6.568,0.568,10.583,1.991,12.636,4.477c1.843,2.231,2.419,5.603,1.929,11.273l-0.184,2.129
			c-0.674,7.776-1.206,13.92,0.02,17.751c0.185,0.576,0.697,0.985,1.3,1.037l11.603,1.004c0.043,0.004,0.086,0.006,0.129,0.006
			c0.444,0,0.869-0.197,1.155-0.543c0.313-0.379,0.422-0.889,0.289-1.362c-0.814-2.897-0.302-8.528,0.149-13.496l0.485-5.551
			c0.913-10.534-1.569-17.598-7.574-21.457c7.168-2.881,11.753-9.413,12.507-18.121
			C986.743,1516.26,977.052,1506.44,960.207,1504.981z M940.065,1516.283l16.616,1.438c9.556,0.828,14.069,5.076,13.416,12.628
			c-0.469,5.413-2.758,11.477-16.468,10.288l-15.557-1.348L940.065,1516.283z"/>
		<path style="fill:#FFFFFF;" d="M1072.738,1573.899l-42.495,2.955l-1.68-24.161l38.527-2.679c0.396-0.027,0.766-0.211,1.027-0.512
			c0.261-0.3,0.392-0.691,0.364-1.089l-0.709-10.186c-0.057-0.826-0.772-1.455-1.601-1.391l-38.526,2.678l-1.416-20.36l40.416-2.812
			c0.826-0.058,1.449-0.773,1.392-1.601l-0.708-10.186c-0.027-0.396-0.211-0.766-0.512-1.027c-0.3-0.261-0.68-0.395-1.089-0.364
			l-53.679,3.732c-0.396,0.027-0.766,0.211-1.027,0.512c-0.261,0.3-0.393,0.691-0.364,1.089l5.638,81.065
			c0.027,0.396,0.212,0.766,0.512,1.027c0.273,0.238,0.624,0.368,0.984,0.368c0.034,0,0.069-0.001,0.104-0.004l54.241-3.772
			c0.741-0.051,1.333-0.638,1.391-1.379l0.809-10.291c0.034-0.435-0.122-0.863-0.43-1.173
			C1073.601,1574.029,1073.186,1573.87,1072.738,1573.899z"/>
		<path style="fill:#FFFFFF;" d="M1161.573,1557.731c-0.032-0.436-0.252-0.835-0.602-1.095c-0.352-0.261-0.798-0.355-1.223-0.26
			l-41.565,9.33l-5.305-23.633l37.684-8.458c0.389-0.088,0.727-0.325,0.939-0.661s0.283-0.743,0.196-1.131l-2.236-9.963
			c-0.088-0.389-0.325-0.727-0.661-0.939s-0.742-0.282-1.131-0.196l-37.686,8.46l-4.47-19.917l39.531-8.873
			c0.809-0.182,1.317-0.984,1.136-1.792l-2.236-9.963c-0.088-0.389-0.325-0.727-0.661-0.939c-0.336-0.212-0.741-0.283-1.131-0.196
			l-52.503,11.785c-0.809,0.182-1.318,0.984-1.136,1.792l17.798,79.291c0.157,0.698,0.776,1.172,1.463,1.172
			c0.108,0,0.219-0.012,0.329-0.036l53.053-11.908c0.726-0.163,1.222-0.832,1.168-1.573L1161.573,1557.731z"/>
	</g>
	<g>
		<path style="fill:#FFFFFF;" d="M791.669,507.132c-0.417-0.198-0.902-0.195-1.317,0.012l-10.84,5.408
			c-0.558,0.278-0.885,0.872-0.822,1.492c0.626,6.214,0.189,15.106-10.776,20.578c-7.01,3.497-13.825,3.349-20.257-0.441
			c-5.423-3.196-10.432-9.013-14.106-16.379c-6.539-13.108-8.173-29.787,6.852-37.283c9.077-4.53,16.55-3.316,23.512,3.821
			c0.457,0.467,1.162,0.585,1.744,0.294l10.793-5.384c0.396-0.197,0.684-0.559,0.788-0.988c0.104-0.43,0.014-0.883-0.248-1.239
			c-9.789-13.376-25.466-16.457-41.935-8.243c-23.992,11.969-24.961,36.911-15.279,56.321c5.447,10.92,13.07,18.816,22.045,22.835
			c4.353,1.948,8.925,2.92,13.614,2.92c5.814,0,11.81-1.495,17.783-4.474c15.836-7.899,22.859-21.829,19.267-38.218
			C792.388,507.713,792.086,507.332,791.669,507.132z"/>
		<path style="fill:#FFFFFF;" d="M875.671,491.316l-1.609-5.328c-3.069-10.117-7.999-15.751-15.008-17.103
			c5.583-5.339,7.411-13.108,4.874-21.472c-1.986-6.549-6.029-11.391-11.692-14.001c-5.866-2.703-13.235-2.837-21.315-0.385
			l-31.104,9.435c-0.381,0.115-0.7,0.378-0.888,0.729c-0.188,0.351-0.227,0.762-0.112,1.143l23.588,77.764
			c0.196,0.647,0.792,1.064,1.435,1.064c0.144,0,0.291-0.021,0.436-0.064l11.398-3.457c0.381-0.115,0.7-0.378,0.888-0.729
			s0.228-0.762,0.112-1.143l-9.774-32.226l13.549-4.109c6.309-1.915,10.565-2.087,13.395-0.542c2.541,1.387,4.329,4.302,5.98,9.748
			l0.617,2.032c2.267,7.477,4.058,13.383,6.621,16.484c0.387,0.467,1.016,0.654,1.592,0.48l11.144-3.381
			c0.471-0.143,0.842-0.508,0.992-0.977c0.151-0.469,0.063-0.98-0.237-1.371C878.72,501.519,877.101,496.099,875.671,491.316z
			 M838.068,468.573l-14.942,4.532l-6.703-22.098l15.96-4.842c9.182-2.783,14.949-0.517,17.149,6.736
			C851.11,458.101,851.232,464.58,838.068,468.573z"/>
		<path style="fill:#FFFFFF;" d="M958.703,410.362c-0.049-0.396-0.253-0.754-0.566-0.999c-0.314-0.244-0.706-0.355-1.107-0.305
			l-12.033,1.496c-0.821,0.102-1.405,0.852-1.303,1.674l6.022,48.44c1.885,15.17-2.916,22.637-15.566,24.21
			c-15.303,1.896-19.988-9.63-21.232-19.636l-6.021-48.438c-0.102-0.822-0.85-1.402-1.673-1.304l-12.097,1.503
			c-0.396,0.049-0.754,0.253-0.999,0.566c-0.244,0.314-0.354,0.712-0.305,1.106l6.029,48.503
			c2.502,20.127,13.592,30.919,31.473,30.919c1.977,0,4.039-0.132,6.181-0.398c22.253-2.766,32.058-16.059,29.143-39.508
			L958.703,410.362z"/>
		<path style="fill:#FFFFFF;" d="M1053.98,410.238l-53.767-2.173c-0.401-0.017-0.784,0.126-1.077,0.397
			c-0.293,0.27-0.466,0.645-0.482,1.042l-3.281,81.199c-0.016,0.397,0.127,0.785,0.397,1.077c0.27,0.293,0.645,0.466,1.042,0.482
			l54.33,2.195c0.021,0.001,0.041,0.001,0.062,0.001c0.717,0,1.337-0.51,1.473-1.22l1.932-10.141
			c0.081-0.429-0.027-0.871-0.299-1.213s-0.678-0.549-1.114-0.566l-42.564-1.721l0.977-24.2l38.59,1.56
			c0.385,0.019,0.784-0.127,1.077-0.397c0.293-0.27,0.466-0.645,0.482-1.042l0.412-10.202c0.033-0.828-0.61-1.525-1.438-1.56
			l-38.589-1.56l0.823-20.396l40.483,1.636c0.4,0.017,0.784-0.127,1.077-0.397s0.466-0.645,0.482-1.042l0.412-10.202
			C1055.451,410.97,1054.808,410.272,1053.98,410.238z"/>
		<path style="fill:#FFFFFF;" d="M1129.683,494.796l-39.818-7.543l12.948-68.338c0.154-0.814-0.381-1.599-1.194-1.753l-11.851-2.246
			c-0.394-0.075-0.795,0.011-1.124,0.234s-0.555,0.569-0.629,0.96l-15.128,79.845c-0.074,0.391,0.01,0.795,0.234,1.124
			c0.224,0.329,0.569,0.555,0.96,0.629l51.574,9.77c0.094,0.018,0.188,0.026,0.28,0.026c0.624,0,1.196-0.391,1.412-0.996
			l3.469-9.735c0.147-0.413,0.106-0.87-0.112-1.25C1130.487,495.144,1130.114,494.877,1129.683,494.796z"/>
		<path style="fill:#FFFFFF;" d="M1212.797,445.617l-61.06-19.318c-0.378-0.121-0.79-0.086-1.144,0.099
			c-0.353,0.184-0.619,0.499-0.738,0.879l-3.079,9.734c-0.25,0.79,0.188,1.633,0.978,1.882l23.314,7.378l-20.979,66.313
			c-0.12,0.379-0.085,0.79,0.099,1.144c0.184,0.352,0.499,0.619,0.879,0.738l11.561,3.657c0.15,0.048,0.303,0.07,0.452,0.07
			c0.637,0,1.228-0.408,1.43-1.048l20.98-66.313l23.325,7.378c0.378,0.12,0.79,0.085,1.144-0.099
			c0.353-0.184,0.619-0.499,0.738-0.879l3.079-9.734C1214.025,446.709,1213.587,445.866,1212.797,445.617z"/>
		<path style="fill:#FFFFFF;" d="M1303.123,487.904l-11.44-5.778c-0.478-0.241-1.051-0.209-1.5,0.086
			c-13.036,8.58-28.544,18.972-36.002,24.383c-0.141-9.63-0.831-28.588-1.304-41.592l-0.059-1.637
			c-0.02-0.546-0.335-1.038-0.822-1.284l-12.274-6.2c-0.478-0.24-1.05-0.21-1.498,0.084c-0.448,0.293-0.706,0.803-0.677,1.338
			l3.171,57.031c0.04,0.392-0.089,0.928-0.345,1.435l-13.346,26.424c-0.18,0.354-0.21,0.767-0.086,1.144
			c0.124,0.378,0.394,0.69,0.749,0.87l10.822,5.466c0.217,0.109,0.447,0.161,0.675,0.161c0.548,0,1.076-0.301,1.34-0.824
			l13.331-26.395c0.391-0.774,0.565-0.893,0.908-1.129l48.489-30.98c0.454-0.29,0.718-0.801,0.69-1.339
			S1303.605,488.147,1303.123,487.904z"/>
	</g>
</g>
</svg>
