<?xml version="1.0" encoding="UTF-8"?>
<!DOCTYPE svg PUBLIC "-//W3C//DTD SVG 1.1//EN" "http://www.w3.org/Graphics/SVG/1.1/DTD/svg11.dtd">
<svg xmlns="http://www.w3.org/2000/svg" version="1.1" width="1997px" height="1996px" style="shape-rendering:geometricPrecision; text-rendering:geometricPrecision; image-rendering:optimizeQuality; fill-rule:evenodd; clip-rule:evenodd" xmlns:xlink="http://www.w3.org/1999/xlink">
<g><path style="opacity:1" fill="#236943" d="M 120.5,-0.5 C 705.833,-0.5 1291.17,-0.5 1876.5,-0.5C 1921.58,5.61752 1956.08,27.9508 1980,66.5C 1988.64,81.9077 1994.14,98.241 1996.5,115.5C 1996.5,703.5 1996.5,1291.5 1996.5,1879.5C 1982.98,1946.01 1942.65,1984.68 1875.5,1995.5C 1290.17,1995.5 704.833,1995.5 119.5,1995.5C 74.4152,1989.38 39.9152,1967.05 16,1928.5C 7.36445,1913.09 1.86445,1896.76 -0.5,1879.5C -0.5,1291.5 -0.5,703.5 -0.5,115.5C 13.0051,48.9974 53.3384,10.3307 120.5,-0.5 Z"/></g>
<g><path style="opacity:1" fill="#fefefe" d="M 1163.5,1134.5 C 1163.44,1133.96 1163.11,1133.62 1162.5,1133.5C 1161.5,1182.83 1161.17,1232.16 1161.5,1281.5C 1158.67,1303.17 1146.67,1317.01 1125.5,1323C 1050.83,1323.67 976.167,1323.67 901.5,1323C 883.965,1317.47 872.465,1305.97 867,1288.5C 866.5,1234.17 866.333,1179.83 866.5,1125.5C 834.78,1128.78 803.113,1132.62 771.5,1137C 751.32,1140.59 734.486,1134.75 721,1119.5C 706.161,1093.02 710.994,1070.86 735.5,1053C 740.232,1050.53 745.232,1048.87 750.5,1048C 801.49,1041.58 852.49,1035.25 903.5,1029C 933.635,1026.8 951.135,1040.63 956,1070.5C 956.5,1124.83 956.667,1179.17 956.5,1233.5C 994.996,1234.5 1033.66,1234.83 1072.5,1234.5C 1072.5,1180.17 1072.5,1125.83 1072.5,1071.5C 1075.61,1044.06 1090.94,1029.72 1118.5,1028.5C 1130.43,1028.61 1142.1,1030.44 1153.5,1034C 1179.06,1044.12 1204.4,1054.78 1229.5,1066C 1268.43,1081.69 1307.76,1083.02 1347.5,1070C 1402.02,1045.43 1430.36,1003.1 1432.5,943C 1430.85,909.554 1419.35,880.054 1398,854.5C 1383.42,838.653 1367.25,824.82 1349.5,813C 1335.83,804.494 1321.83,796.494 1307.5,789C 1349.49,744.88 1363.32,693.047 1349,633.5C 1333.28,579.783 1299.45,542.617 1247.5,522C 1232.19,517.218 1216.53,514.718 1200.5,514.5C 1199.29,428.176 1159.29,368.01 1080.5,334C 1000.5,307.125 931.338,323.958 873,384.5C 846.918,412.674 824.251,443.341 805,476.5C 777.418,525.563 753.085,576.23 732,628.5C 683.965,753.942 643.965,881.942 612,1012.5C 597.703,1069.69 584.036,1127.02 571,1184.5C 562.419,1211.09 544.252,1223.26 516.5,1221C 508.774,1218.64 501.774,1214.97 495.5,1210C 425.027,1140.53 354.861,1070.69 285,1000.5C 275.21,986.734 272.877,971.734 278,955.5C 289.197,932.652 307.364,923.152 332.5,927C 337.945,928.888 342.945,931.555 347.5,935C 398.028,985.861 448.861,1036.36 500,1086.5C 525.087,988.817 551.421,891.483 579,794.5C 605.344,701.46 638.011,610.794 677,522.5C 704.2,461.714 738.2,405.381 779,353.5C 807.916,318.342 841.75,289.176 880.5,266C 961.212,223.69 1043.55,220.357 1127.5,256C 1206.73,293.241 1258.23,354.074 1282,438.5C 1363.13,470.965 1415.46,529.299 1439,613.5C 1447.76,648.609 1448.76,683.942 1442,719.5C 1438.63,734.332 1434.96,748.999 1431,763.5C 1503.39,821.328 1532.72,896.328 1519,988.5C 1501.37,1067.6 1455.21,1122.77 1380.5,1154C 1331.29,1172.05 1281.29,1174.39 1230.5,1161C 1206.98,1155 1184.64,1146.16 1163.5,1134.5 Z"/></g>
<g><path style="opacity:1" fill="#fafcfb" d="M 1437.5,231.5 C 1477.74,228.523 1505.57,245.523 1521,282.5C 1530.32,319.878 1519.16,349.378 1487.5,371C 1446.96,390.238 1413.12,382.072 1386,346.5C 1366.24,309.651 1371.41,276.818 1401.5,248C 1412.19,239.486 1424.19,233.986 1437.5,231.5 Z"/></g>
<g><path style="opacity:1" fill="#256a45" d="M 1436.5,244.5 C 1470.24,240.61 1494.07,253.943 1508,284.5C 1516.61,315.351 1508.11,340.184 1482.5,359C 1449.54,375.808 1421.37,369.975 1398,341.5C 1382.75,315.224 1384.08,289.89 1402,265.5C 1411.66,255.307 1423.16,248.307 1436.5,244.5 Z"/></g>
<g><path style="opacity:1" fill="#fcfdfd" d="M 1447.5,314.5 C 1444.38,313.521 1441.04,313.187 1437.5,313.5C 1437.5,325.167 1437.5,336.833 1437.5,348.5C 1432.83,348.5 1428.17,348.5 1423.5,348.5C 1423.5,320.5 1423.5,292.5 1423.5,264.5C 1435.5,264.333 1447.5,264.5 1459.5,265C 1475.21,271.933 1479.71,283.433 1473,299.5C 1469.79,304.382 1465.62,308.215 1460.5,311C 1463.37,313.537 1465.87,316.37 1468,319.5C 1473.04,329.08 1478.21,338.58 1483.5,348C 1477.83,348.667 1472.17,348.667 1466.5,348C 1461.03,336.202 1454.69,325.036 1447.5,314.5 Z"/></g>
<g><path style="opacity:1" fill="#abc6b7" d="M 1437.5,275.5 C 1437.5,284.5 1437.5,293.5 1437.5,302.5C 1441.83,302.5 1446.17,302.5 1450.5,302.5C 1446.03,303.486 1441.36,303.819 1436.5,303.5C 1436.17,293.985 1436.51,284.652 1437.5,275.5 Z"/></g>
<g><path style="opacity:1" fill="#246944" d="M 1437.5,275.5 C 1443.93,275.13 1450.26,275.63 1456.5,277C 1463.41,285.284 1463.07,293.284 1455.5,301C 1453.85,301.608 1452.18,302.108 1450.5,302.5C 1446.17,302.5 1441.83,302.5 1437.5,302.5C 1437.5,293.5 1437.5,284.5 1437.5,275.5 Z"/></g>
<g><path style="opacity:1" fill="#7ca58f" d="M 1447.5,314.5 C 1444.5,314.5 1441.5,314.5 1438.5,314.5C 1438.83,326.012 1438.49,337.346 1437.5,348.5C 1437.5,336.833 1437.5,325.167 1437.5,313.5C 1441.04,313.187 1444.38,313.521 1447.5,314.5 Z"/></g>
<g><path style="opacity:1" fill="#b8cfc2" d="M 1163.5,1134.5 C 1162.83,1183.5 1162.17,1232.5 1161.5,1281.5C 1161.17,1232.16 1161.5,1182.83 1162.5,1133.5C 1163.11,1133.62 1163.44,1133.96 1163.5,1134.5 Z"/></g>
<g><path style="opacity:1" fill="#578c6f" d="M 1072.5,1071.5 C 1072.5,1125.83 1072.5,1180.17 1072.5,1234.5C 1033.66,1234.83 994.996,1234.5 956.5,1233.5C 994.833,1233.5 1033.17,1233.5 1071.5,1233.5C 1071.17,1179.33 1071.5,1125.33 1072.5,1071.5 Z"/></g>
<g><path style="opacity:1" fill="#fdfefd" d="M 1000.5,1430.5 C 1034.3,1428.72 1067.8,1431.06 1101,1437.5C 1107.9,1438.47 1114.4,1440.63 1120.5,1444C 1123.23,1446.63 1125.06,1449.79 1126,1453.5C 1128.1,1471.13 1129.43,1488.8 1130,1506.5C 1127.71,1510.79 1124.21,1513.62 1119.5,1515C 1112.55,1516.16 1105.55,1516.66 1098.5,1516.5C 1096.01,1500.35 1089.34,1486.19 1078.5,1474C 1066.38,1463.95 1052.38,1458.28 1036.5,1457C 1018.42,1455.65 1000.75,1457.65 983.5,1463C 973.925,1466.59 966.092,1472.42 960,1480.5C 954.752,1491.44 955.752,1501.78 963,1511.5C 972.854,1521.18 984.021,1529.01 996.5,1535C 1025.9,1548.53 1054.9,1562.87 1083.5,1578C 1103.02,1588.85 1120.86,1602.02 1137,1617.5C 1159.24,1643.27 1160.24,1669.94 1140,1697.5C 1122.43,1715.71 1101.27,1727.87 1076.5,1734C 1034.17,1743.31 991.499,1744.98 948.5,1739C 932.382,1736.98 916.382,1734.31 900.5,1731C 892,1729.17 886.833,1724 885,1715.5C 880.667,1697.17 876.333,1678.83 872,1660.5C 869.669,1650.99 873.169,1644.83 882.5,1642C 888.528,1641.17 894.528,1641.34 900.5,1642.5C 914.857,1688.02 945.857,1712.52 993.5,1716C 1018.98,1719.04 1042.65,1714.04 1064.5,1701C 1084.74,1681.93 1085.58,1662.09 1067,1641.5C 1052.17,1627.34 1035.67,1615.51 1017.5,1606C 992.711,1593.85 968.044,1581.52 943.5,1569C 926.941,1560.11 911.775,1549.27 898,1536.5C 880.64,1516.05 878.974,1494.39 893,1471.5C 907.224,1455.79 924.724,1445.29 945.5,1440C 963.678,1435.11 982.012,1431.94 1000.5,1430.5 Z"/></g>
<g><path style="opacity:1" fill="#fdfefd" d="M 1378.5,1430.5 C 1411.24,1429.74 1443.91,1430.91 1476.5,1434C 1483.04,1434.92 1489.37,1436.59 1495.5,1439C 1497.71,1440.87 1499.54,1443.04 1501,1445.5C 1501.67,1465.83 1501.67,1486.17 1501,1506.5C 1499.06,1509.11 1496.56,1510.94 1493.5,1512C 1487.56,1513.16 1481.56,1513.66 1475.5,1513.5C 1474.17,1486.32 1460.5,1468.82 1434.5,1461C 1391.34,1451.37 1350.34,1457.03 1311.5,1478C 1280.49,1496.83 1262.66,1524.33 1258,1560.5C 1254.91,1593.16 1261.25,1623.82 1277,1652.5C 1301.63,1688.39 1335.8,1708.56 1379.5,1713C 1405.89,1714 1431.89,1711.33 1457.5,1705C 1468.9,1701.26 1480.24,1697.42 1491.5,1693.5C 1493.63,1693.52 1495.63,1694.02 1497.5,1695C 1501.3,1699.8 1505.47,1704.3 1510,1708.5C 1510.62,1709.45 1510.45,1710.28 1509.5,1711C 1475.52,1729.58 1439.18,1739.91 1400.5,1742C 1351.8,1746.46 1305.8,1737.46 1262.5,1715C 1200.55,1677.27 1176.72,1622.77 1191,1551.5C 1199.88,1525.95 1214.38,1504.11 1234.5,1486C 1266.07,1460.22 1302.07,1443.56 1342.5,1436C 1354.59,1433.74 1366.59,1431.9 1378.5,1430.5 Z"/></g>
<g><path style="opacity:1" fill="#fcfdfd" d="M 679.5,1602.5 C 662.008,1601.5 644.341,1601.17 626.5,1601.5C 626.169,1624.67 626.502,1647.67 627.5,1670.5C 628.111,1682.49 628.611,1694.49 629,1706.5C 633.34,1711.29 638.84,1713.79 645.5,1714C 657.5,1714.33 669.5,1714.67 681.5,1715C 693.115,1715.28 698.282,1721.11 697,1732.5C 695.28,1736.78 692.113,1739.28 687.5,1740C 626.173,1739.77 564.84,1739.43 503.5,1739C 500.906,1737.66 499.406,1735.49 499,1732.5C 496.563,1723.54 499.73,1717.7 508.5,1715C 520.529,1714.78 532.529,1714.11 544.5,1713C 548.772,1712.48 552.605,1710.98 556,1708.5C 557.251,1699.24 557.918,1689.91 558,1680.5C 558.167,1645.83 558.333,1611.17 558.5,1576.5C 558.654,1540.45 558.154,1504.45 557,1468.5C 554.688,1464.42 551.188,1461.92 546.5,1461C 532.122,1459.57 517.789,1458.24 503.5,1457C 495.224,1448.9 495.557,1441.23 504.5,1434C 512.333,1433.83 520.167,1433.67 528,1433.5C 619.164,1433.77 710.33,1433.94 801.5,1434C 805.499,1434.67 808.332,1436.83 810,1440.5C 818.046,1460.75 826.213,1480.92 834.5,1501C 832.706,1507.67 828.206,1510.84 821,1510.5C 818.453,1510.24 815.953,1509.74 813.5,1509C 795.853,1495.51 777.853,1482.51 759.5,1470C 750.726,1464.05 741.059,1460.39 730.5,1459C 698.151,1458.72 665.817,1459.39 633.5,1461C 630.562,1463.02 628.728,1465.86 628,1469.5C 627.5,1505.17 627.333,1540.83 627.5,1576.5C 648.891,1577.01 670.225,1576.17 691.5,1574C 700.592,1572.64 708.425,1568.81 715,1562.5C 717.531,1554.99 719.531,1547.32 721,1539.5C 722.289,1533.07 725.456,1527.9 730.5,1524C 735.891,1523.31 741.225,1523.64 746.5,1525C 749,1526.17 750.833,1528 752,1530.5C 752.008,1565.86 752.842,1601.19 754.5,1636.5C 755.75,1649.75 749.75,1655.25 736.5,1653C 732.934,1652.3 730.1,1650.47 728,1647.5C 725.709,1635.7 722.042,1624.37 717,1613.5C 712.538,1607.85 706.704,1604.68 699.5,1604C 692.88,1602.86 686.214,1602.36 679.5,1602.5 Z"/></g>
<g><path style="opacity:1" fill="#84aa95" d="M 679.5,1602.5 C 662.167,1602.5 644.833,1602.5 627.5,1602.5C 627.5,1625.17 627.5,1647.83 627.5,1670.5C 626.502,1647.67 626.169,1624.67 626.5,1601.5C 644.341,1601.17 662.008,1601.5 679.5,1602.5 Z"/></g>
</svg>
