<?xml version="1.0" encoding="UTF-8"?>
<svg xmlns="http://www.w3.org/2000/svg" xmlns:xlink="http://www.w3.org/1999/xlink" width="412.99pt" height="377.86pt" viewBox="0 0 412.99 377.86" version="1.1">
<defs>
<clipPath id="clip1">
  <path d="M 0 0 L 412.988281 0 L 412.988281 279 L 0 279 Z M 0 0 "/>
</clipPath>
<clipPath id="clip2">
  <path d="M 93 331 L 320 331 L 320 377.859375 L 93 377.859375 Z M 93 331 "/>
</clipPath>
</defs>
<g id="surface1">
<g clip-path="url(#clip1)" clip-rule="nonzero">
<path style=" stroke:none;fill-rule:evenodd;fill:rgb(38.798523%,51.399231%,45.098877%);fill-opacity:1;" d="M 206.496094 -0.00390625 C 212.820313 10.859375 218.753906 22.117188 224.695313 33.359375 C 233.589844 24.226563 241.199219 13.808594 249.972656 4.546875 C 253.378906 16.808594 257.179688 28.679688 260.585938 40.945313 C 271.230469 33.726563 280.6875 25.320313 291.167969 17.941406 C 292.035156 30.554688 293.335938 42.738281 293.949219 55.601563 C 297.019531 54.96875 299.960938 53.488281 302.792969 52.066406 C 311.074219 47.902344 319.960938 43.570313 328.828125 39.679688 C 327.046875 52.136719 325.484375 64.8125 323.773438 77.339844 C 335.78125 75.109375 348.378906 71.277344 360.929688 68.746094 C 356.855469 80.847656 352.476563 92.648438 348.289063 104.636719 C 360.050781 104.582031 374.839844 104.082031 386.203125 103.625 C 380.625 114.5625 372.9375 125.578125 366.488281 136.484375 C 379.132813 138.664063 391.417969 141.210938 404.148438 143.308594 C 395.757813 152.859375 386.640625 161.691406 378.113281 171.109375 C 389.347656 176.390625 401.421875 180.828125 412.992188 185.769531 C 403.164063 193.632813 391.84375 200.003906 381.90625 207.757813 C 392.164063 215.105469 403.027344 221.851563 412.992188 229.496094 C 401.398438 234.328125 389.78125 239.140625 378.113281 243.902344 C 386.355469 253.691406 395.773438 262.300781 404.148438 271.957031 C 391.679688 274.148438 379.335938 276.460938 366.992188 278.78125 C 364.179688 277.132813 361.269531 275.578125 358.398438 273.980469 C 367.886719 251.332031 373.882813 226.429688 371.796875 196.636719 C 369.839844 168.742188 361.355469 145.171875 350.566406 126.121094 C 328.707031 87.535156 293.875 59.023438 246.179688 47.011719 C 219.859375 40.378906 189.699219 40.859375 164.539063 47.515625 C 140.628906 53.84375 119.734375 64.933594 103.375 78.097656 C 86.628906 91.570313 72.359375 108.234375 61.417969 127.890625 C 49.6875 148.960938 41.046875 175.492188 40.945313 207 C 40.859375 233.664063 47.015625 254.695313 54.847656 273.980469 C 51.964844 275.558594 49.117188 277.179688 46.253906 278.78125 C 33.917969 276.457031 21.578125 274.136719 9.097656 271.957031 C 17.519531 262.433594 26.703125 253.671875 35.132813 244.15625 C 23.738281 238.953125 11.777344 234.316406 0 229.496094 C 10.214844 222.015625 21.027344 215.140625 31.339844 207.757813 C 21.21875 200.1875 10.433594 193.28125 0 186.023438 C 11.457031 180.796875 23.84375 176.503906 35.132813 171.109375 C 26.855469 161.695313 16.914063 152.597656 9.351563 143.308594 C 21.84375 141.140625 34.128906 138.765625 46.507813 136.484375 C 40.832031 125.980469 32.664063 114.433594 27.042969 103.878906 C 38.242188 103.9375 54.183594 104.367188 64.703125 104.890625 C 61.421875 93.003906 56.183594 80.890625 52.320313 68.746094 C 64.945313 71.453125 77.066406 74.664063 89.472656 77.59375 C 87.867188 64.878906 86.226563 52.195313 84.417969 39.679688 C 96.308594 44.722656 107.222656 50.746094 119.046875 55.855469 C 120.257813 43.417969 121.0625 30.578125 122.078125 17.941406 C 132.382813 25.414063 142.160156 33.414063 152.410156 40.945313 C 156.355469 29.136719 159.738281 16.765625 163.277344 4.546875 C 171.996094 13.769531 179.726563 23.988281 188.300781 33.359375 C 194.570313 22.445313 200.433594 11.121094 206.496094 -0.00390625 "/>
</g>
<path style=" stroke:none;fill-rule:evenodd;fill:rgb(38.798523%,51.399231%,45.098877%);fill-opacity:1;" d="M 253.761719 75.570313 C 254.398438 78.078125 253.007813 82.894531 253.003906 86.4375 C 251.160156 85.753906 249.285156 85.101563 247.441406 84.417969 C 249.421875 81.34375 251.816406 78.679688 253.761719 75.570313 "/>
<path style=" stroke:none;fill-rule:evenodd;fill:rgb(38.798523%,51.399231%,45.098877%);fill-opacity:1;" d="M 150.386719 87.449219 C 149.425781 85.375 148.679688 83.089844 147.605469 81.132813 C 149.148438 80.390625 150.789063 79.074219 152.660156 79.613281 C 156.496094 80.714844 154.539063 87.773438 150.386719 87.449219 "/>
<path style=" stroke:none;fill-rule:evenodd;fill:rgb(38.798523%,51.399231%,45.098877%);fill-opacity:1;" d="M 129.15625 91.492188 C 132.945313 90.707031 140.328125 97.742188 139.265625 103.371094 C 138.988281 104.851563 137.378906 106.628906 135.472656 106.910156 C 131.898438 107.445313 123.878906 100.605469 125.871094 94.273438 C 126.304688 92.886719 127.261719 91.886719 129.15625 91.492188 "/>
<path style=" stroke:none;fill-rule:evenodd;fill:rgb(38.798523%,51.399231%,45.098877%);fill-opacity:1;" d="M 296.980469 248.703125 C 294.988281 248.761719 294.136719 247.675781 292.179688 247.695313 C 294.757813 240.699219 297.425781 233.386719 299.003906 225.199219 C 304.355469 197.472656 295.8125 170.925781 284.34375 154.429688 C 269.257813 132.726563 243.226563 113.484375 206.75 113.484375 C 170.5 113.484375 144.707031 131.839844 129.15625 154.429688 C 121.46875 165.589844 114.933594 180.300781 112.980469 197.648438 C 110.925781 215.863281 114.875 233.359375 121.320313 247.441406 C 119.691406 247.832031 118.289063 248.453125 116.519531 248.703125 C 108.953125 234.542969 105.875 215.894531 107.671875 197.394531 C 109.375 179.882813 116.164063 164.007813 123.847656 152.40625 C 139.628906 128.574219 167.035156 109.871094 202.957031 108.175781 C 222.804688 107.238281 240.480469 112.9375 254.015625 120.308594 C 267.550781 127.679688 279.253906 138.0625 287.628906 149.878906 C 295.976563 161.65625 303 177.074219 305.320313 195.375 C 307.769531 214.664063 304.242188 234.042969 296.980469 248.703125 "/>
<path style=" stroke:none;fill-rule:evenodd;fill:rgb(38.798523%,51.399231%,45.098877%);fill-opacity:1;" d="M 316.191406 120.308594 C 316.644531 120.234375 316.710938 120.546875 316.441406 120.558594 C 314.324219 123.496094 312.316406 126.542969 309.621094 128.902344 C 308.71875 127.191406 307.148438 126.148438 306.335938 124.351563 C 309.664063 123.046875 313.128906 121.878906 316.191406 120.308594 "/>
<path style=" stroke:none;fill-rule:evenodd;fill:rgb(38.798523%,51.399231%,45.098877%);fill-opacity:1;" d="M 246.179688 161.757813 C 251.480469 158.097656 246.621094 151.085938 241.628906 151.144531 C 235.828125 151.207031 232.148438 155.714844 232.78125 162.011719 C 237.199219 160.9375 242.078125 164.589844 246.179688 161.757813 Z M 166.5625 158.472656 C 172.171875 158.289063 170.609375 152.574219 175.40625 152.152344 C 181.003906 151.664063 181.835938 158.832031 178.1875 160.746094 C 176.167969 161.808594 173.039063 160.792969 170.605469 161.507813 C 167.050781 162.550781 164.203125 167.097656 165.300781 171.109375 C 165.585938 172.160156 166.941406 174.703125 169.847656 174.394531 C 171.464844 174.226563 175.972656 169.4375 177.429688 168.078125 C 184.5 161.480469 190.941406 153.167969 200.683594 149.878906 C 206.355469 147.964844 217.101563 148.335938 221.410156 144.570313 C 225.519531 140.980469 226.25 134.15625 233.542969 133.703125 C 240.40625 133.277344 243.425781 139.277344 248.199219 141.285156 C 252.265625 142.996094 259.4375 141.300781 262.859375 144.570313 C 267.148438 148.667969 263.191406 157.039063 260.332031 159.988281 C 261.386719 167.300781 256.046875 169.863281 251.738281 173.386719 C 244.011719 179.703125 232.726563 185.796875 234.300781 200.429688 C 238.515625 200.746094 239.90625 200.765625 242.386719 199.671875 C 247.875 197.246094 245.078125 189.546875 250.476563 189.308594 C 256.023438 189.0625 255.445313 195.019531 252.246094 197.394531 C 250.988281 198.328125 248.195313 199.117188 248.960938 201.1875 C 249.886719 203.699219 255.96875 201.539063 257.554688 200.683594 C 259.894531 199.410156 260.453125 197.402344 262.605469 196.890625 C 269.535156 195.246094 270.804688 205.511719 265.640625 206.746094 C 262.089844 207.597656 260.257813 205.125 256.035156 205.484375 C 253.589844 205.691406 249.351563 206.667969 249.214844 209.023438 C 249.011719 212.367188 255.742188 212.453125 257.046875 214.332031 C 259.289063 217.554688 256.464844 222.703125 251.738281 221.15625 C 249.355469 220.371094 248.34375 217.226563 247.191406 214.835938 C 243.847656 211.871094 241.914063 209.902344 236.320313 209.78125 C 232.910156 209.707031 227.347656 212.574219 224.949219 210.539063 C 221.839844 207.90625 224.660156 200.023438 221.660156 196.890625 C 217.742188 201.3125 212.925781 204.835938 207.507813 207.757813 C 210.265625 209.605469 213.867188 210.730469 214.332031 214.332031 C 215.449219 222.996094 202.695313 224.617188 196.386719 226.96875 C 197.941406 232.914063 206.308594 232.40625 210.035156 229.496094 C 212.566406 227.519531 213.285156 224.574219 215.847656 224.441406 C 217.785156 224.339844 219.839844 225.832031 220.144531 226.96875 C 222.234375 234.707031 211.480469 230.351563 210.035156 235.054688 C 211.863281 237.246094 215.070313 239.152344 219.640625 239.101563 C 221.929688 239.074219 224.117188 237.921875 226.210938 238.34375 C 230.75 239.253906 231.714844 245.722656 226.96875 247.695313 C 221.097656 247.765625 217.621094 242.648438 211.554688 241.878906 C 208.914063 241.546875 205.625 241.617188 205.234375 243.398438 C 204.382813 247.277344 212.976563 246.121094 211.300781 252.746094 C 210.328125 256.582031 203.8125 256.667969 201.949219 253.253906 C 201.136719 251.769531 201.257813 249.726563 200.683594 248.199219 C 199.667969 245.5 197.929688 242.453125 195.375 240.617188 C 190.789063 237.320313 182.816406 235.691406 178.1875 234.046875 C 174.269531 232.652344 165.039063 229.03125 164.035156 224.441406 C 162.175781 215.949219 172.128906 217.25 174.144531 211.804688 C 165.890625 209.773438 156.5 204.65625 160.242188 193.855469 C 154.574219 193.152344 151.960938 187.789063 151.902344 182.230469 C 151.84375 176.558594 155.066406 170.808594 155.441406 166.054688 C 155.648438 163.414063 154.90625 159.398438 153.417969 157.96875 C 150.699219 155.347656 146.5625 157.214844 146.59375 152.152344 C 146.621094 147.96875 151.71875 145.398438 154.683594 148.363281 C 156.425781 150.105469 155.113281 157.589844 158.222656 157.714844 C 160.203125 157.792969 161.839844 152.042969 162.519531 148.617188 C 163.71875 142.554688 162.339844 134.210938 168.332031 133.703125 C 171.339844 133.449219 174.042969 135.816406 173.640625 139.515625 C 173.300781 142.621094 169.886719 145.820313 168.332031 148.363281 C 166.511719 151.339844 164.132813 154.15625 166.5625 158.472656 "/>
<path style=" stroke:none;fill-rule:evenodd;fill:rgb(38.798523%,51.399231%,45.098877%);fill-opacity:1;" d="M 245.167969 158.726563 C 243.433594 156.921875 239.363281 156.84375 237.078125 158.21875 C 236.59375 153.023438 246.640625 151.972656 245.167969 158.726563 "/>
<path style=" stroke:none;fill-rule:evenodd;fill:rgb(38.798523%,51.399231%,45.098877%);fill-opacity:1;" d="M 137.242188 162.769531 C 137.582031 164.117188 135.761719 163.3125 134.96875 163.527344 C 134.96875 166.140625 134.96875 168.75 134.96875 171.363281 C 134.464844 171.363281 133.957031 171.363281 133.453125 171.363281 C 133.207031 169.949219 133.605469 166.566406 133.453125 163.78125 C 133.070313 163.152344 131.273438 163.933594 130.925781 163.273438 C 130.789063 161.960938 133.113281 162.582031 134.210938 162.515625 C 135.34375 162.449219 136.992188 161.652344 137.242188 162.769531 "/>
<path style=" stroke:none;fill-rule:evenodd;fill:rgb(38.798523%,51.399231%,45.098877%);fill-opacity:1;" d="M 140.527344 162.515625 C 141.230469 164.933594 141.941406 167.339844 142.550781 169.847656 C 143.46875 167.5625 144.253906 165.148438 144.824219 162.515625 C 145.585938 162.515625 146.34375 162.515625 147.101563 162.515625 C 146.90625 165.742188 147.425781 168.257813 147.355469 171.363281 C 146.984375 171.5 146.046875 171.066406 146.089844 171.617188 C 145.503906 169.84375 146.003906 166.984375 145.835938 164.789063 C 144.542969 166.445313 144.097656 168.949219 143.5625 171.363281 C 142.886719 171.363281 142.214844 171.363281 141.539063 171.363281 C 141.1875 168.769531 140.164063 166.839844 139.769531 164.285156 C 138.957031 166.167969 140.265625 170.171875 138.761719 171.363281 C 137.179688 171.140625 138.21875 169.246094 138.253906 168.078125 C 138.300781 166.527344 138.21875 164.714844 138.253906 163.273438 C 138.550781 163.234375 138.46875 162.8125 138.507813 162.515625 C 139.183594 162.515625 139.855469 162.515625 140.527344 162.515625 "/>
<path style=" stroke:none;fill-rule:evenodd;fill:rgb(38.798523%,51.399231%,45.098877%);fill-opacity:1;" d="M 73.296875 163.527344 C 76.503906 163.1875 80.765625 163.976563 84.164063 164.285156 C 83.886719 166.28125 82.929688 167.597656 82.648438 169.59375 C 79.128906 167.976563 76.578125 165.386719 73.296875 163.527344 "/>
<path style=" stroke:none;fill-rule:evenodd;fill:rgb(38.798523%,51.399231%,45.098877%);fill-opacity:1;" d="M 75.066406 192.339844 C 72.511719 192.285156 70.453125 191.734375 67.988281 191.582031 C 66.316406 183.972656 77.363281 184.597656 75.066406 192.339844 "/>
<path style=" stroke:none;fill-rule:evenodd;fill:rgb(38.798523%,51.399231%,45.098877%);fill-opacity:1;" d="M 73.296875 295.210938 C 73.246094 305.136719 80.480469 314.757813 89.726563 315.429688 C 96.910156 315.953125 101.816406 312.558594 106.40625 308.355469 C 105.898438 305.496094 104.664063 303.359375 103.628906 301.023438 C 100.910156 304.117188 99.121094 307.066406 94.78125 307.597656 C 80.21875 309.367188 76.886719 281.074219 95.285156 285.101563 C 94.546875 282.640625 93.910156 280.074219 92.507813 278.277344 C 81.949219 279.097656 73.351563 284.726563 73.296875 295.210938 Z M 324.785156 315.429688 C 333.0625 314.289063 340.167969 302.550781 339.695313 293.695313 C 339.074219 282.0625 325.238281 280.941406 316.949219 276.253906 C 312.136719 286.941406 307.269531 297.582031 302.542969 308.355469 C 310.308594 310.433594 314.851563 316.796875 324.785156 315.429688 Z M 103.878906 272.96875 C 107.757813 283.667969 111.449219 294.550781 114.496094 306.078125 C 122.0625 304.289063 128.648438 301.527344 135.980469 299.507813 C 135.648438 297.140625 135.320313 294.773438 134.210938 293.1875 C 130.160156 293.859375 125.886719 296.492188 121.066406 297.234375 C 120.484375 294.277344 119.378906 291.84375 118.539063 289.144531 C 122.347656 287.8125 126.824219 287.148438 129.914063 285.101563 C 128.988281 283.496094 129.28125 280.679688 127.890625 279.539063 C 124.335938 280.953125 120.519531 282.109375 116.769531 283.332031 C 115.949219 280.953125 115.003906 278.695313 114.496094 276 C 118.355469 274.550781 122.550781 273.441406 126.628906 272.210938 C 126.109375 270.117188 126.074219 267.539063 124.859375 266.144531 C 117.824219 268.378906 110.671875 270.492188 103.878906 272.96875 Z M 283.585938 265.386719 C 280.519531 276.894531 276.808594 287.757813 273.476563 299 C 280.800781 300.945313 287.402344 303.609375 294.960938 305.320313 C 295.515625 303.097656 296.679688 301.476563 296.980469 299 C 292.414063 297.921875 287.820313 296.875 283.839844 295.210938 C 284.664063 292.496094 285.378906 289.671875 286.367188 287.121094 C 290.078125 288.214844 293.519531 289.574219 297.488281 290.40625 C 298.546875 288.855469 299.011719 286.707031 299.761719 284.847656 C 296.222656 283.25 291.5 282.832031 288.136719 281.058594 C 288.9375 278.738281 289.414063 276.101563 290.410156 273.980469 C 294.832031 274.863281 298.234375 276.773438 302.792969 277.519531 C 303.414063 275.609375 304.195313 273.863281 304.816406 271.957031 C 297.953125 269.554688 290.78125 267.457031 283.585938 265.386719 Z M 261.089844 260.332031 C 259.152344 272.210938 256.644531 283.515625 254.265625 294.957031 C 257.457031 295.308594 260.035156 296.265625 263.367188 296.472656 C 265.203125 284.578125 267.902344 273.546875 270.191406 262.101563 C 267.117188 261.550781 264.054688 260.992188 261.089844 260.332031 Z M 162.519531 263.363281 C 157.59375 256.210938 145.105469 261.96875 137.242188 262.859375 C 139.742188 274.175781 141.949219 285.785156 144.066406 297.484375 C 146.964844 296.929688 149.671875 296.183594 152.660156 295.714844 C 152.433594 291.785156 150.105469 286.511719 150.132813 282.320313 C 153.554688 281.789063 155.265625 285.285156 156.957031 287.375 C 158.828125 289.6875 160.332031 292.488281 162.519531 294.199219 C 165.035156 292.925781 169.019531 293.117188 171.363281 291.671875 C 170.933594 290.371094 169.589844 289.644531 168.585938 288.640625 C 165.335938 285.390625 162.085938 281.867188 159.484375 278.277344 C 164.804688 276.257813 165.507813 267.707031 162.519531 263.363281 Z M 228.234375 256.035156 C 227.441406 268.132813 225.949219 279.53125 224.695313 291.164063 C 227.992188 291.15625 230.929688 291.503906 233.792969 291.925781 C 234.636719 287.546875 234 281.683594 235.3125 277.769531 C 239.101563 277.855469 242.316406 278.515625 245.925781 278.78125 C 246.550781 276.875 246.894531 274.691406 247.191406 272.460938 C 244.367188 271.976563 239.285156 272.078125 235.816406 271.453125 C 235.964844 268.566406 236.085938 265.65625 236.828125 263.363281 C 240.59375 264.0625 244.867188 264.253906 248.707031 264.878906 C 249.414063 262.894531 249.867188 260.648438 249.972656 258.054688 C 242.445313 257.660156 235.710938 256.476563 228.234375 256.035156 Z M 171.113281 257.046875 C 171.113281 259.234375 171.113281 261.425781 171.113281 263.617188 C 174.121094 263.59375 176.734375 263.171875 179.453125 262.859375 C 180.214844 272.207031 180.835938 281.695313 181.222656 291.417969 C 183.753906 291.566406 187.613281 290.921875 190.574219 290.660156 C 189.917969 281.289063 188.371094 271.46875 188.550781 262.101563 C 191.351563 262.121094 194.003906 261.992188 196.386719 261.59375 C 196.066406 259.652344 196.886719 255.789063 195.628906 255.277344 C 188.167969 255.570313 178.992188 256.328125 171.113281 257.046875 Z M 205.484375 261.089844 C 205.519531 270.980469 205.578125 280.894531 204.980469 290.15625 C 207.507813 290.746094 211.128906 290.242188 214.078125 290.40625 C 215.183594 279.605469 213.40625 266.949219 214.839844 256.539063 C 215.226563 253.726563 216.414063 250.542969 214.585938 247.695313 C 218.371094 248.824219 221.480469 252.820313 225.960938 252.746094 C 230.84375 252.667969 235.195313 248.980469 235.058594 242.890625 C 292.222656 248.496094 337.121094 266.359375 375.585938 290.660156 C 368.792969 311.164063 358.804688 328.472656 346.773438 343.738281 C 310.15625 320.945313 266.375 302.289063 207.003906 302.289063 C 147.886719 302.289063 103.558594 320.6875 67.230469 343.738281 C 54.785156 328.886719 45.207031 311.167969 38.164063 290.914063 C 76.875 265.878906 125.113281 246.925781 184.003906 242.640625 C 187.210938 242.40625 190.929688 243.15625 192.847656 244.660156 C 198.324219 248.957031 196.15625 260.222656 205.484375 261.089844 "/>
<path style=" stroke:none;fill-rule:evenodd;fill:rgb(38.798523%,51.399231%,45.098877%);fill-opacity:1;" d="M 148.871094 276.507813 C 148.320313 273.351563 147.683594 270.277344 147.101563 267.15625 C 156.777344 262.195313 158.808594 276.953125 148.871094 276.507813 "/>
<path style=" stroke:none;fill-rule:evenodd;fill:rgb(38.798523%,51.399231%,45.098877%);fill-opacity:1;" d="M 313.410156 306.078125 C 315.914063 298.894531 319.324219 292.617188 322.257813 285.859375 C 327.359375 287.3125 331.058594 289.65625 330.347656 295.714844 C 329.464844 303.226563 322.125 311.789063 313.410156 306.078125 "/>
<path style=" stroke:none;fill-rule:evenodd;fill:rgb(38.798523%,51.399231%,45.098877%);fill-opacity:1;" d="M 205.484375 334.894531 C 205.621094 335.871094 205.035156 336.125 205.234375 337.164063 C 205.945313 338.019531 207.371094 336.589844 208.011719 337.417969 C 208.078125 342.800781 207.867188 346.964844 208.265625 351.828125 C 209.476563 351.996094 211.046875 351.566406 211.554688 351.828125 C 211.398438 346.027344 210.964844 338.570313 211.046875 334.132813 C 209.164063 334.359375 207.5 334.800781 205.484375 334.894531 Z M 224.949219 350.816406 C 231.644531 348.777344 231.25 334.292969 224.441406 333.121094 C 218.273438 332.0625 213.816406 339.414063 218.375 343.484375 C 220.683594 345.546875 225 344.402344 226.71875 343.234375 C 227.144531 347.832031 222.964844 349.511719 218.882813 348.035156 C 218.863281 349.617188 219.113281 349.359375 219.136719 350.816406 C 221.503906 351.058594 223.46875 351.265625 224.949219 350.816406 Z M 182.234375 331.609375 C 181.851563 332.320313 181.621094 333.1875 181.726563 334.386719 C 183.035156 334.847656 185.308594 334.34375 186.277344 335.144531 C 185.691406 340.289063 184.617188 344.945313 184.253906 350.308594 C 185.492188 350.25 186.167969 350.757813 187.539063 350.5625 C 188.5625 345.773438 188.539063 339.9375 189.816406 335.398438 C 191.3125 335.582031 192.667969 335.914063 194.363281 335.902344 C 194.28125 334.894531 194.816406 334.5 194.617188 333.375 C 190.515625 332.761719 186.09375 332.464844 182.234375 331.609375 Z M 243.144531 330.089844 C 237.34375 327.105469 229.53125 335.414063 236.574219 339.1875 C 233.066406 342.324219 236.441406 347.121094 239.605469 347.53125 C 246.777344 348.449219 251.605469 339.757813 244.15625 336.660156 C 246.371094 334.730469 244.960938 331.023438 243.144531 330.089844 Z M 167.320313 334.894531 C 167.785156 338.570313 173.667969 339.648438 173.640625 342.726563 C 173.59375 347.402344 166.796875 343.851563 165.300781 342.476563 C 165.011719 343.367188 164.515625 344.050781 164.539063 345.257813 C 169.203125 350.300781 179.984375 347.15625 176.671875 340.199219 C 175.410156 337.550781 170.464844 336.527344 170.605469 333.882813 C 170.820313 329.882813 176.859375 333.25 178.441406 334.132813 C 178.597656 333.195313 179.042969 332.546875 179.199219 331.609375 C 174.925781 327.882813 166.535156 328.6875 167.320313 334.894531 Z M 154.9375 323.519531 C 153.234375 329.484375 150.464844 334.382813 148.871094 340.453125 C 152.445313 341.429688 155.289063 343.132813 158.980469 343.992188 C 159.28125 343.195313 159.832031 342.652344 159.992188 341.714844 C 157.644531 340.609375 154.648438 340.148438 152.660156 338.683594 C 153.519531 337.347656 153.84375 335.484375 154.683594 334.132813 C 157.167969 334.601563 158.859375 335.855469 161.253906 336.410156 C 161.4375 335.5 162.167969 335.132813 162.011719 333.882813 C 159.953125 332.992188 157.5625 332.433594 155.695313 331.351563 C 156.335938 329.890625 156.605469 328.054688 157.71875 327.058594 C 159.808594 328 161.8125 329.027344 164.289063 329.582031 C 164.769531 328.96875 165.417969 328.523438 165.300781 327.308594 C 161.78125 326.109375 158.75 324.425781 154.9375 323.519531 Z M 247.441406 327.5625 C 247.273438 328.742188 247.839844 329.1875 247.949219 330.089844 C 250.953125 329.390625 253.09375 327.820313 256.035156 327.058594 C 256.09375 332.503906 255.933594 337.738281 255.53125 342.726563 C 256.648438 343.246094 257.757813 341.820313 259.070313 341.714844 C 258.6875 335.828125 258.925781 328.675781 258.816406 323.265625 C 254.65625 324.332031 251.464844 326.359375 247.441406 327.5625 Z M 306.585938 329.078125 C 304.332031 332.257813 300.804688 334.363281 297.488281 336.660156 C 274.6875 352.46875 245.007813 365.476563 206.75 365.476563 C 162.59375 365.476563 131.101563 348.914063 106.15625 329.582031 C 130.972656 318.152344 161.894531 310.007813 196.894531 308.355469 C 240.109375 306.3125 276.988281 316.738281 306.585938 329.078125 "/>
<g clip-path="url(#clip2)" clip-rule="nonzero">
<path style=" stroke:none;fill-rule:evenodd;fill:rgb(38.798523%,51.399231%,45.098877%);fill-opacity:1;" d="M 98.824219 331.859375 C 98.992188 331.859375 99.164063 331.859375 99.332031 331.859375 C 124.738281 352.972656 159.582031 372.507813 206.496094 372.046875 C 253.652344 371.582031 287.34375 353.621094 313.410156 331.859375 C 315.570313 332.476563 317.246094 333.582031 319.222656 334.386719 C 292.167969 358.011719 256.558594 377.863281 206.242188 377.859375 C 156.085938 377.859375 120.386719 358.082031 93.519531 334.386719 C 95.285156 333.539063 97.097656 332.742188 98.824219 331.859375 "/>
</g>
<path style=" stroke:none;fill-rule:evenodd;fill:rgb(38.798523%,51.399231%,45.098877%);fill-opacity:1;" d="M 237.078125 336.15625 C 235.402344 331.558594 242.238281 331.097656 242.386719 334.386719 C 242.484375 336.5625 239.136719 337.894531 237.078125 336.15625 "/>
<path style=" stroke:none;fill-rule:evenodd;fill:rgb(38.798523%,51.399231%,45.098877%);fill-opacity:1;" d="M 220.902344 341.714844 C 216.109375 335.863281 226.949219 333.21875 226.210938 339.441406 C 225.96875 341.488281 223.582031 342.433594 220.902344 341.714844 "/>
<path style=" stroke:none;fill-rule:evenodd;fill:rgb(38.798523%,51.399231%,45.098877%);fill-opacity:1;" d="M 240.363281 339.441406 C 246.542969 337.492188 245.390625 346.214844 240.113281 345 C 238.171875 344.558594 237.480469 340.351563 240.363281 339.441406 "/>
<path style=" stroke:none;fill-rule:evenodd;fill:rgb(38.798523%,51.399231%,45.098877%);fill-opacity:1;" d="M 316.191406 229.242188 C 307.558594 254.117188 347.144531 263.773438 352.082031 240.617188 C 341.902344 236.933594 332.542969 243.015625 329.585938 248.957031 C 330.074219 237.433594 324.914063 231.554688 316.191406 229.242188 Z M 82.648438 249.464844 C 79.613281 242.539063 69.773438 236.882813 59.902344 240.871094 C 62.859375 251.703125 74.136719 256.675781 85.429688 252.496094 C 91.691406 250.179688 96.957031 243.753906 97.054688 236.066406 C 97.089844 233.589844 96.777344 230.746094 95.285156 229.242188 C 87.144531 231.902344 81.421875 238.273438 82.648438 249.464844 Z M 339.695313 213.574219 C 331.007813 215.894531 326.449219 231.578125 333.378906 239.101563 C 341.519531 236.175781 345.785156 221.828125 339.695313 213.574219 Z M 72.539063 213.574219 C 66.242188 221.601563 70.578125 236.804688 79.109375 239.101563 C 85.269531 230.933594 81.046875 216.066406 72.539063 213.574219 Z M 324.785156 186.023438 C 325.019531 191.09375 326.113281 195.3125 326.300781 200.429688 C 327.222656 200.867188 328.394531 200.207031 330.347656 200.429688 C 330.34375 197 328.960938 193.039063 329.332031 190.824219 C 331.675781 190.808594 333.46875 190.242188 335.652344 190.066406 C 335.640625 193.027344 336.425781 195.191406 336.410156 198.15625 C 337.925781 198.320313 338.878906 197.925781 340.203125 197.902344 C 339.941406 195.042969 339.242188 192.628906 339.191406 189.5625 C 341.355469 189.617188 342.796875 188.957031 345.003906 189.054688 C 345.363281 191.878906 345.632813 195.636719 346.015625 197.648438 C 347.167969 197.539063 348.796875 197.902344 349.554688 197.394531 C 349.164063 192.390625 348.5 187.667969 347.785156 182.988281 C 340.445313 184.328125 332.414063 184.976563 324.785156 186.023438 Z M 67.484375 181.472656 C 63.828125 183.8125 64.726563 191.847656 63.691406 196.386719 C 71.546875 197.296875 79.3125 198.289063 86.945313 199.417969 C 87.011719 197.460938 87.566406 195.992188 87.453125 193.855469 C 84.4375 193.503906 81.109375 193.460938 78.351563 192.847656 C 78.171875 191.910156 78.785156 191.761719 78.605469 190.824219 C 81.820313 189.40625 85.417969 188.367188 88.714844 187.03125 C 88.65625 184.871094 89.195313 183.300781 89.222656 181.21875 C 85.269531 182.664063 82.09375 184.878906 77.847656 186.023438 C 77.59375 181.144531 71.09375 179.164063 67.484375 181.472656 Z M 335.652344 160.496094 C 323.886719 159.507813 316.269531 172.398438 324.785156 181.21875 C 326.074219 180.742188 327.871094 180.765625 328.828125 179.957031 C 327.082031 178.113281 325.4375 176.59375 325.542969 173.386719 C 325.859375 163.832031 345.394531 163.234375 341.464844 175.914063 C 342.8125 175.410156 344.742188 175.480469 345.761719 174.648438 C 345.777344 166.992188 342.585938 161.078125 335.652344 160.496094 Z M 71.78125 158.472656 C 71.347656 161.074219 70.257813 163.015625 69.757813 165.550781 C 76.402344 170.363281 82.804688 175.421875 89.472656 180.210938 C 90.015625 178.644531 90.5625 177.085938 90.988281 175.40625 C 89.171875 174.191406 87.011719 173.320313 85.683594 171.617188 C 86.445313 169.175781 87.046875 166.578125 88.210938 164.539063 C 90.316406 164.707031 92.3125 164.984375 94.527344 165.042969 C 95.246094 163.402344 95.644531 161.441406 96.296875 159.734375 C 88.179688 159.261719 80.070313 158.777344 71.78125 158.472656 Z M 77.339844 146.339844 C 84.757813 149.289063 91.15625 153.25 98.320313 156.449219 C 99.203125 154.808594 99.933594 153.011719 100.847656 151.394531 C 93.429688 148.28125 86.84375 144.339844 79.617188 141.03125 C 79.082031 143.027344 77.738281 144.210938 77.339844 146.339844 Z M 95.285156 116.769531 C 94.722656 118.226563 93.507813 119.035156 93.011719 120.558594 C 97.28125 123.367188 101.808594 125.917969 105.648438 129.152344 C 99.660156 128.738281 93.085938 128.910156 87.199219 128.394531 C 86.183594 129.992188 84.828125 131.25 84.164063 133.195313 C 90.847656 137.300781 96.863281 142.070313 103.375 146.339844 C 104.003906 144.949219 105.242188 144.164063 105.648438 142.550781 C 101.199219 139.25 96.296875 136.402344 91.746094 133.195313 C 98.140625 133.636719 106.148438 133.789063 112.222656 133.703125 C 113.121094 132.664063 113.929688 131.535156 114.496094 130.164063 C 108.058594 125.734375 101.976563 120.949219 95.285156 116.769531 Z M 316.441406 116.261719 C 308.878906 118.976563 301.597656 121.976563 293.695313 124.351563 C 294.644531 125.929688 295.519531 127.582031 297.234375 128.394531 C 298.976563 127.4375 300.945313 126.714844 302.792969 125.867188 C 304.390625 127.898438 306.050781 129.859375 307.597656 131.933594 C 306.335938 133.871094 304.570313 135.3125 303.554688 137.496094 C 305.027344 138.632813 305.835938 140.433594 307.34375 141.539063 C 311.863281 134.765625 316.925781 128.539063 321.496094 121.824219 C 319.644531 120.136719 318.675781 117.570313 316.441406 116.261719 Z M 286.367188 118.539063 C 288.152344 119.445313 288.957031 121.339844 290.914063 122.078125 C 293.699219 118.390625 298.679688 113.265625 302.542969 109.1875 C 303.476563 108.199219 306.632813 105.746094 306.585938 104.890625 C 306.550781 104.199219 302.328125 101.410156 302.035156 101.097656 C 297.289063 107.390625 291.371094 112.507813 286.367188 118.539063 Z M 111.714844 99.835938 C 108.621094 103.476563 104.742188 106.34375 101.859375 110.195313 C 107.523438 115.402344 112.886719 120.90625 118.035156 126.625 C 119.769531 125.582031 120.964844 123.996094 122.078125 122.328125 C 119.851563 120.09375 117.453125 118.023438 115.253906 115.757813 C 117.171875 114.222656 118.644531 112.238281 120.5625 110.703125 C 120.242188 109.339844 118.921875 108.972656 118.539063 107.667969 C 115.980469 108.984375 114.90625 111.785156 112.472656 113.230469 C 111.5625 111.359375 109.53125 110.609375 108.683594 108.679688 C 110.292969 106.328125 113.0625 105.144531 114.496094 102.613281 C 113.292969 101.964844 113.050781 100.351563 111.714844 99.835938 Z M 273.730469 108.429688 C 277.355469 110.699219 280.289063 113.660156 284.09375 115.757813 C 285.113281 114.925781 285.988281 113.945313 286.617188 112.726563 C 284.566406 111.324219 282.347656 110.085938 280.554688 108.429688 C 284.144531 102.921875 288.648438 98.324219 292.179688 92.757813 C 290.785156 91.539063 289.199219 90.511719 287.628906 89.472656 C 283.261719 96.054688 278.1875 101.933594 273.730469 108.429688 Z M 121.574219 93.011719 C 117.855469 100.304688 124.738281 111.265625 132.441406 111.460938 C 136.921875 111.574219 143.09375 108.152344 144.066406 103.121094 C 145.675781 94.820313 137.851563 86.222656 130.925781 86.945313 C 126.476563 87.40625 122.929688 90.347656 121.574219 93.011719 Z M 271.203125 79.867188 C 268.933594 84.089844 265.390625 90.429688 262.605469 95.285156 C 262.132813 96.113281 259.769531 99.816406 259.828125 100.085938 C 259.949219 100.632813 261.78125 101.140625 262.605469 101.605469 C 265.703125 103.339844 268.335938 105.269531 271.203125 106.40625 C 271.796875 105.148438 272.851563 104.347656 273.222656 102.867188 C 270.839844 101.878906 268.628906 100.722656 266.652344 99.328125 C 269.703125 93.53125 273.210938 88.195313 276.257813 82.394531 C 274.527344 81.597656 273.171875 80.421875 271.203125 79.867188 Z M 156.199219 75.570313 C 151.585938 73.394531 145.285156 78.976563 141.285156 79.867188 C 144.347656 87.085938 147.851563 93.859375 150.640625 101.351563 C 152.480469 100.578125 154.589844 100.078125 155.945313 98.824219 C 154.445313 96.28125 153.125 93.558594 151.902344 90.734375 C 156.332031 88.9375 158.640625 95.09375 162.519531 96.296875 C 164.257813 95.589844 165.554688 94.445313 167.574219 94.019531 C 164.558594 91.222656 160.480469 89.488281 157.464844 86.691406 C 161.519531 83.980469 159.484375 77.117188 156.199219 75.570313 Z M 251.738281 71.777344 C 247.105469 78.605469 241.597656 84.554688 236.828125 91.242188 C 238.433594 91.65625 239.71875 92.394531 241.378906 92.757813 C 242.925781 91.1875 243.839844 88.988281 245.421875 87.449219 C 247.683594 88.472656 250.457031 88.984375 252.496094 90.230469 C 252.328125 92.421875 252.003906 94.453125 251.738281 96.550781 C 253.539063 97.191406 255.09375 98.082031 257.300781 98.316406 C 257.667969 90.09375 258.417969 82.25 259.070313 74.308594 C 256.636719 73.453125 254.371094 72.433594 251.738281 71.777344 Z M 165.550781 70.261719 C 167.601563 77.648438 169.53125 85.15625 171.113281 93.011719 C 175.847656 91.765625 180.730469 90.667969 185.519531 89.472656 C 185.257813 88.050781 185.261719 86.359375 184.507813 85.429688 C 181.726563 86.4375 178.671875 87.175781 175.660156 87.953125 C 175.117188 85.886719 174.480469 83.910156 174.144531 81.636719 C 176.675781 80.796875 179.988281 80.738281 181.980469 79.363281 C 181.71875 79.046875 181.640625 77.234375 181.222656 76.328125 C 178.15625 76.550781 176.175781 77.851563 173.132813 78.097656 C 172.675781 76.28125 172.222656 74.457031 171.871094 72.539063 C 174.652344 71.78125 177.464844 71.054688 180.464844 70.515625 C 180.011719 69.367188 180.289063 67.488281 179.453125 66.722656 C 175.023438 68.109375 170.207031 69.105469 165.550781 70.261719 Z M 209.277344 64.195313 C 208.898438 65.335938 208.710938 66.660156 208.769531 68.242188 C 210.820313 68.214844 212.835938 68.222656 214.332031 68.746094 C 213.96875 75.210938 212.992188 82.398438 212.816406 88.207031 C 214.667969 88.207031 216.523438 88.207031 218.375 88.207031 C 219.042969 81.882813 218.894531 74.738281 219.894531 68.746094 C 221.609375 68.96875 223.222656 69.289063 225.199219 69.25 C 225.476563 68.09375 225.589844 66.777344 225.707031 65.460938 C 220.269531 64.996094 214.71875 64.648438 209.277344 64.195313 Z M 189.058594 75.066406 C 191.296875 78.230469 198.882813 77.824219 199.167969 81.636719 C 199.300781 83.425781 198.117188 84.480469 196.894531 84.921875 C 193.53125 86.132813 190.476563 83.734375 189.058594 84.164063 C 189.417969 84.695313 189.273438 86.65625 189.308594 88.207031 C 194.101563 89.273438 199.320313 89.257813 202.199219 86.945313 C 204.902344 84.773438 205.679688 78.960938 202.707031 76.074219 C 200.296875 73.738281 193.503906 74.101563 193.355469 70.769531 C 193.179688 66.789063 199.6875 67.835938 202.199219 69 C 202.25 67.359375 201.957031 65.839844 201.949219 64.953125 C 193.78125 61.613281 184.21875 68.21875 189.058594 75.066406 Z M 315.433594 157.714844 C 316.410156 158.589844 316.808594 160.046875 317.453125 161.253906 C 324.300781 157.484375 331.703125 154.269531 338.179688 150.132813 C 337.488281 148.800781 336.984375 147.285156 335.902344 146.339844 C 331.785156 149.042969 327.449219 151.535156 322.761719 153.671875 C 325.742188 148.398438 328.527344 142.921875 331.609375 137.746094 C 330.804688 136.023438 330.238281 134.0625 328.828125 132.945313 C 321.925781 136.40625 315.585938 140.429688 308.355469 143.558594 C 309.191406 144.914063 309.429688 146.867188 310.882813 147.605469 C 315.730469 144.953125 320.410156 142.136719 325.289063 139.515625 C 321.96875 145.546875 318.476563 151.40625 315.433594 157.714844 Z M 351.070313 269.683594 C 335.296875 262.625 319.785156 255.300781 302.035156 250.222656 C 309.054688 234.464844 312.863281 214.558594 310.378906 194.363281 C 308.035156 175.347656 300.769531 159.371094 292.179688 147.097656 C 275.199219 122.839844 246.902344 102.109375 205.992188 102.109375 C 165.226563 102.109375 136.910156 122.695313 119.804688 147.097656 C 111.28125 159.257813 103.660156 175.375 101.605469 194.363281 C 99.417969 214.585938 102.824219 234.113281 109.695313 250.222656 C 92.429688 255.621094 76.25 262.101563 61.417969 269.9375 C 50.667969 247.332031 45.90625 217.835938 49.285156 188.042969 C 52.414063 160.476563 63.261719 136.457031 75.824219 118.03125 C 94.8125 90.183594 122.839844 67.277344 158.980469 56.359375 C 171.800781 52.488281 185.90625 50.007813 201.1875 49.285156 C 232.746094 47.792969 260.058594 57.203125 281.058594 68.492188 C 302.359375 79.941406 320.480469 95.710938 333.882813 114.492188 C 347.222656 133.183594 358.152344 156.472656 362.191406 185.011719 C 366.515625 215.550781 361.308594 246.394531 351.070313 269.683594 "/>
</g>
</svg>
