<?xml version="1.0" encoding="utf-8"?>
<!-- Generator: Adobe Illustrator 26.0.3, SVG Export Plug-In . SVG Version: 6.00 Build 0)  -->
<svg version="1.1" id="Layer_2" xmlns="http://www.w3.org/2000/svg" xmlns:xlink="http://www.w3.org/1999/xlink" x="0px" y="0px"
	 viewBox="0 0 500 500" style="enable-background:new 0 0 500 500;" xml:space="preserve">
<style type="text/css">
	.st0{fill:#FFFFFF;}
	.st1{fill:#2D3D81;}
	.st2{fill:#24305D;}
	.st3{fill:#CFA86B;}
	.st4{fill:#303B81;}
	.st5{fill:#F4F8F8;}
</style>
<rect class="st0" width="500" height="500"/>
<g id="Color">
	<g>
		<g>
			<g>
				<path class="st1" d="M228.4,113.8l135.3-1.5l0-1.1l-135.4,1.5C228.4,113.1,228.4,113.4,228.4,113.8L228.4,113.8z"/>
				<path class="st1" d="M192.9,113.1l-51.5,0.6l0,1.1l49.8-0.6C191.8,113.8,192.3,113.4,192.9,113.1L192.9,113.1z"/>
				<path class="st1" d="M211.1,143.9l183.3-1.6v-1.1L211,142.8C211.1,143.2,211.1,143.6,211.1,143.9L211.1,143.9z"/>
				<path class="st1" d="M190.8,143l-78.9,0.7v1.1l78.9-0.7C190.8,143.7,190.8,143.4,190.8,143z"/>
				<polygon class="st1" points="86.9,191.3 86.9,190.2 421.4,187.7 421.4,188.9 				"/>
				<polygon class="st1" points="108,348.9 108,347.7 401.8,345.3 401.8,346.4 				"/>
				<polygon class="st1" points="137.6,381 137.6,379.8 373.4,377.4 373.4,378.5 				"/>
				<path class="st1" d="M257.1,211.2c-0.4,0-0.8,0-1.1,0l-0.1-7.8l0-1l-0.1-3.3l-0.2-9l0,0l0-1.1l-0.5-25.9l-0.3-19.5l0,0l0-1.1
					l-0.5-28.9l0-1.1l0,0l-0.6-35.1l0,0l0-1.1c0,0,0,0,0,0V76l0,0v-0.5l0-0.2l0-0.6h0.6v0h0.6l0,0.6v0.6l0,0l0,0.7l0.6,35.7l0,0
					l0,1.1l0.5,28.9l0,0l0,1.1l0.4,20.3l0.4,25.1l0,1.1l0.2,9l0,1.1v0l0,2.2l0,1L257.1,211.2L257.1,211.2z"/>
				<path class="st1" d="M260.9,423.1l-0.6,0h-0.6l0-0.3v-0.3l0-1.5l0-1.4l-0.3-19.5l-0.4-20.3l0-1.1l0-1.3l-0.5-29.6l0-1.1
					l-0.2-13.7l-0.2-9.6l-0.4-21.4c0.4,0,0.8,0,1.1,0l0.4,21.5l0.2,9.5l0.2,13.6l0,1.1l0.5,29.4l0,1.6l0,1.1l0.3,19.3l0.4,21.4
					l0,0.9v0.5l0,0.6L260.9,423.1L260.9,423.1z"/>
				<path class="st1" d="M326.3,198.9c-0.4,0-0.8,0-1.1,0c-0.6-3.7-0.7-4.4-1.5-8.1c-0.1-0.4-0.2-0.8-0.3-1.2
					c-0.1-0.4-0.2-0.8-0.3-1.1c-1.9-8.7-4.4-17.2-7.4-25.5c-0.2-0.5-0.4-1-0.5-1.5c-2.4-6.5-5.1-12.6-7.9-18.4
					c-0.2-0.4-0.4-0.8-0.6-1.1c-2.5-5.1-5.2-9.8-7.9-14.3c-3.1-5.2-6.3-10-9.5-14.5c-0.3-0.4-0.5-0.8-0.8-1.1
					c-14.7-20.1-28.8-32.1-33.3-35.7c-0.2-0.2-0.4-0.3-0.5-0.4l0,0c-0.2-0.1-0.3-0.2-0.4-0.3c0,0,0,0,0,0c0,0-0.1-0.1-0.1-0.1
					c-0.1,0-0.1-0.1-0.2-0.1h0c0,0,0,0-0.1-0.1c-0.1-0.1-0.1-0.1-0.1-0.1l0.3-0.5l0,0l0.2-0.2l0.2-0.2c0,0,0.1,0.1,0.3,0.2h0
					c0.2,0.1,0.4,0.3,0.6,0.5c0.1,0.1,0.3,0.2,0.4,0.3h0c0.2,0.1,0.3,0.3,0.5,0.4c5,4,19.1,16.2,33.6,36.2c0.3,0.4,0.5,0.8,0.8,1.1
					c3.2,4.4,6.4,9.3,9.5,14.5c2.7,4.5,5.3,9.3,7.8,14.3c0.2,0.4,0.4,0.8,0.6,1.1c2.8,5.7,5.4,11.7,7.8,18.1
					c0.2,0.4,0.3,0.8,0.5,1.3c3.1,8.5,5.6,17.1,7.5,25.9c0.1,0.4,0.2,0.8,0.2,1.1c0.1,0.3,0.1,0.5,0.2,0.8
					C325.6,194.2,325.7,195,326.3,198.9L326.3,198.9z"/>
				<path class="st1" d="M315.3,313.3c0.4-0.1,0.9-0.3,1.3-0.5c-1.7,5.5-3.6,11-5.7,16.5c-2.1,5.5-4.3,11.1-6.7,16.7
					c-0.2,0.4-0.3,0.8-0.5,1.1c-4.5,10.2-9.5,20.6-15.2,31c-0.2,0.4-0.4,0.8-0.6,1.1c-4.5,8.3-9.4,16.7-14.7,25.1
					c-3.5,5.6-7.1,11.2-10.9,16.8c0,0,0,0.1-0.1,0.1c-0.2,0.3-0.4,0.6-0.6,0.9c0,0,0,0,0,0.1c0,0,0,0,0,0.1c-0.2,0.3-0.4,0.6-0.7,1
					l-0.5-0.3l-0.5-0.3c0.1-0.1,0.2-0.2,0.2-0.3c0.2-0.3,0.4-0.5,0.5-0.8c0.1-0.1,0.2-0.2,0.2-0.3c0.1-0.2,0.3-0.4,0.4-0.6
					c3.9-5.7,7.6-11.4,11.1-17.1c5.1-8.1,9.8-16.2,14.2-24.2c0.2-0.4,0.4-0.8,0.6-1.1c5.7-10.4,10.7-20.8,15.2-31
					c0.2-0.4,0.3-0.8,0.5-1.1c2.4-5.5,4.6-11,6.7-16.4C311.7,324.2,313.6,318.8,315.3,313.3L315.3,313.3z"/>
				<path class="st2" d="M327.1,267c-0.2,1.6-0.5,3.2-0.7,4.8c-0.6,4-1.3,8-2.2,12c-0.2-1.1-0.3-2.2-0.5-3.3
					c0.6-2.9,1.1-5.9,1.5-8.8c0.2-1.3,0.4-2.6,0.6-4C326.3,267.4,326.7,267.2,327.1,267L327.1,267z"/>
				<path class="st1" d="M226.9,108.7c0.2,0.4,0.4,0.8,0.6,1.2c14.1-22.1,26.8-34.4,27.1-34.6C254.5,75.2,241,86.8,226.9,108.7
					L226.9,108.7z"/>
				<path class="st1" d="M200.4,166.7c-0.6,1.9-1.2,3.9-1.8,5.8c-1.7,5.6-3.1,11.2-4.3,16.9c-0.1,0.4-0.2,0.8-0.2,1.1l0,0
					c-0.2,0.8-0.3,1.6-0.5,2.4c-0.4,2.1-0.8,4.2-1.2,6.2c-0.3,1.7-0.6,3.5-0.9,5.3c-0.1,0.8-0.2,1.6-0.3,2.3
					c-0.4-0.1-0.7-0.2-1.1-0.3c0.1-0.7,0.2-1.4,0.3-2.1c0.3-1.8,0.6-3.6,0.9-5.4c0.4-2.1,0.7-4.2,1.2-6.3c0.1-0.7,0.3-1.4,0.4-2.1
					c0.1-0.4,0.2-0.8,0.2-1.1c1.2-5.8,2.7-11.5,4.4-17.2c0.6-2,1.2-4,1.9-6C199.7,166.4,200,166.6,200.4,166.7L200.4,166.7z"/>
				<path class="st1" d="M259.8,422.8L259.8,422.8l-0.9,0.7c-0.2-0.3-0.5-0.6-0.7-1c-1.6-2-3.1-4.1-4.6-6.1
					c-0.8-1.1-1.6-2.1-2.4-3.2c-3.2-4.4-6.3-8.8-9.2-13.2c-4.4-6.6-8.6-13.3-12.5-20c-0.2-0.4-0.4-0.8-0.7-1.1
					c-6-10.3-11.3-20.6-16-30.9c-0.2-0.4-0.3-0.8-0.5-1.1c-3.3-7.4-6.3-14.8-9-22.2c-1.9-5.2-3.6-10.3-5.1-15.5
					c0.4,0.1,0.8,0.2,1.3,0.3c1.5,5.2,3.3,10.3,5.1,15.5h0c2.6,7.3,5.6,14.6,8.9,21.9c0.2,0.4,0.3,0.8,0.5,1.1
					c4.7,10.3,10.1,20.6,16,30.9c0.2,0.4,0.4,0.8,0.7,1.1c3.8,6.4,7.8,12.8,12,19.2c3.7,5.5,7.5,11,11.5,16.4
					c0.8,1.1,1.6,2.1,2.4,3.2c0.9,1.2,1.8,2.4,2.8,3.7h0C259.6,422.5,259.7,422.6,259.8,422.8C259.7,422.7,259.8,422.7,259.8,422.8
					L259.8,422.8z"/>
				<path class="st1" d="M421.4,188.3V188c0-0.1-0.1-0.2-0.1-0.3c-0.6-1.6-1.3-3.2-1.9-4.8c-0.2-0.4-0.4-0.9-0.6-1.3
					c-0.3-0.6-0.6-1.3-0.8-1.9c-0.6-1.4-1.3-2.8-1.9-4.2c-0.2-0.4-0.4-0.8-0.5-1.1c-0.3-0.6-0.6-1.2-0.9-1.8c-0.3-0.6-0.7-1.3-1-1.9
					c-0.3-0.6-0.6-1.1-0.9-1.7c0,0,0,0,0,0c-0.2-0.4-0.4-0.8-0.6-1.2c-24.8-46.1-70.1-80.1-123.9-90.3c-7.7-1.5-15.5-2.4-23.4-2.9
					c0,0-0.1,0-0.2,0c-1.2-0.1-2.5-0.1-3.7-0.2h0c0,0-0.1,0-0.1,0c-0.3,0-0.7,0-1.1,0c-0.5,0-1,0-1.5,0h0c-0.4,0-0.8,0-1.2,0h0
					c-0.9,0-1.8,0-2.7,0c-1.9,0-3.7,0-5.5,0.1c-0.2,0-0.4,0-0.6,0c-0.2,0-0.4,0-0.6,0c-0.2,0-0.4,0-0.6,0c-0.5,0-1,0-1.4,0.1
					c-0.2,0-0.4,0-0.6,0c-0.2,0-0.4,0-0.6,0c-0.3,0-0.6,0-0.9,0c-0.3,0-0.6,0-0.8,0c-0.2,0-0.3,0-0.5,0c-0.4,0-0.8,0.1-1.3,0.1
					c-0.4,0-0.8,0.1-1.2,0.1c-0.1,0-0.3,0-0.5,0c-0.3,0-0.6,0-1,0.1c-0.7,0.1-1.4,0.1-2.2,0.2c-0.4,0-0.8,0.1-1.2,0.1
					c-0.6,0.1-1.3,0.1-1.9,0.2c-0.2,0-0.5,0.1-0.7,0.1c-0.3,0-0.7,0.1-1,0.1c-1.3,0.2-2.6,0.3-4.1,0.6c-0.3,0-0.7,0.1-1,0.1
					c-0.4,0.1-0.8,0.1-1.2,0.2c-9.5,1.6-18.8,3.9-27.8,6.8c0,0,0,0,0,0c-15.3,5.1-29.7,12.1-42.8,20.9c0,0,0,0,0,0
					c-0.1,0.1-0.2,0.1-0.3,0.2c-1.4,0.9-2.8,1.9-4.2,2.9c-1.1,0.8-2.2,1.6-3.2,2.4c-13,9.7-24.6,21.1-34.5,33.9l0,0
					c-0.2,0.2-0.3,0.4-0.5,0.7v0c-1.8,2.3-3.5,4.7-5.2,7.1c0,0,0,0-0.1,0.1c-0.1,0.1-0.1,0.2-0.2,0.2c-0.3,0.5-1,1.5-1.9,2.8
					c-0.1,0.1-0.2,0.3-0.3,0.4c0,0,0,0,0,0c-6.3,9.6-11.6,19.8-15.9,30.5c-0.4,1-0.8,2.1-1.2,3.1c-1.2,3.3-2.4,6.6-3.4,10v0
					c-0.2,0.7-0.4,1.4-0.6,2.1c0.5-0.2,0.9-0.3,1.3-0.4c0.1-0.2,0.1-0.4,0.2-0.6c0.9-2.8,1.8-5.7,2.8-8.5c0.1-0.4,0.3-0.7,0.4-1.1
					l0,0c0.2-0.6,0.4-1.1,0.6-1.6c0.4-1.1,0.9-2.2,1.3-3.3c4.7-11.7,10.8-22.9,17.9-33.2c1.7-2.5,3.5-4.9,5.3-7.2
					c0.3-0.4,0.6-0.8,0.9-1.1h0c8.3-10.7,17.8-20.3,28.4-28.9h0l0,0c0.5-0.4,1-0.8,1.5-1.1c1.5-1.2,3-2.4,4.6-3.5
					c1.9-1.4,3.8-2.8,5.8-4.1c1.1-0.8,2.2-1.5,3.3-2.2c27-17.4,59-27.7,93.4-28.4c0.8,0,1.6,0,2.4,0c0.3,0,0.5,0,0.8,0h0.8
					c0.1,0,0.2,0,0.3,0c0,0,0,0,0,0h0c0.4,0,0.7,0,1.1,0h0c0.4,0,0.9,0,1.3,0h0c0.2,0,0.5,0,0.7,0c0,0,0.1,0,0.1,0h0.1
					c0.9,0,1.7,0,2.5,0.1h0c0.9,0,1.8,0.1,2.6,0.1c5.3,0.3,10.5,0.7,15.6,1.4c0,0,0,0,0,0c0,0,0,0,0.1,0c3.8,0.5,7.6,1.1,11.4,1.9
					c10.6,2.1,20.8,5.2,30.6,9.1h0c1.1,0.5,2.3,0.9,3.4,1.4c13.5,5.7,26.2,13,37.7,21.7c0.5,0.4,1,0.7,1.4,1.1h0
					c11,8.5,21,18.1,29.7,28.9c0.3,0.4,0.6,0.8,0.9,1.1c1.6,2,3.2,4.1,4.7,6.1c1.1,1.5,2.2,3.1,3.3,4.7c3.1,4.6,6.1,9.4,8.7,14.3
					c3.6,6.5,6.7,13.3,9.4,20.2c0.1,0.4,0.3,0.8,0.4,1.1c7.1,18.7,10.9,39,10.9,60.1c0,28.7-7.1,55.7-19.7,79.6
					c-3.1,5.8-6.5,11.4-10.1,16.8c-0.1,0.2-0.3,0.5-0.5,0.7v0c-0.1,0.1-0.2,0.3-0.3,0.4c0,0,0,0,0,0c-7.9,11.3-17.1,21.7-27.5,30.9
					h0c-0.4,0.4-0.9,0.8-1.3,1.1h0c-18,15.7-39.2,27.9-62.6,35.4h0c-0.1,0-0.2,0.1-0.4,0.1c-13.3,4.3-27.3,7-41.8,8h0
					c-1.2,0.1-2.5,0.2-3.7,0.2h0c-0.1,0-0.1,0-0.2,0h0c-0.2,0-0.3,0-0.5,0h0c-0.4,0-0.7,0-1.1,0h0c0,0-0.1,0-0.1,0c0,0-0.1,0-0.1,0
					c-0.2,0-0.3,0-0.5,0c-0.3,0-0.5,0-0.8,0c-0.1,0-0.2,0-0.3,0c-0.1,0-0.1,0-0.2,0h0c-0.5,0-0.9,0-1.4,0c-1.3,0-2.6,0-3.9,0h-0.1
					c-0.9,0-1.8,0-2.7,0c-19.8-0.3-38.8-3.8-56.6-10c-0.1,0-0.2,0-0.2-0.1c-20.5-7.2-39.2-17.9-55.5-31.5c0,0,0,0,0,0
					c-0.4-0.4-0.9-0.7-1.3-1.1h0l0,0c-1.2-1.1-2.5-2.1-3.7-3.2c-0.1-0.1-0.2-0.2-0.3-0.3c-9.1-8.3-17.3-17.4-24.5-27.4
					c-0.3-0.4-0.5-0.8-0.8-1.1c0,0,0,0,0,0c-0.5-0.7-1-1.4-1.5-2.1l0,0c-0.3-0.5-0.7-1-1-1.5c-0.1-0.1-0.1-0.2-0.1-0.2
					c-4.9-7.3-9.2-14.9-12.9-22.9c-0.2-0.4-0.4-0.8-0.6-1.2c-3.2-6.9-5.9-14.1-8.1-21.4c-0.1,0.9-0.2,1.9-0.3,2.9
					c2.1,6.5,4.5,12.8,7.4,19c0.2,0.4,0.3,0.7,0.5,1.1c3.8,8.1,8.2,15.8,13.1,23.1c0.9,1.3,1.8,2.5,2.6,3.8c0,0,0,0,0,0v0
					c0,0,0,0,0,0v0.1c0.1,0.1,0.2,0.3,0.3,0.4c0.4,0.5,0.8,1.1,1.1,1.6c6.6,9,14,17.3,22.2,24.9c0,0,0,0,0,0c0.7,0.6,1.3,1.2,2,1.9
					c0.1,0.1,0.2,0.2,0.2,0.2c1,0.9,1.9,1.7,2.9,2.6c0.3,0.3,0.7,0.6,1,0.9c16.6,14.1,35.8,25.2,56.9,32.6
					c5.2,1.8,10.5,3.4,15.9,4.8c0.1,0,0.1,0,0.2,0.1c14,3.5,28.7,5.3,43.8,5.3c2.9,0,5.8-0.1,8.7-0.2c0.2,0,0.4,0,0.6,0h0
					c11.4-0.6,22.6-2.2,33.4-4.8c0,0,0,0,0.1,0c4.3-1,8.6-2.3,12.8-3.6c0.1,0,0.2-0.1,0.2-0.1c44.2-14.3,80.9-45.1,102.3-84.9
					c0,0,0,0,0-0.1c0,0,0,0,0-0.1c0.3-0.6,0.6-1.1,0.9-1.7c0,0,0,0,0,0c12.4-23.8,19.4-50.7,19.4-79.2
					C432.6,227.5,428.6,207.2,421.4,188.3L421.4,188.3z"/>
				<path class="st1" d="M362,166.7c0.3-0.1,0.7-0.3,1.1-0.4c-12.8-21.2-29.4-38.7-44.2-51.7c-29.4-25.9-58-40.2-58.3-40.3l-0.5,1
					c0.3,0.1,28.8,14.4,58.1,40.2C332.8,128.4,349.3,145.7,362,166.7L362,166.7z"/>
				<path class="st1" d="M384.1,227.1c-1.5-15.2-5.6-29.4-11.4-42.4c-0.3,0.2-0.6,0.5-0.9,0.7c5.7,12.9,9.8,26.9,11.2,41.9
					c6,63.3-35,128.8-121.8,194.9l0.7,0.9C349,356.7,390.2,290.8,384.1,227.1L384.1,227.1z"/>
				<path class="st1" d="M262.9,423.6l-0.4-1.1C339.6,395.1,376,347.2,393,311.8c18.3-38.3,18.4-70.5,18.4-70.8h1.1
					c0,0.3-0.1,32.8-18.6,71.3C377,347.9,340.4,396.1,262.9,423.6L262.9,423.6z"/>
				<path class="st2" d="M135.7,228.7c0.2-3,0.6-6.1,1.1-9.4c0,3.3,0,6.6,0,9.9v0c-0.5,6.4-0.5,12.8,0,19.2v10
					C135.3,248.5,134.9,238.6,135.7,228.7L135.7,228.7z"/>
				<path class="st1" d="M184.7,131.2c-3.6,3.9-7,7.7-10.2,11.6c-0.1,0.1-0.2,0.3-0.3,0.4l-0.9,1.1c-1.5,1.9-3,3.8-4.4,5.7
					c-9.7,12.9-16.6,25.2-21.5,36.7c-0.4,1-0.9,2.1-1.3,3.1c0,0.1-0.1,0.2-0.1,0.3c-0.1,0.3-0.2,0.6-0.3,0.9
					c-1.7,4.5-3.2,8.8-4.3,12.9c-0.4-0.1-0.7-0.1-1.1-0.2c1.2-4.1,2.6-8.3,4.3-12.7c0.1-0.3,0.3-0.7,0.4-1c0,0,0-0.1,0-0.1
					c0.4-1.1,0.9-2.2,1.4-3.3c4.8-11.4,11.6-23.5,21-36.2c1.5-2,3-3.9,4.6-5.9c0.3-0.4,0.6-0.8,0.9-1.1c0.4-0.5,0.9-1.1,1.3-1.6
					c3.1-3.8,6.5-7.6,10.1-11.4C184.3,130.5,184.5,130.8,184.7,131.2L184.7,131.2z"/>
				<path class="st1" d="M263.7,422.5l-0.7,0.9c-0.1-0.1-0.2-0.2-0.3-0.3c-0.2-0.1-0.4-0.3-0.6-0.4c-0.2-0.1-0.3-0.3-0.5-0.4h0
					c0,0-0.1,0-0.1-0.1c-0.1-0.1-0.2-0.2-0.3-0.2c-0.1-0.1-0.2-0.2-0.3-0.3c-0.1-0.1-0.2-0.1-0.2-0.2c-0.3-0.2-0.6-0.5-0.9-0.7
					c-1-0.7-2-1.5-2.9-2.2c-1.1-0.8-2.1-1.6-3.2-2.4c-6.7-5.1-13.2-10.2-19.3-15.2c-8.4-7-16.3-14-23.7-20.9
					c-0.4-0.4-0.8-0.8-1.2-1.1c-10.8-10.3-20.3-20.5-28.8-30.8c-0.3-0.4-0.6-0.8-0.9-1.1c-8.6-10.6-16-21.2-22.1-31.8
					c-2.8-4.9-5.4-9.7-7.6-14.6c0.4,0,0.9,0.1,1.3,0.1c2.3,4.9,4.9,9.8,7.7,14.6h0c6.1,10.5,13.5,21,22.1,31.6
					c0.3,0.4,0.6,0.8,0.9,1.1c8.5,10.3,18.1,20.5,28.9,30.8c0.4,0.4,0.8,0.7,1.2,1.1c7.4,7,15.4,14,23.9,21c4.9,4,9.9,8,15.1,12
					c1,0.8,2.1,1.6,3.2,2.4c1.7,1.3,3.5,2.6,5.3,4c0.4,0.3,0.8,0.6,1.1,0.8c0.1,0.1,0.3,0.2,0.4,0.3c0.3,0.2,0.6,0.4,0.9,0.6
					c0,0,0,0,0,0c0.3,0.2,0.6,0.5,0.9,0.7c0.1,0.1,0.2,0.1,0.3,0.2c0,0,0,0,0.1,0h0C263.5,422.4,263.6,422.4,263.7,422.5
					L263.7,422.5z"/>
				<path class="st1" d="M380.4,156.4c-24.1-36.3-65.1-80.1-123.4-82.2h-0.1l-0.1,0.1c-0.3,0.1-26.7,13.8-54.5,38.3
					c0.4,0.2,0.7,0.4,1.1,0.6c26.6-23.3,51.8-36.7,53.9-37.8c57.6,2.2,98.3,45.6,122.3,81.7c26,39.2,38.6,78.4,38.7,78.8l1.1-0.3
					C419.1,235.1,406.5,195.8,380.4,156.4L380.4,156.4z"/>
				<path class="st1" d="M254.3,75.3C254.3,75.3,254.3,75.3,254.3,75.3c-0.1,0-0.2,0.1-0.3,0.1h0c-0.1,0-0.3,0.1-0.5,0.1
					c-0.4,0.1-0.8,0.3-1.4,0.5c-5.8,1.9-22.4,7.6-41.9,18.1c-3.5,1.8-7,3.8-10.6,6c-3.9,2.3-7.9,4.8-11.8,7.5
					c-2.6,1.8-5.3,3.7-8,5.7h0c-0.5,0.4-1,0.8-1.5,1.2h0c-1.3,1-2.6,2-3.9,3.1c-9.2,7.3-18.3,15.9-26.5,25.9
					c-0.3,0.4-0.6,0.8-0.9,1.1c-2.3,2.9-4.5,5.8-6.6,8.9c-4.4,6.4-8.3,13.4-11.6,20.8c-1.3,3-2.5,6-3.6,9.1
					c-0.1,0.4-0.3,0.8-0.4,1.2c-0.2,0.6-0.4,1.2-0.6,1.7c-0.2,0.6-0.4,1.2-0.6,1.8c-0.2,0.6-0.4,1.3-0.6,1.9l0,0
					c-0.1,0.4-0.2,0.8-0.3,1.1c-0.4,1.5-0.8,3-1.1,4.5h0c-0.4,0-0.7,0-1.1,0c0.3-1.5,0.7-3,1.1-4.5c0.1-0.4,0.2-0.8,0.3-1.1
					c0.2-0.7,0.4-1.3,0.6-2c0.5-1.5,1-3.1,1.5-4.7c1.1-3.3,2.4-6.6,3.9-9.9c2.9-6.5,6.5-13.2,11.1-19.9c2-3,4.2-6,6.6-9h0
					c0.3-0.4,0.6-0.8,0.9-1.1c7.4-9.1,16.5-18.3,27.8-27.2c0.8-0.6,1.5-1.2,2.3-1.8h0c0.5-0.4,1-0.8,1.5-1.1c3-2.2,6.1-4.5,9.4-6.7
					c4.2-2.8,8.4-5.5,12.6-7.9c3.6-2.1,7.1-4.1,10.5-5.9c18-9.5,33.4-15.1,40.1-17.4c1-0.3,1.9-0.6,2.5-0.8c0.7-0.2,1.1-0.3,1.2-0.3
					l0.1,0.3l0.1,0.2l0,0L254.3,75.3L254.3,75.3z"/>
				<path class="st1" d="M119.8,297.3c1.1,4.4,2.7,9.1,4.6,14.1c0.5,1.1,0.9,2.3,1.4,3.4c0.4,0.9,0.8,1.7,1.2,2.6
					c5,10.7,11.4,20.7,18.8,30h0c0.3,0.4,0.6,0.8,0.9,1.1c9.3,11.4,20.1,21.6,31.7,30.8h0c0.5,0.4,0.9,0.7,1.4,1.1l0,0
					c10.1,7.9,20.9,15.1,31.6,21.4h0c13.6,8.1,27.2,14.9,39.9,20.6c0.8,0.4,1.7,0.7,2.5,1.1l0.5-1c0,0-0.1,0-0.1,0
					c-15.7-6.9-29.6-14.1-41.9-21.4h0c-11.6-6.8-21.7-13.8-30.6-20.7l0,0c-0.5-0.4-1-0.7-1.4-1.1h0c-13.4-10.5-23.8-20.9-32-30.8
					c-0.3-0.4-0.6-0.8-0.9-1.1h0c-8.9-11-15.1-21.3-19.2-30.3c-0.4-0.8-0.7-1.6-1-2.3c-0.5-1.2-1-2.3-1.5-3.5c-2-5-3.5-9.7-4.7-14.1
					L119.8,297.3L119.8,297.3z"/>
			</g>
			<path class="st3" d="M105.8,343.9c0,0,1.6,3.1,9.3,1.8c0,0,3.3-0.9,6.7-2.9c1.1-0.7,2-1.8,2.3-3.1c0.6-2.7,2.4-7.2,7.1-3.7
				c0,0,5,2.6,6.4,7.7c0.1,0.2,0.1,0.5,0.1,0.7c0,0.6,0.7,2.3,5.9,3.1c0,0,9.3,1.9,9.1,16.6c0,1.2-0.9,2.2-2.1,2.4
				c-4.5,0.8-15.5,3.4-17.2,10.8c0,0-16.5-14.1-28.5-32.9L105.8,343.9L105.8,343.9z"/>
			<path class="st3" d="M208.9,327.8c0,0,0.7,7.1,11.5,17c0,0,10.2,7.7,10.5,10v9.6c0,0,1,5.8,8.9,6.1h8.9c0,0,3.6,0.3,9.5,6.7
				c0,0,9.5-0.3,4.6-10l-1.6-25.7l7.6-17l-59.9-7.7V327.8L208.9,327.8z"/>
			<path class="st3" d="M360.4,301.4v9c-1.3,6.4-13.2,17.7-13.2,17.7c-4.6,3.9-5.6,15.4-5.6,15.4c-0.3,0.9-0.6,1.7-0.9,2.3
				c-0.2,0.4-0.4,0.8-0.6,1.1c-2.5,3.9-5.3,1.7-6.7,0.1c-0.4-0.5-0.7-0.9-0.9-1.1c-0.1-0.1-0.1-0.1-0.1-0.1l0-11.2
				c0.3-4.8-3-7.7-3-7.7l-1.2-4.1l-4-14c0.3-0.1,0.7-0.2,1-0.4c0.6-0.2,1.2-0.4,1.8-0.6c-0.1-1.4-0.3-2.7-0.4-3.9
				c-0.1-0.8-0.2-1.6-0.3-2.4L360.4,301.4L360.4,301.4z"/>
			<path class="st3" d="M194.3,413.5l4.9-8.9c0,0,0.7-1.4,4.7,0c0,0,3.9,1.9,7.6-2.6l3.5-3.4c0,0,1.5-4.1,9.6,2.4l16.5,0.2
				c0,0,3.6-7.7,14.9-1.5c0.3,0.2,0.5,0.4,0.7,0.7c0.3,0.3,1,0.6,3.3-0.8c0,0,1.7-3.9,8.1-4.6c0,0,7.6-2.4,3.9,5.5
				c0,0-2,3.4,3.2,5.1l6.9,3.9c0,0,1.5,1,4.7,1l17.5-0.2c0,0,3.9,3.3,5.4,4.8C309.9,414.9,254.1,435.7,194.3,413.5L194.3,413.5z"/>
			<path class="st3" d="M363.4,332.4c-1.9,0-3.3-1.8-2.7-3.6c0.5-1.4,1.7-3.3,4.6-5.6c7.6-6.1,5.6-6.1,11.8-3.9c0,0,6.6,2.8,1.6,5.7
				C378.7,325.1,370.8,332.4,363.4,332.4L363.4,332.4z"/>
			<path class="st3" d="M273.5,174.9c0,0-3-7.9,11.3-10.8c14.3-2.9,10.6,8.4,10.6,10.8s-1.7,12.8-12.6,15.4c0,0-3.9,1.7-5.4-3.4
				c-1.5-5.1,1.2-4.3-1.5-7.5C273.3,176.3,273.5,174.9,273.5,174.9L273.5,174.9z"/>
			<path class="st3" d="M334.7,111.5c-0.2-2-0.8-4.1-1.6-6.3l0,0c-0.3-0.7-0.6-1.4-0.9-2.1v0c-3-7-7.7-13.3-7.7-13.3
				s-0.1-0.1-0.3-0.3c-0.5-0.4-1.7-1.1-3.4-1.4h0c-2.1-0.4-5-0.2-8.7,1.7c-0.4,0.2-0.8,0.4-1.2,0.7c-0.6,0.4-1.2,0.8-1.9,1.3
				c-4.3,3.2-7.1,5.7-8.9,7.7c-0.3,0.3-0.5,0.6-0.8,0.9c-1.7,1.9-2.1,2.9-2.1,2.9s-4.3-1.3-5.3-4.9c-1-3.6-14.1-5.9-17.1-5.9
				s-2.3-6.9,3.9-4.5c1.1,0.5,2.3,0.6,3.6,0.5h0c0.5-0.1,1.1-0.2,1.6-0.3h0c3.4-0.9,6.5-3.7,6.8-6.5l0,0c0-0.4,0-0.8,0-1.2
				c-0.1-0.5-0.3-1-0.6-1.4c-0.1-0.2-0.3-0.5-0.5-0.7c-0.3-0.3-0.8-0.6-1.6-0.9c-6.8-2.7-23.4-2.9-23.4-2.9c0,0-0.1,0-0.2,0
				c-0.8,0-2.1-0.1-3.7-0.2h0c0,0-0.1,0-0.1,0c-0.3,0-0.7,0-1.1,0c-0.3,0-0.7,0-1,0h-0.1c0,0,0,0-0.1,0c-0.5,0-1,0-1.6,0h0
				c-0.9,0-1.8,0-2.8,0h-0.4c-1.8,0-3.5,0-5,0.1c-0.2,0-0.4,0-0.6,0c-0.2,0-0.4,0-0.6,0c-0.2,0-0.4,0-0.6,0c-0.5,0-1,0-1.4,0.1
				c-0.2,0-0.4,0-0.6,0c-0.2,0-0.4,0-0.6,0c-0.3,0-0.6,0-0.9,0c-0.3,0-0.6,0-0.8,0c-0.2,0-0.3,0-0.5,0c-0.4,0-0.8,0.1-1.3,0.1
				c-0.4,0-0.8,0.1-1.2,0.1c-0.1,0-0.3,0-0.5,0c-0.3,0-0.6,0-1,0.1c-0.7,0.1-1.4,0.1-2.2,0.2c-0.4,0-0.8,0.1-1.2,0.1
				c-0.6,0.1-1.3,0.1-1.9,0.2c-0.5,0.1-1.1,0.1-1.7,0.2c-1.3,0.2-2.6,0.3-4.1,0.6c-0.3,0-0.7,0.1-1,0.1c-0.4,0.1-0.8,0.1-1.2,0.2
				c-0.1,0-0.3,0-0.4,0.1c-7.8,1.3-16.6,2.7-27.4,6.8c0,0,0,0,0,0c-17,5.1-33.7,12.7-47.4,24c-1,0.8-2.2,1.5-3.2,2.4l1.5,0.3l10,1.9
				l1.5,1.4l1.1,1.1h0l3.3,3.3l5.1-3.4h0.1l1.6-1.2l2.4-1.6l0.4,1.6l0.3,1.1l0.4,1.8l0.3,1.2l3.9,16.2c0,0-5.1,3.6-4.1,7.9
				c0.1,0.4,0.2,0.8,0.5,1.2c0.1,0.1,0.1,0.2,0.2,0.4l0,0c0.2,0.4,0.5,0.8,0.8,1.1c0.4,0.5,1,1,1.6,1.5c7.9,5.9,9.9,1.3,9.9,1.3
				s2.3,10.5-6.9,5.6c-9.2-4.9,3-4.9-9.5-2.9c-0.6,0.1-1.2,0.2-1.8,0.3c-0.6,0.1-1.1,0.2-1.6,0.3c-8.1,1.4-4.1,1.4-9.1,1.4
				c-5.6,0-6.6-3.9-6.6-3.9l-6.6,5.6l-4.8,0.2l-1.4,0l-11.9,0.4l-5.6,6.9l-14.2-8.8l-1-0.6c0,0,0,0-0.1,0.1c0,0.1-0.1,0.1-0.2,0.2
				c-0.3,0.5-1,1.5-1.9,2.8c-0.1,0.1-0.2,0.3-0.3,0.4c0,0,0,0,0,0c-4.2,5.8-12.4,18-17.2,30.8c-0.4,1-0.7,1.9-1,2.9
				c-1.1,3.3-1.9,6.7-2.3,9.9v0c0,0.3-0.1,0.7-0.1,1l1,0l1.4,0.1c2-0.6,3.7-1.1,5.5-1.5c0.4-0.1,0.8-0.2,1.3-0.3
				c2.4-0.5,4.9-0.9,8.1-1.4c0.3,1.3,0.5,2.6,0.8,3.9l1.5,0.1l0.9-6.3c0.1-1.1,0.6-2.1,1.1-3.1l0,0c0.2-0.4,0.5-0.8,0.7-1.1
				c0.6-1,1.3-1.8,1.9-2.3c0.5-0.5,0.8-0.8,0.8-0.8l4.7-3.2l0-0.3l-1.2-8.2l8.1-9.5c0,0,3.8,3.7,8.1,7.8c0.3,0.3,0.6,0.5,0.8,0.8
				c4.1,3.9,8.5,8.1,10.5,9.8c0.2,0.2,0.4,0.3,0.6,0.5c1.9,1.6,4.5,1.6,6.7,2c0.4,0.1,0.8,0.1,1.1,0.2c0.9,0.3,1.8,0.7,2.3,1.4
				c0.3,0.4,0.5,1,0.6,1.7c0,0.3,0,0.6,0,0.9c0,0.1,0,0.2,0,0.3c-0.2,3.3-2.3,7.5-2.3,7.5l-0.2,0.5c0.4,0.1,0.9,0.2,1.3,0.2
				c0.4,0.1,0.8,0.1,1.1,0.2c9.2,1.7,15,2.8,24.6,4.3l15.5,0.7l1.1,0l57.4,2.5c0,0-0.5-1.3-1.2-3.3c-0.1-0.5-0.3-1-0.5-1.6
				c-0.2-0.9-0.5-1.9-0.7-3c-0.6-2.8-0.9-5.9-0.6-8.8l0,0c0-0.4,0.1-0.8,0.2-1.1c0-0.2,0.1-0.3,0.1-0.5c1.6-7.9,4.3-7.9,4.3-7.9
				s0-7.2-12.5-21.6c0,0-2.3-2.9,3-2.9c5.3,0,4.9,1.6,5.6,2.6c0,0,2,0.7,4-1.3c0,0,1.6,3.2,4.6,5.6c0.4,0.3,0.8,0.6,1.2,0.8
				c1.2,0.8,2.6,1.3,4.1,1.5c6.3,0.7,10.2-7.9,11.2-19h11.5c0,0,1-1.1,1.7-3.1c0.1-0.3,0.2-0.7,0.3-1.1c0.7-3.2,0.2-8-4.9-14.1
				c0,0-5.6-1.3,3.3-9.8c0,0,0.7-8.5,7.9,2.6l1.6,6.9l6-0.1l1.3,0l17.1-0.2c0,0,4.7-1.5,9.2-4.3c0.6-0.4,0.9-0.6,1-0.6
				c1.7-1.1,7.1-4.8,7.3-9.8c0-0.1,0-0.2,0-0.3C334.7,112.1,334.7,111.9,334.7,111.5L334.7,111.5z M196,158.7c0-6.3,0-2.9-4.4-7.5
				c-4.4-4.6,0-6.3,0-6.3c5.7-3.9,12.1-2.2,12.1-2.2c-1.2,9.1,1,7.7,1.5,9.6c0.5,1.9,3.2,4.6,1.5,8.2
				C204.9,164.2,196,164.9,196,158.7L196,158.7z M188.5,96.4v-5.1h7.2c0,0,3.9,0,0,5.1H188.5z M196.3,117.2c0,0,8.2-0.3,7.6,1.9
				c-0.7,2.3-3.3,8.7-7.6,5.1C192,120.8,196.3,117.2,196.3,117.2z M220.9,130.7c0,0,1-6,6.2-8.9c0,0,0.5-3.1,4.7,5.5
				c4.2,8.7,4.9,10.4,2.2,12c-2.7,1.7-8.9,2.4-11.1,0C220.7,137,220.9,130.7,220.9,130.7z M210.2,94.1c-0.1,2.2-0.4,4.6-0.7,5.7
				c-0.5,2-6.4,7.8-8.9,4.9c-1-1.1-1.2-2.9-1.1-4.7c0-0.5,0.1-0.9,0.1-1.4c0.2-1.3,0.5-2.4,0.7-3.1c0.1-0.4,0.3-0.9,0.6-1.2
				c3.8-4.5,7.3-4.1,8.5-4.1c0.5,0,0.7,1.1,0.7,2.5C210.3,93.2,210.3,93.6,210.2,94.1L210.2,94.1z M187.3,118c6.9-4.5,5.6,2.9,5.6,4
				s-4.3,4-4.3,4h-7.9C180.8,126,180.4,122.5,187.3,118z M206,126.2c-4.3-7.1,6.4-14.8,6.4-14.8s4.2-2.9,4.4,0l2,20.9
				C218.8,132.3,210.2,133.3,206,126.2L206,126.2z M157.1,107.1c-0.6-0.4-1.3-1.4-1.1-2.1c0.1-0.4,0.5-0.6,0.6-0.7
				c0.3-0.2,0.7-0.4,1.3-0.3c0.7,0,0.7,0,1.8,0.2c0.3,0.1,2.5,0.6,2.5,1.3C162.2,106.4,158.8,108.2,157.1,107.1L157.1,107.1z
				 M171,104.2c0,0,0.5-5.3,7.6-5.3C185.8,98.9,175.2,108.3,171,104.2z"/>
			<path class="st3" d="M421.4,187.9c0,0,0-0.1-0.1-0.1c-0.6-1.6-1.3-3.2-2-4.8c-0.2-0.4-0.4-0.9-0.6-1.3c-0.3-0.6-0.6-1.3-0.8-1.9
				c-0.6-1.4-1.3-2.8-1.9-4.2c-0.2-0.4-0.4-0.8-0.5-1.1c-0.3-0.6-0.6-1.2-0.9-1.8c-0.3-0.6-0.7-1.3-1-1.9c-0.3-0.6-0.6-1.1-0.9-1.7
				c0,0,0,0,0,0c-0.2-0.4-0.4-0.8-0.6-1.2h0c-0.2,0-0.7,0-1.4-0.1c-3.1-0.5-10.1-2.9-8.7-13.8c0,0,0-0.2,0-0.6
				c-0.1-1.1-0.8-3.5-3.3-4.7c-0.9-0.4-2.1-0.7-3.5-0.7c0,0-0.4-3.5-6.5,0c0,0-13,5.9-3.2,10.1c0,0,9.7,9.3,4.3,13.5
				c-0.3,0.2-0.6,0.4-1,0.6c-1.4,0.7-3.4,1.2-6.3,1.3c0,0-4.3,0.7-5-12.2c0,0-0.4-5.9-8-11.5v-17.4h-13.4c0,0-6.1,2.1-5.1,4.2
				c1.1,2.1-5.1,0.7-6.1-0.3c-0.3-0.3-2.3-0.6-4.9-0.6h0c-0.5,0-1,0-1.5,0h0c-5.1,0.3-11.4,1.8-11.9,6.4l0,0c-0.1,0.4-0.1,0.7,0,1.1
				l0,0c0.1,1.2,0.5,2.6,1.4,4.2c0,0,8.3,9.3-11.6,14.1c-0.4,0.1-0.7,0.2-1.1,0.3c-0.9,0.2-1.9,0.4-2.9,0.6c0,0-5,14.4-12.2,26.5
				c-0.2,0.4-0.4,0.8-0.7,1.1c-1.4,2.3-2.9,4.5-4.4,6.5c-1,1.3-2,2.4-3,3.5c-0.2,0.2-0.4,0.5-0.7,0.7l4.5,4.5
				c4.8-1.3,11.5-3,18.7-5.6c1.6-0.6,5.9-1.3,10.4-1.8c0.4,0,0.7-0.1,1.1-0.1c5.4-0.7,10.9-1.2,12.5-1.2c0.4,0,0.8,0,1.1,0
				c2.5,0,4.9,0.5,6.9,1.5c4.9,2.4,8.2,7.5,10.1,16.7c1.9,9.5,1.3,19.2-1.8,28c-1.4,3.9-12.4,18.3-14.9,21.4l27,35
				c0,0,1-0.9,2.8-2.3c0.6-0.4,1.2-0.9,1.9-1.3h0c0.5-0.4,1.1-0.7,1.7-1.1c1.8-1.1,3.9-2.3,6.1-3.2c3-1.3,6.2-2.2,9.4-2.3
				c5-0.2,9.4,0.7,12.6,2.3h0c0.4,0.2,0.7,0.3,1,0.5c3.1,1.8,5,4.2,5.2,6.9c0.4,5.6-5.1,10.4-5.1,10.4s-3.3,3.5,2.5,8.7
				c4.2,3.8,5.9,8.7,6.5,11.1c0.2,0.9,0.5,1.5,0.5,1.5s0,0,0-0.1c0,0,0,0,0-0.1c0.1-0.2,0.5-0.8,0.9-1.7c0,0,0,0,0,0
				C419.8,317.7,450.9,262.8,421.4,187.9L421.4,187.9z M375.1,226.9c4.8-2.6,5.6,4,6.1,5.1c0.5,1.1,3.2,8-5,6.1
				c-8.2-1.9-4.9-5-4.9-5S370.3,229.5,375.1,226.9L375.1,226.9z M374.9,171.3c3.1,0.2,3.6,2.9,3.7,3.6c0.1,0.7-1,6.1-7,8.8
				c-6,2.7-9.1-1-9.1-1v-11.4C362.4,171.3,371.8,171.1,374.9,171.3L374.9,171.3z"/>
			<g>
				<path class="st1" d="M463.5,238.7c-0.6-2.1-1.6-3.6-3.4-4.1v-0.1c2.5-0.7,4.4-2.5,4.4-5.2c0-1.6-0.7-3-1.8-3.9
					c-1.4-1.2-3.5-1.7-6.7-1.7c-2.1,0-4.3,0.2-5.8,0.4v20.2h3v-8.9h2.8c2.7,0.1,4,1.2,4.7,4c0.7,2.6,1.2,4.3,1.6,4.9h3.1
					C464.8,243.5,464.2,241.5,463.5,238.7z M456.2,233.4h-3.1v-7.5c0.5-0.1,1.5-0.2,3-0.2c3.2,0,5.4,1.2,5.4,3.8
					C461.4,231.9,459.4,233.4,456.2,233.4L456.2,233.4z"/>
				<path class="st1" d="M456.8,214.3c-10.1,0-18.2,8.5-18.2,19.1s8.2,19.1,18.2,19.1c10.1,0,18.2-8.6,18.2-19.1
					S466.8,214.3,456.8,214.3z M456.8,249.5c-8.6,0-15.6-7.2-15.6-16.1c0-8.9,7-16.1,15.6-16.1c8.6,0,15.5,7.2,15.5,16.1
					C472.3,242.3,465.4,249.5,456.8,249.5z"/>
			</g>
			<g>
				<path class="st4" d="M370.1,429c1-3.1,0.7-6.5-1-9.6c-0.7-1.4-1.6-2.6-2.7-3.6c-3.8-3.6-9.3-4.2-14.4-1.5
					c-6.5,3.4-8.8,10.6-5.5,16.9c0.7,1.4,1.6,2.6,2.7,3.6c3.8,3.6,9.4,4.2,14.4,1.5C366.8,434.7,369.1,432,370.1,429z M362.2,433.5
					c-3.5,1.8-7.2,1.4-10-1.2c-0.8-0.8-1.6-1.7-2.1-2.8c-2.5-4.8-1.1-9.9,3.5-12.3c3.5-1.8,7.2-1.4,9.9,1.2c0.8,0.8,1.6,1.8,2.2,2.9
					C368.2,426,366.8,431.1,362.2,433.5L362.2,433.5z"/>
				<path class="st4" d="M99.7,364.4l-25,6.8l2.7,3.5l4.7-1.3l0.2,0l0,0l0,0l0.1,0.1l7.1,9.3l0.1,0.1l0,0l0,0l-0.1,0.1l-2.5,4.2
					l2.7,3.5l13.1-22.3L99.7,364.4L99.7,364.4z M98.6,368.5l-0.3,0.6l-6.5,10.8l-0.2,0.3l-0.1,0.1l-0.1-0.1l-0.2-0.3l-5.6-7.3
					l-0.2-0.3l-0.1-0.1l0.1,0l0.3-0.1l12.1-3.5l0.6-0.2l0.2-0.1L98.6,368.5L98.6,368.5z"/>
				<path class="st4" d="M118.3,385.4c-2.5-2.6-5.7-4-9-4.2c-0.2,0-0.3,0-0.5,0c-3.1,0-6.1,1.3-8.5,3.6c-5.1,5-4.9,12.6,0.4,18
					c2.3,2.4,5.1,3.6,8.2,3.6c0.7,0,1.4-0.1,2.2-0.2l-1.1-3.3c-0.5,0.1-0.9,0.1-1.4,0.1c-2.1,0-4.2-0.9-5.7-2.4
					c-3.8-3.8-3.7-9.3,0.1-13.1c1.8-1.8,4.2-2.8,6.6-2.8c2.4,0,4.7,1,6.5,2.8c1.8,1.9,2.7,4.6,2.2,7.1l3.3,1.1
					C122.3,391.8,121.2,388.3,118.3,385.4L118.3,385.4z"/>
				<path class="st4" d="M137.2,401.7c-2.5-2-5.4-3-8.3-3c-3.8,0-7.1,1.7-9.5,4.8c-2.1,2.8-3,6.1-2.5,9.4c0.5,3.2,2.4,6.2,5.3,8.4
					c2.2,1.7,4.6,2.5,7.1,2.5c1.2,0,2.4-0.2,3.7-0.6l-1.5-3.1c-0.8,0.3-1.6,0.4-2.4,0.4c-1.8,0-3.5-0.6-4.9-1.7
					c-4.2-3.3-4.9-8.7-1.6-13c1.6-2.1,3.8-3.4,6.1-3.7c0.4,0,0.8-0.1,1.1-0.1c2,0,4,0.7,5.7,2c2,1.6,3.3,4.2,3.1,6.8l3.4,0.7
					C142.1,407.5,140.5,404.2,137.2,401.7L137.2,401.7z"/>
				<g>
					<path class="st4" d="M161.1,419.8c-0.6-1.9-2-3.5-4-4.7l-9.4-5.5l-12.1,20.7l3.3,1.9l4.5-7.7l0.1-0.2l0-0.1l0.1,0l0.2,0.1
						l3.8,2.3l0.1,0.1l0,0v0.2l0.3,10.6l3.8,2.2l-0.5-10.9l0-0.4v-0.1l0.1,0l0.4,0.1c0.8,0.3,1.7,0.5,2.6,0.5c2.4,0,4.5-1.3,5.9-3.6
						C161.3,423.7,161.6,421.7,161.1,419.8L161.1,419.8z M156.9,423.6c-0.8,1.3-2.1,2.1-3.5,2.1c-0.9,0-1.8-0.3-2.7-0.8l-5.3-3.1
						l-0.2-0.1l-0.1,0l0-0.1l0.1-0.2l4-6.8l0.1-0.2l0-0.1l0.1,0l0.2,0.1l5.3,3.1C157.3,419,158.1,421.4,156.9,423.6L156.9,423.6z"/>
					<path class="st4" d="M135.5,430.4L135.5,430.4l3.2,1.9L135.5,430.4L135.5,430.4z"/>
				</g>
				<path class="st4" d="M170,425.4L170,425.4l0.1,0l11.9,5.2l1.2-2.8l-15.3-6.7l-9.6,21.9l15.3,6.7l1.2-2.8l-11.9-5.2l-0.1,0l0-0.1
					l3-6.8l0-0.1l0.1,0l11.6,5.1l1.2-2.8l-11.6-5.1l-0.1,0l0-0.1L170,425.4L170,425.4z"/>
				<path class="st4" d="M204.1,437.9c-1.6-2.8-4.4-4.8-8.1-5.9l-8.8-2.6l-6.9,23l8.8,2.6c1.6,0.5,3.1,0.7,4.6,0.7
					c5.5,0,9.7-3.2,11.3-8.4C206,443.9,205.7,440.7,204.1,437.9L204.1,437.9z M201.3,446.1c-1.2,3.9-4.3,6.3-8.2,6.3
					c-1,0-2-0.2-3.1-0.5l-4.8-1.4l-0.2-0.1l-0.1,0l0-0.1l0.1-0.2l4.9-16.3l0.1-0.2l0-0.1l0.1,0l0.2,0.1l4.8,1.4
					c2.6,0.8,4.6,2.3,5.7,4.3C201.9,441.3,202,443.6,201.3,446.1L201.3,446.1z"/>
				<path class="st4" d="M212.8,436.4l-4.7,23.4l3.6,0.7l4.7-23.4L212.8,436.4z"/>
				<path class="st4" d="M220.2,438.1l-0.4,3l7.6,0.9l0.1,0v0.1l-2.5,20.6l3.7,0.5l2.5-20.6l0-0.1h0.1l7.6,0.9l0.4-3L220.2,438.1
					L220.2,438.1z"/>
				<path class="st4" d="M246.7,443.7L246.7,443.7L246.7,443.7l13,0.1l0-3l-16.7-0.2l-0.3,23.9l16.7,0.2l0-3l-13-0.2h-0.1v-0.1
					l0.1-7.5v-0.1h0.1l12.7,0.2l0-3l-12.7-0.2h-0.1v-0.1L246.7,443.7L246.7,443.7z"/>
				<path class="st4" d="M287.4,450.3c-0.7-6.5-5.5-10.7-12.4-10.7c-0.6,0-1.2,0-1.8,0.1l-9.1,1l2.5,23.9l9.1-1
					c3.8-0.4,6.9-1.9,9-4.3C286.9,456.8,287.8,453.7,287.4,450.3L287.4,450.3z M281.7,457.2c-1.5,1.8-3.7,2.9-6.3,3.2l-5,0.5l-0.2,0
					H270l0-0.1l0-0.2l-1.8-16.9l0-0.2v-0.1l0.1,0l0.2,0l5-0.5c0.5,0,0.9-0.1,1.3-0.1c4.8,0,8.2,3.1,8.7,7.9
					C283.8,453.1,283.1,455.5,281.7,457.2L281.7,457.2z"/>
				<path class="st4" d="M319.5,437.6c-0.9-3.3-3.6-5.4-7-5.4c-0.9,0-1.8,0.1-2.7,0.4l-10.5,2.9l6.5,23.1l3.7-1l-2.4-8.5l-0.1-0.2
					l0-0.1l0.1,0l0.2-0.1l6.5-1.8c2.4-0.7,4.1-1.9,5.2-3.7C319.9,441.5,320.1,439.5,319.5,437.6L319.5,437.6z M315.4,441.8
					c-0.6,1.1-1.7,1.8-3.1,2.2l-5.9,1.6l-0.2,0.1l-0.1,0l0-0.1l-0.1-0.2l-2.1-7.5l-0.1-0.2l0-0.1l0.1,0l0.2-0.1l5.9-1.7
					c0.5-0.1,1-0.2,1.6-0.2c2,0,3.6,1.2,4.1,3C316.1,439.8,315.9,440.9,315.4,441.8L315.4,441.8z"/>
				<path class="st4" d="M338.4,438.2l-0.4-0.3l-0.1-0.1l0.1-0.1l0.4-0.2c2.3-1.4,4.4-4.4,2.7-8.5c-1.2-2.9-3.6-4.5-6.6-4.5
					c-1.2,0-2.4,0.2-3.6,0.7l-10,4.1l9,22.1l3.4-1.4l-3.3-8.2l-0.1-0.3l0-0.1l0.1,0l0.3-0.1l4.1-1.7l0.2-0.1l0,0l0,0l0.1,0.1
					l8.5,6.2l3.9-1.6L338.4,438.2L338.4,438.2z M334.8,436.3l-5.7,2.3l-0.3,0.1l-0.1,0l0-0.1l-0.1-0.3l-2.9-7.3l-0.1-0.3l0-0.1
					l0.1,0l0.3-0.1l5.7-2.3c0.7-0.3,1.4-0.4,2.1-0.4c1.8,0,3.2,1,3.9,2.6c0.5,1.1,0.4,2.3-0.1,3.4
					C337,434.9,336.1,435.7,334.8,436.3L334.8,436.3z"/>
				<path class="st4" d="M391.3,402.2c-2.3-3-5.6-4.7-9.1-4.7c-2.9,0-5.8,1.1-8.5,3.1l-7.2,5.6l14.6,18.9l7.2-5.6
					C394.3,414.9,395.5,407.7,391.3,402.2L391.3,402.2z M386.4,417.1l-4,3.1l-0.2,0.2l-0.1,0l0-0.1l-0.2-0.2l-10.4-13.5l-0.2-0.2
					l0-0.1l0.1,0l0.2-0.2l4-3.1c1.9-1.4,3.9-2.2,5.8-2.2c2.6,0,5.1,1.3,6.9,3.7C391.4,408.6,390.7,413.9,386.4,417.1L386.4,417.1z"
					/>
				<g>
					<path class="st4" d="M412.2,385l-10.3-10.2l-2.6,2.7l10.3,10.1c1.5,1.5,2.3,3.1,2.3,4.8c0,1.7-0.8,3.4-2.3,4.9
						c-1.5,1.5-3.2,2.4-5,2.4s-3.3-0.8-4.8-2.2l-10.3-10.1l-2.6,2.7l10.4,10.2c2.1,2,4.3,3.1,6.7,3.1c2.6,0,5.3-1.3,7.8-3.8
						c2.5-2.5,3.7-5.1,3.7-7.7C415.4,389.4,414.3,387.1,412.2,385L412.2,385z"/>
					<path class="st4" d="M409.4,401.6c0.3-0.2,0.7-0.5,1-0.7C410,401.1,409.7,401.3,409.4,401.6z"/>
				</g>
				<path class="st4" d="M433.6,365.2l-3.1,1.6c0.8,2.4,0.4,5.3-1.2,7.3c-1.5,2-3.7,3.4-6.1,3.7c-0.4,0.1-0.8,0.1-1.2,0.1
					c-2,0-4-0.7-5.7-2c-2.1-1.6-3.4-3.7-3.8-6.1c-0.3-2.4,0.3-4.8,1.9-6.8c1.5-2,3.9-3.2,6.3-3.2c0.1,0,0.3,0,0.4,0l0.6-3.4
					c-0.2,0-0.3,0-0.5,0c-3.8,0-6.9,1.6-9.3,4.8c-2.2,2.9-3.2,6.3-2.8,9.6c0.4,3.3,2.1,6.2,4.9,8.3c2.2,1.7,4.8,2.5,7.4,2.5
					c3.9,0,7.7-2,10.3-5.5C434.3,372.7,434.9,369.1,433.6,365.2L433.6,365.2z"/>
				<path class="st4" d="M427.5,343.6L427.5,343.6l0-0.1l3.8-6.6l-2.6-1.5l-9.5,16.6l2.6,1.5l3.8-6.6l0-0.1l0.1,0l18,10.3l1.8-3.2
					L427.5,343.6L427.5,343.6z"/>
				<path class="st4" d="M431.8,328.3l-1.6,3.4l21.6,10.1l1.6-3.4L431.8,328.3L431.8,328.3z"/>
				<path class="st4" d="M460.8,310.9c-1.4-2.9-3.9-5.2-7.2-6.3c-1.5-0.5-2.9-0.8-4.4-0.8c-5.2,0-9.7,3.3-11.6,8.7
					c-2.4,7,0.7,13.8,7.5,16.2c1.5,0.5,2.9,0.8,4.4,0.8c5.3,0,9.7-3.3,11.6-8.7C462.2,317.4,462.1,313.9,460.8,310.9z M458,319.7
					c-1.3,3.7-4.3,5.9-8.1,5.9c-1.2,0-2.3-0.2-3.5-0.6c-5.1-1.8-7.5-6.5-5.8-11.4c1.3-3.7,4.3-5.9,8.1-5.9c1.2,0,2.3,0.2,3.5,0.6
					C457.4,310.1,459.8,314.8,458,319.7L458,319.7z"/>
				<path class="st4" d="M469.8,283.9l0.7-3.7l-23.5-4.4l-0.7,3.6l17.4,3.2l0.2,0l-0.2,0.1l-19.9,10l-0.7,3.9l23.5,4.4l0.7-3.6
					l-17.8-3.3l-0.2,0l0.2-0.1L469.8,283.9z"/>
			</g>
			<g>
				<path class="st4" d="M72.5,139.7l17.7,5.5l2.3-3.6L76,122.9l-2.3,3.6l13.2,14.1l0.6,0.7l0.2,0.2l-0.3-0.1l-0.9-0.3L68,135.4
					l-1.6,2.6l13,14.4l0.6,0.7l0.2,0.2l-0.3-0.1l-0.9-0.3l-18.4-5.9l-2.3,3.6l24,6.9l2.3-3.6l-12.5-13.6l-0.6-0.7l-0.2-0.2l0.3,0.1
					L72.5,139.7L72.5,139.7z"/>
				<path class="st4" d="M104.7,108.4c-2.4-2.1-5.3-3.3-8.2-3.3c-3.5,0-6.8,1.6-9.3,4.5c-4.8,5.5-4.4,12.9,1,17.6
					c2.4,2.1,5.3,3.3,8.2,3.3c3.5,0,6.8-1.6,9.4-4.5C110.5,120.6,110.1,113.2,104.7,108.4L104.7,108.4z M103.3,123.9
					c-1.7,1.9-3.9,3-6.3,3c-2.2,0-4.5-0.9-6.3-2.6c-1.9-1.7-3.1-3.9-3.4-6.1c-0.2-2.3,0.5-4.6,2.2-6.5c1.7-1.9,3.9-3,6.3-3
					c2.2,0,4.5,0.9,6.3,2.6c2,1.7,3.2,3.9,3.4,6.2C105.7,119.8,104.9,122.1,103.3,123.9L103.3,123.9z"/>
				<path class="st4" d="M113.8,104l3.3-2.9l0.1-0.1l0,0l0,0l0.1,0l10.1,3.2l3.3-2.8l-10.4-3.1l-0.4-0.1l-0.1,0l0.1-0.1l0.2-0.3
					c1.7-2,2.7-5.6-0.2-8.9c-1.5-1.7-3.4-2.6-5.4-2.6h0c-1.9,0-3.7,0.8-5.4,2.2l-8.1,7l15.7,18.1l2.8-2.5l-5.8-6.7l-0.2-0.2l0-0.1
					l0.1,0L113.8,104L113.8,104z M111.8,101.6l-0.2,0.2l-0.1,0l0-0.1l-0.2-0.2l-5.1-5.9l-0.2-0.2l0-0.1l0.1,0l0.2-0.2l4.6-4
					c1-0.8,2.1-1.3,3.2-1.3c1.2,0,2.3,0.5,3.1,1.5c0.8,0.9,1.1,1.9,1,3c-0.1,1.2-0.7,2.3-1.8,3.3L111.8,101.6L111.8,101.6z"/>
				<path class="st4" d="M144.8,87.7l-8.8,6.2l-0.2,0.1l-0.1,0l0-0.1l-0.1-0.2L123.8,77l-3.1,2.2l13.7,19.6l12.2-8.5L144.8,87.7
					L144.8,87.7z"/>
				<path class="st4" d="M163.5,67.1c-2.2-4-5.9-6.3-10.2-6.3c-2.3,0-4.6,0.6-6.8,1.8l-8,4.3L150,88.1l7.9-4.3
					c3.3-1.8,5.6-4.3,6.6-7.4C165.5,73.4,165.2,70.2,163.5,67.1L163.5,67.1z M161,75.6c-0.6,2.3-2.2,4.2-4.6,5.4l-4.4,2.3l-0.2,0.1
					l-0.1,0l0-0.1l-0.1-0.2l-8.1-15l-0.1-0.2l0-0.1l0.1,0l0.2-0.1l4.4-2.3c1.6-0.9,3.2-1.3,4.7-1.3c3.1,0,5.8,1.8,7.4,4.8
					C161.3,71.1,161.6,73.4,161,75.6L161,75.6z"/>
				<path class="st4" d="M179.6,54.4l10.7,15.2l4-1.4l-1.6-24.9l-4,1.5l1.9,19.2l0.1,0.9l0,0.3l-0.2-0.2l-0.5-0.8l-11.2-15.8l-2.8,1
					l1.6,19.3l0.1,0.9l0,0.3l-0.2-0.2l-0.5-0.8L165.9,53l-4,1.5l14.8,20.1l4-1.4L179,54.6l-0.1-0.9l0-0.3l0.2,0.2L179.6,54.4
					L179.6,54.4z"/>
				<path class="st4" d="M201.9,41.5l-3.7,0.9l5.7,23.3l3.7-0.9L201.9,41.5L201.9,41.5z"/>
				<path class="st4" d="M232.7,48.1c-0.9-6.1-5.7-10.1-12-10.1c-0.8,0-1.7,0.1-2.5,0.2l-8.9,1.4l3.6,23.7l8.9-1.4
					c3.7-0.6,6.7-2.2,8.7-4.7C232.5,54.7,233.3,51.6,232.7,48.1L232.7,48.1z M221.4,58.8l-4.9,0.8l-0.2,0l-0.1,0l0-0.1l0-0.2
					l-2.6-16.8l0-0.2l0-0.1l0.1,0l0.2,0l4.9-0.8c0.6-0.1,1.2-0.1,1.8-0.1c4.5,0,7.7,2.9,8.4,7.5C229.7,53.9,226.6,58,221.4,58.8
					L221.4,58.8z"/>
				<path class="st4" d="M255.4,56.1l-12.5,0.4h-0.2l-0.1,0v-0.3l-0.2-6.8v-0.2l0-0.1h0.3l12.2-0.4l-0.1-3.1l-12.2,0.4h-0.2l-0.1,0
					v-0.3l-0.2-6.4V39l0-0.1h0.3l12.5-0.4l-0.1-3.1l-16.6,0.5l0.8,23.9l16.6-0.5L255.4,56.1L255.4,56.1z"/>
				<path class="st4" d="M288.4,40.2c-1.2-1.5-3.1-2.5-5.5-2.7l-10.7-1.3l-2.9,23.7l3.7,0.5l1.1-8.8l0-0.2l0-0.1h0.1l0.2,0l4.3,0.5
					l0.1,0h0l0,0l0.1,0.1l4.3,9.6l4.3,0.5l-4.7-9.8l-0.2-0.3l0-0.1h0.1l0.4,0c2.7-0.1,5.9-1.8,6.5-6.2
					C290.2,43.6,289.6,41.7,288.4,40.2L288.4,40.2z M286,45.3c-0.3,2.2-2,3.7-4.4,3.7c-0.2,0-0.4,0-0.7,0l-6-0.7l-0.2,0l-0.1,0V48
					l0-0.2l1-7.8l0-0.2l0-0.1h0.1l0.2,0l6,0.7C284.7,40.8,286.3,42.8,286,45.3L286,45.3z"/>
				<path class="st4" d="M299.1,50.2l1.5-6.2l0.1-0.2l0-0.1l0.1,0l0.2,0.1l12.2,2.9l0.7-3.1l-16.2-3.8l-5.5,23.3l16.2,3.8l0.7-3.1
					l-12.2-2.9l-0.2-0.1l-0.1,0l0-0.1l0.1-0.2l1.6-6.6l0.1-0.2l0-0.1l0.1,0l0.2,0.1l11.9,2.8l0.7-3.1l-11.9-2.8l-0.2-0.1l-0.1,0
					l0-0.1L299.1,50.2L299.1,50.2z"/>
				<path class="st4" d="M324.7,50.3c0.7,0,1.4,0.1,2.2,0.4c2.6,0.9,4.7,2.7,6,4.9l2.9-1.8c-1.5-2.7-4-4.7-7.4-6
					c-1.3-0.5-2.7-0.7-3.9-0.7c-3.3,0-5.8,1.6-6.7,4.3c-1.6,4.6,2.3,7.2,5.8,9.5c2.7,1.8,5.2,3.4,4.4,5.8c-0.5,1.4-1.8,2.2-3.6,2.2
					c-0.8,0-1.7-0.2-2.7-0.5c-3.8-1.3-5.6-4.1-6.4-5.7l-2.9,1.9c1.5,3,4.2,5.3,8.1,6.7c1.6,0.6,3.2,0.9,4.5,0.9
					c3.3,0,5.7-1.7,6.8-4.6c1.7-4.8-2.4-7.5-6-9.9c-2.6-1.7-4.9-3.2-4.2-5.2C321.9,51.1,323.1,50.3,324.7,50.3L324.7,50.3z"/>
				<path class="st4" d="M353.2,58.8l-9.7-4.7l-10.4,21.6l3.4,1.6l3.8-8l0.1-0.2l0-0.1l0.1,0l0.2,0.1l6,2.9c1.3,0.6,2.6,1,3.9,1
					c2.8,0,5.2-1.6,6.4-4.2C358.8,65.5,358.2,61.1,353.2,58.8L353.2,58.8z M353.7,67.2c-0.7,1.5-2.1,2.4-3.7,2.4
					c-0.8,0-1.5-0.2-2.3-0.6l-5.4-2.6l-0.2-0.1l-0.1,0l0-0.1l0.1-0.2l3.4-7l0.1-0.2l0-0.1l0.1,0l0.2,0.1l5.4,2.6
					c1.3,0.6,2.2,1.5,2.6,2.7C354.2,65,354.2,66.1,353.7,67.2L353.7,67.2z"/>
				<path class="st4" d="M381.6,79.1c-0.7-3.1-2.7-5.9-5.6-7.8c-2.2-1.5-4.7-2.2-7.1-2.2c-4.1,0-7.8,2.1-10.1,5.8
					c-1.9,2.9-2.6,6.2-1.9,9.3c0.7,3.1,2.7,5.9,5.7,7.9c2.2,1.5,4.7,2.2,7.1,2.2c4.1,0,7.8-2.1,10.1-5.8
					C381.6,85.6,382.3,82.2,381.6,79.1L381.6,79.1z M376.5,86.4c-1.8,2.8-4.6,4.5-7.5,4.5c-1.6,0-3.2-0.5-4.7-1.5
					c-2-1.3-3.3-3.1-3.8-5.3c-0.5-2.3,0-4.8,1.5-7.1c1.8-2.8,4.6-4.5,7.5-4.5c1.6,0,3.2,0.5,4.8,1.5
					C378.5,76.7,379.5,81.8,376.5,86.4L376.5,86.4z"/>
				<path class="st4" d="M405.4,94.4l-11,12.7l-0.5,0.6l-0.1,0.2l0-0.2l0-0.8l1.4-21.2l-3.1-2.7l-15.7,18.1l2.9,2.5l11.3-13l0.5-0.6
					l0.1-0.2l0,0.2l0,0.8l-1.6,21.7l2.9,2.5l15.7-18.1L405.4,94.4L405.4,94.4z"/>
				<path class="st4" d="M419.6,108.5c-2.1-2.3-4.5-3.5-6.9-3.5c-1.6,0-3,0.5-4.1,1.6c-3.6,3.3-1.4,7.4,0.6,11.1
					c1.5,2.8,2.9,5.5,1.1,7.2c-0.6,0.5-1.3,0.8-2.1,0.8c-1,0-2.5-0.4-4.2-2.3c-2.7-3-3-6.3-2.9-8.1l-3.4,0.3
					c-0.2,3.4,1.2,6.7,3.9,9.7c2.3,2.6,4.8,3.9,7.2,3.9c1.6,0,3.2-0.6,4.5-1.8c3.8-3.4,1.5-7.7-0.5-11.6c-1.5-2.8-2.8-5.2-1.2-6.6
					c0.6-0.5,1.3-0.8,2-0.8c1.2,0,2.5,0.7,3.6,1.9c1.9,2.1,2.9,4.6,2.9,7.2l3.4-0.2C423.3,114.1,422.1,111.2,419.6,108.5
					L419.6,108.5z"/>
				<path class="st4" d="M429.5,120.8l-19,14.6l2.3,3l19-14.6L429.5,120.8z"/>
				<path class="st4" d="M442.9,139.9l-6.5-10.2l-20.1,12.9l6.7,10.4c1.5,2.3,3.5,3.6,5.6,3.6c1.2,0,2.4-0.4,3.5-1.1
					c2.4-1.5,3.4-4.6,2.3-7l-0.6-1.3l-0.2-0.4l0.3,0.3l1,1c0.9,1,2.3,1.5,3.7,1.5c1.1,0,2.1-0.3,3.1-0.9
					C444.6,146.9,445.1,143.3,442.9,139.9L442.9,139.9z M432.1,149.7c-0.2,0.9-0.8,1.8-1.6,2.3c-0.7,0.4-1.4,0.7-2.1,0.7
					c-1.3,0-2.5-0.8-3.3-2.1l-3.9-6.1l-0.1-0.2l0-0.1l0.1,0l0.2-0.1l5.7-3.7l0.2-0.1l0.1,0l0,0.1l0.1,0.2l3.9,6.1
					C432,147.5,432.3,148.6,432.1,149.7L432.1,149.7z M438.9,146c-0.6,0.4-1.3,0.6-1.9,0.6c-1.2,0-2.3-0.7-3.1-1.9l-3.8-6l-0.1-0.2
					l0-0.1l0.1,0l0.2-0.1l5.4-3.5l0.2-0.1l0.1,0l0,0.1l0.1,0.2l3.8,6C441,142.8,440.7,144.8,438.9,146z"/>
				<path class="st4" d="M433.3,165L433.3,165l0.3-0.1l18.3-9.1l-1.7-3.4L428.8,163l6.6,13.3l2.8-1.4l-4.8-9.7L433.3,165L433.3,165z
					"/>
				<path class="st4" d="M459.5,171.7L437,180l5.8,15.5l3-1.1l-4.4-11.7l-0.1-0.2l0-0.1l0.1,0l0.2-0.1l6.4-2.4l0.2-0.1l0.1,0l0,0.1
					l0.1,0.2l4.3,11.5l2.9-1.1l-4.3-11.5l-0.1-0.2l0-0.1l0.1,0l0.2-0.1l6-2.2l0.2-0.1l0.1,0l0,0.1l0.1,0.2l4.4,11.7l3-1.1
					L459.5,171.7L459.5,171.7z"/>
			</g>
		</g>
		<g>
			<g>
				<path class="st4" d="M328.3,221.3c-1.8-1.5-4.5-1.5-8.2-0.1c-0.1,0-0.2,0.1-0.4,0.1c-2,0.8-3.1,1.1-5.1,1.8
					c1.4,9,2.2,13.7,3.7,23.3c2-0.7,2.9-1.1,4.9-1.8c3.9-1.6,6.5-4,7.7-6.9c0.2-0.4,0.3-0.8,0.4-1.2c0.8-2.6,1-5.3,0.4-8.2
					C331.3,225.2,330,222.8,328.3,221.3L328.3,221.3z"/>
				<path class="st4" d="M185.5,227.1c-1.6-1.9-4.6-3.2-8.8-3.8c-4.1-0.6-6.1-1-10-1.6c0.2,7.7,0.2,11.6,0.4,19.2
					c3.8,0.6,5.8,0.9,9.7,1.5c1.1,0.2,3.2,0,6.2-0.3c1.5-0.2,2.8-0.9,3.7-2.3c0.9-1.4,1.4-3.2,1.3-5.3
					C188,231.5,187.1,229,185.5,227.1L185.5,227.1z"/>
				<path class="st4" d="M266,270.3L266,270.3c-2.8-12.2-4.5-19.6-7.3-32.8c-2.1,14.9-3.5,22.3-6,36.8c5.9,0.4,8.6,0.4,13.4,0.5
					c0.3,0,0.6,0,0.9,0C266.6,273.2,266.3,271.8,266,270.3L266,270.3L266,270.3z"/>
				<path class="st4" d="M378.6,279.7L378.6,279.7l-0.5-2.4l0,0l-17.7-88l-0.2-1.1l-0.7-3.2l-0.2-1.1l-2.4-11.7
					c0,0-5.6,5.7-18.8,11.8H338c-0.8,0.4-1.7,0.8-2.6,1.1c-0.6,0.3-1.3,0.5-1.9,0.8c-0.3,0.1-0.7,0.3-1.1,0.4
					c-1.7,0.7-3.5,1.4-5.4,2.1h0l0,0c-0.8,0.3-1.6,0.6-2.5,0.9c-0.3,0.1-0.6,0.2-0.9,0.3h0l0,0c0,0-0.1,0-0.1,0
					c-6.5,2.1-14,4.1-22.6,5.6c-1.9,0.3-3.8,0.7-5.8,1c-8.7,1.3-18.4,2.3-29.3,2.7c-0.4,0-0.8,0-1.1,0c-2.5,0.1-5.1,0.1-7.8,0.1
					h-0.3c-0.3,0-0.5,0-0.8,0c-3,0-6,0-9.2-0.1c-11.8-0.3-24.8-1.3-38.9-3.1c-1.8-0.2-4-0.7-6.5-1.2c-0.4-0.1-0.7-0.2-1.1-0.2
					c-2-0.5-4.2-1-6.6-1.5c-0.4-0.1-0.7-0.2-1.1-0.3c-2.7-0.6-5.7-1.3-8.9-2h-0.1c-1.6-0.4-3.2-0.7-5-1.1h-0.1
					c-5.2-1.1-10.9-2.2-17.3-3.1H161c-0.6-0.1-1.1-0.2-1.7-0.2c-1.4-0.2-2.8-0.4-4.3-0.6c-0.4,0-0.8-0.1-1.1-0.1
					c-0.3,0-0.5-0.1-0.8-0.1c-1.6-0.2-3.2-0.4-4.8-0.5c-0.4,0-0.8-0.1-1.2-0.1c-2.6-0.3-5.2-0.5-8-0.7c-2.2-0.2-4.4-0.3-6.7-0.4
					c-0.4,0-0.7,0-1.1-0.1c-2.1-0.1-4.2-0.2-6.3-0.2c-0.4,0-0.8,0-1.1,0c-2.5,0-5,0-7.6,0c-1.2,0-2.3,0-3.5,0.1
					c-5.1,0.1-10.3,0.4-15.8,0.8c-0.4,0-0.8,0.1-1.2,0.1c-0.4,0-0.7,0.1-1.1,0.1c-0.2,0-0.4,0-0.6,0c0,0-1.7,0.2-4.8,0.9
					c-0.4,0.1-0.9,0.2-1.4,0.3c-0.4,0.1-0.8,0.2-1.3,0.3C74.1,188.9,48,197.9,25,222.2L52,344.1c0,0,14.6-13.9,39.4-23.9
					c0.3-0.1,0.7-0.3,1-0.4c2.7-1.1,5.5-2.1,8.4-3c0.4-0.1,0.7-0.2,1.1-0.3c5.7-1.8,11.9-3.3,18.4-4.4c1.4-0.2,2.8-0.5,4.2-0.6
					c0.4-0.1,0.8-0.1,1.2-0.2c3.1-0.4,6.2-0.7,9.2-1c0.4,0,0.8-0.1,1.2-0.1c6.5-0.4,12.7-0.5,18.5-0.3c0.4,0,0.9,0,1.3,0.1
					c3.7,0.2,7.3,0.5,10.7,0.8c0.5,0,0.9,0.1,1.4,0.2h0c14.7,1.7,26.1,4.8,33,6.5c0.5,0.1,0.9,0.2,1.3,0.3h0
					c1.1,0.3,2.1,0.5,2.9,0.7c0.7,0.1,2,0.5,3.9,0.9c1,0.2,2.1,0.5,3.3,0.8c0.4,0.1,0.9,0.2,1.3,0.3h0c1.3,0.3,2.7,0.6,4.2,0.9
					c9.7,2.1,23.9,4.7,40.2,6.2c0.4,0,0.8,0.1,1.1,0.1c2.5,0.2,5.1,0.4,7.8,0.5c0.1,0,0.1,0,0.2,0c0.3,0,0.6,0,0.9,0
					c1.9,0.1,3.8,0.2,5.8,0.2c11.9,0.3,24.5-0.1,36.9-2c0.4-0.1,0.9-0.1,1.3-0.2c2.1-0.3,4.2-0.7,6.3-1.1c0.4-0.1,0.9-0.2,1.3-0.3
					c2.9-0.6,5.8-1.3,8.6-2.1c3.1-0.9,6.2-1.8,9.2-3c8-2.9,15.7-6.7,22.8-11.5c2.9-1.9,5.7-4.1,8.4-6.4c0.1-0.1,0.2-0.2,0.3-0.3
					c0.6-0.5,1.2-1,1.8-1.6h0c2.7-2.5,5.3-5.2,7.7-8.1c0.3-0.4,0.6-0.8,0.9-1.1c0.3-0.4,0.7-0.8,1-1.2L378.6,279.7L378.6,279.7z
					 M126.8,273.4l-0.7,5.1c-0.8,6.1-1.6,12.2-2.4,18.4c-1,0.1-1.9,0.2-2.8,0.3c-0.4,0-0.8,0.1-1.1,0.1c-5.3,0.6-8.8,1.3-14.9,2.7
					c-5.2-25.1-8-37.6-13.5-62.7c-1.6,12-2.9,21.5-4,30.7c-0.2,1.4-0.3,2.8-0.5,4.3c-0.9,8.2-1.8,16.4-2.8,26.2
					c-0.1,0.9-0.2,1.9-0.3,2.9c-0.2,1.9-0.4,4-0.6,6c-7.7,3.4-11.6,5.4-20.1,10.5c-9.2-37-14-58.6-19.9-93.5
					c7.8-7,11.7-9.9,19.6-14.6c3.4,21.4,5.4,32.9,9.4,55.2c2.9-25.8,4.5-38.7,8.2-63.5c0.7-0.3,1.5-0.5,2.1-0.8
					c0.5-0.2,0.9-0.3,1.3-0.4c0.5-0.2,1.1-0.3,1.6-0.5c2-0.6,3.7-1.1,5.5-1.5c0.4-0.1,0.8-0.2,1.3-0.3c2.4-0.5,4.9-0.9,8.1-1.4
					c0.3,1.3,0.5,2.6,0.8,3.9c4,20.2,6.3,31.5,10.5,52.6c2.4-23.2,3.7-34.5,6.6-57.6c0.7,0,1.3,0,1.9,0c0.4,0,0.8,0,1.1,0h0
					c2.5,0.1,4.7,0.2,6.8,0.4c0.4,0,0.7,0.1,1.1,0.1c2.7,0.3,5.5,0.6,9.1,1.2C134.4,222.6,130.4,248,126.8,273.4L126.8,273.4z
					 M275.5,314.5c-1.4-6.7-2.1-10.2-3.6-17c-1.6,0-3-0.1-4.3-0.1c-0.4,0-0.8,0-1.1,0c-5.7-0.2-9.9-0.4-17.9-1.4
					c-1.3,6.5-1.9,9.7-3.3,16.1c-9.3-1.4-14.2-2.4-24.1-4.4l0,0c0-0.1,0-0.1-0.1-0.2c0,0,0,0.1,0,0.1c-5-1-8.8-1.9-12.6-2.7
					c-0.4-0.1-0.8-0.2-1.3-0.3c-4.1-0.9-8.2-1.8-13.6-2.9c-5.4-12.9-8.2-19.3-13.7-31.7c-1.7-4-3.2-6.7-4.5-8
					c-1.7-1.7-3.7-2.8-5.8-3.1c-0.8-0.1-1.2-0.2-2-0.3c0.4,15.3,0.6,22.9,0.8,38.7c-3.2-0.4-5.8-0.8-8.1-1c-0.4,0-0.9-0.1-1.3-0.1h0
					c-4.1-0.4-7.8-0.5-13.2-0.5c0-14,0-27.9,0-41.9v-29.3c0-3.3,0-6.6,0-9.8v-16.3c0.7,0.1,1.4,0.3,2.1,0.4c0.4,0.1,0.9,0.2,1.3,0.2
					c0.4,0.1,0.8,0.1,1.1,0.2c9.2,1.7,15,2.8,24.6,4.3c2,0.3,4.2,0.7,6.6,1c3.2,0.5,6,1.1,8.6,1.7c0.4,0.1,0.7,0.2,1.1,0.3
					c2.7,0.8,5,1.6,6.9,2.6c0.1,0,0.2,0.1,0.3,0.1c0.3,0.1,0.5,0.3,0.8,0.4c3.6,2.1,6.6,5.3,9,9.6c2.5,4.6,3.9,10,4.2,16.3
					c0.2,5.4-0.5,9.9-2.2,13.6c-1.7,3.6-4.1,6.4-7.3,8.2c-1,0.6-2.2,1.1-3.6,1.4c-0.4,0.1-0.7,0.2-1.1,0.3c-1.1,0.2-2.4,0.4-3.7,0.6
					c1.6,0.9,2.9,1.8,4.1,2.6h0c0.5,0.3,0.9,0.7,1.3,1c0.4,0.3,0.8,0.7,1.1,1c0.9,1,2.3,2.9,4.1,5.8c1.8,2.9,3,5.1,3.7,6.7
					c5.1,12.1,7.7,18.3,12.5,30.5c9.6-31.8,17.1-64.2,25.4-96.3c3.9,0.1,6.8,0.1,9.5,0.1c0.4,0,0.8,0,1.1,0c2.6,0,5-0.1,7.8-0.3
					c0.4,0,0.7,0,1.1-0.1c0.7,0,1.4-0.1,2.1-0.1c7.9,34.7,18.6,69.3,29.7,103.1C288.6,314.7,284.1,314.7,275.5,314.5L275.5,314.5z
					 M350.8,243.6c-1.4,3.9-3.3,7.5-5.7,10.7c-2.5,3.3-5.6,6-9.3,8.2c-0.4,0.2-0.8,0.5-1.2,0.7c-0.4,0.2-0.8,0.4-1.2,0.6
					c-4.6,2.2-6.9,3.1-11.5,4.7c0.7,4.5,1.3,8.4,1.8,12c0.2,1.1,0.3,2.2,0.5,3.3c0.9,5.8,1.6,11,2.3,17.1l0,0c0,0.2,0,0.4,0.1,0.6
					c0.1,0.8,0.2,1.6,0.3,2.4c0.1,1.3,0.3,2.6,0.4,3.9c-0.6,0.2-1.2,0.4-1.8,0.6c-0.4,0.1-0.7,0.2-1,0.4c-0.1,0-0.2,0.1-0.3,0.1
					c-7,2.4-11.5,3.2-19.3,4.3c-2.6-35.1-7.5-70-10.5-105.1c5.1-0.9,9.1-1.7,13.2-2.8c4.8-1.3,9.8-2.9,16.9-5.5
					c3.7-1.4,7.1-2.2,10.2-2.3c0.4,0,0.8,0,1.1,0c2.5,0,4.9,0.5,6.9,1.5c4.9,2.4,8.2,7.4,10.1,16.7
					C354.5,225.2,353.9,234.8,350.8,243.6L350.8,243.6z"/>
			</g>
			<g>
				<path class="st5" d="M221.5,307.4c0,0,0,0.1,0,0.1c0,0,0.1,0,0.1,0l0,0C221.6,307.5,221.6,307.5,221.5,307.4L221.5,307.4z"/>
				<path class="st5" d="M221.5,307.4c0,0,0,0.1,0,0.1c0,0,0.1,0,0.1,0C221.6,307.5,221.6,307.5,221.5,307.4L221.5,307.4z"/>
			</g>
		</g>
	</g>
</g>
</svg>
