<svg width="68" height="68" viewBox="0 0 68 68" fill="none" xmlns="http://www.w3.org/2000/svg">
	<g filter="url(#filter0_d_32_687)">
		<rect x="4" width="60" height="60" rx="4" fill="white"/>
	</g>
	<path d="M25 26.28H31.96V25.08C31.96 24.28 32.0133 23.64 32.12 23.16C32.2533 22.6533 32.4133 22.2667 32.6 22C32.8133 21.7333 33.04 21.56 33.28 21.48C33.52 21.3733 33.7733 21.32 34.04 21.32C34.6267 21.32 35.0933 21.5467 35.44 22C35.7867 22.4533 35.96 23.28 35.96 24.48C35.96 25.5467 35.8 26.4133 35.48 27.08C35.1867 27.72 34.68 28.4 33.96 29.12L29 34.16C27.3733 35.84 26.2533 37.5733 25.64 39.36C25.0533 41.12 24.76 43 24.76 45H43.4V39.4H33.64C33.7733 38.9733 34.0267 38.56 34.4 38.16C34.8 37.76 35.16 37.4 35.48 37.08L39.88 32.8C40.9467 31.7333 41.8 30.5467 42.44 29.24C43.08 27.9333 43.4 26.32 43.4 24.4C43.4 23.3333 43.2667 22.3333 43 21.4C42.76 20.4667 42.2933 19.6533 41.6 18.96C40.9333 18.24 40.0133 17.68 38.84 17.28C37.6667 16.88 36.1467 16.68 34.28 16.68C32.3333 16.68 30.76 16.9067 29.56 17.36C28.36 17.8133 27.4267 18.4667 26.76 19.32C26.0933 20.1467 25.64 21.16 25.4 22.36C25.16 23.5333 25.0267 24.84 25 26.28Z" fill="#005DFF"/>
	<path d="M25 26.28L24.0002 26.2615L23.9813 27.28H25V26.28ZM31.96 26.28V27.28H32.96V26.28H31.96ZM32.12 23.16L31.1529 22.9055L31.148 22.9242L31.1438 22.9431L32.12 23.16ZM32.6 22L31.8191 21.3753L31.7991 21.4003L31.7808 21.4265L32.6 22ZM33.28 21.48L33.5962 22.4287L33.642 22.4134L33.6861 22.3938L33.28 21.48ZM35.44 22L36.2344 21.3925H36.2344L35.44 22ZM35.48 27.08L34.5785 26.6473L34.5746 26.6553L34.5709 26.6633L35.48 27.08ZM33.96 29.12L33.2529 28.4129L33.2473 28.4186L33.96 29.12ZM29 34.16L28.2872 33.4585L28.2816 33.4644L29 34.16ZM25.64 39.36L24.6941 39.0353L24.6913 39.0438L25.64 39.36ZM24.76 45H23.76V46H24.76V45ZM43.4 45V46H44.4V45H43.4ZM43.4 39.4H44.4V38.4H43.4V39.4ZM33.64 39.4L32.6855 39.1017L32.2798 40.4H33.64V39.4ZM34.4 38.16L33.6929 37.4529L33.6807 37.4651L33.6689 37.4777L34.4 38.16ZM35.48 37.08L34.7827 36.3631L34.7729 36.3729L35.48 37.08ZM39.88 32.8L40.5773 33.5169L40.5871 33.5071L39.88 32.8ZM42.44 29.24L43.3381 29.6799L42.44 29.24ZM43 21.4L42.0315 21.649L42.0348 21.6619L42.0385 21.6747L43 21.4ZM41.6 18.96L40.8662 19.6394L40.8793 19.6535L40.8929 19.6671L41.6 18.96ZM29.56 17.36L29.2066 16.4245H29.2066L29.56 17.36ZM26.76 19.32L27.5384 19.9478L27.5433 19.9417L27.548 19.9356L26.76 19.32ZM25.4 22.36L26.3797 22.5604L26.3806 22.5561L25.4 22.36ZM25 27.28H31.96V25.28H25V27.28ZM32.96 26.28V25.08H30.96V26.28H32.96ZM32.96 25.08C32.96 24.3136 33.0121 23.7555 33.0962 23.3769L31.1438 22.9431C31.0146 23.5245 30.96 24.2464 30.96 25.08H32.96ZM33.0871 23.4145C33.2064 22.9611 33.3289 22.7025 33.4192 22.5735L31.7808 21.4265C31.4978 21.8308 31.3003 22.3456 31.1529 22.9055L33.0871 23.4145ZM33.3809 22.6247C33.5148 22.4573 33.5927 22.4299 33.5962 22.4287L32.9638 20.5313C32.4873 20.6901 32.1119 21.0094 31.8191 21.3753L33.3809 22.6247ZM33.6861 22.3938C33.7963 22.3449 33.911 22.32 34.04 22.32V20.32C33.6356 20.32 33.2437 20.4018 32.8739 20.5662L33.6861 22.3938ZM34.04 22.32C34.3254 22.32 34.4943 22.4095 34.6456 22.6074L36.2344 21.3925C35.6924 20.6838 34.9279 20.32 34.04 20.32V22.32ZM34.6456 22.6074C34.7749 22.7764 34.96 23.3016 34.96 24.48H36.96C36.96 23.2584 36.7985 22.1302 36.2344 21.3925L34.6456 22.6074ZM34.96 24.48C34.96 25.4583 34.8115 26.1618 34.5785 26.6473L36.3815 27.5127C36.7885 26.6648 36.96 25.635 36.96 24.48H34.96ZM34.5709 26.6633C34.3439 27.1586 33.9231 27.7427 33.2529 28.4129L34.6671 29.8271C35.4369 29.0573 36.0294 28.2814 36.3891 27.4967L34.5709 26.6633ZM33.2473 28.4186L28.2873 33.4586L29.7127 34.8614L34.6727 29.8214L33.2473 28.4186ZM28.2816 33.4644C26.5765 35.2254 25.3651 37.0808 24.6942 39.0353L26.5858 39.6847C27.1415 38.0658 28.1702 36.4546 29.7184 34.8556L28.2816 33.4644ZM24.6913 39.0438C24.0681 40.9134 23.76 42.9009 23.76 45H25.76C25.76 43.0991 26.0386 41.3266 26.5887 39.6762L24.6913 39.0438ZM24.76 46H43.4V44H24.76V46ZM44.4 45V39.4H42.4V45H44.4ZM43.4 38.4H33.64V40.4H43.4V38.4ZM34.5945 39.6983C34.6742 39.4432 34.8376 39.1568 35.1311 38.8423L33.6689 37.4777C33.2158 37.9632 32.8725 38.5035 32.6855 39.1017L34.5945 39.6983ZM35.1071 38.8671C35.5071 38.4671 35.8671 38.1071 36.1871 37.7871L34.7729 36.3729C34.4529 36.6929 34.0929 37.0529 33.6929 37.4529L35.1071 38.8671ZM36.1773 37.7968L40.5773 33.5168L39.1827 32.0832L34.7827 36.3632L36.1773 37.7968ZM40.5871 33.5071C41.7288 32.3654 42.6478 31.0891 43.3381 29.6799L41.5419 28.8001C40.9522 30.0042 40.1645 31.1013 39.1729 32.0929L40.5871 33.5071ZM43.3381 29.6799C44.063 28.1997 44.4 26.4258 44.4 24.4H42.4C42.4 26.2142 42.097 27.6669 41.5419 28.8001L43.3381 29.6799ZM44.4 24.4C44.4 23.2495 44.2561 22.1563 43.9615 21.1253L42.0385 21.6747C42.2772 22.5104 42.4 23.4172 42.4 24.4H44.4ZM43.9685 21.151C43.6831 20.0411 43.1247 19.0705 42.3071 18.2529L40.8929 19.6671C41.462 20.2362 41.8369 20.8922 42.0315 21.649L43.9685 21.151ZM42.3338 18.2806C41.5285 17.4109 40.4526 16.7732 39.1627 16.3335L38.5173 18.2265C39.5741 18.5868 40.3382 19.0691 40.8662 19.6394L42.3338 18.2806ZM39.1627 16.3335C37.847 15.885 36.2067 15.68 34.28 15.68V17.68C36.0867 17.68 37.4864 17.875 38.5173 18.2265L39.1627 16.3335ZM34.28 15.68C32.2687 15.68 30.5622 15.9124 29.2066 16.4245L29.9134 18.2955C30.9578 17.9009 32.398 17.68 34.28 17.68V15.68ZM29.2066 16.4245C27.8671 16.9306 26.7708 17.6819 25.972 18.7044L27.548 19.9356C28.0825 19.2515 28.8529 18.6961 29.9134 18.2955L29.2066 16.4245ZM25.9816 18.6922C25.1993 19.6623 24.6862 20.83 24.4194 22.1639L26.3806 22.5561C26.5938 21.49 26.9874 20.631 27.5384 19.9478L25.9816 18.6922ZM24.4203 22.1596C24.1659 23.4034 24.0278 24.7722 24.0002 26.2615L25.9998 26.2985C26.0256 24.9078 26.1541 23.6633 26.3797 22.5604L24.4203 22.1596Z" fill="#005DFF"/>
	<defs>
		<filter id="filter0_d_32_687" x="0" y="0" width="68" height="68" filterUnits="userSpaceOnUse" color-interpolation-filters="sRGB">
			<feFlood flood-opacity="0" result="BackgroundImageFix"/>
			<feColorMatrix in="SourceAlpha" type="matrix" values="0 0 0 0 0 0 0 0 0 0 0 0 0 0 0 0 0 0 127 0" result="hardAlpha"/>
			<feOffset dy="4"/>
			<feGaussianBlur stdDeviation="2"/>
			<feComposite in2="hardAlpha" operator="out"/>
			<feColorMatrix type="matrix" values="0 0 0 0 0 0 0 0 0 0 0 0 0 0 0 0 0 0 0.1 0"/>
			<feBlend mode="normal" in2="BackgroundImageFix" result="effect1_dropShadow_32_687"/>
			<feBlend mode="normal" in="SourceGraphic" in2="effect1_dropShadow_32_687" result="shape"/>
		</filter>
	</defs>
</svg>

