<svg width="16" height="16" viewBox="0 0 16 16" fill="none" xmlns="http://www.w3.org/2000/svg">
	<g clip-path="url(#clip0_6436_24849)">
		<path d="M14.6668 14.667H1.3335" stroke="#8693AD" stroke-width="1.5" stroke-linecap="round"/>
		<path d="M13.9999 14.6668V4.00016C13.9999 2.74283 13.9999 2.11483 13.6093 1.72416C13.2186 1.3335 12.5906 1.3335 11.3333 1.3335H9.99994C8.7426 1.3335 8.1146 1.3335 7.72394 1.72416C7.40927 2.03816 7.34794 2.50683 7.33594 3.3335" stroke="#8693AD" stroke-width="1.5"/>
		<path d="M10 14.6668V6.00016C10 4.74283 10 4.11483 9.60933 3.72416C9.21867 3.3335 8.59067 3.3335 7.33333 3.3335H4.66667C3.40933 3.3335 2.78133 3.3335 2.39067 3.72416C2 4.11483 2 4.74283 2 6.00016V14.6668" stroke="#8693AD" stroke-width="1.5"/>
		<path d="M6 14.6668V12.6668M4 5.3335H8M4 7.3335H8M4 9.3335H8" stroke="#8693AD" stroke-width="1.5" stroke-linecap="round"/>
	</g>
	<defs>
		<clipPath id="clip0_6436_24849">
			<rect width="16" height="16" fill="white"/>
		</clipPath>
	</defs>
</svg>
