<svg width="16" height="16" viewBox="0 0 16 16" fill="none" xmlns="http://www.w3.org/2000/svg">
	<path
		d="M14.6667 8.6665L12.2932 9.85321C10.7191 10.6403 9.93197 11.0339 9.10639 11.1887C8.37517 11.3259 7.62483 11.3259 6.89361 11.1887C6.06803 11.0339 5.28094 10.6403 3.70675 9.85321L1.33333 8.6665M14.6667 11.9998L12.2932 13.1865C10.7191 13.9736 9.93197 14.3672 9.10639 14.5221C8.37517 14.6593 7.62483 14.6593 6.89361 14.5221C6.06803 14.3672 5.28094 13.9736 3.70675 13.1865L1.33333 11.9998M5.33333 7.33317V7.33317C6.19105 7.76203 6.61991 7.97646 7.06423 8.08337C7.6793 8.23137 8.3207 8.23137 8.93577 8.08337C9.38009 7.97646 9.80895 7.76203 10.6667 7.33317V7.33317C12.1693 6.58188 12.9205 6.20623 13.2183 5.7354C13.6311 5.08259 13.6311 4.25042 13.2183 3.5976C12.9205 3.12677 12.1693 2.75113 10.6667 1.99984V1.99984C9.80895 1.57098 9.38009 1.35655 8.93577 1.24964C8.3207 1.10164 7.6793 1.10164 7.06423 1.24964C6.61991 1.35655 6.19105 1.57098 5.33333 1.99984V1.99984C3.83075 2.75113 3.07946 3.12677 2.78174 3.5976C2.36894 4.25042 2.36894 5.08259 2.78174 5.7354C3.07946 6.20623 3.83075 6.58188 5.33333 7.33317Z"
		stroke="#8693AD" stroke-width="1.5" stroke-linecap="round" stroke-linejoin="round"/>
</svg>
