<svg width="24" height="24" viewBox="0 0 24 24" fill="none" xmlns="http://www.w3.org/2000/svg">
	<g clip-path="url(#clip0_6862_105)">
		<path d="M23.1085 12.8843C22.9393 15.0109 22.1632 17.0442 20.8723 18.7426C19.5815 20.4411 17.8303 21.7333 15.8267 22.4658C13.8231 23.1983 11.6513 23.3402 9.56938 22.8747C7.48748 22.4092 5.58296 21.3559 4.08209 19.8398C2.58121 18.3238 1.54707 16.4088 1.10253 14.3223C0.657984 12.2358 0.821723 10.0656 1.57429 8.06946C2.32686 6.07331 3.63663 4.33514 5.34798 3.06146C7.05933 1.78778 9.10034 1.03213 11.2285 0.884277" stroke="#8693AD" stroke-width="1.5" stroke-linecap="round" stroke-linejoin="round"/>
		<path d="M16.7828 13.8684C16.4732 14.6652 15.9699 15.3722 15.3184 15.9256C14.6669 16.479 13.8877 16.8613 13.0514 17.0378C12.215 17.2144 11.3478 17.1797 10.5282 16.9369C9.70856 16.6941 8.96241 16.2508 8.35718 15.6471C7.75196 15.0434 7.30675 14.2984 7.06182 13.4795C6.81689 12.6605 6.77997 11.7934 6.95438 10.9565C7.1288 10.1197 7.50906 9.33954 8.06077 8.68661C8.61248 8.03367 9.31825 7.52855 10.1142 7.21693M12 11.9998L16.2857 7.71408M16.2857 7.71408L19.7142 8.57122L23.1428 5.14265L19.7142 4.28551L18.8571 0.856934L15.4285 4.28551L16.2857 7.71408Z" stroke="#8693AD" stroke-width="1.5" stroke-linecap="round" stroke-linejoin="round"/>
	</g>
	<defs>
		<clipPath id="clip0_6862_105">
			<rect width="24" height="24" fill="white"/>
		</clipPath>
	</defs>
</svg>
