<svg width="24" height="28" viewBox="0 0 24 28" fill="none" xmlns="http://www.w3.org/2000/svg">
<path d="M18.4268 0.546631H5.57342C2.74676 0.546631 0.426758 2.86663 0.426758 5.6933V24.48C0.426758 26.88 2.14676 27.8933 4.25342 26.7333L10.7601 23.12C11.4534 22.7333 12.5734 22.7333 13.2534 23.12L19.7601 26.7333C21.8668 27.9066 23.5868 26.8933 23.5868 24.48V5.6933C23.5734 2.86663 21.2668 0.546631 18.4268 0.546631ZM16.8268 10.04L11.4934 15.3733C11.2934 15.5733 11.0401 15.6666 10.7868 15.6666C10.5334 15.6666 10.2801 15.5733 10.0801 15.3733L8.08009 13.3733C7.69343 12.9866 7.69343 12.3466 8.08009 11.96C8.46676 11.5733 9.10676 11.5733 9.49343 11.96L10.7868 13.2533L15.4134 8.62663C15.8001 8.23996 16.4401 8.23996 16.8268 8.62663C17.2134 9.0133 17.2134 9.6533 16.8268 10.04Z" fill="#FF64CA"/>
</svg>
