<svg width="24" height="28" viewBox="0 0 24 28" fill="none" xmlns="http://www.w3.org/2000/svg">
<path d="M22.6134 9.9467C21.7201 8.96003 20.3734 8.3867 18.5067 8.1867V7.17336C18.5067 5.3467 17.7334 3.5867 16.3734 2.36003C15.0001 1.1067 13.2134 0.52003 11.3601 0.693363C8.1734 1.00003 5.4934 4.08003 5.4934 7.41336V8.1867C3.62673 8.3867 2.28007 8.96003 1.38673 9.9467C0.0934012 11.3867 0.133401 13.3067 0.280068 14.64L1.2134 22.0667C1.4934 24.6667 2.54673 27.3334 8.28007 27.3334H15.7201C21.4534 27.3334 22.5067 24.6667 22.7867 22.08L23.7201 14.6267C23.8667 13.3067 23.8934 11.3867 22.6134 9.9467ZM11.5467 2.5467C12.8801 2.4267 14.1467 2.84003 15.1334 3.73336C16.1067 4.61336 16.6534 5.8667 16.6534 7.17336V8.1067H7.34674V7.41336C7.34674 5.04003 9.30673 2.76003 11.5467 2.5467ZM7.22674 15.5334H7.2134C6.48007 15.5334 5.88007 14.9334 5.88007 14.2C5.88007 13.4667 6.48007 12.8667 7.2134 12.8667C7.96007 12.8667 8.56007 13.4667 8.56007 14.2C8.56007 14.9334 7.96007 15.5334 7.22674 15.5334ZM16.5601 15.5334H16.5467C15.8134 15.5334 15.2134 14.9334 15.2134 14.2C15.2134 13.4667 15.8134 12.8667 16.5467 12.8667C17.2934 12.8667 17.8934 13.4667 17.8934 14.2C17.8934 14.9334 17.2934 15.5334 16.5601 15.5334Z" fill="#FFB764"/>
</svg>
