<svg width="18" height="11" viewBox="0 0 18 11" fill="none" xmlns="http://www.w3.org/2000/svg">
<path fill-rule="evenodd" clip-rule="evenodd" d="M7.26522 4.91667C7.26522 4.91667 8.96592 4.79609 8.96592 2.86721C8.96592 0.94367 7.57492 0 5.80895 0H0V10.7714H5.80843C5.80843 10.7714 9.35674 10.8764 9.35674 7.58989C9.35701 7.58989 9.50921 4.91667 7.26522 4.91667ZM9.79698 6.87716C9.79698 6.85601 9.80253 2.74128 14.0841 2.74128C18.6051 2.74128 17.9694 7.41681 17.9694 7.41681H12.1879C12.1879 9.41401 14.1494 9.28808 14.1494 9.28808C16.0076 9.28808 15.9426 8.12978 15.9426 8.12978H17.9041C17.9041 11.2065 14.0841 10.997 14.0841 10.997C9.50366 10.997 9.79698 6.87716 9.79698 6.87716ZM14.1258 4.31885C12.4032 4.31885 12.1641 5.97524 12.1641 5.97524H15.8265C15.8265 5.97524 15.8538 4.31885 14.1258 4.31885ZM5.80869 1.91308H2.5595V4.31891H5.6076C6.13477 4.31891 6.59668 4.15628 6.59668 3.03468C6.59668 1.91308 5.80869 1.91308 5.80869 1.91308ZM5.64591 8.85831H2.5595V5.9753H5.80869C5.80869 5.9753 6.98803 5.96485 6.98248 7.45861C6.98248 8.71684 6.10782 8.84786 5.64591 8.85831ZM11.6836 1.96056V0.634277H16.2915V1.96056H11.6836Z" fill="#556274"/>
</svg>
