<svg width="28" height="28" viewBox="0 0 28 28" fill="none" xmlns="http://www.w3.org/2000/svg">
<path d="M19.5865 0.666626H8.41317C3.55984 0.666626 0.666504 3.55996 0.666504 8.41329V19.5733C0.666504 24.44 3.55984 27.3333 8.41317 27.3333H19.5732C24.4265 27.3333 27.3198 24.44 27.3198 19.5866V8.41329C27.3332 3.55996 24.4398 0.666626 19.5865 0.666626ZM8.17317 22.2C8.17317 22.7466 7.71984 23.2 7.17317 23.2C6.6265 23.2 6.17317 22.7466 6.17317 22.2V19.44C6.17317 18.8933 6.6265 18.44 7.17317 18.44C7.71984 18.44 8.17317 18.8933 8.17317 19.44V22.2ZM14.9998 22.2C14.9998 22.7466 14.5465 23.2 13.9998 23.2C13.4532 23.2 12.9998 22.7466 12.9998 22.2V16.6666C12.9998 16.12 13.4532 15.6666 13.9998 15.6666C14.5465 15.6666 14.9998 16.12 14.9998 16.6666V22.2ZM21.8265 22.2C21.8265 22.7466 21.3732 23.2 20.8265 23.2C20.2798 23.2 19.8265 22.7466 19.8265 22.2V13.9066C19.8265 13.36 20.2798 12.9066 20.8265 12.9066C21.3732 12.9066 21.8265 13.36 21.8265 13.9066V22.2ZM21.8265 9.69329C21.8265 10.24 21.3732 10.6933 20.8265 10.6933C20.2798 10.6933 19.8265 10.24 19.8265 9.69329V8.39996C16.4265 11.8933 12.1732 14.36 7.41317 15.5466C7.33317 15.5733 7.25317 15.5733 7.17317 15.5733C6.71984 15.5733 6.31984 15.2666 6.19984 14.8133C6.0665 14.28 6.3865 13.7333 6.93317 13.6C11.4265 12.48 15.4265 10.12 18.5998 6.78663H16.9332C16.3865 6.78663 15.9332 6.33329 15.9332 5.78663C15.9332 5.23996 16.3865 4.78663 16.9332 4.78663H20.8398C20.8932 4.78663 20.9332 4.81329 20.9865 4.81329C21.0532 4.82663 21.1198 4.82663 21.1865 4.85329C21.2532 4.87996 21.3065 4.91996 21.3732 4.95996C21.4132 4.98663 21.4532 4.99996 21.4932 5.02663C21.5065 5.03996 21.5065 5.05329 21.5198 5.05329C21.5732 5.10663 21.6132 5.15996 21.6532 5.21329C21.6932 5.26663 21.7332 5.30663 21.7465 5.35996C21.7732 5.41329 21.7732 5.46663 21.7865 5.53329C21.7998 5.59996 21.8265 5.66663 21.8265 5.74663C21.8265 5.75996 21.8398 5.77329 21.8398 5.78663V9.69329H21.8265Z" fill="#09DA5D"/>
</svg>
