<svg width="22" height="16" viewBox="0 0 22 16" fill="none" xmlns="http://www.w3.org/2000/svg">
<path d="M20.3333 0H1.66667C1.31304 0 0.973905 0.140476 0.723856 0.390524C0.473808 0.640573 0.333332 0.979711 0.333332 1.33333V14.6667C0.333332 15.0203 0.473808 15.3594 0.723856 15.6095C0.973905 15.8595 1.31304 16 1.66667 16H20.3333C20.687 16 21.0261 15.8595 21.2761 15.6095C21.5262 15.3594 21.6667 15.0203 21.6667 14.6667V1.33333C21.6667 0.979711 21.5262 0.640573 21.2761 0.390524C21.0261 0.140476 20.687 0 20.3333 0ZM5.42 12.1533C5.41827 12.2225 5.40293 12.2907 5.37485 12.3539C5.34677 12.4171 5.30651 12.4742 5.25636 12.5219C5.20621 12.5696 5.14716 12.6069 5.08259 12.6317C5.01801 12.6566 4.94917 12.6684 4.88 12.6667C4.81028 12.6693 4.74073 12.6581 4.67537 12.6337C4.61002 12.6093 4.55018 12.5721 4.49932 12.5243C4.44846 12.4766 4.40759 12.4192 4.3791 12.3555C4.3506 12.2918 4.33505 12.2231 4.33333 12.1533V3.84667C4.33505 3.77692 4.3506 3.7082 4.3791 3.64452C4.40759 3.58083 4.44846 3.52344 4.49932 3.47568C4.55018 3.42792 4.61002 3.39075 4.67537 3.36631C4.74073 3.34187 4.81028 3.33066 4.88 3.33333C4.94917 3.33156 5.01801 3.34343 5.08259 3.36828C5.14716 3.39312 5.20621 3.43044 5.25636 3.47811C5.30651 3.52578 5.34677 3.58287 5.37485 3.64611C5.40293 3.70935 5.41827 3.7775 5.42 3.84667V12.1533ZM9.42 12.1533C9.41828 12.2231 9.40273 12.2918 9.37423 12.3555C9.34574 12.4192 9.30487 12.4766 9.25401 12.5243C9.20315 12.5721 9.14331 12.6093 9.07796 12.6337C9.01261 12.6581 8.94305 12.6693 8.87333 12.6667C8.80416 12.6684 8.73532 12.6566 8.67075 12.6317C8.60617 12.6069 8.54712 12.5696 8.49697 12.5219C8.44682 12.4742 8.40656 12.4171 8.37848 12.3539C8.3504 12.2907 8.33506 12.2225 8.33333 12.1533V3.84667C8.33506 3.7775 8.3504 3.70935 8.37848 3.64611C8.40656 3.58287 8.44682 3.52578 8.49697 3.47811C8.54712 3.43044 8.60617 3.39312 8.67075 3.36828C8.73532 3.34343 8.80416 3.33156 8.87333 3.33333C8.94305 3.33066 9.01261 3.34187 9.07796 3.36631C9.14331 3.39075 9.20315 3.42792 9.25401 3.47568C9.30487 3.52344 9.34574 3.58083 9.37423 3.64452C9.40273 3.7082 9.41828 3.77692 9.42 3.84667V12.1533ZM13.56 12.1533C13.5583 12.2231 13.5427 12.2918 13.5142 12.3555C13.4857 12.4192 13.4449 12.4766 13.394 12.5243C13.3432 12.5721 13.2833 12.6093 13.218 12.6337C13.1526 12.6581 13.0831 12.6693 13.0133 12.6667C12.9442 12.6684 12.8753 12.6566 12.8107 12.6317C12.7462 12.6069 12.6871 12.5696 12.637 12.5219C12.5868 12.4742 12.5466 12.4171 12.5185 12.3539C12.4904 12.2907 12.4751 12.2225 12.4733 12.1533V3.84667C12.4751 3.7775 12.4904 3.70935 12.5185 3.64611C12.5466 3.58287 12.5868 3.52578 12.637 3.47811C12.6871 3.43044 12.7462 3.39312 12.8107 3.36828C12.8753 3.34343 12.9442 3.33156 13.0133 3.33333C13.0831 3.33066 13.1526 3.34187 13.218 3.36631C13.2833 3.39075 13.3432 3.42792 13.394 3.47568C13.4449 3.52344 13.4857 3.58083 13.5142 3.64452C13.5427 3.7082 13.5583 3.77692 13.56 3.84667V12.1533ZM17.64 12.1533C17.6383 12.2231 17.6227 12.2918 17.5942 12.3555C17.5657 12.4192 17.5249 12.4766 17.474 12.5243C17.4232 12.5721 17.3633 12.6093 17.298 12.6337C17.2326 12.6581 17.1631 12.6693 17.0933 12.6667C17.0242 12.6684 16.9553 12.6566 16.8907 12.6317C16.8262 12.6069 16.7671 12.5696 16.717 12.5219C16.6668 12.4742 16.6266 12.4171 16.5985 12.3539C16.5704 12.2907 16.5551 12.2225 16.5533 12.1533V3.84667C16.5551 3.7775 16.5704 3.70935 16.5985 3.64611C16.6266 3.58287 16.6668 3.52578 16.717 3.47811C16.7671 3.43044 16.8262 3.39312 16.8907 3.36828C16.9553 3.34343 17.0242 3.33156 17.0933 3.33333C17.1631 3.33066 17.2326 3.34187 17.298 3.36631C17.3633 3.39075 17.4232 3.42792 17.474 3.47568C17.5249 3.52344 17.5657 3.58083 17.5942 3.64452C17.6227 3.7082 17.6383 3.77692 17.64 3.84667V12.1533Z" fill="black"/>
</svg>
