<svg width="14" height="12" viewBox="0 0 14 12" fill="none" xmlns="http://www.w3.org/2000/svg">
	<path fill-rule="evenodd" clip-rule="evenodd" d="M1.59561 7.79878V1.60195H12.4047V7.79878H9.0914C9.08365 7.79855 9.07587 7.79844 9.06807 7.79844C9.06026 7.79844 9.05248 7.79855 9.04473 7.79878H4.95517C4.94742 7.79855 4.93964 7.79844 4.93184 7.79844C4.92403 7.79844 4.91625 7.79855 4.9085 7.79878H1.59561ZM8.26807 9.39878H5.73184V10.3967H8.26807V9.39878ZM9.10138 11.9967H10.447C10.8888 11.9967 11.247 11.6385 11.247 11.1967C11.247 10.7549 10.8888 10.3967 10.447 10.3967H9.86807V9.39878H12.5153C13.2926 9.39878 14.0047 8.7937 14.0047 7.94904V1.45169C14.0047 0.607028 13.2926 0.00195312 12.5153 0.00195312H1.485C0.707746 0.00195312 -0.00439453 0.607028 -0.00439453 1.45169V7.94904C-0.00439453 8.7937 0.707746 9.39878 1.485 9.39878H4.13184V10.3967H3.55305C3.11122 10.3967 2.75305 10.7549 2.75305 11.1967C2.75305 11.6385 3.11122 11.9967 3.55305 11.9967H4.89853C4.90957 11.9972 4.92068 11.9974 4.93184 11.9974C4.94299 11.9974 4.9541 11.9972 4.96515 11.9967H9.03476C9.0458 11.9972 9.05691 11.9974 9.06807 11.9974C9.07922 11.9974 9.09033 11.9972 9.10138 11.9967Z" fill="#9FA4BB"/>
</svg>
