<svg width="24" height="30" viewBox="0 0 24 30" fill="none" xmlns="http://www.w3.org/2000/svg">
<path d="M1.33301 12.3337V11.667V9.66699C1.33301 6.86673 1.33301 5.4666 1.87798 4.39704C2.35734 3.45623 3.12224 2.69133 4.06306 2.21196C5.13261 1.66699 6.53274 1.66699 9.33301 1.66699H12.686C13.9089 1.66699 14.5204 1.66699 15.0958 1.80514C15.606 1.92763 16.0937 2.12965 16.5411 2.40379C17.0457 2.713 17.4781 3.14538 18.3428 4.01014L20.3232 5.99051C21.188 6.85527 21.6203 7.28765 21.9295 7.79223C22.2037 8.2396 22.4057 8.72732 22.5282 9.2375C22.6663 9.81294 22.6663 10.4244 22.6663 11.6474V20.3337C22.6663 23.1339 22.6663 24.5341 22.1214 25.6036C21.642 26.5444 20.8771 27.3093 19.9363 27.7887C18.8667 28.3337 17.4666 28.3337 14.6663 28.3337H9.33301C6.53275 28.3337 5.13261 28.3337 4.06306 27.7887C3.12224 27.3093 2.35734 26.5444 1.87798 25.6036C1.33301 24.5341 1.33301 23.1339 1.33301 20.3337V18.3337V17.667M7.99967 15.0003H15.9997M7.99967 20.3337H13.333M14.6663 2.33366V7.00037C14.6663 8.47312 15.8602 9.66703 17.333 9.66703V9.66703H18.6663" stroke="#407BFF" stroke-width="1.5" stroke-linecap="round" stroke-linejoin="round"/>
</svg>
