<svg width="16" height="16" viewBox="0 0 16 16" fill="none" xmlns="http://www.w3.org/2000/svg">
<rect x="1" y="2" width="14" height="12" rx="2" stroke="#9FA4BB" stroke-width="1.6"/>
<path d="M1.39691 4.30541C1.0133 4.0862 0.524613 4.21947 0.305405 4.60309C0.0861975 4.9867 0.219475 5.47539 0.603089 5.69459L1.39691 4.30541ZM8 9L7.60309 9.69459L8 9.9214L8.39691 9.69459L8 9ZM15.3969 5.69459C15.7805 5.47539 15.9138 4.9867 15.6946 4.60309C15.4754 4.21947 14.9867 4.0862 14.6031 4.30541L15.3969 5.69459ZM0.603089 5.69459L7.60309 9.69459L8.39691 8.30541L1.39691 4.30541L0.603089 5.69459ZM8.39691 9.69459L15.3969 5.69459L14.6031 4.30541L7.60309 8.30541L8.39691 9.69459Z" fill="#9FA4BB"/>
</svg>
