<svg width="14" height="24" viewBox="0 0 14 24" fill="none" xmlns="http://www.w3.org/2000/svg">
<path d="M13.1923 0.710266L10.1447 0.705566C6.72086 0.705566 4.50823 2.88748 4.50823 6.26456V8.82763H1.44404C1.17926 8.82763 0.964844 9.03396 0.964844 9.28845V13.002C0.964844 13.2565 1.17951 13.4626 1.44404 13.4626H4.50823V22.8332C4.50823 23.0877 4.72265 23.2938 4.98743 23.2938H8.98532C9.25011 23.2938 9.46453 23.0875 9.46453 22.8332V13.4626H13.0473C13.3121 13.4626 13.5265 13.2565 13.5265 13.002L13.5279 9.28845C13.5279 9.16626 13.4773 9.04923 13.3876 8.96275C13.2979 8.87628 13.1756 8.82763 13.0485 8.82763H9.46453V6.65489C9.46453 5.61058 9.72344 5.08043 11.1388 5.08043L13.1918 5.07973C13.4563 5.07973 13.6707 4.8734 13.6707 4.61914V1.17085C13.6707 0.916825 13.4566 0.710736 13.1923 0.710266Z" fill="#2272FF"/>
</svg>
