<svg width="24" height="24" viewBox="0 0 24 24" fill="none" xmlns="http://www.w3.org/2000/svg">
<path d="M17.0005 8H16.2005C15.0804 8 14.5203 8 14.0925 8.21799C13.7162 8.40973 13.4102 8.71569 13.2185 9.09202C13.0005 9.51984 13.0005 10.0799 13.0005 11.2V22H14.0005C16.8008 22 18.2009 22 19.2704 21.455C20.2113 20.9757 20.9762 20.2108 21.4555 19.27C22.0005 18.2004 22.0005 16.8003 22.0005 14V10C22.0005 7.19974 22.0005 5.79961 21.4555 4.73005C20.9762 3.78924 20.2113 3.02433 19.2704 2.54497C18.2009 2 16.8008 2 14.0005 2H10.0005C7.20023 2 5.80009 2 4.73054 2.54497C3.78973 3.02433 3.02482 3.78924 2.54546 4.73005C2.00049 5.79961 2.00049 7.19974 2.00049 10V15.5C2.00049 16.8945 2.00049 17.5918 2.13864 18.1672C2.57756 19.9955 4.00502 21.4229 5.83326 21.8618C6.4087 22 7.10596 22 8.50049 22V22H9.00049M10.0005 14H17.0005" stroke="#2F384C" stroke-width="1.5" stroke-linecap="round" stroke-linejoin="round"/>
</svg>
