<svg width="12" height="16" viewBox="0 0 12 16" fill="none" xmlns="http://www.w3.org/2000/svg">
<path d="M9.31841 5.18205C6.641 3.55312 7.89655 1.25398 7.95046 1.15842C8.02862 1.02242 8.02836 0.855107 7.94978 0.719346C7.87124 0.583584 7.72628 0.5 7.56942 0.5C6.19121 0.5 5.11197 0.891582 4.36171 1.66394C3.07971 2.98358 3.13918 5.0375 3.16458 5.91456C3.16742 6.01174 3.16982 6.09567 3.16982 6.15805C3.16982 6.80926 3.2743 7.41043 3.36649 7.94088C3.42591 8.28271 3.47721 8.57791 3.48635 8.80994C3.4961 9.05844 3.45072 9.11533 3.44882 9.11765C3.44234 9.12535 3.38841 9.154 3.24268 9.154C3.07645 9.154 2.95393 9.09969 2.84533 8.97796C2.42123 8.50238 2.3919 7.20392 2.473 6.49748C2.4875 6.37291 2.4481 6.24811 2.36469 6.15447C2.28131 6.06084 2.16189 6.00729 2.03653 6.00729C0.895566 6.00729 0.0429688 7.87315 0.0429688 9.54143C0.0429688 10.3257 0.200732 11.0939 0.511836 11.8248C0.812597 12.5314 1.24144 13.1691 1.7866 13.7202C2.92183 14.8679 4.41869 15.5 6.00139 15.5C7.59052 15.5 9.08697 14.8769 10.2152 13.7454C11.3405 12.6169 11.9602 11.1239 11.9602 9.54137C11.9602 7.5222 10.3803 5.82811 9.31841 5.18205Z" fill="white"/>
</svg>
