<svg width="16" height="16" viewBox="0 0 16 16" fill="none" xmlns="http://www.w3.org/2000/svg">
<path d="M11.3165 5.18205C8.63905 3.55312 9.8946 1.25398 9.9485 1.15842C10.0267 1.02242 10.0264 0.855107 9.94783 0.719346C9.86928 0.583584 9.72432 0.5 9.56747 0.5C8.18926 0.5 7.11002 0.891582 6.35975 1.66394C5.07775 2.98358 5.13723 5.0375 5.16263 5.91456C5.16547 6.01174 5.16787 6.09567 5.16787 6.15805C5.16787 6.80926 5.27234 7.41043 5.36454 7.94088C5.42395 8.28271 5.47525 8.57791 5.48439 8.80994C5.49415 9.05844 5.44877 9.11533 5.44686 9.11765C5.44039 9.12535 5.38645 9.154 5.24073 9.154C5.0745 9.154 4.95198 9.09969 4.84338 8.97796C4.41928 8.50238 4.38995 7.20392 4.47104 6.49748C4.48555 6.37291 4.44614 6.24811 4.36273 6.15447C4.27935 6.06084 4.15994 6.00729 4.03458 6.00729C2.89361 6.00729 2.04102 7.87315 2.04102 9.54143C2.04102 10.3257 2.19878 11.0939 2.50988 11.8248C2.81064 12.5314 3.23949 13.1691 3.78465 13.7202C4.91987 14.8679 6.41674 15.5 7.99944 15.5C9.58856 15.5 11.085 14.8769 12.2132 13.7454C13.3385 12.6169 13.9583 11.1239 13.9583 9.54137C13.9583 7.5222 12.3784 5.82811 11.3165 5.18205Z" fill="#E63D3D"/>
</svg>
