<svg width="16" height="16" viewBox="0 0 16 16" fill="none" xmlns="http://www.w3.org/2000/svg">
<path d="M1 7.87214V13C1 14.1046 1.89543 15 3 15H6H13C14.1046 15 15 14.1046 15 13V7.87214C15 7.316 14.7684 6.78498 14.3609 6.40655L9.3609 1.76369C8.59354 1.05114 7.40646 1.05114 6.6391 1.76369L1.6391 6.40655C1.23156 6.78498 1 7.316 1 7.87214Z" stroke="#9FA4BB" stroke-width="1.6"/>
<path d="M6 10V9.2C5.55817 9.2 5.2 9.55817 5.2 10H6ZM10 10H10.8C10.8 9.55817 10.4418 9.2 10 9.2V10ZM9.2 15C9.2 15.4418 9.55817 15.8 10 15.8C10.4418 15.8 10.8 15.4418 10.8 15H9.2ZM5.2 15C5.2 15.4418 5.55817 15.8 6 15.8C6.44183 15.8 6.8 15.4418 6.8 15H5.2ZM6 10.8H10V9.2H6V10.8ZM9.2 10V15H10.8V10H9.2ZM6.8 15V10H5.2V15H6.8Z" fill="#9FA4BB"/>
</svg>
