<svg width="24" height="24" viewBox="0 0 24 24" fill="none" xmlns="http://www.w3.org/2000/svg">
<path d="M11.8007 4.74757C11.7335 4.68081 11.6441 4.64355 11.5512 4.64355C11.4582 4.64355 11.3689 4.68081 11.3017 4.74757L2.99561 12.9915C2.96033 13.0265 2.93227 13.0687 2.91311 13.1153C2.89396 13.162 2.88411 13.2122 2.88417 13.2629L2.88281 21.0001C2.88281 21.3979 3.03492 21.7794 3.30568 22.0607C3.57643 22.342 3.94366 22.5001 4.32656 22.5001H8.66232C8.85378 22.5001 9.03739 22.4211 9.17277 22.2804C9.30814 22.1398 9.3842 21.949 9.3842 21.7501V15.3751C9.3842 15.2756 9.42223 15.1802 9.48991 15.1099C9.5576 15.0396 9.64941 15.0001 9.74514 15.0001H13.3545C13.4502 15.0001 13.542 15.0396 13.6097 15.1099C13.6774 15.1802 13.7154 15.2756 13.7154 15.3751V21.7501C13.7154 21.949 13.7915 22.1398 13.9269 22.2804C14.0623 22.4211 14.2459 22.5001 14.4373 22.5001H18.7713C19.1542 22.5001 19.5214 22.342 19.7922 22.0607C20.0629 21.7794 20.215 21.3979 20.215 21.0001V13.2629C20.2151 13.2122 20.2052 13.162 20.1861 13.1153C20.1669 13.0687 20.1389 13.0265 20.1036 12.9915L11.8007 4.74757Z" fill="black"/>
<path d="M22.1483 11.4445L18.7735 8.09016V3C18.7735 2.80109 18.6975 2.61032 18.5621 2.46967C18.4267 2.32902 18.2431 2.25 18.0517 2.25H15.886C15.6946 2.25 15.511 2.32902 15.3756 2.46967C15.2402 2.61032 15.1642 2.80109 15.1642 3V4.5L12.551 1.90406C12.3064 1.64719 11.9428 1.5 11.5498 1.5C11.1582 1.5 10.7955 1.64719 10.5509 1.90453L0.954501 11.4436C0.673873 11.7248 0.638681 12.1875 0.894044 12.4922C0.95817 12.5691 1.03669 12.6316 1.12482 12.676C1.21295 12.7204 1.30885 12.7457 1.40668 12.7503C1.50452 12.755 1.60224 12.7389 1.6939 12.7031C1.78556 12.6672 1.86925 12.6124 1.93986 12.5419L11.3017 3.2475C11.3688 3.18074 11.4582 3.14348 11.5512 3.14348C11.6441 3.14348 11.7335 3.18074 11.8007 3.2475L21.1634 12.5419C21.3013 12.6793 21.486 12.7543 21.6771 12.7504C21.8681 12.7465 22.0499 12.6641 22.1826 12.5212C22.4596 12.2231 22.4366 11.7309 22.1483 11.4445Z" fill="black"/>
</svg>
