<?xml version="1.0" encoding="utf-8"?>
<!-- Generator: Adobe Illustrator 25.2.1, SVG Export Plug-In . SVG Version: 6.00 Build 0)  -->
<svg version="1.1" id="Слой_1" xmlns="http://www.w3.org/2000/svg" xmlns:xlink="http://www.w3.org/1999/xlink" x="0px" y="0px"
	 viewBox="0 0 841.9 222.8" style="enable-background:new 0 0 841.9 222.8;" xml:space="preserve">
<style type="text/css">
	.st0{fill:#892832;}
	.st1{fill:#0B3C69;}
</style>
<g id="Layer_x0020_1">
	<g id="_2581852632032">
		<g>
			<polygon class="st0" points="111,152.5 111,43.6 123.9,43.6 123.9,152.5 			"/>
			<path class="st0" d="M149.1,152.5V84.4h11.4v10.5c2.9-4.4,6.5-7.6,10.6-9.8s8.9-3.2,14.3-3.2c8,0,14.3,2.1,18.8,6.4
				c4.5,4.3,6.8,10.2,6.8,17.8v46.3H199v-40.1c0-6.9-1.4-12-4.4-15.4c-2.9-3.3-7.4-5-13.4-5c-3.5,0-6.6,0.7-9.5,1.9
				c-2.9,1.3-5.2,3.1-7.1,5.4c-1.4,1.8-2.5,3.8-3.1,6.1c-0.6,2.3-0.9,6.2-0.9,11.9v35.2L149.1,152.5L149.1,152.5z"/>
			<polygon class="st0" points="235.7,94 223.2,94 223.2,84.4 235.7,84.4 235.7,57 247.6,57 247.6,84.4 260.1,84.4 260.1,94 
				247.6,94 247.6,152.5 235.7,152.5 			"/>
			<path class="st0" d="M334.1,120.2h-53.9v1c0,7.3,2.1,13.2,6.2,17.7c4.2,4.5,9.6,6.7,16.3,6.7c4.6,0,8.7-1.2,12.4-3.7
				c3.7-2.4,6.9-6.2,9.8-11.1l8.8,6c-3.4,6.2-7.8,10.8-13.1,13.9c-5.3,3.1-11.5,4.7-18.5,4.7c-10.3,0-18.7-3.4-25.1-10.3
				c-6.4-6.8-9.6-15.8-9.6-26.9c0-10.7,3.2-19.4,9.5-26.2c6.3-6.8,14.5-10.2,24.5-10.2c10.1,0,18.1,3.2,23.9,9.7
				c5.9,6.4,8.8,15.3,8.8,26.4V120.2z M321.6,110.8L321.6,110.8c-0.4-6-2.4-10.6-6-13.9c-3.6-3.2-8.5-4.9-14.8-4.9
				c-5.7,0-10.4,1.7-14.1,5.1s-6,7.9-6.5,13.7L321.6,110.8L321.6,110.8z"/>
			<path class="st0" d="M351.8,152.5V84.4h10.3v14.1c3.1-5.9,6.4-10.1,9.9-12.6c3.5-2.5,7.8-3.8,12.9-3.8c1.4,0,2.7,0.1,4,0.3
				c1.3,0.2,2.6,0.6,3.9,1L389,93.9c-1.3-0.5-2.6-0.8-3.8-1c-1.2-0.2-2.3-0.3-3.4-0.3c-6.2,0-10.8,2.2-13.8,6.7
				c-3.1,4.5-4.6,11.1-4.6,20v33.2H351.8z"/>
			<path class="st1" d="M412.8,152.5V37.2h16.2v115.3L412.8,152.5L412.8,152.5z M519.9,119.6h-56.4c0.4,6.6,2.4,11.7,5.9,15.4
				c3.5,3.7,8.2,5.6,14,5.6c5.2,0,9.6-1.1,13-3.3c3.5-2.2,6.5-5.7,9.1-10.5l13.6,7.6c-4,7.1-8.9,12.4-14.7,15.8
				c-5.9,3.5-12.7,5.2-20.6,5.2c-11.3,0-20.3-3.4-27-10.3c-6.7-6.9-10-16.1-10-27.6c0-11.1,3.5-20.2,10.4-27.3s15.8-10.7,26.7-10.7
				c11.3,0,20.2,3.3,26.6,9.8c6.3,6.5,9.5,15.6,9.5,27.3V119.6z M503.2,108.7L503.2,108.7c-0.7-5.1-2.6-8.9-5.8-11.6
				c-3.2-2.7-7.6-4-13.2-4c-5.3,0-9.6,1.3-12.8,3.9c-3.2,2.6-5.5,6.5-6.8,11.7H503.2z M714.8,152.5V37.2h16.1v115.3L714.8,152.5
				L714.8,152.5z M691.7,152.5h-16.1v-9.2c-2.9,4.1-6.3,7.1-10.1,9.1c-3.9,2-8.2,3-13.2,3c-10,0-17.8-3.4-23.6-10.2
				c-5.7-6.8-8.6-16.2-8.6-28c0-11.3,2.9-20.3,8.8-27.2c5.8-6.9,13.5-10.4,22.9-10.4c5.7,0,10.7,1.2,14.7,3.6
				c4.1,2.4,7.1,5.9,9,10.4V82h16.1V152.5z M676,117L676,117c0-7.3-1.7-13-5.1-17c-3.4-4.1-8.2-6.1-14.3-6.1s-10.9,2.1-14.4,6.3
				c-3.5,4.2-5.2,10-5.2,17.4c0,7.5,1.7,13.3,5.1,17.3c3.4,4.1,8.1,6.1,14.3,6.1c5.8,0,10.5-2.2,14.1-6.6
				C674.2,130,676,124.2,676,117z M603.1,148.1c0,13.8-2.7,23.5-8.2,29.1c-5.5,5.6-14.8,8.4-27.8,8.4c-9.7,0-17.5-2-23.3-6.1
				c-5.8-4.1-8.8-9.6-8.8-16.3l17.3-0.1c0.3,3,1.7,5.3,4.3,6.9s6.2,2.4,10.9,2.4c6.9,0,11.8-1.5,14.9-4.5c3-3,4.6-8.1,4.6-15.2
				l0.1-9.4c-2.9,4.1-6.2,7.1-10.1,9.1c-3.9,2-8.2,3-13.2,3c-10,0-17.8-3.4-23.5-10.2c-5.7-6.8-8.6-16.2-8.6-28
				c0-11.3,2.9-20.3,8.8-27.2c5.8-6.9,13.5-10.4,22.9-10.4c5.7,0,10.7,1.2,14.7,3.6c4.1,2.4,7.1,5.9,9,10.4V82h16.2V148.1z
				 M587.4,117L587.4,117c0-7.3-1.7-13-5.1-17c-3.4-4.1-8.2-6.1-14.3-6.1s-10.9,2.1-14.4,6.3c-3.5,4.2-5.2,10-5.2,17.4
				c0,7.5,1.7,13.3,5.1,17.3c3.4,4.1,8.1,6.1,14.3,6.1c5.8,0,10.5-2.2,14.1-6.6C585.5,130,587.4,124.2,587.4,117z"/>
		</g>
	</g>
</g>
</svg>
