<svg width="20" height="20" viewBox="0 0 20 20" fill="none" xmlns="http://www.w3.org/2000/svg">
	<path d="M18.1579 1.84197C17.4857 1.1697 16.676 0.833496 15.7291 0.833496H4.27073C3.32391 0.833496 2.51414 1.1697 1.84173 1.84197C1.16945 2.51438 0.833252 3.32411 0.833252 4.27096V15.7292C0.833252 16.676 1.16945 17.4858 1.84173 18.1582C2.51414 18.8306 3.32391 19.1668 4.27073 19.1668H15.729C16.6758 19.1668 17.4856 18.8306 18.1577 18.1582C18.8301 17.4858 19.1663 16.676 19.1663 15.7292V4.27096C19.1663 3.32411 18.8301 2.51425 18.1579 1.84197ZM6.41913 16.1827H3.66196V7.89932H6.41913V16.1827ZM6.16863 6.36572C5.88222 6.64026 5.50421 6.77755 5.03469 6.77755H5.02265C4.56914 6.77755 4.20125 6.64026 3.91868 6.36572C3.63608 6.09118 3.49486 5.75105 3.49486 5.34524C3.49486 4.93149 3.64017 4.58927 3.93052 4.31867C4.22107 4.04814 4.59698 3.91282 5.05844 3.91282C5.51993 3.91282 5.88995 4.04814 6.1685 4.31867C6.44697 4.58927 6.59024 4.93149 6.59814 5.34524C6.5981 5.75088 6.45504 6.09102 6.16863 6.36572ZM16.3378 16.1827H13.5806V11.7547C13.5806 10.5056 13.1192 9.88082 12.1961 9.88082C11.8461 9.88082 11.5515 9.97827 11.3129 10.1733C11.074 10.3681 10.895 10.6049 10.7758 10.8836C10.72 11.0266 10.6922 11.2494 10.6922 11.5517V16.1827H7.93505C7.95892 11.1857 7.95892 8.42444 7.93505 7.89923H10.6922V9.06871C11.2719 8.16232 12.0951 7.70818 13.163 7.70818C14.1178 7.70818 14.8858 8.02256 15.4667 8.65107C16.0475 9.2797 16.3379 10.2068 16.3379 11.4319V16.1827H16.3378Z" fill="#0077B5"/>
</svg>
