<!--<svg width="20" height="20" viewBox="0 0 20 20" fill="none" xmlns="http://www.w3.org/2000/svg">-->
<!--	<g clip-path="url(#clip0_1762_27425)">-->
<!--		<g clip-path="url(#clip1_1762_27425)">-->
<!--			<rect x="2.99927" y="3" width="14" height="14" fill="white"/>-->
<!--			<path d="M18.1579 1.84197C17.4857 1.1697 16.676 0.833496 15.7291 0.833496H4.27073C3.32391 0.833496 2.51414 1.1697 1.84173 1.84197C1.16945 2.51438 0.833252 3.32411 0.833252 4.27096V15.7292C0.833252 16.676 1.16945 17.4858 1.84173 18.1582C2.51414 18.8306 3.32391 19.1668 4.27073 19.1668H15.729C16.6758 19.1668 17.4856 18.8306 18.1577 18.1582C18.8301 17.4858 19.1663 16.676 19.1663 15.7292V4.27096C19.1663 3.32411 18.8301 2.51425 18.1579 1.84197ZM6.41913 16.1827H3.66196V7.89932H6.41913V16.1827ZM6.16863 6.36572C5.88222 6.64026 5.50421 6.77755 5.03469 6.77755H5.02265C4.56914 6.77755 4.20125 6.64026 3.91868 6.36572C3.63608 6.09118 3.49486 5.75105 3.49486 5.34524C3.49486 4.93149 3.64017 4.58927 3.93052 4.31867C4.22107 4.04814 4.59698 3.91282 5.05844 3.91282C5.51993 3.91282 5.88995 4.04814 6.1685 4.31867C6.44697 4.58927 6.59024 4.93149 6.59814 5.34524C6.5981 5.75088 6.45504 6.09102 6.16863 6.36572ZM16.3378 16.1827H13.5806V11.7547C13.5806 10.5056 13.1192 9.88082 12.1961 9.88082C11.8461 9.88082 11.5515 9.97827 11.3129 10.1733C11.074 10.3681 10.895 10.6049 10.7758 10.8836C10.72 11.0266 10.6922 11.2494 10.6922 11.5517V16.1827H7.93505C7.95892 11.1857 7.95892 8.42444 7.93505 7.89923H10.6922V9.06871C11.2719 8.16232 12.0951 7.70818 13.163 7.70818C14.1178 7.70818 14.8858 8.02256 15.4667 8.65107C16.0475 9.2797 16.3379 10.2068 16.3379 11.4319V16.1827H16.3378Z" fill="#0077B5"/>-->
<!--		</g>-->
<!--	</g>-->
<!--	<defs>-->
<!--		<clipPath id="clip0_1762_27425">-->
<!--			<rect width="20" height="20" fill="white"/>-->
<!--		</clipPath>-->
<!--		<clipPath id="clip1_1762_27425">-->
<!--			<rect width="18.3333" height="18.3333" fill="white" transform="translate(0.833252 0.833496)"/>-->
<!--		</clipPath>-->
<!--	</defs>-->
<!--</svg>-->

<svg width="48" height="48" viewBox="0 0 48 48" fill="none" xmlns="http://www.w3.org/2000/svg">
	<g clip-path="url(#clip0_1762_26147)">
		<path d="M34.7739 14.9398C33.9569 14.1225 32.9725 13.7139 31.8216 13.7139H17.8929C16.742 13.7139 15.7576 14.1225 14.9402 14.9398C14.123 15.7571 13.7144 16.7414 13.7144 17.8924V31.8209C13.7144 32.9718 14.123 33.9562 14.9402 34.7735C15.7576 35.5909 16.742 35.9996 17.8929 35.9996H31.8214C32.9724 35.9996 33.9567 35.5909 34.7737 34.7735C35.5911 33.9562 35.9998 32.9718 35.9998 31.8209V17.8924C35.9997 16.7414 35.591 15.757 34.7739 14.9398ZM20.5045 32.3722H17.1529V22.303H20.5045V32.3722ZM20.2 20.4388C19.8518 20.7725 19.3923 20.9394 18.8216 20.9394H18.8069C18.2556 20.9394 17.8084 20.7725 17.465 20.4388C17.1214 20.105 16.9498 19.6916 16.9498 19.1983C16.9498 18.6953 17.1264 18.2793 17.4793 17.9504C17.8325 17.6215 18.2895 17.457 18.8504 17.457C19.4114 17.457 19.8612 17.6215 20.1998 17.9504C20.5383 18.2793 20.7125 18.6953 20.7221 19.1983C20.722 19.6914 20.5481 20.1048 20.2 20.4388ZM32.5614 32.3722H29.2098V26.9895C29.2098 25.4711 28.649 24.7117 27.5269 24.7117C27.1014 24.7117 26.7433 24.8301 26.4532 25.0671C26.1628 25.304 25.9452 25.5918 25.8004 25.9306C25.7325 26.1045 25.6988 26.3752 25.6988 26.7427V32.3721H22.3472C22.3762 26.2978 22.3762 22.9413 22.3472 22.3029H25.6988V23.7245C26.4035 22.6227 27.4041 22.0706 28.7022 22.0706C29.8629 22.0706 30.7964 22.4528 31.5025 23.2168C32.2086 23.9809 32.5616 25.1079 32.5616 26.5972V32.3722H32.5614Z" fill="#005DFF"/>
	</g>
	<defs>
		<clipPath id="clip0_1762_26147">
			<rect width="22.2857" height="22.2857" fill="white" transform="translate(13.7144 13.7139)"/>
		</clipPath>
	</defs>
</svg>

