<svg width="162" height="48" viewBox="0 0 162 48" fill="none" xmlns="http://www.w3.org/2000/svg">
	<g clip-path="url(#clip0)">
		<path d="M10.3267 -0.000944255C11.2865 -0.00927138 12.2446 0.0823205 13.185 0.272315C13.9746 0.425513 14.7264 0.729783 15.3978 1.168C16.0142 1.58477 16.5074 2.15582 16.827 2.82273C17.1903 3.62383 17.3654 4.49573 17.3392 5.37315C17.3718 6.33559 17.1074 7.28505 16.5811 8.09562C16.0117 8.88331 15.2386 9.50547 14.3426 9.89711C15.6949 10.2817 16.704 10.9564 17.37 11.9213C18.0562 12.9513 18.405 14.1651 18.3688 15.3977C18.3941 16.3821 18.1724 17.3574 17.7234 18.2366C17.3105 19.0165 16.7152 19.6879 15.9869 20.1949C15.2318 20.7136 14.3886 21.0941 13.4974 21.3183C12.5595 21.562 11.5936 21.6844 10.6238 21.6827H0V-0.000944255H10.3267ZM9.71201 8.77371C10.467 8.80495 11.2116 8.59172 11.8327 8.16647C12.3859 7.76164 12.6625 7.10379 12.6625 6.19293C12.6793 5.76146 12.5841 5.33292 12.3859 4.94808C12.212 4.63525 11.9576 4.37339 11.6483 4.18903C11.3212 3.99973 10.9618 3.8711 10.5879 3.8095C10.177 3.73768 9.76048 3.70212 9.3432 3.70324H4.82527V8.76359L9.71201 8.77371ZM9.98862 17.9633C10.443 17.965 10.8963 17.9192 11.3409 17.8267C11.7453 17.7458 12.1309 17.5914 12.4781 17.3713C12.8102 17.154 13.0801 16.856 13.2618 16.5059C13.4721 16.0706 13.5723 15.5913 13.5538 15.1093C13.5538 13.996 13.2362 13.2015 12.601 12.7258C11.9659 12.2502 11.1258 12.0123 10.0808 12.0123H4.82527V17.9633H9.98862Z" fill="#005DFF"/>
		<path d="M21.3302 5.20688C21.631 4.20936 22.1289 3.28062 22.7952 2.47429C23.4647 1.68467 24.312 1.0608 25.2693 0.652563C26.3557 0.198399 27.5269 -0.024047 28.7064 -0.000222928C29.6647 -0.00518705 30.617 0.148762 31.5237 0.455209C32.3822 0.744764 33.178 1.19107 33.8697 1.7709C34.5532 2.34706 35.1034 3.06149 35.4833 3.86589C35.8912 4.73767 36.096 5.68875 36.0826 6.64908C36.1104 7.5954 35.9358 8.53687 35.5703 9.41204C35.2309 10.1681 34.7632 10.8612 34.1873 11.4615C33.5984 12.0713 32.944 12.616 32.2357 13.0859C31.5083 13.5717 30.7758 14.0524 30.0382 14.5281C29.3006 15.0037 28.5834 15.5148 27.8868 16.0613C27.186 16.6121 26.5654 17.2558 26.0427 17.9742H36.2158V21.6783H20.4081C20.3854 20.5853 20.5678 19.4975 20.946 18.4701C21.2916 17.5808 21.785 16.7548 22.4059 16.0259C23.0477 15.2823 23.7748 14.615 24.5726 14.0372C25.4024 13.43 26.2784 12.8126 27.2004 12.1851C27.6717 11.8612 28.1736 11.5323 28.7064 11.1983C29.2264 10.874 29.7151 10.503 30.1662 10.0901C30.6017 9.69152 30.9746 9.23103 31.2727 8.72383C31.5753 8.19675 31.7292 7.59907 31.7183 6.99319C31.7183 5.96088 31.4161 5.15628 30.8117 4.5794C30.5026 4.28994 30.1382 4.06431 29.7397 3.91573C29.3413 3.76715 28.9168 3.69859 28.4912 3.71408C27.9207 3.69594 27.358 3.84947 26.8777 4.15433C26.4358 4.44946 26.0721 4.84515 25.8174 5.30809C25.5445 5.80134 25.3526 6.33424 25.2488 6.88692C25.1372 7.45211 25.0806 8.02655 25.0797 8.60238H20.8999C20.8487 7.45468 20.9941 6.30669 21.3302 5.20688Z" fill="#005DFF"/>
		<path d="M49.5435 3.23078e-05C50.5033 -0.00829482 51.4614 0.0832971 52.4018 0.273291C53.1915 0.426489 53.9432 0.73076 54.6146 1.16897C55.231 1.58574 55.7242 2.1568 56.0438 2.82371C56.4071 3.6248 56.5822 4.4967 56.556 5.37413C56.5886 6.33656 56.3242 7.28603 55.7979 8.0966C55.23 8.87916 54.4607 9.4976 53.5697 9.88797C54.922 10.2726 55.9311 10.9473 56.597 11.9121C57.2833 12.9422 57.632 14.1559 57.5959 15.3886C57.6212 16.373 57.3994 17.3483 56.9504 18.2274C56.5375 19.0074 55.9422 19.6787 55.214 20.1858C54.4589 20.7044 53.6157 21.0849 52.7245 21.3092C51.7866 21.5528 50.8206 21.6753 49.8508 21.6735H39.2168V3.23078e-05H49.5435ZM48.9186 8.77469C49.6735 8.80593 50.4182 8.5927 51.0392 8.16744C51.5924 7.76262 51.8691 7.10477 51.8691 6.19391C51.8859 5.76244 51.7907 5.33389 51.5924 4.94906C51.4186 4.63623 51.1641 4.37436 50.8548 4.19001C50.5278 4.0007 50.1684 3.87208 49.7945 3.81048C49.3836 3.73866 48.967 3.7031 48.5498 3.70421H44.0523V8.76457L48.9186 8.77469ZM49.2054 17.9643C49.6598 17.966 50.1131 17.9202 50.5577 17.8277C50.9621 17.7468 51.3477 17.5923 51.6949 17.3722C52.027 17.155 52.2969 16.857 52.4786 16.5069C52.6838 16.0737 52.7804 15.5982 52.7603 15.1204C52.7603 14.0071 52.4428 13.2126 51.8076 12.7369C51.1724 12.2613 50.3323 12.0234 49.2874 12.0234H44.0523V17.9643H49.2054Z" fill="#005DFF"/>
		<path d="M9.47638 25.8354C10.8226 25.8238 12.1601 26.0501 13.4257 26.5033C14.618 26.9317 15.6992 27.6161 16.5913 28.5072C17.5219 29.46 18.2346 30.5989 18.6813 31.8471C19.2125 33.3593 19.4675 34.9528 19.4343 36.5532C19.4485 38.0325 19.2413 39.5058 18.8196 40.9254C18.4469 42.193 17.8139 43.3712 16.9602 44.3866C16.1129 45.3714 15.0519 46.1549 13.856 46.679C12.4735 47.2639 10.9799 47.5487 9.47638 47.5139H0V25.8354H9.47638ZM9.12806 43.5188C9.81832 43.5198 10.5039 43.4069 11.1565 43.1848C11.8207 42.9568 12.4209 42.5771 12.9084 42.0766C13.4599 41.4965 13.8791 40.8062 14.1377 40.0524C14.4686 39.0745 14.6246 38.0471 14.5987 37.0162C14.6095 36.0204 14.5012 35.0267 14.276 34.0559C14.0895 33.236 13.728 32.4648 13.2157 31.7939C12.7048 31.1521 12.0316 30.6547 11.2641 30.3517C10.3085 29.9903 9.29031 29.8184 8.2675 29.8457H4.82527V43.5087L9.12806 43.5188Z" fill="black"/>
		<path d="M27.8448 25.8354V47.514H23.0195V25.8354H27.8448Z" fill="black"/>
		<path d="M36.0209 42.1707C36.2708 42.6577 36.6343 43.0792 37.0813 43.4004C37.5499 43.7269 38.0764 43.9638 38.6333 44.0987C39.2358 44.2515 39.8554 44.3281 40.4774 44.3264C40.9404 44.324 41.4026 44.2884 41.8604 44.2202C42.3397 44.153 42.8059 44.0148 43.2435 43.8103C43.662 43.617 44.03 43.3313 44.3192 42.9753C44.617 42.5879 44.7692 42.1103 44.7494 41.6242C44.7601 41.3604 44.715 41.0973 44.6171 40.8516C44.5192 40.6059 44.3707 40.383 44.1809 40.1972C43.7491 39.8002 43.2426 39.4907 42.6902 39.2863C42.0104 39.0234 41.3119 38.8103 40.6003 38.6487C39.8217 38.4665 39.0329 38.2641 38.2338 38.0415C37.4204 37.841 36.6199 37.5926 35.8365 37.2976C35.0876 37.0203 34.3836 36.6368 33.7466 36.159C33.1286 35.6896 32.6202 35.0941 32.256 34.4132C31.858 33.6291 31.6626 32.7598 31.6874 31.883C31.6618 30.8701 31.9112 29.8689 32.4097 28.9834C32.8823 28.1733 33.5271 27.4741 34.2998 26.934C35.1008 26.3771 35.9958 25.9659 36.943 25.7195C37.9044 25.4593 38.8966 25.3266 39.8934 25.3248C41.0061 25.3208 42.1153 25.4482 43.1974 25.7043C44.2063 25.9357 45.1621 26.3529 46.0147 26.934C46.8295 27.4954 47.4982 28.2393 47.9663 29.1049C48.4739 30.0963 48.7222 31.1975 48.6885 32.3081H44.0118C43.9942 31.7482 43.8526 31.1989 43.5969 30.6989C43.3785 30.287 43.0555 29.9382 42.6595 29.6868C42.2487 29.4393 41.7956 29.2679 41.3226 29.1808C40.781 29.0758 40.2302 29.025 39.6783 29.029C39.2858 29.0293 38.8944 29.07 38.5104 29.1504C38.1335 29.2264 37.774 29.3705 37.4501 29.5755C37.1384 29.7721 36.8715 30.0306 36.6663 30.3345C36.4498 30.6803 36.3427 31.0821 36.359 31.4883C36.3459 31.8492 36.4345 32.2066 36.6151 32.5206C36.8618 32.8488 37.1975 33.1014 37.5832 33.2493C38.2287 33.5278 38.897 33.7512 39.581 33.9173C40.4347 34.1399 41.5445 34.4233 42.9105 34.7674C43.3203 34.8484 43.8889 34.9951 44.6163 35.2077C45.3849 35.438 46.115 35.7791 46.783 36.2197C47.5253 36.7103 48.1581 37.3458 48.6424 38.087C49.1649 38.8663 49.4262 39.8632 49.4262 41.0777C49.4347 42.0294 49.2355 42.9718 48.8422 43.8406C48.4465 44.699 47.8516 45.4531 47.1057 46.0419C46.2563 46.7006 45.2856 47.1904 44.2474 47.4841C42.9635 47.8445 41.6326 48.0151 40.2981 47.9901C39.1099 47.999 37.9255 47.857 36.7739 47.5676C35.6907 47.2989 34.6687 46.8302 33.762 46.1861C32.8905 45.5574 32.18 44.736 31.6874 43.7875C31.1524 42.7128 30.8988 41.5228 30.9498 40.3262H35.6214C35.6028 40.9638 35.7399 41.5965 36.0209 42.1707Z" fill="black"/>
		<path d="M66.5901 31.6274C66.3022 31.1708 65.9386 30.7654 65.5144 30.4281C65.0774 30.0803 64.5838 29.8082 64.0546 29.6235C63.5072 29.4305 62.93 29.3329 62.3488 29.3351C61.3881 29.3061 60.4359 29.5204 59.5827 29.9575C58.8402 30.3583 58.2073 30.9314 57.7387 31.6274C57.2565 32.3554 56.9096 33.1625 56.7142 34.0108C56.4973 34.9161 56.389 35.8435 56.3915 36.7738C56.3896 37.669 56.498 38.5611 56.7142 39.4305C56.9137 40.2586 57.2605 41.0451 57.7387 41.7532C58.2109 42.4423 58.8432 43.0097 59.5827 43.4079C60.4359 43.8451 61.3881 44.0593 62.3488 44.0304C63.8241 44.0304 64.9766 43.585 65.8064 42.6944C66.6362 41.8038 67.1434 40.6298 67.3278 39.1724H71.9994C71.899 40.4422 71.5767 41.6852 71.0466 42.8462C70.5617 43.8964 69.8725 44.8421 69.0181 45.6294C68.1656 46.4102 67.1619 47.0127 66.0677 47.4005C64.8736 47.8165 63.6149 48.0221 62.3488 48.0078C60.7934 48.032 59.2498 47.7374 57.8155 47.1425C56.5223 46.6 55.3637 45.7868 54.4194 44.759C53.4811 43.7198 52.7604 42.5073 52.2987 41.1915C51.7979 39.7717 51.5484 38.2773 51.5611 36.7738C51.5469 35.2405 51.7963 33.7159 52.2987 32.265C52.7599 30.9308 53.4802 29.6983 54.4194 28.6367C55.3586 27.5921 56.5177 26.7631 57.8155 26.2078C60.3452 25.1754 63.1602 25.0465 65.7757 25.8434C66.8211 26.1717 67.7992 26.6806 68.6647 27.3464C69.524 28.0146 70.2398 28.8456 70.77 29.7905C71.3425 30.8229 71.6979 31.9589 71.8149 33.1303H67.1536C67.0734 32.5962 66.8815 32.0843 66.5901 31.6274Z" fill="black"/>
		<path d="M75.33 32.2575C75.7911 30.9232 76.5115 29.6908 77.4507 28.6292C78.3898 27.5846 79.549 26.7555 80.8468 26.2002C83.7575 25.0264 87.018 25.0264 89.9287 26.2002C91.2204 26.7584 92.374 27.5872 93.3095 28.6292C94.2487 29.6908 94.969 30.9232 95.4302 32.2575C95.9326 33.7083 96.182 35.2329 96.1678 36.7663C96.1805 38.2697 95.931 39.7641 95.4302 41.1839C94.9685 42.4997 94.2478 43.7122 93.3095 44.7515C92.369 45.7767 91.2159 46.5896 89.9287 47.1349C87.014 48.2886 83.7615 48.2886 80.8468 47.1349C79.5536 46.5924 78.3949 45.7792 77.4507 44.7515C76.5124 43.7122 75.7916 42.4997 75.33 41.1839C74.8292 39.7641 74.5797 38.2697 74.5924 36.7663C74.5782 35.2329 74.8276 33.7083 75.33 32.2575ZM79.7404 39.4229C79.9398 40.251 80.2867 41.0375 80.7648 41.7456C81.237 42.4347 81.8693 43.0021 82.6089 43.4004C83.472 43.81 84.4174 44.0227 85.375 44.0227C86.3325 44.0227 87.2779 43.81 88.141 43.4004C88.8806 43.0021 89.5129 42.4347 89.9851 41.7456C90.4632 41.0375 90.8101 40.251 91.0096 39.4229C91.2258 38.5536 91.3342 37.6615 91.3323 36.7663C91.3347 35.836 91.2264 34.9086 91.0096 34.0033C90.8142 33.155 90.4673 32.3479 89.9851 31.6199C89.5164 30.9239 88.8836 30.3508 88.141 29.95C87.2779 29.5403 86.3325 29.3276 85.375 29.3276C84.4174 29.3276 83.472 29.5403 82.6089 29.95C81.8663 30.3508 81.2335 30.9239 80.7648 31.6199C80.2826 32.3479 79.9357 33.155 79.7404 34.0033C79.5235 34.9086 79.4152 35.836 79.4176 36.7663C79.4157 37.6615 79.5241 38.5536 79.7404 39.4229Z" fill="black"/>
		<path d="M115.837 45.8593C114.177 47.2863 111.883 47.9998 108.953 47.9998C105.982 47.9998 103.682 47.2914 102.053 45.8745C100.424 44.4576 99.6094 42.2715 99.6094 39.3162V25.8354H104.435V39.3162C104.434 39.8965 104.485 40.4756 104.588 41.0469C104.678 41.6075 104.909 42.1368 105.261 42.5853C105.613 43.0339 106.074 43.3872 106.601 43.6125C107.346 43.9166 108.148 44.0573 108.953 44.0249C110.674 44.0249 111.862 43.6454 112.518 42.8863C113.173 42.1273 113.501 40.9381 113.501 39.3188V25.8354H118.326V39.3162C118.326 42.2512 117.497 44.4323 115.837 45.8593Z" fill="black"/>
		<path d="M144.02 29.8559V25.8354H161.999V29.8559H155.422V47.5267H150.597V29.8559H144.02Z" fill="black"/>
		<path d="M139.328 26.0966L138.65 25.7651C138.133 25.534 137.55 25.494 137.007 25.6524C136.463 25.8108 135.995 26.1571 135.689 26.6279L123.651 43.8863C122.839 45.0527 123.139 46.6138 124.297 47.2565L124.619 47.4361C125.131 47.7002 125.723 47.7688 126.282 47.6288C126.842 47.4887 127.329 47.1499 127.652 46.677L140.033 29.568C140.906 28.351 140.565 26.7064 139.328 26.0966Z" fill="#005DFF"/>
		<path d="M125.662 25.8354H125.191C123.824 25.8354 122.717 26.9297 122.717 28.2796V29.5447C122.717 30.8946 123.824 31.9888 125.191 31.9888H125.662C127.029 31.9888 128.136 30.8946 128.136 29.5447V28.2796C128.136 26.9297 127.029 25.8354 125.662 25.8354Z" fill="#005DFF"/>
		<path d="M138.757 41.3535H138.247C136.872 41.3535 135.758 42.4546 135.758 43.8128V45.0552C135.758 46.4134 136.872 47.5145 138.247 47.5145H138.757C140.132 47.5145 141.246 46.4134 141.246 45.0552V43.8128C141.246 42.4546 140.132 41.3535 138.757 41.3535Z" fill="#005DFF"/>
	</g>
	<defs>
		<clipPath id="clip0">
			<rect width="162" height="48" fill="white"/>
		</clipPath>
	</defs>
</svg>
