<svg width="34" height="21" viewBox="0 0 34 21" fill="none" xmlns="http://www.w3.org/2000/svg">
<path d="M21.3625 17.8644H12.6133V2.14062H21.3625V17.8644Z" fill="#FF5F00"/>
<path d="M13.1738 10.0012C13.1738 6.81157 14.6672 3.97032 16.9928 2.13931C15.2922 0.800382 13.1458 0.00122124 10.8132 0.00122124C5.2909 0.00122124 0.814453 4.4783 0.814453 10.0012C0.814453 15.5241 5.2909 20.0012 10.8132 20.0012C13.1458 20.0012 15.2922 19.2021 16.9928 17.8631C14.6672 16.0321 13.1738 13.1909 13.1738 10.0012Z" fill="#EB001B"/>
<path d="M33.1615 10.0012C33.1615 15.5241 28.685 20.0012 23.1627 20.0012C20.8301 20.0012 18.6837 19.2021 16.9824 17.8631C19.3087 16.0321 20.8021 13.1909 20.8021 10.0012C20.8021 6.81157 19.3087 3.97032 16.9824 2.13931C18.6837 0.800382 20.8301 0.00122124 23.1627 0.00122124C28.685 0.00122124 33.1615 4.4783 33.1615 10.0012Z" fill="#F79E1B"/>
<path d="M8.33884 10.0646C8.33884 9.6278 8.62508 9.26896 9.09282 9.26896C9.53974 9.26896 9.84145 9.61232 9.84145 10.0646C9.84145 10.5169 9.53974 10.8602 9.09282 10.8602C8.62508 10.8602 8.33884 10.5014 8.33884 10.0646ZM10.3508 10.0646V8.82204H9.8105V9.12375C9.63912 8.9 9.37906 8.75956 9.02558 8.75956C8.32873 8.75956 7.78243 9.30585 7.78243 10.0646C7.78243 10.8239 8.32873 11.3696 9.02558 11.3696C9.37906 11.3696 9.63912 11.2292 9.8105 11.0054V11.3071H10.3508V10.0646ZM28.6106 10.0646C28.6106 9.6278 28.8969 9.26896 29.3646 9.26896C29.8121 9.26896 30.1232 9.61232 30.1232 10.0646C30.1232 10.5169 29.8121 10.8602 29.3646 10.8602C28.8969 10.8602 28.6106 10.5014 28.6106 10.0646ZM30.6232 10.0646V7.82407H30.0823V9.12375C29.9109 8.9 29.6509 8.75956 29.2974 8.75956C28.6005 8.75956 28.0542 9.30585 28.0542 10.0646C28.0542 10.8239 28.6005 11.3696 29.2974 11.3696C29.6509 11.3696 29.9109 11.2292 30.0823 11.0054V11.3071H30.6232V10.0646ZM17.0581 9.24337C17.4063 9.24337 17.63 9.46177 17.6871 9.84619H16.3976C16.4553 9.48735 16.6731 9.24337 17.0581 9.24337ZM17.0688 8.75956C16.3404 8.75956 15.831 9.28978 15.831 10.0646C15.831 10.8549 16.3613 11.3696 17.1051 11.3696C17.4794 11.3696 17.8222 11.2762 18.1239 11.0215L17.8591 10.621C17.6508 10.787 17.3854 10.8811 17.1361 10.8811C16.788 10.8811 16.4708 10.7198 16.3928 10.2723H18.2382C18.2435 10.205 18.2489 10.1372 18.2489 10.0646C18.2435 9.28978 17.7651 8.75956 17.0688 8.75956ZM23.5934 10.0646C23.5934 9.6278 23.8797 9.26896 24.3474 9.26896C24.7943 9.26896 25.096 9.61232 25.096 10.0646C25.096 10.5169 24.7943 10.8602 24.3474 10.8602C23.8797 10.8602 23.5934 10.5014 23.5934 10.0646ZM25.6054 10.0646V8.82204H25.0651V9.12375C24.8931 8.9 24.6336 8.75956 24.2802 8.75956C23.5833 8.75956 23.037 9.30585 23.037 10.0646C23.037 10.8239 23.5833 11.3696 24.2802 11.3696C24.6336 11.3696 24.8931 11.2292 25.0651 11.0054V11.3071H25.6054V10.0646ZM20.5418 10.0646C20.5418 10.8186 21.0667 11.3696 21.8677 11.3696C22.242 11.3696 22.4913 11.2863 22.7615 11.0733L22.502 10.6365C22.2991 10.7823 22.0861 10.8602 21.8516 10.8602C21.4201 10.8549 21.103 10.543 21.103 10.0646C21.103 9.58614 21.4201 9.27431 21.8516 9.26896C22.0861 9.26896 22.2991 9.34691 22.502 9.49271L22.7615 9.05591C22.4913 8.84287 22.242 8.75956 21.8677 8.75956C21.0667 8.75956 20.5418 9.31061 20.5418 10.0646ZM27.5085 8.75956C27.1967 8.75956 26.9938 8.90535 26.8533 9.12375V8.82204H26.3178V11.3071H26.8587V9.91403C26.8587 9.50283 27.0354 9.27431 27.3889 9.27431C27.4984 9.27431 27.6127 9.28978 27.7269 9.3368L27.8936 8.8274C27.7739 8.78038 27.618 8.75956 27.5085 8.75956ZM13.0234 9.01961C12.7633 8.84823 12.4051 8.75956 12.01 8.75956C11.3804 8.75956 10.9751 9.06127 10.9751 9.55519C10.9751 9.96045 11.2768 10.2104 11.8326 10.2883L12.0879 10.3246C12.3843 10.3663 12.5241 10.4443 12.5241 10.5847C12.5241 10.7769 12.3266 10.8864 11.9576 10.8864C11.5833 10.8864 11.3131 10.7668 11.131 10.6264L10.8763 11.0471C11.1727 11.2655 11.547 11.3696 11.9522 11.3696C12.6699 11.3696 13.0859 11.0316 13.0859 10.5585C13.0859 10.1217 12.7586 9.89321 12.2176 9.81525L11.963 9.77835C11.7291 9.74741 11.5416 9.70099 11.5416 9.53437C11.5416 9.35227 11.7184 9.24337 12.0147 9.24337C12.3319 9.24337 12.639 9.36298 12.7895 9.45641L13.0234 9.01961ZM19.9955 8.75956C19.6837 8.75956 19.4807 8.90535 19.3409 9.12375V8.82204H18.8053V11.3071H19.3457V9.91403C19.3457 9.50283 19.5224 9.27431 19.8759 9.27431C19.9854 9.27431 20.0996 9.28978 20.2139 9.3368L20.3805 8.8274C20.2609 8.78038 20.105 8.75956 19.9955 8.75956ZM15.3841 8.82204H14.5004V8.06806H13.9541V8.82204H13.4501V9.31597H13.9541V10.4496C13.9541 11.0263 14.1779 11.3696 14.817 11.3696C15.0515 11.3696 15.3216 11.297 15.493 11.1774L15.3371 10.7144C15.1759 10.8079 14.9991 10.8549 14.8587 10.8549C14.5885 10.8549 14.5004 10.6882 14.5004 10.4389V9.31597H15.3841V8.82204ZM7.30457 11.3071V9.74741C7.30457 9.16005 6.93026 8.76491 6.32684 8.75956C6.00965 8.7542 5.68235 8.85299 5.45324 9.20171C5.28186 8.92618 5.01169 8.75956 4.63202 8.75956C4.36661 8.75956 4.10715 8.83751 3.90422 9.12851V8.82204H3.36328V11.3071H3.90898V9.92951C3.90898 9.49807 4.14821 9.26896 4.51776 9.26896C4.8766 9.26896 5.0581 9.50283 5.0581 9.92415V11.3071H5.6044V9.92951C5.6044 9.49807 5.85374 9.26896 6.21258 9.26896C6.58154 9.26896 6.75828 9.50283 6.75828 9.92415V11.3071H7.30457Z" fill="white"/>
</svg>
