<svg width="128" height="56" viewBox="0 0 128 56" fill="none" xmlns="http://www.w3.org/2000/svg">
<path d="M100 22C96.705 22 94 24.5033 94 27.6041C94 29.256 94.785 30.7238 96 31.7462V34L98.219 32.9187C98.783 33.0843 99.373 33.2081 100 33.2081C103.295 33.2081 106 30.7048 106 27.6041C106 24.5033 103.295 22 100 22ZM100 22.9746C102.78 22.9746 105 25.0535 105 27.6041C105 30.1546 102.78 32.2335 100 32.2335C99.4025 32.2335 98.832 32.1229 98.297 31.944L98.094 31.8831L97 32.4162V31.3198L96.8125 31.1673C95.703 30.315 95 29.0377 95 27.6041C95 25.0535 97.2205 22.9746 100 22.9746ZM99.4375 26.0661L96.422 29.1727L99.125 27.7108L100.562 29.2185L103.547 26.0656L100.906 27.5129L99.4375 26.0661Z" fill="#377BE2"/>
<path d="M75.6315 21.002C74.4478 21.0156 71.9028 21.2002 70.4794 22.4398C69.4205 23.4357 69.0508 24.9081 69.0075 26.7287C68.9716 28.5428 68.9282 31.9496 72.3877 32.8773V34.2901C72.3877 34.2901 72.3661 34.8554 72.7597 34.9714C73.2447 35.1171 73.5208 34.6822 73.9817 34.2149L74.8414 33.2921C77.2085 33.4789 79.0214 33.0483 79.2303 32.9845C79.7106 32.8387 82.416 32.5106 82.858 29.1033C83.3116 25.5845 82.6372 23.3675 81.4198 22.3646H81.4125C81.0451 22.0434 79.5686 21.0222 76.27 21.0108C76.27 21.0108 76.0252 20.995 75.6315 21.0016V21.002ZM75.6721 21.9913C76.0081 21.9892 76.2123 22.0027 76.2123 22.0027C79.0044 22.0097 80.337 22.8074 80.6514 23.076C81.6766 23.91 82.2048 25.9088 81.8181 28.8465C81.4507 31.695 79.2565 31.8753 78.8504 31.9982C78.6776 32.0507 77.0808 32.4244 75.0692 32.3014C75.0692 32.3014 73.571 34.0175 73.1027 34.4594C73.0285 34.5369 72.9418 34.5596 72.8865 34.5483C72.8072 34.5299 72.7832 34.4367 72.7879 34.3089L72.8021 31.9641C69.8681 31.194 70.041 28.2882 70.0723 26.7703C70.1083 25.2524 70.4084 24.0107 71.3017 23.1697C72.5044 22.1375 74.6654 21.9983 75.6712 21.9913H75.6721ZM75.8934 23.5088C75.8692 23.5086 75.8453 23.5129 75.8229 23.5215C75.8005 23.5301 75.7801 23.5428 75.7629 23.5589C75.7457 23.575 75.7321 23.5942 75.7227 23.6153C75.7134 23.6364 75.7086 23.6591 75.7085 23.6821C75.7085 23.7801 75.7924 23.8575 75.8934 23.8575C76.3504 23.8493 76.8046 23.927 77.2299 24.0862C77.6551 24.2454 78.043 24.4829 78.371 24.7851C79.0408 25.4025 79.3672 26.2321 79.3796 27.3168C79.3796 27.4126 79.4612 27.4923 79.5645 27.4923V27.4853C79.6131 27.4854 79.6599 27.4672 79.6945 27.4348C79.7291 27.4023 79.7488 27.3582 79.7493 27.312C79.7717 26.8014 79.6845 26.2919 79.4929 25.8143C79.3014 25.3368 79.0096 24.9012 78.6352 24.534C77.9055 23.8571 76.9808 23.5083 75.8934 23.5083V23.5088ZM73.4636 23.91C73.3332 23.8919 73.2001 23.9168 73.0866 23.9805H73.0769C72.8133 24.1271 72.5759 24.3124 72.3735 24.5296C72.2052 24.7142 72.1139 24.9011 72.09 25.0809C72.0757 25.1881 72.0854 25.2953 72.119 25.3977L72.131 25.4047C72.3204 25.9333 72.568 26.4417 72.8704 26.9204C73.2599 27.5929 73.7393 28.2148 74.2966 28.7708L74.3132 28.7936L74.3395 28.8119L74.3561 28.8303L74.3754 28.8461C74.9632 29.3766 75.62 29.8338 76.3299 30.2064C77.1412 30.6256 77.6335 30.8238 77.929 30.9061V30.9104C78.0156 30.9354 78.0944 30.9468 78.1737 30.9468C78.4256 30.9293 78.6639 30.8322 78.8509 30.6711C79.0786 30.4789 79.2717 30.2526 79.4225 30.0012V29.9968C79.564 29.7439 79.5161 29.5046 79.3119 29.3427C78.9029 29.0034 78.4607 28.702 77.9912 28.4426C77.6768 28.2807 77.3574 28.3788 77.2278 28.5428L76.9517 28.8732C76.8102 29.0373 76.553 29.0145 76.553 29.0145L76.5456 29.0189C74.6276 28.5538 74.1159 26.7104 74.1159 26.7104C74.1159 26.7104 74.0919 26.4596 74.2694 26.3319L74.6151 26.0676C74.7806 25.9398 74.8958 25.637 74.7184 25.3382C74.447 24.892 74.1302 24.4721 73.7725 24.0846C73.6943 23.9933 73.5845 23.9311 73.4627 23.9091L73.4636 23.91ZM76.2123 24.4298C75.9676 24.4298 75.9676 24.7808 76.2146 24.7808C76.519 24.7854 76.8194 24.847 77.0987 24.962C77.378 25.0769 77.6307 25.243 77.8423 25.4506C78.0354 25.6528 78.1837 25.8897 78.2786 26.1473C78.3734 26.4048 78.4129 26.6778 78.3945 26.9501C78.3954 26.9962 78.4152 27.0402 78.4497 27.0726C78.4843 27.1049 78.5308 27.1232 78.5794 27.1234L78.5868 27.1326C78.6357 27.1323 78.6825 27.1137 78.7171 27.0808C78.7516 27.048 78.7712 27.0036 78.7716 26.9571C78.7882 26.2619 78.5605 25.6786 78.1138 25.2113C77.6648 24.744 77.0384 24.4819 76.2386 24.4298H76.2123ZM76.5152 25.3732C76.263 25.3662 76.2534 25.7241 76.5032 25.7311C77.1108 25.7609 77.4058 26.0523 77.4445 26.6517C77.4453 26.6972 77.4649 26.7406 77.499 26.7726C77.5331 26.8046 77.5791 26.8226 77.627 26.8228H77.6344C77.6591 26.8218 77.6833 26.8162 77.7056 26.8062C77.7279 26.7962 77.7479 26.7821 77.7644 26.7647C77.7809 26.7473 77.7936 26.727 77.8018 26.7049C77.8099 26.6828 77.8134 26.6594 77.8119 26.636C77.7685 25.8545 77.3196 25.4143 76.5226 25.3736H76.5152V25.3732Z" fill="#3865DA"/>
<path d="M57.0348 21.9978C56.8743 22.0095 56.7168 22.0471 56.5683 22.1093H56.5663C56.4238 22.1658 55.7463 22.4508 54.7163 22.8828L51.0253 24.4373C48.3768 25.5523 45.7733 26.6503 45.7733 26.6503L45.8043 26.6383C45.8043 26.6383 45.6248 26.6973 45.4373 26.8258C45.3215 26.8995 45.2218 26.9959 45.1443 27.1093C45.0523 27.2443 44.9783 27.4508 45.0058 27.6643C45.0508 28.0253 45.2848 28.2418 45.4528 28.3613C45.6228 28.4823 45.7848 28.5388 45.7848 28.5388H45.7888L48.2303 29.3613C48.3398 29.7128 48.9743 31.7988 49.1268 32.2793C49.2168 32.5663 49.3043 32.7458 49.4138 32.8828C49.4668 32.9528 49.5288 33.0113 49.6033 33.0583C49.642 33.0808 49.6833 33.0986 49.7263 33.1113L49.7013 33.1053C49.7088 33.1073 49.7148 33.1133 49.7203 33.1153C49.7403 33.1208 49.7538 33.1228 49.7793 33.1268C50.1658 33.2438 50.4763 33.0038 50.4763 33.0038L50.4938 32.9898L51.9353 31.6773L54.3513 33.5308L54.4063 33.5543C54.9098 33.7753 55.4198 33.6523 55.6893 33.4353C55.9608 33.2168 56.0663 32.9373 56.0663 32.9373L56.0838 32.8923L57.9508 23.3278C58.0038 23.0918 58.0173 22.8708 57.9588 22.6563C57.8985 22.4392 57.7592 22.2525 57.5683 22.1328C57.408 22.0353 57.2222 21.9883 57.0348 21.9978ZM56.9843 23.0228C56.9823 23.0543 56.9883 23.0508 56.9743 23.1113V23.1168L55.1248 32.5818C55.1168 32.5953 55.1033 32.6248 55.0663 32.6543C55.0273 32.6853 54.9963 32.7048 54.8338 32.6403L51.8788 30.3748L50.0938 32.0018L50.4688 29.6068L55.2968 25.1068C55.4958 24.9218 55.4293 24.8828 55.4293 24.8828C55.4433 24.6558 55.1288 24.8163 55.1288 24.8163L49.0408 28.5878L49.0388 28.5778L46.1208 27.5953V27.5933L46.1133 27.5918C46.1184 27.5901 46.1234 27.5881 46.1283 27.5858L46.1443 27.5778L46.1598 27.5723C46.1598 27.5723 48.7653 26.4743 51.4138 25.3593C52.7398 24.8008 54.0758 24.2383 55.1033 23.8043C56.1308 23.3728 56.8903 23.0563 56.9333 23.0393C56.9743 23.0233 56.9548 23.0233 56.9843 23.0233V23.0228Z" fill="#377BE2"/>
<path fill-rule="evenodd" clip-rule="evenodd" d="M32.2516 23.7441C31.6981 23.1896 31.0395 22.7499 30.314 22.4505C29.5886 22.1512 28.8106 21.998 28.0253 22C24.7321 22 22.0512 24.6675 22.0499 27.9464C22.0499 28.9943 22.3248 30.017 22.8473 30.9192L22 34L25.1674 33.1727C26.0435 33.6473 27.0251 33.8962 28.0226 33.8967H28.0253C31.3178 33.8967 33.9986 31.2292 34 27.9503C34.0022 27.169 33.8489 26.395 33.5488 25.673C33.2487 24.9511 32.8078 24.2955 32.2516 23.7441ZM28.0253 32.8931H28.0233C27.1338 32.8932 26.2606 32.655 25.4955 32.2036L25.3145 32.0963L23.4349 32.5871L23.9361 30.7635L23.8183 30.5767C23.321 29.7888 23.0577 28.8769 23.0589 27.9464C23.0602 25.2213 25.2878 23.0042 28.0273 23.0042C28.6797 23.0028 29.3259 23.1301 29.9285 23.3789C30.5312 23.6277 31.0782 23.9929 31.5381 24.4535C32.0004 24.9119 32.3668 25.457 32.6162 26.0572C32.8656 26.6574 32.993 27.3008 32.991 27.9503C32.9897 30.6754 30.762 32.8931 28.0253 32.8931ZM30.7494 29.191C30.5996 29.1161 29.8662 28.7571 29.7291 28.7074C29.5927 28.6578 29.4935 28.6333 29.3937 28.7816C29.2938 28.93 29.0076 29.2645 28.9205 29.3639C28.8333 29.4632 28.7461 29.4752 28.597 29.401C28.4479 29.3268 27.9667 29.1698 27.3963 28.6637C26.9524 28.2696 26.6529 27.7834 26.5657 27.6344C26.4785 27.4853 26.5564 27.4052 26.6316 27.331C26.6988 27.2647 26.7807 27.1574 26.8552 27.0707C26.9298 26.9839 26.9544 26.9223 27.0043 26.8229C27.0542 26.7236 27.0296 26.6368 26.9917 26.5626C26.9544 26.4878 26.6556 25.7565 26.5311 25.4591C26.4106 25.1709 26.2875 25.2093 26.1957 25.2054C26.1005 25.2015 26.0053 25.1997 25.9101 25.2001C25.8344 25.202 25.76 25.2194 25.6913 25.2514C25.6227 25.2833 25.5615 25.329 25.5115 25.3855C25.3744 25.5346 24.989 25.8936 24.989 26.6249C24.989 27.3562 25.5241 28.0629 25.5987 28.1623C25.6732 28.2617 26.6516 29.762 28.1491 30.4058C28.5058 30.5588 28.784 30.6503 29.0003 30.7191C29.3577 30.8324 29.6832 30.8159 29.9407 30.7781C30.2276 30.7357 30.8239 30.4191 30.9484 30.072C31.0729 29.7249 31.0729 29.4275 31.0356 29.3652C30.9983 29.3029 30.8978 29.2652 30.7494 29.191Z" fill="#5BE893"/>
<rect x="0.5" y="0.5" width="127" height="55" rx="4.5" stroke="#7B61FF" stroke-dasharray="10 5"/>
</svg>
