<svg width="22" height="22" viewBox="0 0 22 22" fill="none" xmlns="http://www.w3.org/2000/svg">
<path fill-rule="evenodd" clip-rule="evenodd" d="M10.7515 1.75C5.68066 1.75 1.56213 5.88706 1.56213 11C1.56213 12.3886 1.86592 13.7037 2.4092 14.8836C2.43631 14.9425 2.46401 15.002 2.49203 15.0622L2.49204 15.0622L2.49205 15.0623C2.91753 15.9765 3.41604 17.0477 3.02872 18.4037C2.94881 18.6835 2.81699 18.9688 2.7158 19.1878L2.71577 19.1879C2.6936 19.2358 2.67289 19.2807 2.65453 19.3215C2.5344 19.5889 2.47466 19.7633 2.4628 19.9085C2.44907 20.0767 2.59462 20.2013 2.74525 20.176C3.12381 20.1126 3.3952 19.9731 3.75853 19.7863L3.75856 19.7863L3.75858 19.7863C3.88645 19.7206 4.02571 19.649 4.18503 19.5728C4.77847 19.2891 5.49444 19.0521 6.47685 19.2846L6.30416 20.0144L6.47686 19.2846C6.68282 19.3333 7.13137 19.4948 7.86973 19.7606L7.87002 19.7607L7.87007 19.7607L8.0001 19.8075C8.81029 20.0991 9.69421 20.25 10.7515 20.25C15.8224 20.25 19.9409 16.1129 19.9409 11C19.9409 5.88706 15.8224 1.75 10.7515 1.75ZM0.0621338 11C0.0621338 5.06724 4.84365 0.25 10.7515 0.25C16.6594 0.25 21.4409 5.06724 21.4409 11C21.4409 16.9328 16.6594 21.75 10.7515 21.75C9.54393 21.75 8.4855 21.5764 7.49215 21.2189C6.60388 20.8992 6.24068 20.7701 6.13148 20.7443C5.60518 20.6197 5.25385 20.7244 4.83208 20.9261C4.75265 20.9641 4.66374 21.0103 4.56614 21.061C4.16842 21.2676 3.62638 21.5493 2.99323 21.6554L2.87045 20.9229L2.99322 21.6554C1.86652 21.8443 0.875513 20.9166 0.967777 19.7864C1.00227 19.364 1.16081 18.9861 1.2863 18.7068C1.3189 18.6342 1.34918 18.5682 1.37718 18.5072L1.37719 18.5072C1.4724 18.2997 1.54137 18.1494 1.5864 17.9918L2.30454 18.1969L1.5864 17.9918C1.81718 17.1838 1.5451 16.5931 1.07029 15.5622L1.04669 15.511L1.72795 15.1973L1.04669 15.511C0.41464 14.1382 0.0621338 12.6094 0.0621338 11ZM6.02577 9C6.02577 8.58579 6.36156 8.25 6.77577 8.25H14.7273C15.1415 8.25 15.4773 8.58579 15.4773 9C15.4773 9.41421 15.1415 9.75 14.7273 9.75H6.77577C6.36156 9.75 6.02577 9.41421 6.02577 9ZM6.77577 12.25C6.36156 12.25 6.02577 12.5858 6.02577 13C6.02577 13.4142 6.36156 13.75 6.77577 13.75H10.7515C11.1657 13.75 11.5015 13.4142 11.5015 13C11.5015 12.5858 11.1657 12.25 10.7515 12.25H6.77577Z" fill="currentColor"/>
</svg>
