<svg width="16" height="16" viewBox="0 0 16 16" fill="none" xmlns="http://www.w3.org/2000/svg">
<path d="M12.2169 9.75857C12.5558 9.88263 14.3688 10.7792 14.7389 10.9661C15.1058 11.1513 15.3542 11.2456 15.4464 11.4011C15.5385 11.5566 15.5385 12.2993 15.2308 13.166C14.9232 14.0328 13.4491 14.8234 12.7401 14.9293C12.1034 15.0236 11.2989 15.0649 10.4154 14.7821C9.88075 14.6101 9.19307 14.3818 8.31126 13.9997C4.60963 12.3919 2.19123 8.64536 2.00697 8.39725L2.00216 8.39076C1.80087 8.11986 0.5 6.36906 0.5 4.55808C0.5 2.73195 1.45255 1.83542 1.79146 1.46325C1.91513 1.32197 2.0665 1.20791 2.23608 1.12821C2.40566 1.04851 2.58978 1.0049 2.77691 1.0001C3.01224 0.999254 3.24756 1.00367 3.48269 1.01334C3.70972 1.02326 4.01408 0.927323 4.31186 1.64686C4.6195 2.38955 5.35818 4.21568 5.45031 4.40259C5.54409 4.58785 5.60496 4.80454 5.48157 5.05265C5.35818 5.30077 5.29731 5.4546 5.11305 5.67129C4.92879 5.88797 4.72644 6.15594 4.56028 6.32135C4.37437 6.50661 4.18189 6.70675 4.3974 7.07893C4.61292 7.4511 5.35325 8.66521 6.45057 9.6494C7.86048 10.9131 9.04994 11.3052 9.41846 11.4904C9.78698 11.6757 10.0025 11.6459 10.218 11.3978C10.4335 11.1497 11.141 10.3144 11.3877 9.94383C11.6345 9.57331 11.8796 9.63452 12.2169 9.75857Z" fill="#9FA4BB"/>
</svg>
