<svg width="14" height="16" viewBox="0 0 14 16" fill="none" xmlns="http://www.w3.org/2000/svg">
<path fill-rule="evenodd" clip-rule="evenodd" d="M12 0H2V8.57143H0.5L6.90039 16L13.5 8.57143H12V0ZM7.29901 2.47705C7.29901 2.31137 7.1647 2.17705 6.99901 2.17705C6.83333 2.17705 6.69901 2.31137 6.69901 2.47705V3.58835H6.07494C5.65666 3.58835 5.25285 3.74683 4.95302 4.03304C4.65271 4.31969 4.48125 4.71154 4.48125 5.12324C4.48125 5.53494 4.65271 5.92679 4.95302 6.21345C5.25285 6.49965 5.65666 6.65813 6.07494 6.65813H6.69901V8.52791H4.78125C4.61556 8.52791 4.48125 8.66223 4.48125 8.82791C4.48125 8.9936 4.61556 9.12791 4.78125 9.12791H6.69901V10.2392C6.69901 10.4049 6.83333 10.5392 6.99901 10.5392C7.1647 10.5392 7.29901 10.4049 7.29901 10.2392V9.12791H7.92308C8.34137 9.12791 8.74517 8.96943 9.045 8.68323C9.34531 8.39657 9.51677 8.00472 9.51677 7.59302C9.51677 7.18132 9.34531 6.78947 9.045 6.50282C8.74517 6.21661 8.34137 6.05813 7.92308 6.05813H7.29901V4.18835H8.84715C9.01283 4.18835 9.14715 4.05404 9.14715 3.88835C9.14715 3.72267 9.01283 3.58835 8.84715 3.58835H7.29901V2.47705ZM6.07494 4.18835H6.69901V6.05813H6.07494C5.80701 6.05813 5.5527 5.9564 5.36731 5.77944C5.18238 5.60292 5.08125 5.36657 5.08125 5.12324C5.08125 4.87992 5.18238 4.64357 5.36731 4.46705C5.5527 4.29008 5.80701 4.18835 6.07494 4.18835ZM7.29901 8.52791V6.65813H7.92308C8.19101 6.65813 8.44532 6.75986 8.63072 6.93683C8.81564 7.11335 8.91677 7.3497 8.91677 7.59302C8.91677 7.83635 8.81564 8.0727 8.63072 8.24921C8.44532 8.42618 8.19101 8.52791 7.92308 8.52791H7.29901Z" fill="white"/>
</svg>
