<svg width="36" height="46" viewBox="0 0 36 46" fill="none" xmlns="http://www.w3.org/2000/svg">
<path d="M26 6V6C28.8003 6 30.2004 6 31.27 6.54497C32.2108 7.02433 32.9757 7.78924 33.455 8.73005C34 9.79961 34 11.1997 34 14V36C34 38.8003 34 40.2004 33.455 41.27C32.9757 42.2108 32.2108 42.9757 31.27 43.455C30.2004 44 28.8003 44 26 44H10.0001C7.19981 44 5.79966 44 4.7301 43.455C3.78928 42.9756 3.02438 42.2107 2.54502 41.2699C2.00005 40.2003 2.00007 38.8002 2.00011 35.9999L2.00021 28.6875L2 28M26 6C26 8.20914 24.2091 10 22 10H14C11.7909 10 10 8.20914 10 6M26 6C26 5.27143 25.8052 4.58835 25.4649 4C25.1136 3.39274 24.6073 2.88641 24 2.53513M10 6V6C7.19974 6 5.79961 6 4.73005 6.54497C3.78924 7.02433 3.02433 7.78924 2.54497 8.73005C2 9.79961 2 11.1997 2 14V19V20M10 6C10 3.79086 11.7909 2 14 2H18M12 22H24M12 30H20" stroke="currentColor" stroke-width="3" stroke-linecap="round" stroke-linejoin="round"/>
</svg>
