<svg width="14" height="14" viewBox="0 0 14 14" fill="none" xmlns="http://www.w3.org/2000/svg">
	<path d="M10.6526 9.07L9.68897 8.245C10.3109 7.2475 10.1532 5.9875 9.17213 5.1475C8.56769 4.63 7.78805 4.375 6.99965 4.375C6.97337 4.375 6.94709 4.3825 6.92081 4.3825L7.87565 5.2L6.94709 5.995L4.46802 3.8725L6.94709 1.75L7.87565 2.545L7.03469 3.265C8.14721 3.2725 9.25097 3.625 10.1007 4.345C11.5899 5.6275 11.7738 7.615 10.6526 9.07ZM9.53129 10.1275L7.05221 12.25L6.12366 11.455L6.95585 10.7425C5.8521 10.735 4.74834 10.3675 3.90738 9.6475C2.40942 8.365 2.22546 6.385 3.34674 4.93L4.31034 5.755C3.68838 6.7525 3.84606 8.0125 4.82718 8.8525C5.44038 9.3775 6.25506 9.6325 7.06973 9.61L6.12366 8.8L7.05221 8.005L9.53129 10.1275Z" fill="#9FA4BB"/>
	<circle cx="7" cy="7" r="6.2" stroke="#9FA4BB" stroke-width="1.6"/>
</svg>


