<svg width="14" height="16" viewBox="0 0 14 16" fill="none" xmlns="http://www.w3.org/2000/svg">
<path d="M9.8 10.375H9.10124C8.69898 10.375 8.5232 9.87156 8.81129 9.62656C10.2866 8.36875 11.2 5.81 11.2 4.21875C11.2 1.8925 9.31591 0 7 0C4.68378 0 2.8 1.8925 2.8 4.21875C2.8 5.81 3.71311 8.36875 5.1884 9.62656C5.47587 9.87094 5.30164 10.375 4.89844 10.375H4.2C1.88378 10.375 0 12.2675 0 14.5938V15.5312C0 15.7903 0.208756 16 0.466667 16H13.5333C13.7912 16 14 15.7903 14 15.5312V14.5938C14 12.2675 12.1159 10.375 9.8 10.375Z" fill="#0F0F11"/>
</svg>
