<svg width="16" height="16" viewBox="0 0 16 16" fill="none" xmlns="http://www.w3.org/2000/svg">
<path d="M16 7.99238L14.2255 5.86667L14.4727 3.05524L11.8473 2.43048L10.4727 0L8 1.11238L5.52727 0L4.15273 2.43048L1.52727 3.04762L1.77455 5.86667L0 7.99238L1.77455 10.1181L1.52727 12.9371L4.15273 13.5619L5.52727 16L8 14.88L10.4727 15.9924L11.8473 13.5619L14.4727 12.9371L14.2255 10.1257L16 7.99238ZM13.1273 9.12L12.72 9.61524L12.7782 10.2629L12.9091 11.7486L11.5273 12.0762L10.9164 12.221L10.5964 12.7848L9.87636 14.0648L8.58182 13.4781L8 13.219L7.42545 13.4781L6.13091 14.0648L5.41091 12.7924L5.09091 12.2286L4.48 12.0838L3.09818 11.7562L3.22909 10.2629L3.28727 9.61524L2.88 9.12L1.94182 8L2.88 6.87238L3.28727 6.37714L3.22182 5.72191L3.09091 4.24381L4.47273 3.91619L5.08364 3.77143L5.40364 3.20762L6.12364 1.92762L7.41818 2.51429L8 2.77333L8.57455 2.51429L9.86909 1.92762L10.5891 3.20762L10.9091 3.77143L11.52 3.91619L12.9018 4.24381L12.7709 5.72952L12.7127 6.37714L13.12 6.87238L14.0582 7.99238L13.1273 9.12Z" fill="#9FA4BB"/>
<path d="M7.04668 9.32203L5.79713 8.00565L5 8.84746L7.04668 11L11 6.84181L10.2029 6L7.04668 9.32203Z" fill="#9FA4BB"/>
</svg>
