<svg width="32" height="32" viewBox="0 0 32 32" fill="none" xmlns="http://www.w3.org/2000/svg">
	<path d="M5.33325 13.3333V12.6667V10.6667C5.33325 7.86639 5.33325 6.46626 5.87822 5.3967C6.35759 4.45589 7.12249 3.69099 8.0633 3.21162C9.13286 2.66666 10.533 2.66666 13.3333 2.66666H16.6862C17.9092 2.66666 18.5206 2.66666 19.0961 2.80481C19.6063 2.92729 20.094 3.12931 20.5413 3.40346C21.0459 3.71266 21.4783 4.14504 22.3431 5.0098L24.3234 6.99018C25.1882 7.85494 25.6206 8.28732 25.9298 8.7919C26.2039 9.23926 26.4059 9.72698 26.5284 10.2372C26.6666 10.8126 26.6666 11.4241 26.6666 12.647V21.3333C26.6666 24.1336 26.6666 25.5337 26.1216 26.6033C25.6422 27.5441 24.8773 28.309 23.9365 28.7884C22.867 29.3333 21.4668 29.3333 18.6666 29.3333H13.3333C10.533 29.3333 9.13286 29.3333 8.0633 28.7884C7.12249 28.309 6.35759 27.5441 5.87822 26.6033C5.33325 25.5337 5.33325 24.1336 5.33325 21.3333V19.3333V18.6667M11.9999 16H19.9999M11.9999 21.3333H17.3333M18.6666 3.33332V8.00003C18.6666 9.47279 19.8605 10.6667 21.3333 10.6667V10.6667H22.6666" stroke="#407BFF" stroke-width="1.5" stroke-linecap="round" stroke-linejoin="round"/>
</svg>
