<svg width="56" height="56" viewBox="0 0 56 56" fill="none" xmlns="http://www.w3.org/2000/svg">
	<path fill-rule="evenodd" clip-rule="evenodd" d="M27.0348 1.43664C27.6707 1.297 28.3293 1.297 28.9652 1.43664C29.691 1.59603 30.3439 1.98891 31.0861 2.43554L31.2413 2.52885L49.7747 13.6488L49.9213 13.7366C50.6255 14.158 51.2453 14.5289 51.7127 15.0604C52.1224 15.5263 52.4313 16.0719 52.6201 16.6629C52.8354 17.3372 52.8345 18.0595 52.8335 18.8802V18.8802L52.8333 19.0511V36.949L52.8335 37.1198C52.8345 37.9405 52.8354 38.6628 52.6201 39.3371C52.4313 39.9281 52.1224 40.4737 51.7127 40.9396C51.2453 41.4711 50.6255 41.842 49.9213 42.2634L49.7747 42.3512L31.2413 53.4712L31.0861 53.5645C30.3439 54.0111 29.691 54.404 28.9652 54.5634C28.3293 54.703 27.6707 54.703 27.0348 54.5634C26.309 54.404 25.6561 54.0111 24.9139 53.5645L24.7587 53.4712L6.22535 42.3512L6.07876 42.2634C5.3745 41.842 4.75467 41.4711 4.2873 40.9396C3.87761 40.4737 3.5687 39.9281 3.37996 39.3371C3.16464 38.6628 3.16553 37.9405 3.16653 37.1198L3.16667 36.949V19.0511L3.16653 18.8802C3.16553 18.0595 3.16464 17.3372 3.37996 16.6629C3.5687 16.0719 3.87761 15.5263 4.2873 15.0604C4.75467 14.5289 5.37449 14.158 6.07875 13.7366L6.22535 13.6488L24.7587 2.52885L24.9139 2.43554C25.6561 1.98891 26.309 1.59603 27.0348 1.43664ZM28.3217 4.36682C28.1098 4.32027 27.8902 4.32027 27.6783 4.36682C27.4957 4.40691 27.2904 4.50836 26.3022 5.10132L8.7399 15.6387L17.0226 20.7003L36.1821 8.99187L29.6978 5.10133C28.7096 4.50836 28.5043 4.40691 28.3217 4.36682ZM19.8992 22.4583L28 27.4088L47.2601 15.6387L39.0851 10.7337L19.8992 22.4583ZM49.7746 17.6179L29.5 30.0079V51.0171C29.5622 50.9799 29.6281 50.9405 29.6978 50.8987L48.2312 39.7787C49.166 39.2178 49.3421 39.0925 49.4598 38.9586C49.5964 38.8033 49.6993 38.6214 49.7622 38.4244C49.8165 38.2546 49.8333 38.0391 49.8333 36.949V19.0511C49.8333 18.0486 49.8191 17.7857 49.7746 17.6179ZM26.5 51.0171V30.0079L6.22539 17.6179C6.18092 17.7858 6.16667 18.0486 6.16667 19.0511V36.949C6.16667 38.0391 6.18352 38.2546 6.23777 38.4244C6.30068 38.6214 6.40365 38.8033 6.54021 38.9586C6.65795 39.0925 6.83404 39.2178 7.76884 39.7787L26.3022 50.8987C26.3719 50.9405 26.4378 50.9799 26.5 51.0171Z" fill="#005DFF"/>
</svg>
