<svg width="56" height="56" viewBox="0 0 56 56" fill="none" xmlns="http://www.w3.org/2000/svg">
	<path fill-rule="evenodd" clip-rule="evenodd" d="M42 6.16663C38.9624 6.16663 36.5 8.62906 36.5 11.6666C36.5 14.7042 38.9624 17.1666 42 17.1666C45.0376 17.1666 47.5 14.7042 47.5 11.6666C47.5 8.62906 45.0376 6.16663 42 6.16663ZM33.5 11.6666C33.5 6.97221 37.3056 3.16663 42 3.16663C46.6944 3.16663 50.5 6.97221 50.5 11.6666C50.5 16.361 46.6944 20.1666 42 20.1666C37.3056 20.1666 33.5 16.361 33.5 11.6666ZM11.6667 38.8333C8.62911 38.8333 6.16667 41.2957 6.16667 44.3333C6.16667 47.3709 8.62911 49.8333 11.6667 49.8333C14.7042 49.8333 17.1667 47.3709 17.1667 44.3333C17.1667 41.2957 14.7042 38.8333 11.6667 38.8333ZM3.16667 44.3333C3.16667 39.6389 6.97225 35.8333 11.6667 35.8333C15.8493 35.8333 19.3263 38.8543 20.0347 42.8333H38.5C38.6607 42.8333 38.7229 42.8332 38.773 42.8324C42.2796 42.775 45.1084 39.9462 45.1658 36.4396C45.1666 36.3896 45.1667 36.3273 45.1667 36.1666C45.1667 36.0059 45.1666 35.9437 45.1658 35.8936C45.1084 32.387 42.2796 29.5582 38.773 29.5008C38.7229 29.5 38.6607 29.5 38.5 29.5H15.1667H15.1511C15.0113 29.5 14.9225 29.5 14.8446 29.4987C9.71955 29.4148 5.58514 25.2804 5.50128 20.1554C5.5 20.0775 5.5 19.9888 5.5 19.8493V19.8492L5.50001 19.8333L5.5 19.8174V19.8172C5.5 19.6778 5.5 19.589 5.50128 19.5112C5.58514 14.3862 9.71955 10.2518 14.8446 10.1679C14.9225 10.1666 15.0112 10.1666 15.1508 10.1666H15.1667H24.3787L21.106 6.89395C20.5202 6.30817 20.5202 5.35842 21.106 4.77263C21.6918 4.18685 22.6415 4.18685 23.2273 4.77263L29.0607 10.606C29.342 10.8873 29.5 11.2688 29.5 11.6666C29.5 12.0645 29.342 12.446 29.0607 12.7273L23.2273 18.5606C22.6415 19.1464 21.6918 19.1464 21.106 18.5606C20.5202 17.9748 20.5202 17.0251 21.106 16.4393L24.3787 13.1666H15.1667C15.006 13.1666 14.9437 13.1667 14.8937 13.1675C11.3871 13.2249 8.55826 16.0537 8.50087 19.5603C8.50006 19.6104 8.5 19.6726 8.5 19.8333C8.5 19.994 8.50006 20.0562 8.50087 20.1063C8.55826 23.6129 11.3871 26.4417 14.8937 26.4991C14.9437 26.4999 15.006 26.5 15.1667 26.5H38.5H38.5161H38.5163C38.6557 26.5 38.7443 26.5 38.8221 26.5012C43.9471 26.5851 48.0815 30.7195 48.1654 35.8445C48.1667 35.9223 48.1667 36.0108 48.1667 36.15V36.1666V36.1833C48.1667 36.3224 48.1667 36.411 48.1654 36.4887C48.0815 41.6137 43.9471 45.7482 38.8221 45.832C38.7444 45.8333 38.6559 45.8333 38.5168 45.8333H38.5156H38.5H20.0347C19.3263 49.8123 15.8493 52.8333 11.6667 52.8333C6.97225 52.8333 3.16667 49.0277 3.16667 44.3333Z" fill="#005DFF"/>
</svg>
