<svg width="24" height="24" viewBox="0 0 24 24" fill="none" xmlns="http://www.w3.org/2000/svg">
<path d="M15.247 13.8361C15.5935 13.471 15.8464 13.0274 15.9839 12.5433C16.1215 12.0591 16.1397 11.5489 16.037 11.0561C15.9953 10.8586 15.8978 10.6773 15.7559 10.5337C15.6141 10.3901 15.434 10.2903 15.237 10.2461C15.5879 9.88166 15.8443 9.43686 15.9837 8.95054C16.1232 8.46421 16.1415 7.95115 16.037 7.45613C15.9947 7.25462 15.8946 7.06979 15.749 6.92419C15.6034 6.77858 15.4185 6.67849 15.217 6.63613C14.528 6.49371 13.8113 6.58154 13.177 6.88613C13.6992 6.32245 13.9926 5.58445 14 4.81613C13.9953 4.30468 13.864 3.80235 13.618 3.35394C13.372 2.90552 13.0188 2.52494 12.59 2.24613C12.4194 2.12981 12.2181 2.06676 12.0115 2.06498C11.805 2.0632 11.6026 2.12276 11.43 2.23613C10.9976 2.51512 10.6408 2.89662 10.3913 3.34672C10.1419 3.79681 10.0074 4.30157 10 4.81613C10.0057 5.58612 10.3021 6.32554 10.83 6.88613C10.197 6.57736 9.47887 6.48935 8.79003 6.63613C8.58781 6.67693 8.40214 6.7765 8.25627 6.92237C8.11041 7.06824 8.01083 7.25391 7.97003 7.45613C7.8643 7.95034 7.88101 8.46291 8.01871 8.94919C8.1564 9.43547 8.41089 9.88071 8.76003 10.2461C8.56427 10.2906 8.38554 10.3907 8.24537 10.5344C8.10521 10.6781 8.00959 10.8593 7.97003 11.0561C7.86559 11.548 7.882 12.0579 8.01785 12.5421C8.1537 13.0263 8.40494 13.4703 8.75003 13.8361C8.55641 13.8863 8.38073 13.9898 8.24287 14.1347C8.10502 14.2796 8.0105 14.4602 7.97003 14.6561C7.86876 15.1034 7.8703 15.5678 7.97455 16.0144C8.0788 16.461 8.28303 16.8782 8.57186 17.2344C8.86068 17.5906 9.22658 17.8766 9.64199 18.0709C10.0574 18.2652 10.5115 18.3628 10.97 18.3561C11.148 18.3589 11.3257 18.3421 11.5 18.3061V21.4561C11.5 21.5887 11.5527 21.7159 11.6465 21.8097C11.7402 21.9034 11.8674 21.9561 12 21.9561C12.1326 21.9561 12.2598 21.9034 12.3536 21.8097C12.4473 21.7159 12.5 21.5887 12.5 21.4561V18.3061C12.6776 18.3426 12.8587 18.3593 13.04 18.3561C13.4418 18.3594 13.8403 18.2834 14.2127 18.1324C14.5851 17.9814 14.924 17.7584 15.21 17.4761C15.5691 17.1103 15.8327 16.6616 15.9774 16.1699C16.1222 15.6781 16.1437 15.1582 16.04 14.6561C15.9972 14.4592 15.9003 14.2781 15.7602 14.1333C15.6201 13.9884 15.4424 13.8855 15.247 13.8361ZM11.417 17.3161C11.0764 17.3892 10.7231 17.3773 10.3882 17.2814C10.0533 17.1855 9.74724 17.0085 9.49703 16.7661C9.24882 16.512 9.07121 16.1976 8.98177 15.8538C8.89233 15.5101 8.89414 15.149 8.98703 14.8061C9.14213 14.7783 9.29946 14.765 9.45703 14.7661C9.7261 14.761 9.9934 14.8106 10.2427 14.9121C10.492 15.0135 10.718 15.1646 10.907 15.3561C11.1578 15.6085 11.3372 15.9229 11.4268 16.2672C11.5164 16.6116 11.513 16.9735 11.417 17.3161ZM11.417 13.7161C11.0765 13.79 10.7229 13.7784 10.3879 13.6824C10.0529 13.5865 9.74684 13.4091 9.49703 13.1661C9.2489 12.9141 9.07122 12.6014 8.98173 12.2592C8.89224 11.917 8.89407 11.5574 8.98703 11.2161C9.14105 11.1803 9.2989 11.1635 9.45703 11.1661C9.7261 11.161 9.9934 11.2106 10.2427 11.3121C10.492 11.4135 10.718 11.5646 10.907 11.7561C11.1578 12.0085 11.3372 12.3229 11.4268 12.6672C11.5164 13.0116 11.513 13.3735 11.417 13.7161ZM11.417 10.1161C11.0765 10.19 10.7229 10.1784 10.3879 10.0824C10.0529 9.98646 9.74684 9.80909 9.49703 9.56613C9.2489 9.31409 9.07122 9.00137 8.98173 8.6592C8.89224 8.31703 8.89407 7.95737 8.98703 7.61613C9.14184 7.58518 9.29916 7.56844 9.45703 7.56613C9.7261 7.56099 9.9934 7.61064 10.2427 7.71207C10.492 7.8135 10.718 7.96458 10.907 8.15613C11.1578 8.4085 11.3372 8.7229 11.4268 9.06724C11.5164 9.41157 11.513 9.77352 11.417 10.1161ZM11.977 6.56613C11.6812 6.37896 11.4369 6.12083 11.2663 5.8152C11.0957 5.50957 11.0041 5.16614 11 4.81613C11.0031 4.45985 11.1011 4.11084 11.2839 3.80501C11.4667 3.49919 11.7277 3.24759 12.04 3.07613C12.3313 3.26435 12.5714 3.52176 12.7389 3.82538C12.9064 4.129 12.9961 4.46938 13 4.81613C12.9954 5.17139 12.8987 5.51938 12.7194 5.82611C12.5401 6.13284 12.2843 6.38782 11.977 6.56613ZM14.507 16.7661C14.2513 17.0117 13.9368 17.1876 13.5936 17.2769C13.2504 17.3662 12.8901 17.3659 12.547 17.2761C12.5161 17.1281 12.4994 16.9774 12.497 16.8261V16.8061C12.4931 16.2606 12.7052 15.7358 13.087 15.3461C13.4606 14.9794 13.9636 14.7746 14.487 14.7761C14.6792 14.7753 14.8707 14.7989 15.057 14.8461C15.1284 15.1868 15.1156 15.5397 15.0197 15.8742C14.9239 16.2088 14.7479 16.5149 14.507 16.7661ZM14.507 13.1661C14.2526 13.4138 13.9382 13.5911 13.5945 13.6805C13.2509 13.7699 12.8899 13.7684 12.547 13.6761C12.5161 13.5281 12.4994 13.3774 12.497 13.2261V13.2061C12.4942 12.9374 12.5449 12.6707 12.6462 12.4218C12.7475 12.1728 12.8973 11.9465 13.087 11.7561C13.2701 11.5712 13.4882 11.4247 13.7286 11.3251C13.969 11.2255 14.2268 11.1749 14.487 11.1761C14.6789 11.1803 14.8699 11.2037 15.057 11.2461C15.1284 11.5868 15.1156 11.9397 15.0197 12.2742C14.9239 12.6088 14.7479 12.9149 14.507 13.1661ZM14.507 9.56613C14.2539 9.81579 13.9395 9.99438 13.5954 10.0839C13.2513 10.1734 12.8897 10.1708 12.547 10.0761C12.5161 9.92805 12.4994 9.77737 12.497 9.62613V9.60613C12.4942 9.33737 12.5449 9.07073 12.6462 8.82178C12.7475 8.57282 12.8973 8.34654 13.087 8.15613C13.2721 7.97174 13.4922 7.8263 13.7343 7.7284C13.9765 7.6305 14.2358 7.58212 14.497 7.58613C14.6859 7.58596 14.874 7.60948 15.057 7.65613C15.1284 7.9952 15.1156 8.3466 15.0197 8.67958C14.9239 9.01255 14.7478 9.31695 14.507 9.56613Z" fill="#123275"/>
</svg>
