<svg width="24" height="24" viewBox="0 0 24 24" fill="none" xmlns="http://www.w3.org/2000/svg">
<path d="M2.39999 6.0001C2.39999 5.36358 2.65285 4.75313 3.10294 4.30304C3.55302 3.85295 4.16347 3.6001 4.79999 3.6001H14.4C15.0365 3.6001 15.647 3.85295 16.0971 4.30304C16.5471 4.75313 16.8 5.36358 16.8 6.0001V7.0729L20.706 4.8757C20.7972 4.82442 20.9003 4.79789 21.0049 4.79875C21.1096 4.79961 21.2122 4.82782 21.3025 4.88059C21.3929 4.93336 21.4679 5.00884 21.5201 5.09955C21.5723 5.19027 21.5998 5.29305 21.6 5.3977V13.8001C21.5999 13.9049 21.5724 14.0079 21.5202 14.0988C21.4679 14.1897 21.3928 14.2653 21.3022 14.3181C21.2117 14.3709 21.1089 14.399 21.0041 14.3997C20.8992 14.4004 20.7961 14.3737 20.7048 14.3221L16.8 12.1201V13.2001C16.8 13.8366 16.5471 14.4471 16.0971 14.8972C15.647 15.3472 15.0365 15.6001 14.4 15.6001H12V16.8001C12 18.0731 11.4943 19.294 10.5941 20.1942C9.69393 21.0944 8.47303 21.6001 7.19999 21.6001H4.19999C4.04086 21.6001 3.88825 21.5369 3.77573 21.4244C3.66321 21.3118 3.59999 21.1592 3.59999 21.0001V18.6001C3.59999 18.441 3.66321 18.2884 3.77573 18.1758C3.88825 18.0633 4.04086 18.0001 4.19999 18.0001H6.59999C7.07738 18.0001 7.53522 17.8105 7.87279 17.4729C8.21035 17.1353 8.39999 16.6775 8.39999 16.2001V15.6001H4.79999C4.16347 15.6001 3.55302 15.3472 3.10294 14.8972C2.65285 14.4471 2.39999 13.8366 2.39999 13.2001V6.0001ZM9.59999 15.6001V16.2001C9.59999 16.9957 9.28392 17.7588 8.72131 18.3214C8.15871 18.884 7.39564 19.2001 6.59999 19.2001H4.79999V20.4001H7.19999C8.15477 20.4001 9.07045 20.0208 9.74558 19.3457C10.4207 18.6706 10.8 17.7549 10.8 16.8001V15.6001H9.59999ZM4.79999 14.4001H14.4C14.7183 14.4001 15.0235 14.2737 15.2485 14.0486C15.4736 13.8236 15.6 13.5184 15.6 13.2001V6.0001C15.6 5.68184 15.4736 5.37661 15.2485 5.15157C15.0235 4.92653 14.7183 4.8001 14.4 4.8001H4.79999C4.48173 4.8001 4.17651 4.92653 3.95147 5.15157C3.72642 5.37661 3.59999 5.68184 3.59999 6.0001V13.2001C3.59999 13.5184 3.72642 13.8236 3.95147 14.0486C4.17651 14.2737 4.48173 14.4001 4.79999 14.4001ZM16.806 8.4481V10.7449L20.4 12.7729V6.4249L16.806 8.4481Z" fill="#123275"/>
</svg>
