<svg width="24" height="24" viewBox="0 0 24 24" fill="none" xmlns="http://www.w3.org/2000/svg">
<path d="M3.56001 19.3078L2.84601 18.5998L7.35001 14.0958C7.84134 13.6052 8.16668 13.0212 8.32601 12.3438C8.48601 11.6665 8.56601 10.6288 8.56601 9.23082C8.56601 8.34282 8.76334 7.47016 9.15801 6.61282C9.55268 5.75549 10.1117 4.96549 10.835 4.24283C12.1463 2.93083 13.578 2.17483 15.13 1.97483C16.682 1.77483 17.9593 2.18049 18.962 3.19183C19.9693 4.20516 20.373 5.48616 20.173 7.03482C19.973 8.58349 19.2193 10.0115 17.912 11.3188C17.1887 12.0422 16.402 12.5948 15.552 12.9768C14.702 13.3588 13.8257 13.5498 12.923 13.5498C11.563 13.5498 10.5397 13.6318 9.85301 13.7958C9.16767 13.9598 8.57101 14.2958 8.06301 14.8038L3.56001 19.3078ZM10.454 11.6498C11.2373 12.4298 12.2957 12.7132 13.629 12.4998C14.9623 12.2865 16.154 11.6552 17.204 10.6058C18.2707 9.53916 18.905 8.34316 19.107 7.01783C19.309 5.69316 19.0247 4.65583 18.254 3.90583C17.4673 3.13116 16.4247 2.84716 15.126 3.05383C13.828 3.26049 12.6373 3.89383 11.554 4.95383C10.504 5.99716 9.86334 7.17816 9.63201 8.49682C9.40068 9.81549 9.67468 10.8665 10.454 11.6498ZM18.154 21.9998C17.3287 21.9998 16.6223 21.7062 16.035 21.1188C15.4477 20.5315 15.154 19.8252 15.154 18.9998C15.154 18.1752 15.4477 17.4688 16.035 16.8808C16.6223 16.2928 17.3287 15.9992 18.154 15.9998C18.9787 15.9998 19.685 16.2935 20.273 16.8808C20.861 17.4682 21.1543 18.1745 21.153 18.9998C21.153 19.8252 20.8597 20.5315 20.273 21.1188C19.6863 21.7062 18.9807 21.9998 18.154 21.9998ZM18.153 20.9998C18.7037 20.9998 19.1747 20.8042 19.566 20.4128C19.9573 20.0215 20.1533 19.5505 20.154 18.9998C20.154 18.4498 19.958 17.9792 19.566 17.5878C19.174 17.1965 18.7033 17.0005 18.154 16.9998C17.604 16.9998 17.133 17.1958 16.741 17.5878C16.349 17.9798 16.1533 18.4505 16.154 18.9998C16.154 19.5498 16.3497 20.0208 16.741 20.4128C17.1323 20.8048 17.6023 21.0005 18.153 20.9998Z" fill="#123275"/>
</svg>
