<svg width="24" height="24" viewBox="0 0 24 24" fill="none" xmlns="http://www.w3.org/2000/svg">
	<path fill-rule="evenodd" clip-rule="evenodd" d="M18 2.75C16.7574 2.75 15.75 3.75736 15.75 5C15.75 6.24264 16.7574 7.25 18 7.25C19.2426 7.25 20.25 6.24264 20.25 5C20.25 3.75736 19.2426 2.75 18 2.75ZM14.25 5C14.25 2.92893 15.9289 1.25 18 1.25C20.0711 1.25 21.75 2.92893 21.75 5C21.75 7.07107 20.0711 8.75 18 8.75C15.9289 8.75 14.25 7.07107 14.25 5ZM5 16.75C3.75736 16.75 2.75 17.7574 2.75 19C2.75 20.2426 3.75736 21.25 5 21.25C6.24264 21.25 7.25 20.2426 7.25 19C7.25 17.7574 6.24264 16.75 5 16.75ZM1.25 19C1.25 16.9289 2.92893 15.25 5 15.25C6.81422 15.25 8.32753 16.5383 8.67499 18.25H16.5C18.0188 18.25 19.25 17.0188 19.25 15.5C19.25 13.9812 18.0188 12.75 16.5 12.75H6.5C4.15279 12.75 2.25 10.8472 2.25 8.5C2.25 6.15279 4.15279 4.25 6.5 4.25H10.1893L8.96967 3.03033C8.67678 2.73744 8.67678 2.26256 8.96967 1.96967C9.26256 1.67678 9.73744 1.67678 10.0303 1.96967L12.5303 4.46967C12.8232 4.76256 12.8232 5.23744 12.5303 5.53033L10.0303 8.03033C9.73744 8.32322 9.26256 8.32322 8.96967 8.03033C8.67678 7.73744 8.67678 7.26256 8.96967 6.96967L10.1893 5.75H6.5C4.98122 5.75 3.75 6.98122 3.75 8.5C3.75 10.0188 4.98122 11.25 6.5 11.25H16.5C18.8472 11.25 20.75 13.1528 20.75 15.5C20.75 17.8472 18.8472 19.75 16.5 19.75H8.67499C8.32753 21.4617 6.81422 22.75 5 22.75C2.92893 22.75 1.25 21.0711 1.25 19Z" fill="#22272F"/>
</svg>

