<svg width="24" height="24" viewBox="0 0 24 24" fill="none" xmlns="http://www.w3.org/2000/svg">
	<path fill-rule="evenodd" clip-rule="evenodd" d="M11.1959 0.83581C11.7259 0.719443 12.2747 0.719443 12.8046 0.83581C13.4057 0.967813 13.9547 1.2975 14.7492 1.77462L14.8557 1.83859L20.0557 4.95859L20.1562 5.01885L20.1562 5.01887C20.909 5.47012 21.4293 5.78206 21.8164 6.22228C22.1578 6.61055 22.4153 7.06522 22.5725 7.55773C22.7509 8.11615 22.7506 8.72283 22.7503 9.60045V9.60048L22.7503 9.71768V14.2822L22.7503 14.3994V14.3995C22.7506 15.2771 22.7509 15.8838 22.5725 16.4422C22.4153 16.9347 22.1578 17.3894 21.8164 17.7776C21.4293 18.2179 20.909 18.5298 20.1562 18.9811L20.0557 19.0413L14.8557 22.1613L14.7491 22.2253C13.9547 22.7024 13.4057 23.0321 12.8046 23.1641C12.2747 23.2805 11.7259 23.2805 11.1959 23.1641C10.5948 23.0321 10.0458 22.7024 9.25137 22.2253L9.14482 22.1613L3.94482 19.0413L3.84433 18.9811C3.09157 18.5298 2.57122 18.2179 2.18413 17.7776C1.84273 17.3894 1.5853 16.9347 1.42801 16.4422C1.24968 15.8838 1.24991 15.2771 1.25025 14.3994L1.25028 14.2823V9.71768L1.25025 9.60048C1.24991 8.72284 1.24968 8.11615 1.42801 7.55773C1.5853 7.06522 1.84273 6.61055 2.18413 6.22228C2.57122 5.78206 3.09157 5.47012 3.84432 5.01886L3.94482 4.95859L9.14482 1.83859L9.25138 1.77462C10.0459 1.2975 10.5948 0.967813 11.1959 0.83581ZM12.4829 2.3009C12.1649 2.23108 11.8356 2.23108 11.5177 2.3009C11.1868 2.37357 10.8597 2.55898 9.91656 3.12483L4.71657 6.24483C4.39543 6.43752 4.15094 6.58548 3.9596 6.70726L7.29567 8.74597L15.3 3.85446L14.084 3.12483C13.1409 2.55898 12.8138 2.37357 12.4829 2.3009ZM8.73397 9.62493L12.0003 11.621L20.041 6.70726C19.8496 6.58548 19.6051 6.43752 19.284 6.24483L16.7515 4.72536L8.73397 9.62493ZM21.0768 7.83217L12.7503 12.9206V21.6151C13.0248 21.5047 13.3854 21.2942 14.084 20.8751L19.284 17.7551C20.1763 17.2197 20.4768 17.0296 20.69 16.7871C20.8948 16.5542 21.0493 16.2814 21.1436 15.9859C21.2418 15.6783 21.2503 15.3228 21.2503 14.2822V9.71768C21.2503 8.67709 21.2418 8.3216 21.1436 8.01405C21.1239 7.95238 21.1016 7.8917 21.0768 7.83217ZM11.2503 21.6151V12.9206L2.92376 7.83217C2.89892 7.8917 2.87661 7.95238 2.85692 8.01405C2.7587 8.3216 2.75028 8.67709 2.75028 9.71768V14.2823C2.75028 15.3228 2.7587 15.6783 2.85692 15.9859C2.95129 16.2814 3.10575 16.5542 3.31059 16.7871C3.52378 17.0296 3.82427 17.2197 4.71657 17.7551L9.91657 20.8751C10.6152 21.2943 10.9758 21.5047 11.2503 21.6151Z" fill="black"/>
</svg>

