<svg width="72" height="72" viewBox="0 0 72 72" fill="none" xmlns="http://www.w3.org/2000/svg">
	<rect x="0.5" y="0.5" width="71" height="71" rx="3.5" stroke="black" stroke-opacity="0.3"/>
	<path d="M26 34.5V33.3875C26 31.4178 27.3903 29.7219 29.3217 29.3357L29.4575 29.3085C30.4451 29.111 31.3139 28.5292 31.8726 27.6911V27.6911C32.5769 26.6346 33.7627 26 35.0325 26L36.9675 26C38.2373 26 39.4231 26.6346 40.1274 27.6911V27.6911C40.6861 28.5292 41.5549 29.111 42.5425 29.3085L42.6783 29.3357C44.6097 29.7219 46 31.4178 46 33.3875V38C46 40.8003 46 42.2004 45.455 43.27C44.9757 44.2108 44.2108 44.9757 43.27 45.455C42.2004 46 40.8003 46 38 46L32.5 46C31.1055 46 30.4082 46 29.8328 45.8618C28.0045 45.4229 26.5771 43.9955 26.1382 42.1672C26 41.5918 26 40.8945 26 39.5V39.5V39M36 33C33.7909 33 32 34.7909 32 37C32 39.2091 33.7909 41 36 41C38.2091 41 40 39.2091 40 37C40 36.2714 39.8052 35.5883 39.4649 35" stroke="#979797" stroke-width="1.5" stroke-linecap="round" stroke-linejoin="round"/>
</svg>
