<svg width="32" height="32" viewBox="0 0 32 32" fill="none" xmlns="http://www.w3.org/2000/svg">
	<path d="M21.333 4.00004V4.00004C21.6425 4.00004 21.7973 4.00004 21.928 4.00689C24.4836 4.14083 26.5256 6.18277 26.6595 8.73836C26.6663 8.86911 26.6663 9.02387 26.6663 9.33337V21.3334C26.6663 24.1336 26.6663 25.5338 26.1214 26.6033C25.642 27.5441 24.8771 28.309 23.9363 28.7884C22.8667 29.3334 21.4666 29.3334 18.6663 29.3334H13.333C10.5327 29.3334 9.13261 29.3334 8.06306 28.7884C7.12224 28.309 6.35734 27.5441 5.87798 26.6033C5.33301 25.5338 5.33301 24.1336 5.33301 21.3334V9.33338C5.33301 9.02387 5.33301 8.86911 5.33986 8.73836C5.47379 6.18277 7.51574 4.14083 10.0713 4.00689C10.2021 4.00004 10.3568 4.00004 10.6663 4.00004V4.00004M21.333 4.00004V4.00004C21.333 2.52728 20.1391 1.33337 18.6663 1.33337H13.333C11.8602 1.33337 10.6663 2.52728 10.6663 4.00004V4.00004M21.333 4.00004V4.00004C21.333 5.4728 20.1391 6.66671 18.6663 6.66671H13.333C11.8603 6.66671 10.6663 5.4728 10.6663 4.00004V4.00004M11.9997 14.6667H19.9997M11.9997 20H17.333" stroke="black" stroke-width="1.5" stroke-linecap="round" stroke-linejoin="round"/>
</svg>

