<svg width="32" height="32" viewBox="0 0 32 32" fill="none" xmlns="http://www.w3.org/2000/svg">
	<path d="M26.7998 12.2926C24.3865 12.2926 23.3998 10.5859 24.5998 8.4926C25.2932 7.27926 24.8798 5.7326 23.6665 5.03926L21.3598 3.71926C20.3065 3.0926 18.9465 3.46593 18.3198 4.51926L18.1732 4.7726C16.9732 6.86593 14.9998 6.86593 13.7865 4.7726L13.6398 4.51926C13.0398 3.46593 11.6798 3.0926 10.6265 3.71926L8.31984 5.03926C7.1065 5.7326 6.69317 7.2926 7.3865 8.50593C8.59984 10.5859 7.61317 12.2926 5.19984 12.2926C3.81317 12.2926 2.6665 13.4259 2.6665 14.8259V17.1726C2.6665 18.5593 3.79984 19.7059 5.19984 19.7059C7.61317 19.7059 8.59984 21.4126 7.3865 23.5059C6.69317 24.7193 7.1065 26.2659 8.31984 26.9593L10.6265 28.2793C11.6798 28.9059 13.0398 28.5326 13.6665 27.4793L13.8132 27.2259C15.0132 25.1326 16.9865 25.1326 18.1998 27.2259L18.3465 27.4793C18.9732 28.5326 20.3332 28.9059 21.3865 28.2793L23.6932 26.9593C24.9065 26.2659 25.3198 24.7059 24.6265 23.5059C23.4132 21.4126 24.3998 19.7059 26.8132 19.7059C28.1998 19.7059 29.3465 18.5726 29.3465 17.1726V14.8259C29.3332 13.4393 28.1998 12.2926 26.7998 12.2926ZM15.9998 20.3326C13.6132 20.3326 11.6665 18.3859 11.6665 15.9993C11.6665 13.6126 13.6132 11.6659 15.9998 11.6659C18.3865 11.6659 20.3332 13.6126 20.3332 15.9993C20.3332 18.3859 18.3865 20.3326 15.9998 20.3326Z" fill="#004AB5"/>
</svg>
