<svg width="32" height="32" viewBox="0 0 32 32" fill="none" xmlns="http://www.w3.org/2000/svg">
	<path d="M15.6572 5.33873C14.9401 5.36135 14.2307 5.08771 13.7913 4.52054L12.6223 3.01156C12.0098 2.22092 10.9074 2.00429 10.0412 2.50436L7.29149 4.09191C6.42535 4.59198 6.06176 5.655 6.44021 6.58077L7.16191 8.34616C7.43391 9.01152 7.315 9.76403 6.93537 10.3744C6.81545 10.5672 6.70152 10.7641 6.59383 10.9649C6.25433 11.5978 5.66247 12.0763 4.95087 12.1733L3.06278 12.4308C2.07181 12.5659 1.33301 13.4123 1.33301 14.4125V17.5876C1.33301 18.5877 2.07181 19.4341 3.06278 19.5692L4.95088 19.8267C5.66247 19.9237 6.25433 20.4023 6.59383 21.0351C6.70152 21.2359 6.81544 21.4328 6.93533 21.6255C7.31496 22.2359 7.43387 22.9884 7.16187 23.6538L6.44019 25.4191C6.06173 26.3449 6.42532 27.4079 7.29147 27.908L10.0412 29.4956C10.9073 29.9956 12.0097 29.779 12.6222 28.9884L13.7912 27.4795C14.2306 26.9123 14.94 26.6386 15.6571 26.6613C15.7708 26.6649 15.885 26.6667 15.9997 26.6667C16.1143 26.6667 16.2286 26.6649 16.3424 26.6613C17.0595 26.6386 17.7689 26.9123 18.2083 27.4795L19.3771 28.9881C19.9896 29.7788 21.092 29.9954 21.9582 29.4953L24.7079 27.9078C25.574 27.4077 25.9376 26.3447 25.5592 25.4189L24.8375 23.6537C24.5655 22.9883 24.6844 22.2358 25.0641 21.6255C25.1839 21.4327 25.2978 21.2358 25.4055 21.0351C25.745 20.4023 26.3369 19.9237 27.0485 19.8267L28.9366 19.5692C29.9275 19.4341 30.6663 18.5877 30.6663 17.5876V14.4125C30.6663 13.4123 29.9275 12.5659 28.9366 12.4308L27.0485 12.1733C26.3369 12.0763 25.745 11.5978 25.4055 10.9649C25.2978 10.7642 25.1839 10.5673 25.064 10.3745C24.6844 9.76411 24.5655 9.01161 24.8375 8.34625L25.5591 6.581C25.9376 5.65523 25.574 4.59222 24.7079 4.09215L21.9581 2.50459C21.092 2.00452 19.9896 2.22115 19.3771 3.01179L18.2082 4.52055C17.7688 5.08773 17.0594 5.36137 16.3423 5.33874C16.2285 5.33515 16.1143 5.33334 15.9997 5.33334C15.8851 5.33334 15.7709 5.33515 15.6572 5.33873Z" stroke="black" stroke-width="1.5" stroke-linecap="round" stroke-linejoin="round"/>
	<path d="M19.9997 16C19.9997 18.2091 18.2088 20 15.9997 20C13.7905 20 11.9997 18.2091 11.9997 16C11.9997 13.7908 13.7905 12 15.9997 12C18.2088 12 19.9997 13.7908 19.9997 16Z" stroke="black" stroke-width="1.5" stroke-linecap="round" stroke-linejoin="round"/>
</svg>

