<svg width="38" height="38" viewBox="0 0 38 38" fill="none" xmlns="http://www.w3.org/2000/svg">
	<rect x="0.5" y="0.5" width="37" height="37" rx="7.5" stroke="black"/>
	<g clip-path="url(#clip0_6069_45996)">
		<path fill-rule="evenodd" clip-rule="evenodd" d="M11 12C11 11.2044 11.3161 10.4413 11.8787 9.87868C12.4413 9.31607 13.2044 9 14 9H24C24.7956 9 25.5587 9.31607 26.1213 9.87868C26.6839 10.4413 27 11.2044 27 12V28.028C27 29.248 25.62 29.958 24.628 29.249L19 25.229L13.372 29.249C12.379 29.959 11 29.249 11 28.029V12ZM14 11C13.7348 11 13.4804 11.1054 13.2929 11.2929C13.1054 11.4804 13 11.7348 13 12V27.057L18.128 23.394C18.3824 23.2122 18.6873 23.1145 19 23.1145C19.3127 23.1145 19.6176 23.2122 19.872 23.394L25 27.057V12C25 11.7348 24.8946 11.4804 24.7071 11.2929C24.5196 11.1054 24.2652 11 24 11H14Z" fill="black"/>
	</g>
	<defs>
		<clipPath id="clip0_6069_45996">
			<rect width="24" height="24" fill="white" transform="translate(7 7)"/>
		</clipPath>
	</defs>
</svg>


