<svg width="24" height="24" viewBox="0 0 24 24" fill="none" xmlns="http://www.w3.org/2000/svg">
<path d="M17.5 10C17.5 11.8 16.635 13.4 15.296 14.403L15.896 15.203C16.7049 14.5981 17.3616 13.8129 17.8136 12.9096C18.2657 12.0063 18.5007 11.0101 18.5 10H17.5ZM12 4.5C13.4587 4.5 14.8576 5.07946 15.8891 6.11091C16.9205 7.14236 17.5 8.54131 17.5 10H18.5C18.5 8.27609 17.8152 6.62279 16.5962 5.40381C15.3772 4.18482 13.7239 3.5 12 3.5V4.5ZM6.5 10C6.5 8.54131 7.07946 7.14236 8.11091 6.11091C9.14236 5.07946 10.5413 4.5 12 4.5V3.5C10.2761 3.5 8.62279 4.18482 7.40381 5.40381C6.18482 6.62279 5.5 8.27609 5.5 10H6.5ZM8.704 14.403C8.0192 13.8913 7.46335 13.2269 7.08071 12.4624C6.69807 11.698 6.49922 10.8548 6.5 10H5.5C5.4993 11.0101 5.73433 12.0063 6.18639 12.9096C6.63845 13.8129 7.29507 14.5981 8.104 15.203L8.704 14.403ZM10.497 19.753C10.4665 18.2907 10.1644 16.8468 9.606 15.495L8.682 15.876C9.192 17.11 9.47 18.433 9.498 19.774L10.497 19.753ZM13.565 19.658C13.0791 19.9009 12.5433 20.0274 12 20.0274C11.4567 20.0274 10.9209 19.9009 10.435 19.658L9.988 20.553C10.6127 20.8653 11.3016 21.0278 12 21.0278C12.6984 21.0278 13.3873 20.8653 14.012 20.553L13.565 19.658ZM14.395 15.495C13.8361 16.8471 13.5337 18.2913 13.503 19.754L14.503 19.774C14.53 18.433 14.808 17.111 15.318 15.877L14.395 15.495ZM14.012 20.553C14.1569 20.4801 14.2791 20.369 14.3655 20.2318C14.4519 20.0945 14.4991 19.9362 14.502 19.774L13.502 19.754C13.5026 19.7337 13.5089 19.7141 13.52 19.6971C13.5311 19.6802 13.5467 19.6666 13.565 19.658L14.012 20.553ZM9.498 19.774C9.50094 19.9362 9.54814 20.0945 9.6345 20.2318C9.72086 20.369 9.84309 20.4801 9.988 20.553L10.435 19.658C10.453 19.6667 10.4683 19.6802 10.4792 19.6969C10.4901 19.7136 10.4963 19.733 10.497 19.753L9.498 19.774ZM8.104 15.204C8.422 15.442 8.494 15.501 8.524 15.54L9.314 14.927C9.179 14.753 8.961 14.597 8.704 14.403L8.104 15.204ZM9.606 15.495C9.519 15.285 9.446 15.098 9.314 14.927L8.524 15.54C8.556 15.582 8.578 15.625 8.682 15.876L9.606 15.495ZM15.296 14.404C15.039 14.596 14.821 14.754 14.686 14.927L15.476 15.54C15.506 15.501 15.577 15.442 15.896 15.203L15.296 14.404ZM15.318 15.877C15.422 15.626 15.444 15.582 15.477 15.54L14.687 14.927C14.554 15.098 14.481 15.285 14.394 15.495L15.318 15.877Z" fill="#123275"/>
<path d="M14.5 16.5C12.8951 17.1419 11.1049 17.1419 9.5 16.5" stroke="#123275"/>
<path d="M11 14V9.75C11 9.06 10.44 8.5 9.75 8.5C9.06 8.5 8.5 9.06 8.5 9.75C8.5 10.44 9.06 11 9.75 11H14.25C14.94 11 15.5 10.44 15.5 9.75C15.5 9.06 14.94 8.5 14.25 8.5C13.56 8.5 13 9.06 13 9.75V14" stroke="#123275" stroke-linecap="round"/>
</svg>
