<svg width="24" height="24" viewBox="0 0 24 24" fill="none" xmlns="http://www.w3.org/2000/svg">
<path d="M10.05 10.6071L2.98001 17.6771C2.79405 17.8629 2.64654 18.0835 2.54589 18.3263C2.44524 18.569 2.39343 18.8293 2.39343 19.0921C2.39343 19.355 2.44524 19.6152 2.54589 19.858C2.64654 20.1008 2.79405 20.3214 2.98001 20.5071C3.35506 20.8821 3.86368 21.0927 4.39401 21.0927C4.92433 21.0927 5.43295 20.8821 5.80801 20.5071L12.878 13.4351M17.193 13.8001L21.071 17.6781C21.4459 18.0532 21.6566 18.5618 21.6566 19.0921C21.6566 19.6225 21.4459 20.1311 21.071 20.5061C20.6959 20.8811 20.1873 21.0917 19.657 21.0917C19.1267 21.0917 18.6181 20.8811 18.243 20.5061L12.034 14.2981M6.73301 5.90413L4.61001 6.61013L2.49001 3.07513L3.90401 1.66113L7.44001 3.78213L6.73301 5.90413ZM6.73301 5.90413L9.56301 8.73413" stroke="#123275" stroke-linecap="round" stroke-linejoin="round"/>
<path d="M10.05 10.607C9.20602 8.45396 9.37102 5.62896 11.111 3.88896C12.851 2.14896 16.061 1.76796 17.828 2.82896L14.788 5.86896L14.505 8.97996L17.616 8.69796L20.656 5.65696C21.718 7.42496 21.336 10.635 19.596 12.374C17.856 14.114 15.032 14.279 12.879 13.435" stroke="#123275" stroke-linecap="round" stroke-linejoin="round"/>
</svg>
