<svg width="24" height="24" viewBox="0 0 24 24" fill="none" xmlns="http://www.w3.org/2000/svg">
<path d="M6.99999 19.5C6.28866 19.5 5.69199 19.2434 5.20999 18.73C4.72866 18.2167 4.49599 17.5977 4.51199 16.873C3.96799 16.6037 3.54132 16.212 3.23199 15.698C2.92399 15.184 2.76999 14.618 2.76999 14C2.76999 13.2194 3.01465 12.5407 3.50399 11.964C3.99332 11.388 4.61799 11.018 5.37799 10.854L3.26899 8.74604L2.66199 9.35404C2.55532 9.46071 2.43066 9.52038 2.28799 9.53304C2.14599 9.54571 2.02165 9.49904 1.91499 9.39304C1.80832 9.28638 1.76166 9.16171 1.77499 9.01904C1.78832 8.87704 1.84799 8.75271 1.95399 8.64604L3.87699 6.72304C3.98366 6.61638 4.10799 6.55671 4.24999 6.54404C4.39199 6.53138 4.51632 6.57804 4.62299 6.68404C4.72966 6.79071 4.77632 6.91538 4.76299 7.05804C4.75032 7.20004 4.69099 7.32438 4.58499 7.43104L3.97699 8.03804L6.03099 10.092L6.98499 7.28104C7.13366 6.84371 7.39032 6.48238 7.75499 6.19704C8.11966 5.91171 8.53066 5.76904 8.98799 5.76904H14.935C15.3923 5.76904 15.8033 5.91171 16.168 6.19704C16.5327 6.48238 16.7893 6.84371 16.938 7.28104L18.135 10.792C19.0083 10.8347 19.7423 11.1617 20.337 11.773C20.933 12.3844 21.231 13.1267 21.231 14C21.231 14.618 21.0763 15.184 20.767 15.698C20.4583 16.212 20.032 16.6037 19.488 16.873C19.504 17.5977 19.271 18.2167 18.789 18.73C18.3077 19.2434 17.7113 19.5 17 19.5C16.3533 19.5 15.7953 19.2814 15.326 18.844C14.856 18.4067 14.596 17.869 14.546 17.231H9.45399C9.40399 17.869 9.14399 18.4067 8.67399 18.844C8.20466 19.2814 7.64666 19.5 6.99999 19.5ZM6.86199 10.77H11.462V6.77004H8.98799C8.74599 6.77004 8.52899 6.84504 8.33699 6.99504C8.14432 7.14571 8.00632 7.34238 7.92299 7.58504L6.86199 10.77ZM12.462 10.77H17.062L16 7.58404C15.9167 7.34138 15.779 7.14471 15.587 6.99404C15.3943 6.84338 15.177 6.76804 14.935 6.76804H12.462V10.77ZM9.37699 16.23H14.623C14.7883 15.72 15.09 15.3044 15.528 14.983C15.966 14.661 16.4567 14.5 17 14.5C17.4747 14.5 17.9093 14.62 18.304 14.86C18.6987 15.1 19.0077 15.426 19.231 15.838C19.5477 15.642 19.7933 15.3804 19.968 15.053C20.1433 14.7257 20.231 14.3747 20.231 14C20.231 13.386 20.0127 12.8607 19.576 12.424C19.1393 11.9874 18.614 11.7694 18 11.77H5.99999C5.38599 11.77 4.86065 11.9884 4.42399 12.425C3.98732 12.8617 3.76899 13.3867 3.76899 14C3.76899 14.3747 3.85666 14.7257 4.03199 15.053C4.20666 15.3804 4.45232 15.642 4.76899 15.838C4.97966 15.4127 5.28565 15.0834 5.68699 14.85C6.08765 14.6167 6.52532 14.5 6.99999 14.5C7.54332 14.5 8.03399 14.661 8.47199 14.983C8.90999 15.3044 9.21166 15.7204 9.37699 16.231M6.99999 18.5C7.41132 18.5 7.76432 18.353 8.05899 18.059C8.35299 17.7644 8.49999 17.4114 8.49999 17C8.49999 16.5887 8.35299 16.2357 8.05899 15.941C7.76432 15.647 7.41132 15.5 6.99999 15.5C6.58866 15.5 6.23566 15.647 5.94099 15.941C5.64699 16.2357 5.49999 16.5887 5.49999 17C5.49999 17.4114 5.64699 17.7644 5.94099 18.059C6.23566 18.353 6.58866 18.5 6.99999 18.5ZM17 18.5C17.4113 18.5 17.7643 18.353 18.059 18.059C18.353 17.7644 18.5 17.4114 18.5 17C18.5 16.5887 18.353 16.2357 18.059 15.941C17.7643 15.647 17.4113 15.5 17 15.5C16.5887 15.5 16.2357 15.647 15.941 15.941C15.647 16.2357 15.5 16.5887 15.5 17C15.5 17.4114 15.647 17.7644 15.941 18.059C16.2357 18.353 16.5887 18.5 17 18.5Z" fill="#123275"/>
</svg>
