<svg width="32" height="32" viewBox="0 0 32 32" fill="none" xmlns="http://www.w3.org/2000/svg">
<g filter="url(#filter0_d_5139_12467)">
<path d="M17.3888 1.99121C15.5325 1.99121 13.967 3.32776 13.967 5.03809C13.967 5.90199 14.3667 6.67027 15.0013 7.21932L15.3985 6.43791C15.0293 6.05345 14.8107 5.5629 14.8107 5.03809C14.8107 3.84887 15.9314 2.83496 17.3888 2.83496C18.8461 2.83496 19.9669 3.84887 19.9669 5.03809C19.9669 5.85385 19.4394 6.58712 18.6377 6.96718L18.287 7.97762C18.3756 7.95618 18.4633 7.93147 18.5501 7.90355L18.9794 8.65416C18.4954 8.99462 18.0269 9.41663 17.5247 9.94191L21.338 18.3509C23.6941 18.4596 25.9675 17.2102 27.1389 15.1629L22.0844 7.43621C21.1391 7.62498 20.3786 7.86062 19.6996 8.21424L19.3204 7.55124C20.2137 7.00679 20.8107 6.0939 20.8107 5.03813C20.8107 3.3278 19.2452 1.99126 17.3888 1.99126V1.99121ZM11.6389 2.26998C11.5142 2.27138 11.3832 2.29201 11.2567 2.33316C10.9675 2.4271 10.7228 2.6207 10.6164 2.82957L10.6029 2.85629L7.56055 7.18271C7.46047 7.3914 7.44889 7.69585 7.53913 7.97818C7.63147 8.26679 7.82249 8.5081 8.01735 8.60734L14.7524 12.0367C14.9433 12.134 15.2488 12.1494 15.5328 12.0567C15.8115 11.9658 16.0483 11.7809 16.1611 11.5649L17.3498 8.08398C17.3522 8.08398 17.3545 8.08412 17.3569 8.08416L17.6534 7.22963C17.6494 7.23001 17.6452 7.2301 17.6413 7.23048L17.8712 6.55712L17.8848 6.53049C17.9912 6.32162 18.0038 6.00924 17.9105 5.7204C17.8173 5.43155 17.6246 5.18813 17.4215 5.08468L15.9178 4.31907C15.6111 4.70241 15.517 5.25038 15.9016 5.7661L16.0005 5.93166L16.4827 6.18479L16.0957 6.94482L16.0889 6.94154L15.7084 7.69013C15.7105 7.69121 15.7126 7.69215 15.7147 7.69318L15.4192 8.2733L10.6572 5.84855L11.5294 4.13584L11.7207 3.7599L13.167 4.4964C13.2399 4.03655 13.3977 3.59415 13.6514 3.16496L12.0673 2.35848C11.9495 2.29848 11.7992 2.26824 11.6389 2.26998ZM21.8542 8.42841L22.9831 10.4825L19.6145 12.3336L18.6888 10.6494L18.4856 10.2796L21.8542 8.42846V8.42841ZM21.5211 9.57423L19.6315 10.6127L19.9475 11.1879L21.8372 10.1494L21.5211 9.57423ZM9.36721 10.2415L8.38892 12.1631L11.6471 13.8221L12.6255 11.9006L9.36721 10.2415ZM23.2991 11.0576L24.4279 13.1116L21.0593 14.9626L20.1337 13.2784L19.9306 12.9087L23.2992 11.0575L23.2991 11.0576ZM22.966 12.2034L21.0763 13.2418L21.3924 13.817L23.2821 12.7785L22.9661 12.2034H22.966ZM8.67439 13.2552H8.6743L4.86121 20.7438L5.14822 21.6264L8.76997 14.5138L9.52175 14.8966L5.9001 22.0092L6.94892 21.6682L7.5568 21.4705L7.22933 20.4601L8.23696 20.1334L7.90902 19.1252L8.91777 18.7972L8.66605 18.0235L10.5959 14.2336L8.67439 13.2552Z" fill="#123275"/>
</g>
<defs>
<filter id="filter0_d_5139_12467" x="0" y="0" width="32" height="32" filterUnits="userSpaceOnUse" color-interpolation-filters="sRGB">
<feFlood flood-opacity="0" result="BackgroundImageFix"/>
<feColorMatrix in="SourceAlpha" type="matrix" values="0 0 0 0 0 0 0 0 0 0 0 0 0 0 0 0 0 0 127 0" result="hardAlpha"/>
<feOffset dy="4"/>
<feGaussianBlur stdDeviation="2"/>
<feComposite in2="hardAlpha" operator="out"/>
<feColorMatrix type="matrix" values="0 0 0 0 0 0 0 0 0 0 0 0 0 0 0 0 0 0 0.25 0"/>
<feBlend mode="normal" in2="BackgroundImageFix" result="effect1_dropShadow_5139_12467"/>
<feBlend mode="normal" in="SourceGraphic" in2="effect1_dropShadow_5139_12467" result="shape"/>
</filter>
</defs>
</svg>
