<?xml version="1.0" standalone="no"?>
<!DOCTYPE svg PUBLIC "-//W3C//DTD SVG 20010904//EN"
	"http://www.w3.org/TR/2001/REC-SVG-20010904/DTD/svg10.dtd">
<svg version="1.0" xmlns="http://www.w3.org/2000/svg"
		 width="512.000000pt" height="512.000000pt" viewBox="0 0 512.000000 512.000000"
		 preserveAspectRatio="xMidYMid meet">

	<g transform="translate(0.000000,512.000000) scale(0.100000,-0.100000)"
		 fill="#000000" stroke="none">
		<path d="M1810 4800 l0 -160 155 0 155 0 0 160 0 160 -155 0 -155 0 0 -160z"/>
		<path d="M2262 4803 l3 -158 155 0 155 0 3 158 3 157 -161 0 -161 0 3 -157z"/>
		<path d="M2722 4769 l3 -151 190 -84 c104 -46 191 -84 193 -84 1 0 1 68 0 152
l-3 151 -190 84 c-104 46 -191 83 -193 83 -1 0 -1 -68 0 -151z"/>
		<path d="M4557 4862 c-15 -16 -17 -47 -17 -225 0 -131 -4 -207 -10 -207 -6 0
-10 -58 -10 -155 l0 -155 85 0 85 0 -1 123 c-1 67 -4 228 -8 358 -5 214 -8
239 -25 258 -24 26 -77 28 -99 3z"/>
		<path d="M577 4830 l-27 -21 0 -747 0 -746 -47 46 c-27 25 -58 51 -70 57 -40
21 -93 -15 -93 -63 0 -25 19 -50 123 -153 102 -102 128 -123 153 -123 24 0 50
21 152 123 103 103 122 127 122 153 0 31 -23 60 -50 64 -36 5 -54 -3 -100 -46
l-50 -47 0 692 0 691 395 0 c382 0 396 1 415 20 25 25 26 61 1 91 l-19 24
-439 3 c-434 3 -440 2 -466 -18z"/>
		<path d="M3250 4537 l0 -152 186 -80 c101 -44 189 -82 195 -83 6 -3 9 51 7
148 l-3 152 -178 78 c-98 43 -185 81 -193 84 -12 5 -14 -18 -14 -147z"/>
		<path d="M1810 4475 c0 -14 6 -25 13 -25 32 0 255 -21 275 -25 20 -5 22 -2 22
35 l0 40 -155 0 -155 0 0 -25z"/>
		<path d="M2260 4450 c0 -49 0 -49 38 -55 20 -4 92 -19 160 -34 l122 -28 0 84
0 83 -160 0 -160 0 0 -50z"/>
		<path d="M2720 4376 l0 -85 58 -16 c31 -9 116 -39 189 -66 72 -27 134 -49 137
-49 3 0 6 31 6 68 l0 68 -187 82 c-104 45 -191 82 -195 82 -5 0 -8 -38 -8 -84z"/>
		<path d="M3780 4302 l0 -148 189 -82 c103 -45 193 -82 200 -82 8 0 11 40 9
147 l-3 147 -185 83 c-102 45 -191 82 -197 82 -10 1 -13 -35 -13 -147z"/>
		<path d="M1475 4303 c-89 -8 -239 -34 -252 -44 -27 -23 -13 -57 55 -136 153
-177 291 -369 402 -558 56 -95 194 -371 247 -492 l32 -73 728 0 c704 0 729 -1
760 -20 41 -24 63 -68 70 -136 l6 -54 614 2 615 3 58 137 58 138 -46 21 c-43
19 -839 366 -1337 584 l-210 92 -63 111 -64 111 -130 51 c-358 141 -712 228
-1058 260 -106 9 -391 11 -485 3z m762 -194 c99 -37 150 -166 104 -264 -36
-78 -95 -115 -182 -115 -91 0 -163 56 -190 148 -24 80 21 180 99 222 41 21
124 26 169 9z m712 -190 c82 -46 112 -146 69 -229 -54 -105 -178 -129 -269
-53 -97 82 -68 251 51 296 36 13 113 6 149 -14z"/>
		<path d="M2113 3954 c-15 -24 -15 -29 -2 -53 29 -51 109 -33 109 24 0 56 -76
76 -107 29z"/>
		<path d="M2834 3785 c-14 -37 26 -69 53 -42 22 22 8 57 -23 57 -14 0 -27 -7
-30 -15z"/>
		<path d="M3250 4162 c0 -67 3 -75 56 -169 30 -54 60 -103 67 -110 7 -6 48 -27
92 -46 44 -19 101 -44 128 -56 l47 -20 0 152 0 152 -178 77 c-97 42 -185 80
-194 83 -16 6 -18 0 -18 -63z"/>
		<path d="M3782 3850 l3 -153 178 -78 c98 -43 187 -81 197 -84 19 -6 20 -1 20
143 l0 149 -187 83 c-104 45 -194 84 -201 87 -10 4 -12 -27 -10 -147z"/>
		<path d="M4320 3721 l0 -258 143 -63 c78 -34 148 -64 155 -67 9 -4 12 64 12
321 l0 326 -155 0 -155 0 0 -259z"/>
		<path d="M4770 3601 l0 -339 30 -11 30 -10 0 334 0 334 -30 16 -30 16 0 -340z"/>
		<path d="M240 2771 c-7 -13 -10 -258 -10 -725 l0 -706 1538 2 1537 3 3 699 c2
614 0 702 -13 723 l-15 23 -1515 0 c-1487 0 -1514 0 -1525 -19z m336 -216 l25
-25 -3 -471 -3 -471 -24 -19 c-30 -24 -52 -24 -85 2 l-26 20 0 475 c0 461 1
475 20 494 27 27 66 25 96 -5z m408 4 l26 -20 0 -470 0 -470 -25 -24 c-31 -32
-59 -32 -90 0 l-25 24 0 466 0 466 25 24 c30 30 54 31 89 4z m419 -17 c16 -14
17 -50 17 -493 l0 -478 -22 -15 c-31 -22 -71 -20 -94 5 -18 20 -19 45 -22 477
-2 316 1 465 8 483 20 47 72 57 113 21z m396 13 c16 -8 31 -25 35 -37 3 -13 6
-226 6 -474 0 -442 0 -452 -21 -478 -25 -32 -70 -35 -99 -6 -19 19 -20 33 -20
493 0 439 1 475 18 489 14 13 32 23 50 27 2 1 16 -6 31 -14z m434 -17 c16 -19
17 -57 17 -489 0 -456 -1 -470 -20 -489 -29 -29 -74 -26 -99 6 -21 26 -21 36
-21 486 0 306 4 466 11 479 22 42 79 45 112 7z m410 4 c16 -14 17 -50 17 -493
l0 -478 -22 -15 c-31 -22 -71 -20 -94 5 -18 20 -19 43 -19 491 l0 470 28 24
c31 26 57 25 90 -4z m420 -4 c16 -19 17 -57 17 -483 0 -453 0 -463 -21 -489
-25 -32 -70 -35 -99 -6 -19 19 -20 33 -20 493 0 439 1 475 18 489 36 32 74 31
105 -4z"/>
		<path d="M3910 2003 c-40 -15 -40 -21 -40 -515 l0 -478 -191 0 -190 0 24 -32
c65 -87 92 -184 84 -299 l-5 -79 157 0 158 0 -10 56 c-12 72 2 164 38 241 76
167 236 262 423 251 133 -8 266 -86 337 -199 l25 -39 120 0 120 0 0 60 0 60
-68 0 c-59 0 -72 3 -90 23 -29 30 -28 62 3 92 21 22 33 25 90 25 l65 0 0 158
0 159 -69 109 c-175 275 -240 370 -265 389 -26 19 -44 20 -364 22 -185 1 -344
-1 -352 -4z m740 -310 c52 -81 96 -153 98 -160 3 -10 -53 -13 -292 -13 l-296
0 0 160 0 160 198 0 197 0 95 -147z"/>
		<path d="M230 1135 l0 -55 89 0 c71 0 97 4 123 19 106 62 267 67 384 12 64
-30 71 -31 204 -31 127 0 142 2 187 24 63 32 122 45 199 46 65 0 175 -29 209
-54 17 -13 107 -15 658 -16 l638 0 47 24 c71 35 144 49 226 43 39 -3 81 -9 94
-13 21 -6 23 -4 20 22 l-3 29 -1537 3 -1538 2 0 -55z"/>
		<path d="M543 994 c-106 -39 -187 -156 -187 -273 0 -82 15 -128 64 -190 103
-130 296 -145 421 -33 68 61 91 110 97 203 4 66 1 84 -20 130 -34 73 -66 110
-129 144 -65 35 -178 44 -246 19z m142 -210 c10 -4 23 -21 30 -38 33 -79 -60
-142 -120 -81 -30 30 -32 64 -4 99 20 26 57 34 94 20z"/>
		<path d="M1319 996 c-127 -45 -198 -147 -199 -281 0 -235 258 -373 455 -243
59 39 101 101 121 178 35 136 -30 270 -161 332 -67 31 -152 37 -216 14z m151
-233 c50 -64 -18 -146 -95 -117 -24 10 -46 60 -39 89 14 58 97 75 134 28z"/>
		<path d="M3060 993 c-28 -10 -66 -37 -102 -73 -45 -45 -60 -69 -74 -115 -41
-144 21 -287 154 -352 79 -39 183 -39 258 0 183 94 219 330 72 476 -76 75
-202 101 -308 64z m160 -223 c30 -30 27 -83 -6 -109 -35 -28 -69 -26 -99 4
-31 30 -32 71 -3 102 27 29 80 31 108 3z"/>
		<path d="M4223 994 c-106 -39 -187 -156 -187 -273 0 -82 15 -128 64 -190 103
-130 296 -145 421 -33 68 61 91 110 97 203 4 66 1 84 -20 130 -34 73 -66 110
-129 144 -65 35 -178 44 -246 19z m142 -210 c10 -4 23 -21 30 -38 33 -79 -60
-142 -120 -81 -30 30 -32 64 -4 99 20 26 57 34 94 20z"/>
		<path d="M4760 708 c0 -35 -3 -73 -6 -85 -6 -22 -4 -23 65 -23 40 0 81 5 92
10 28 16 49 63 49 115 l0 45 -100 0 -100 0 0 -62z"/>
		<path d="M112 277 c-28 -30 -28 -68 1 -95 l23 -22 2425 0 2426 0 21 23 c28 30
28 68 -1 95 l-23 22 -2425 0 -2426 0 -21 -23z"/>
	</g>
</svg>
