<svg width="32" height="32" viewBox="0 0 32 32" fill="none" xmlns="http://www.w3.org/2000/svg">
	<rect opacity="0.1" width="32" height="32" rx="4" fill="#5ABF36"/>
	<path d="M26 25.25H6C5.59 25.25 5.25 25.59 5.25 26C5.25 26.41 5.59 26.75 6 26.75H26C26.41 26.75 26.75 26.41 26.75 26C26.75 25.59 26.41 25.25 26 25.25Z" fill="#5ABF36"/>
	<path d="M21 6H11C8 6 7 7.79 7 10V26H25V10C25 7.79 24 6 21 6ZM14 21.25H11C10.59 21.25 10.25 20.91 10.25 20.5C10.25 20.09 10.59 19.75 11 19.75H14C14.41 19.75 14.75 20.09 14.75 20.5C14.75 20.91 14.41 21.25 14 21.25ZM14 16.75H11C10.59 16.75 10.25 16.41 10.25 16C10.25 15.59 10.59 15.25 11 15.25H14C14.41 15.25 14.75 15.59 14.75 16C14.75 16.41 14.41 16.75 14 16.75ZM14 12.25H11C10.59 12.25 10.25 11.91 10.25 11.5C10.25 11.09 10.59 10.75 11 10.75H14C14.41 10.75 14.75 11.09 14.75 11.5C14.75 11.91 14.41 12.25 14 12.25ZM21 21.25H18C17.59 21.25 17.25 20.91 17.25 20.5C17.25 20.09 17.59 19.75 18 19.75H21C21.41 19.75 21.75 20.09 21.75 20.5C21.75 20.91 21.41 21.25 21 21.25ZM21 16.75H18C17.59 16.75 17.25 16.41 17.25 16C17.25 15.59 17.59 15.25 18 15.25H21C21.41 15.25 21.75 15.59 21.75 16C21.75 16.41 21.41 16.75 21 16.75ZM21 12.25H18C17.59 12.25 17.25 11.91 17.25 11.5C17.25 11.09 17.59 10.75 18 10.75H21C21.41 10.75 21.75 11.09 21.75 11.5C21.75 11.91 21.41 12.25 21 12.25Z" fill="#5ABF36"/>
</svg>
