<svg width="48" height="48" viewBox="0 0 48 48" fill="none" xmlns="http://www.w3.org/2000/svg">
<path d="M25.2198 4.57417C24.8813 4.2801 24.4481 4.11816 23.9998 4.11816C23.5514 4.11816 23.1182 4.2801 22.7798 4.57417C21.2595 5.89055 20.0316 7.51051 19.175 9.32988C18.3184 11.1492 17.8519 13.1277 17.8058 15.1382C17.8047 15.325 17.8563 15.5083 17.9546 15.6671C18.053 15.826 18.1941 15.9539 18.3618 16.0362C19.5781 16.6691 20.7188 17.438 21.7618 18.3282C22.2778 18.7662 22.7458 19.2242 23.1698 19.6902C23.6098 20.1742 24.3898 20.1742 24.8298 19.6902C25.2558 19.2242 25.7238 18.7662 26.2378 18.3302C27.2805 17.4397 28.4211 16.6707 29.6378 16.0382C29.8058 15.9561 29.9473 15.8284 30.046 15.6695C30.1447 15.5107 30.1966 15.3272 30.1958 15.1402C30.1498 13.1294 29.6836 11.1505 28.8269 9.33079C27.9703 7.51106 26.7422 5.89078 25.2218 4.57417H25.2198ZM23.9998 36.0862C25.6053 33.2596 28.0182 30.9767 30.9293 29.53C33.8404 28.0834 37.1172 27.5388 40.3398 27.9662C41.3158 28.0942 42.0458 28.9662 41.9698 29.9742C41.676 33.7907 39.9523 37.3556 37.1434 39.9561C34.3346 42.5566 30.6476 44.0009 26.8198 44.0002H21.1798C17.3523 44.0004 13.6658 42.5559 10.8573 39.9554C8.04891 37.355 6.32551 33.7903 6.03175 29.9742C5.9954 29.4946 6.14406 29.0193 6.44719 28.6458C6.75032 28.2724 7.18492 28.0292 7.66175 27.9662C10.8843 27.5386 14.1612 28.083 17.0724 29.5297C19.9835 30.9763 22.3964 33.2594 24.0018 36.0862H23.9998ZM39.2918 25.8602C35.5978 25.6562 31.9838 26.6202 29.0398 28.1902C27.2758 29.1302 25.6598 30.3402 24.3958 31.7322C24.3455 31.7872 24.2844 31.8312 24.2162 31.8613C24.148 31.8914 24.0743 31.9069 23.9998 31.9069C23.9252 31.9069 23.8515 31.8914 23.7833 31.8613C23.7151 31.8312 23.654 31.7872 23.6038 31.7322C22.3438 30.3382 20.7258 29.1302 18.9618 28.1902C16.0238 26.6242 12.4218 25.6622 8.73775 25.8602C7.27775 23.5602 6.27775 20.9202 6.03775 18.2602C6.01526 18.0087 6.04268 17.7552 6.11846 17.5144C6.19424 17.2735 6.31688 17.0501 6.47932 16.8568C6.64176 16.6635 6.8408 16.5042 7.06501 16.3881C7.28921 16.272 7.53415 16.2013 7.78575 16.1802C12.6958 15.7702 16.7938 16.7402 20.4698 19.8542C22.1298 21.2602 23.2418 22.9482 24.0018 24.3882C24.7598 22.9482 25.8738 21.2602 27.5318 19.8542C31.2118 16.7382 35.3378 15.7702 40.2438 16.1802C40.4955 16.2011 40.7407 16.2715 40.9651 16.3875C41.1896 16.5035 41.3888 16.6628 41.5515 16.8561C41.7141 17.0494 41.8369 17.273 41.9128 17.514C41.9887 17.7549 42.0162 18.0085 41.9938 18.2602C41.7518 20.9202 40.7498 23.5622 39.2918 25.8602Z" fill="#292D32"/>
</svg>
