<svg width="48" height="48" viewBox="0 0 48 48" fill="none" xmlns="http://www.w3.org/2000/svg">
<path d="M12.4973 3.13184L7.30258 4.42934L3.24414 13.9028L6.36508 15.984L8.93945 10.8371L10.5379 11.2965L9.12508 25.3684H22.9879L23.8504 17.1278L23.9348 16.3684H24.3566L23.8504 11.2965L25.4535 10.8371L28.0223 15.984L31.1441 13.9028L27.0848 4.42934L21.891 3.13184C21.3754 3.49465 20.7473 3.71402 20.0629 3.87715C19.1816 4.08434 18.1879 4.1809 17.1941 4.1809C16.2004 4.1809 15.2066 4.08434 14.3254 3.87715C13.641 3.71402 13.0129 3.49559 12.4973 3.13184ZM25.4535 18.0559L25.3129 19.3684H42.0754L41.9348 18.0559H25.4535ZM25.1348 21.0559L22.6316 44.8684H28.5098L32.8691 24.534H34.5191L38.8785 44.8684H44.7566L42.2535 21.0559H25.1348Z" fill="#292D32"/>
</svg>
