<svg width="48" height="48" viewBox="0 0 48 48" fill="none" xmlns="http://www.w3.org/2000/svg">
<mask id="mask0_548_130" style="mask-type:luminance" maskUnits="userSpaceOnUse" x="2" y="7" width="44" height="34">
<path d="M20 9H39.698C40.2478 8.99993 40.7916 9.11318 41.2957 9.3327C41.7997 9.55222 42.2531 9.87328 42.6275 10.2758C43.0019 10.6784 43.2893 11.1538 43.4718 11.6724C43.6543 12.191 43.7279 12.7417 43.688 13.29L43.104 21.29C43.0307 22.2981 42.5785 23.2411 41.8383 23.9293C41.0981 24.6176 40.1248 25.0001 39.114 25H20V9Z" fill="white"/>
<path fill-rule="evenodd" clip-rule="evenodd" d="M18 9C18 7.89543 18.8954 7 20 7H39.6977C39.6978 7 39.6976 7 39.6977 7C40.5223 6.99993 41.3383 7.16981 42.0943 7.49905C42.8503 7.82832 43.5304 8.30991 44.092 8.91376C44.6536 9.5176 45.0847 10.2307 45.3584 11.0086C45.6321 11.7865 45.7425 12.6125 45.6827 13.435L45.0987 21.435C44.9888 22.9471 44.3105 24.3616 43.2002 25.394C42.0899 26.4264 40.63 27.0001 39.114 27C39.1139 27 39.1141 27 39.114 27H20C18.8954 27 18 26.1046 18 25V9ZM22 11V23H39.114C39.6194 23.0001 40.1063 22.8088 40.4764 22.4647C40.8465 22.1205 41.0726 21.649 41.1093 21.145L41.6933 13.145C41.7132 12.8708 41.6764 12.5955 41.5852 12.3362C41.4939 12.0769 41.3502 11.8392 41.163 11.6379C40.9758 11.4366 40.7491 11.2761 40.4971 11.1663C40.2451 11.0566 39.9731 11 39.6983 11H22Z" fill="white"/>
<path fill-rule="evenodd" clip-rule="evenodd" d="M28.21 24.3168C28.4973 23.5263 29.2485 23 30.0896 23H38.9996C39.6521 23 40.2635 23.3182 40.6378 23.8526C41.0121 24.387 41.1022 25.0704 40.8792 25.6835L36.7903 36.9272C36.7903 36.9273 36.7904 36.9271 36.7903 36.9272C36.3565 38.1206 35.5658 39.1519 34.5258 39.8804C33.4857 40.6091 32.2466 40.9999 30.9767 41C26.6839 41 23.6959 36.7341 25.163 32.6998C25.163 32.6996 25.1629 32.6999 25.163 32.6998L28.21 24.3168ZM31.4907 27L28.9223 34.0662C28.4038 35.4918 29.4596 36.9999 30.9766 37M31.4907 27H36.1442L33.0311 35.5605C32.8778 35.9822 32.5983 36.3469 32.2307 36.6044C31.8632 36.8618 31.4253 37 30.9766 37" fill="white"/>
<path d="M14 12H20V22H14V12Z" fill="white"/>
<path fill-rule="evenodd" clip-rule="evenodd" d="M12 12C12 10.8954 12.8954 10 14 10H20C21.1046 10 22 10.8954 22 12V22C22 23.1046 21.1046 24 20 24H14C12.8954 24 12 23.1046 12 22V12ZM16 14V20H18V14H16Z" fill="white"/>
<path fill-rule="evenodd" clip-rule="evenodd" d="M2 17C2 15.8954 2.89543 15 4 15H14C15.1046 15 16 15.8954 16 17C16 18.1046 15.1046 19 14 19H4C2.89543 19 2 18.1046 2 17Z" fill="white"/>
</mask>
<g mask="url(#mask0_548_130)">
<path d="M0 0H48V48H0V0Z" fill="#292D32"/>
</g>
</svg>
