<svg width="48" height="48" viewBox="0 0 48 48" fill="none" xmlns="http://www.w3.org/2000/svg">
<path d="M9 10.5C9 8.568 10.568 7 12.5 7H17.5C19.432 7 21 8.568 21 10.5V15.5C21 16.4283 20.6313 17.3185 19.9749 17.9749C19.3185 18.6313 18.4283 19 17.5 19H12.5C11.5717 19 10.6815 18.6313 10.0251 17.9749C9.36875 17.3185 9 16.4283 9 15.5V10.5ZM30.5 7C29.5717 7 28.6815 7.36875 28.0251 8.02513C27.3687 8.6815 27 9.57174 27 10.5V15.5C27 17.432 28.568 19 30.5 19H35.5C36.4283 19 37.3185 18.6313 37.9749 17.9749C38.6312 17.3185 39 16.4283 39 15.5V10.5C39 9.57174 38.6312 8.6815 37.9749 8.02513C37.3185 7.36875 36.4283 7 35.5 7H30.5ZM30 10.5C30 10.3674 30.0527 10.2402 30.1464 10.1464C30.2402 10.0527 30.3674 10 30.5 10H35.5C35.6326 10 35.7598 10.0527 35.8536 10.1464C35.9473 10.2402 36 10.3674 36 10.5V15.5C36 15.6326 35.9473 15.7598 35.8536 15.8536C35.7598 15.9473 35.6326 16 35.5 16H30.5C30.3674 16 30.2402 15.9473 30.1464 15.8536C30.0527 15.7598 30 15.6326 30 15.5V10.5ZM4 32C4 29.6131 4.94821 27.3239 6.63604 25.636C8.32387 23.9482 10.6131 23 13 23H35C37.3869 23 39.6761 23.9482 41.364 25.636C43.0518 27.3239 44 29.6131 44 32C44 34.3869 43.0518 36.6761 41.364 38.364C39.6761 40.0518 37.3869 41 35 41H13C10.6131 41 8.32387 40.0518 6.63604 38.364C4.94821 36.6761 4 34.3869 4 32ZM17 32C17 31.606 16.9224 31.2159 16.7716 30.8519C16.6209 30.488 16.3999 30.1573 16.1213 29.8787C15.8427 29.6001 15.512 29.3791 15.1481 29.2284C14.7841 29.0776 14.394 29 14 29C13.606 29 13.2159 29.0776 12.8519 29.2284C12.488 29.3791 12.1573 29.6001 11.8787 29.8787C11.6001 30.1573 11.3791 30.488 11.2284 30.8519C11.0776 31.2159 11 31.606 11 32C11 32.7956 11.3161 33.5587 11.8787 34.1213C12.4413 34.6839 13.2044 35 14 35C14.7956 35 15.5587 34.6839 16.1213 34.1213C16.6839 33.5587 17 32.7956 17 32ZM27 32C27 31.2044 26.6839 30.4413 26.1213 29.8787C25.5587 29.3161 24.7956 29 24 29C23.2044 29 22.4413 29.3161 21.8787 29.8787C21.3161 30.4413 21 31.2044 21 32C21 32.7956 21.3161 33.5587 21.8787 34.1213C22.4413 34.6839 23.2044 35 24 35C24.7956 35 25.5587 34.6839 26.1213 34.1213C26.6839 33.5587 27 32.7956 27 32ZM34 35C34.7956 35 35.5587 34.6839 36.1213 34.1213C36.6839 33.5587 37 32.7956 37 32C37 31.2044 36.6839 30.4413 36.1213 29.8787C35.5587 29.3161 34.7956 29 34 29C33.2044 29 32.4413 29.3161 31.8787 29.8787C31.3161 30.4413 31 31.2044 31 32C31 32.7956 31.3161 33.5587 31.8787 34.1213C32.4413 34.6839 33.2044 35 34 35Z" fill="#292D32"/>
</svg>
