<svg width="48" height="48" viewBox="0 0 48 48" fill="none" xmlns="http://www.w3.org/2000/svg">
<path d="M17.502 3C17.1042 3 16.7226 3.15804 16.4413 3.43934C16.16 3.72064 16.002 4.10218 16.002 4.5C16.002 4.89782 16.16 5.27936 16.4413 5.56066C16.7226 5.84196 17.1042 6 17.502 6H18V9H15C13.4087 9 11.8826 9.63214 10.7574 10.7574C9.63214 11.8826 9 13.4087 9 15V36C9 37.5913 9.63214 39.1174 10.7574 40.2426C11.8826 41.3679 13.4087 42 15 42V43.5C15 43.8978 15.158 44.2794 15.4393 44.5607C15.7206 44.842 16.1022 45 16.5 45C16.8978 45 17.2794 44.842 17.5607 44.5607C17.842 44.2794 18 43.8978 18 43.5V42H30V43.5C30 43.8978 30.158 44.2794 30.4393 44.5607C30.7206 44.842 31.1022 45 31.5 45C31.8978 45 32.2794 44.842 32.5607 44.5607C32.842 44.2794 33 43.8978 33 43.5V42C34.5913 42 36.1174 41.3679 37.2426 40.2426C38.3679 39.1174 39 37.5913 39 36V15C39 13.4087 38.3679 11.8826 37.2426 10.7574C36.1174 9.63214 34.5913 9 33 9H30V6H30.501C30.8988 6 31.2804 5.84196 31.5617 5.56066C31.843 5.27936 32.001 4.89782 32.001 4.5C32.001 4.10218 31.843 3.72064 31.5617 3.43934C31.2804 3.15804 30.8988 3 30.501 3H17.502ZM21 9V6H27V9H21ZM15 19.5C15 19.1022 15.158 18.7206 15.4393 18.4393C15.7206 18.158 16.1022 18 16.5 18H31.5C31.8978 18 32.2794 18.158 32.5607 18.4393C32.842 18.7206 33 19.1022 33 19.5C33 19.8978 32.842 20.2794 32.5607 20.5607C32.2794 20.842 31.8978 21 31.5 21H16.5C16.1022 21 15.7206 20.842 15.4393 20.5607C15.158 20.2794 15 19.8978 15 19.5Z" fill="#292D32"/>
</svg>
