<svg width="48" height="48" viewBox="0 0 48 48" fill="none" xmlns="http://www.w3.org/2000/svg">
<path d="M24.6931 46.0441L22.6959 33.7506L21.4663 45.7363L17.3171 43.4307L21.9131 27.5919L25.7683 33.9041L27.6119 42.5096L24.6931 46.0441ZM10.2846 45.6803L9.55149 43.0691L6.94749 42.2233L9.55731 41.4896L10.4029 38.8848L11.137 41.4953L13.7416 42.3419L11.1313 43.075L10.2846 45.6803ZM15.9977 40.4794L13.2818 40.2692L7.2668 30.3889L6.87793 22.6161L14.2338 25.4605L19.0245 31.8323L17.4872 37.7341L11.5711 29.9485L15.9979 40.4794H15.9977ZM29.6536 37.7836L28.058 37.5841L27.2604 33.4944L25.9217 30.9843L34.5273 22.3787L37.4477 23.2998L36.2181 30.2152L29.6537 37.7835L29.6536 37.7836ZM31.3738 33.856L33.9303 30.8072L34.866 26.9707L32.5051 30.0195L31.3738 33.856ZM19.6628 30.2555L16.0509 25.4161L18.1256 15.1951L25.3487 6.28393L31.2647 14.274L30.6507 24.1866L25.1183 29.8716L21.5839 24.4929L19.6627 30.2555H19.6628ZM24.0991 25.8258L26.6472 16.9571L28.9664 14.8141L26.3386 15.1751L25.2949 11.1176L24.6801 15.1751L20.429 15.6922L24.6579 17.2081L24.0992 25.8256L24.0991 25.8258ZM14.9821 23.9764L12.3687 19.8264L13.2912 11.0689L16.2108 16.9082L14.982 23.9765L14.9821 23.9764ZM36.7562 21.8708L35.8309 18.5731L32.5425 17.5051L35.8381 16.5781L36.9062 13.2898L37.833 16.586L41.1213 17.655L37.8257 18.5803L36.7561 21.8709L36.7562 21.8708ZM16.7031 12.6886L15.5459 8.56459L11.4325 7.22865L15.5552 6.06943L16.8909 1.95605L18.0503 6.0788L22.1628 7.41596L18.0408 8.57377L16.7031 12.6886Z" fill="#292D32"/>
</svg>
