<svg width="48" height="48" viewBox="0 0 48 48" fill="none" xmlns="http://www.w3.org/2000/svg">
<g clip-path="url(#clip0_548_174)">
<path d="M43.997 1.80957L46.1908 4.00332C48.5345 6.34707 48.5345 10.1439 46.1908 12.4877L40.9033 17.7752L30.2158 7.09707L35.5033 1.80957C37.847 -0.53418 41.6439 -0.53418 43.9877 1.80957H43.997ZM4.20953 33.1127L28.097 9.21582L38.7845 19.9033L14.8877 43.7908C14.2595 44.4189 13.472 44.8783 12.6189 45.1221L2.86891 47.9064C2.08141 48.1314 1.23766 47.9158 0.656406 47.3346C0.0751564 46.7533 -0.140469 45.9096 0.0845314 45.1221L2.86891 35.3721C3.11266 34.5096 3.57203 33.7314 4.20016 33.1033L4.20953 33.1127ZM23.3814 9.69395L9.69391 23.3814L1.50016 15.1783C-0.252969 13.4252 -0.252969 10.5752 1.50016 8.8127L8.82203 1.5002C10.5752 -0.25293 13.4252 -0.25293 15.1877 1.5002L17.0439 3.35645C17.0158 3.38457 16.9783 3.4127 16.9502 3.44082L10.9502 9.44082C10.3689 10.0221 10.3689 10.9783 10.9502 11.5596C11.5314 12.1408 12.4877 12.1408 13.0689 11.5596L19.0689 5.55957C19.097 5.53145 19.1252 5.49395 19.1533 5.46582L23.3814 9.69395ZM38.3064 24.6189L42.5345 28.8471C42.5064 28.8752 42.4689 28.9033 42.4408 28.9314L36.4408 34.9314C35.8595 35.5127 35.8595 36.4689 36.4408 37.0502C37.022 37.6314 37.9783 37.6314 38.5595 37.0502L44.5595 31.0502C44.5877 31.0221 44.6158 30.9846 44.6439 30.9564L46.5002 32.8221C48.2533 34.5752 48.2533 37.4252 46.5002 39.1877L39.1783 46.5002C37.4252 48.2533 34.5752 48.2533 32.8127 46.5002L24.6189 38.3064L38.3064 24.6189Z" fill="#292D32"/>
</g>
<defs>
<clipPath id="clip0_548_174">
<rect width="48" height="48" fill="white"/>
</clipPath>
</defs>
</svg>
