<svg width="48" height="48" viewBox="0 0 48 48" fill="none" xmlns="http://www.w3.org/2000/svg">
<path d="M18.4 18.4L22.85 11.05L19.9 6.15C19.5 5.48333 18.9253 5.15 18.176 5.15C17.4267 5.15 16.8513 5.48333 16.45 6.15L11.55 14.3L18.4 18.4ZM37.75 32L33.3 24.6L40.25 20.6L43.45 25.95C43.8167 26.5167 44.0167 27.15 44.05 27.85C44.0833 28.55 43.9333 29.2 43.6 29.8C43.2667 30.4667 42.7747 31 42.124 31.4C41.4733 31.8 40.7653 32 40 32H37.75ZM32 46L24 38L32 30V34H41.5L38.6 39.8C38.2333 40.4667 37.7333 41 37.1 41.4C36.4667 41.8 35.7667 42 35 42H32V46ZM12.65 42C11.9833 42 11.3747 41.8247 10.824 41.474C10.2733 41.1233 9.86533 40.6653 9.6 40.1C9.33333 39.5667 9.20867 39.008 9.226 38.424C9.24333 37.84 9.40133 37.2987 9.7 36.8L11.4 34H20V42H12.65ZM7.7 36.3L4.45 29.8C4.15 29.2 4.008 28.558 4.024 27.874C4.04 27.19 4.232 26.5487 4.6 25.95L5.4 24.6L2 22.55L12.95 19.8L15.7 30.8L12.25 28.7L7.7 36.3ZM34.7 19.2L23.75 16.45L27.2 14.4L20.95 4H28C28.7 4 29.3587 4.17533 29.976 4.526C30.5933 4.87667 31.0847 5.35133 31.45 5.95L34.05 10.3L37.45 8.2L34.7 19.2Z" fill="#292D32"/>
</svg>
