<svg width="48" height="48" viewBox="0 0 48 48" fill="none" xmlns="http://www.w3.org/2000/svg">
<path d="M4.7998 12.0002C4.7998 10.7272 5.30552 9.50626 6.20569 8.60608C7.10587 7.70591 8.32677 7.2002 9.5998 7.2002H28.7998C30.0728 7.2002 31.2937 7.70591 32.1939 8.60608C33.0941 9.50626 33.5998 10.7272 33.5998 12.0002V26.4002C33.5998 27.6732 33.0941 28.8941 32.1939 29.7943C31.2937 30.6945 30.0728 31.2002 28.7998 31.2002H9.5998C8.32677 31.2002 7.10587 30.6945 6.20569 29.7943C5.30552 28.8941 4.7998 27.6732 4.7998 26.4002V12.0002ZM35.9998 25.5938V12.797L41.4118 9.74899C41.5944 9.64634 41.8008 9.59329 42.0102 9.59511C42.2197 9.59693 42.4251 9.65357 42.6059 9.75939C42.7867 9.8652 42.9367 10.0165 43.0409 10.1983C43.1451 10.38 43.1999 10.5859 43.1998 10.7954V27.6002C43.1997 27.8098 43.1446 28.0158 43.0401 28.1976C42.9357 28.3793 42.7854 28.5305 42.6043 28.6361C42.4232 28.7417 42.2176 28.798 42.0079 28.7995C41.7983 28.8009 41.5919 28.7473 41.4094 28.6442L35.9998 25.5962V25.5938ZM16.7998 33.0002H23.9998V34.2002C23.9998 36.5871 23.0516 38.8763 21.3638 40.5642C19.6759 42.252 17.3868 43.2002 14.9998 43.2002H8.3998C8.08155 43.2002 7.77632 43.0738 7.55128 42.8487C7.32623 42.6237 7.1998 42.3185 7.1998 42.0002V37.8002C7.1998 37.4819 7.32623 37.1767 7.55128 36.9517C7.77632 36.7266 8.08155 36.6002 8.3998 36.6002H14.9998C15.4772 36.6002 15.935 36.4106 16.2726 36.073C16.6102 35.7354 16.7998 35.2776 16.7998 34.8002V33.0002Z" fill="#292D32"/>
</svg>
