<svg width="48" height="48" viewBox="0 0 48 48" fill="none" xmlns="http://www.w3.org/2000/svg">
<path d="M32.69 17.8598L33.378 12.1798C33.538 10.8558 33.618 10.1958 33.48 9.64585C33.3059 8.92624 32.8582 8.3028 32.232 7.90785C31.772 7.62385 31.152 7.53785 29.918 7.36785C28.682 7.19385 28.064 7.10785 27.55 7.25785C26.866 7.45585 26.282 7.93785 25.93 8.59385C25.664 9.08785 25.498 10.4598 25.338 11.7838L13.074 10.0778C13.234 8.75385 13.402 7.38185 13.262 6.83185C13.0874 6.11297 12.6398 5.49032 12.014 5.09585C11.554 4.81185 10.934 4.72585 9.69999 4.55385C8.46399 4.38185 7.84599 4.29385 7.33399 4.44385C6.64799 4.64185 6.06599 5.12385 5.71199 5.78185C5.44599 6.27585 5.36599 6.93585 5.20599 8.26185L4.51799 13.9418C4.35799 15.2618 4.27799 15.9258 4.41399 16.4758C4.59999 17.2078 5.04799 17.8338 5.66399 18.2118C6.12399 18.4958 6.74399 18.5818 7.97799 18.7518C9.21399 18.9258 9.82999 19.0118 10.344 18.8638C11.028 18.6638 11.612 18.1838 11.964 17.5258C12.23 17.0318 12.398 15.6598 12.558 14.3378L24.82 16.0438C24.66 17.3658 24.494 18.7378 24.632 19.2878C24.816 20.0218 25.266 20.6478 25.88 21.0258C26.342 21.3098 26.96 21.3958 28.196 21.5658C29.43 21.7398 30.048 21.8258 30.562 21.6758C31.246 21.4778 31.83 20.9958 32.182 20.3398C32.448 19.8458 32.53 19.1838 32.69 17.8598ZM15.522 39.8498L14.14 34.3198C13.818 33.0318 13.656 32.3858 13.726 31.8218C13.818 31.0678 14.186 30.3858 14.75 29.9218C15.17 29.5758 15.772 29.4038 16.976 29.0578C18.18 28.7138 18.782 28.5398 19.308 28.6158C20.012 28.7158 20.648 29.1078 21.08 29.7118C21.404 30.1638 21.74 31.4998 22.06 32.7878L34.006 29.3598C33.684 28.0698 33.35 26.7338 33.418 26.1698C33.5041 25.429 33.8705 24.7492 34.442 24.2698C34.864 23.9238 35.466 23.7518 36.67 23.4058C37.872 23.0618 38.474 22.8878 39.002 22.9638C39.704 23.0638 40.342 23.4558 40.774 24.0598C41.098 24.5118 41.258 25.1558 41.582 26.4438L42.966 31.9778C43.286 33.2658 43.448 33.9098 43.38 34.4758C43.286 35.2278 42.92 35.9118 42.356 36.3738C41.936 36.7198 41.332 36.8938 40.13 37.2378C38.926 37.5838 38.324 37.7578 37.796 37.6818C37.4417 37.6289 37.1019 37.5045 36.7973 37.3161C36.4927 37.1276 36.2295 36.8792 36.024 36.5858C35.7 36.1338 35.366 34.7978 35.044 33.5098L23.1 36.9378C23.42 38.2258 23.756 39.5618 23.686 40.1278C23.594 40.8798 23.226 41.5638 22.664 42.0258C22.242 42.3718 21.64 42.5458 20.436 42.8898C19.234 43.2358 18.632 43.4098 18.104 43.3338C17.7498 43.2808 17.41 43.1563 17.1054 42.9679C16.8008 42.7795 16.5376 42.5311 16.332 42.2378C16.008 41.7858 15.846 41.1418 15.524 39.8538L15.522 39.8498Z" fill="#292D32"/>
</svg>
