<svg width="48" height="48" viewBox="0 0 48 48" fill="none" xmlns="http://www.w3.org/2000/svg">
<path d="M26.7779 3.98242C23.0652 3.98242 19.9342 6.65552 19.9342 10.0762C19.9342 11.804 20.7337 13.3405 22.0028 14.4386L22.7972 12.8758C22.0588 12.1069 21.6216 11.1258 21.6216 10.0762C21.6216 7.69773 23.8631 5.66992 26.7778 5.66992C29.6925 5.66992 31.9341 7.69773 31.9341 10.0762C31.9341 11.7077 30.8791 13.1742 29.2757 13.9344L28.5742 15.9552C28.7514 15.9124 28.9269 15.8629 29.1005 15.8071L29.959 17.3083C28.991 17.9892 28.054 18.8333 27.0496 19.8838L34.6762 36.7018C39.3885 36.9191 43.9353 34.4204 46.2781 30.3259L36.169 14.8724C34.2785 15.25 32.7575 15.7212 31.3995 16.4285L30.6411 15.1025C32.4277 14.0136 33.6217 12.1878 33.6217 10.0763C33.6217 6.65561 30.4906 3.98252 26.7779 3.98252V3.98242ZM15.278 4.53995C15.0286 4.54277 14.7667 4.58402 14.5137 4.66633C13.9353 4.8542 13.4459 5.24139 13.2331 5.65914L13.2061 5.71258L7.12134 14.3654C6.92119 14.7828 6.89803 15.3917 7.0785 15.9564C7.26319 16.5336 7.64522 17.0162 8.03494 17.2147L21.5051 24.0734C21.8869 24.268 22.4979 24.2989 23.0659 24.1135C23.6232 23.9316 24.0967 23.5617 24.3224 23.1298L26.6999 16.168C26.7046 16.168 26.7093 16.1682 26.714 16.1683L27.3071 14.4593C27.2991 14.46 27.2907 14.4602 27.2827 14.461L27.7426 13.1142L27.7698 13.061C27.9826 12.6432 28.0079 12.0185 27.8213 11.4408C27.6348 10.8631 27.2495 10.3763 26.8432 10.1694L23.8358 8.63814C23.2224 9.40483 23.0343 10.5008 23.8034 11.5322L24.0012 11.8633L24.9657 12.3696L24.1917 13.8896L24.178 13.8831L23.417 15.3803C23.4212 15.3824 23.4254 15.3843 23.4296 15.3864L22.8387 16.5466L13.3147 11.6971L15.059 8.27167L15.4417 7.5198L18.3342 8.9928C18.4801 8.07311 18.7957 7.1883 19.3031 6.32992L16.1349 4.71695C15.8992 4.59695 15.5986 4.53648 15.278 4.53995ZM35.7087 16.8568L37.9664 20.965L31.2292 24.6671L29.3778 21.2987L28.9715 20.5593L35.7087 16.8569V16.8568ZM35.0425 19.1485L31.2633 21.2254L31.8953 22.3757L35.6746 20.2988L35.0425 19.1485ZM10.7347 20.4831L8.77809 24.3262L15.2945 27.6442L17.2513 23.8012L10.7347 20.4831ZM38.5985 22.1153L40.856 26.2231L34.1188 29.9253L32.2677 26.5569L31.8614 25.8175L38.5987 22.1151L38.5985 22.1153ZM37.9323 24.4067L34.1528 26.4836L34.7851 27.634L38.5644 25.557L37.9324 24.4067H37.9323ZM9.34903 26.5105H9.34884L1.72266 41.4876L2.29669 43.2529L9.54019 29.0275L11.0437 29.7933L3.80044 44.0185L5.89809 43.3364L7.11384 42.9411L6.45891 40.9202L8.47416 40.2668L7.81828 38.2504L9.83578 37.5943L9.33234 36.0471L13.192 28.4672L9.34903 26.5105Z" fill="#292D32"/>
</svg>
