<svg width="68" height="68" viewBox="0 0 68 68" fill="none" xmlns="http://www.w3.org/2000/svg">
	<g filter="url(#filter0_d_32_682)">
		<rect x="4" width="60" height="60" rx="4" fill="white"/>
	</g>
	<path d="M31.32 45H38.76V16.68H33.4C33.16 17.5067 32.8533 18.2133 32.48 18.8C32.1067 19.36 31.6267 19.8133 31.04 20.16C30.4533 20.48 29.7467 20.72 28.92 20.88C28.0933 21.0133 27.1067 21.08 25.96 21.08V25.72H31.32V45Z" fill="#005DFF"/>
	<path d="M31.32 45H30.32V46H31.32V45ZM38.76 45V46H39.76V45H38.76ZM38.76 16.68H39.76V15.68H38.76V16.68ZM33.4 16.68V15.68H32.649L32.4397 16.4012L33.4 16.68ZM32.48 18.8L33.3121 19.3547L33.318 19.3458L33.3237 19.3369L32.48 18.8ZM31.04 20.16L31.5189 21.0379L31.5339 21.0297L31.5487 21.0209L31.04 20.16ZM28.92 20.88L29.0792 21.8672L29.0947 21.8647L29.11 21.8618L28.92 20.88ZM25.96 21.08V20.08H24.96V21.08H25.96ZM25.96 25.72H24.96V26.72H25.96V25.72ZM31.32 25.72H32.32V24.72H31.32V25.72ZM31.32 46H38.76V44H31.32V46ZM39.76 45V16.68H37.76V45H39.76ZM38.76 15.68H33.4V17.68H38.76V15.68ZM32.4397 16.4012C32.2201 17.1574 31.9483 17.7729 31.6363 18.2631L33.3237 19.3369C33.7583 18.6538 34.0999 17.8559 34.3603 16.9588L32.4397 16.4012ZM31.6479 18.2453C31.3591 18.6786 30.9902 19.0279 30.5313 19.2991L31.5487 21.0209C32.2631 20.5988 32.8543 20.0414 33.3121 19.3547L31.6479 18.2453ZM30.5611 19.2821C30.0848 19.5419 29.4806 19.7529 28.73 19.8982L29.11 21.8618C30.0127 21.6871 30.8219 21.4181 31.5189 21.0379L30.5611 19.2821ZM28.7608 19.8928C28.002 20.0151 27.0713 20.08 25.96 20.08V22.08C27.142 22.08 28.1847 22.0115 29.0792 21.8672L28.7608 19.8928ZM24.96 21.08V25.72H26.96V21.08H24.96ZM25.96 26.72H31.32V24.72H25.96V26.72ZM30.32 25.72V45H32.32V25.72H30.32Z" fill="#005DFF"/>
	<defs>
		<filter id="filter0_d_32_682" x="0" y="0" width="68" height="68" filterUnits="userSpaceOnUse" color-interpolation-filters="sRGB">
			<feFlood flood-opacity="0" result="BackgroundImageFix"/>
			<feColorMatrix in="SourceAlpha" type="matrix" values="0 0 0 0 0 0 0 0 0 0 0 0 0 0 0 0 0 0 127 0" result="hardAlpha"/>
			<feOffset dy="4"/>
			<feGaussianBlur stdDeviation="2"/>
			<feComposite in2="hardAlpha" operator="out"/>
			<feColorMatrix type="matrix" values="0 0 0 0 0 0 0 0 0 0 0 0 0 0 0 0 0 0 0.1 0"/>
			<feBlend mode="normal" in2="BackgroundImageFix" result="effect1_dropShadow_32_682"/>
			<feBlend mode="normal" in="SourceGraphic" in2="effect1_dropShadow_32_682" result="shape"/>
		</filter>
	</defs>
</svg>

