<svg width="68" height="68" viewBox="0 0 68 68" fill="none" xmlns="http://www.w3.org/2000/svg">
	<g filter="url(#filter0_d_32_692)">
		<rect x="4" width="60" height="60" rx="4" fill="white"/>
	</g>
	<path d="M25.08 25.24H31.8C31.8 23.7467 31.9467 22.72 32.24 22.16C32.56 21.6 33.08 21.32 33.8 21.32C34.44 21.32 34.9067 21.5333 35.2 21.96C35.52 22.36 35.68 23.16 35.68 24.36C35.68 25.1867 35.6133 25.8667 35.48 26.4C35.3467 26.9067 35.1467 27.3067 34.88 27.6C34.6133 27.8933 34.28 28.0933 33.88 28.2C33.48 28.3067 33 28.36 32.44 28.36H31.36V33H33.24C34.1733 33 34.8533 33.24 35.28 33.72C35.7333 34.2 35.96 35.1333 35.96 36.52C35.96 37.4 35.9333 38.1333 35.88 38.72C35.8267 39.28 35.72 39.7333 35.56 40.08C35.4267 40.4 35.2267 40.6267 34.96 40.76C34.6933 40.8667 34.3467 40.92 33.92 40.92C33.12 40.92 32.56 40.5733 32.24 39.88C32.08 39.5067 31.9467 39.0533 31.84 38.52C31.76 37.9867 31.72 37.32 31.72 36.52H24.76C24.76 38.2267 24.9467 39.6667 25.32 40.84C25.6933 41.9867 26.2667 42.9067 27.04 43.6C27.8133 44.2933 28.7867 44.7733 29.96 45.04C31.16 45.3067 32.56 45.44 34.16 45.44C37.2267 45.44 39.5333 44.7467 41.08 43.36C42.6267 41.9467 43.4 39.64 43.4 36.44C43.4 34.8933 43.0667 33.56 42.4 32.44C41.7333 31.2933 40.5733 30.56 38.92 30.24V30.16C39.6667 30 40.2933 29.72 40.8 29.32C41.3067 28.92 41.7067 28.4667 42 27.96C42.32 27.4267 42.5467 26.8667 42.68 26.28C42.8133 25.6667 42.88 25.08 42.88 24.52C42.88 23.2667 42.7333 22.16 42.44 21.2C42.1733 20.2133 41.6933 19.3867 41 18.72C40.3333 18.0533 39.4267 17.5467 38.28 17.2C37.1333 16.8533 35.6933 16.68 33.96 16.68C31.0533 16.68 28.8667 17.3733 27.4 18.76C25.9333 20.12 25.16 22.28 25.08 25.24Z" fill="#005DFF"/>
	<path d="M25.08 25.24L24.0804 25.213L24.0526 26.24H25.08V25.24ZM31.8 25.24V26.24H32.8V25.24H31.8ZM32.24 22.16L31.3718 21.6639L31.3627 21.6798L31.3542 21.696L32.24 22.16ZM35.2 21.96L34.376 22.5265L34.3965 22.5564L34.4191 22.5847L35.2 21.96ZM35.48 26.4L36.4471 26.6545L36.4501 26.6425L35.48 26.4ZM34.88 27.6L34.1401 26.9273L34.88 27.6ZM33.88 28.2L33.6223 27.2338L33.88 28.2ZM31.36 28.36V27.36H30.36V28.36H31.36ZM31.36 33H30.36V34H31.36V33ZM35.28 33.72L34.5326 34.3844L34.5426 34.3956L34.553 34.4066L35.28 33.72ZM35.88 38.72L36.8755 38.8148L36.8759 38.8105L35.88 38.72ZM35.56 40.08L34.652 39.6609L34.6442 39.678L34.6369 39.6954L35.56 40.08ZM34.96 40.76L35.3314 41.6885L35.37 41.673L35.4072 41.6544L34.96 40.76ZM32.24 39.88L31.3209 40.2739L31.3263 40.2866L31.332 40.2991L32.24 39.88ZM31.84 38.52L30.8511 38.6683L30.8547 38.6923L30.8594 38.7161L31.84 38.52ZM31.72 36.52H32.72V35.52H31.72V36.52ZM24.76 36.52V35.52H23.76V36.52H24.76ZM25.32 40.84L24.3671 41.1432L24.3691 41.1496L25.32 40.84ZM27.04 43.6L26.3725 44.3446L27.04 43.6ZM29.96 45.04L29.7384 46.0151L29.7431 46.0162L29.96 45.04ZM41.08 43.36L41.7476 44.1046L41.7546 44.0982L41.08 43.36ZM42.4 32.44L41.5354 32.9426L41.5407 32.9515L42.4 32.44ZM38.92 30.24H37.92V31.065L38.73 31.2218L38.92 30.24ZM38.92 30.16L38.7105 29.1822L37.92 29.3516V30.16H38.92ZM40.8 29.32L40.1804 28.5351H40.1804L40.8 29.32ZM42 27.96L41.1425 27.4455L41.1385 27.4522L41.1346 27.459L42 27.96ZM42.68 26.28L43.6552 26.5016L43.6572 26.4924L42.68 26.28ZM42.44 21.2L41.4746 21.4609L41.4789 21.4766L41.4837 21.4922L42.44 21.2ZM41 18.72L40.2929 19.4271L40.2998 19.434L40.3069 19.4408L41 18.72ZM38.28 17.2L38.5694 16.2428H38.5694L38.28 17.2ZM27.4 18.76L28.08 19.4933L28.087 19.4866L27.4 18.76ZM25.08 26.24H31.8V24.24H25.08V26.24ZM32.8 25.24C32.8 24.522 32.8355 23.9425 32.9 23.4914C32.9661 23.0282 33.055 22.7593 33.1258 22.624L31.3542 21.696C31.1317 22.1207 31.0005 22.6452 30.9201 23.2086C30.8378 23.7842 30.8 24.4647 30.8 25.24H32.8ZM33.1082 22.6561C33.2265 22.4492 33.3884 22.32 33.8 22.32V20.32C32.7716 20.32 31.8935 20.7508 31.3718 21.6639L33.1082 22.6561ZM33.8 22.32C34.1986 22.32 34.314 22.4364 34.376 22.5265L36.024 21.3935C35.4993 20.6302 34.6814 20.32 33.8 20.32V22.32ZM34.4191 22.5847C34.4371 22.6071 34.5141 22.7296 34.5794 23.0561C34.642 23.3691 34.68 23.7982 34.68 24.36H36.68C36.68 23.7218 36.638 23.1509 36.5406 22.6639C36.4459 22.1904 36.2829 21.7129 35.9809 21.3353L34.4191 22.5847ZM34.68 24.36C34.68 25.1415 34.6161 25.7325 34.5099 26.1575L36.4501 26.6425C36.6106 26.0009 36.68 25.2318 36.68 24.36H34.68ZM34.5129 26.1455C34.4079 26.5447 34.2693 26.7851 34.1401 26.9273L35.6199 28.2727C36.024 27.8282 36.2855 27.2687 36.4471 26.6545L34.5129 26.1455ZM34.1401 26.9273C34.0085 27.072 33.8454 27.1743 33.6223 27.2338L34.1377 29.1662C34.7146 29.0124 35.2182 28.7146 35.6199 28.2727L34.1401 26.9273ZM33.6223 27.2338C33.33 27.3117 32.9414 27.36 32.44 27.36V29.36C33.0586 29.36 33.63 29.3016 34.1377 29.1662L33.6223 27.2338ZM32.44 27.36H31.36V29.36H32.44V27.36ZM30.36 28.36V33H32.36V28.36H30.36ZM31.36 34H33.24V32H31.36V34ZM33.24 34C34.0197 34 34.3686 34.1999 34.5326 34.3844L36.0274 33.0556C35.3381 32.2801 34.327 32 33.24 32V34ZM34.553 34.4066C34.6181 34.4756 34.7285 34.6464 34.8182 35.016C34.9066 35.3796 34.96 35.8743 34.96 36.52H36.96C36.96 35.779 36.9001 35.1137 36.7618 34.544C36.6249 33.9803 36.3952 33.4444 36.007 33.0334L34.553 34.4066ZM34.96 36.52C34.96 37.3829 34.9337 38.0837 34.8841 38.6295L36.8759 38.8105C36.9329 38.183 36.96 37.417 36.96 36.52H34.96ZM34.8845 38.6252C34.8373 39.121 34.7481 39.4528 34.652 39.6609L36.468 40.4991C36.6919 40.0138 36.8161 39.439 36.8755 38.8148L34.8845 38.6252ZM34.6369 39.6954C34.58 39.832 34.5305 39.8567 34.5128 39.8656L35.4072 41.6544C35.9228 41.3966 36.2733 40.968 36.4831 40.4646L34.6369 39.6954ZM34.5886 39.8315C34.4828 39.8738 34.2755 39.92 33.92 39.92V41.92C34.4179 41.92 34.9038 41.8595 35.3314 41.6885L34.5886 39.8315ZM33.92 39.92C33.6659 39.92 33.5173 39.8661 33.4264 39.8097C33.3384 39.7553 33.2392 39.6587 33.148 39.4609L31.332 40.2991C31.5608 40.7947 31.9016 41.2181 32.3736 41.5103C32.8427 41.8006 33.3741 41.92 33.92 41.92V39.92ZM33.1591 39.4861C33.0338 39.1936 32.9179 38.8106 32.8206 38.3239L30.8594 38.7161C30.9754 39.2961 31.1262 39.8197 31.3209 40.2739L33.1591 39.4861ZM32.8289 38.3717C32.7589 37.9048 32.72 37.2916 32.72 36.52H30.72C30.72 37.3484 30.7611 38.0686 30.8511 38.6683L32.8289 38.3717ZM31.72 35.52H24.76V37.52H31.72V35.52ZM23.76 36.52C23.76 38.2929 23.9531 39.8421 24.3671 41.1432L26.2729 40.5368C25.9402 39.4912 25.76 38.1604 25.76 36.52H23.76ZM24.3691 41.1496C24.7881 42.4364 25.4482 43.5159 26.3725 44.3446L27.7075 42.8554C27.0851 42.2974 26.5986 41.5369 26.2709 40.5304L24.3691 41.1496ZM26.3725 44.3446C27.2912 45.1683 28.4257 45.7168 29.7384 46.0151L30.1816 44.0649C29.1476 43.8299 28.3355 43.4184 27.7075 42.8554L26.3725 44.3446ZM29.7431 46.0162C31.0319 46.3026 32.5076 46.44 34.16 46.44V44.44C32.6124 44.44 31.2881 44.3107 30.1769 44.0638L29.7431 46.0162ZM34.16 46.44C37.3582 46.44 39.9469 45.7189 41.7475 44.1046L40.4125 42.6154C39.1198 43.7744 37.0951 44.44 34.16 44.44V46.44ZM41.7546 44.0982C43.5968 42.4148 44.4 39.7735 44.4 36.44H42.4C42.4 39.5065 41.6565 41.4786 40.4054 42.6218L41.7546 44.0982ZM44.4 36.44C44.4 34.7471 44.0339 33.2299 43.2593 31.9285L41.5407 32.9515C42.0994 33.8901 42.4 35.0395 42.4 36.44H44.4ZM43.2645 31.9374C42.4154 30.4769 40.9647 29.6172 39.11 29.2582L38.73 31.2218C40.182 31.5028 41.0513 32.1097 41.5355 32.9426L43.2645 31.9374ZM39.92 30.24V30.16H37.92V30.24H39.92ZM39.1295 31.1378C39.9987 30.9516 40.7728 30.6156 41.4196 30.1049L40.1804 28.5351C39.8139 28.8244 39.3347 29.0484 38.7105 29.1822L39.1295 31.1378ZM41.4196 30.1049C42.0152 29.6347 42.5026 29.0877 42.8654 28.461L41.1346 27.459C40.9107 27.8457 40.5981 28.2053 40.1804 28.5351L41.4196 30.1049ZM42.8575 28.4745C43.2301 27.8535 43.4975 27.195 43.6551 26.5016L41.7049 26.0584C41.5958 26.5383 41.4099 26.9999 41.1425 27.4455L42.8575 28.4745ZM43.6572 26.4924C43.8039 25.8176 43.88 25.1594 43.88 24.52H41.88C41.88 25.0006 41.8228 25.5158 41.7028 26.0676L43.6572 26.4924ZM43.88 24.52C43.88 23.1911 43.7248 21.9826 43.3964 20.9078L41.4837 21.4922C41.7419 22.3374 41.88 23.3422 41.88 24.52H43.88ZM43.4054 20.9391C43.0944 19.7887 42.5255 18.7996 41.6931 17.9992L40.3069 19.4408C40.8612 19.9738 41.2522 20.638 41.4746 21.4609L43.4054 20.9391ZM41.7071 18.0129C40.8966 17.2024 39.8321 16.6245 38.5694 16.2428L37.9906 18.1572C39.0212 18.4688 39.7701 18.9043 40.2929 19.4271L41.7071 18.0129ZM38.5694 16.2428C37.2972 15.8582 35.7517 15.68 33.96 15.68V17.68C35.635 17.68 36.9694 17.8485 37.9906 18.1572L38.5694 16.2428ZM33.96 15.68C30.9098 15.68 28.4332 16.4069 26.713 18.0334L28.087 19.4866C29.3001 18.3397 31.1969 17.68 33.96 17.68V15.68ZM26.7201 18.0267C24.9784 19.6417 24.1642 22.1129 24.0804 25.213L26.0796 25.267C26.1558 22.4471 26.8882 20.5983 28.0799 19.4933L26.7201 18.0267Z" fill="#005DFF"/>
	<defs>
		<filter id="filter0_d_32_692" x="0" y="0" width="68" height="68" filterUnits="userSpaceOnUse" color-interpolation-filters="sRGB">
			<feFlood flood-opacity="0" result="BackgroundImageFix"/>
			<feColorMatrix in="SourceAlpha" type="matrix" values="0 0 0 0 0 0 0 0 0 0 0 0 0 0 0 0 0 0 127 0" result="hardAlpha"/>
			<feOffset dy="4"/>
			<feGaussianBlur stdDeviation="2"/>
			<feComposite in2="hardAlpha" operator="out"/>
			<feColorMatrix type="matrix" values="0 0 0 0 0 0 0 0 0 0 0 0 0 0 0 0 0 0 0.1 0"/>
			<feBlend mode="normal" in2="BackgroundImageFix" result="effect1_dropShadow_32_692"/>
			<feBlend mode="normal" in="SourceGraphic" in2="effect1_dropShadow_32_692" result="shape"/>
		</filter>
	</defs>
</svg>
