<svg width="24" height="24" viewBox="0 0 24 24" fill="none" xmlns="http://www.w3.org/2000/svg">
<path d="M4 10C4 6.229 4 4.343 5.172 3.172C6.343 2 8.229 2 12 2C15.771 2 17.657 2 18.828 3.172C20 4.343 20 6.229 20 10V13C20 16.771 20 18.657 18.828 19.828C17.657 21 15.771 21 12 21C8.229 21 6.343 21 5.172 19.828C4 18.657 4 16.771 4 13V10Z" stroke="#123275"/>
<path d="M17 21V22H16V21M8 21V22H7V21" stroke="#123275" stroke-linejoin="round"/>
<path d="M20 11.5H4" stroke="#123275"/>
<path d="M17 7V9M17 14V16" stroke="#123275" stroke-linecap="round"/>
</svg>
