<svg width="24" height="24" viewBox="0 0 24 24" fill="none" xmlns="http://www.w3.org/2000/svg">
<path d="M3.9296 13.7809C3.3888 14.7377 2.4016 16.4849 4.1488 17.6497C4.6976 18.0129 5.3136 18.2641 5.9584 18.3889C6.4496 18.4609 6.4752 19.2177 5.8976 19.2001C5.2816 19.1681 2.2816 18.8913 1.8 16.6401C1.5504 15.3281 1.832 14.1489 2.6064 12.8721L3.7216 10.8993L1.632 9.71052L7.2 6.40012V12.8001L5.1104 11.6897L3.9296 13.7809ZM10.72 3.25452C12.568 2.24972 13.6368 3.94252 14.2256 4.86572L15.5152 6.88652L13.4896 8.17932L19.2 11.1777L18.8848 4.73612L16.8624 6.02732L15.6464 4.12492C14.8112 2.93132 14.2 2.04972 12.7104 1.65292C10.0912 1.15212 8.4816 4.19052 8.4976 4.17132C8.2352 4.63052 8.8432 5.03532 9.2192 4.50732C9.632 3.99532 10.1424 3.56972 10.72 3.25452ZM21.2704 13.1537C21.1296 12.8497 20.392 12.9281 20.6 13.5809C20.8096 14.2049 20.896 14.8609 20.8512 15.5169C20.7024 17.6161 18.6944 17.6001 17.6 17.6001H15.2V15.2001L9.6 18.4001L15.1808 21.6401L15.1888 19.2001H17.6C19.024 19.2241 20.16 18.9185 21.12 18.0593C23.04 16.3617 21.2704 13.1537 21.2704 13.1537Z" fill="#123275"/>
</svg>
