<svg width="20" height="20" viewBox="0 0 20 20" fill="none" xmlns="http://www.w3.org/2000/svg">
	<g clip-path="url(#clip0_3694_4763)">
		<path d="M19.5455 0.454616C19.9621 0.94704 20.0189 1.6478 19.7159 2.55689C19.4129 3.46598 18.9015 4.28037 18.1818 5.00007L15.8949 7.287L18.1676 17.1734C18.215 17.3533 18.1582 17.5095 17.9972 17.6421L16.179 19.0058C16.1127 19.0626 16.0227 19.091 15.9091 19.091C15.8712 19.091 15.8381 19.0862 15.8097 19.0768C15.6676 19.0484 15.5682 18.9726 15.5114 18.8495L11.5483 11.6336L7.86933 15.3126L8.62217 18.0683C8.66952 18.2292 8.63164 18.376 8.50853 18.5086L7.1449 19.8722C7.05967 19.9575 6.95077 20.0001 6.81819 20.0001H6.78978C6.64774 19.9811 6.5341 19.9196 6.44887 19.8154L3.76421 16.2359L0.184669 13.5512C0.080502 13.4849 0.018949 13.376 9.58412e-06 13.2245C-0.00946011 13.1014 0.0331535 12.983 0.127851 12.8694L1.49149 11.4915C1.57671 11.4063 1.68562 11.3637 1.81819 11.3637C1.87501 11.3637 1.91289 11.3684 1.93183 11.3779L4.68751 12.1308L8.36649 8.45177L1.15058 4.48871C1.018 4.41295 0.93751 4.29931 0.909101 4.1478C0.890161 3.99628 0.932775 3.86844 1.03694 3.76427L2.85512 1.94609C2.9877 1.82299 3.12974 1.78511 3.28126 1.83246L12.7273 4.09098L15 1.81825C15.7197 1.09855 16.5341 0.587191 17.4432 0.284161C18.3523 -0.0188693 19.053 0.0379489 19.5455 0.454616Z" fill="#FDD216"/>
	</g>
	<defs>
		<clipPath id="clip0_3694_4763">
			<rect width="20" height="20" fill="white"/>
		</clipPath>
	</defs>
</svg>
