<svg width="24" height="24" viewBox="0 0 24 24" fill="none" xmlns="http://www.w3.org/2000/svg">
	<g clip-path="url(#clip0_3376_8474)">
		<path d="M8.00011 1.5C8.00011 0.670312 8.59595 0 9.33345 0H14.6668C15.4043 0 16.0001 0.670312 16.0001 1.5V3H18.0001C19.1043 3 20.0001 4.00781 20.0001 5.25V11.25L21.8501 11.9438C22.8126 12.3047 23.0793 13.7016 22.3293 14.4703L18.1209 18.8109C17.4459 19.2516 16.6751 19.5187 16.0001 19.5187C15.1834 19.5187 14.3001 19.1578 13.5334 18.5672C12.6126 17.8406 11.3834 17.8406 10.4626 18.5672C9.75011 19.1203 8.87928 19.5187 7.99595 19.5187C7.32095 19.5187 6.55011 19.2516 5.87511 18.8109L1.66678 14.4703C0.916779 13.6969 1.18345 12.3047 2.14595 11.9438L4.00011 11.25V5.25C4.00011 4.00781 4.89595 3 6.00011 3H8.00011V1.5ZM6.66678 10.2516L11.1584 8.56875C11.7043 8.3625 12.2959 8.3625 12.8459 8.56875L17.3334 10.2516V6H6.66678V10.2516ZM12.7709 19.7766C13.7084 20.5031 14.8543 21 16.0001 21C17.1209 21 18.3084 20.4937 19.2251 19.7766C19.7209 19.3781 20.3959 19.4109 20.8584 19.8563C21.4584 20.4141 22.2126 20.8406 22.9668 21.0375C23.6834 21.225 24.1293 22.0312 23.9626 22.8375C23.7959 23.6438 23.0793 24.1453 22.3626 23.9578C21.3418 23.6906 20.4918 23.1844 19.9376 22.7859C18.7293 23.5172 17.3751 24 16.0001 24C14.6709 24 13.4751 23.5359 12.6501 23.1141C12.4084 22.9875 12.1876 22.8656 12.0001 22.7531C11.8126 22.8656 11.5959 22.9922 11.3501 23.1141C10.5251 23.5359 9.32928 24 8.00011 24C6.62511 24 5.27095 23.5172 4.06261 22.7906C3.50428 23.1844 2.65845 23.6953 1.63761 23.9625C0.920946 24.15 0.204279 23.6484 0.0376127 22.8422C-0.129054 22.0359 0.316779 21.2297 1.03345 21.0422C1.78761 20.8453 2.54178 20.4188 3.14178 19.8609C3.60428 19.4203 4.27928 19.3875 4.77511 19.7812C5.69595 20.4937 6.87928 21 8.00011 21C9.14595 21 10.2918 20.5031 11.2293 19.7766C11.6918 19.4062 12.3084 19.4062 12.7709 19.7766Z" fill="#407BFF"/>
	</g>
	<defs>
		<clipPath id="clip0_3376_8474">
			<rect width="24" height="24" fill="white"/>
		</clipPath>
	</defs>
</svg>

