<svg width="24" height="24" viewBox="0 0 24 24" fill="none" xmlns="http://www.w3.org/2000/svg">
	<g clip-path="url(#clip0_3694_4758)">
		<path d="M7.99999 1.5C7.99999 0.670312 8.59582 0 9.33332 0H14.6667C15.4042 0 16 0.670312 16 1.5V3H18C19.1042 3 20 4.00781 20 5.25V11.25L21.85 11.9438C22.8125 12.3047 23.0792 13.7016 22.3292 14.4703L18.1208 18.8109C17.4458 19.2516 16.675 19.5187 16 19.5187C15.1833 19.5187 14.3 19.1578 13.5333 18.5672C12.6125 17.8406 11.3833 17.8406 10.4625 18.5672C9.74999 19.1203 8.87916 19.5187 7.99582 19.5187C7.32082 19.5187 6.54999 19.2516 5.87499 18.8109L1.66666 14.4703C0.916657 13.6969 1.18332 12.3047 2.14582 11.9438L3.99999 11.25V5.25C3.99999 4.00781 4.89582 3 5.99999 3H7.99999V1.5ZM6.66666 10.2516L11.1583 8.56875C11.7042 8.3625 12.2958 8.3625 12.8458 8.56875L17.3333 10.2516V6H6.66666V10.2516ZM12.7708 19.7766C13.7083 20.5031 14.8542 21 16 21C17.1208 21 18.3083 20.4937 19.225 19.7766C19.7208 19.3781 20.3958 19.4109 20.8583 19.8563C21.4583 20.4141 22.2125 20.8406 22.9667 21.0375C23.6833 21.225 24.1292 22.0312 23.9625 22.8375C23.7958 23.6438 23.0792 24.1453 22.3625 23.9578C21.3417 23.6906 20.4917 23.1844 19.9375 22.7859C18.7292 23.5172 17.375 24 16 24C14.6708 24 13.475 23.5359 12.65 23.1141C12.4083 22.9875 12.1875 22.8656 12 22.7531C11.8125 22.8656 11.5958 22.9922 11.35 23.1141C10.525 23.5359 9.32916 24 7.99999 24C6.62499 24 5.27082 23.5172 4.06249 22.7906C3.50416 23.1844 2.65832 23.6953 1.63749 23.9625C0.920824 24.15 0.204157 23.6484 0.0374906 22.8422C-0.129176 22.0359 0.316657 21.2297 1.03332 21.0422C1.78749 20.8453 2.54166 20.4188 3.14166 19.8609C3.60416 19.4203 4.27916 19.3875 4.77499 19.7812C5.69582 20.4937 6.87916 21 7.99999 21C9.14582 21 10.2917 20.5031 11.2292 19.7766C11.6917 19.4062 12.3083 19.4062 12.7708 19.7766Z" fill="white"/>
	</g>
	<defs>
		<clipPath id="clip0_3694_4758">
			<rect width="24" height="24" fill="white"/>
		</clipPath>
	</defs>
</svg>
