<svg width="16" height="16" viewBox="0 0 16 16" fill="none" xmlns="http://www.w3.org/2000/svg">
	<g opacity="0.8">
		<path d="M14.6668 8H10.6668L9.3335 10H6.66683L5.3335 8H1.3335" stroke="#E63D3D" stroke-width="1.6" stroke-linecap="round"/>
		<path d="M3.6335 3.40602L1.3335 7.99935V11.9993C1.3335 12.353 1.47397 12.6921 1.72402 12.9422C1.97407 13.1922 2.31321 13.3327 2.66683 13.3327H13.3335C13.6871 13.3327 14.0263 13.1922 14.2763 12.9422C14.5264 12.6921 14.6668 12.353 14.6668 11.9993V7.99935L12.3668 3.40602C12.2564 3.18387 12.0863 2.99693 11.8755 2.8662C11.6647 2.73547 11.4216 2.66615 11.1735 2.66602H4.82683C4.57877 2.66615 4.33567 2.73547 4.12486 2.8662C3.91405 2.99693 3.74388 3.18387 3.6335 3.40602V3.40602Z" stroke="#E63D3D" stroke-width="1.6" stroke-linecap="round"/>
	</g>
</svg>
