<svg width="16" height="16" viewBox="0 0 16 16" fill="none" xmlns="http://www.w3.org/2000/svg">
<path d="M14.8 5C14.8 4.55817 14.4418 4.2 14 4.2C13.5582 4.2 13.2 4.55817 13.2 5H14.8ZM6.8 5C6.8 4.55817 6.44183 4.2 6 4.2C5.55817 4.2 5.2 4.55817 5.2 5H6.8ZM2.8 5C2.8 3.23269 4.23269 1.8 6 1.8V0.2C3.34903 0.2 1.2 2.34903 1.2 5H2.8ZM6 1.8C7.76731 1.8 9.2 3.23269 9.2 5H10.8C10.8 2.34903 8.65097 0.2 6 0.2V1.8ZM1.2 5V9H2.8V5H1.2ZM9.2 5V9H10.8V5H9.2ZM13.2 9C13.2 11.8719 10.8719 14.2 8 14.2V15.8C11.7555 15.8 14.8 12.7555 14.8 9H13.2ZM8 14.2C5.12812 14.2 2.8 11.8719 2.8 9H1.2C1.2 12.7555 4.24446 15.8 8 15.8V14.2ZM14.8 9V5H13.2V9H14.8ZM9.2 9C9.2 9.66274 8.66274 10.2 8 10.2V11.8C9.5464 11.8 10.8 10.5464 10.8 9H9.2ZM8 10.2C7.33726 10.2 6.8 9.66274 6.8 9H5.2C5.2 10.5464 6.4536 11.8 8 11.8V10.2ZM6.8 9V5H5.2V9H6.8Z" fill="#9FA4BB"/>
</svg>
