<svg width="24" height="24" viewBox="0 0 24 24" fill="none" xmlns="http://www.w3.org/2000/svg">
<g clip-path="url(#clip0)">
<path d="M21.3024 14.7918L19.5274 13.0168L11.5401 5.02984C10.068 3.56881 7.69185 3.57322 6.22531 5.03976C4.75877 6.5063 4.75436 8.88249 6.21539 10.3545L14.2023 18.3439C14.529 18.6707 15.0589 18.6707 15.3858 18.3439C15.7124 18.017 15.7124 17.4873 15.3858 17.1605L7.3988 9.17113C6.58193 8.35427 6.58193 7.03012 7.3988 6.21325C8.21567 5.39638 9.53981 5.39638 10.3567 6.21325L18.346 14.2002L20.121 15.9751C21.5916 17.4462 21.5911 19.8308 20.1201 21.3012C18.649 22.7716 16.2645 22.7713 14.794 21.3001L13.3151 19.8207L5.03216 11.5378L4.44037 10.9462C2.37192 8.81304 2.3982 5.41476 4.49916 3.31361C6.6003 1.21265 9.99859 1.18638 12.1317 3.25482L21.0063 12.1296C21.2177 12.3409 21.5259 12.4234 21.8145 12.346C22.1033 12.2687 22.3289 12.0432 22.4063 11.7544C22.4836 11.4656 22.401 11.1576 22.1897 10.9462L13.3151 2.07159C10.5358 -0.695026 6.04158 -0.689881 3.26871 2.08317C0.495665 4.85603 0.490521 9.35027 3.25714 12.1296L12.1317 21.0041L13.6128 22.4835C15.7486 24.5351 19.1335 24.5009 21.2273 22.4064C23.3213 20.312 23.3545 16.9271 21.3024 14.7918Z" fill="#9FA4BB"/>
</g>
<defs>
<clipPath id="clip0">
<rect width="24" height="24" fill="white"/>
</clipPath>
</defs>
</svg>
