<svg width="16" height="16" viewBox="0 0 16 16" fill="none" xmlns="http://www.w3.org/2000/svg">
<path d="M10.8722 1C12.6553 1 13.3361 1.04631 13.988 1.41235C14.6398 1.7784 15.1514 2.31556 15.5 3C15.8486 3.68444 16 4.51197 16 6.38416V9.61584C16 11.488 15.8486 12.3156 15.5 13C15.1514 13.6844 14.6398 14.2216 13.988 14.5876C13.3361 14.9537 12.6553 15 10.8722 15H5.12777C3.34473 15 2.66389 14.9537 2.01204 14.5876C1.36019 14.2216 0.848614 13.6844 0.5 13C0.151386 12.3156 0 11.488 0 9.61584V6.38416C0 4.51197 0.151386 3.68444 0.5 3C0.848614 2.31556 1.36019 1.7784 2.01204 1.41235C2.66389 1.04631 3.34473 1 5.12777 1H10.8722ZM11.0609 2.40065L5.12777 2.4C3.70342 2.4 3.16208 2.35419 2.64084 2.64689C2.22135 2.88246 1.9001 3.21977 1.67575 3.66024C1.40966 4.18266 1.34261 4.84016 1.33395 6.1861L1.33333 9.61584C1.33333 11.1114 1.39699 11.7925 1.67575 12.3398C1.9001 12.7802 2.22135 13.1175 2.64084 13.3531C3.16208 13.6458 3.70342 13.6 5.12777 13.6H10.8722C12.2966 13.6 12.8379 13.6458 13.3592 13.3531C13.7787 13.1175 14.0999 12.7802 14.3242 12.3398C14.603 11.7925 14.6667 11.1114 14.6667 9.61584V6.38416C14.6667 4.88859 14.603 4.20754 14.3242 3.66024C14.0999 3.21977 13.7787 2.88246 13.3592 2.64689C12.8616 2.3675 12.3427 2.40974 11.0609 2.40065ZM8 9.07686C8.36819 9.07686 8.66667 9.39026 8.66667 9.77686C8.66667 10.1635 8.36819 10.4769 8 10.4769H4C3.63181 10.4769 3.33333 10.1635 3.33333 9.77686C3.33333 9.39026 3.63181 9.07686 4 9.07686H8ZM12 9.07686C12.3682 9.07686 12.6667 9.39026 12.6667 9.77686C12.6667 10.1635 12.3682 10.4769 12 10.4769H10.6667C10.2985 10.4769 10 10.1635 10 9.77686C10 9.39026 10.2985 9.07686 10.6667 9.07686H12ZM12 6.27686C12.3682 6.27686 12.6667 6.59026 12.6667 6.97686C12.6667 7.36346 12.3682 7.67686 12 7.67686H8C7.63181 7.67686 7.33333 7.36346 7.33333 6.97686C7.33333 6.59026 7.63181 6.27686 8 6.27686H12ZM5.33333 6.27686C5.70152 6.27686 6 6.59026 6 6.97686C6 7.36346 5.70152 7.67686 5.33333 7.67686H4C3.63181 7.67686 3.33333 7.36346 3.33333 6.97686C3.33333 6.59026 3.63181 6.27686 4 6.27686H5.33333Z" fill="#9FA4BB"/>
</svg>
