<svg width="32" height="32" viewBox="0 0 32 32" fill="none" xmlns="http://www.w3.org/2000/svg">
<g clip-path="url(#clip0)">
<path d="M31.8634 16.3437C31.7024 16.0902 31.4269 15.9389 31.1266 15.9389H27.1641C26.4577 15.9389 25.883 16.5135 25.883 17.2199C25.883 17.2339 25.8818 17.2477 25.8802 17.2612V14.2403C25.8802 13.8062 25.527 13.453 25.093 13.453H21.6623V9.94359C21.6623 9.60928 21.3903 9.33728 21.056 9.33728H12.8936C12.5593 9.33728 12.2872 9.60928 12.2872 9.94359V17.5619H10.8353V14.7906C11.1759 14.7898 11.4528 14.5125 11.4528 14.1717V13.0247C11.4528 12.6833 11.1751 12.4057 10.8338 12.4057H9.43768V8.95447C9.43768 8.56797 9.12324 8.25353 8.73668 8.25353H6.72217V5.94752C6.72217 5.68546 6.50974 5.47302 6.24767 5.47302C5.98561 5.47302 5.77317 5.68546 5.77317 5.94752V8.25359H3.75867C3.37217 8.25359 3.05773 8.56803 3.05773 8.95453V12.4057H1.66148C1.32016 12.4057 1.04248 12.6834 1.04248 13.0247V14.1718C1.04248 14.5126 1.31935 14.7899 1.65998 14.7907V17.562H0.812788C0.566538 17.562 0.33635 17.6717 0.18135 17.8629C0.026537 18.0538 -0.0330881 18.3011 0.0177245 18.5414C0.358788 20.1556 1.18473 21.7299 2.40629 23.0941C2.47129 23.1667 2.51192 23.2542 2.5291 23.3459C2.53379 23.3709 2.53648 23.396 2.53754 23.4209C2.53767 23.4237 2.53804 23.4265 2.5381 23.4292C2.53879 23.4529 2.53729 23.4763 2.53485 23.4996C2.53435 23.5041 2.53442 23.5086 2.53379 23.513C2.53092 23.5346 2.52598 23.5558 2.52042 23.5769C2.51892 23.5826 2.51823 23.5882 2.51654 23.5938C2.50873 23.6199 2.49904 23.6456 2.4871 23.6705L1.72085 25.2747C1.5906 25.5474 1.60904 25.863 1.77029 26.1187C1.93154 26.3744 2.20823 26.527 2.51054 26.527H26.9726C27.3093 26.527 27.6195 26.3301 27.7626 26.0253L31.9166 17.1827C32.0443 16.911 32.0244 16.5972 31.8634 16.3437ZM21.6622 14.3921H24.9412V17.562H21.6622V14.3921ZM17.4442 10.2763H20.7232V13.453H17.4442V10.2763ZM17.4442 14.3921H20.7232V17.562H17.4442V14.3921ZM13.2262 10.2763H16.5053V13.453H13.2262V10.2763ZM13.2262 14.3921H16.5053V17.562H13.2262V14.3921ZM3.99673 9.19259H8.49868V12.4057H3.99673V9.19259ZM1.98154 13.3447H10.5137V13.8517H5.20367C4.94436 13.8517 4.73417 14.0619 4.73417 14.3212C4.73417 14.5805 4.94436 14.7907 5.20367 14.7907H9.89631V17.562H2.59904V14.7907H2.99586C3.25517 14.7907 3.46536 14.5805 3.46536 14.3212C3.46536 14.0619 3.25517 13.8517 2.99586 13.8517H1.98154V13.3447ZM28.2478 22.7842H23.5936C23.3343 22.7842 23.1241 22.9944 23.1241 23.2537C23.1241 23.5131 23.3343 23.7232 23.5936 23.7232H27.8067L26.9307 25.5881H2.61185L3.33442 24.0752C3.34936 24.044 3.36286 24.0124 3.37542 23.9804C3.37936 23.9704 3.38273 23.9603 3.38648 23.9503C3.39461 23.9283 3.40248 23.9063 3.40948 23.8841C3.41342 23.8717 3.41692 23.8592 3.42054 23.8468C3.42623 23.8271 3.43154 23.8074 3.43636 23.7876C3.43986 23.7731 3.44317 23.7586 3.44623 23.7441C3.44767 23.7372 3.44961 23.7302 3.45098 23.7233H21.3857C21.645 23.7233 21.8552 23.5131 21.8552 23.2538C21.8552 22.9945 21.645 22.7843 21.3857 22.7843H3.32104C3.26411 22.6717 3.19286 22.5649 3.10586 22.4678C2.01704 21.2519 1.29923 19.9181 0.970414 18.501L25.4106 18.5079C25.4371 18.5079 25.5156 18.5052 25.5408 18.501C26.2472 18.501 26.8219 17.9263 26.8219 17.2199C26.8219 17.0313 26.9753 16.8779 27.164 16.8779H31.0225L28.2478 22.7842Z" fill="#556274"/>
</g>
<defs>
<clipPath id="clip0">
<rect width="32" height="32" fill="white"/>
</clipPath>
</defs>
</svg>
