<svg width="26" height="18" viewBox="0 0 26 18" fill="none" xmlns="http://www.w3.org/2000/svg">
<g opacity="0.85">
<rect width="26" height="18" rx="2" fill="white"/>
<mask id="mask0" mask-type="alpha" maskUnits="userSpaceOnUse" x="0" y="0" width="26" height="18">
<rect width="26" height="18" rx="2" fill="white"/>
</mask>
<g mask="url(#mask0)">
<rect width="26" height="18" fill="#F1361D"/>
<path fill-rule="evenodd" clip-rule="evenodd" d="M9.35352 2.79044L10.2528 2.93904L10.9272 3.53438L11.0806 2.66278L11.6948 2.00908L10.7955 1.86048L10.1211 1.26514L9.96776 2.13674L9.35352 2.79044ZM11.7623 5.83898L12.5416 5.37931L13.4536 5.39975L12.9793 4.64446L13.0004 3.76052L12.2211 4.22019L11.3091 4.19975L11.7834 4.95504L11.7623 5.83898ZM10.7051 10.7735L9.94289 11.2593L9.93214 10.3752L9.43097 9.63638L10.3432 9.62596L11.1054 9.14021L11.1161 10.0243L11.6173 10.7631L10.7051 10.7735ZM11.3671 8.48805L12.2737 8.39064L13.0914 8.78274L12.9909 7.90395L13.3954 7.11147L12.4887 7.20887L11.6711 6.81678L11.7716 7.69557L11.3671 8.48805Z" fill="#FFDC42"/>
<path fill-rule="evenodd" clip-rule="evenodd" d="M6.19085 7.4039L4.00765 8.91236L4.81317 6.43376L2.65835 4.88744L5.3394 4.86404L6.19085 2.3999L7.0423 4.86404L9.72334 4.88744L7.56852 6.43376L8.37405 8.91236L6.19085 7.4039Z" fill="#FFDC42"/>
</g>
</g>
</svg>
