<?xml version="1.0" standalone="no"?>
<!DOCTYPE svg PUBLIC "-//W3C//DTD SVG 20010904//EN"
 "http://www.w3.org/TR/2001/REC-SVG-20010904/DTD/svg10.dtd">
<svg version="1.0" xmlns="http://www.w3.org/2000/svg"
 width="512.000000pt" height="512.000000pt" viewBox="0 0 512.000000 512.000000"
 preserveAspectRatio="xMidYMid meet">

<g transform="translate(0.000000,512.000000) scale(0.100000,-0.100000)"
fill="#000000" stroke="none">
<path d="M2315 5109 c-799 -83 -1501 -518 -1927 -1196 -470 -747 -515 -1705
-118 -2495 130 -260 265 -444 484 -663 233 -233 416 -363 700 -501 244 -118
501 -195 791 -236 118 -17 511 -16 635 0 579 80 1097 337 1491 739 130 132
157 163 243 277 256 341 423 757 488 1211 17 118 17 512 0 630 -43 303 -122
561 -247 814 -382 768 -1089 1281 -1940 1407 -123 18 -478 26 -600 13z m866
-1300 c40 -14 85 -53 105 -91 12 -23 14 -213 14 -1223 l0 -1195 -165 0 -165 0
0 377 c0 362 -1 378 -21 420 -14 29 -35 52 -63 68 l-43 25 -284 0 c-275 0
-285 -1 -323 -23 -25 -14 -48 -39 -63 -66 -23 -44 -23 -46 -23 -423 l0 -378
-165 0 -165 0 0 1195 c0 1010 2 1200 14 1223 19 37 65 77 101 90 44 15 1201
16 1246 1z m-1481 -1534 l0 -975 -350 0 c-337 0 -351 1 -370 20 -41 41 -9 100
55 100 l35 0 0 833 c0 548 4 845 11 870 13 48 67 102 116 115 21 5 143 10 271
11 l232 1 0 -975z m2253 951 c22 -11 51 -37 65 -59 l27 -41 3 -853 3 -853 34
0 c39 0 75 -29 75 -60 0 -11 -9 -29 -20 -40 -19 -19 -33 -20 -370 -20 l-350 0
0 976 0 975 248 -3 c219 -3 251 -5 285 -22z m-1453 -1206 l0 -61 -117 3 -118
3 1 38 c2 66 22 77 136 77 l98 0 0 -60z m335 40 c10 -11 18 -36 19 -57 l1 -38
-117 -3 -118 -3 0 61 0 60 98 0 c86 0 101 -3 117 -20z m-335 -485 l0 -276
-117 3 -118 3 -3 273 -2 272 120 0 120 0 0 -275z m358 3 l-3 -273 -117 -3
-118 -3 0 276 0 275 120 0 120 0 -2 -272z"/>
<path d="M2116 3514 c-23 -23 -23 -295 0 -318 13 -13 42 -16 159 -16 182 0
175 -7 175 175 0 182 7 175 -175 175 -117 0 -146 -3 -159 -16z m214 -159 l0
-65 -60 0 -60 0 0 65 0 65 60 0 60 0 0 -65z"/>
<path d="M2686 3508 c-13 -18 -16 -51 -16 -153 0 -182 -7 -175 175 -175 117 0
146 3 159 16 13 13 16 42 16 159 0 117 -3 146 -16 159 -13 13 -42 16 -159 16
-137 0 -145 -1 -159 -22z m224 -153 l0 -65 -60 0 -60 0 0 65 0 65 60 0 60 0 0
-65z"/>
<path d="M2122 2994 c-21 -14 -22 -22 -22 -163 0 -101 4 -151 12 -159 8 -8 58
-12 159 -12 187 0 179 -8 179 177 0 178 5 173 -173 173 -104 0 -137 -3 -155
-16z m208 -164 l0 -60 -60 0 -60 0 0 60 0 60 60 0 60 0 0 -60z"/>
<path d="M2690 2990 c-18 -18 -20 -33 -20 -153 0 -185 -8 -177 179 -177 101 0
151 4 159 12 8 8 12 58 12 159 0 187 8 179 -177 179 -120 0 -135 -2 -153 -20z
m220 -160 l0 -60 -60 0 -60 0 0 60 0 60 60 0 60 0 0 -60z"/>
<path d="M1230 2940 c-18 -18 -20 -33 -20 -153 0 -184 -7 -177 171 -177 78 0
149 5 160 10 17 10 19 23 19 160 0 122 -3 151 -16 164 -12 13 -41 16 -155 16
-126 0 -141 -2 -159 -20z m220 -155 l0 -65 -60 0 -60 0 0 65 0 65 60 0 60 0 0
-65z"/>
<path d="M1226 2358 c-13 -18 -16 -51 -16 -155 0 -178 -5 -173 173 -173 185 0
177 -8 177 179 0 101 -4 151 -12 159 -8 8 -58 12 -159 12 -141 0 -149 -1 -163
-22z m224 -148 l0 -60 -60 0 -60 0 0 60 0 60 60 0 60 0 0 -60z"/>
<path d="M3576 2944 c-13 -13 -16 -42 -16 -164 0 -137 2 -150 19 -160 11 -5
82 -10 160 -10 178 0 171 -7 171 177 0 179 6 173 -179 173 -114 0 -143 -3
-155 -16z m214 -159 l0 -65 -60 0 -60 0 0 65 0 65 60 0 60 0 0 -65z"/>
<path d="M3572 2368 c-8 -8 -12 -58 -12 -159 0 -187 -8 -179 177 -179 178 0
173 -5 173 173 0 185 8 177 -179 177 -101 0 -151 -4 -159 -12z m218 -158 l0
-60 -60 0 -60 0 0 60 0 60 60 0 60 0 0 -60z"/>
</g>
</svg>
