<svg width="16" height="17" viewBox="0 0 16 17" fill="none" xmlns="http://www.w3.org/2000/svg">
	<path fill-rule="evenodd" clip-rule="evenodd" d="M6 10.5C8.69585 10.5 11 10.9991 11 12.9929C11 14.9866 8.7112 15.5 6 15.5C3.30342 15.5 1 15.0054 1 13.0107C1 11.0161 3.28807 10.5 6 10.5Z" stroke="#0F0F11" stroke-width="1.6" stroke-linecap="round" stroke-linejoin="round"/>
	<path fill-rule="evenodd" clip-rule="evenodd" d="M6.18221 8.33182C4.3473 8.33182 2.85938 6.80264 2.85938 4.91591C2.85938 3.02917 4.3473 1.5 6.18221 1.5C8.01636 1.5 9.50429 3.02917 9.50429 4.91591C9.51111 6.79563 8.03379 8.32481 6.2057 8.33182H6.18221Z" stroke="#0F0F11" stroke-width="1.6" stroke-linecap="round" stroke-linejoin="round"/>
	<path d="M11.4043 7.4447C12.6172 7.26943 13.5513 6.19908 13.5536 4.90361C13.5536 3.62683 12.6483 2.56739 11.4611 2.36719" stroke="#0F0F11" stroke-width="1.6" stroke-linecap="round" stroke-linejoin="round"/>
	<path d="M13.0063 10.4443C14.1814 10.6243 15.0019 11.0481 15.0019 11.9205C15.0019 12.5211 14.6155 12.9106 13.9912 13.1545" stroke="#0F0F11" stroke-width="1.6" stroke-linecap="round" stroke-linejoin="round"/>
</svg>
