<svg width="540" height="352" viewBox="0 0 540 352" fill="none" xmlns="http://www.w3.org/2000/svg">
	<path opacity="0.15" d="M270 352C419.117 352 540 344.511 540 335.273C540 326.035 419.117 318.546 270 318.546C120.883 318.546 0 326.035 0 335.273C0 344.511 120.883 352 270 352Z" fill="black"/>
	<path d="M394.883 56.5601H175.02C153.943 56.5601 136.856 73.6211 136.856 94.6674V235.865C136.856 256.911 153.943 273.972 175.02 273.972H407.005C428.082 273.972 445.168 256.911 445.168 235.865V106.772C445.175 79.042 422.66 56.5601 394.883 56.5601Z" fill="#3C415E"/>
	<path d="M350.955 333.268H232.189C232.189 322.352 241.052 313.502 251.984 313.502H331.161C342.093 313.502 350.955 322.352 350.955 333.268Z" fill="#3C415E"/>
	<path d="M326.217 313.502H256.937L266.834 273.972H316.32L326.217 313.502Z" fill="#738598"/>
	<path d="M435.086 234.447H148.074V83.7385C148.074 74.19 155.827 66.4424 165.396 66.4424H417.771C427.333 66.4424 435.092 74.1839 435.092 83.7385L435.086 234.447Z" fill="#FAF9F9"/>
	<path d="M412.223 82.1172H169.813V125.552H412.223V82.1172Z" fill="#3C415E"/>
	<path d="M281.192 134.662H169.634V144.117H281.192V134.662Z" fill="#3C415E"/>
	<path d="M281.192 153.232H169.634V162.688H281.192V153.232Z" fill="#3C415E"/>
	<path d="M281.192 171.797H169.634V181.253H281.192V171.797Z" fill="#3C415E"/>
	<path d="M281.192 190.362H169.634V199.818H281.192V190.362Z" fill="#3C415E"/>
	<path d="M281.192 208.927H169.634V218.382H281.192V208.927Z" fill="#3C415E"/>
	<path d="M412.396 134.662H300.838V144.117H412.396V134.662Z" fill="#3C415E"/>
	<path d="M412.396 153.232H300.838V162.688H412.396V153.232Z" fill="#3C415E"/>
	<path d="M412.396 171.797H300.838V181.253H412.396V171.797Z" fill="#3C415E"/>
	<path d="M412.396 190.362H300.838V199.818H412.396V190.362Z" fill="#3C415E"/>
	<path d="M412.396 208.927H300.838V218.382H412.396V208.927Z" fill="#3C415E"/>
	<path d="M455.465 191.015L444.041 202.423L450.404 208.776L461.828 197.369L455.465 191.015Z" fill="#3C415E"/>
	<path opacity="0.26" d="M411.133 207.015C438.145 207.015 460.043 185.149 460.043 158.177C460.043 131.205 438.145 109.339 411.133 109.339C384.121 109.339 362.224 131.205 362.224 158.177C362.224 185.149 384.121 207.015 411.133 207.015Z" fill="#B7C0FF"/>
	<path d="M411.133 101.653C379.867 101.653 354.526 126.963 354.526 158.177C354.526 189.39 379.874 214.7 411.133 214.7C442.399 214.7 467.74 189.39 467.74 158.177C467.74 126.963 442.399 101.653 411.133 101.653ZM411.133 207.015C384.119 207.015 362.224 185.151 362.224 158.177C362.224 131.202 384.119 109.339 411.133 109.339C438.147 109.339 460.042 131.202 460.042 158.177C460.042 185.151 438.147 207.015 411.133 207.015Z" fill="#FF666A"/>
	<path d="M479.13 245.344L482.383 249.131C483.251 250.109 484.769 250.214 485.742 249.236L502.227 232.776C503.2 231.798 503.095 230.288 502.122 229.422L498.329 226.173L479.13 245.344Z" fill="#FF666A"/>
	<path d="M465.248 196.94C464.38 196.179 462.974 196.179 462.106 197.045L450.071 209.062C449.203 209.929 449.203 211.228 449.965 212.2L451.05 213.394L466.45 198.016L465.248 196.94Z" fill="#FF666A"/>
	<path d="M451.044 213.401L479.13 245.345L498.429 226.074L466.438 198.023L451.044 213.401Z" fill="#3C415E"/>
	<path d="M486.659 261.824L484.397 259.473L477.611 260.76L481.255 265.271L486.659 261.824Z" fill="#A67C52"/>
	<path d="M491.338 285.792C491.338 285.792 492.243 313.85 494.059 331.95H490.434L482.278 300.272L478.652 331.95H475.027L474.122 307.513L476.843 291.225L491.338 285.792Z" fill="#3C415E"/>
	<path d="M478.652 331.944V334.376C478.652 335.533 477.717 336.467 476.558 336.467H469.654C469.115 336.467 468.91 335.762 469.369 335.471L475.027 331.938H478.652V331.944Z" fill="#333333"/>
	<path d="M494.059 331.944V334.376C494.059 335.533 493.123 336.467 491.964 336.467H485.06C484.521 336.467 484.316 335.762 484.775 335.471L490.433 331.938H494.059V331.944Z" fill="#333333"/>
	<path d="M475.845 260.37C475.845 260.37 476.242 261.769 480.27 261.348C483.121 261.051 485.284 259.671 485.674 257.901C486.455 254.367 483.889 249.169 481.039 249.466C478.188 249.763 477.302 249.571 475.833 252.028C474.897 253.594 474.036 254.801 473.54 255.469C473.292 255.803 473.354 256.267 473.676 256.533L474.661 257.332C474.661 257.325 474.959 260.172 475.845 260.37Z" fill="#C69C6D"/>
	<path d="M475.783 252.232C475.783 252.232 472.467 250.444 472.25 247.22C472.25 247.22 475.566 249.008 476.675 248.197C477.784 247.387 481.106 244.936 485.308 246.923C489.51 248.909 487.954 251.743 487.954 251.743C487.954 251.743 489.503 253.142 489.057 255.165C488.611 257.183 487.279 259.008 484.911 259.949C484.911 259.949 486.516 254.794 484.471 253.191C482.426 251.589 482.42 255.828 482.42 255.828C482.42 255.828 481.763 250.37 475.783 252.232Z" fill="#333333"/>
	<path opacity="0.35" d="M484.49 308.868L483.245 296.813L482.358 300.359L484.49 308.868Z" fill="black"/>
	<path d="M478.639 264.133L473.576 232.003L477.71 230.988L484.353 260.977C485.754 260.581 487.241 261.366 487.669 262.79C490.445 271.961 492.54 282.536 491.66 289.04C490.204 299.839 476.328 291.225 476.328 291.225C476.867 288.799 475.9 281.212 474.927 274.869C474.301 270.804 475.776 266.818 478.639 264.133Z" fill="#4C78FF"/>
	<path d="M477.921 231.137C477.921 231.137 477.519 230.406 478.572 228.878C479.626 227.343 478.82 225.889 478.089 226.291C477.357 226.694 477.035 227.826 477.035 227.826L475.746 224.193C475.529 223.587 474.779 223.401 474.296 223.822C473.435 224.571 472.331 225.87 472.183 227.659C471.935 230.648 473.651 232.133 473.651 232.133L477.921 231.137Z" fill="#C69C6D"/>
	<path opacity="0.35" d="M478.634 264.064C478.634 264.064 479.34 267.43 481.472 268.668C483.598 269.906 484.843 267.251 484.843 267.251C484.843 267.251 484.664 270.617 480.765 269.373C476.867 268.13 478.634 264.064 478.634 264.064Z" fill="#2851B5"/>
	<path opacity="0.35" d="M475.096 275.989C475.096 275.989 475.622 278.941 481.473 281.769C481.473 281.769 478.281 281.237 477.575 280.884L478.994 282.474C478.994 282.474 475.926 281.973 475.864 281.515L475.096 275.989Z" fill="#2851B5"/>
	<path d="M37.9473 280.291H146.227C159.397 280.291 170.075 269.628 170.075 256.478C170.075 243.328 159.397 232.666 146.227 232.666H37.9473V280.291Z" fill="#DFE2E2"/>
	<path d="M165.935 237.598H37.9473V239.194H165.935V237.598Z" fill="#3C415E"/>
	<path d="M165.935 242.84H37.9473V244.436H165.935V242.84Z" fill="#3C415E"/>
	<path d="M170.726 248.081H37.9473V249.677H170.726V248.081Z" fill="#3C415E"/>
	<path d="M170.726 253.322H37.9473V254.918H170.726V253.322Z" fill="#3C415E"/>
	<path d="M170.726 258.563H37.9473V260.16H170.726V258.563Z" fill="#3C415E"/>
	<path d="M170.726 263.805H37.9473V265.401H170.726V263.805Z" fill="#3C415E"/>
	<path d="M165.935 269.041H37.9473V270.637H165.935V269.041Z" fill="#3C415E"/>
	<path d="M165.935 274.282H37.9473V275.878H165.935V274.282Z" fill="#3C415E"/>
	<path d="M36.7135 229.937H147.491C162.179 229.937 174.189 241.936 174.189 256.595C174.189 271.262 162.173 283.254 147.491 283.254H36.7135C35.381 283.254 34.3027 282.178 34.3027 280.847V280.569C34.3027 279.238 35.3811 278.162 36.7197 278.162L147.014 278.23C159 278.236 168.717 268.539 168.717 256.571C168.717 244.621 159.024 234.93 147.064 234.912L36.7197 234.751C35.3872 234.751 34.3089 233.668 34.3089 232.344C34.2965 231.013 35.381 229.937 36.7135 229.937Z" fill="#FF666A"/>
	<path d="M154.71 253.322H138.281L138.356 283.713L149.449 276.497L159.123 283.713V253.322H154.71Z" fill="#738598"/>
	<path d="M170.533 333.379H62.2527C49.0833 333.379 38.4053 322.717 38.4053 309.567C38.4053 296.417 49.0833 285.754 62.2527 285.754H170.533V333.379Z" fill="#DFE2E2"/>
	<path d="M170.533 290.68H42.5449V292.276H170.533V290.68Z" fill="#3C415E"/>
	<path d="M170.533 295.92H42.5449V297.517H170.533V295.92Z" fill="#3C415E"/>
	<path d="M170.532 301.163H37.7539V302.76H170.532V301.163Z" fill="#3C415E"/>
	<path d="M170.532 306.404H37.7539V308.001H170.532V306.404Z" fill="#3C415E"/>
	<path d="M170.532 311.646H37.7539V313.243H170.532V311.646Z" fill="#3C415E"/>
	<path d="M170.532 316.887H37.7539V318.484H170.532V316.887Z" fill="#3C415E"/>
	<path d="M170.533 322.129H42.5449V323.726H170.533V322.129Z" fill="#3C415E"/>
	<path d="M170.533 327.37H42.5449V328.967H170.533V327.37Z" fill="#3C415E"/>
	<path d="M171.773 283.02H60.995C46.3073 283.02 34.2969 295.019 34.2969 309.679C34.2969 324.345 46.3135 336.337 60.995 336.337H171.773C173.105 336.337 174.183 335.261 174.183 333.93V333.652C174.183 332.321 173.105 331.245 171.766 331.245L61.4784 331.313C49.4928 331.319 39.7753 321.622 39.7753 309.654C39.7753 297.704 49.468 288.013 61.4289 287.995L171.773 287.834C173.105 287.834 174.183 286.751 174.183 285.427C174.183 284.096 173.105 283.02 171.773 283.02Z" fill="#FF666A"/>
	<path d="M53.7696 306.405H70.205L70.1244 336.795L59.0373 329.58L49.3633 336.795V306.405H53.7696Z" fill="#738598"/>
	<path d="M399.47 12.8118L398.59 19.8478L393.744 18.5297L395.504 11.1348L399.47 12.8118Z" fill="#A67C52"/>
	<path d="M400.351 47.1262L411.053 49.5335C414.976 50.4122 417.592 54.1252 417.09 58.1104L414.443 79.2433H409.157L408.934 57.0274H383.822V46.9097L400.351 47.1262Z" fill="#738598"/>
	<path d="M385.557 56.4327C385.557 56.4327 390.651 56.804 391.662 57.2434C392.672 57.6827 392.672 59.0008 391.662 59.0008H384.9C383.915 59.0008 383.221 57.7384 383.531 56.5193L383.574 56.3584L385.557 56.4327Z" fill="#C69C6D"/>
	<path d="M394.141 17.1063L397.382 18.0779C399.148 18.6039 400.357 20.2314 400.357 22.0693V47.1255L390.682 47.8496L387.578 56.8039H383.611L385.427 48.2456L382.731 48.4498C382.731 48.4498 381.176 30.9804 389.753 18.6472C390.732 17.2363 392.498 16.6174 394.141 17.1063Z" fill="#FF666A"/>
	<path opacity="0.35" d="M382.633 43.8206L389.778 33.0469L385.155 48.2638L382.732 48.4433L382.633 43.8206Z" fill="black"/>
	<path d="M414.45 79.2427L420.945 82.9804C422.302 83.7663 421.75 85.8394 420.176 85.8394H409.604V79.2427H414.45Z" fill="#333333"/>
	<path d="M404.335 15.3985C404.335 15.3985 404.007 16.8837 400.22 16.302C397.543 15.8936 395.479 14.3527 395.058 12.4529C394.215 8.64714 396.459 3.17047 399.136 3.57271C401.813 3.97495 402.637 3.80171 404.087 6.46885C405.011 8.17062 405.854 9.48875 406.343 10.219C406.585 10.5841 406.542 11.0791 406.25 11.3514L405.352 12.1744C405.352 12.1806 405.16 15.2191 404.335 15.3985Z" fill="#C69C6D"/>
	<path d="M404.143 6.69786C404.143 6.69786 407.192 4.88471 407.298 1.44404C407.298 1.44404 404.249 3.25717 403.183 2.3475C402.117 1.43783 398.931 -1.27882 395.058 0.713793C391.185 2.70641 392.728 5.7882 392.728 5.7882C392.728 5.7882 391.321 7.23625 391.804 9.41451C392.281 11.5866 393.589 13.5792 395.839 14.6559C395.839 14.6559 394.178 9.09268 396.043 7.44042C397.909 5.78816 398.045 10.318 398.045 10.318C398.045 10.318 398.485 4.51959 404.143 6.69786Z" fill="#333333"/>
	<path d="M102.07 155.015L93.4804 157.032L81.8604 154.507L80.1252 153.121C79.8711 152.917 79.4992 153.152 79.5798 153.474L79.8401 154.507C79.8401 154.507 77.3983 155.015 75.7994 155.015C74.7892 155.015 74.281 156.024 75.7994 156.024C77.3177 156.024 84.1782 157.453 86.9175 158.548C89.446 159.557 90.5677 160.207 91.9745 160.64C92.9226 160.931 93.9267 160.962 94.8935 160.721L103.594 158.548L102.07 155.015Z" fill="#C69C6D"/>
	<path d="M131.935 155.015L140.524 157.032L152.144 154.507L153.88 153.121C154.134 152.917 154.505 153.152 154.425 153.474L154.165 154.507C154.165 154.507 156.606 155.015 158.205 155.015C159.215 155.015 159.724 156.024 158.205 156.024C156.687 156.024 149.826 157.453 147.087 158.548C144.559 159.557 143.437 160.207 142.03 160.64C141.082 160.931 140.078 160.962 139.111 160.721L130.41 158.548L131.935 155.015Z" fill="#C69C6D"/>
	<path d="M114.7 148.956L115.71 141.896H120.259C120.259 141.896 119.751 145.93 120.767 148.455C121.778 150.98 114.7 148.956 114.7 148.956Z" fill="#A67C52"/>
	<path d="M100.049 154.507L103.079 160.559L108.638 159.043C108.638 159.043 108.13 178.716 106.11 184.774C106.11 184.774 123.289 186.791 129.35 184.774L127.832 158.035L131.872 160.559L134.903 154.507C134.903 154.507 126.313 146.939 121.262 146.939C116.218 146.939 107.628 146.939 100.049 154.507Z" fill="#FFDA32"/>
	<path d="M108.28 185.003L107.127 227.659H110.659L118.239 190.325L125.31 227.158H128.849L127.838 185.003H108.28Z" fill="#3C415E"/>
	<path d="M113.69 136.344C113.69 136.344 112.339 138.832 112.68 140.886C113.188 143.912 115.711 143.912 115.711 143.912L116.721 140.886L113.69 136.344Z" fill="#C69C6D"/>
	<path d="M117.229 144.922C117.229 144.922 114.7 144.414 114.198 142.904C113.69 141.388 113.188 139.878 113.69 138.87C114.192 137.861 112.68 136.345 112.68 135.336C112.68 135.293 112.68 135.249 112.68 135.206C112.68 133.424 114.514 132.279 116.15 132.984C116.472 133.121 116.832 133.238 117.222 133.319C119.751 133.826 120.761 133.826 121.771 134.835C122.781 135.843 122.781 136.852 122.781 136.852C122.781 136.852 123.29 137.36 123.29 139.377C123.29 141.394 121.771 143.919 121.269 144.42C120.767 144.922 117.229 144.922 117.229 144.922Z" fill="#333333"/>
	<path d="M107.127 226.817L105.032 228.513C104.357 229.058 104.475 230.116 105.249 230.506L107.635 231.694H110.554C111.143 231.694 111.583 231.168 111.484 230.586L110.815 226.817H107.127Z" fill="#333333"/>
	<path d="M129.159 226.817L131.253 228.513C131.929 229.058 131.811 230.116 131.037 230.506L128.651 231.694H125.732C125.143 231.694 124.703 231.168 124.802 230.586L124.963 226.817H129.159Z" fill="#333333"/>
	<path d="M128.198 164.34L126.32 156.524L131.879 160.565L127.585 157.787L128.198 164.34Z" fill="#E59D00"/>
	<path d="M108.435 164.34L109.649 158.041L103.08 160.565L108.385 159.303L108.435 164.34Z" fill="#E59D00"/>
	<path opacity="0.32" d="M115.748 202.596L117.229 186.797L118.239 190.325L115.748 202.596Z" fill="#1A1A1A"/>
</svg>
