<svg width="38" height="8" viewBox="0 0 38 8" fill="none" xmlns="http://www.w3.org/2000/svg">
<path d="M1.72173 0.972656H0V6.9858H1.71261C2.62327 6.9858 3.28087 6.77096 3.85808 6.29162C4.544 5.72401 4.94968 4.86838 4.94968 3.98336C4.94987 2.209 3.62393 0.972656 1.72173 0.972656ZM3.09195 5.48986C2.72335 5.82265 2.24477 5.96777 1.48691 5.96777H1.17218V1.99156H1.48691C2.24477 1.99156 2.70462 2.12707 3.09195 2.47782C3.49763 2.83893 3.74158 3.39876 3.74158 3.97462C3.74158 4.55202 3.49763 5.12884 3.09195 5.48986Z" fill="#231F20"/>
<path d="M6.66319 0.972656H5.49023V6.9858H6.66319V0.972656Z" fill="#231F20"/>
<path d="M9.52962 3.28018C8.82582 3.01981 8.61914 2.848 8.61914 2.52319C8.61914 2.1443 8.98737 1.85666 9.49283 1.85666C9.84434 1.85666 10.133 2.00101 10.4386 2.34359L11.0524 1.54001C10.548 1.0988 9.94461 0.873291 9.28538 0.873291C8.22144 0.873291 7.40989 1.61214 7.40989 2.59627C7.40989 3.42473 7.78771 3.84884 8.88931 4.24521C9.34858 4.40713 9.58225 4.51499 9.70018 4.58759C9.93453 4.74059 10.0519 4.95735 10.0519 5.20975C10.0519 5.69697 9.66455 6.05789 9.14122 6.05789C8.58178 6.05789 8.13116 5.77812 7.86119 5.25595L7.10352 5.98567C7.64394 6.77887 8.29289 7.13048 9.1854 7.13048C10.4043 7.13048 11.2593 6.32008 11.2593 5.15606C11.2591 4.20064 10.8639 3.76807 9.52962 3.28018Z" fill="#231F20"/>
<path d="M11.6309 3.98332C11.6309 5.75076 13.0188 7.12127 14.8048 7.12127C15.3098 7.12127 15.7422 7.02197 16.2754 6.77092V5.39023C15.8064 5.85958 15.3912 6.04878 14.8595 6.04878C13.6782 6.04878 12.8398 5.19228 12.8398 3.97458C12.8398 2.82016 13.7048 1.9093 14.805 1.9093C15.3645 1.9093 15.7879 2.10897 16.2756 2.58591V1.2058C15.7607 0.944568 15.3375 0.836426 14.8327 0.836426C13.0553 0.836714 11.6309 2.23508 11.6309 3.98332Z" fill="#231F20"/>
<path d="M25.5744 5.01167L23.9708 0.972656H22.6895L25.2415 7.14014H25.8726L28.4703 0.972656H27.1988L25.5744 5.01167Z" fill="#231F20"/>
<path d="M29 6.9858H32.3264V5.96796H30.172V4.34486H32.247V3.32625H30.172V1.99156H32.3264V0.972656H29V6.9858Z" fill="#231F20"/>
<path d="M36.9707 2.74788C36.9707 1.62209 36.1953 0.972656 34.8426 0.972656H33.1035V6.9858H34.275V4.57027H34.428L36.0514 6.9859H37.4939L35.601 4.45252C36.4843 4.27292 36.9707 3.66863 36.9707 2.74788ZM34.6177 3.74105H34.2751V1.91982H34.6362C35.3667 1.91982 35.7639 2.2259 35.7639 2.81108C35.7639 3.41566 35.3668 3.74105 34.6177 3.74105Z" fill="#231F20"/>
<path d="M19.8571 7.19897C21.6237 7.19897 23.0559 5.76679 23.0559 4.00012C23.0559 2.23344 21.6237 0.80127 19.8571 0.80127C18.0904 0.80127 16.6582 2.23344 16.6582 4.00012C16.6582 5.76679 18.0904 7.19897 19.8571 7.19897Z" fill="url(#paint0_linear_8082:6888)"/>
<path opacity="0.65" d="M19.8571 7.19897C21.6237 7.19897 23.0559 5.76679 23.0559 4.00012C23.0559 2.23344 21.6237 0.80127 19.8571 0.80127C18.0904 0.80127 16.6582 2.23344 16.6582 4.00012C16.6582 5.76679 18.0904 7.19897 19.8571 7.19897Z" fill="url(#paint1_linear_8082:6888)"/>
<path d="M37.7195 1.19848C37.7195 1.09302 37.6469 1.0354 37.5193 1.0354H37.3496V1.56392H37.4757V1.35887L37.6236 1.56392H37.7776L37.6037 1.346C37.6785 1.32602 37.7195 1.27185 37.7195 1.19848ZM37.4971 1.2707H37.4758V1.1325H37.4985C37.5608 1.1325 37.5934 1.15497 37.5934 1.2005C37.5934 1.24708 37.5604 1.2707 37.4971 1.2707Z" fill="#231F20"/>
<path d="M37.5443 0.838135C37.2877 0.838135 37.084 1.04289 37.084 1.29885C37.084 1.5547 37.29 1.75975 37.5443 1.75975C37.7943 1.75975 37.9992 1.55239 37.9992 1.29885C37.9992 1.04635 37.7942 0.838135 37.5443 0.838135ZM37.5423 1.67734C37.3403 1.67734 37.1751 1.50927 37.1751 1.29952C37.1751 1.08909 37.3382 0.921114 37.5423 0.921114C37.7433 0.921114 37.9072 1.09293 37.9072 1.29952C37.9072 1.50745 37.7435 1.67734 37.5423 1.67734Z" fill="#231F20"/>
<defs>
<linearGradient id="paint0_linear_8082:6888" x1="21.4944" y1="6.56377" x2="19.2796" y2="3.09595" gradientUnits="userSpaceOnUse">
<stop stop-color="#F89F21"/>
<stop offset="0.2502" stop-color="#F79A23"/>
<stop offset="0.5331" stop-color="#F78E22"/>
<stop offset="0.6196" stop-color="#F68721"/>
<stop offset="0.7232" stop-color="#F48220"/>
<stop offset="1" stop-color="#F27623"/>
</linearGradient>
<linearGradient id="paint1_linear_8082:6888" x1="21.1446" y1="6.51662" x2="17.9075" y2="0.189554" gradientUnits="userSpaceOnUse">
<stop stop-color="#F68721" stop-opacity="0"/>
<stop offset="0.3587" stop-color="#E27027" stop-opacity="0.2704"/>
<stop offset="0.703" stop-color="#D4612C" stop-opacity="0.5299"/>
<stop offset="0.9816" stop-color="#D15D2D" stop-opacity="0.74"/>
</linearGradient>
</defs>
</svg>
