<svg width="16" height="16" viewBox="0 0 16 16" fill="none" xmlns="http://www.w3.org/2000/svg">
<path d="M13 14L3 14" stroke="#9FA4BB" stroke-width="1.6" stroke-linecap="round"/>
<path d="M3 11H2.2C2.2 11.4418 2.55817 11.8 3 11.8V11ZM5.5 11V11.8C5.71217 11.8 5.91566 11.7157 6.06569 11.5657L5.5 11ZM3 8.5L2.43431 7.93431C2.28429 8.08434 2.2 8.28783 2.2 8.5H3ZM10.5 1L11.0657 0.434315C10.7533 0.121895 10.2467 0.121895 9.93431 0.434315L10.5 1ZM13 3.5L13.5657 4.06569C13.8781 3.75327 13.8781 3.24673 13.5657 2.93431L13 3.5ZM3 11.8H5.5V10.2H3V11.8ZM3.8 11V8.5H2.2V11H3.8ZM3.56569 9.06569L11.0657 1.56569L9.93431 0.434315L2.43431 7.93431L3.56569 9.06569ZM9.93431 1.56569L12.4343 4.06569L13.5657 2.93431L11.0657 0.434315L9.93431 1.56569ZM12.4343 2.93431L4.93431 10.4343L6.06569 11.5657L13.5657 4.06569L12.4343 2.93431Z" fill="#9FA4BB"/>
</svg>
