<svg width="24" height="24" viewBox="0 0 24 24" fill="none" xmlns="http://www.w3.org/2000/svg">
<g clip-path="url(#clip0)">
<path d="M15.9102 12.123L24.0012 17.238V6.79199L15.9102 12.123Z" fill="#005DFF"/>
<path d="M0 6.79199V17.238L8.091 12.123L0 6.79199Z" fill="#005DFF"/>
<path d="M22.4999 3.75H1.49992C0.751422 3.75 0.157422 4.308 0.0449219 5.0265L11.9999 12.903L23.9549 5.0265C23.8424 4.308 23.2484 3.75 22.4999 3.75Z" fill="#005DFF"/>
<path d="M14.5339 13.0291L12.4114 14.4271C12.2854 14.5096 12.1429 14.5501 11.9989 14.5501C11.8549 14.5501 11.7124 14.5096 11.5864 14.4271L9.46388 13.0276L0.046875 18.9841C0.162375 19.6966 0.753375 20.2501 1.49888 20.2501H22.4989C23.2444 20.2501 23.8354 19.6966 23.9509 18.9841L14.5339 13.0291Z" fill="#005DFF"/>
</g>
<defs>
<clipPath id="clip0">
<rect width="24" height="24" fill="white"/>
</clipPath>
</defs>
</svg>
