<svg width="48" height="48" viewBox="0 0 48 48" fill="none" xmlns="http://www.w3.org/2000/svg">
	<path d="M29.1923 12.7098L26.1447 12.7051C22.7209 12.7051 20.5082 14.887 20.5082 18.2641V20.8271H17.444C17.1793 20.8271
	 16.9648 21.0335 16.9648 21.288V25.0016C16.9648 25.2561 17.1795 25.4621 17.444 25.4621H20.5082V34.8327C20.5082 35.0872
	  20.7226 35.2933 20.9874 35.2933H24.9853C25.2501 35.2933 25.4645 35.087 25.4645 34.8327V25.4621H29.0473C29.3121 25.4621
	   29.5265 25.2561 29.5265 25.0016L29.5279 21.288C29.5279 21.1658 29.4773 21.0487 29.3876 20.9623C29.2979 20.8758 29.1756
	    20.8271 29.0485 20.8271H25.4645V18.6544C25.4645 17.6101 25.7234 17.0799 27.1388 17.0799L29.1918 17.0792C29.4563 17.0792
	     29.6707 16.8729 29.6707 16.6187V13.1704C29.6707 12.9163 29.4566 12.7102 29.1923 12.7098Z" fill="#005DFF"/>
</svg>

