<svg width="32" height="36" viewBox="0 0 32 36" fill="none" xmlns="http://www.w3.org/2000/svg">
<g filter="url(#filter0_d)">
<path d="M19.3165 13.1821C16.6391 11.5531 17.8946 9.25398 17.9485 9.15842C18.0267 9.02242 18.0264 8.85511 17.9478 8.71935C17.8693 8.58358 17.7243 8.5 17.5675 8.5C16.1893 8.5 15.11 8.89158 14.3598 9.66394C13.0778 10.9836 13.1372 13.0375 13.1626 13.9146C13.1655 14.0117 13.1679 14.0957 13.1679 14.158C13.1679 14.8093 13.2723 15.4104 13.3645 15.9409C13.424 16.2827 13.4753 16.5779 13.4844 16.8099C13.4941 17.0584 13.4488 17.1153 13.4469 17.1176C13.4404 17.1254 13.3865 17.154 13.2407 17.154C13.0745 17.154 12.952 17.0997 12.8434 16.978C12.4193 16.5024 12.39 15.2039 12.471 14.4975C12.4855 14.3729 12.4461 14.2481 12.3627 14.1545C12.2794 14.0608 12.1599 14.0073 12.0346 14.0073C10.8936 14.0073 10.041 15.8731 10.041 17.5414C10.041 18.3257 10.1988 19.0939 10.5099 19.8248C10.8106 20.5314 11.2395 21.1691 11.7846 21.7202C12.9199 22.8679 14.4167 23.5 15.9994 23.5C17.5886 23.5 19.085 22.8769 20.2132 21.7454C21.3385 20.6169 21.9583 19.1239 21.9583 17.5414C21.9583 15.5222 20.3784 13.8281 19.3165 13.1821Z" fill="white"/>
</g>
<defs>
<filter id="filter0_d" x="-2" y="0" width="36" height="36" filterUnits="userSpaceOnUse" color-interpolation-filters="sRGB">
<feFlood flood-opacity="0" result="BackgroundImageFix"/>
<feColorMatrix in="SourceAlpha" type="matrix" values="0 0 0 0 0 0 0 0 0 0 0 0 0 0 0 0 0 0 127 0"/>
<feOffset dy="2"/>
<feGaussianBlur stdDeviation="5"/>
<feColorMatrix type="matrix" values="0 0 0 0 0.229109 0 0 0 0 0.229109 0 0 0 0 0.229109 0 0 0 0.7 0"/>
<feBlend mode="normal" in2="BackgroundImageFix" result="effect1_dropShadow"/>
<feBlend mode="normal" in="SourceGraphic" in2="effect1_dropShadow" result="shape"/>
</filter>
</defs>
</svg>
