<svg width="32" height="32" viewBox="0 0 32 32" fill="none" xmlns="http://www.w3.org/2000/svg">
<path d="M3.33329 24.666L9.7704 18.2289C10.5519 17.4474 10.9427 17.0566 11.3942 16.9077C11.7915 16.7767 12.2199 16.7735 12.619 16.8986C13.0727 17.0409 13.4692 17.4258 14.2622 18.1957L19.3148 23.1012M28.6666 23.5827L26.0127 20.9288C25.2207 20.1367 24.8247 19.7407 24.368 19.5923C23.9663 19.4618 23.5336 19.4618 23.1319 19.5923C22.6753 19.7407 22.2792 20.1368 21.4871 20.9289C20.3413 22.0747 19.3148 23.1012 19.3148 23.1012M24.6666 28.453L19.3148 23.1012M24 11.9993V7.99935M24 7.99935V3.99935M24 7.99935H20M24 7.99935H28M16 2.66602H15.3333H12.2666C8.90631 2.66602 7.22615 2.66602 5.94268 3.31998C4.81371 3.89522 3.89583 4.8131 3.32059 5.94207C2.66663 7.22554 2.66663 8.9057 2.66663 12.266V19.7327C2.66663 23.093 2.66663 24.7732 3.32059 26.0566C3.89583 27.1856 4.81371 28.1035 5.94268 28.6787C7.22615 29.3327 8.90631 29.3327 12.2666 29.3327H19.7333C23.0936 29.3327 24.7738 29.3327 26.0572 28.6787C27.1862 28.1035 28.1041 27.1856 28.6793 26.0566C29.3333 24.7732 29.3333 23.093 29.3333 19.7327V16.666V15.9993" stroke="black" stroke-width="1.5" stroke-linecap="round" stroke-linejoin="round"/>
</svg>
