<svg width="48" height="48" viewBox="0 0 48 48" fill="none" xmlns="http://www.w3.org/2000/svg">
	<path fill-rule="evenodd" clip-rule="evenodd" d="M19.7815 12.7051H28.2521C32.15 12.7051 35.3109 15.866 35.3109 19.7639V28.2345C35.3109 32.1324 32.15 35.2933 28.2521 35.2933H19.7815C15.8836 35.2933 12.7227 32.1324 12.7227 28.2345V19.7639C12.7227 15.866 15.8836 12.7051 19.7815 12.7051ZM28.2438 33.1741C30.9685 33.1741 33.185 30.9576 33.185 28.2329V19.7623C33.185 17.0376 30.9685 14.8211 28.2438 14.8211H19.7732C17.0485 14.8211 14.832 17.0376 14.832 19.7623V28.2329C14.832 30.9576 17.0485 33.1741 19.7732 33.1741H28.2438ZM18.3594 23.9995C18.3594 20.8809 20.8878 18.3525 24.0064 18.3525C27.125 18.3525 29.6535 20.8809 29.6535 23.9995C29.6535 27.1181 27.125 29.6466 24.0064 29.6466C20.8878 29.6466 18.3594 27.1181 18.3594 23.9995ZM20.4682 23.9986C20.4682 25.9441 22.0522 27.5281 23.9976 27.5281C25.943 27.5281 27.527 25.9441 27.527 23.9986C27.527 22.0518 25.943 20.4692 23.9976 20.4692C22.0522 20.4692 20.4682 22.0518 20.4682 23.9986ZM30.1188 19.2942C30.8985 19.2942 31.5306 18.6622 31.5306 17.8825C31.5306 17.1028 30.8985 16.4707 30.1188 16.4707C29.3391 16.4707 28.707 17.1028 28.707 17.8825C28.707 18.6622 29.3391 19.2942 30.1188 19.2942Z" fill="#005DFF"/>
</svg>
