<svg width="24" height="24" viewBox="0 0 24 24" fill="none" xmlns="http://www.w3.org/2000/svg">
<path d="M11.501 18V14C11.501 12.3431 12.8441 11 14.501 11V11C16.1578 11 17.501 12.3431 17.501 14V18M7.50098 18V11M8.00098 7.5C8.00098 7.77614 7.77712 8 7.50098 8C7.22483 8 7.00098 7.77614 7.00098 7.5M8.00098 7.5C8.00098 7.22386 7.77712 7 7.50098 7C7.22483 7 7.00098 7.22386 7.00098 7.5M8.00098 7.5H7.00098M22.001 10V9.5V9.5C22.001 7.17029 22.001 6.00544 21.6204 5.08658C21.1129 3.86144 20.1395 2.88807 18.9144 2.3806C17.9955 2 16.8307 2 14.501 2H10.001C7.20071 2 5.80058 2 4.73102 2.54497C3.79021 3.02433 3.02531 3.78924 2.54594 4.73005C2.00098 5.79961 2.00098 7.19974 2.00098 10V14C2.00098 16.8003 2.00098 18.2004 2.54594 19.27C3.02531 20.2108 3.79021 20.9757 4.73102 21.455C5.80058 22 7.20071 22 10.001 22H14.501C16.8307 22 17.9955 22 18.9144 21.6194C20.1395 21.1119 21.1129 20.1386 21.6204 18.9134C22.001 17.9946 22.001 16.8297 22.001 14.5V14.5V14" stroke="#2F384C" stroke-width="1.5" stroke-linecap="round" stroke-linejoin="round"/>
</svg>
