<svg width="16" height="16" viewBox="0 0 16 16" fill="none" xmlns="http://www.w3.org/2000/svg">
<path fill-rule="evenodd" clip-rule="evenodd" d="M11.3327 5.66667H11.9993C12.7327 5.66667 13.3327 6.26667 13.3327 7V13.6667C13.3327 14.4 12.7327 15 11.9993 15H3.99935C3.26602 15 2.66602 14.4 2.66602 13.6667V7C2.66602 6.26667 3.26602 5.66667 3.99935 5.66667H4.66602V4.33333C4.66602 2.49333 6.15935 1 7.99935 1C9.83935 1 11.3327 2.49333 11.3327 4.33333V5.66667ZM7.99937 2.33333C6.89271 2.33333 5.99937 3.22667 5.99937 4.33333V5.66667H9.99937V4.33333C9.99937 3.22667 9.10604 2.33333 7.99937 2.33333ZM11.9994 13.6667H3.99937V7H11.9994V13.6667ZM9.33268 10.3333C9.33268 11.0667 8.73268 11.6667 7.99935 11.6667C7.26601 11.6667 6.66601 11.0667 6.66601 10.3333C6.66601 9.6 7.26601 9 7.99935 9C8.73268 9 9.33268 9.6 9.33268 10.3333Z" fill="#9FA4BB"/>
</svg>
