<svg width="28" height="30" viewBox="0 0 28 30" fill="none" xmlns="http://www.w3.org/2000/svg">
<path d="M27.7528 6.65551L14.1903 0.108099C14.0701 0.0501079 13.93 0.0501079 13.8099 0.108099L0.247309 6.65551C0.0960882 6.7285 0 6.88164 0 7.04955V22.9504C0 23.1183 0.0960882 23.2715 0.247309 23.3445L13.8098 29.8919C13.8699 29.9209 13.935 29.9354 14 29.9354C14.0651 29.9354 14.1301 29.9209 14.1903 29.8919L27.7528 23.3445C27.904 23.2715 28.0001 23.1183 28.0001 22.9504V7.04961C28.0001 6.88159 27.9039 6.72856 27.7528 6.65551ZM14 0.988061L26.5561 7.04955L22.9163 8.80667C22.8933 8.78911 22.869 8.77289 22.8423 8.76L10.3715 2.73976L14 0.988061ZM9.38333 3.23449L21.9211 9.28717L19.3532 10.5269L6.82062 4.47664L9.38333 3.23449ZM22.2144 10.1173V14.6997L19.8159 15.8577V11.2752L22.2144 10.1173ZM27.125 22.6759L14.4376 28.8007V13.8716L17.4639 12.4106C17.6816 12.3055 17.7728 12.044 17.6677 11.8263C17.5627 11.6087 17.3011 11.5174 17.0834 11.6225L14 13.1111L12.7868 12.5253C12.5691 12.4202 12.3076 12.5115 12.2025 12.7291C12.0974 12.9467 12.1887 13.2084 12.4063 13.3134L13.5625 13.8716V28.8007L0.87512 22.6757V7.74667L10.5364 12.4108C10.5978 12.4404 10.6626 12.4544 10.7263 12.4544C10.889 12.4544 11.0452 12.3633 11.1207 12.207C11.2257 11.9894 11.1345 11.7278 10.9169 11.6227L1.44401 7.04955L5.79073 4.95113L18.9347 11.2965C18.9366 11.2992 18.9388 11.3016 18.9407 11.3042V16.5549C18.9407 16.7054 19.0182 16.8454 19.1457 16.9255C19.2165 16.97 19.2973 16.9924 19.3784 16.9924C19.4432 16.9924 19.5083 16.978 19.5686 16.9489L22.8423 15.3685C22.9935 15.2955 23.0896 15.1424 23.0896 14.9745V9.69486L27.125 7.74673V22.6759Z" fill="#556274"/>
</svg>
