<svg xmlns="http://www.w3.org/2000/svg" xmlns:xlink="http://www.w3.org/1999/xlink" id="Layer_2" data-name="Layer 2" viewBox="0 0 2468.69 821">
	<defs>
		<style>
			.cls-1 {
				fill: #fff;
			}

			.cls-1, .cls-2 {
				stroke-width: 0px;
			}

			.cls-2 {
				fill: url(#_Безымянный_градиент_13);
			}
		</style>
		<linearGradient id="_Безымянный_градиент_13" data-name="Безымянный градиент 13" x1="305.09" y1="325.19" x2="649.07" y2="325.19" gradientUnits="userSpaceOnUse">
			<stop offset="0" stop-color="#fff" stop-opacity="0"/>
			<stop offset=".85" stop-color="#fff"/>
		</linearGradient>
	</defs>
	<g id="_Слой_1" data-name="Слой 1">
		<g>
			<g>
				<path class="cls-1" d="m476.23,0C315.96,0,182.38,116.63,155.92,269.48c-3.21,18.1-4.83,36.73-4.83,55.72s1.62,37.6,4.83,55.72h123.6c-5.02-17.74-7.71-36.4-7.71-55.72s2.69-37.98,7.71-55.72c24.32-85.75,103.3-148.76,196.72-148.76,69.55,0,131.11,34.91,168.08,88.12h135.57C732.99,86.82,614.54,0,476.23,0"/>
				<path class="cls-2" d="m312.11,269.47c-4.6,17.28-7.02,35.48-7.02,54.19,0,19.83,2.74,39.05,7.8,57.25h336.17l-12.45-111.44h-324.51Z"/>
				<path class="cls-1" d="m801.43,325.19c0,179.31-145.88,325.19-325.19,325.19-159.9,0-293.25-116.12-320.13-268.46-.04-.33-.14-.7-.18-1.02h123.6c.1.32.18.69.32,1.02,24.65,85.24,103.36,147.74,196.4,147.74s172.44-63.01,196.77-148.76h-51.86l-12.45-111.44h64.31c-.04-.1-.04-.18-.1-.28h123.64c3.21,18.2,4.88,36.91,4.88,55.99"/>
				<path class="cls-1" d="m271.75,325.18c0,19.33,2.7,38,7.7,55.69H0l40.61-111.39h238.83c-4.99,17.69-7.7,36.36-7.7,55.69Z"/>
			</g>
			<g>
				<rect class="cls-1" x="877.52" y="14.91" width="105.6" height="629.2"/>
				<path class="cls-1" d="m1268.18,175.88c-70.05,0-127.5,22.08-170.74,65.61-43.22,43.54-65.14,101.12-65.14,171.16s21.92,128.37,65.16,171.61c43.23,43.23,100.67,65.16,170.73,65.16s127.49-21.92,170.72-65.16c43.23-43.23,65.16-100.97,65.16-171.61s-21.92-127.62-65.15-171.16c-43.24-43.53-100.69-65.61-170.73-65.61Zm93.05,341.8c-23.36,26.74-54.67,40.29-93.05,40.29s-69.54-13.55-92.6-40.27c-23.25-26.92-35.04-62.26-35.04-105.05s11.79-78.12,35.04-105.06c23.06-26.71,54.22-40.26,92.6-40.26s69.68,13.55,93.05,40.28c23.53,26.96,35.46,62.3,35.46,105.04s-11.93,78.09-35.46,105.03Z"/>
				<path class="cls-1" d="m1800.61,175.88c-58.25,0-105.87,21.24-141.78,63.17V14.91h-105.6v629.2h102.62v-58.15c33.73,42.12,82.37,63.45,144.76,63.45s116.67-22.11,157.58-65.72c40.81-43.52,61.51-101.06,61.51-171.04s-20.56-130.52-61.11-172.86c-40.6-42.41-93.75-63.91-157.97-63.91Zm111.71,236.77c0,43.35-11.93,78.98-35.46,105.91-23.35,26.74-54.37,40.29-92.17,40.29s-68.63-13.69-91.69-40.69c-23.26-27.22-35.06-63.02-35.06-106.4s11.78-77.96,35.02-104.59c23.06-26.43,53.92-39.84,91.72-39.84s68.81,13.55,92.17,40.28c23.53,26.96,35.46,62.29,35.46,105.04Z"/>
				<path class="cls-1" d="m2356.05,181.19l-119.46,334.3-122.89-334.3h-112.57l177.94,460.5-17,42.48c-6.72,17.92-13.48,29.69-20.09,34.98-6.45,5.14-18.34,7.75-35.34,7.75h-72.26v94.1h107.64c32.52,0,56.95-8.26,72.62-24.55,15.34-15.98,30.45-43.73,46.16-84.79l207.89-530.48h-112.64Z"/>
			</g>
		</g>
	</g>
</svg>
