<svg width="34" height="20" viewBox="0 0 34 20" fill="none" xmlns="http://www.w3.org/2000/svg">
<path d="M21.3742 17.8632H12.625V2.1394H21.3742V17.8632Z" fill="#6C6BBD"/>
<path d="M13.1855 10C13.1855 6.81035 14.6789 3.9691 17.0046 2.13809C15.3039 0.799161 13.1575 4.01392e-07 10.8249 4.01392e-07C5.30262 4.01392e-07 0.826172 4.47708 0.826172 10C0.826172 15.5229 5.30262 20 10.8249 20C13.1575 20 15.3039 19.2008 17.0046 17.8619C14.6789 16.0309 13.1855 13.1896 13.1855 10Z" fill="#EB001B"/>
<path d="M33.1732 10C33.1732 15.5229 28.6967 20 23.1744 20C20.8418 20 18.6955 19.2008 16.9941 17.8619C19.3204 16.0309 20.8138 13.1896 20.8138 10C20.8138 6.81035 19.3204 3.9691 16.9941 2.13809C18.6955 0.799161 20.8418 4.01392e-07 23.1744 4.01392e-07C28.6967 4.01392e-07 33.1732 4.47708 33.1732 10Z" fill="#0099DF"/>
<path d="M26.0146 8.29051C26.1578 8.29051 26.3635 8.31789 26.5208 8.3797L26.3017 9.04941C26.1515 8.9876 26.0013 8.96726 25.8573 8.96726C25.3926 8.96726 25.1602 9.26769 25.1602 9.80753V11.6398H24.4491V8.37265H25.1532V8.76932C25.3378 8.48219 25.6046 8.29051 26.0146 8.29051V8.29051ZM23.3874 9.02202H22.2256V10.4984C22.2256 10.8262 22.3413 11.0452 22.6973 11.0452C22.882 11.0452 23.1143 10.9834 23.3256 10.8606L23.5305 11.4685C23.3052 11.6258 22.95 11.722 22.6426 11.722C21.8015 11.722 21.5081 11.2706 21.5081 10.5117V9.02202H20.8447V8.37265H21.5081V7.38139H22.2256V8.37265H23.3874V9.02202ZM14.2892 9.71912C14.3651 9.24735 14.6514 8.92579 15.1576 8.92579C15.6153 8.92579 15.9095 9.21292 15.9846 9.71912H14.2892ZM16.7231 10.0062C16.7161 8.9876 16.0871 8.29051 15.1709 8.29051C14.2141 8.29051 13.5443 8.9876 13.5443 10.0062C13.5443 11.0445 14.2414 11.7212 15.2194 11.7212C15.7115 11.7212 16.1622 11.5984 16.5588 11.2635L16.2099 10.737C15.9368 10.956 15.5879 11.0789 15.2601 11.0789C14.8024 11.0789 14.3854 10.8669 14.2829 10.2793H16.709C16.7161 10.1901 16.7231 10.1017 16.7231 10.0062V10.0062ZM19.8464 9.20666C19.6484 9.08305 19.2455 8.92579 18.8285 8.92579C18.4389 8.92579 18.2065 9.06975 18.2065 9.30915C18.2065 9.52744 18.4522 9.58924 18.7596 9.62993L19.0945 9.67765C19.8057 9.78092 20.236 10.0814 20.236 10.6556C20.236 11.2776 19.6891 11.722 18.7463 11.722C18.2128 11.722 17.7207 11.5851 17.331 11.2979L17.6659 10.744C17.9053 10.9287 18.2613 11.0859 18.7534 11.0859C19.2385 11.0859 19.4982 10.9427 19.4982 10.6893C19.4982 10.5054 19.3136 10.4021 18.9239 10.3481L18.5891 10.3004C17.8576 10.1971 17.4609 9.86933 17.4609 9.33654C17.4609 8.68717 17.9945 8.29051 18.8215 8.29051C19.3409 8.29051 19.8127 8.40708 20.1538 8.6324L19.8464 9.20666ZM28.6128 8.96569C28.4665 8.96569 28.3312 8.99151 28.2052 9.04237C28.08 9.094 27.9713 9.16598 27.8798 9.2583C27.7882 9.35062 27.7162 9.46172 27.6638 9.59081C27.6114 9.7199 27.5856 9.86229 27.5856 10.0172C27.5856 10.1729 27.6114 10.3145 27.6638 10.4436C27.7162 10.5727 27.7882 10.6838 27.8798 10.7761C27.9713 10.8684 28.08 10.9404 28.2052 10.992C28.3312 11.0437 28.4665 11.0687 28.6128 11.0687C28.7591 11.0687 28.8953 11.0437 29.0205 10.992C29.1464 10.9404 29.2559 10.8684 29.3475 10.7761C29.4406 10.6838 29.5126 10.5727 29.5658 10.4436C29.6182 10.3145 29.644 10.1729 29.644 10.0172C29.644 9.86229 29.6182 9.7199 29.5658 9.59081C29.5126 9.46172 29.4406 9.35062 29.3475 9.2583C29.2559 9.16598 29.1464 9.094 29.0205 9.04237C28.8953 8.99151 28.7591 8.96569 28.6128 8.96569V8.96569ZM28.6128 8.29051C28.8663 8.29051 29.101 8.33432 29.317 8.42273C29.5329 8.51035 29.7199 8.63162 29.8772 8.78575C30.0352 8.93987 30.158 9.12217 30.2472 9.33184C30.3364 9.5423 30.381 9.77075 30.381 10.0172C30.381 10.2636 30.3364 10.4921 30.2472 10.7026C30.158 10.9122 30.0352 11.0953 29.8772 11.2494C29.7199 11.4036 29.5329 11.524 29.317 11.6125C29.101 11.7001 28.8663 11.7439 28.6128 11.7439C28.3594 11.7439 28.1246 11.7001 27.9087 11.6125C27.6928 11.524 27.5073 11.4036 27.3509 11.2494C27.1944 11.0953 27.0716 10.9122 26.9824 10.7026C26.8932 10.4921 26.8486 10.2636 26.8486 10.0172C26.8486 9.77075 26.8932 9.5423 26.9824 9.33184C27.0716 9.12217 27.1944 8.93987 27.3509 8.78575C27.5073 8.63162 27.6928 8.51035 27.9087 8.42273C28.1246 8.33432 28.3594 8.29051 28.6128 8.29051V8.29051ZM10.1363 10.0062C10.1363 9.43199 10.5127 8.96022 11.1276 8.96022C11.7152 8.96022 12.1118 9.41164 12.1118 10.0062C12.1118 10.6009 11.7152 11.0515 11.1276 11.0515C10.5127 11.0515 10.1363 10.5805 10.1363 10.0062V10.0062ZM12.7815 10.0062V8.37265H12.0711V8.76932C11.845 8.47515 11.5039 8.29051 11.0392 8.29051C10.123 8.29051 9.4056 9.00794 9.4056 10.0062C9.4056 11.0038 10.123 11.722 11.0392 11.722C11.5039 11.722 11.845 11.5374 12.0711 11.2432V11.6398H12.7815V10.0062ZM8.77657 11.6398V9.58924C8.77657 8.81704 8.28446 8.29755 7.49192 8.29051C7.07491 8.28346 6.64383 8.41334 6.3434 8.87181C6.11807 8.50957 5.76209 8.29051 5.26294 8.29051C4.91478 8.29051 4.57289 8.393 4.3061 8.77558V8.37265H3.5957V11.6398H4.31314V9.82865C4.31314 9.26143 4.62765 8.96022 5.11272 8.96022C5.58449 8.96022 5.8239 9.26769 5.8239 9.82161V11.6398H6.54134V9.82865C6.54134 9.26143 6.86993 8.96022 7.34092 8.96022C7.82677 8.96022 8.05914 9.26769 8.05914 9.82161V11.6398H8.77657Z" fill="white"/>
</svg>
