<svg width="540" height="373" viewBox="0 0 540 373" fill="none" xmlns="http://www.w3.org/2000/svg">
	<path d="M341.521 134.854H339.295V218.531H341.521V134.854Z" fill="#7D7D7D"/>
	<path d="M167.605 49.2554H101.346V82.6737H167.605V49.2554Z" fill="#C9C9C9"/>
	<path d="M257.976 4.00928L256.939 5.26925C256.996 5.3151 262.701 10.0085 273.154 17.3942C282.793 24.2059 298.568 34.7737 318.978 46.4437C341.915 59.559 365.913 71.3649 390.307 81.5328C420.8 94.2447 451.999 104.418 483.038 111.773L483.413 110.183C413.329 93.5771 355.768 65.5949 319.824 45.0462C280.87 22.7771 258.202 4.19452 257.976 4.00928Z" fill="#7D7D7D"/>
	<path d="M256.352 0C256.348 0 256.342 0 256.339 0C254.415 0.00550216 252.814 1.26551 252.354 3.13441L231.732 86.9525L236.155 88.0437L256.355 5.93685L277.195 88.5664L281.61 87.4495L260.34 3.11055C259.871 1.24898 258.27 0 256.352 0Z" fill="#DFE8F5"/>
	<path d="M257.458 4.63977C257.158 5.28719 257.44 6.05564 258.085 6.35459L483.226 110.978L484.313 108.634L259.171 4.01071C258.526 3.71176 257.759 3.99235 257.458 4.63977Z" fill="#DFE8F5"/>
	<path d="M125.516 82.6719H117.252V360.742H125.516V82.6719Z" fill="#DFE8F5"/>
	<path d="M131.174 82.6719H125.516V360.742H131.174V82.6719Z" fill="#C9C9C9"/>
	<path d="M52.9731 148.664C45.367 148.664 39.1787 142.469 39.1787 134.854H37.1562C37.1562 143.585 44.2514 150.689 52.9731 150.689C61.6949 150.689 68.79 143.585 68.79 134.854H66.7694C66.7676 142.469 60.5793 148.664 52.9731 148.664Z" fill="#7D7D7D"/>
	<path d="M82.5835 148.664C74.9773 148.664 68.7891 142.469 68.7891 134.854H66.7686C66.7686 143.585 73.8636 150.689 82.5854 150.689C91.3072 150.689 98.4022 143.585 98.4022 134.854H96.3797C96.3779 142.469 90.1896 148.664 82.5835 148.664Z" fill="#7D7D7D"/>
	<path d="M112.196 148.664C104.59 148.664 98.4014 142.469 98.4014 134.854H96.3789C96.3789 143.585 103.474 150.689 112.196 150.689C120.918 150.689 128.013 143.585 128.013 134.854H125.992C125.99 142.469 119.802 148.664 112.196 148.664Z" fill="#7D7D7D"/>
	<path d="M141.807 148.664C134.201 148.664 128.013 142.469 128.013 134.854H125.992C125.992 143.585 133.087 150.689 141.809 150.689C150.531 150.689 157.626 143.585 157.626 134.854H155.603C155.603 142.469 149.415 148.664 141.807 148.664Z" fill="#7D7D7D"/>
	<path d="M171.419 148.664C163.812 148.664 157.624 142.469 157.624 134.854H155.604C155.604 143.585 162.699 150.689 171.42 150.689C180.142 150.689 187.237 143.585 187.237 134.854H185.217C185.215 142.469 179.027 148.664 171.419 148.664Z" fill="#7D7D7D"/>
	<path d="M201.03 148.664C193.424 148.664 187.235 142.469 187.235 134.854H185.215C185.215 143.585 192.31 150.689 201.032 150.689C209.753 150.689 216.849 143.585 216.849 134.854H214.826C214.824 142.469 208.636 148.664 201.03 148.664Z" fill="#7D7D7D"/>
	<path d="M125.516 273.274L277.593 93.2929V82.6719L125.516 262.655V273.274Z" fill="#DFE8F5"/>
	<path d="M277.592 82.6719H269.328V360.742H277.592V82.6719Z" fill="#DFE8F5"/>
	<path d="M283.251 82.6719H277.592V360.742H283.251V82.6719Z" fill="#C9C9C9"/>
	<path d="M68.4517 107.877L55.2637 130.522H502.175L486.013 107.877H68.4517ZM59.369 128.349L70.4082 109.806L83.7592 128.349H59.369ZM73.5206 109.806H97.1506L86.1627 128.349L73.5206 109.806ZM88.896 128.349L99.9351 109.806L113.286 128.349H88.896ZM103.046 109.806H126.676L115.688 128.349L103.046 109.806ZM118.421 128.349L129.46 109.806L142.811 128.349H118.421ZM132.571 109.806H156.201L145.213 128.349L132.571 109.806ZM147.948 128.349L158.987 109.806L172.338 128.349H147.948ZM162.098 109.806H185.728L174.74 128.349L162.098 109.806ZM177.473 128.349L188.512 109.806L201.864 128.349H177.473ZM191.623 109.806H215.253L204.265 128.349L191.623 109.806ZM206.998 128.349L218.038 109.806L231.389 128.349H206.998ZM221.15 109.806H244.78L233.792 128.349L221.15 109.806ZM236.525 128.349L247.563 109.806L260.914 128.349H236.525ZM250.675 109.806H274.307L263.319 128.349L250.675 109.806ZM266.05 128.349L277.088 109.806L290.439 128.349H266.05ZM280.202 109.806H303.832L292.844 128.349L280.202 109.806ZM295.577 128.349L306.617 109.806L319.968 128.349H295.577ZM309.727 109.806H333.357L322.371 128.349L309.727 109.806ZM325.103 128.349L336.14 109.806L349.491 128.349H325.103ZM339.252 109.806H362.884L351.896 128.349L339.252 109.806ZM354.628 128.349L365.665 109.806L379.016 128.349H354.628ZM368.779 109.806H392.409L381.421 128.349L368.779 109.806ZM384.155 128.349L395.194 109.806L408.545 128.349H384.155ZM398.305 109.806H421.935L410.947 128.349L398.305 109.806ZM413.68 128.349L424.717 109.806L438.068 128.349H413.68ZM427.831 109.806H451.463L440.475 128.349L427.831 109.806ZM443.207 128.349L454.244 109.806L467.595 128.349H443.207ZM457.357 109.806H480.987L469.999 128.349L457.357 109.806ZM472.732 128.349L483.771 109.806L497.122 128.349H472.732Z" fill="#C9C9C9"/>
	<path d="M35.0977 130.522H482.009L486.015 107.877H68.4515L35.0977 130.522ZM478.891 128.349H454.5L482.051 109.806L478.891 128.349ZM479.27 109.806L451.769 128.349L455.638 109.806H479.27ZM449.366 128.349H424.975L452.526 109.806L449.366 128.349ZM449.743 109.806L422.242 128.349L426.111 109.806H449.743ZM419.84 128.349H395.45L423 109.806L419.84 128.349ZM420.218 109.806L392.717 128.349L396.586 109.806H420.218ZM390.313 128.349H365.923L393.473 109.806L390.313 128.349ZM390.691 109.806L363.19 128.349L367.059 109.806H390.691ZM360.788 128.349H336.398L363.948 109.806L360.788 128.349ZM361.166 109.806L333.665 128.349L337.534 109.806H361.166ZM331.261 128.349H306.873L334.423 109.806L331.261 128.349ZM331.639 109.806L304.14 128.349L308.009 109.806H331.639ZM301.736 128.349H277.346L304.896 109.806L301.736 128.349ZM302.113 109.806L274.613 128.349L278.482 109.806H302.113ZM272.211 128.349H247.821L275.371 109.806L272.211 128.349ZM272.588 109.806L245.088 128.349L248.957 109.806H272.588ZM242.684 128.349H218.294L245.844 109.806L242.684 128.349ZM243.061 109.806L215.561 128.349L219.43 109.806H243.061ZM213.159 128.349H188.769L216.319 109.806L213.159 128.349ZM213.536 109.806L186.035 128.349L189.904 109.806H213.536ZM183.632 128.349H159.242L186.792 109.806L183.632 128.349ZM184.009 109.806L156.51 128.349L160.379 109.806H184.009ZM154.107 128.349H129.717L157.267 109.806L154.107 128.349ZM154.484 109.806L126.985 128.349L130.854 109.806H154.484ZM124.58 128.349H100.19L127.74 109.806L124.58 128.349ZM124.959 109.806L97.4582 128.349L101.327 109.806H124.959ZM95.0547 128.349H70.6645L98.2148 109.806L95.0547 128.349ZM95.4321 109.806L67.933 128.349L71.8021 109.806H95.4321ZM65.5296 128.349H41.1393L68.6897 109.806L65.5296 128.349Z" fill="#DFE8F5"/>
	<path d="M84.6671 82.6719H76.4033V360.742H84.6671V82.6719Z" fill="#DFE8F5"/>
	<path d="M502.174 130.522H35.0977V134.854H502.174V130.522Z" fill="#DFE8F5"/>
	<path d="M90.3238 82.6719H84.665V360.742H90.3238V82.6719Z" fill="#C9C9C9"/>
	<path d="M236.744 82.6719H228.48V360.742H236.744V82.6719Z" fill="#DFE8F5"/>
	<path d="M242.401 82.6719H236.742V360.742H242.401V82.6719Z" fill="#C9C9C9"/>
	<path d="M236.744 82.6719H76.4033V93.291H236.744V82.6719Z" fill="#DFE8F5"/>
	<path d="M283.249 82.6719H236.742V93.291H283.249V82.6719Z" fill="#C9C9C9"/>
	<path d="M236.744 273.274H76.4033V283.893H236.744V273.274Z" fill="#DFE8F5"/>
	<path d="M84.665 273.274L236.742 93.2929V82.6719L84.665 262.655V273.274Z" fill="#DFE8F5"/>
	<path d="M290.46 130.522H264.888V134.854H290.46V130.522Z" fill="#D84C3D"/>
	<path d="M334.857 130.522H309.285V134.854H334.857V130.522Z" fill="#D84C3D"/>
	<path d="M379.251 130.522H353.68V134.854H379.251V130.522Z" fill="#D84C3D"/>
	<path d="M423.648 130.522H398.076V134.854H423.648V130.522Z" fill="#D84C3D"/>
	<path d="M468.045 130.522H442.473V134.854H468.045V130.522Z" fill="#D84C3D"/>
	<path d="M482.008 130.522L482.391 134.854H502.174V130.522L486.014 107.877L482.008 130.522Z" fill="#C9C9C9"/>
	<path d="M502.174 130.522H482.008V134.854H502.174V130.522Z" fill="#D84C3D"/>
	<path d="M255.223 0.710909L103.063 84.6987L105.262 88.6915L257.422 4.70364L255.223 0.710909Z" fill="#DFE8F5"/>
	<path d="M101.346 49.2554H64.0039V82.6737H101.346V49.2554Z" fill="#DFE8F5"/>
	<path d="M507.353 125.877H488.345V134.855H507.353V125.877Z" fill="#7D7D7D"/>
	<path d="M502.298 299.717H246.835V305.509H502.298V299.717Z" fill="white"/>
	<path d="M502.298 211.845H246.835V299.717H502.298V211.845Z" fill="#CFC8BE"/>
	<path d="M502.297 211.845H493.387V299.717H502.297V211.845Z" fill="white"/>
	<path d="M489.275 214.368H490.866L493.386 211.845H489.275V214.368Z" fill="#A6957B"/>
	<path d="M489.275 211.845H485.07V299.717H489.275V211.845Z" fill="white"/>
	<path d="M480.957 214.368H482.548L485.069 211.845H480.957V214.368Z" fill="#A6957B"/>
	<path d="M480.957 211.845H476.753V299.717H480.957V211.845Z" fill="white"/>
	<path d="M472.641 214.368H474.232L476.753 211.845H472.641V214.368Z" fill="#A6957B"/>
	<path d="M472.64 211.845H468.436V299.717H472.64V211.845Z" fill="white"/>
	<path d="M464.324 214.368H465.915L468.437 211.845H464.324V214.368Z" fill="#A6957B"/>
	<path d="M464.322 211.845H460.117V299.717H464.322V211.845Z" fill="white"/>
	<path d="M456.006 214.368H457.599L460.118 211.845H456.006V214.368Z" fill="#A6957B"/>
	<path d="M456.005 211.845H451.801V299.717H456.005V211.845Z" fill="white"/>
	<path d="M447.688 214.368H449.28L451.801 211.845H447.688V214.368Z" fill="#A6957B"/>
	<path d="M447.689 211.845H443.484V299.717H447.689V211.845Z" fill="white"/>
	<path d="M439.371 214.368H440.962L443.483 211.845H439.371V214.368Z" fill="#A6957B"/>
	<path d="M439.37 211.845H435.166V299.717H439.37V211.845Z" fill="white"/>
	<path d="M431.055 214.368H432.646L435.165 211.845H431.055V214.368Z" fill="#A6957B"/>
	<path d="M431.053 211.845H426.849V299.717H431.053V211.845Z" fill="white"/>
	<path d="M422.736 214.368H424.327L426.849 211.845H422.736V214.368Z" fill="#A6957B"/>
	<path d="M422.737 211.845H418.532V299.717H422.737V211.845Z" fill="white"/>
	<path d="M414.42 214.368H416.011L418.532 211.845H414.42V214.368Z" fill="#A6957B"/>
	<path d="M414.419 211.845H410.215V299.717H414.419V211.845Z" fill="white"/>
	<path d="M406.103 214.368H407.694L410.215 211.845H406.103V214.368Z" fill="#A6957B"/>
	<path d="M406.101 211.845H401.896V299.717H406.101V211.845Z" fill="white"/>
	<path d="M397.783 214.368H399.374L401.896 211.845H397.783V214.368Z" fill="#A6957B"/>
	<path d="M397.785 211.845H393.58V299.717H397.785V211.845Z" fill="white"/>
	<path d="M389.467 214.368H391.058L393.579 211.845H389.467V214.368Z" fill="#A6957B"/>
	<path d="M389.468 211.845H385.264V299.717H389.468V211.845Z" fill="white"/>
	<path d="M381.15 214.368H382.741L385.263 211.845H381.15V214.368Z" fill="#A6957B"/>
	<path d="M381.148 211.845H376.943V299.717H381.148V211.845Z" fill="white"/>
	<path d="M372.834 214.368H374.425L376.945 211.845H372.834V214.368Z" fill="#A6957B"/>
	<path d="M372.831 211.845H368.627V299.717H372.831V211.845Z" fill="white"/>
	<path d="M364.516 214.368H366.107L368.628 211.845H364.516V214.368Z" fill="#A6957B"/>
	<path d="M364.516 211.845H360.312V299.717H364.516V211.845Z" fill="white"/>
	<path d="M356.198 214.368H357.789L360.311 211.845H356.198V214.368Z" fill="#A6957B"/>
	<path d="M356.199 211.845H351.994V299.717H356.199V211.845Z" fill="white"/>
	<path d="M347.882 214.368H349.473L351.994 211.845H347.882V214.368Z" fill="#A6957B"/>
	<path d="M347.88 211.845H343.676V299.717H347.88V211.845Z" fill="white"/>
	<path d="M339.562 214.368H341.154L343.675 211.845H339.562V214.368Z" fill="#A6957B"/>
	<path d="M339.563 211.845H335.358V299.717H339.563V211.845Z" fill="white"/>
	<path d="M331.246 214.368H332.837L335.358 211.845H331.246V214.368Z" fill="#A6957B"/>
	<path d="M331.246 211.845H327.042V299.717H331.246V211.845Z" fill="white"/>
	<path d="M322.93 214.368H324.521L327.042 211.845H322.93V214.368Z" fill="#A6957B"/>
	<path d="M322.927 211.845H318.723V299.717H322.927V211.845Z" fill="white"/>
	<path d="M314.612 214.368H316.203L318.723 211.845H314.612V214.368Z" fill="#A6957B"/>
	<path d="M314.611 211.845H310.406V299.717H314.611V211.845Z" fill="white"/>
	<path d="M306.294 214.368H307.885L310.406 211.845H306.294V214.368Z" fill="#A6957B"/>
	<path d="M306.294 211.845H302.09V299.717H306.294V211.845Z" fill="white"/>
	<path d="M297.978 214.368H299.569L302.09 211.845H297.978V214.368Z" fill="#A6957B"/>
	<path d="M297.977 211.845H293.772V299.717H297.977V211.845Z" fill="white"/>
	<path d="M289.66 214.368H291.251L293.773 211.845H289.66V214.368Z" fill="#A6957B"/>
	<path d="M289.659 211.845H285.454V299.717H289.659V211.845Z" fill="white"/>
	<path d="M281.342 214.368H282.933L285.454 211.845H281.342V214.368Z" fill="#A6957B"/>
	<path d="M281.342 211.845H277.138V299.717H281.342V211.845Z" fill="white"/>
	<path d="M273.025 214.368H274.616L277.138 211.845H273.025V214.368Z" fill="#A6957B"/>
	<path d="M273.025 211.845H268.82V299.717H273.025V211.845Z" fill="white"/>
	<path d="M264.708 214.368H266.299L268.82 211.845H264.708V214.368Z" fill="#A6957B"/>
	<path d="M264.706 211.845H260.502V299.717H264.706V211.845Z" fill="white"/>
	<path d="M256.392 214.368H257.983L260.502 211.845H256.392V214.368Z" fill="#A6957B"/>
	<path d="M256.391 211.845H246.835V299.717H256.391V211.845Z" fill="white"/>
	<path d="M502.298 206.054H246.835V211.846H502.298V206.054Z" fill="white"/>
	<path d="M502.298 211.845H246.835V212.218H502.298V211.845Z" fill="#C9BEAB"/>
	<path d="M502.298 299.531H246.835V299.904H502.298V299.531Z" fill="#C9BEAB"/>
	<path d="M246.833 206.054H180.085V305.507H246.833V206.054Z" fill="#C9C9C9"/>
	<path d="M253.253 211.906H249.865V217.375H253.253V211.906Z" fill="#4F4F4F"/>
	<path d="M253.253 294.435H249.865V299.905H253.253V294.435Z" fill="#4F4F4F"/>
	<path d="M499.436 211.906H496.049V217.375H499.436V211.906Z" fill="#4F4F4F"/>
	<path d="M499.436 294.435H496.049V299.905H499.436V294.435Z" fill="#4F4F4F"/>
	<path d="M243.447 211.77H240.398V299.733H243.447V211.77Z" fill="#A2A2A2"/>
	<path d="M214.646 211.77H211.597V299.733H214.646V211.77Z" fill="#A2A2A2"/>
	<path d="M185.772 211.77H182.723V299.733H185.772V211.77Z" fill="#A2A2A2"/>
	<path d="M208.743 296.267H188.273V299.735H208.743V296.267Z" fill="#A2A2A2"/>
	<path d="M237.8 296.267H217.33V299.735H237.8V296.267Z" fill="#A2A2A2"/>
	<path d="M208.743 268.062H188.273V271.53H208.743V268.062Z" fill="#A2A2A2"/>
	<path d="M237.8 268.062H217.33V271.53H237.8V268.062Z" fill="#A2A2A2"/>
	<path d="M208.743 239.857H188.273V243.325H208.743V239.857Z" fill="#A2A2A2"/>
	<path d="M237.8 239.857H217.33V243.325H237.8V239.857Z" fill="#A2A2A2"/>
	<path d="M208.743 211.651H188.273V215.119H208.743V211.651Z" fill="#A2A2A2"/>
	<path d="M237.8 211.651H217.33V215.119H237.8V211.651Z" fill="#A2A2A2"/>
	<path d="M219.105 207.233H217.33V304.152H219.105V207.233Z" fill="white"/>
	<path d="M220.873 207.233H219.107V211.652H220.873V207.233Z" fill="white"/>
	<path d="M220.873 243.324H219.107V247.743H220.873V243.324Z" fill="white"/>
	<path d="M220.873 271.53H219.107V275.948H220.873V271.53Z" fill="white"/>
	<path d="M220.873 299.735H219.107V304.154H220.873V299.735Z" fill="white"/>
	<path d="M230.305 207.233H228.53V304.152H230.305V207.233Z" fill="white"/>
	<path d="M232.07 207.233H230.305V211.652H232.07V207.233Z" fill="white"/>
	<path d="M232.07 243.324H230.305V247.743H232.07V243.324Z" fill="white"/>
	<path d="M232.07 271.53H230.305V275.948H232.07V271.53Z" fill="white"/>
	<path d="M232.07 299.735H230.305V304.154H232.07V299.735Z" fill="white"/>
	<path d="M195.115 207.233H193.34V304.152H195.115V207.233Z" fill="white"/>
	<path d="M196.883 207.233H195.117V211.652H196.883V207.233Z" fill="white"/>
	<path d="M196.883 243.324H195.117V247.743H196.883V243.324Z" fill="white"/>
	<path d="M196.883 271.53H195.117V275.948H196.883V271.53Z" fill="white"/>
	<path d="M196.883 299.735H195.117V304.154H196.883V299.735Z" fill="white"/>
	<path d="M206.744 207.233H204.969V304.152H206.744V207.233Z" fill="white"/>
	<path d="M208.509 207.233H206.744V211.652H208.509V207.233Z" fill="white"/>
	<path d="M208.509 243.324H206.744V247.743H208.509V243.324Z" fill="white"/>
	<path d="M208.509 271.53H206.744V275.948H208.509V271.53Z" fill="white"/>
	<path d="M208.509 299.735H206.744V304.154H208.509V299.735Z" fill="white"/>
	<path d="M540 360.742H0V373H540V360.742Z" fill="#C9C9C9"/>
</svg>
