<svg width="50" height="50" viewBox="0 0 50 50" fill="none" xmlns="http://www.w3.org/2000/svg">
<path fill-rule="evenodd" clip-rule="evenodd" d="M7.85714 1H42.1429C43.9615 1 45.7056 1.72245 46.9916 3.00841C48.2776 4.29437 49 6.03852 49 7.85714V42.1429C49 43.9615 48.2776 45.7056 46.9916 46.9916C45.7056 48.2776 43.9615 49 42.1429 49H7.85714C6.03852 49 4.29437 48.2776 3.00841 46.9916C1.72245 45.7056 1 43.9615 1 42.1429V7.85714C1 6.03852 1.72245 4.29437 3.00841 3.00841C4.29437 1.72245 6.03852 1 7.85714 1Z" stroke="black" stroke-opacity="0.3" stroke-linecap="round" stroke-linejoin="round"/>
<path d="M49 35.2857L38.7143 25L28.4286 35.2343M42.1429 49L11.2857 18.1429L1 28.4286" stroke="black" stroke-opacity="0.3" stroke-linecap="round" stroke-linejoin="round"/>
<path d="M36.9999 16.4286C38.8934 16.4286 40.4284 14.8935 40.4284 13C40.4284 11.1064 38.8934 9.57141 36.9999 9.57141C35.1063 9.57141 33.5713 11.1064 33.5713 13C33.5713 14.8935 35.1063 16.4286 36.9999 16.4286Z" fill="black" fill-opacity="0.3"/>
</svg>
