<svg width="16" height="16" viewBox="0 0 16 16" fill="none" xmlns="http://www.w3.org/2000/svg">
<path d="M13 11V11.8H13.8V11H13ZM3 11H2.2V11.8H3V11ZM1 10.2C0.558172 10.2 0.2 10.5582 0.2 11C0.2 11.4418 0.558172 11.8 1 11.8V10.2ZM15 11.8C15.4418 11.8 15.8 11.4418 15.8 11C15.8 10.5582 15.4418 10.2 15 10.2V11.8ZM6.5 14.2C6.05817 14.2 5.7 14.5582 5.7 15C5.7 15.4418 6.05817 15.8 6.5 15.8V14.2ZM9.5 15.8C9.94183 15.8 10.3 15.4418 10.3 15C10.3 14.5582 9.94183 14.2 9.5 14.2V15.8ZM12.2 6V11H13.8V6H12.2ZM13 10.2H3V11.8H13V10.2ZM3.8 11V6H2.2V11H3.8ZM8 1.8C10.3196 1.8 12.2 3.6804 12.2 6H13.8C13.8 2.79675 11.2033 0.2 8 0.2V1.8ZM8 0.2C4.79675 0.2 2.2 2.79675 2.2 6H3.8C3.8 3.6804 5.6804 1.8 8 1.8V0.2ZM1 11.8H15V10.2H1V11.8ZM6.5 15.8H8V14.2H6.5V15.8ZM8 15.8H9.5V14.2H8V15.8Z" fill="#9FA4BB"/>
</svg>
