<svg width="24" height="24" viewBox="0 0 24 24" fill="none" xmlns="http://www.w3.org/2000/svg">
	<path d="M2 12.3333C2 12.3333 5.66667 5 12.0833 5C18.5 5 22.1667 12.3333 22.1667 12.3333C22.1667 12.3333 18.5 19.6667 12.0833 19.6667C5.66667 19.6667 2 12.3333 2 12.3333Z" stroke="#1B1B1F" stroke-width="1.375" stroke-linecap="round" stroke-linejoin="round"/>
	<path d="M2 12.3333C2 12.3333 5.66667 5 12.0833 5C18.5 5 22.1667 12.3333 22.1667 12.3333C22.1667 12.3333 18.5 19.6667 12.0833 19.6667C5.66667 19.6667 2 12.3333 2 12.3333Z" stroke="black" stroke-opacity="0.2" stroke-width="1.375" stroke-linecap="round" stroke-linejoin="round"/>
	<path d="M2 12.3333C2 12.3333 5.66667 5 12.0833 5C18.5 5 22.1667 12.3333 22.1667 12.3333C22.1667 12.3333 18.5 19.6667 12.0833 19.6667C5.66667 19.6667 2 12.3333 2 12.3333Z" stroke="black" stroke-opacity="0.2" stroke-width="1.375" stroke-linecap="round" stroke-linejoin="round"/>
	<path d="M2 12.3333C2 12.3333 5.66667 5 12.0833 5C18.5 5 22.1667 12.3333 22.1667 12.3333C22.1667 12.3333 18.5 19.6667 12.0833 19.6667C5.66667 19.6667 2 12.3333 2 12.3333Z" stroke="black" stroke-opacity="0.2" stroke-width="1.375" stroke-linecap="round" stroke-linejoin="round"/>
	<path d="M12.0833 15.0833C13.6021 15.0833 14.8333 13.8521 14.8333 12.3333C14.8333 10.8145 13.6021 9.58331 12.0833 9.58331C10.5645 9.58331 9.33333 10.8145 9.33333 12.3333C9.33333 13.8521 10.5645 15.0833 12.0833 15.0833Z" stroke="#1B1B1F" stroke-width="1.375" stroke-linecap="round" stroke-linejoin="round"/>
	<path d="M12.0833 15.0833C13.6021 15.0833 14.8333 13.8521 14.8333 12.3333C14.8333 10.8145 13.6021 9.58331 12.0833 9.58331C10.5645 9.58331 9.33333 10.8145 9.33333 12.3333C9.33333 13.8521 10.5645 15.0833 12.0833 15.0833Z" stroke="black" stroke-opacity="0.2" stroke-width="1.375" stroke-linecap="round" stroke-linejoin="round"/>
	<path d="M12.0833 15.0833C13.6021 15.0833 14.8333 13.8521 14.8333 12.3333C14.8333 10.8145 13.6021 9.58331 12.0833 9.58331C10.5645 9.58331 9.33333 10.8145 9.33333 12.3333C9.33333 13.8521 10.5645 15.0833 12.0833 15.0833Z" stroke="black" stroke-opacity="0.2" stroke-width="1.375" stroke-linecap="round" stroke-linejoin="round"/>
	<path d="M12.0833 15.0833C13.6021 15.0833 14.8333 13.8521 14.8333 12.3333C14.8333 10.8145 13.6021 9.58331 12.0833 9.58331C10.5645 9.58331 9.33333 10.8145 9.33333 12.3333C9.33333 13.8521 10.5645 15.0833 12.0833 15.0833Z" stroke="black" stroke-opacity="0.2" stroke-width="1.375" stroke-linecap="round" stroke-linejoin="round"/>
</svg>
