<svg width="76" height="72" viewBox="0 0 76 72" fill="none" xmlns="http://www.w3.org/2000/svg">
<path d="M75.5 39.9155C75.4899 36.619 74.2883 33.4357 72.114 30.9452C69.9398 28.4547 66.9374 26.8226 63.6535 26.346V13.9019C63.6535 10.2591 62.1966 6.76548 59.6034 4.18963C57.0102 1.61377 53.493 0.166668 49.8256 0.166668H14.307C10.6432 0.172157 7.13143 1.62168 4.54271 4.19694C1.95399 6.77221 0.499996 10.2627 0.5 13.9019V32.0845C0.505802 35.3822 1.70585 38.5678 3.88091 41.0592C6.05596 43.5506 9.06082 45.1815 12.3465 45.654V58.0981C12.352 61.7356 13.8078 65.2229 16.3953 67.797C18.9828 70.3711 22.4914 71.8224 26.1535 71.8333H61.6096C65.2753 71.8279 68.7892 70.379 71.3812 67.8043C73.9733 65.2296 75.4319 61.7392 75.4374 58.0981L75.5 39.9155ZM4.44188 32.0845V13.9019C4.44188 11.303 5.48124 8.81061 7.33131 6.97293C9.18138 5.13526 11.6906 4.10286 14.307 4.10286H49.7631C51.0708 4.08363 52.3693 4.3229 53.5831 4.80673C54.7969 5.29056 55.9018 6.00931 56.8333 6.92115C57.7649 7.833 58.5047 8.91975 59.0095 10.1182C59.5144 11.3166 59.7743 12.6028 59.7742 13.9019V28.1483V32.0845C59.7687 34.6853 58.7247 37.1777 56.8713 39.0148C55.0179 40.8518 52.5065 41.8836 49.8882 41.8836H14.307C11.6906 41.8836 9.18138 40.8512 7.33131 39.0135C5.48124 37.1758 4.44188 34.6834 4.44188 32.0845ZM61.6721 67.8971H26.2161C23.5997 67.8971 21.0904 66.8647 19.2404 65.0271C17.3903 63.1894 16.3509 60.697 16.3509 58.0981V45.799H49.8256C52.326 45.799 54.7786 45.1183 56.9168 43.831C59.8768 42.0714 62.0704 39.2795 63.0695 36C63.4558 34.7302 63.6526 33.411 63.6535 32.0845V30.3236C65.197 30.6417 66.6411 31.3232 67.8642 32.3111C69.0873 33.2989 70.0537 34.564 70.6821 36C71.2427 37.2304 71.5341 38.5649 71.5373 39.9155V58.0981C71.5373 60.697 70.4979 63.1894 68.6478 65.0271C66.7978 66.8647 64.2885 67.8971 61.6721 67.8971Z" fill="#E63D3D"/>
</svg>
