<svg width="16" height="20" viewBox="0 0 16 20" fill="none" xmlns="http://www.w3.org/2000/svg">
	<circle cx="8" cy="10" r="8" fill="#F3F6F8"/>
	<circle cx="8" cy="10" r="7.5" stroke="#CFDEFF" stroke-opacity="0.5"/>
	<path d="M7.052 13.446H8.606V15H7.052V13.446ZM4.77 8.126C4.76067 7.65 4.826 7.20667 4.966 6.796C5.11533 6.38533 5.32533 6.03067 5.596 5.732C5.86667 5.424 6.198 5.186 6.59 5.018C6.982 4.85 7.42067 4.766 7.906 4.766C8.34467 4.766 8.74133 4.83133 9.096 4.962C9.46 5.08333 9.77267 5.26533 10.034 5.508C10.2953 5.74133 10.496 6.03067 10.636 6.376C10.7853 6.72133 10.86 7.118 10.86 7.566C10.86 7.85533 10.8227 8.11667 10.748 8.35C10.6827 8.574 10.594 8.77933 10.482 8.966C10.37 9.15267 10.2393 9.32533 10.09 9.484C9.95 9.64267 9.80533 9.79667 9.656 9.946C9.50667 10.086 9.35733 10.2307 9.208 10.38C9.068 10.52 8.93733 10.674 8.816 10.842C8.704 11.0007 8.61067 11.178 8.536 11.374C8.47067 11.5607 8.438 11.7753 8.438 12.018V12.564H7.248V11.906C7.26667 11.514 7.33667 11.1827 7.458 10.912C7.58867 10.632 7.74267 10.3847 7.92 10.17C8.10667 9.95533 8.298 9.75933 8.494 9.582C8.69933 9.39533 8.886 9.204 9.054 9.008C9.23133 8.80267 9.37133 8.57867 9.474 8.336C9.57667 8.09333 9.61867 7.79933 9.6 7.454C9.56267 6.94067 9.39467 6.53933 9.096 6.25C8.80667 5.96067 8.41 5.816 7.906 5.816C7.57 5.816 7.28067 5.87667 7.038 5.998C6.79533 6.11933 6.59 6.28267 6.422 6.488C6.26333 6.69333 6.14667 6.936 6.072 7.216C5.99733 7.496 5.96 7.79933 5.96 8.126H4.77Z" fill="black"/>
</svg>
