<svg width="32" height="32" viewBox="0 0 32 32" fill="none" xmlns="http://www.w3.org/2000/svg">
<path d="M26.9465 10.4267L16.6798 16.3734C16.2665 16.6134 15.7465 16.6134 15.3198 16.3734L5.05313 10.4267C4.3198 10 4.13313 9.00004 4.69313 8.37338C5.0798 7.93338 5.5198 7.57338 5.98646 7.32004L13.2131 3.32004C14.7598 2.45338 17.2665 2.45338 18.8131 3.32004L26.0398 7.32004C26.5065 7.57338 26.9465 7.94671 27.3331 8.37338C27.8665 9.00004 27.6798 10 26.9465 10.4267Z" fill="#407BFF"/>
<path d="M15.2398 18.8534V27.9467C15.2398 28.96 14.2131 29.6267 13.3065 29.1867C10.5598 27.84 5.93314 25.32 5.93314 25.32C4.30648 24.4 2.97314 22.08 2.97314 20.1734V13.2934C2.97314 12.24 4.07981 11.5734 4.98648 12.0934L14.5731 17.6534C14.9731 17.9067 15.2398 18.36 15.2398 18.8534Z" fill="#407BFF"/>
<path d="M16.7598 18.8534V27.9467C16.7598 28.96 17.7864 29.6267 18.6931 29.1867C21.4398 27.84 26.0664 25.32 26.0664 25.32C27.6931 24.4 29.0264 22.08 29.0264 20.1734V13.2934C29.0264 12.24 27.9198 11.5734 27.0131 12.0934L17.4264 17.6534C17.0264 17.9067 16.7598 18.36 16.7598 18.8534Z" fill="#407BFF"/>
</svg>
