<svg width="1368" height="391" viewBox="0 0 1368 391" fill="none" xmlns="http://www.w3.org/2000/svg">
	<path d="M1029 135H1027V252H1029V135Z" fill="#DFE8F5"/>
	<path d="M798.463 49.2183H732.227V82.6098H798.463V49.2183Z" fill="#DFE8F5"/>
	<path d="M888.805 4.00732L887.768 5.26776C887.823 5.31342 893.528 10.002 903.977 17.3822C913.613 24.1887 929.383 34.7488 949.787 46.4087C972.717 59.5136 996.708 71.3104 1021.09 81.4716C1051.58 94.1735 1082.76 104.339 1113.79 111.687L1114.17 110.099C1044.11 93.5066 986.565 65.546 950.632 45.0113C911.689 22.7595 889.029 4.19193 888.805 4.00732Z" fill="#DFE8F5"/>
	<path d="M887.18 0C887.176 0 887.172 0 887.166 0C885.244 0.00595497 883.644 1.2644 883.183 3.13227L862.568 86.885L866.99 87.9748L887.184 5.93113L908.018 88.4968L912.431 87.3813L891.167 3.10848C890.699 1.24854 889.096 0 887.18 0Z" fill="#DFE8F5"/>
	<path d="M888.287 4.6371C887.988 5.28421 888.267 6.05044 888.914 6.35216L1113.98 110.896L1115.07 108.553L890.001 4.00986C889.354 3.71013 888.587 3.98999 888.287 4.6371Z" fill="#DFE8F5"/>
	<path d="M756.389 82.6089H748.127V360.464H756.389V82.6089Z" fill="#DFE8F5"/>
	<path d="M762.044 82.6089H756.389V360.464H762.044V82.6089Z" fill="#DFE8F5"/>
	<path d="M683.869 148.552C676.266 148.552 670.079 142.36 670.079 134.752H668.058C668.058 143.476 675.151 150.574 683.869 150.574C692.586 150.574 699.68 143.476 699.68 134.752H697.658C697.66 142.36 691.474 148.552 683.869 148.552Z" fill="#DFE8F5"/>
	<path d="M713.471 148.552C705.868 148.552 699.681 142.36 699.681 134.752H697.66C697.66 143.476 704.753 150.574 713.471 150.574C722.189 150.574 729.282 143.476 729.282 134.752H727.261C727.261 142.36 721.076 148.552 713.471 148.552Z" fill="#DFE8F5"/>
	<path d="M743.075 148.552C735.47 148.552 729.285 142.36 729.285 134.752H727.264C727.264 143.476 734.357 150.574 743.075 150.574C751.792 150.574 758.886 143.476 758.886 134.752H756.864C756.864 142.36 750.678 148.552 743.075 148.552Z" fill="#DFE8F5"/>
	<path d="M772.674 148.552C765.069 148.552 758.885 142.36 758.885 134.752H756.863C756.863 143.476 763.956 150.574 772.674 150.574C781.392 150.574 788.485 143.476 788.485 134.752H786.464C786.466 142.36 780.279 148.552 772.674 148.552Z" fill="#DFE8F5"/>
	<path d="M802.276 148.552C794.671 148.552 788.486 142.36 788.486 134.752H786.465C786.465 143.476 793.558 150.574 802.276 150.574C810.993 150.574 818.087 143.476 818.087 134.752H816.065C816.065 142.36 809.879 148.552 802.276 148.552Z" fill="#DFE8F5"/>
	<path d="M831.877 148.552C824.272 148.552 818.088 142.36 818.088 134.752H816.066C816.066 143.476 823.16 150.574 831.877 150.574C840.595 150.574 847.688 143.476 847.688 134.752H845.667C845.669 142.36 839.482 148.552 831.877 148.552Z" fill="#DFE8F5"/>
	<path d="M756.389 273.065L908.414 93.2206V82.6089L756.389 262.453V273.065Z" fill="#DFE8F5"/>
	<path d="M908.415 82.6089H900.153V360.464H908.415V82.6089Z" fill="#DFE8F5"/>
	<path d="M914.07 82.6089H908.415V360.464H914.07V82.6089Z" fill="#DFE8F5"/>
	<path d="M699.343 107.795L686.158 130.422H1132.92L1116.76 107.795H699.343ZM690.262 128.25L701.297 109.722L714.644 128.25H690.262ZM704.409 109.724H728.031L717.046 128.252L704.409 109.724ZM719.778 128.25L730.812 109.722L744.159 128.25H719.778ZM733.924 109.724H757.547L746.562 128.252L733.924 109.724ZM749.295 128.25L760.329 109.722L773.677 128.25H749.295ZM763.44 109.724H787.062L776.077 128.252L763.44 109.724ZM778.81 128.25L789.845 109.722L803.192 128.25H778.81ZM792.957 109.724H816.579L805.594 128.252L792.957 109.724ZM808.328 128.25L819.362 109.722L832.709 128.25H808.328ZM822.472 109.724H846.095L835.109 128.252L822.472 109.724ZM837.843 128.25L848.877 109.722L862.225 128.25H837.843ZM851.988 109.724H875.61L864.625 128.252L851.988 109.724ZM867.358 128.25L878.393 109.722L891.74 128.25H867.358ZM881.505 109.724H905.127L894.142 128.252L881.505 109.724ZM896.876 128.25L907.91 109.722L921.257 128.25H896.876ZM911.02 109.724H934.642L923.657 128.252L911.02 109.724ZM926.391 128.25L937.425 109.722L950.773 128.25H926.391ZM940.538 109.724H964.16L953.175 128.252L940.538 109.724ZM955.906 128.25L966.941 109.722L980.288 128.25H955.906ZM970.053 109.724H993.675L982.69 128.252L970.053 109.724ZM985.424 128.25L996.458 109.722L1009.81 128.25H985.424ZM999.568 109.724H1023.19L1012.21 128.252L999.568 109.724ZM1014.94 128.25L1025.97 109.722L1039.32 128.25H1014.94ZM1029.09 109.724H1052.71L1041.72 128.252L1029.09 109.724ZM1044.46 128.25L1055.49 109.722L1068.84 128.25H1044.46ZM1058.6 109.724H1082.22L1071.24 128.252L1058.6 109.724ZM1073.97 128.25L1085.01 109.722L1098.35 128.25H1073.97ZM1088.12 109.724H1111.74L1100.75 128.252L1088.12 109.724ZM1103.49 128.25L1114.52 109.722L1127.87 128.25H1103.49Z" fill="#DFE8F5"/>
	<path d="M666 130.424H1112.76L1116.77 107.797H699.344L666 130.424ZM1109.65 128.251H1085.26L1112.81 109.723L1109.65 128.251ZM1110.02 109.725L1082.53 128.253L1086.4 109.725H1110.02ZM1080.13 128.251H1055.75L1083.29 109.723L1080.13 128.251ZM1080.51 109.725L1053.02 128.253L1056.88 109.725H1080.51ZM1050.61 128.251H1026.23L1053.77 109.723L1050.61 128.251ZM1050.99 109.725L1023.5 128.253L1027.37 109.725H1050.99ZM1021.1 128.251H996.717L1024.26 109.723L1021.1 128.251ZM1021.48 109.725L993.985 128.253L997.853 109.725H1021.48ZM991.581 128.251H967.199L994.741 109.723L991.581 128.251ZM991.958 109.725L964.468 128.253L968.336 109.725H991.958ZM962.066 128.251H937.684L965.226 109.723L962.066 128.251ZM962.443 109.725L934.953 128.253L938.82 109.725H962.443ZM932.548 128.251H908.167L935.708 109.723L932.548 128.251ZM932.927 109.725L905.437 128.253L909.305 109.725H932.927ZM903.033 128.251H878.651L906.193 109.723L903.033 128.251ZM903.41 109.725L875.92 128.253L879.788 109.725H903.41ZM873.518 128.251H849.136L876.678 109.723L873.518 128.251ZM873.895 109.725L846.405 128.253L850.272 109.725H873.895ZM844 128.251H819.619L847.16 109.723L844 128.251ZM844.379 109.725L816.889 128.253L820.757 109.725H844.379ZM814.485 128.251H790.103L817.645 109.723L814.485 128.251ZM814.862 109.725L787.372 128.253L791.24 109.725H814.862ZM784.97 128.251H760.588L788.13 109.723L784.97 128.251ZM785.347 109.725L757.857 128.253L761.724 109.725H785.347ZM755.452 128.251H731.071L758.612 109.723L755.452 128.251ZM755.829 109.725L728.339 128.253L732.207 109.725H755.829ZM725.937 128.251H701.555L729.097 109.723L725.937 128.251ZM726.314 109.725L698.824 128.253L702.692 109.725H726.314ZM696.42 128.251H672.038L699.58 109.723L696.42 128.251Z" fill="#DFE8F5"/>
	<path d="M715.553 82.6089H707.291V360.464H715.553V82.6089Z" fill="#DFE8F5"/>
	<path d="M1132.92 130.424H666V134.754H1132.92V130.424Z" fill="#DFE8F5"/>
	<path d="M721.206 82.6089H715.551V360.464H721.206V82.6089Z" fill="#DFE8F5"/>
	<path d="M867.579 82.6089H859.317V360.464H867.579V82.6089Z" fill="#DFE8F5"/>
	<path d="M873.233 82.6089H867.578V360.464H873.233V82.6089Z" fill="#DFE8F5"/>
	<path d="M867.578 82.6089H707.291V93.2206H867.578V82.6089Z" fill="#DFE8F5"/>
	<path d="M914.071 82.6089H867.578V93.2206H914.071V82.6089Z" fill="#DFE8F5"/>
	<path d="M867.578 273.065H707.291V283.677H867.578V273.065Z" fill="#DFE8F5"/>
	<path d="M715.551 273.065L867.579 93.2206V82.6089L715.551 262.453V273.065Z" fill="#DFE8F5"/>
	<path d="M921.278 130.424H895.714V134.754H921.278V130.424Z" fill="#DFE8F5"/>
	<path d="M965.66 130.424H940.096V134.754H965.66V130.424Z" fill="#DFE8F5"/>
	<path d="M1010.04 130.424H984.477V134.754H1010.04V130.424Z" fill="#DFE8F5"/>
	<path d="M1054.42 130.424H1028.86V134.754H1054.42V130.424Z" fill="#DFE8F5"/>
	<path d="M1098.8 130.424H1073.24V134.754H1098.8V130.424Z" fill="#DFE8F5"/>
	<path d="M1112.76 130.424L1113.15 134.751H1132.92V130.424L1116.77 107.795L1112.76 130.424Z" fill="#DFE8F5"/>
	<path d="M1132.92 130.424H1112.76V134.754H1132.92V130.424Z" fill="#DFE8F5"/>
	<path d="M886.051 0.732729L733.941 84.6558L736.139 88.6451L888.249 4.72202L886.051 0.732729Z" fill="#DFE8F5"/>
	<path d="M732.225 49.2183H694.896V82.6098H732.225V49.2183Z" fill="#DFE8F5"/>
	<path d="M1138.1 125.781H1119.1V134.753H1138.1V125.781Z" fill="#DFE8F5"/>
	<path d="M1249.65 187.51V256.287H1291.44L1278.47 187.51H1249.65Z" fill="#4F4F4F"/>
	<path d="M1260.33 187.51H1249.65V257.902H1260.33V187.51Z" fill="#7D7D7D"/>
	<path d="M1260.33 244.916V299.188H1296.37V258.559C1296.37 251.024 1302.47 244.916 1310 244.916H1316.19V236.015H1260.33V244.916Z" fill="#A2A2A2"/>
	<path d="M1296.37 223.513H1260.33V232.408H1296.37V223.513Z" fill="#A2A2A2"/>
	<path d="M1368 361H0V375H1368V361Z" fill="#C9C9C9"/>
	<path d="M1260.33 223.513H1168.41V232.408H1144.15V244.914H1155.44C1162.6 244.914 1168.41 250.727 1168.41 257.899V328.737H1260.33H1277.38V299.187H1260.33V257.9C1260.33 250.729 1266.14 244.915 1273.3 244.915H1286.28V232.409H1260.32V223.513H1260.33Z" fill="white"/>
	<path d="M1187.17 229.888H1172.77V236.435H1187.17V229.888Z" fill="#383838"/>
	<path d="M1203.59 229.888H1189.19V236.435H1203.59V229.888Z" fill="#383838"/>
	<path d="M1220 229.888H1205.61V236.435H1220V229.888Z" fill="#383838"/>
	<path d="M1236.42 229.888H1222.03V236.435H1236.42V229.888Z" fill="#383838"/>
	<path d="M1252.84 229.888H1238.45V236.435H1252.84V229.888Z" fill="#383838"/>
	<path d="M1252.84 229.888H1240.62V236.435H1252.84V229.888Z" fill="#666666"/>
	<path d="M1236.42 229.888H1224.21V236.435H1236.42V229.888Z" fill="#666666"/>
	<path d="M1220 229.888H1207.79V236.435H1220V229.888Z" fill="#666666"/>
	<path d="M1203.59 229.888H1191.37V236.435H1203.59V229.888Z" fill="#666666"/>
	<path d="M1187.17 229.888H1174.95V236.435H1187.17V229.888Z" fill="#666666"/>
	<path d="M1245.37 250.681H1241.95V256.091H1245.37V250.681Z" fill="#4F4F4F"/>
	<path d="M1229.09 250.681H1225.67V256.091H1229.09V250.681Z" fill="#4F4F4F"/>
	<path d="M1212.81 250.681H1209.39V256.091H1212.81V250.681Z" fill="#4F4F4F"/>
	<path d="M1196.53 250.681H1193.11V256.091H1196.53V250.681Z" fill="#4F4F4F"/>
	<path d="M1180.25 250.681H1176.83V256.091H1180.25V250.681Z" fill="#4F4F4F"/>
	<path d="M1245.37 271.479H1241.95V276.889H1245.37V271.479Z" fill="#4F4F4F"/>
	<path d="M1229.09 271.479H1225.67V276.889H1229.09V271.479Z" fill="#4F4F4F"/>
	<path d="M1212.81 271.479H1209.39V276.889H1212.81V271.479Z" fill="#4F4F4F"/>
	<path d="M1196.53 271.479H1193.11V276.889H1196.53V271.479Z" fill="#4F4F4F"/>
	<path d="M1180.25 271.479H1176.83V276.889H1180.25V271.479Z" fill="#4F4F4F"/>
	<path d="M1245.37 292.278H1241.95V297.688H1245.37V292.278Z" fill="#4F4F4F"/>
	<path d="M1229.09 292.278H1225.67V297.688H1229.09V292.278Z" fill="#4F4F4F"/>
	<path d="M1212.81 292.278H1209.39V297.688H1212.81V292.278Z" fill="#4F4F4F"/>
	<path d="M1196.53 292.278H1193.11V297.688H1196.53V292.278Z" fill="#4F4F4F"/>
	<path d="M1180.25 292.278H1176.83V297.688H1180.25V292.278Z" fill="#4F4F4F"/>
	<path d="M1245.37 313.077H1241.95V318.487H1245.37V313.077Z" fill="#4F4F4F"/>
	<path d="M1229.09 313.077H1225.67V318.487H1229.09V313.077Z" fill="#4F4F4F"/>
	<path d="M1212.81 313.077H1209.39V318.487H1212.81V313.077Z" fill="#4F4F4F"/>
	<path d="M1196.53 313.077H1193.11V318.487H1196.53V313.077Z" fill="#4F4F4F"/>
	<path d="M1180.25 313.077H1176.83V318.487H1180.25V313.077Z" fill="#4F4F4F"/>
	<path d="M1156.38 274.804V331.385H1277.09L1221.65 274.804H1156.38Z" fill="#A2A2A2"/>
	<path d="M1208.81 272.159H1193.17V255.874H1100.58V272.159H1084.95V337.354H1224.44V288.445H1208.81V272.159Z" fill="#2D4770"/>
	<path d="M1099.52 321.015H1084.95V336.285H1099.52V321.015Z" fill="#FF9680"/>
	<path d="M1115.15 321.015H1100.58V336.285H1115.15V321.015Z" fill="#FF9680"/>
	<path d="M1130.79 321.015H1116.21V336.285H1130.79V321.015Z" fill="#FF9680"/>
	<path d="M1146.42 321.015H1131.85V336.285H1146.42V321.015Z" fill="#FF9680"/>
	<path d="M1162.06 321.015H1147.48V336.285H1162.06V321.015Z" fill="#FF9680"/>
	<path d="M1182.04 321.015H1167.47V336.285H1182.04V321.015Z" fill="#FF9680"/>
	<path d="M1099.52 304.73H1084.95V320H1099.52V304.73Z" fill="#FF9680"/>
	<path d="M1115.15 304.73H1100.58V320H1115.15V304.73Z" fill="#2FC3B9"/>
	<path d="M1130.79 304.73H1116.21V320H1130.79V304.73Z" fill="#2FC3B9"/>
	<path d="M1146.42 304.73H1131.85V320H1146.42V304.73Z" fill="#2FC3B9"/>
	<path d="M1163.12 304.73H1151.83V320H1163.12V304.73Z" fill="#005DFF"/>
	<path d="M1177.69 304.73H1163.12V320H1177.69V304.73Z" fill="#005DFF"/>
	<path d="M1177.69 304.73H1163.12V320H1177.69V304.73Z" fill="white" fill-opacity="0.1"/>
	<path d="M1099.52 288.445H1084.95V303.715H1099.52V288.445Z" fill="#FF9680"/>
	<path d="M1115.15 288.445H1100.58V303.715H1115.15V288.445Z" fill="#2FC3B9"/>
	<path d="M1130.79 288.445H1116.21V303.715H1130.79V288.445Z" fill="#2FC3B9"/>
	<path d="M1147.48 288.445H1136.36V303.715H1147.48V288.445Z" fill="#005DFF"/>
	<path d="M1162.06 288.445H1147.48V303.715H1162.06V288.445Z" fill="#FFD964"/>
	<path d="M1162.06 288.445H1147.48V303.715H1162.06V288.445Z" fill="white" fill-opacity="0.1"/>
	<path d="M1182.04 288.445H1167.47V303.715H1182.04V288.445Z" fill="#FFD964"/>
	<path d="M1182.04 288.445H1167.47V303.715H1182.04V288.445Z" fill="white" fill-opacity="0.1"/>
	<path d="M1099.52 272.159H1084.95V287.429H1099.52V272.159Z" fill="#FF9680"/>
	<path d="M1115.15 272.159H1100.58V287.429H1115.15V272.159Z" fill="#005DFF"/>
	<path d="M1115.15 272.159H1100.58V287.429H1115.15V272.159Z" fill="white" fill-opacity="0.1"/>
	<path d="M1130.79 272.159H1116.21V287.429H1130.79V272.159Z" fill="#E1E0E0"/>
	<path d="M1146.42 272.159H1131.85V287.429H1146.42V272.159Z" fill="#DE6944"/>
	<path d="M1146.42 272.159H1131.85V287.429H1146.42V272.159Z" fill="white" fill-opacity="0.1"/>
	<path d="M1162.06 272.159H1147.48V287.429H1162.06V272.159Z" fill="#005DFF"/>
	<path d="M1162.06 272.159H1147.48V287.429H1162.06V272.159Z" fill="white" fill-opacity="0.1"/>
	<path d="M1115.15 255.874H1100.58V271.144H1115.15V255.874Z" fill="#DE6944"/>
	<path d="M1115.15 255.874H1100.58V271.144H1115.15V255.874Z" fill="white" fill-opacity="0.1"/>
	<path d="M1130.79 255.874H1116.21V271.144H1130.79V255.874Z" fill="#DE6944"/>
	<path d="M1130.79 255.874H1116.21V271.144H1130.79V255.874Z" fill="white" fill-opacity="0.1"/>
	<path d="M1150.77 255.874H1136.2V271.144H1150.77V255.874Z" fill="#005DFF"/>
	<path d="M1150.77 255.874H1136.2V271.144H1150.77V255.874Z" fill="white" fill-opacity="0.1"/>
	<path d="M1229.85 321.015H1182.04V336.285H1229.85V321.015Z" fill="#D84C3D"/>
	<path d="M1225.5 304.73H1177.69V320H1225.5V304.73Z" fill="#0041B3"/>
	<path d="M1229.85 288.445H1182.04V303.715H1229.85V288.445Z" fill="#FFD964"/>
	<path d="M1209.87 272.159H1162.05V287.429H1209.87V272.159Z" fill="#004FD9"/>
	<path d="M1198.59 255.874H1150.77V271.144H1198.59V255.874Z" fill="#0041B3"/>
	<path d="M1198.59 254.909H1100.58V255.875H1198.59V254.909Z" fill="white"/>
	<path d="M1229.85 288.445H1182.04V303.715H1229.85V288.445Z" fill="black" fill-opacity="0.15"/>
	<path d="M1236.5 321.015H927.627V328.739H1236.5V321.015Z" fill="#4F4F4F"/>
	<path d="M1063.4 277.931V334.51H1184.1L1128.66 277.931H1063.4Z" fill="#A2A2A2"/>
	<path d="M1087.9 255.821H1072.27V239.536H979.675V255.821H964.04V321.015H1103.54V272.105H1087.9V255.821Z" fill="#374B6A"/>
	<path d="M978.613 304.677H964.04V319.947H978.613V304.677Z" fill="#A0BAFF"/>
	<path d="M994.247 304.677H979.674V319.947H994.247V304.677Z" fill="#A0BAFF"/>
	<path d="M1009.88 304.677H995.308V319.947H1009.88V304.677Z" fill="#A0BAFF"/>
	<path d="M1025.51 304.677H1010.94V319.947H1025.51V304.677Z" fill="#A0BAFF"/>
	<path d="M1041.15 304.677H1026.58V319.947H1041.15V304.677Z" fill="#FFD964"/>
	<path d="M1041.15 304.677H1026.58V319.947H1041.15V304.677Z" fill="white" fill-opacity="0.2"/>
	<path d="M1061.13 304.677H1046.56V319.947H1061.13V304.677Z" fill="#005DFF"/>
	<path d="M1061.13 304.677H1046.56V319.947H1061.13V304.677Z" fill="white" fill-opacity="0.2"/>
	<path d="M978.613 288.391H964.04V303.661H978.613V288.391Z" fill="#A0BAFF"/>
	<path d="M994.247 288.391H979.674V303.661H994.247V288.391Z" fill="#A0BAFF"/>
	<path d="M1009.88 288.391H995.308V303.661H1009.88V288.391Z" fill="#A0BAFF"/>
	<path d="M1025.51 288.391H1010.94V303.661H1025.51V288.391Z" fill="#005DFF"/>
	<path d="M1025.51 288.391H1010.94V303.661H1025.51V288.391Z" fill="white" fill-opacity="0.2"/>
	<path d="M1042.21 288.391H1030.93V303.661H1042.21V288.391Z" fill="#D26441"/>
	<path d="M1056.78 288.391H1042.21V303.661H1056.78V288.391Z" fill="#005DFF"/>
	<path d="M1056.78 288.391H1042.21V303.661H1056.78V288.391Z" fill="white" fill-opacity="0.2"/>
	<path d="M978.613 272.105H964.04V287.376H978.613V272.105Z" fill="#A0BAFF"/>
	<path d="M994.247 272.105H979.674V287.376H994.247V272.105Z" fill="#A0BAFF"/>
	<path d="M1009.88 272.105H995.308V287.376H1009.88V272.105Z" fill="#005DFF"/>
	<path d="M1009.88 272.105H995.308V287.376H1009.88V272.105Z" fill="white" fill-opacity="0.2"/>
	<path d="M1026.58 272.105H1015.46V287.376H1026.58V272.105Z" fill="#FFDB6C"/>
	<path d="M1041.15 272.105H1026.58V287.376H1041.15V272.105Z" fill="#005DFF"/>
	<path d="M1041.15 272.105H1026.58V287.376H1041.15V272.105Z" fill="white" fill-opacity="0.2"/>
	<path d="M1061.13 272.105H1046.56V287.376H1061.13V272.105Z" fill="#DE6944"/>
	<path d="M1061.13 272.105H1046.56V287.376H1061.13V272.105Z" fill="white" fill-opacity="0.2"/>
	<path d="M978.613 255.821H964.04V271.091H978.613V255.821Z" fill="#A0BAFF"/>
	<path d="M994.247 255.821H979.674V271.091H994.247V255.821Z" fill="#FFD964"/>
	<path d="M994.247 255.821H979.674V271.091H994.247V255.821Z" fill="white" fill-opacity="0.2"/>
	<path d="M1009.88 255.821H995.308V271.091H1009.88V255.821Z" fill="#E58769"/>
	<path d="M1025.51 255.821H1010.94V271.091H1025.51V255.821Z" fill="#E58769"/>
	<path d="M1041.15 255.821H1026.58V271.091H1041.15V255.821Z" fill="#DE6944"/>
	<path d="M1041.15 255.821H1026.58V271.091H1041.15V255.821Z" fill="white" fill-opacity="0.2"/>
	<path d="M994.247 239.536H979.674V254.806H994.247V239.536Z" fill="#005DFF"/>
	<path d="M994.247 239.536H979.674V254.806H994.247V239.536Z" fill="white" fill-opacity="0.2"/>
	<path d="M1009.88 239.536H995.308V254.806H1009.88V239.536Z" fill="#005DFF"/>
	<path d="M1009.88 239.536H995.308V254.806H1009.88V239.536Z" fill="white" fill-opacity="0.2"/>
	<path d="M1029.87 239.536H1015.29V254.806H1029.87V239.536Z" fill="#E1E0E0"/>
	<path d="M1029.87 239.536H1015.29V254.806H1029.87V239.536Z" fill="white" fill-opacity="0.2"/>
	<path d="M1108.95 304.677H1061.13V319.947H1108.95V304.677Z" fill="#005DFF"/>
	<path d="M1104.6 288.391H1056.78V303.661H1104.6V288.391Z" fill="#004FD9"/>
	<path d="M1108.95 272.105H1061.13V287.376H1108.95V272.105Z" fill="#DE6944"/>
	<path d="M1088.96 255.821H1041.15V271.091H1088.96V255.821Z" fill="#DE6944"/>
	<path d="M1077.68 239.536H1029.87V254.806H1077.68V239.536Z" fill="#BFBEBE"/>
	<path d="M1077.68 238.569H979.674V239.536H1077.68V238.569Z" fill="white"/>
	<path d="M936.052 272.159V328.74H1056.76L1001.32 272.159H936.052Z" fill="#A2A2A2"/>
	<path d="M1000.97 263.545H985.335V247.26H892.741V263.545H877.106V328.74H1016.6V279.831H1000.97V263.545Z" fill="#2D4770"/>
	<path d="M891.68 312.401H877.106V327.671H891.68V312.401Z" fill="#005DFF"/>
	<path d="M907.314 312.401H892.741V327.671H907.314V312.401Z" fill="#005DFF"/>
	<path d="M922.947 312.401H908.374V327.671H922.947V312.401Z" fill="#005DFF"/>
	<path d="M938.582 312.401H924.009V327.671H938.582V312.401Z" fill="#005DFF"/>
	<path d="M954.217 312.401H939.644V327.671H954.217V312.401Z" fill="#005DFF"/>
	<path d="M954.217 312.401H939.644V327.671H954.217V312.401Z" fill="white" fill-opacity="0.05"/>
	<path d="M969.85 312.401H955.276V327.671H969.85V312.401Z" fill="#FFD964"/>
	<path d="M969.85 312.401H955.276V327.671H969.85V312.401Z" fill="white" fill-opacity="0.05"/>
	<path d="M891.68 296.115H877.106V311.385H891.68V296.115Z" fill="#005DFF"/>
	<path d="M907.314 296.115H892.741V311.385H907.314V296.115Z" fill="#005DFF"/>
	<path d="M922.947 296.115H908.374V311.385H922.947V296.115Z" fill="#005DFF"/>
	<path d="M938.582 296.115H924.009V311.385H938.582V296.115Z" fill="#E58769"/>
	<path d="M955.278 296.115H943.066V311.385H955.278V296.115Z" fill="#005DFF"/>
	<path d="M969.85 296.115H955.276V311.385H969.85V296.115Z" fill="#FFD964"/>
	<path d="M969.85 296.115H955.276V311.385H969.85V296.115Z" fill="white" fill-opacity="0.05"/>
	<path d="M891.68 279.831H877.106V295.101H891.68V279.831Z" fill="#005DFF"/>
	<path d="M891.68 279.831H877.106V295.101H891.68V279.831Z" fill="white" fill-opacity="0.05"/>
	<path d="M907.314 279.831H892.741V295.101H907.314V279.831Z" fill="#FFD964"/>
	<path d="M907.314 279.831H892.741V295.101H907.314V279.831Z" fill="white" fill-opacity="0.05"/>
	<path d="M922.947 279.831H908.374V295.101H922.947V279.831Z" fill="#E58769"/>
	<path d="M938.582 279.831H924.009V295.101H938.582V279.831Z" fill="#E1E0E0"/>
	<path d="M938.582 279.831H924.009V295.101H938.582V279.831Z" fill="white" fill-opacity="0.05"/>
	<path d="M954.217 279.831H939.644V295.101H954.217V279.831Z" fill="#005DFF"/>
	<path d="M954.217 279.831H939.644V295.101H954.217V279.831Z" fill="white" fill-opacity="0.05"/>
	<path d="M974.715 279.831H960.142V295.101H974.715V279.831Z" fill="#005DFF"/>
	<path d="M974.715 279.831H960.142V295.101H974.715V279.831Z" fill="white" fill-opacity="0.05"/>
	<path d="M891.68 263.545H877.106V278.815H891.68V263.545Z" fill="#FFD964"/>
	<path d="M891.68 263.545H877.106V278.815H891.68V263.545Z" fill="white" fill-opacity="0.05"/>
	<path d="M907.314 263.545H892.741V278.815H907.314V263.545Z" fill="#005DFF"/>
	<path d="M907.314 263.545H892.741V278.815H907.314V263.545Z" fill="white" fill-opacity="0.05"/>
	<path d="M922.947 263.545H908.374V278.815H922.947V263.545Z" fill="#E58769"/>
	<path d="M939.644 263.545H931.09V278.815H939.644V263.545Z" fill="#005DFF"/>
	<path d="M954.217 263.545H939.644V278.815H954.217V263.545Z" fill="#E1E0E0"/>
	<path d="M954.217 263.545H939.644V278.815H954.217V263.545Z" fill="white" fill-opacity="0.05"/>
	<path d="M907.314 247.26H892.741V262.53H907.314V247.26Z" fill="#FFD964"/>
	<path d="M907.314 247.26H892.741V262.53H907.314V247.26Z" fill="white" fill-opacity="0.05"/>
	<path d="M922.947 247.26H908.374V262.53H922.947V247.26Z" fill="#FFD964"/>
	<path d="M922.947 247.26H908.374V262.53H922.947V247.26Z" fill="white" fill-opacity="0.05"/>
	<path d="M943.447 247.26H928.874V262.53H943.447V247.26Z" fill="#005DFF"/>
	<path d="M943.447 247.26H928.874V262.53H943.447V247.26Z" fill="white" fill-opacity="0.05"/>
	<path d="M1017.66 312.401H969.904V327.671H1017.66V312.401Z" fill="#FFD964"/>
	<path d="M1017.66 296.115H969.904V311.385H1017.66V296.115Z" fill="#FFD964"/>
	<path d="M1022.53 279.831H974.715V295.101H1022.53V279.831Z" fill="#005DFF"/>
	<path d="M1022.53 279.831H974.715V295.101H1022.53V279.831Z" fill="black" fill-opacity="0.3"/>
	<path d="M1002.03 263.545H954.215V278.815H1002.03V263.545Z" fill="#E1E0E0"/>
	<path d="M955.278 296.115H943.066V311.385H955.278V296.115Z" fill="black" fill-opacity="0.15"/>
	<path d="M939.644 263.545H931.09V278.815H939.644V263.545Z" fill="black" fill-opacity="0.15"/>
	<path d="M1017.66 312.401H969.904V327.671H1017.66V312.401Z" fill="black" fill-opacity="0.15"/>
	<path d="M1017.66 296.115H969.904V311.385H1017.66V296.115Z" fill="black" fill-opacity="0.15"/>
	<path d="M1002.03 263.545H954.215V278.815H1002.03V263.545Z" fill="black" fill-opacity="0.15"/>
	<path d="M991.263 247.26H943.447V262.53H991.263V247.26Z" fill="#005DFF"/>
	<path d="M991.263 247.26H943.447V262.53H991.263V247.26Z" fill="black" fill-opacity="0.3"/>
	<path d="M856.325 295.969V352.548H977.03L921.592 295.969H856.325Z" fill="#A2A2A2"/>
	<path d="M991.263 246.293H892.741V247.26H991.263V246.293Z" fill="white"/>
	<path d="M822.45 293.772H813.439V303.822H822.45V293.772Z" fill="#383838"/>
	<path d="M850.198 293.772H834.521V303.822H850.198V293.772Z" fill="#383838"/>
	<path d="M826.795 285.188H821.727V303.822H826.795V285.188Z" fill="#383838"/>
	<path d="M845.512 290.84H837.042V303.82H845.512V290.84Z" fill="#383838"/>
	<path d="M873.535 285.564H866.594V303.822H873.535V285.564Z" fill="#383838"/>
	<path d="M886.778 292.401H858.667V303.822H886.778V292.401Z" fill="#383838"/>
	<path d="M1368 375H0V391H1368V375Z" fill="#D2DEFF"/>
	<path d="M1333.14 375.026H765.84V383.019H1333.14V375.026Z" fill="#A8BCF3"/>
	<path d="M797.377 335.832H780.161L784.453 340.185C793.559 349.418 793.509 364.273 784.344 373.446L782.765 375.026H799.981H1265.58L1289.55 366.944L1308.52 360.55C1319.09 356.985 1326.21 347.064 1326.21 335.897V335.832H883.795H797.377Z" fill="#383838"/>
	<path d="M924.241 303.172V295.969H740.846L780.161 335.832H797.377H883.795H1326.22V328.739H949.791C935.68 328.74 924.241 317.293 924.241 303.172ZM791.469 302.499L788.465 298.283H801.76L804.764 302.499H791.469ZM817.439 302.499L815.017 298.283H828.311L830.734 302.499H817.439ZM841.207 302.499L839.846 298.283H853.14L854.502 302.499H841.207Z" fill="#4F4F4F"/>
	<path d="M1322.32 232.408H1286.28V244.914H1322.32V232.408Z" fill="#C9C9C9"/>
	<path d="M1313.42 299.188H1277.38V328.739H1313.42V299.188Z" fill="#C9C9C9"/>
	<path d="M1274.5 253.728H1270.1V263.846H1274.5V253.728Z" fill="#4F4F4F"/>
	<path d="M1280.92 259.699H1260.45V263.847H1280.92V259.699Z" fill="#C9C9C9"/>
	<path d="M1272.19 259.699H1260.33V263.847H1272.19V259.699Z" fill="white"/>
	<path d="M1280.92 263.847L1300.73 281.7V277.552L1280.92 259.699V263.847Z" fill="#C9C9C9"/>
	<path d="M1276.28 263.847L1296.08 281.7H1300.73L1280.92 263.847H1276.28Z" fill="#7D7D7D"/>
	<path d="M1306.7 277.552H1300.73V281.7H1306.7V277.552Z" fill="#C9C9C9"/>
	<path d="M1268.5 271.218H1264.09V281.336H1268.5V271.218Z" fill="#4F4F4F"/>
	<path d="M1280.92 277.189H1260.45V281.337H1280.92V277.189Z" fill="#C9C9C9"/>
	<path d="M1272.19 277.189H1260.33V281.337H1272.19V277.189Z" fill="white"/>
	<path d="M1280.92 281.337L1300.73 299.189V295.042L1280.92 277.189V281.337Z" fill="#C9C9C9"/>
	<path d="M1276.28 281.337L1296.08 299.188H1300.73L1280.92 281.337H1276.28Z" fill="#7D7D7D"/>
	<path d="M1306.7 295.042H1300.73V299.19H1306.7V295.042Z" fill="#C9C9C9"/>
	<path d="M1260.33 316.707V328.739H1302.83V309.67H1267.36C1263.48 309.67 1260.33 312.822 1260.33 316.707Z" fill="#7D7D7D"/>
	<path d="M1302.83 309.67H1293.66V328.739H1302.83V309.67Z" fill="#A2A2A2"/>
	<path d="M1293.66 318.729L1302.83 309.67H1293.66V318.729Z" fill="#666666"/>
	<path d="M1252.84 240.041H1172.77V243.467H1252.84V240.041Z" fill="#C9C9C9"/>
	<path d="M1232.58 192.414H1223.57V223.513H1232.58V192.414Z" fill="#FABB5A"/>
	<path d="M1237.08 192.414H1232.58V223.513H1237.08V192.414Z" fill="#B07E38"/>
	<path d="M1211.97 192.414V194.898L1228.07 202.191H1237.08L1254.5 194.898V192.414H1237.08H1211.97Z" fill="#B07E38"/>
	<path d="M1207.47 192.414V194.898L1223.57 202.191H1232.58L1249.99 194.898V192.414H1232.58H1207.47Z" fill="#FABB5A"/>
	<path d="M1255.16 210.888H1237.08V223.513H1255.16V210.888Z" fill="#A2A2A2"/>
	<path d="M1243.51 184.439H1241.89V192.414H1243.51V184.439Z" fill="#666666"/>
	<path d="M1248.75 182.815H1237.06V184.439H1248.75V182.815Z" fill="#666666"/>
	<path d="M1217.74 184.439H1216.12V192.414H1217.74V184.439Z" fill="#666666"/>
	<path d="M1222.99 182.815H1211.29V184.439H1222.99V182.815Z" fill="#666666"/>
</svg>
