<svg width="31" height="34" viewBox="0 0 31 34" fill="none" xmlns="http://www.w3.org/2000/svg">
<g filter="url(#filter0_d)">
<path fill-rule="evenodd" clip-rule="evenodd" d="M5 1V25L10.733 17.7274L15.0135 25.1149L19.2628 22.6527L14.8969 15.1176H26L5 1Z" fill="#0F0F11"/>
<path d="M5 25H4.5C4.5 25.213 4.63494 25.4026 4.83619 25.4724C5.03744 25.5422 5.2608 25.4768 5.39266 25.3095L5 25ZM5 1L5.27896 0.585051C5.12564 0.481979 4.92798 0.471849 4.76492 0.558707C4.60187 0.645565 4.5 0.815255 4.5 1L5 1ZM10.733 17.7274L11.1656 17.4768C11.0826 17.3334 10.9339 17.2405 10.7686 17.2287C10.6033 17.2169 10.4429 17.2878 10.3403 17.4179L10.733 17.7274ZM15.0135 25.1149L14.5808 25.3655C14.7193 25.6045 15.0252 25.6859 15.2641 25.5475L15.0135 25.1149ZM19.2628 22.6527L19.5135 23.0853C19.6283 23.0188 19.7119 22.9095 19.746 22.7813C19.7801 22.6532 19.7619 22.5167 19.6955 22.402L19.2628 22.6527ZM14.8969 15.1176V14.6176C14.7181 14.6176 14.5529 14.7131 14.4636 14.868C14.3744 15.0229 14.3746 15.2136 14.4642 15.3683L14.8969 15.1176ZM26 15.1176V15.6176C26.22 15.6176 26.4141 15.4739 26.4783 15.2635C26.5424 15.0531 26.4615 14.8254 26.279 14.7027L26 15.1176ZM5.5 25V1H4.5V25H5.5ZM10.3403 17.4179L4.60734 24.6905L5.39266 25.3095L11.1257 18.037L10.3403 17.4179ZM15.4461 24.8642L11.1656 17.4768L10.3004 17.9781L14.5808 25.3655L15.4461 24.8642ZM19.0122 22.22L14.7628 24.6822L15.2641 25.5475L19.5135 23.0853L19.0122 22.22ZM14.4642 15.3683L18.8302 22.9033L19.6955 22.402L15.3295 14.867L14.4642 15.3683ZM26 14.6176H14.8969V15.6176H26V14.6176ZM4.72104 1.41495L25.721 15.5326L26.279 14.7027L5.27896 0.585051L4.72104 1.41495Z" fill="white"/>
</g>
<defs>
<filter id="filter0_d" x="0.5" y="0.5" width="30" height="33.115" filterUnits="userSpaceOnUse" color-interpolation-filters="sRGB">
<feFlood flood-opacity="0" result="BackgroundImageFix"/>
<feColorMatrix in="SourceAlpha" type="matrix" values="0 0 0 0 0 0 0 0 0 0 0 0 0 0 0 0 0 0 127 0"/>
<feOffset dy="4"/>
<feGaussianBlur stdDeviation="2"/>
<feColorMatrix type="matrix" values="0 0 0 0 0 0 0 0 0 0 0 0 0 0 0 0 0 0 0.25 0"/>
<feBlend mode="normal" in2="BackgroundImageFix" result="effect1_dropShadow"/>
<feBlend mode="normal" in="SourceGraphic" in2="effect1_dropShadow" result="shape"/>
</filter>
</defs>
</svg>
