<svg width="22" height="22" viewBox="0 0 22 22" fill="none" xmlns="http://www.w3.org/2000/svg">
<path d="M17.9229 2.747C17.7022 2.76306 17.4855 2.81484 17.2814 2.90032H17.2787C17.0827 2.978 16.1512 3.36988 14.7349 3.96388L9.65981 6.10132C6.01812 7.63444 2.43831 9.14419 2.43831 9.14419L2.48093 9.12769C2.48093 9.12769 2.23412 9.20882 1.97631 9.38551C1.81703 9.48686 1.67998 9.61947 1.57343 9.77532C1.44693 9.96094 1.34518 10.2449 1.383 10.5384C1.44487 11.0348 1.76662 11.3325 1.99762 11.4968C2.23137 11.6632 2.45412 11.7409 2.45412 11.7409H2.45962L5.81668 12.8718C5.96725 13.3551 6.83968 16.2234 7.04937 16.8841C7.17312 17.2787 7.29343 17.5255 7.44399 17.7139C7.51687 17.8101 7.60212 17.8906 7.70456 17.9552C7.75781 17.9862 7.81459 18.0106 7.87368 18.0281L7.83931 18.0198C7.84962 18.0226 7.85787 18.0308 7.86543 18.0336C7.89293 18.0411 7.91149 18.0439 7.94656 18.0494C8.47799 18.2103 8.90493 17.8803 8.90493 17.8803L8.92899 17.861L10.9111 16.0563L14.2331 18.6049L14.3087 18.6372C15.001 18.9411 15.7022 18.7719 16.0728 18.4736C16.4461 18.1731 16.5912 17.7888 16.5912 17.7888L16.6152 17.7269L19.1824 4.57575C19.2552 4.25125 19.2738 3.94738 19.1934 3.65244C19.1104 3.35395 18.9189 3.09722 18.6564 2.93263C18.436 2.79865 18.1805 2.73398 17.9229 2.747ZM17.8534 4.15638C17.8507 4.19969 17.8589 4.19488 17.8397 4.27807V4.28563L15.2966 17.3C15.2856 17.3186 15.2671 17.3591 15.2162 17.3997C15.1626 17.4423 15.1199 17.4691 14.8965 17.3804L10.8334 14.2654L8.37899 16.5025L8.89462 13.2094L15.5331 7.02188C15.8067 6.7675 15.7153 6.71388 15.7153 6.71388C15.7346 6.40175 15.3021 6.62244 15.3021 6.62244L6.93112 11.8083L6.92837 11.7945L2.91612 10.4436V10.4408L2.90581 10.4388C2.91284 10.4364 2.91973 10.4337 2.92643 10.4305L2.94843 10.4195L2.96975 10.4119C2.96975 10.4119 6.55231 8.90219 10.194 7.36907C12.0172 6.60113 13.8542 5.82769 15.2671 5.23094C16.6799 4.63763 17.7242 4.20244 17.7833 4.17907C17.8397 4.15707 17.8129 4.15707 17.8534 4.15707V4.15638Z" fill="#377BE2"/>
</svg>
