<svg width="28" height="30" viewBox="0 0 28 30" fill="none" xmlns="http://www.w3.org/2000/svg">
<path d="M25.3842 4.87433H20.3539V3.22321C20.3539 2.99601 20.1698 2.81181 19.9425 2.81181C19.7153 2.81181 19.5311 2.99601 19.5311 3.22321V4.87433H17.827C17.5998 4.87433 17.4156 5.05853 17.4156 5.28573C17.4156 5.51293 17.5998 5.69713 17.827 5.69713H19.5311V7.43914H19.2224C18.7912 7.43914 18.4405 7.78992 18.4405 8.22101V13.0642C18.4405 13.4953 18.7912 13.8461 19.2224 13.8461H19.5311V17.1099C19.5311 17.3371 19.7153 17.5212 19.9425 17.5212C20.1698 17.5212 20.3539 17.3371 20.3539 17.1099V13.8461H20.6627C21.0938 13.8461 21.4446 13.4953 21.4446 13.0642V8.22101C21.4446 7.78987 21.0938 7.43914 20.6627 7.43914H20.3539V5.69713H25.3842C26.3727 5.69713 27.177 6.50138 27.177 7.48993V21.5704H0.82328V7.48999C0.82328 6.50143 1.62753 5.69718 2.61609 5.69718H9.82769V6.50006H9.51893C9.08778 6.50006 8.73705 6.85084 8.73705 7.28193V12.1251C8.73705 12.5562 9.08784 12.907 9.51893 12.907H9.82769V16.5422C9.82769 16.7694 10.0119 16.9536 10.2391 16.9536C10.4663 16.9536 10.6505 16.7694 10.6505 16.5422V12.907H10.9593C11.3904 12.907 11.7411 12.5562 11.7411 12.1251V7.28193C11.7411 6.85079 11.3903 6.50006 10.9593 6.50006H10.6505V5.69713H12.3546C12.5818 5.69713 12.766 5.51293 12.766 5.28573C12.766 5.05853 12.5818 4.87433 12.3546 4.87433H10.6505V4.67116C10.6505 4.44396 10.4663 4.25976 10.2391 4.25976C10.0119 4.25976 9.82769 4.44396 9.82769 4.67116V4.87433H2.61609C1.17384 4.87433 0.000488281 6.04769 0.000488281 7.48993V21.9818C0.000488281 23.424 1.17384 24.5974 2.61609 24.5974H8.87858V26.6891L7.55262 28.2272H7.02631C6.79911 28.2272 6.61491 28.4114 6.61491 28.6386C6.61491 28.8658 6.79911 29.05 7.02631 29.05H20.936C21.1633 29.05 21.3474 28.8658 21.3474 28.6386C21.3474 28.4114 21.1633 28.2272 20.936 28.2272H20.4476L19.1217 26.6891V24.5974H25.3842C26.8265 24.5974 27.9998 23.424 27.9998 21.9818V7.48999C27.9998 6.04774 26.8265 4.87433 25.3842 4.87433ZM20.6218 13.0234H19.2633V8.26199H20.6218V13.0234H20.6218ZM10.9183 12.0842H9.55979V7.32285H10.9183V12.0842ZM25.3842 23.7746H17.0581C16.8308 23.7746 16.6467 23.9588 16.6467 24.186C16.6467 24.4132 16.8308 24.5974 17.0581 24.5974H18.2989V26.4306H17.2741C17.0469 26.4306 16.8627 26.6148 16.8627 26.842C16.8627 27.0692 17.0469 27.2534 17.2741 27.2534H18.5217L19.3613 28.2272H8.63898L9.4785 27.2534H10.7261C10.9533 27.2534 11.1375 27.0692 11.1375 26.842C11.1375 26.6148 10.9533 26.4306 10.7261 26.4306H9.70137V24.5974H15.3048C15.5321 24.5974 15.7162 24.4132 15.7162 24.186C15.7162 23.9588 15.5321 23.7746 15.3048 23.7746H2.61609C1.76911 23.7746 1.05794 23.184 0.871441 22.3932H27.1288C26.9424 23.184 26.2312 23.7746 25.3842 23.7746Z" fill="#556274"/>
<path d="M4.29665 12.9608C4.06945 12.9608 3.88525 13.145 3.88525 13.3722V14.3653C3.88525 14.7965 4.23598 15.1472 4.66712 15.1472H4.97589V17.3381C4.97589 17.5653 5.16009 17.7495 5.38729 17.7495C5.61449 17.7495 5.79868 17.5653 5.79868 17.3381V15.1472H6.10745C6.53859 15.1472 6.88932 14.7965 6.88932 14.3653V9.52216C6.88932 9.09101 6.53854 8.74023 6.10745 8.74023H5.79868V8.08222C5.79868 7.85502 5.61449 7.67082 5.38729 7.67082C5.16009 7.67082 4.97589 7.85502 4.97589 8.08222V8.74023H4.66712C4.23598 8.74023 3.88525 9.09101 3.88525 9.52216V11.619C3.88525 11.8462 4.06945 12.0304 4.29665 12.0304C4.52385 12.0304 4.70805 11.8462 4.70805 11.619V9.56308H5.38679H5.38734C5.38734 9.56308 5.38767 9.56308 5.38789 9.56308H6.06664V14.3245H4.70805V13.3722C4.70805 13.145 4.52385 12.9608 4.29665 12.9608Z" fill="#556274"/>
<path d="M14.3707 12.0929H14.6796V14.2837C14.6796 14.5109 14.8637 14.6951 15.091 14.6951C15.3182 14.6951 15.5023 14.5109 15.5023 14.2837V12.0929H15.8111C16.2422 12.0929 16.593 11.7421 16.593 11.311V8.08414C16.593 7.85694 16.4088 7.67274 16.1816 7.67274C15.9543 7.67274 15.7702 7.85694 15.7702 8.08414V11.2701H14.4117V3.82093H15.7702V6.33094C15.7702 6.55814 15.9543 6.74233 16.1816 6.74233C16.4088 6.74233 16.593 6.55814 16.593 6.33094V3.78001C16.593 3.34892 16.2422 2.99814 15.8111 2.99814H15.5023V1.36144C15.5023 1.13424 15.3182 0.950043 15.091 0.950043C14.8637 0.950043 14.6796 1.13424 14.6796 1.36144V2.99814H14.3707C13.9396 2.99814 13.5889 3.34892 13.5889 3.78001V11.311C13.5889 11.7422 13.9396 12.0929 14.3707 12.0929Z" fill="#556274"/>
<path d="M22.3169 12.2287C22.3913 12.3666 22.533 12.4449 22.6794 12.4449C22.7453 12.4449 22.8122 12.429 22.8743 12.3956L24.7693 11.3738L24.633 11.7316C24.5521 11.9439 24.6587 12.1816 24.871 12.2625C24.9192 12.2808 24.9687 12.2895 25.0174 12.2895C25.1831 12.2895 25.3394 12.1886 25.4019 12.0245L25.8651 10.8086C25.946 10.5963 25.8394 10.3586 25.6271 10.2777L24.3366 9.78604C24.1243 9.70518 23.8866 9.81171 23.8057 10.024C23.7247 10.2364 23.8313 10.4741 24.0437 10.555L24.3429 10.6689L22.4838 11.6713C22.2838 11.7792 22.2091 12.0287 22.3169 12.2287Z" fill="#556274"/>
<path d="M2.43317 20.267C2.49998 20.4231 2.65186 20.5167 2.81154 20.5167C2.86551 20.5167 2.92042 20.506 2.97325 20.4834L8.28179 18.2114L8.76422 19.4754C8.80646 19.586 8.89427 19.6731 9.00524 19.7143C9.11615 19.7555 9.23957 19.747 9.34379 19.6908L18.1139 14.9622C18.3139 14.8544 18.3886 14.6048 18.2807 14.4048C18.173 14.2049 17.9235 14.1301 17.7234 14.238L9.36579 18.7441L8.89784 17.518C8.85791 17.4134 8.77711 17.3296 8.67404 17.2859C8.57097 17.2422 8.45457 17.2425 8.35162 17.2865L2.6495 19.7269C2.44068 19.8163 2.34381 20.0581 2.43317 20.267Z" fill="#556274"/>
</svg>
