<svg width="24" height="19" viewBox="0 0 24 19" fill="none" xmlns="http://www.w3.org/2000/svg">
<path d="M23.2992 2.70347C22.4683 3.07181 21.5746 3.32093 20.6373 3.4322C21.5943 2.85896 22.3287 1.95194 22.6754 0.869383C21.7799 1.40047 20.7876 1.78573 19.7325 1.9934C18.8871 1.09329 17.6827 0.530762 16.349 0.530762C13.7901 0.530762 11.7147 2.60568 11.7147 5.164C11.7147 5.52716 11.7559 5.88064 11.8354 6.21995C7.98391 6.0268 4.56896 4.18235 2.28311 1.37835C1.88428 2.06251 1.65548 2.85896 1.65548 3.70793C1.65548 5.315 2.47423 6.73376 3.71703 7.56441C2.95773 7.54057 2.24267 7.33222 1.61816 6.98427C1.61781 7.00396 1.61781 7.02366 1.61781 7.04301C1.61781 9.28793 3.2159 11.1604 5.33552 11.5857C4.94705 11.6921 4.53682 11.7485 4.11483 11.7485C3.81553 11.7485 3.52557 11.7198 3.24286 11.6659C3.83247 13.5062 5.54357 14.8458 7.57195 14.8835C5.98561 16.1264 3.98765 16.8668 1.81585 16.8668C1.44259 16.8668 1.07279 16.8451 0.710938 16.8019C2.76074 18.117 5.19727 18.8837 7.81422 18.8837C16.3383 18.8837 20.9998 11.8238 20.9998 5.70061C20.9998 5.49986 20.9954 5.2998 20.9864 5.10146C21.8926 4.44841 22.6781 3.6326 23.2992 2.70347Z" fill="#2272FF"/>
</svg>
