<svg width="16" height="16" viewBox="0 0 16 16" fill="none" xmlns="http://www.w3.org/2000/svg">
<path d="M10.8 10.375H10.1012C9.69898 10.375 9.5232 9.87156 9.81129 9.62656C11.2866 8.36875 12.2 5.81 12.2 4.21875C12.2 1.8925 10.3159 0 8 0C5.68378 0 3.8 1.8925 3.8 4.21875C3.8 5.81 4.71311 8.36875 6.1884 9.62656C6.47587 9.87094 6.30164 10.375 5.89844 10.375H5.2C2.88378 10.375 1 12.2675 1 14.5938V15.5312C1 15.7903 1.20876 16 1.46667 16H14.5333C14.7912 16 15 15.7903 15 15.5312V14.5938C15 12.2675 13.1159 10.375 10.8 10.375Z" fill="#9FA4BB"/>
</svg>
