<svg width="13" height="13" viewBox="0 0 13 13" fill="none" xmlns="http://www.w3.org/2000/svg">
<path d="M8.775 8.42969H8.20726C7.88042 8.42969 7.7376 8.02064 7.97167 7.82158C9.17034 6.79961 9.9125 4.72062 9.9125 3.42773C9.9125 1.53766 8.38168 0 6.5 0C4.61807 0 3.0875 1.53766 3.0875 3.42773C3.0875 4.72062 3.8294 6.79961 5.02808 7.82158C5.26164 8.02014 5.12009 8.42969 4.79249 8.42969H4.225C2.34307 8.42969 0.8125 9.96734 0.8125 11.8574V12.6191C0.8125 12.8296 0.982114 13 1.19167 13H11.8083C12.0179 13 12.1875 12.8296 12.1875 12.6191V11.8574C12.1875 9.96734 10.6567 8.42969 8.775 8.42969Z" fill="#005DFF"/>
</svg>
