<svg width="48" height="48" viewBox="0 0 48 48" fill="none" xmlns="http://www.w3.org/2000/svg">
<rect width="48" height="48" rx="4" fill="#D9D9D9" fill-opacity="0.3"/>
<path d="M26.5 34H28.8C30.5673 34 32 32.5673 32 30.8V30.8C32 28.149 29.851 26 27.2 26H20.8C18.149 26 16 28.149 16 30.8V30.8C16 32.5673 17.4327 34 19.2 34H21.5M28 18C28 20.2091 26.2091 22 24 22C21.7909 22 20 20.2091 20 18C20 15.7909 21.7909 14 24 14C26.2091 14 28 15.7909 28 18Z" stroke="#2F384C" stroke-width="1.5" stroke-linecap="round" stroke-linejoin="round"/>
</svg>
