<svg width="22" height="22" viewBox="0 0 22 22" fill="none" xmlns="http://www.w3.org/2000/svg">
<path d="M10.4934 1.3778C8.8657 1.39645 5.36636 1.65034 3.40912 3.35478C1.95323 4.7241 1.4449 6.74861 1.38533 9.25202C1.33589 11.7464 1.27631 16.4308 6.03315 17.7062V19.6489C6.03315 19.6489 6.00336 20.4262 6.54464 20.5857C7.21142 20.786 7.59108 20.188 8.22491 19.5454L9.40698 18.2766C12.6617 18.5335 15.1545 17.9415 15.4416 17.8536C16.102 17.6533 19.822 17.2021 20.4298 12.5171C21.0535 7.67874 20.1262 4.63025 18.4523 3.2513H18.4421C17.937 2.8097 15.9068 1.40548 11.3712 1.38983C11.3712 1.38983 11.0346 1.36818 10.4934 1.3772V1.3778ZM10.5491 2.7381C11.0112 2.73509 11.292 2.75374 11.292 2.75374C15.131 2.76337 16.9634 3.86015 17.3957 4.22956C18.8053 5.37628 19.5317 8.12456 18.9999 12.1639C18.4947 16.0806 15.4777 16.3285 14.9193 16.4975C14.6817 16.5697 12.4861 17.0835 9.72009 16.9145C9.72009 16.9145 7.66017 19.2741 7.0162 19.8817C6.91416 19.9882 6.795 20.0195 6.71894 20.0039C6.60992 19.9786 6.57697 19.8505 6.5833 19.6748L6.60295 16.4506C2.56867 15.3917 2.80636 11.3963 2.84946 9.30918C2.89889 7.2221 3.31151 5.51466 4.53986 4.35831C6.1935 2.93905 9.16486 2.74773 10.5479 2.7381H10.5491ZM10.8534 4.82458C10.8202 4.82426 10.7872 4.83018 10.7564 4.84201C10.7257 4.85383 10.6976 4.87132 10.674 4.89347C10.6504 4.91561 10.6316 4.94198 10.6188 4.97105C10.6059 5.00012 10.5993 5.03131 10.5992 5.06283C10.5992 5.19759 10.7146 5.30408 10.8534 5.30408C11.4818 5.29274 12.1064 5.3996 12.6911 5.61851C13.2758 5.83742 13.8091 6.16405 14.2602 6.57955C15.1811 7.42846 15.6299 8.56917 15.647 10.0606C15.647 10.1924 15.7592 10.3019 15.9011 10.3019V10.2923C15.968 10.2924 16.0323 10.2675 16.0799 10.2228C16.1275 10.1782 16.1546 10.1175 16.1553 10.054C16.1861 9.35198 16.0661 8.65136 15.8028 7.9947C15.5394 7.33805 15.1381 6.73908 14.6233 6.23421C13.62 5.30348 12.3486 4.82398 10.8534 4.82398V4.82458ZM7.51249 5.37628C7.33308 5.3514 7.15011 5.38558 6.99402 5.47314H6.98071C6.61833 5.67477 6.29188 5.92962 6.0135 6.2282C5.78215 6.48209 5.65666 6.73899 5.6237 6.98626C5.60405 7.13366 5.61736 7.28106 5.66363 7.42184L5.68011 7.43147C5.94061 8.15825 6.28097 8.85735 6.69676 9.51554C7.23235 10.4402 7.89148 11.2954 8.65781 12.0599L8.68062 12.0911L8.71675 12.1164L8.73957 12.1417L8.76619 12.1633C9.57446 12.8929 10.4776 13.5215 11.4536 14.0338C12.5691 14.6102 13.246 14.8827 13.6523 14.9958V15.0019C13.7715 15.0362 13.8799 15.0518 13.9889 15.0518C14.3351 15.0277 14.6629 14.8943 14.92 14.6728C15.2331 14.4085 15.4986 14.0973 15.7059 13.7517V13.7456C15.9005 13.3979 15.8346 13.0688 15.5538 12.8462C14.9915 12.3796 14.3834 11.9652 13.7379 11.6086C13.3056 11.386 12.8664 11.5208 12.6883 11.7464L12.3086 12.2006C12.114 12.4263 11.7604 12.395 11.7604 12.395L11.7502 12.401C9.11289 11.7614 8.40935 9.22675 8.40935 9.22675C8.40935 9.22675 8.37639 8.88202 8.62041 8.70634L9.09578 8.34295C9.32332 8.16727 9.48177 7.75094 9.23775 7.34002C8.86469 6.72644 8.42906 6.14911 7.93715 5.61633C7.82961 5.49073 7.67874 5.40527 7.51122 5.37508L7.51249 5.37628ZM11.292 6.09102C10.9554 6.09102 10.9554 6.57354 11.2951 6.57354C11.7136 6.57998 12.1267 6.66465 12.5107 6.82269C12.8947 6.98074 13.2422 7.20907 13.5332 7.49464C13.7986 7.7726 14.0026 8.09831 14.133 8.45247C14.2635 8.80663 14.3177 9.18204 14.2925 9.55645C14.2936 9.61981 14.3209 9.68023 14.3684 9.72476C14.4159 9.76929 14.4799 9.79439 14.5467 9.7947L14.5568 9.80733C14.624 9.80686 14.6884 9.78129 14.736 9.73615C14.7835 9.69101 14.8105 9.62992 14.811 9.56608C14.8338 8.61008 14.5207 7.80809 13.9065 7.16555C13.2891 6.523 12.4278 6.16262 11.3281 6.09102H11.292ZM11.7084 7.38815C11.3617 7.37853 11.3484 7.87066 11.6919 7.88029C12.5273 7.9212 12.9329 8.32189 12.9862 9.14613C12.9873 9.2087 13.0143 9.26835 13.0612 9.31232C13.1081 9.35628 13.1713 9.38107 13.2372 9.38137H13.2473C13.2812 9.38 13.3145 9.37222 13.3452 9.35851C13.3759 9.34479 13.4034 9.32541 13.4261 9.3015C13.4488 9.27758 13.4663 9.24961 13.4775 9.21922C13.4887 9.18883 13.4934 9.15662 13.4913 9.12448C13.4318 8.04995 12.8144 7.44471 11.7185 7.38875H11.7084V7.38815Z" fill="#3865DA"/>
</svg>
