<svg width="16" height="16" viewBox="0 0 16 16" fill="none" xmlns="http://www.w3.org/2000/svg">
<path fill-rule="evenodd" clip-rule="evenodd" d="M7.99935 1.99984C4.68564 1.99984 1.99935 4.68613 1.99935 7.99984C1.99935 11.3135 4.68564 13.9998 7.99935 13.9998C11.3131 13.9998 13.9993 11.3135 13.9993 7.99984C13.9993 4.68613 11.3131 1.99984 7.99935 1.99984ZM0.666016 7.99984C0.666016 3.94975 3.94926 0.666504 7.99935 0.666504C12.0494 0.666504 15.3327 3.94975 15.3327 7.99984C15.3327 12.0499 12.0494 15.3332 7.99935 15.3332C3.94926 15.3332 0.666016 12.0499 0.666016 7.99984Z" fill="#9FA4BB"/>
<path fill-rule="evenodd" clip-rule="evenodd" d="M0.666016 7.99984C0.666016 7.63165 0.964492 7.33317 1.33268 7.33317H14.666C15.0342 7.33317 15.3327 7.63165 15.3327 7.99984C15.3327 8.36803 15.0342 8.6665 14.666 8.6665H1.33268C0.964492 8.6665 0.666016 8.36803 0.666016 7.99984Z" fill="#9FA4BB"/>
<path fill-rule="evenodd" clip-rule="evenodd" d="M5.9995 7.99984C6.04519 10.0497 6.75018 12.0233 7.99935 13.6326C9.24851 12.0233 9.9535 10.0497 9.99919 7.99984C9.9535 5.94994 9.24851 3.9764 7.99935 2.36703C6.75019 3.9764 6.04519 5.94994 5.9995 7.99984ZM7.99935 1.33317L7.50712 0.883555C5.73061 2.82844 4.72102 5.35241 4.66616 7.98595C4.66597 7.99521 4.66597 8.00447 4.66616 8.01372C4.72102 10.6473 5.73061 13.1712 7.50712 15.1161C7.63342 15.2544 7.81207 15.3332 7.99935 15.3332C8.18663 15.3332 8.36527 15.2544 8.49158 15.1161C10.2681 13.1712 11.2777 10.6473 11.3325 8.01372C11.3327 8.00447 11.3327 7.99521 11.3325 7.98595C11.2777 5.35241 10.2681 2.82844 8.49158 0.883555L7.99935 1.33317Z" fill="#9FA4BB"/>
</svg>
