<svg width="40" height="40" viewBox="0 0 40 40" fill="none" xmlns="http://www.w3.org/2000/svg">
<rect x="0.5" y="0.5" width="39" height="39" rx="5.5" stroke="currentColor"/>
<path d="M25 16H24.2C23.0799 16 22.5198 16 22.092 16.218C21.7157 16.4097 21.4097 16.7157 21.218 17.092C21 17.5198 21 18.0799 21 19.2V30H22C24.8003 30 26.2004 30 27.27 29.455C28.2108 28.9757 28.9757 28.2108 29.455 27.27C30 26.2004 30 24.8003 30 22V18C30 15.1997 30 13.7996 29.455 12.73C28.9757 11.7892 28.2108 11.0243 27.27 10.545C26.2004 10 24.8003 10 22 10H18C15.1997 10 13.7996 10 12.73 10.545C11.7892 11.0243 11.0243 11.7892 10.545 12.73C10 13.7996 10 15.1997 10 18V23.5C10 24.8945 10 25.5918 10.1382 26.1672C10.5771 27.9955 12.0045 29.4229 13.8328 29.8618C14.4082 30 15.1055 30 16.5 30V30H17M18 22H25" stroke="currentColor" stroke-width="1.5" stroke-linecap="round" stroke-linejoin="round"/>
</svg>
