<svg width="40" height="40" viewBox="0 0 40 40" fill="none" xmlns="http://www.w3.org/2000/svg">
<rect x="0.5" y="0.5" width="39" height="39" rx="5.5" stroke="currentColor"/>
<path d="M19.5 26V22C19.5 20.3431 20.8431 19 22.5 19V19C24.1569 19 25.5 20.3431 25.5 22V26M15.5 26V19M16 15.5C16 15.7761 15.7761 16 15.5 16C15.2239 16 15 15.7761 15 15.5M16 15.5C16 15.2239 15.7761 15 15.5 15C15.2239 15 15 15.2239 15 15.5M16 15.5H15M30 18V17.5V17.5C30 15.1703 30 14.0054 29.6194 13.0866C29.1119 11.8614 28.1386 10.8881 26.9134 10.3806C25.9946 10 24.8297 10 22.5 10H18C15.1997 10 13.7996 10 12.73 10.545C11.7892 11.0243 11.0243 11.7892 10.545 12.73C10 13.7996 10 15.1997 10 18V22C10 24.8003 10 26.2004 10.545 27.27C11.0243 28.2108 11.7892 28.9757 12.73 29.455C13.7996 30 15.1997 30 18 30H22.5C24.8297 30 25.9946 30 26.9134 29.6194C28.1386 29.1119 29.1119 28.1386 29.6194 26.9134C30 25.9946 30 24.8297 30 22.5V22.5V22" stroke="currentColor" stroke-width="1.5" stroke-linecap="round" stroke-linejoin="round"/>
</svg>
