<svg width="24" height="24" viewBox="0 0 24 24" fill="none" xmlns="http://www.w3.org/2000/svg">
	<g clip-path="url(#clip0_5247_34359)">
		<path d="M23.109 12.8846C22.9398 15.0112 22.1636 17.0445 20.8728 18.743C19.582 20.4415 17.8308 21.7337 15.8272 22.4662C13.8235 23.1986 11.6518 23.3406 9.56987 22.8751C7.48797 22.4096 5.58345 21.3562 4.08257 19.8402C2.5817 18.3242 1.54756 16.4092 1.10302 14.3227C0.658473 12.2362 0.822212 10.066 1.57478 8.06983C2.32735 6.07367 3.63711 4.3355 5.34847 3.06182C7.05982 1.78815 9.10083 1.03249 11.229 0.884644" stroke="black" stroke-width="1.5" stroke-linecap="round" stroke-linejoin="round"/>
		<path d="M16.7833 13.8686C16.4737 14.6654 15.9704 15.3725 15.3189 15.9259C14.6674 16.4792 13.8882 16.8615 13.0518 17.0381C12.2155 17.2146 11.3483 17.18 10.5287 16.9371C9.70905 16.6943 8.9629 16.251 8.35767 15.6474C7.75245 15.0437 7.30724 14.2987 7.06231 13.4797C6.81738 12.6607 6.78046 11.7936 6.95487 10.9568C7.12929 10.1199 7.50955 9.33979 8.06126 8.68685C8.61297 8.03392 9.31874 7.5288 10.1147 7.21718M12.0004 12L16.2862 7.71432M16.2862 7.71432L19.7147 8.57146L23.1433 5.14289L19.7147 4.28575L18.8576 0.857178L15.429 4.28575L16.2862 7.71432Z" stroke="black" stroke-width="1.5" stroke-linecap="round" stroke-linejoin="round"/>
	</g>
	<defs>
		<clipPath id="clip0_5247_34359">
			<rect width="24" height="24" fill="white"/>
		</clipPath>
	</defs>
</svg>
