<svg width="56" height="56" viewBox="0 0 56 56" fill="none" xmlns="http://www.w3.org/2000/svg">
	<path fill-rule="evenodd" clip-rule="evenodd" d="M2.33313 0.833516L3.4998 0.833374H3.50002L5.51499 0.833423L5.56479 0.833423L5.5648 0.833423C6.20394 0.833416 6.76206 0.83341 7.2286 0.867527C7.72608 0.903908 8.21946 0.98403 8.71247 1.19434C9.45868
	 1.51267 10.105 2.0268 10.5829 2.68234C10.8987 3.11544 11.0877 3.57817 11.235 4.05474C11.3731 4.50167 11.4986 5.04552 11.6423 5.66831L11.6535 5.71681L12.142 7.83352H49.3657L49.4274 7.83351H49.4275C50.1034 7.83347 50.7073 7.83344 51.2 7.87748C51.7168
	 7.92368 52.2966 8.02983 52.8338 8.36566C53.5794 8.83172 54.1222 9.56131 54.3544 10.4093C54.5217 11.0204 54.4567 11.6063 54.3525 12.1145C54.2531 12.5991 54.0795 13.1775 53.8853 13.8249L53.8675 13.8841L49.1296 29.6771L49.0653 29.8924C48.7636 30.9035
	 48.499 31.7906 47.947 32.4798C47.4645 33.0822 46.8352 33.5505 46.1196 33.8395C45.3008 34.1701 44.3751 34.1687 43.3199 34.1671L43.0953 34.1668H20.1518H20.102H20.1018C19.9975 34.1668 19.8954 34.1669 19.7955 34.1667H14C13.3331 34.1667 13.1449 34.1699 13.007
	 34.1881C11.8852 34.3358 11.0024 35.2186 10.8547 36.3404C10.8365 36.4783 10.8333 36.6665 10.8333 37.3334C10.8333 38.0003 10.8365 38.1885 10.8547 38.3264C11.0024 39.4482 11.8852 40.331 13.007 40.4787C13.1449 40.4968 13.3331 40.5 14 40.5H21H39.6666H49C49.8284
	 40.5 50.5 41.1716 50.5 42C50.5 42.8285 49.8284 43.5 49 43.5H44.9592C45.5142 44.4257 45.8333 45.5089 45.8333 46.6667C45.8333 50.0725 43.0724 52.8334 39.6666 52.8334C36.2609 52.8334 33.5 50.0725 33.5 46.6667C33.5 45.5089 33.819 44.4257 34.3741 43.5H26.2926C26.8476
	 44.4257 27.1666 45.5089 27.1666 46.6667C27.1666 50.0725 24.4057 52.8334 21 52.8334C17.5942 52.8334 14.8333 50.0725 14.8333 46.6667C14.8333 45.5089 15.1524 44.4257 15.7074 43.5H14L13.9023 43.5001C13.3788 43.5002 12.9753 43.5004 12.6154 43.453C10.1474 43.1281 8.20529
	 41.186 7.88037 38.7179C7.83298 38.358 7.83312 37.9546 7.83329 37.4311L7.83331 37.3334L7.83329 37.2357C7.83312 36.7122 7.83298 36.3087 7.88037 35.9488C8.20529 33.4808 10.1474 31.5387 12.6154 31.2138C12.9753 31.1664 13.3788 31.1665 13.9022 31.1667H13.9023L14 31.1667H14.5037C14.4784 31.0934 14.4545 31.0196 14.4316 30.9456C14.2935 30.4987 14.168 29.9548 14.0243 29.332L14.0131 29.2835L9.48711 9.6708L8.73032 6.39139C8.57217 5.70605 8.47064 5.27023 8.36877 4.94065C8.27249 4.62916 8.20425 4.51207 8.15881 4.44975C7.99949 4.23124 7.78407 4.05986 7.53533 3.95375C7.46439 3.92349 7.33496 3.88332 7.00979 3.85954C6.66575 3.83438 6.21826 3.83344 5.51491 3.83342L3.50016 3.83337H3.49994L2.3335 3.83352C1.50507 3.83362 0.833414 3.16213 0.833313 2.3337C0.833212 1.50527 1.5047 0.833618 2.33313 0.833516ZM32.6874 31.1668C32.6805 31.1668 32.6736 31.1667 32.6666 31.1667H19.8521C19.3165 31.166 18.9493 31.1621 18.6569 31.1408C18.3317 31.117 18.2022 31.0768 18.1313 31.0466C17.8826 30.9405 17.6671 30.7691 17.5078 30.5506C17.4624 30.4882 17.3941 30.3712 17.2978 30.0597C17.196 29.7301 17.0944 29.2942 16.9363 28.6089L12.8343 10.8335H49.3657C50.1225 10.8335 50.5901 10.8349 50.9329 10.8656C51.1429 10.8843 51.2318 10.9095 51.2561 10.9176C51.3521 10.9816 51.4229 11.0769 51.4567 11.1872C51.4575 11.2128 51.456 11.3052 51.4137 11.5118C51.3445 11.8489 51.2115 12.2971 50.9941 13.022L46.2561 28.8151C45.8499 30.1693 45.7433 30.4323 45.6054 30.6045C45.4445 30.8053 45.2348 30.9614 44.9962 31.0577C44.7917 31.1403 44.5091 31.1668 43.0953 31.1668H32.6874ZM21 43.5C19.2511 43.5 17.8333 44.9178 17.8333 46.6667C17.8333 48.4156 19.2511 49.8334 21 49.8334C22.7489 49.8334 24.1666 48.4156 24.1666 46.6667C24.1666 44.9178 22.7489 43.5 21 43.5ZM39.6666 43.5C37.9177 43.5 36.5 44.9178 36.5 46.6667C36.5 48.4156 37.9177 49.8334 39.6666 49.8334C41.4156 49.8334 42.8333 48.4156 42.8333 46.6667C42.8333 44.9178 41.4156 43.5 39.6666 43.5Z" fill="#005DFF"/>
</svg>
