<svg width="20" height="20" viewBox="0 0 20 20" fill="none" xmlns="http://www.w3.org/2000/svg">
	<g clip-path="url(#clip0_3376_8479)">
		<path d="M19.5455 0.454616C19.9622 0.94704 20.019 1.6478 19.716 2.55689C19.413 3.46598 18.9016 4.28037 18.1819 5.00007L15.895 7.287L18.1677 17.1734C18.215 17.3533 18.1582 17.5095 17.9972 17.6421L16.179 19.0058C16.1128 19.0626 16.0228 19.091 15.9092 19.091C15.8713 19.091 15.8381 19.0862 15.8097 19.0768C15.6677 19.0484 15.5683 18.9726 15.5114 18.8495L11.5484 11.6336L7.86939 15.3126L8.62223 18.0683C8.66958 18.2292 8.6317 18.376 8.50859 18.5086L7.14496 19.8722C7.05973 19.9575 6.95083 20.0001 6.81825 20.0001H6.78984C6.6478 19.9811 6.53416 19.9196 6.44893 19.8154L3.76428 16.2359L0.18473 13.5512C0.080563 13.4849 0.01901 13.376 7.06193e-05 13.2245C-0.00939908 13.1014 0.0332146 12.983 0.127912 12.8694L1.49155 11.4915C1.57678 11.4063 1.68568 11.3637 1.81825 11.3637C1.87507 11.3637 1.91295 11.3684 1.93189 11.3779L4.68757 12.1308L8.36655 8.45177L1.15064 4.48871C1.01806 4.41295 0.937571 4.29931 0.909162 4.1478C0.890222 3.99628 0.932836 3.86844 1.037 3.76427L2.85518 1.94609C2.98776 1.82299 3.12981 1.78511 3.28132 1.83246L12.7273 4.09098L15.0001 1.81825C15.7198 1.09855 16.5342 0.587191 17.4433 0.284161C18.3523 -0.0188693 19.0531 0.0379489 19.5455 0.454616Z" fill="white"/>
	</g>
	<defs>
		<clipPath id="clip0_3376_8479">
			<rect width="20" height="20" fill="white"/>
		</clipPath>
	</defs>
</svg>
