<svg width="16" height="16" viewBox="0 0 16 16" fill="none" xmlns="http://www.w3.org/2000/svg">
	<path d="M8.91346 13.3669L10.2535 10.2535L10.5468 9.5602C10.6001 9.45354 10.7401 9.3602 10.8601 9.3602H12.9001C13.5401 9.3602 14.3001 8.88687 14.5935 8.31354C14.6935 8.11354 14.6935 7.87354 14.5935 7.67354C14.3001 7.10687 13.5335 6.63354 12.8935 6.63354H10.8535C10.7335 6.63354 10.5935 6.5402 10.5401 6.43354L8.90679 2.63354C8.73346 2.21354 8.20679 1.87354 7.75346 1.87354H6.87346C6.30679 1.87354 6.02679 2.3002 6.25346 2.82687L7.69346 6.16687C7.80679 6.42687 7.66679 6.6402 7.38012 6.6402H6.64012H5.44012C5.28679 6.6402 5.06679 6.55354 4.96012 6.44687L3.40679 4.9002C3.24679 4.7402 2.93346 4.66687 2.70679 4.7402L1.80012 5.0402C1.40679 5.1602 1.22012 5.60687 1.40679 5.97354L2.74012 7.5602C2.94679 7.8002 2.94679 8.19354 2.74012 8.43354L1.40679 10.0202C1.22679 10.3869 1.40679 10.8335 1.80012 10.9669L2.70679 11.2669C2.92679 11.3402 3.24679 11.2669 3.40679 11.1069L4.96012 9.5602C5.06679 9.44687 5.28679 9.3602 5.44012 9.3602H7.38012C7.66679 9.3602 7.80012 9.56687 7.69346 9.83354L6.25346 13.1735C6.02679 13.7002 6.30679 14.1269 6.87346 14.1269H7.75346C8.20679 14.1269 8.73346 13.7869 8.91346 13.3669Z" fill="#292D32"/>
</svg>
