<svg width="18" height="16" viewBox="0 0 18 16" fill="none" xmlns="http://www.w3.org/2000/svg">
	<path d="M9.19854 14.6668C8.45868 14.6668 7.70062 14.5446 6.92437 14.3002C6.14812 14.0557 5.44464 13.7224 4.81394 13.3002C4.18324 12.8779 3.6646 12.3835 3.25804 11.8168C2.85148 11.2502 2.64844 10.6446 2.64893 10.0002V8.00016L5.55987 10.0002L4.43188 11.0335C4.78362 11.6002 5.34155 12.0891 6.10567 12.5002C6.86979 12.9113 7.65817 13.1724 8.47081 13.2835V7.3335H6.2876V6.00016H8.47081V5.21683C8.0463 5.07238 7.69747 4.83061 7.42433 4.4915C7.15118 4.15238 7.01485 3.76638 7.01534 3.3335C7.01534 2.77794 7.22759 2.30572 7.65211 1.91683C8.07662 1.52794 8.5921 1.3335 9.19854 1.3335C9.80499 1.3335 10.3205 1.52794 10.745 1.91683C11.1695 2.30572 11.3818 2.77794 11.3818 3.3335C11.3818 3.76683 11.2452 4.15305 10.972 4.49216C10.6989 4.83127 10.3503 5.07261 9.92628 5.21616V6.00016H12.1095V7.3335H9.92628V13.2835C10.7389 13.1724 11.5273 12.9113 12.2914 12.5002C13.0555 12.0891 13.6135 11.6002 13.9652 11.0335L12.8372 10.0002L15.7482 8.00016V10.0002C15.7482 10.6446 15.5449 11.2502 15.1383 11.8168C14.7318 12.3835 14.2134 12.8779 13.5831 13.3002C12.9524 13.7224 12.249 14.0557 11.4727 14.3002C10.6965 14.5446 9.93841 14.6668 9.19854 14.6668ZM9.19854 4.00016C9.40474 4.00016 9.57769 3.93616 9.71742 3.80816C9.85715 3.68016 9.92676 3.52194 9.92628 3.3335C9.92628 3.14461 9.85642 2.98616 9.71669 2.85816C9.57697 2.73016 9.40425 2.66638 9.19854 2.66683C8.99235 2.66683 8.81939 2.73083 8.67967 2.85883C8.53994 2.98683 8.47032 3.14505 8.47081 3.3335C8.47081 3.52238 8.54067 3.68083 8.6804 3.80883C8.82012 3.93683 8.99284 4.00061 9.19854 4.00016Z" fill="black"/>
</svg>
