<svg width="48" height="48" viewBox="0 0 48 48" fill="none" xmlns="http://www.w3.org/2000/svg">
<path d="M32 46C31.4333 46 30.958 45.808 30.574 45.424C30.19 45.04 29.9987 44.5653 30 44C30 43.4333 30.192 42.958 30.576 42.574C30.96 42.19 31.4347 41.9987 32 42H38V40H32C31.4333 40 30.958 39.808 30.574 39.424C30.19 39.04 29.9987 38.5653 30 38C30 37.4333 30.192 36.958 30.576 36.574C30.96 36.19 31.4347 35.9987 32 36H38V34H32C31.4333 34 30.958 33.808 30.574 33.424C30.19 33.04 29.9987 32.5653 30 32C30 31.4333 30.192 30.958 30.576 30.574C30.96 30.19 31.4347 29.9987 32 30H38V28H32C31.4333 28 30.958 27.808 30.574 27.424C30.19 27.04 29.9987 26.5653 30 26C30 25.4333 30.192 24.958 30.576 24.574C30.96 24.19 31.4347 23.9987 32 24H38V22H32C31.4333 22 30.958 21.808 30.574 21.424C30.19 21.04 29.9987 20.5653 30 20C30 19.4333 30.192 18.958 30.576 18.574C30.96 18.19 31.4347 17.9987 32 18H38V16H32C31.4333 16 30.958 15.808 30.574 15.424C30.19 15.04 29.9987 14.5653 30 14C30 13.4333 30.192 12.958 30.576 12.574C30.96 12.19 31.4347 11.9987 32 12H40C41.1 12 42.042 12.392 42.826 13.176C43.61 13.96 44.0013 14.9013 44 16V42C44 43.1 43.608 44.042 42.824 44.826C42.04 45.61 41.0987 46.0013 40 46H32ZM16 30C18.2 30 20.0833 28.9167 21.65 26.75C23.2167 24.5833 24 22 24 19C24 16 23.2167 13.4167 21.65 11.25C20.0833 9.08333 18.2 8 16 8C13.8 8 11.9167 9.08333 10.35 11.25C8.78333 13.4167 8 16 8 19C8 22 8.78333 24.5833 10.35 26.75C11.9167 28.9167 13.8 30 16 30ZM16 46C14.4 46 13.0833 45.408 12.05 44.224C11.0167 43.04 10.6167 41.6487 10.85 40.05L11.65 33C9.38333 31.9 7.542 30.0913 6.126 27.574C4.71 25.0567 4.00133 22.1987 4 19C4 14.8333 5.16667 11.2913 7.5 8.374C9.83333 5.45667 12.6667 3.99867 16 4C19.3333 4 22.1667 5.45867 24.5 8.376C26.8333 11.2933 28 14.8347 28 19C28 22.2 27.2913 25.0587 25.874 27.576C24.4567 30.0933 22.6153 31.9013 20.35 33L21.15 40.05C21.3833 41.65 20.9833 43.0413 19.95 44.224C18.9167 45.4067 17.6 45.9987 16 46Z" fill="#292D32"/>
</svg>
