<svg width="48" height="48" viewBox="0 0 48 48" fill="none" xmlns="http://www.w3.org/2000/svg">
<g clip-path="url(#clip0_548_121)">
<path d="M24.0004 28.3944C26.4272 28.3944 28.3944 26.4272 28.3944 24.0004C28.3944 21.5737 26.4272 19.6064 24.0004 19.6064C21.5737 19.6064 19.6064 21.5737 19.6064 24.0004C19.6064 26.4272 21.5737 28.3944 24.0004 28.3944Z" fill="#292D32"/>
<path d="M43.2687 12.8734C41.8505 10.419 38.4456 9.41058 33.6761 10.0263C33.0709 10.1052 32.449 10.2139 31.8176 10.3417C30.017 5.238 27.213 2 23.9998 2C20.7816 2 17.9741 5.24882 16.1738 10.3668C10.697 9.28144 6.36069 10.0534 4.73011 12.8734C3.10495 15.6875 4.58923 19.8125 8.24369 24C4.58923 28.1875 3.10495 32.3125 4.73003 35.1266C5.89289 37.1412 8.43003 38.1174 11.7791 38.1174C13.256 38.0972 14.7275 37.9344 16.1731 37.6313C17.9733 42.7504 20.7812 46 23.9998 46C27.213 46 30.0169 42.762 31.8175 37.6583C32.449 37.7861 33.0709 37.8948 33.6761 37.9737C34.5361 38.0875 35.4025 38.1463 36.2701 38.1497C39.6793 38.1497 42.123 37.1091 43.2687 35.1266C44.8938 32.3126 43.4098 28.1875 39.7558 24.0001C43.4097 19.8125 44.8938 15.6875 43.2687 12.8734ZM33.97 12.2791C34.7389 12.176 35.5136 12.1223 36.2893 12.1182C38.8103 12.1182 40.5889 12.7747 41.3033 14.0105C42.3119 15.7572 41.1704 18.8933 38.1996 22.3461C36.7634 20.9329 35.2249 19.6275 33.5968 18.4405C33.3791 16.4585 33.0134 14.4956 32.5026 12.5682C32.9906 12.4749 33.5004 12.3403 33.97 12.2791ZM27.8253 30.6275C26.5324 31.3741 25.2572 32.0344 24.0114 32.6145C22.7327 32.0194 21.449 31.3638 20.1734 30.6275C18.8757 29.8783 17.6629 29.1009 16.5342 28.3091C16.4097 26.9369 16.3405 25.4991 16.3405 24C16.3405 22.5009 16.4097 21.0631 16.5342 19.6909C17.6629 18.8991 18.8757 18.1217 20.1734 17.3725C21.4432 16.6396 22.7211 15.9859 23.9939 15.3929C25.2473 15.9755 26.5241 16.6211 27.8254 17.3725C29.1235 18.122 30.3368 18.8995 31.4657 19.6917C31.5902 21.0637 31.6594 22.5012 31.6594 24C31.6594 25.4988 31.5902 26.9363 31.4657 28.3083C30.3368 29.1005 29.1235 29.878 27.8253 30.6275ZM31.0813 31.2977C30.8841 32.5265 30.6228 33.7442 30.2986 34.9458C29.1064 34.6166 27.9315 34.2278 26.7784 33.7807C27.5042 33.4064 28.2326 33.0139 28.9624 32.5927C29.6912 32.172 30.3952 31.7386 31.0813 31.2977ZM21.2332 33.7851C20.0764 34.2319 18.8978 34.6201 17.7018 34.948C17.3772 33.7455 17.1157 32.5268 16.9183 31.297C17.6049 31.7382 18.3091 32.1717 19.0383 32.5928C19.7669 33.0135 20.4995 33.407 21.2332 33.7851ZM14.1484 26.5007C13.1739 25.7153 12.2402 24.8806 11.3508 24C12.2402 23.1193 13.1739 22.2846 14.1484 21.4991C14.1083 22.3198 14.0834 23.1519 14.0834 24C14.0834 24.8481 14.1083 25.6802 14.1484 26.5007ZM16.9184 16.703C17.1155 15.4754 17.3765 14.2589 17.7004 13.0585C18.8989 13.3825 20.08 13.7675 21.2391 14.2121C20.5036 14.591 19.7691 14.9853 19.0385 15.4073C18.3092 15.8283 17.605 16.2618 16.9184 16.703ZM26.7795 14.219C27.9324 13.7722 29.1069 13.3834 30.2987 13.0543C30.6229 14.2559 30.8842 15.4736 31.0814 16.7024C30.3953 16.2615 29.6913 15.8281 28.9625 15.4073C28.2331 14.9862 27.5051 14.5931 26.7795 14.219ZM33.8514 21.5C34.8254 22.2853 35.7588 23.1197 36.6478 24C35.7588 24.8804 34.8254 25.7148 33.8513 26.5C33.8913 25.6797 33.9163 24.848 33.9163 24C33.9163 23.152 33.8915 22.3202 33.8514 21.5ZM23.9998 4.25708C25.9953 4.25708 28.1121 6.72574 29.6148 10.878C27.6958 11.4168 25.818 12.0928 23.996 12.9008C22.1755 12.0951 20.2989 11.4229 18.3809 10.8896C19.884 6.73016 22.0031 4.25708 23.9998 4.25708ZM6.69531 14.0105C7.39797 12.794 9.19911 12.1418 11.7362 12.1418C13.0017 12.1597 14.2628 12.2946 15.5034 12.5448C14.9892 14.4798 14.6213 16.4508 14.4028 18.441C12.7744 19.628 11.2358 20.9334 9.79945 22.3468C6.82807 18.8938 5.68665 15.7574 6.69531 14.0105ZM6.69531 33.9895C5.68665 32.2426 6.82807 29.1062 9.79945 25.6532C11.2358 27.0665 12.7744 28.372 14.4028 29.559C14.6216 31.553 14.9905 33.5276 15.5064 35.4661C11.0114 36.324 7.70919 35.7449 6.69531 33.9895ZM23.9998 43.7429C22.0025 43.7429 19.8829 41.2688 18.3797 37.1074C20.3004 36.5769 22.1798 35.9068 24.0028 35.1023C25.8227 35.9089 27.6982 36.5838 29.6148 37.1219C28.1121 41.2741 25.9953 43.7429 23.9998 43.7429ZM41.3033 33.9895C40.3851 35.575 37.7182 36.2079 33.97 35.7209C33.5004 35.6597 32.9906 35.5251 32.5026 35.4318C33.0134 33.5044 33.3791 31.5414 33.5968 29.5594C35.2249 28.3724 36.7634 27.0671 38.1996 25.654C41.1705 29.1067 42.3118 32.2428 41.3033 33.9895Z" fill="#292D32"/>
<path d="M-1 7C0.656854 7 2 5.65685 2 4C2 2.34315 0.656854 1 -1 1C-2.65685 1 -4 2.34315 -4 4C-4 5.65685 -2.65685 7 -1 7Z" fill="#292D32"/>
</g>
<defs>
<clipPath id="clip0_548_121">
<rect width="48" height="48" fill="white"/>
</clipPath>
</defs>
</svg>
