<svg width="48" height="48" viewBox="0 0 48 48" fill="none" xmlns="http://www.w3.org/2000/svg">
<path d="M18.9226 4.97691L16.6455 1.96875H21.8651L18.9226 4.97691ZM26.1347 1.96875L29.0241 4.91859L31.2253 1.96875H26.1348H26.1347ZM27.2999 5.5425L24.0004 2.17313L20.6957 5.54672H27.3051L27.2999 5.5425ZM34.9959 5.5425L32.7917 2.64984L30.6352 5.54672H35.0011L34.9959 5.5425ZM15.1032 2.68903L12.9848 5.54887H17.2735L15.1032 2.68903ZM19.9077 7.21172L24.0004 18.452L28.0964 7.21172H19.9045H19.9077ZM13.0484 7.21172L21.5219 16.4946L18.1325 7.21172H13.0484ZM34.9589 7.21172H29.8748L26.4927 16.4946L34.9589 7.21172ZM33.135 11.725L30.4107 14.7098C32.8237 15.9056 34.8549 17.7512 36.2758 20.0389C37.6967 22.3266 38.4508 24.9655 38.4531 27.6585C38.451 35.6257 31.9687 42.1122 24.0004 42.1122C16.0321 42.1122 9.5498 35.63 9.5498 27.6616C9.55215 24.9686 10.3062 22.3297 11.7271 20.042C13.148 17.7543 15.1793 15.9087 17.5923 14.7129L14.868 11.7281C12.0632 13.3363 9.73224 15.656 8.11041 18.453C6.48858 21.25 5.63329 24.4253 5.63086 27.6585C5.63077 37.7865 13.8712 46.0312 24.0004 46.0312C34.1295 46.0312 42.3701 37.7907 42.3701 27.6616C42.3686 24.4273 41.5137 21.2506 39.8916 18.4524C38.2695 15.6542 35.9377 13.3336 33.1318 11.725H33.135Z" fill="#292D32"/>
</svg>
