<svg width="48" height="48" viewBox="0 0 48 48" fill="none" xmlns="http://www.w3.org/2000/svg">
<path d="M34.4999 11.9995H34.5083ZM44.9577 8.99952H36.4208L37.2571 5.65639L40.8496 4.43295C41.6136 4.17327 42.0683 3.36139 41.848 2.58514C41.7919 2.38987 41.6968 2.20803 41.5684 2.05063C41.4399 1.89323 41.2808 1.76357 41.1008 1.6695C40.9207 1.57544 40.7234 1.51893 40.5208 1.50341C40.3183 1.48789 40.1147 1.51367 39.9224 1.57921L35.5161 3.0792C35.2788 3.16012 35.0656 3.29922 34.8959 3.48379C34.7263 3.66836 34.6056 3.89252 34.5449 4.13577L33.3289 8.99952H21.0421C20.2349 8.99952 19.5421 9.62014 19.5017 10.4273C19.492 10.6301 19.5235 10.8328 19.5943 11.0231C19.6652 11.2134 19.774 11.3873 19.9141 11.5343C20.0541 11.6813 20.2226 11.7983 20.4092 11.8783C20.5959 11.9583 20.7968 11.9995 20.9999 11.9995H21.2577L21.3514 12.8114C21.3735 13.001 21.4645 13.1759 21.6071 13.3027C21.7497 13.4296 21.934 13.4996 22.1249 13.4995C25.7811 13.4995 29.0305 14.5214 31.5111 16.4545C32.8909 17.5176 34.0094 18.8821 34.7811 20.4436C35.2131 21.3219 35.5319 22.2515 35.7299 23.2101C35.7693 23.3969 35.8799 23.5611 36.0383 23.6676C37.3136 24.533 38.2544 25.8087 38.7043 27.2827C39.1542 28.7568 39.0862 30.3404 38.5114 31.7705C38.4446 31.936 38.4396 32.12 38.4974 32.2889C38.8295 33.2407 38.9994 34.2415 38.9999 35.2495C38.9999 37.3439 38.2874 39.3398 36.9936 40.8698C36.2601 41.7431 35.3374 42.4378 34.2955 42.9014C34.1152 42.9808 33.9735 43.128 33.9008 43.3111C33.5114 44.3254 32.9616 45.2706 32.2724 46.1105C32.2437 46.1445 32.2253 46.1861 32.2194 46.2302C32.2134 46.2744 32.2202 46.3193 32.2389 46.3597C32.2576 46.4002 32.2874 46.4344 32.3249 46.4585C32.3624 46.4826 32.4059 46.4955 32.4505 46.4958H37.0639C38.1935 46.4911 39.2804 46.0638 40.1106 45.298C40.9409 44.5321 41.4543 43.4831 41.5499 42.3576L44.7561 11.9995H44.9999C45.2031 11.9998 45.4042 11.9587 45.5911 11.8788C45.7779 11.799 45.9466 11.682 46.0869 11.535C46.2272 11.3879 46.3361 11.214 46.4071 11.0235C46.4781 10.8331 46.5096 10.6303 46.4999 10.4273C46.4605 9.62014 45.7649 8.99952 44.9577 8.99952Z" fill="#292D32"/>
<path d="M10.1897 30C10.4855 29.9986 10.7787 30.0559 11.0523 30.1685C11.3258 30.2812 11.5744 30.4469 11.7834 30.6562L13.2375 32.1103C13.2723 32.1452 13.3137 32.1728 13.3592 32.1917C13.4047 32.2106 13.4535 32.2203 13.5028 32.2203C13.5521 32.2203 13.6009 32.2106 13.6464 32.1917C13.6919 32.1728 13.7333 32.1452 13.7681 32.1103L15.2194 30.6562C15.4285 30.4469 15.677 30.2812 15.9505 30.1685C16.2241 30.0559 16.5173 29.9986 16.8131 30H35.2425C35.341 30.001 35.4387 29.9826 35.5301 29.9458C35.6215 29.909 35.7047 29.8546 35.775 29.7856C35.8454 29.7167 35.9015 29.6346 35.9401 29.5439C35.9787 29.4533 35.999 29.356 36 29.2575V29.25C35.9989 28.3858 35.7 27.5485 35.1535 26.879C34.607 26.2096 33.8465 25.749 33 25.575C32.9231 22.7916 31.7813 20.4619 29.6709 18.825C27.7191 17.3025 25.1109 16.5 22.125 16.5H15.375C8.97938 16.5 4.64719 20.1347 4.5 25.575C3.65354 25.749 2.89297 26.2096 2.3465 26.879C1.80002 27.5485 1.50106 28.3858 1.5 29.25C1.5 29.4489 1.57902 29.6397 1.71967 29.7803C1.86032 29.921 2.05109 30 2.25 30H10.1897ZM17.4319 33C17.3334 32.9999 17.2358 33.0193 17.1447 33.0569C17.0537 33.0945 16.971 33.1497 16.9013 33.2194L14.8256 35.2959C14.474 35.6474 13.9972 35.8449 13.5 35.8449C13.0028 35.8449 12.526 35.6474 12.1744 35.2959L10.0988 33.2194C10.029 33.1497 9.94631 33.0945 9.85526 33.0569C9.76422 33.0193 9.66665 32.9999 9.56813 33H3.06188C2.70952 32.9984 2.36796 33.1215 2.09758 33.3474C1.8272 33.5734 1.64542 33.8877 1.58438 34.2347C1.52805 34.5702 1.49983 34.9098 1.5 35.25C1.5 38.1178 3.48094 40.4541 5.93063 40.5C6.15844 41.9175 6.70969 43.1981 7.53938 44.2003C8.76656 45.6825 10.5506 46.5 12.5625 46.5H24.9375C26.9494 46.5 28.7334 45.6825 29.9606 44.1984C30.7903 43.1963 31.3416 41.9156 31.5694 40.4981C34.0191 40.4541 36 38.1178 36 35.2481C36.0002 34.9079 35.972 34.5683 35.9156 34.2328C35.8542 33.8861 35.6722 33.5723 35.4019 33.3467C35.1316 33.1212 34.7902 32.9984 34.4381 33H17.4319Z" fill="#292D32"/>
</svg>
