<svg width="48" height="48" viewBox="0 0 48 48" fill="none" xmlns="http://www.w3.org/2000/svg">
<path d="M27.8116 32.4546V27.2002C27.8116 26.7758 27.643 26.3689 27.3429 26.0688C27.0429 25.7688 26.6359 25.6002 26.2116 25.6002H23.0116C22.5872 25.6002 22.1802 25.7688 21.8802 26.0688C21.5801 26.3689 21.4116 26.7758 21.4116 27.2002V32.4514C18.9798 33.0733 16.7852 34.3982 15.1023 36.2604C13.4193 38.1227 12.3226 40.4397 11.9492 42.9218C11.9127 43.1532 11.9267 43.3897 11.9903 43.6151C12.0539 43.8405 12.1655 44.0495 12.3175 44.2277C12.4696 44.4058 12.6584 44.549 12.871 44.6473C13.0836 44.7455 13.3149 44.7966 13.5492 44.797H35.6995C35.9338 44.7966 36.1651 44.7455 36.3777 44.6473C36.5903 44.549 36.7791 44.4058 36.9312 44.2277C37.0832 44.0495 37.1948 43.8405 37.2584 43.6151C37.322 43.3897 37.336 43.1532 37.2995 42.9218C36.9237 40.437 35.8229 38.1184 34.1351 36.2564C32.4474 34.3944 30.2476 33.0719 27.8116 32.4546ZM42.6563 20.093L34.6563 4.093C34.5247 3.82577 34.321 3.60061 34.0683 3.44288C33.8156 3.28514 33.5239 3.20109 33.226 3.2002H15.9972C15.7008 3.2008 15.4104 3.28369 15.1584 3.43964C14.9065 3.59558 14.7027 3.81845 14.57 4.0834L6.56995 20.0834C6.44807 20.3266 6.39022 20.5969 6.40185 20.8687C6.41349 21.1404 6.49423 21.4048 6.63645 21.6367C6.77866 21.8686 6.97766 22.0604 7.21463 22.194C7.4516 22.3276 7.71872 22.3986 7.99075 22.4002H34.2115V27.2002C34.2115 27.6245 34.3801 28.0315 34.6802 28.3316C34.9802 28.6316 35.3872 28.8002 35.8115 28.8002C36.2359 28.8002 36.6429 28.6316 36.9429 28.3316C37.243 28.0315 37.4115 27.6245 37.4115 27.2002V22.4002H41.2323C41.5033 22.3983 41.7694 22.3276 42.0056 22.1947C42.2418 22.0619 42.4404 21.8712 42.5827 21.6406C42.725 21.41 42.8065 21.147 42.8193 20.8763C42.8322 20.6056 42.7761 20.3361 42.6563 20.093Z" fill="#292D32"/>
</svg>
