<svg width="48" height="48" viewBox="0 0 48 48" fill="none" xmlns="http://www.w3.org/2000/svg">
<g clip-path="url(#clip0_548_149)">
<path d="M15.045 2.99999C15.375 1.82812 14.8875 0.543744 13.95 0.131244C13.0125 -0.281256 11.985 0.328119 11.655 1.49999L10.8525 4.33124L10.11 1.53749C9.795 0.356244 8.775 -0.281256 7.83 0.112494C6.885 0.506244 6.375 1.78124 6.69 2.96249L7.3125 5.30624L5.2575 3.43124C4.455 2.69999 3.33 2.92499 2.745 3.92812C2.16 4.93124 2.34 6.33749 3.1425 7.06874L5.265 8.99999H3.6C1.6125 8.99999 0 11.0156 0 13.5V43.5C0 45.9844 1.6125 48 3.6 48H15.045C14.64 47.1187 14.4 46.0969 14.4 45V24C14.4 21.1969 15.9375 18.8437 18.015 18.1875C18.15 15.2812 19.2975 12.7312 21.0225 11.0531C20.3775 9.81562 19.2675 8.99999 18 8.99999H16.335L18.4575 7.06874C19.26 6.33749 19.44 4.93124 18.855 3.92812C18.27 2.92499 17.145 2.69999 16.3425 3.43124L14.4375 5.16562L15.045 2.99999ZM27.2625 17.3906L29.4825 21H25.8C24.8025 21 24 19.9969 24 18.75C24 17.5219 24.81 16.5 25.815 16.5C26.385 16.5 26.9175 16.8281 27.2625 17.3906ZM20.4 18.75C20.4 19.5375 20.505 20.2969 20.7075 21H20.4C18.4125 21 16.8 23.0156 16.8 25.5V33H31.2V24H33.6V33H48V25.5C48 23.0156 46.3875 21 44.4 21H44.0925C44.295 20.2969 44.4 19.5375 44.4 18.75C44.4 15.0094 41.9625 12 38.985 12C37.305 12 35.715 12.975 34.6875 14.6437L32.4 18.3562L30.1125 14.6437C29.085 12.975 27.4875 12 25.815 12C22.8375 12 20.4 15.0094 20.4 18.75ZM16.8 43.5C16.8 45.9844 18.4125 48 20.4 48H31.2V36H16.8V43.5ZM33.6 48H44.4C46.3875 48 48 45.9844 48 43.5V36H33.6V48ZM40.8 18.75C40.8 19.9969 39.9975 21 39 21H35.3175L37.5375 17.3906C37.8825 16.8375 38.415 16.5 38.985 16.5C39.99 16.5 40.8 17.5219 40.8 18.75Z" fill="#292D32"/>
</g>
<defs>
<clipPath id="clip0_548_149">
<rect width="48" height="48" fill="white"/>
</clipPath>
</defs>
</svg>
