<svg width="48" height="48" viewBox="0 0 48 48" fill="none" xmlns="http://www.w3.org/2000/svg">
<path d="M14 4H34C35.0609 4 36.0783 4.42143 36.8284 5.17157C37.5786 5.92172 38 6.93913 38 8V18H10V8C10 6.93913 10.4214 5.92172 11.1716 5.17157C11.9217 4.42143 12.9391 4 14 4ZM38 38C38 39.0609 37.5786 40.0783 36.8284 40.8284C36.0783 41.5786 35.0609 42 34 42V44H30V42H18V44H14V42C12.9391 42 11.9217 41.5786 11.1716 40.8284C10.4214 40.0783 10 39.0609 10 38V20H38V38ZM16 10V14H20V10H16ZM16 24V30H20V24H16Z" fill="#292D32"/>
</svg>
