<svg width="48" height="48" viewBox="0 0 48 48" fill="none" xmlns="http://www.w3.org/2000/svg">
<mask id="mask0_548_192" style="mask-type:luminance" maskUnits="userSpaceOnUse" x="2" y="6" width="44" height="36">
<path d="M29.183 20C31.264 15.054 36.35 10.667 39 8C40.104 8.667 44 10.604 44 15C44 19 42.545 22.111 41 23L35.013 27.191C32.3673 29.0431 30.1414 31.4316 28.48 34.201L25 40H4V36C6.429 34.667 13.82 30.133 17 28C24 32 27.5 24 29.183 20Z" fill="white"/>
<path fill-rule="evenodd" clip-rule="evenodd" d="M37.5813 6.59036C38.2314 5.93604 39.2447 5.81123 40.0342 6.28821C40.0916 6.32285 40.169 6.36677 40.2634 6.42036C41.5499 7.15033 46 9.6754 46 15C46 17.2335 45.5952 19.2662 44.9357 20.911C44.3182 22.4512 43.3732 23.9013 42.085 24.6819L36.16 28.8295C33.7444 30.5205 31.712 32.7013 30.1951 35.2299L30.1949 35.2302L26.7149 41.0292C26.3534 41.6315 25.7025 42 25 42H4C2.89543 42 2 41.1046 2 40V36C2 35.27 2.39779 34.5979 3.0378 34.2467C5.40424 32.948 12.744 28.4465 15.8859 26.3391C16.5167 25.916 17.3328 25.8867 17.9923 26.2636C19.4163 27.0773 20.4687 27.1805 21.2529 27.034C22.0672 26.882 22.8638 26.4094 23.6571 25.6C25.3083 23.9155 26.4754 21.2781 27.3395 19.2244C28.5103 16.4417 30.4792 13.9102 32.3985 11.7998C33.724 10.3424 35.1322 8.9776 36.2777 7.86742C36.7698 7.39047 37.2135 6.9605 37.5813 6.59036ZM39.2823 10.5275C39.1679 10.6385 39.0521 10.7507 38.9348 10.8642C37.8277 11.9363 36.5989 13.1263 35.3577 14.491C33.5513 16.4774 31.9367 18.6124 31.0265 20.7757L29.183 20L31.0265 20.7757C30.2076 22.722 28.7832 26.0846 26.5137 28.4C25.3466 29.5907 23.8505 30.6181 21.9872 30.9661C20.439 31.2552 18.8127 31.0425 17.1361 30.3068C14.0291 32.3329 8.78455 35.5558 6 37.1657V38H23.8677L26.7649 33.1722C28.5708 30.1619 30.9903 27.5658 33.866 25.5526L33.8661 25.5526L39.8531 21.3616C39.9015 21.3277 39.9513 21.296 40.0025 21.2665C40.2145 21.1446 40.7407 20.6252 41.223 19.4224C41.6773 18.2894 42 16.7666 42 15C42 12.7553 40.5814 11.4115 39.2823 10.5275Z" fill="white"/>
<path fill-rule="evenodd" clip-rule="evenodd" d="M43 19C44.1046 19 45 19.8954 45 21V40C45 41.1046 44.1046 42 43 42C41.8954 42 41 41.1046 41 40V21C41 19.8954 41.8954 19 43 19Z" fill="white"/>
</mask>
<g mask="url(#mask0_548_192)">
<path d="M0 0H48V48H0V0Z" fill="#292D32"/>
</g>
</svg>
