<svg width="14" height="12" viewBox="0 0 14 12" fill="none" xmlns="http://www.w3.org/2000/svg">
  <path d="M6.4858 0.90909V3.97727C6.4858 4.84848 6.31534 5.73864 5.97443 6.64773C5.64299 7.54735 5.19792 8.39962 4.6392 9.20455C4.08049 10 3.4697 10.6771 2.80682 11.2358L0.136364 9.65909C0.609849 8.91098 1.02652 8.08239 1.38636 7.1733C1.75568 6.2642 1.94034 5.20833 1.94034 4.00568V0.90909H6.4858ZM13.6307 0.90909V3.97727C13.6307 4.84848 13.4602 5.73864 13.1193 6.64773C12.7879 7.54735 12.3428 8.39962 11.7841 9.20455C11.2254 10 10.6098 10.6771 9.9375 11.2358L7.26705 9.65909C7.75 8.91098 8.1714 8.08239 8.53125 7.1733C8.90057 6.2642 9.08523 5.20833 9.08523 4.00568V0.90909H13.6307Z" fill="black"/>
</svg>
