<svg width="14" height="11" viewBox="0 0 14 11" fill="none" xmlns="http://www.w3.org/2000/svg">
  <path d="M0.201705 11V7.93182C0.201705 7.06061 0.372159 6.17045 0.713068 5.26136C1.05398 4.35227 1.50379 3.49527 2.0625 2.69034C2.62121 1.88542 3.22727 1.21307 3.88068 0.673295L6.55114 2.25C6.02083 3.08333 5.58523 3.95455 5.24432 4.86364C4.91288 5.77273 4.74716 6.78598 4.74716 7.90341V11H0.201705ZM7.375 11V7.93182C7.375 7.06061 7.54545 6.17045 7.88636 5.26136C8.22727 4.35227 8.67708 3.49527 9.2358 2.69034C9.79451 1.88542 10.4006 1.21307 11.054 0.673295L13.7244 2.25C13.1941 3.08333 12.7585 3.95455 12.4176 4.86364C12.0862 5.77273 11.9205 6.78598 11.9205 7.90341V11H7.375Z" fill="black"/>
</svg>
