<svg width="24" height="24" viewBox="0 0 24 24" fill="none" xmlns="http://www.w3.org/2000/svg">
<path d="M5 9.5V19C5 19.6491 4.78947 20.2807 4.4 20.8L3.5 22M19 9.5V19C19 19.6491 19.2105 20.2807 19.6 20.8L20.5 22" stroke="black" stroke-width="1.5" stroke-linecap="round"/>
<path d="M5 20H19M18 9.5C18 13.642 15.314 17 12 17C8.686 17 6 13.642 6 9.5C6 5.358 8.686 2 12 2C15.314 2 18 5.358 18 9.5Z" stroke="black" stroke-width="1.5"/>
<path d="M13 5.25586C13.96 5.76586 14.697 6.98786 14.926 8.49986" stroke="black" stroke-width="1.5" stroke-linecap="round"/>
</svg>
