<svg width="24" height="24" viewBox="0 0 24 24" fill="none" xmlns="http://www.w3.org/2000/svg">
<path d="M12 14.1972C13.2133 14.1972 14.197 13.2136 14.197 12.0002C14.197 10.7869 13.2133 9.80322 12 9.80322C10.7866 9.80322 9.80298 10.7869 9.80298 12.0002C9.80298 13.2136 10.7866 14.1972 12 14.1972Z" fill="black"/>
<path d="M21.6344 6.43671C20.9253 5.20948 19.2228 4.70529 16.8381 5.01317C16.5355 5.05259 16.2246 5.10696 15.9088 5.17086C15.0085 2.619 13.6066 1 12 1C10.3909 1 8.98711 2.62441 8.08698 5.1834C5.34858 4.64072 3.18041 5.02671 2.36512 6.43671C1.55254 7.84376 2.29468 9.90626 4.12191 12C2.29468 14.0937 1.55254 16.1562 2.36508 17.5633C2.94651 18.5706 4.21508 19.0587 5.88961 19.0587C6.62806 19.0486 7.3638 18.9672 8.08661 18.8157C8.98671 21.3752 10.3907 23 12 23C13.6066 23 15.0085 21.381 15.9088 18.8291C16.2245 18.893 16.5355 18.9474 16.8381 18.9868C17.2681 19.0438 17.7013 19.0732 18.1351 19.0748C19.8397 19.0748 21.0616 18.5546 21.6344 17.5633C22.4469 16.1563 21.7049 14.0938 19.878 12C21.7049 9.90626 22.447 7.84376 21.6344 6.43671ZM16.9851 6.13956C17.3695 6.088 17.7569 6.06113 18.1447 6.0591C19.4052 6.0591 20.2945 6.38736 20.6517 7.00527C21.156 7.87862 20.5853 9.44665 19.0999 11.173C18.3817 10.4665 17.6125 9.81375 16.7985 9.22023C16.6896 8.22924 16.5067 7.24779 16.2514 6.28411C16.4954 6.23744 16.7503 6.17013 16.9851 6.13956ZM13.9127 15.3137C13.2662 15.6871 12.6286 16.0172 12.0058 16.3072C11.3664 16.0097 10.7246 15.6819 10.0868 15.3137C9.43789 14.9391 8.83152 14.5505 8.26718 14.1546C8.20489 13.4685 8.1703 12.7496 8.1703 12C8.1703 11.2504 8.20489 10.5315 8.26718 9.84544C8.83152 9.44953 9.43789 9.06086 10.0868 8.68627C10.7216 8.31979 11.3606 7.99294 11.997 7.69645C12.6237 7.98777 13.2621 8.31054 13.9127 8.68627C14.5618 9.06099 15.1685 9.44973 15.7329 9.84585C15.7951 10.5318 15.8297 11.2506 15.8297 12C15.8297 12.7494 15.7951 13.4681 15.7329 14.1542C15.1684 14.5503 14.5618 14.939 13.9127 15.3137ZM15.5407 15.6488C15.4421 16.2633 15.3115 16.8721 15.1494 17.4729C14.5533 17.3083 13.9658 17.1139 13.3892 16.8903C13.7522 16.7032 14.1164 16.507 14.4812 16.2963C14.8457 16.086 15.1976 15.8693 15.5407 15.6488ZM10.6166 16.8925C10.0383 17.116 9.44895 17.31 8.85098 17.474C8.68865 16.8728 8.55789 16.2634 8.45922 15.6485C8.8025 15.8691 9.15463 16.0858 9.51922 16.2964C9.88353 16.5068 10.2498 16.7035 10.6166 16.8925ZM7.07426 13.2504C6.58702 12.8576 6.12014 12.4403 5.67546 12C6.12014 11.5597 6.58702 11.1423 7.07426 10.7496C7.05421 11.1599 7.04174 11.5759 7.04174 12C7.04174 12.4241 7.05421 12.8401 7.07426 13.2504ZM8.45926 8.3515C8.5578 7.73769 8.68831 7.12944 8.85026 6.52923C9.44949 6.69124 10.04 6.88376 10.6196 7.10604C10.2519 7.29551 9.88463 7.49263 9.51932 7.70363C9.15466 7.91416 8.80254 8.13092 8.45926 8.3515ZM13.3898 7.1095C13.9662 6.88608 14.5535 6.69171 15.1494 6.52713C15.3115 7.12793 15.4422 7.73679 15.5408 8.35121C15.1977 8.13076 14.8457 7.91406 14.4813 7.70367C14.1166 7.4931 13.7526 7.29656 13.3898 7.1095ZM16.9257 10.75C17.4128 11.1426 17.8795 11.5598 18.324 12C17.8795 12.4402 17.4128 12.8574 16.9257 13.25C16.9457 12.8399 16.9582 12.424 16.9582 12C16.9582 11.576 16.9458 11.1601 16.9257 10.75ZM12 2.12854C12.9977 2.12854 14.0561 3.36287 14.8074 5.43898C13.848 5.70838 12.9091 6.04639 11.998 6.45039C11.0878 6.04755 10.1495 5.71147 9.19053 5.44481C9.94206 3.36508 11.0016 2.12854 12 2.12854ZM3.34772 7.00527C3.69905 6.39702 4.59962 6.0709 5.86815 6.0709C6.50089 6.07984 7.13145 6.14729 7.75177 6.27238C7.49468 7.2399 7.31073 8.22539 7.20145 9.2205C6.38725 9.81398 5.61795 10.4667 4.89979 11.1734C3.4141 9.44692 2.84339 7.87869 3.34772 7.00527ZM3.34772 16.9947C2.84339 16.1213 3.4141 14.5531 4.89979 12.8266C5.61798 13.5333 6.38728 14.186 7.20145 14.7795C7.31085 15.7765 7.49531 16.7638 7.75325 17.7331C5.50576 18.162 3.85466 17.8724 3.34772 16.9947ZM12 21.8715C11.0013 21.8715 9.94151 20.6344 9.18991 18.5537C10.1503 18.2885 11.09 17.9534 12.0015 17.5512C12.9114 17.9545 13.8492 18.2919 14.8075 18.5609C14.0561 20.6371 12.9977 21.8715 12 21.8715ZM20.6517 16.9947C20.1926 17.7875 18.8592 18.104 16.9851 17.8604C16.7503 17.8299 16.4953 17.7626 16.2514 17.7159C16.5067 16.7522 16.6896 15.7707 16.7985 14.7797C17.6125 14.1862 18.3818 13.5336 19.0999 12.827C20.5853 14.5533 21.156 16.1214 20.6517 16.9947Z" fill="black"/>
</svg>
