<svg width="24" height="24" viewBox="0 0 24 24" fill="none" xmlns="http://www.w3.org/2000/svg">
<path fill-rule="evenodd" clip-rule="evenodd" d="M16.6095 6.605L16.5645 6.57C16.478 5.913 16.1635 5.2285 15.6725 4.6515C14.875 3.714 13.575 3 11.835 3C10.12 3 8.9115 3.782 8.1985 4.7515C7.86592 5.2 7.62825 5.71158 7.5 6.255C7.47665 6.35676 7.45797 6.45953 7.444 6.563L7.39 6.6045C6.828 7.04 6.4155 7.568 6.5135 8.1735C6.6075 8.7585 7.1365 9.1145 7.6285 9.332C7.7535 9.3875 7.8885 9.4395 8.032 9.488C7.95971 10.0516 8.00834 10.6242 8.17466 11.1676C8.34097 11.711 8.62116 12.2127 8.99655 12.6393C9.37194 13.0659 9.83391 13.4076 10.3517 13.6417C10.8695 13.8758 11.4312 13.9969 11.9995 13.9969C12.5678 13.9969 13.1295 13.8758 13.6473 13.6417C14.1651 13.4076 14.6271 13.0659 15.0025 12.6393C15.3778 12.2127 15.658 11.711 15.8243 11.1676C15.9907 10.6242 16.0393 10.0516 15.967 9.488C16.1105 9.4395 16.2455 9.388 16.3705 9.332C16.8625 9.1145 17.391 8.7585 17.4855 8.1735C17.5835 7.568 17.1715 7.0405 16.6095 6.605ZM8.472 7.3355C8.407 7.1485 8.39 6.848 8.4745 6.4765C8.5575 6.114 8.7295 5.7165 8.9995 5.3485V6.75C8.9995 6.88261 9.05218 7.00979 9.14595 7.10355C9.23971 7.19732 9.36689 7.25 9.4995 7.25C9.63211 7.25 9.75929 7.19732 9.85305 7.10355C9.94682 7.00979 9.9995 6.88261 9.9995 6.75V4.455C10.411 4.221 10.9085 4.0575 11.4995 4.0125V5.75C11.4995 5.88261 11.5522 6.00979 11.6459 6.10355C11.7397 6.19732 11.8669 6.25 11.9995 6.25C12.1321 6.25 12.2593 6.19732 12.3531 6.10355C12.4468 6.00979 12.4995 5.88261 12.4995 5.75V4.0435C13.0275 4.11005 13.5372 4.27995 13.9995 4.5435V6.75C13.9995 6.88261 14.0522 7.00979 14.1459 7.10355C14.2397 7.19732 14.3669 7.25 14.4995 7.25C14.6321 7.25 14.7593 7.19732 14.8531 7.10355C14.9468 7.00979 14.9995 6.88261 14.9995 6.75V5.409C15.552 6.117 15.6815 6.881 15.526 7.3395C15.4875 7.45298 15.491 7.57652 15.5359 7.68762C15.5808 7.79872 15.6642 7.89 15.7707 7.94483C15.8773 7.99965 16 8.01438 16.1165 7.98633C16.233 7.95828 16.3356 7.88932 16.4055 7.792C16.504 7.9295 16.5005 8.0025 16.4985 8.014C16.492 8.054 16.4155 8.219 15.966 8.418C15.771 8.504 15.539 8.5815 15.2785 8.65L15.2665 8.653C14.984 8.726 14.6695 8.788 14.333 8.839C13.7089 8.92899 13.0799 8.98075 12.4495 8.994C12.0161 9.00483 11.5825 9.00016 11.1495 8.98C10.6514 8.9577 10.1548 8.91031 9.6615 8.838C9.34882 8.79258 9.03873 8.73083 8.7325 8.653L8.7205 8.65C8.48557 8.59092 8.25569 8.51334 8.033 8.418C7.5835 8.219 7.507 8.054 7.5005 8.014C7.4985 8.0025 7.495 7.9295 7.5935 7.792C7.66355 7.88976 7.76649 7.95899 7.88344 7.98701C8.0004 8.01503 8.12354 7.99995 8.23028 7.94455C8.33702 7.88914 8.42022 7.79712 8.46461 7.68535C8.50901 7.57358 8.51163 7.44905 8.472 7.3355ZM9.0105 9.7405C9.1765 9.773 9.3485 9.8025 9.5245 9.829C10.0585 9.909 10.6335 9.96 11.2185 9.984C11.7399 10.0054 12.2621 10.0054 12.7835 9.984C13.3655 9.96 13.9385 9.909 14.47 9.829C14.6435 9.80374 14.8164 9.77423 14.9885 9.7405C15.0241 10.1546 14.9732 10.5715 14.8391 10.9649C14.7051 11.3583 14.4907 11.7195 14.2097 12.0257C13.9287 12.3319 13.5871 12.5764 13.2066 12.7436C12.8262 12.9108 12.4151 12.9972 11.9995 12.9972C11.5839 12.9972 11.1728 12.9108 10.7924 12.7436C10.4119 12.5764 10.0703 12.3319 9.7893 12.0257C9.50827 11.7195 9.29394 11.3583 9.15987 10.9649C9.02581 10.5715 8.97494 10.1546 9.0105 9.7405Z" fill="black"/>
<path fill-rule="evenodd" clip-rule="evenodd" d="M14.5 14.2451C14.829 14.3026 15.164 14.3696 15.5 14.4461C18.2215 15.0676 21 16.3101 21 18.0001V21.0001H3V18.0001C3 16.3101 5.7785 15.0676 8.5 14.4461C8.83156 14.3706 9.165 14.3035 9.5 14.2451V16.5001H14.5V14.2451ZM7.5 15.7451C7.827 15.6451 8.1625 15.5546 8.5 15.4731V17.5001H15.5V15.4736C16.0065 15.5948 16.507 15.7396 17 15.9076V20.0001H18V16.2986C18.145 16.3631 18.285 16.4296 18.419 16.4981C18.9875 16.7871 19.409 17.0851 19.676 17.3701C19.9385 17.6501 20 17.8566 20 18.0001V20.0001H4V18.0001C4 17.8566 4.0615 17.6501 4.324 17.3701C4.591 17.0851 5.0125 16.7871 5.581 16.4981C5.8655 16.3531 6.174 16.2171 6.5 16.0906V20.0001H7.5V15.7451Z" fill="black"/>
</svg>
