<svg width="24" height="24" viewBox="0 0 24 24" fill="none" xmlns="http://www.w3.org/2000/svg">
<path d="M7 4.75C7 4.28587 7.18437 3.84075 7.51256 3.51256C7.84075 3.18437 8.28587 3 8.75 3C9.21413 3 9.65925 3.18437 9.98744 3.51256C10.3156 3.84075 10.5 4.28587 10.5 4.75V10.5H7V4.75ZM13.5 4.75C13.5 4.28587 13.6844 3.84075 14.0126 3.51256C14.3408 3.18437 14.7859 3 15.25 3C15.7141 3 16.1592 3.18437 16.4874 3.51256C16.8156 3.84075 17 4.28587 17 4.75V10.5H13.5V4.75Z" stroke="black"/>
<path d="M9 17H15V21H9V17Z" stroke="black" stroke-linecap="round" stroke-linejoin="round"/>
<path d="M5 11C5 10.8674 5.05268 10.7402 5.14645 10.6464C5.24021 10.5527 5.36739 10.5 5.5 10.5H18.5C18.6326 10.5 18.7598 10.5527 18.8536 10.6464C18.9473 10.7402 19 10.8674 19 11V13C19 14.0609 18.5786 15.0783 17.8284 15.8284C17.0783 16.5786 16.0609 17 15 17H9C7.93913 17 6.92172 16.5786 6.17157 15.8284C5.42143 15.0783 5 14.0609 5 13V11Z" stroke="black"/>
</svg>
