<svg width="24" height="24" viewBox="0 0 24 24" fill="none" xmlns="http://www.w3.org/2000/svg">
<path d="M10 4.5H19.849C20.1239 4.49996 20.3958 4.55659 20.6478 4.66635C20.8999 4.77611 21.1265 4.93664 21.3138 5.13792C21.501 5.3392 21.6447 5.57691 21.7359 5.83621C21.8271 6.09552 21.8639 6.37084 21.844 6.645L21.552 10.645C21.5154 11.149 21.2893 11.6205 20.9192 11.9647C20.549 12.3088 20.0624 12.5001 19.557 12.5H10V4.5Z" stroke="black" stroke-width="1.5" stroke-linejoin="round"/>
<path d="M15.045 12.5H19.5L17.4555 18.122C17.3087 18.5258 17.0412 18.8747 16.6893 19.1212C16.3374 19.3677 15.9182 19.5 15.4885 19.5C14.036 19.5 13.025 18.0565 13.5215 16.6915L15.045 12.5ZM7 6H10V11H7V6Z" stroke="black" stroke-width="1.5" stroke-linejoin="round"/>
<path d="M7 8.5H2" stroke="black" stroke-width="1.5" stroke-linecap="round" stroke-linejoin="round"/>
</svg>
