<svg width="24" height="24" viewBox="0 0 24 24" fill="none" xmlns="http://www.w3.org/2000/svg">
<path d="M4.23 19.3851V10.2301H4.038C3.74467 10.2301 3.49833 10.1301 3.299 9.93009C3.09967 9.73275 3 9.48709 3 9.19309V6.84609C3 6.55275 3.09967 6.30609 3.299 6.10609C3.499 5.90742 3.74567 5.80809 4.039 5.80809H8.142C7.94333 5.63209 7.806 5.42375 7.73 5.18309C7.65333 4.94175 7.615 4.68842 7.615 4.42309C7.615 3.76042 7.847 3.19742 8.311 2.73409C8.77433 2.27009 9.33733 2.03809 10 2.03809C10.3833 2.03809 10.7353 2.12809 11.056 2.30809C11.3767 2.48809 11.653 2.72275 11.885 3.01209C12.117 2.71942 12.393 2.48409 12.713 2.30609C13.0337 2.12742 13.3857 2.03809 13.769 2.03809C14.4317 2.03809 14.995 2.27009 15.459 2.73409C15.9223 3.19742 16.154 3.76075 16.154 4.42409C16.154 4.68409 16.115 4.93475 16.037 5.17609C15.9583 5.41742 15.8217 5.62809 15.627 5.80809H19.962C20.2553 5.80809 20.5017 5.90775 20.701 6.10709C20.9003 6.30642 21 6.55309 21 6.84709V9.19209C21 9.48542 20.9003 9.73209 20.701 9.93209C20.501 10.1314 20.2543 10.2311 19.961 10.2311H19.769V19.3851C19.769 19.8291 19.611 20.2091 19.295 20.5251C18.9783 20.8418 18.598 21.0001 18.154 21.0001H5.846C5.402 21.0001 5.022 20.8418 4.706 20.5251C4.38933 20.2091 4.23 19.8291 4.23 19.3851ZM13.769 3.03809C13.377 3.03809 13.0483 3.17109 12.783 3.43709C12.5177 3.70242 12.385 4.03109 12.385 4.42309C12.385 4.81575 12.5177 5.14475 12.783 5.41009C13.0483 5.67542 13.377 5.80809 13.769 5.80809C14.1617 5.80809 14.4907 5.67542 14.756 5.41009C15.0213 5.14475 15.154 4.81575 15.154 4.42309C15.154 4.03109 15.0213 3.70242 14.756 3.43709C14.4907 3.17109 14.1617 3.03809 13.769 3.03809ZM8.615 4.42309C8.615 4.81575 8.74767 5.14475 9.013 5.41009C9.279 5.67542 9.608 5.80809 10 5.80809C10.392 5.80809 10.721 5.67542 10.987 5.41009C11.2523 5.14475 11.385 4.81575 11.385 4.42309C11.385 4.03109 11.2523 3.70242 10.987 3.43709C10.721 3.17109 10.392 3.03809 10 3.03809C9.608 3.03809 9.279 3.17109 9.013 3.43709C8.74767 3.70242 8.615 4.03109 8.615 4.42309ZM4 6.80809V9.23009H11.5V6.80809H4ZM11.5 20.0001V10.2301H5.23V19.3851C5.23 19.5644 5.288 19.7118 5.404 19.8271C5.52 19.9424 5.66733 20.0001 5.846 20.0001H11.5ZM12.5 20.0001H18.154C18.334 20.0001 18.4813 19.9424 18.596 19.8271C18.7107 19.7118 18.7683 19.5644 18.769 19.3851V10.2301H12.5V20.0001ZM20 9.23009V6.80909H12.5V9.23009H20Z" fill="black"/>
</svg>
