<svg width="24" height="24" viewBox="0 0 24 24" fill="none" xmlns="http://www.w3.org/2000/svg">
<path d="M7.615 20C7.171 20 6.791 19.8417 6.475 19.525C6.15833 19.209 6 18.829 6 18.385V7.923C6 7.501 6.14467 7.14567 6.434 6.857C6.72267 6.56767 7.078 6.423 7.5 6.423H9.5V3.923C9.5 3.66633 9.59 3.44833 9.77 3.269C9.95 3.08967 10.1673 3 10.422 3H13.576C13.8327 3 14.0507 3.09 14.23 3.27C14.4093 3.45 14.499 3.66767 14.499 3.923V6.423H16.384C16.828 6.423 17.208 6.58133 17.524 6.898C17.8407 7.214 17.999 7.594 17.999 8.038V18.385C17.999 18.829 17.8407 19.209 17.524 19.525C17.208 19.8417 16.828 20 16.384 20V20.23C16.384 20.4367 16.3073 20.6167 16.154 20.77C16.0007 20.9233 15.8207 21 15.614 21C15.4073 21 15.2277 20.9233 15.075 20.77C14.9217 20.6167 14.845 20.4367 14.845 20.23V20H9.154V20.23C9.154 20.4367 9.07733 20.6167 8.924 20.77C8.77067 20.9233 8.59067 21 8.384 21C8.178 21 7.99833 20.9233 7.845 20.77C7.69167 20.6167 7.615 20.4367 7.615 20.23V20ZM7.615 19H16.385C16.5643 19 16.7117 18.9423 16.827 18.827C16.9423 18.7117 17 18.5643 17 18.385V8.038C17 7.85867 16.9423 7.71133 16.827 7.596C16.7117 7.48067 16.5643 7.423 16.385 7.423H7.615C7.43567 7.423 7.28833 7.48067 7.173 7.596C7.05767 7.71133 7 7.85867 7 8.038V18.385C7 18.5643 7.05767 18.7117 7.173 18.827C7.28833 18.9423 7.43567 19 7.615 19ZM8.346 17.23H9.231V9.193H8.346V17.23ZM11.558 17.23H12.442V9.193H11.558V17.23ZM14.769 17.23H15.654V9.193H14.769V17.23ZM10.385 6.424H13.615V3.885H10.385V6.424Z" fill="black"/>
</svg>
