<svg width="24" height="24" viewBox="0 0 24 24" fill="none" xmlns="http://www.w3.org/2000/svg">
<path fill-rule="evenodd" clip-rule="evenodd" d="M14.856 12.0946C15.0415 12.0321 15.2375 11.9996 15.435 11.9996H15.991C16.0081 11.9996 16.0251 11.9961 16.0408 11.9893C16.0565 11.9826 16.0706 11.9726 16.0823 11.9602C16.0941 11.9477 16.1031 11.933 16.1089 11.9169C16.1147 11.9008 16.1171 11.8836 16.116 11.8666L15.891 8.60756C15.8875 8.5446 15.8594 8.48555 15.8127 8.44316C15.766 8.40078 15.7045 8.37847 15.6415 8.38106C13.5085 8.48906 11.7945 10.0741 11.663 12.2481L11.6455 12.5376C11.6432 12.5766 11.65 12.6156 11.6655 12.6514C11.6809 12.6873 11.7046 12.7191 11.7345 12.7441C11.7645 12.7692 11.7999 12.7869 11.8379 12.7959C11.8759 12.8048 11.9155 12.8047 11.9535 12.7956L14.856 12.0946ZM14.95 9.49806C13.91 9.78406 13.105 10.5476 12.7945 11.5636L14.5835 11.1316C14.7375 11.0826 14.8955 11.0471 15.0555 11.0256L14.95 9.49806Z" fill="black"/>
<path fill-rule="evenodd" clip-rule="evenodd" d="M5.25 3C4.95001 2.9999 4.65502 3.07693 4.39337 3.22368C4.13172 3.37044 3.91219 3.58199 3.75585 3.83803C3.59951 4.09407 3.51162 4.38601 3.50062 4.6858C3.48961 4.98559 3.55586 5.28319 3.693 5.55L3.113 12.188C3.11195 12.1986 3.11128 12.2093 3.111 12.22L3.07 13.38C3.04841 13.9911 3.25726 14.5879 3.65514 15.0522C4.05301 15.5165 4.61085 15.8143 5.218 15.8865L5.308 15.8975C5.78183 15.954 6.26182 15.8702 6.68845 15.6564C7.11508 15.4426 7.46958 15.1084 7.708 14.695L8.8055 12.792C9.053 12.3635 8.6665 11.8475 8.1855 11.9645L7.345 12.1685L6.071 12.086L5.538 12.0225L6.384 6.4115C7.2915 6.6925 8.1875 6.9905 8.9605 7.4125C9.708 7.821 10.3045 8.327 10.669 9.0115C10.0065 9.93633 9.62178 11.031 9.56 12.167L9.4045 14.972C9.40069 15.0399 9.41078 15.1079 9.43413 15.1717C9.45748 15.2356 9.49362 15.294 9.54033 15.3434C9.58703 15.3929 9.64333 15.4322 9.70578 15.4592C9.76822 15.4861 9.8355 15.5 9.9035 15.5H20.7285C20.763 15.5 20.7972 15.4928 20.8288 15.4789C20.8605 15.465 20.8889 15.4447 20.9123 15.4193C20.9357 15.3939 20.9536 15.3639 20.9648 15.3312C20.976 15.2986 20.9803 15.2639 20.9775 15.2295L20.6825 11.6875C20.6668 11.5 20.5813 11.3253 20.4428 11.198C20.3044 11.0706 20.1231 11 19.935 11H18.022C18.0159 11.0001 18.0101 10.9979 18.0055 10.994C18.0009 10.99 17.9979 10.9845 17.997 10.9785L17.495 7.3625C17.4618 7.1234 17.3432 6.90437 17.1612 6.74585C16.9791 6.58732 16.7459 6.5 16.5045 6.5H15.551C14.6712 6.49896 13.8021 6.69205 13.0055 7.0655C11.5485 4.8615 8.9995 4.2405 6.681 3.7425C6.51959 3.51297 6.30529 3.32566 6.05621 3.19643C5.80714 3.06719 5.53061 2.99982 5.25 3ZM4.5 4.75C4.5 4.55109 4.57902 4.36032 4.71967 4.21967C4.86033 4.07902 5.05109 4 5.25 4C5.44892 4 5.63968 4.07902 5.78033 4.21967C5.92099 4.36032 6 4.55109 6 4.75C6 4.94891 5.92099 5.13968 5.78033 5.28033C5.63968 5.42098 5.44892 5.5 5.25 5.5C5.05109 5.5 4.86033 5.42098 4.71967 5.28033C4.57902 5.13968 4.5 4.94891 4.5 4.75ZM5.4885 6.484C5.15232 6.52919 4.81023 6.47678 4.503 6.333L3.9855 12.2515L3.9445 13.411C3.93072 13.8027 4.06464 14.1852 4.3197 14.4828C4.57476 14.7804 4.93233 14.9712 5.3215 15.0175L5.4115 15.0285C5.71521 15.0647 6.02288 15.0111 6.29637 14.8741C6.56985 14.7371 6.79712 14.5229 6.95 14.258L7.683 12.987L7.505 13.03C7.45 13.0435 7.393 13.0485 7.336 13.045L5.991 12.9575L5.1145 12.853C5.03965 12.8441 4.96735 12.8203 4.90189 12.7829C4.83643 12.7456 4.77915 12.6955 4.73344 12.6355C4.68773 12.5756 4.65454 12.5071 4.63582 12.4341C4.61711 12.3611 4.61326 12.285 4.6245 12.2105L5.4885 6.484ZM9.44 6.535C8.6235 6.089 7.6995 5.7745 6.83 5.503C6.927 5.2995 6.9865 5.0745 6.998 4.837C9.125 5.318 11.016 5.916 12.137 7.5655C11.8589 7.75819 11.5974 7.97395 11.3555 8.2105C10.872 7.476 10.1875 6.9435 9.44 6.5355M10.5585 12.223C10.6293 10.9468 11.1862 9.74618 12.1147 8.86779C13.0432 7.9894 14.2728 7.49995 15.551 7.5H16.5045L17.0065 11.116C17.0405 11.361 17.162 11.5855 17.3486 11.7479C17.5351 11.9104 17.7741 11.9999 18.0215 12H19.705L19.9135 14.5H10.432L10.5585 12.223Z" fill="black"/>
<path d="M11.75 19.5C11.9489 19.5 12.1397 19.421 12.2803 19.2803C12.421 19.1397 12.5 18.9489 12.5 18.75C12.5 18.5511 12.421 18.3603 12.2803 18.2197C12.1397 18.079 11.9489 18 11.75 18C11.5511 18 11.3603 18.079 11.2197 18.2197C11.079 18.3603 11 18.5511 11 18.75C11 18.9489 11.079 19.1397 11.2197 19.2803C11.3603 19.421 11.5511 19.5 11.75 19.5ZM15.5 18.75C15.5 18.9489 15.421 19.1397 15.2803 19.2803C15.1397 19.421 14.9489 19.5 14.75 19.5C14.5511 19.5 14.3603 19.421 14.2197 19.2803C14.079 19.1397 14 18.9489 14 18.75C14 18.5511 14.079 18.3603 14.2197 18.2197C14.3603 18.079 14.5511 18 14.75 18C14.9489 18 15.1397 18.079 15.2803 18.2197C15.421 18.3603 15.5 18.5511 15.5 18.75ZM17.75 19.5C17.9489 19.5 18.1397 19.421 18.2803 19.2803C18.421 19.1397 18.5 18.9489 18.5 18.75C18.5 18.5511 18.421 18.3603 18.2803 18.2197C18.1397 18.079 17.9489 18 17.75 18C17.5511 18 17.3603 18.079 17.2197 18.2197C17.079 18.3603 17 18.5511 17 18.75C17 18.9489 17.079 19.1397 17.2197 19.2803C17.3603 19.421 17.5511 19.5 17.75 19.5Z" fill="black"/>
<path fill-rule="evenodd" clip-rule="evenodd" d="M10.75 16.5C10.4545 16.5 10.1619 16.5582 9.88896 16.6713C9.61598 16.7843 9.36794 16.9501 9.15901 17.159C8.95008 17.3679 8.78434 17.616 8.67127 17.889C8.5582 18.1619 8.5 18.4545 8.5 18.75C8.5 19.0455 8.5582 19.3381 8.67127 19.611C8.78434 19.884 8.95008 20.1321 9.15901 20.341C9.36794 20.5499 9.61598 20.7157 9.88896 20.8287C10.1619 20.9418 10.4545 21 10.75 21H18.75C19.0455 21 19.3381 20.9418 19.611 20.8287C19.884 20.7157 20.1321 20.5499 20.341 20.341C20.5499 20.1321 20.7157 19.884 20.8287 19.611C20.9418 19.3381 21 19.0455 21 18.75C21 18.4545 20.9418 18.1619 20.8287 17.889C20.7157 17.616 20.5499 17.3679 20.341 17.159C20.1321 16.9501 19.884 16.7843 19.611 16.6713C19.3381 16.5582 19.0455 16.5 18.75 16.5H10.75ZM18.75 17.5H10.75C10.4185 17.5 10.1005 17.6317 9.86612 17.8661C9.6317 18.1005 9.5 18.4185 9.5 18.75C9.5 19.0815 9.6317 19.3995 9.86612 19.6339C10.1005 19.8683 10.4185 20 10.75 20H18.75C19.0815 20 19.3995 19.8683 19.6339 19.6339C19.8683 19.3995 20 19.0815 20 18.75C20 18.4185 19.8683 18.1005 19.6339 17.8661C19.3995 17.6317 19.0815 17.5 18.75 17.5Z" fill="black"/>
</svg>
