<svg width="24" height="24" viewBox="0 0 24 24" fill="none" xmlns="http://www.w3.org/2000/svg">
<g clip-path="url(#clip0_5574_75044)">
<path d="M17.2266 0.84375L15.1078 7.19531C15.3891 7.26562 15.6609 7.35469 15.9094 7.4625L18.1172 0.84375H17.2266ZM13.8 7.89844C13.2234 7.89844 12.5719 7.98281 12.4641 8.32031L11.6062 10.875L11.5547 10.8844L9.73125 9.67031L7.48594 11.7516L4.9875 12.6562L5.30625 14.5922L2.90625 15.6984L3.09469 19.1719L0.495468 20.775L4.19391 22.3266L8.09531 21.8344L11.2406 23.3109L14.8031 22.8141L16.0547 21.675L19.875 23.0625L23.1187 21.7172L21.5062 19.0875L20.0484 18.3469L21.0375 17.4422L19.1437 13.575L16.2141 13.3641L17.3531 9.95156C17.3062 9.225 16.4016 8.64844 15.8344 8.35781L14.4984 10.4531C14.4469 10.5234 14.4562 10.4766 14.4422 10.4109L14.6344 7.95937C14.4703 7.93125 14.1516 7.89844 13.8 7.89844ZM9.81562 10.7391L11.3672 11.775L13.8937 11.3625L14.5687 13.5984L12.9 14.6812L10.875 13.9031L12.7781 16.1859L15.6187 14.1656L18.6 14.3812L19.2281 15.6562L16.4672 16.3406L19.6359 16.4859L20.0062 17.2453L18.5859 18.5531L20.9156 19.7344L21.8812 21.3141L19.8562 22.1531L15.8672 20.7094L14.4281 22.0172L11.3719 22.4391L8.23594 20.9625L4.31203 21.4641L2.33578 20.6344L3.96469 19.6312L3.78 16.2234L5.57812 15.3937L7.15312 17.2453L8.82656 15.7875L6.99844 15.9141L6.23437 15.0422L5.93437 13.2094L7.00781 12.8203L9.14531 12.9L8.20781 12.2297L9.81562 10.7391ZM16.2937 18.3328L13.1906 19.2797L11.4797 18.6047L13.8422 20.6203L16.2937 18.3328ZM5.49844 19.1578L7.38281 20.3156L10.0312 20.1844L5.49844 19.1578Z" fill="black"/>
</g>
<defs>
<clipPath id="clip0_5574_75044">
<rect width="24" height="24" fill="white"/>
</clipPath>
</defs>
</svg>
