<svg width="24" height="24" viewBox="0 0 24 24" fill="none" xmlns="http://www.w3.org/2000/svg">
<path d="M1.5 6.75C1.5 6.15326 1.73705 5.58097 2.15901 5.15901C2.58097 4.73705 3.15326 4.5 3.75 4.5C4.34674 4.5 4.91903 4.73705 5.34099 5.15901C5.76295 5.58097 6 6.15326 6 6.75H18C18 6.15326 18.2371 5.58097 18.659 5.15901C19.081 4.73705 19.6533 4.5 20.25 4.5C20.8467 4.5 21.419 4.73705 21.841 5.15901C22.2629 5.58097 22.5 6.15326 22.5 6.75V17.25C22.5 17.8467 22.2629 18.419 21.841 18.841C21.419 19.2629 20.8467 19.5 20.25 19.5C19.6533 19.5 19.081 19.2629 18.659 18.841C18.2371 18.419 18 17.8467 18 17.25H6C6 17.8467 5.76295 18.419 5.34099 18.841C4.91903 19.2629 4.34674 19.5 3.75 19.5C3.15326 19.5 2.58097 19.2629 2.15901 18.841C1.73705 18.419 1.5 17.8467 1.5 17.25V6.75ZM4.5 6.75C4.5 6.55109 4.42098 6.36032 4.28033 6.21967C4.13968 6.07902 3.94891 6 3.75 6C3.55109 6 3.36032 6.07902 3.21967 6.21967C3.07902 6.36032 3 6.55109 3 6.75V17.25C3 17.4489 3.07902 17.6397 3.21967 17.7803C3.36032 17.921 3.55109 18 3.75 18C3.94891 18 4.13968 17.921 4.28033 17.7803C4.42098 17.6397 4.5 17.4489 4.5 17.25V6.75ZM6 15.75H18V8.25H6V15.75ZM21 6.75C21 6.55109 20.921 6.36032 20.7803 6.21967C20.6397 6.07902 20.4489 6 20.25 6C20.0511 6 19.8603 6.07902 19.7197 6.21967C19.579 6.36032 19.5 6.55109 19.5 6.75V17.25C19.5 17.4489 19.579 17.6397 19.7197 17.7803C19.8603 17.921 20.0511 18 20.25 18C20.4489 18 20.6397 17.921 20.7803 17.7803C20.921 17.6397 21 17.4489 21 17.25V6.75Z" fill="black"/>
</svg>
