<svg width="26" height="27" viewBox="0 0 26 27" fill="none" xmlns="http://www.w3.org/2000/svg">
<path d="M24.9631 14.0907C24.7808 16.4051 23.945 18.618 22.5548 20.4664C21.1646 22.3149 19.2786 23.7213 17.1208 24.5184C14.963 25.3156 12.6241 25.4701 10.3819 24.9635C8.1398 24.4569 6.08871 23.3105 4.47232 21.6606C2.85593 20.0106 1.7422 17.9265 1.26344 15.6557C0.784687 13.385 0.961028 11.0231 1.77152 8.85063C2.58201 6.67818 3.99257 4.78649 5.83564 3.40032C7.6787 2.01415 9.87679 1.19176 12.1688 1.03085" stroke="currentColor" stroke-width="2" stroke-linecap="round" stroke-linejoin="round"/>
<path d="M18.1506 15.1599C17.8172 16.027 17.2752 16.7965 16.5735 17.3988C15.8718 18.0011 15.0327 18.4171 14.1319 18.6093C13.2312 18.8014 12.2972 18.7637 11.4146 18.4994C10.5319 18.2351 9.7283 17.7527 9.0765 17.0957C8.4247 16.4387 7.94523 15.6279 7.68145 14.7366C7.41767 13.8453 7.3779 12.9016 7.56574 11.9909C7.75358 11.0801 8.1631 10.2311 8.75728 9.52045C9.35145 8.80985 10.1115 8.26012 10.9688 7.92098M12.9996 13.1263L17.6152 8.46203M17.6152 8.46203L21.3076 9.39487L25.0001 5.66349L21.3076 4.73065L20.3845 0.999268L16.6921 4.73065L17.6152 8.46203Z" stroke="currentColor" stroke-width="2" stroke-linecap="round" stroke-linejoin="round"/>
</svg>
