<svg width="16" height="17" viewBox="0 0 16 17" fill="none" xmlns="http://www.w3.org/2000/svg">
<path d="M14.7071 9.70711C15.0976 9.31658 15.0976 8.68342 14.7071 8.29289C14.3166 7.90237 13.6834 7.90237 13.2929 8.29289L14.7071 9.70711ZM8 15L7.29289 15.7071L8 16.4142L8.70711 15.7071L8 15ZM9 1C9 0.447714 8.55229 -4.76254e-07 8 -5.24537e-07C7.44772 -5.72819e-07 7 0.447714 7 0.999999L9 1ZM2.70711 8.29289C2.31658 7.90237 1.68342 7.90237 1.29289 8.29289C0.902369 8.68342 0.902369 9.31658 1.29289 9.70711L2.70711 8.29289ZM13.2929 8.29289L7.29289 14.2929L8.70711 15.7071L14.7071 9.70711L13.2929 8.29289ZM9 15L9 1L7 0.999999L7 15L9 15ZM8.70711 14.2929L2.70711 8.29289L1.29289 9.70711L7.29289 15.7071L8.70711 14.2929Z" fill="#2D2F36"/>
</svg>
