<svg width="16" height="17" viewBox="0 0 16 17" fill="none" xmlns="http://www.w3.org/2000/svg">
<path d="M1.29289 7.29289C0.902369 7.68342 0.902369 8.31658 1.29289 8.70711C1.68342 9.09763 2.31658 9.09763 2.70711 8.70711L1.29289 7.29289ZM8 2L8.70711 1.29289L8 0.585786L7.29289 1.29289L8 2ZM7 16C7 16.5523 7.44772 17 8 17C8.55228 17 9 16.5523 9 16H7ZM13.2929 8.70711C13.6834 9.09763 14.3166 9.09763 14.7071 8.70711C15.0976 8.31658 15.0976 7.68342 14.7071 7.29289L13.2929 8.70711ZM2.70711 8.70711L8.70711 2.70711L7.29289 1.29289L1.29289 7.29289L2.70711 8.70711ZM7 2V16H9V2H7ZM7.29289 2.70711L13.2929 8.70711L14.7071 7.29289L8.70711 1.29289L7.29289 2.70711Z" fill="#2D2F36"/>
</svg>
