<svg width="16" height="16" viewBox="0 0 55 55" fill="none" xmlns="http://www.w3.org/2000/svg">
	<path d="M50.8306 13.3441L27.8228 2.23687C27.6188 2.13849 27.3813 2.13849 27.1774 2.23687L4.16954 13.3441C3.91301 13.4679 3.75 13.7277 3.75 14.0125V40.9872C3.75 41.2721 3.91301 41.5319 4.16954 41.6557L27.1773 52.7629C27.2793 52.8121 27.3897 52.8367 27.5001 52.8367C27.6104 52.8367 27.7208 52.8121 27.8228 52.7629L50.8306 41.6557C51.0872 41.5319 51.2502 41.2721 51.2502 40.9872V14.0126C51.2502 13.7276 51.0871 13.468 50.8306 13.3441ZM27.5001 3.72966L48.8005 14.0125L42.6259 16.9934C42.5869 16.9636 42.5456 16.9361 42.5003 16.9142L21.3445 6.70129L27.5001 3.72966ZM19.6681 7.54057L40.9376 17.8085L36.5813 19.9116L15.3207 9.64779L19.6681 7.54057ZM41.4352 19.2167V26.9905L37.3662 28.9549V21.1811L41.4352 19.2167ZM49.7656 40.5215L28.2424 50.9117V25.5856L33.3763 23.1072C33.7455 22.9289 33.9003 22.4852 33.722 22.116C33.5438 21.7469 33.1001 21.5919 32.7308 21.7703L27.5001 24.2955L25.4419 23.3018C25.0726 23.1234 24.6289 23.2784 24.4507 23.6476C24.2724 24.0167 24.4272 24.4605 24.7964 24.6388L26.7578 25.5856V50.9117L5.23458 40.5213V15.1952L21.6243 23.1075C21.7283 23.1577 21.8383 23.1815 21.9465 23.1815C22.2224 23.1815 22.4875 23.0269 22.6154 22.7618C22.7937 22.3926 22.6389 21.9488 22.2697 21.7706L6.19965 14.0125L13.5736 10.4527L35.8713 21.2172C35.8746 21.2218 35.8782 21.2258 35.8816 21.2303V30.1376C35.8816 30.3931 36.0129 30.6305 36.2293 30.7664C36.3495 30.8418 36.4865 30.8799 36.624 30.8799C36.7341 30.8799 36.8444 30.8555 36.9466 30.8061L42.5003 28.125C42.7568 28.0012 42.9198 27.7415 42.9198 27.4566V18.5001L49.7656 15.1953V40.5215Z" fill="#005DFF"/>
	<path d="M10.2104 38.3656L6.59329 36.6194C6.1976 36.4282 5.72238 36.5943 5.53143 36.9898C5.34047 37.3852 5.5063 37.8607 5.90178 38.0516L9.51889 39.7978C9.63032 39.8516 9.74812 39.8771 9.86401 39.8771C10.1596 39.8771 10.4435 39.7115 10.5806 39.4274C10.7717 39.0318 10.6059 38.5566 10.2104 38.3656Z" fill="#005DFF"/>
	<path d="M13.5391 36.1982L6.5981 32.8473C6.20252 32.6564 5.7272 32.8222 5.53624 33.2178C5.3454 33.6133 5.51122 34.0887 5.9067 34.2797L12.8477 37.6305C12.9592 37.6843 13.077 37.7098 13.1929 37.7098C13.4885 37.7098 13.7724 37.5442 13.9095 37.2602C14.1005 36.8645 13.9346 36.3891 13.5391 36.1982Z" fill="#005DFF"/>
</svg>
