<svg width="16" height="16" viewBox="0 0 16 16" fill="none" xmlns="http://www.w3.org/2000/svg">
<path fill-rule="evenodd" clip-rule="evenodd" d="M0.666504 7.99999C0.666504 3.9499 3.94975 0.666656 7.99984 0.666656C12.0499 0.666656 15.3332 3.9499 15.3332 7.99999C15.3332 12.0501 12.0499 15.3333 7.99984 15.3333C3.94975 15.3333 0.666504 12.0501 0.666504 7.99999Z" fill="#005DFF"/>
<path fill-rule="evenodd" clip-rule="evenodd" d="M11.5403 5.36194C11.8007 5.62229 11.8007 6.0444 11.5403 6.30475L7.40223 10.6381C7.14188 10.8984 6.71977 10.8984 6.45942 10.6381L4.45942 8.63808C4.19907 8.37773 4.19907 7.95562 4.45942 7.69527C4.71977 7.43492 5.14188 7.43492 5.40223 7.69527L6.93083 9.22387L10.5975 5.36194C10.8578 5.10159 11.28 5.10159 11.5403 5.36194Z" fill="white"/>
</svg>
