<svg width="16" height="16" viewBox="0 0 16 16" fill="none" xmlns="http://www.w3.org/2000/svg">
<path fill-rule="evenodd" clip-rule="evenodd" d="M0.666016 8.00008C0.666016 3.94999 3.94926 0.666748 7.99935 0.666748C12.0494 0.666748 15.3327 3.94999 15.3327 8.00008C15.3327 12.0502 12.0494 15.3334 7.99935 15.3334C3.94926 15.3334 0.666016 12.0502 0.666016 8.00008Z" fill="black"/>
<path fill-rule="evenodd" clip-rule="evenodd" d="M11.5398 5.36201C11.8002 5.62236 11.8002 6.04447 11.5398 6.30482L7.40174 10.6382C7.14139 10.8985 6.71928 10.8985 6.45893 10.6382L4.45893 8.63815C4.19858 8.3778 4.19858 7.95569 4.45893 7.69534C4.71928 7.435 5.14139 7.435 5.40174 7.69534L6.93034 9.22394L10.597 5.36201C10.8574 5.10166 11.2795 5.10166 11.5398 5.36201Z" fill="white"/>
</svg>
