<svg version="1.1" width="16" height="16" xmlns="http://www.w3.org/2000/svg" xmlns:xlink="http://www.w3.org/1999/xlink" x="0px" y="0px" viewBox="0 0 1000 1000" enable-background="new 0 0 1000 1000" xml:space="preserve">
<g><path d="M605.8,638.6l-13.3-2.2l6.6-17c5.4-15.4,3.4-43.1,1.6-57.5c-5.7-5.5-16-16-26.3-29.3c-21.3-27.5-32-53.1-31.7-76c0.6-45.3,0-99.3,0-99.9l0-1.2l0.2-1.2c0.2-1.2,4.4-30.7,18.6-60.6c20.2-42.6,50.7-65.1,88-65.1h3.1l58.2,22.7c32.2,1.1,59.5,19.2,78.9,52.5c14.2,24.3,19.3,48.4,19.5,49.4l0.3,1.6v110.5l-0.4,1.8c-0.6,2.7-15.1,63-57,92.2c-0.3,8.7,0,24,3.8,39.4c6.9,28.1,21.5,43.4,44.9,46.8c84.3,12.4,143.8,67.1,150.3,73.3c6,5.7,13.7,18,25.2,65.7c6,24.9,10.3,47.8,10.5,48.8l3.5,19.2L720.9,852l0.3-16.5l-2.1-18.1l34.6,2.1l197,0.5c-1.6-7.6-3.6-16.7-5.8-26.1c-10-41.6-15.7-50.6-16.7-51.8c-6.8-6.4-59-53.7-132.4-64.5c-20.8-3-37.8-12.3-50.7-27.6c-9.8-11.7-17-26.6-21.2-44.5c-6.9-29-3.9-56.2-3.8-57.3l0.9-8.3l7.3-4.1c31.9-17.8,46-65,48.6-74.4V358.4c-2.6-10.4-20.4-74.7-69.5-74.7h-3.1l-57.8-22.6c-54.1,2.8-69.6,86.1-71.4,96.6c0.1,8.7,0.5,57.6,0,99.3c-0.4,31.7,37.1,71.9,51.6,84.7l4.3,3.8l0.9,5.7c0.7,4.4,1.5,76.2-3.4,103.8l-36.1-18.8"/><path d="M727.5,857.1H10.2L10,841c0-1-0.2-24.4,3.3-52.7c4.8-39.6,14.3-68.7,28.1-86.4l0.7-1l0.9-0.8c19.3-18.4,95.2-74,187.1-87.5l0.6-0.1c11.8-1.3,21.1-6.3,28.4-15.4c19.2-24,20.2-70,18.7-91.4c-14.1-15.7-60.1-71.1-59.4-124.3c0.7-54.6,0-91,0-91.4l0-0.7l0-0.7c0.1-1.4,2.5-35.7,16.9-70.4c20.4-49.3,54.4-75.3,98.5-75.3h3.3l70.1,29.3c38,1.1,68.8,21.5,89.2,59.1c15,27.6,19,54.9,19.2,56.1l0.2,1.1v102.1l-0.1,0.9c-0.4,3.3-9.2,77.4-60,112.1c-0.6,10.3-0.7,30.1,3.9,50c8.2,35.3,26.6,54.6,56.1,58.9c100.6,14.8,171.7,80.1,179.5,87.5c7.2,6.8,15.6,21.6,24.2,79.9c4.5,30.4,6.8,58.4,6.9,59.6L727.5,857.1z M42.8,824.6H692c-1.1-10.2-2.6-23.9-4.7-38c-7.4-51.3-13.9-61.8-14.9-63.3c-8-7.6-71.8-65.5-161.6-78.7c-24.2-3.6-44-14.4-58.9-32.2c-11.4-13.7-19.6-31.3-24.4-52.4c-7.8-34.4-3.9-66.6-3.7-68l1-8.2l7.2-4c40.4-22.5,50-83.6,51.1-91.3V291c-0.8-4.6-4.8-25.1-15.8-44.9c-15.2-27.5-36.6-41.4-63.6-41.4h-3.3l-69.8-29.2c-68.5,3-79,105.8-79.8,114.7c0.1,5.8,0.6,41,0,91.6c-0.5,40.1,39,89.8,54.3,105.6l3.8,4l0.6,5.5c0.4,3.2,8.5,78.6-25.1,120.5c-12.7,15.9-29.5,25.1-49.9,27.4C151.3,657,82.3,708,66.3,722.7C49.6,745.3,44.1,794.7,42.8,824.6z"/></g>
</svg>
