<svg width="16" height="16" viewBox="0 0 16 16" fill="none" xmlns="http://www.w3.org/2000/svg">
<path d="M15 4.8C15.4418 4.8 15.8 4.44183 15.8 4C15.8 3.55817 15.4418 3.2 15 3.2V4.8ZM1 3.2C0.558172 3.2 0.2 3.55817 0.2 4C0.2 4.44183 0.558172 4.8 1 4.8V3.2ZM6 0.2C5.55817 0.2 5.2 0.558172 5.2 1C5.2 1.44183 5.55817 1.8 6 1.8V0.2ZM10 1.8C10.4418 1.8 10.8 1.44183 10.8 1C10.8 0.558172 10.4418 0.2 10 0.2V1.8ZM2.2 4V13H3.8V4H2.2ZM5 15.8H11V14.2H5V15.8ZM13.8 13V4H12.2V13H13.8ZM13 3.2H3V4.8H13V3.2ZM13 4.8H15V3.2H13V4.8ZM3 3.2H1V4.8H3V3.2ZM11 15.8C12.5464 15.8 13.8 14.5464 13.8 13H12.2C12.2 13.6627 11.6627 14.2 11 14.2V15.8ZM2.2 13C2.2 14.5464 3.4536 15.8 5 15.8V14.2C4.33726 14.2 3.8 13.6627 3.8 13H2.2ZM6 1.8H10V0.2H6V1.8Z" fill="#E63D3D"/>
</svg>
