<svg width="20" height="13" viewBox="0 0 20 13" fill="none" xmlns="http://www.w3.org/2000/svg">
<path fill-rule="evenodd" clip-rule="evenodd" d="M6.0291 0.0199908C2.74935 0.0601704 -0.120541 3.15709 0.00390237 6.5083C-0.0507648 9.22028 1.77578 11.8084 4.28745 12.6521C6.65407 13.4653 9.56324 12.857 11.1379 10.7842C12.2878 9.33211 12.5488 7.3959 12.4243 5.5867C10.6226 5.57021 8.8209 5.57327 7.02131 5.57632C6.79676 5.5767 6.57225 5.57708 6.34777 5.57742C6.34475 6.31443 6.34776 7.04864 6.35077 7.78563L6.35079 7.78983C7.02194 7.80879 7.69318 7.81254 8.36442 7.81628C8.90671 7.81931 9.449 7.82233 9.99124 7.83338C9.68494 8.90699 8.9869 9.90615 7.92817 10.2939C5.88351 11.2155 3.27459 10.0115 2.63122 7.81765C1.85434 5.71707 3.1257 3.18182 5.22503 2.57041C6.5266 2.10203 7.86746 2.62942 8.98113 3.32146C9.54511 2.78143 10.0731 2.20458 10.592 1.62099C9.32699 0.538111 7.70071 -0.125836 6.0291 0.0199908ZM18.1735 3.71539H16.3686C16.3623 4.33298 16.3563 4.95366 16.3532 5.57068C15.7468 5.57686 15.1431 5.57995 14.5393 5.58304L14.5391 5.58304V7.43243C14.6213 7.43289 14.7035 7.43334 14.7859 7.43379C15.3081 7.43663 15.8319 7.43949 16.3532 7.44507C16.3565 7.76826 16.3581 8.09137 16.3597 8.41492C16.3611 8.70966 16.3626 9.00477 16.3653 9.30064C16.5652 9.30064 16.7656 9.3003 16.9661 9.29996C17.368 9.29927 17.7709 9.29858 18.1735 9.30064L18.1742 9.15409C18.1772 8.58273 18.1803 8.01379 18.1858 7.44198L20 7.43271V5.58332L19.991 5.58328C19.3902 5.5802 18.7864 5.57711 18.1858 5.57096C18.1842 5.26244 18.1819 4.95307 18.1796 4.64367C18.1774 4.33401 18.1751 4.02432 18.1735 3.71539Z" fill="#556274"/>
</svg>
