<svg width="14" height="14" viewBox="0 0 14 14" fill="none" xmlns="http://www.w3.org/2000/svg">
<path d="M1.06329 7.82233L1.06326 7.82236C0.897329 7.98829 0.8 8.22223 0.8 8.4595C0.8 8.69382 0.896902 8.92793 1.06326 9.09431L1.06328 9.09434M1.06329 7.82233L1.06328 9.09434M1.06329 7.82233L7.55051 1.33451C7.55052 1.3345 7.55053 1.33449 7.55054 1.33448C7.89618 0.988855 8.35237 0.8 8.84157 0.8H12.5417C12.9042 0.8 13.2 1.09575 13.2 1.45832V5.15843C13.2 5.64768 13.0111 6.10368 12.6658 6.44859L12.6655 6.44892L6.17766 12.9367C6.17765 12.9367 6.17765 12.9367 6.17764 12.9367C6.01125 13.1031 5.77714 13.2 5.54282 13.2C5.3054 13.2 5.07152 13.1025 4.90626 12.9373C4.90625 12.9373 4.90624 12.9373 4.90623 12.9373M1.06329 7.82233L4.90623 12.9373M1.06328 9.09434L4.90623 12.9373M1.06328 9.09434L4.90623 12.9373" stroke="#9FA4BB" stroke-width="1.6"/>
</svg>
