<svg width="22" height="22" viewBox="0 0 22 22" fill="none" xmlns="http://www.w3.org/2000/svg">
<path d="M11 2.75C6.46937 2.75 2.75 6.19205 2.75 10.4556C2.75 12.7271 3.82937 14.7452 5.5 16.151V19.25L8.55112 17.7632C9.32662 17.991 10.1379 18.1612 11 18.1612C15.5306 18.1612 19.25 14.7191 19.25 10.4556C19.25 6.19205 15.5306 2.75 11 2.75ZM11 4.0901C14.8218 4.0901 17.875 6.94854 17.875 10.4556C17.875 13.9626 14.8218 16.8211 11 16.8211C10.1784 16.8211 9.394 16.669 8.65837 16.4231L8.37925 16.3393L6.875 17.0723V15.5647L6.61719 15.355C5.09162 14.1831 4.125 12.4269 4.125 10.4556C4.125 6.94854 7.17819 4.0901 11 4.0901ZM10.2266 8.3409L6.08025 12.6125L9.79688 10.6023L11.7734 12.6755L15.8771 8.34023L12.2458 10.3303L10.2266 8.3409Z" fill="#377BE2"/>
</svg>
