<svg width="100" height="100" viewBox="0 0 100 100" fill="none" xmlns="http://www.w3.org/2000/svg">
<rect x="0.5" y="0.5" width="99" height="99" rx="3.5" fill="#E8E8E8" stroke="#D9D9D9"/>
<path d="M73.3337 73.333H26.667" stroke="black" stroke-width="2.5" stroke-linecap="round"/>
<path d="M71.0008 73.3332V35.9998C71.0008 31.5992 71.0008 29.4012 69.6334 28.0338C68.2661 26.6665 66.0681 26.6665 61.6674 26.6665H57.0008C52.6001 26.6665 50.4021 26.6665 49.0348 28.0338C47.9334 29.1328 47.7188 30.7732 47.6768 33.6665" stroke="black" stroke-width="2.5"/>
<path d="M57 73.3332V42.9998C57 38.5992 57 36.4012 55.6327 35.0338C54.2653 33.6665 52.0673 33.6665 47.6667 33.6665H38.3333C33.9327 33.6665 31.7347 33.6665 30.3673 35.0338C29 36.4012 29 38.5992 29 42.9998V73.3332" stroke="black" stroke-width="2.5"/>
<path d="M43 73.3332V66.3332M36 40.6665H50M36 47.6665H50M36 54.6665H50" stroke="black" stroke-width="2.5" stroke-linecap="round"/>
</svg>
