<svg width="32" height="32" viewBox="0 0 32 32" fill="none" xmlns="http://www.w3.org/2000/svg">
<path d="M2.66675 13.9998L2.66675 12.5165C2.66675 12.1214 2.66675 11.9239 2.67898 11.7493C2.82742 9.63099 4.29774 7.83749 6.34584 7.27649C6.51459 7.23027 6.70828 7.19153 7.09566 7.11405L7.27672 7.07784C7.30212 7.07276 7.31482 7.07022 7.32706 7.06771C8.60912 6.80463 9.73691 6.04935 10.4683 4.96403C10.4753 4.95367 10.4825 4.94289 10.4969 4.92134V4.92134C10.5152 4.89378 10.5244 4.87999 10.5332 4.86704C11.4568 3.50022 12.9951 2.67692 14.6447 2.6666C14.6604 2.6665 14.6769 2.6665 14.7101 2.6665L17.2901 2.6665C17.3232 2.6665 17.3398 2.6665 17.3554 2.6666C19.005 2.67692 20.5434 3.50022 21.467 4.86704C21.4757 4.87999 21.4849 4.89378 21.5033 4.92134V4.92134C21.5177 4.94289 21.5249 4.95367 21.5318 4.96403C22.2633 6.04935 23.391 6.80463 24.6731 7.06771C24.6853 7.07022 24.698 7.07276 24.7234 7.07784L24.9045 7.11405C25.2919 7.19153 25.4856 7.23027 25.6543 7.27649C27.7024 7.83749 29.1727 9.63099 29.3212 11.7493C29.3334 11.9239 29.3334 12.1214 29.3334 12.5165L29.3334 21.3332C29.3334 24.1334 29.3334 25.5336 28.7884 26.6031C28.3091 27.5439 27.5442 28.3088 26.6034 28.7882C25.5338 29.3332 24.1337 29.3332 21.3334 29.3332L10.6667 29.3332C7.86648 29.3332 6.46635 29.3332 5.3968 28.7882C4.45599 28.3088 3.69108 27.5439 3.21172 26.6031C2.66675 25.5336 2.66675 24.1334 2.66675 21.3332L2.66675 20.6665L2.66675 19.9998M16.0001 11.9998C13.0546 11.9998 10.6667 14.3877 10.6667 17.3332C10.6667 20.2787 13.0546 22.6665 16.0001 22.6665C18.9456 22.6665 21.3334 20.2787 21.3334 17.3332C21.3334 16.3617 21.0737 15.451 20.6199 14.6665" stroke="#979797" stroke-width="2" stroke-linecap="round" stroke-linejoin="round"/>
</svg>
