<svg width="24" height="24" viewBox="0 0 24 24" fill="none" xmlns="http://www.w3.org/2000/svg">
	<path d="M14.0267 14.0267C13.7749 14.2969 13.4713 14.5136 13.134 14.6639C12.7966 14.8142 12.4325 14.895 12.0633 14.9015C11.694 14.908 11.3272 14.8401 10.9848 14.7018C10.6424 14.5635 10.3313 14.3576 10.0702 14.0965C9.80906 13.8354 9.60319 13.5243 9.46488 13.1819C9.32657 12.8395 9.25865 12.4727 9.26516 12.1034C9.27168 11.7342 9.3525 11.37 9.5028 11.0327C9.65311 10.6954 9.86982 10.3918 10.14 10.14M17.5283 17.5284C15.9614 18.7228 14.0533 19.3845 12.0833 19.4167C5.66667 19.4167 2 12.0834 2 12.0834C3.14023 9.95843 4.72171 8.10191 6.63833 6.63836L17.5283 17.5284ZM10.1583 4.97002C10.7893 4.82233 11.4353 4.7485 12.0833 4.75002C18.5 4.75002 22.1667 12.0834 22.1667 12.0834C21.6102 13.1243 20.9466 14.1044 20.1867 15.0075L10.1583 4.97002Z" stroke="#1B1B1F" stroke-width="1.375" stroke-linecap="round" stroke-linejoin="round"/>
	<path d="M14.0267 14.0267C13.7749 14.2969 13.4713 14.5136 13.134 14.6639C12.7966 14.8142 12.4325 14.895 12.0633 14.9015C11.694 14.908 11.3272 14.8401 10.9848 14.7018C10.6424 14.5635 10.3313 14.3576 10.0702 14.0965C9.80906 13.8354 9.60319 13.5243 9.46488 13.1819C9.32657 12.8395 9.25865 12.4727 9.26516 12.1034C9.27168 11.7342 9.3525 11.37 9.5028 11.0327C9.65311 10.6954 9.86982 10.3918 10.14 10.14M17.5283 17.5284C15.9614 18.7228 14.0533 19.3845 12.0833 19.4167C5.66667 19.4167 2 12.0834 2 12.0834C3.14023 9.95843 4.72171 8.10191 6.63833 6.63836L17.5283 17.5284ZM10.1583 4.97002C10.7893 4.82233 11.4353 4.7485 12.0833 4.75002C18.5 4.75002 22.1667 12.0834 22.1667 12.0834C21.6102 13.1243 20.9466 14.1044 20.1867 15.0075L10.1583 4.97002Z" stroke="black" stroke-opacity="0.2" stroke-width="1.375" stroke-linecap="round" stroke-linejoin="round"/>
	<path d="M14.0267 14.0267C13.7749 14.2969 13.4713 14.5136 13.134 14.6639C12.7966 14.8142 12.4325 14.895 12.0633 14.9015C11.694 14.908 11.3272 14.8401 10.9848 14.7018C10.6424 14.5635 10.3313 14.3576 10.0702 14.0965C9.80906 13.8354 9.60319 13.5243 9.46488 13.1819C9.32657 12.8395 9.25865 12.4727 9.26516 12.1034C9.27168 11.7342 9.3525 11.37 9.5028 11.0327C9.65311 10.6954 9.86982 10.3918 10.14 10.14M17.5283 17.5284C15.9614 18.7228 14.0533 19.3845 12.0833 19.4167C5.66667 19.4167 2 12.0834 2 12.0834C3.14023 9.95843 4.72171 8.10191 6.63833 6.63836L17.5283 17.5284ZM10.1583 4.97002C10.7893 4.82233 11.4353 4.7485 12.0833 4.75002C18.5 4.75002 22.1667 12.0834 22.1667 12.0834C21.6102 13.1243 20.9466 14.1044 20.1867 15.0075L10.1583 4.97002Z" stroke="black" stroke-opacity="0.2" stroke-width="1.375" stroke-linecap="round" stroke-linejoin="round"/>
	<path d="M14.0267 14.0267C13.7749 14.2969 13.4713 14.5136 13.134 14.6639C12.7966 14.8142 12.4325 14.895 12.0633 14.9015C11.694 14.908 11.3272 14.8401 10.9848 14.7018C10.6424 14.5635 10.3313 14.3576 10.0702 14.0965C9.80906 13.8354 9.60319 13.5243 9.46488 13.1819C9.32657 12.8395 9.25865 12.4727 9.26516 12.1034C9.27168 11.7342 9.3525 11.37 9.5028 11.0327C9.65311 10.6954 9.86982 10.3918 10.14 10.14M17.5283 17.5284C15.9614 18.7228 14.0533 19.3845 12.0833 19.4167C5.66667 19.4167 2 12.0834 2 12.0834C3.14023 9.95843 4.72171 8.10191 6.63833 6.63836L17.5283 17.5284ZM10.1583 4.97002C10.7893 4.82233 11.4353 4.7485 12.0833 4.75002C18.5 4.75002 22.1667 12.0834 22.1667 12.0834C21.6102 13.1243 20.9466 14.1044 20.1867 15.0075L10.1583 4.97002Z" stroke="black" stroke-opacity="0.2" stroke-width="1.375" stroke-linecap="round" stroke-linejoin="round"/>
	<path d="M2 2L22.1667 22.1667" stroke="#1B1B1F" stroke-width="1.375" stroke-linecap="round" stroke-linejoin="round"/>
	<path d="M2 2L22.1667 22.1667" stroke="black" stroke-opacity="0.2" stroke-width="1.375" stroke-linecap="round" stroke-linejoin="round"/>
	<path d="M2 2L22.1667 22.1667" stroke="black" stroke-opacity="0.2" stroke-width="1.375" stroke-linecap="round" stroke-linejoin="round"/>
	<path d="M2 2L22.1667 22.1667" stroke="black" stroke-opacity="0.2" stroke-width="1.375" stroke-linecap="round" stroke-linejoin="round"/>
</svg>
