<svg width="16" height="16" viewBox="0 0 16 16" fill="none" xmlns="http://www.w3.org/2000/svg">
<path d="M1.13434 8.85903L1.13437 8.859L8.54834 1.44434C8.54835 1.44433 8.54836 1.44432 8.54837 1.44432C8.96484 1.02786 9.51528 0.8 10.1047 0.8H14.3333C14.8108 0.8 15.2 1.18917 15.2 1.66666V5.89534C15.2 6.48477 14.9721 7.03501 14.556 7.45067L14.5556 7.451L7.141 14.8656C6.92944 15.0772 6.63282 15.2 6.33466 15.2C6.03306 15.2 5.73666 15.0766 5.52632 14.8663L1.13437 10.4743C0.92283 10.2628 0.8 9.96616 0.8 9.668C0.8 9.36656 0.923247 9.07012 1.13434 8.85903Z" stroke="#9FA4BB" stroke-width="1.6"/>
<path d="M10.2793 4.74219C10.2793 5.29378 10.7277 5.74219 11.2793 5.74219C11.8309 5.74219 12.2793 5.29378 12.2793 4.74217C12.2793 4.19058 11.8309 3.74219 11.2793 3.74219C10.7277 3.74219 10.2793 4.19058 10.2793 4.74219Z" stroke="#9FA4BB" stroke-width="1.2"/>
</svg>
