<svg width="14" height="16" viewBox="0 0 14 16" fill="none" xmlns="http://www.w3.org/2000/svg">
<path d="M2.3 8.57143V0.3H11.7V8.57143C11.7 8.73711 11.8343 8.87143 12 8.87143H12.8322L6.90385 15.5444L1.15447 8.87143H2C2.16569 8.87143 2.3 8.73711 2.3 8.57143Z" fill="#FED519" stroke="#372D00" stroke-width="0.6" stroke-linejoin="round"/>
<path d="M6.99901 2.47705V10.2392M8.84715 3.88835H6.07494C5.73184 3.88835 5.40278 4.01846 5.16016 4.25004C4.91755 4.48163 4.78125 4.79573 4.78125 5.12324C4.78125 5.45076 4.91755 5.76485 5.16016 5.99644C5.40278 6.22803 5.73184 6.35813 6.07494 6.35813H7.92308C8.26619 6.35813 8.59524 6.48824 8.83786 6.71982C9.08047 6.95141 9.21677 7.26551 9.21677 7.59302C9.21677 7.92054 9.08047 8.23463 8.83786 8.46622C8.59524 8.69781 8.26619 8.82791 7.92308 8.82791H4.78125" stroke="#372D00" stroke-width="0.6" stroke-linecap="round" stroke-linejoin="round"/>
</svg>
