<svg width="16" height="16" viewBox="0 0 16 16" fill="none" xmlns="http://www.w3.org/2000/svg">
<path d="M10.0219 5.26827L10.1354 5.50935L10.3989 5.54945L14.1749 6.12424C14.4562 6.16719 14.6347 6.58247 14.3781 6.84654C14.378 6.84668 14.3779 6.84682 14.3777 6.84695L11.6454 9.63665L11.4683 9.81746L11.5092 10.0672L12.154 14.0082C12.154 14.0083 12.154 14.0084 12.154 14.0085C12.2171 14.3969 11.8481 14.5814 11.6185 14.4557C11.6185 14.4557 11.6184 14.4557 11.6184 14.4556L8.24115 12.595L7.99991 12.4621L7.75865 12.595L4.38185 14.4549C4.25087 14.5269 4.11542 14.509 4.0047 14.4246C3.8916 14.3383 3.81707 14.1889 3.84666 14.0072L4.49143 10.0663L4.5323 9.81655L4.3552 9.63573L1.62231 6.84543C1.62226 6.84538 1.62222 6.84533 1.62217 6.84528C1.36565 6.5826 1.54295 6.16727 1.82488 6.12424L5.60171 5.54946L5.86525 5.50935L5.97882 5.26818L7.66719 1.68315C7.66724 1.68304 7.66729 1.68294 7.66733 1.68284C7.71694 1.57814 7.83521 1.5 7.99988 1.5C8.16465 1.5 8.28297 1.57824 8.33252 1.68304C8.33254 1.68307 8.33255 1.68311 8.33257 1.68315L10.0219 5.26827Z" fill="#FED519" stroke="#B07501"/>
</svg>
