<svg width="80" height="80" viewBox="0 0 80 80" fill="none" xmlns="http://www.w3.org/2000/svg">
<path d="M67.4399 29.6187C67.4399 29.6187 65.34 56.7026 64.1218 68.1112C63.5417 73.5601 60.3018 76.8995 54.9998 77M54.9998 77C54.5232 77.0089 56.7873 76.9919 54.9998 77ZM54.9998 77C52.7154 77.0104 48.4704 77.0149 44.9998 77.012M12.5596 29.6187C12.5596 29.6187 14.6479 56.6302 15.8738 68.1393C16.4423 73.4918 19.3988 76.8914 24.4998 77C25.466 77.0212 31.1266 77.0184 34.9998 77.012M27.4727 67.2781L25.0866 38.1219M39.9998 67.2781V38M54.7198 38.1219L52.3337 67.2781M39.9998 77.012V77" stroke="#E63D3D" stroke-width="3" stroke-linecap="round" stroke-linejoin="round"/>
<path fill-rule="evenodd" clip-rule="evenodd" d="M31.5123 1.99951C28.471 1.99951 25.8619 4.11826 25.099 7.09076C25.0913 7.12065 25.0845 7.15077 25.0787 7.18108L24.1044 12.26L24.1043 12.2606C23.6141 14.8089 21.4871 16.5738 19.1012 16.5738C19.0971 16.5738 19.0931 16.5738 19.089 16.5739H5.99854C5.17011 16.5739 4.49854 17.2454 4.49854 18.0739C4.49854 18.9023 5.17011 19.5739 5.99854 19.5739H74.001C74.8294 19.5739 75.501 18.9023 75.501 18.0739C75.501 17.2454 74.8294 16.5739 74.001 16.5739H60.9101C60.9061 16.5738 60.902 16.5738 60.8979 16.5738C58.5119 16.5738 56.3847 14.8086 55.8947 12.26L54.9204 7.18108C54.9146 7.15077 54.9078 7.12065 54.9002 7.09076C54.1372 4.11826 51.5281 1.99951 48.4868 1.99951H31.5123ZM54.6859 16.5739C53.8306 15.5184 53.2203 14.2391 52.9487 12.8264L52.9486 12.8258L51.9835 7.79529C51.5307 6.10426 50.0763 4.99951 48.4868 4.99951H31.5123C29.9229 4.99951 28.4684 6.10426 28.0156 7.79529L27.0506 12.8258L27.0504 12.8264C26.7789 14.2391 26.1686 15.5184 25.3133 16.5739H54.6859Z" fill="#E63D3D"/>
</svg>
