<svg width="48" height="48" viewBox="0 0 48 48" fill="none" xmlns="http://www.w3.org/2000/svg">
	<path d="M35.2992 17.704C34.4683 18.0723 33.5746 18.3214 32.6373 18.4327C33.5943 17.8594 34.3287 16.9524 34.6754 15.8699C33.7799 16.401 32.7876 16.7862 31.7325 16.9939C30.8871 16.0938 29.6827 15.5312 28.349 15.5312C25.7901 15.5312 23.7147 17.6062 23.7147 20.1645C23.7147 20.5276 23.7559 20.8811 23.8354 21.2204C19.9839 21.0273 16.569 19.1828 14.2831 16.3788C13.8843 17.063 13.6555 17.8594 13.6555 18.7084C13.6555 20.3155 14.4742 21.7342 15.717 22.5649C14.9577 22.5411 14.2427 22.3327 13.6182 21.9848C13.6178 22.0044 13.6178 22.0241 13.6178 22.0435C13.6178 24.2884 15.2159 26.1609 17.3355 26.5862C16.9471 26.6926 16.5368 26.749 16.1148 26.749C15.8155 26.749 15.5256 26.7203 15.2429 26.6664C15.8325 28.5067 17.5436 29.8463 19.5719 29.884C17.9856 31.1268 15.9876 31.8673 13.8158 31.8673C13.4426 31.8673 13.0728 31.8456 12.7109 31.8024C14.7607 33.1175 17.1973 33.8842 19.8142 33.8842C28.3383 33.8842 32.9998 26.8243 32.9998 20.7011C32.9998 20.5003 32.9954 20.3003 32.9864 20.1019C33.8926 19.4489 34.6781 18.6331 35.2992 17.704Z" fill="#005DFF"/>
</svg>
