<svg width="16" height="16" viewBox="0 0 16 16" fill="none" xmlns="http://www.w3.org/2000/svg">
<path d="M8.56569 8.83568C8.25327 8.52326 7.74673 8.52326 7.43431 8.83568L2.34315 13.9269C2.03073 14.2393 2.03073 14.7458 2.34315 15.0582C2.65557 15.3706 3.1621 15.3706 3.47452 15.0582L8 10.5327L12.5255 15.0582C12.8379 15.3706 13.3444 15.3706 13.6569 15.0582C13.9693 14.7458 13.9693 14.2393 13.6569 13.9269L8.56569 8.83568ZM8.8 10.4014V9.40137H7.2V10.4014H8.8Z" fill="#9FA4BB"/>
<path d="M8.56569 2.33568C8.25327 2.02326 7.74673 2.02326 7.43431 2.33568L2.34315 7.42685C2.03073 7.73927 2.03073 8.2458 2.34315 8.55822C2.65557 8.87064 3.1621 8.87064 3.47452 8.55822L8 4.03274L12.5255 8.55822C12.8379 8.87064 13.3444 8.87064 13.6569 8.55822C13.9693 8.2458 13.9693 7.73927 13.6569 7.42685L8.56569 2.33568ZM8.8 3.90137V2.90137H7.2V3.90137H8.8Z" fill="#9FA4BB"/>
</svg>
