<svg width="26" height="18" viewBox="0 0 26 18" fill="none" xmlns="http://www.w3.org/2000/svg">
<g opacity="0.85">
<rect width="26" height="18" rx="2" fill="white"/>
<mask id="mask0" mask-type="alpha" maskUnits="userSpaceOnUse" x="0" y="0" width="26" height="18">
<rect width="26" height="18" rx="2" fill="white"/>
</mask>
<g mask="url(#mask0)">
<path fill-rule="evenodd" clip-rule="evenodd" d="M26 0H0V1.2H26V0ZM26 2.39999H0V3.59999H26V2.39999ZM0 4.80001H26V6.00001H0V4.80001ZM26 7.2H0V8.4H26V7.2ZM0 9.59999H26V10.8H0V9.59999ZM26 12H0V13.2H26V12ZM0 14.4H26V15.6H0V14.4ZM26 16.8H0V18H26V16.8Z" fill="#D02F44"/>
<rect width="11.1429" height="8.4" fill="#46467F"/>
<g filter="url(#filter0_d)">
<path fill-rule="evenodd" clip-rule="evenodd" d="M2.47638 1.8002C2.47638 2.13157 2.19922 2.4002 1.85733 2.4002C1.51544 2.4002 1.23828 2.13157 1.23828 1.8002C1.23828 1.46882 1.51544 1.2002 1.85733 1.2002C2.19922 1.2002 2.47638 1.46882 2.47638 1.8002ZM4.95261 1.8002C4.95261 2.13157 4.67546 2.4002 4.33357 2.4002C3.99168 2.4002 3.71452 2.13157 3.71452 1.8002C3.71452 1.46882 3.99168 1.2002 4.33357 1.2002C4.67546 1.2002 4.95261 1.46882 4.95261 1.8002ZM6.80966 2.4002C7.15155 2.4002 7.42871 2.13157 7.42871 1.8002C7.42871 1.46882 7.15155 1.2002 6.80966 1.2002C6.46777 1.2002 6.19062 1.46882 6.19062 1.8002C6.19062 2.13157 6.46777 2.4002 6.80966 2.4002ZM9.90495 1.8002C9.90495 2.13157 9.62779 2.4002 9.2859 2.4002C8.94401 2.4002 8.66685 2.13157 8.66685 1.8002C8.66685 1.46882 8.94401 1.2002 9.2859 1.2002C9.62779 1.2002 9.90495 1.46882 9.90495 1.8002ZM3.09538 3.6002C3.43727 3.6002 3.71443 3.33157 3.71443 3.0002C3.71443 2.66883 3.43727 2.4002 3.09538 2.4002C2.75349 2.4002 2.47633 2.66883 2.47633 3.0002C2.47633 3.33157 2.75349 3.6002 3.09538 3.6002ZM6.19066 3.0002C6.19066 3.33157 5.91351 3.6002 5.57161 3.6002C5.22972 3.6002 4.95257 3.33157 4.95257 3.0002C4.95257 2.66883 5.22972 2.4002 5.57161 2.4002C5.91351 2.4002 6.19066 2.66883 6.19066 3.0002ZM8.04785 3.6002C8.38974 3.6002 8.6669 3.33157 8.6669 3.0002C8.6669 2.66883 8.38974 2.4002 8.04785 2.4002C7.70596 2.4002 7.4288 2.66883 7.4288 3.0002C7.4288 3.33157 7.70596 3.6002 8.04785 3.6002ZM9.90495 4.20019C9.90495 4.53156 9.62779 4.80019 9.2859 4.80019C8.94401 4.80019 8.66685 4.53156 8.66685 4.20019C8.66685 3.86882 8.94401 3.60019 9.2859 3.60019C9.62779 3.60019 9.90495 3.86882 9.90495 4.20019ZM6.80966 4.80019C7.15155 4.80019 7.42871 4.53156 7.42871 4.20019C7.42871 3.86882 7.15155 3.60019 6.80966 3.60019C6.46777 3.60019 6.19062 3.86882 6.19062 4.20019C6.19062 4.53156 6.46777 4.80019 6.80966 4.80019ZM4.95261 4.20019C4.95261 4.53156 4.67546 4.80019 4.33357 4.80019C3.99168 4.80019 3.71452 4.53156 3.71452 4.20019C3.71452 3.86882 3.99168 3.60019 4.33357 3.60019C4.67546 3.60019 4.95261 3.86882 4.95261 4.20019ZM1.85733 4.80019C2.19922 4.80019 2.47638 4.53156 2.47638 4.20019C2.47638 3.86882 2.19922 3.60019 1.85733 3.60019C1.51544 3.60019 1.23828 3.86882 1.23828 4.20019C1.23828 4.53156 1.51544 4.80019 1.85733 4.80019ZM3.71443 5.4002C3.71443 5.73157 3.43727 6.0002 3.09538 6.0002C2.75349 6.0002 2.47633 5.73157 2.47633 5.4002C2.47633 5.06882 2.75349 4.8002 3.09538 4.8002C3.43727 4.8002 3.71443 5.06882 3.71443 5.4002ZM5.57161 6.0002C5.91351 6.0002 6.19066 5.73157 6.19066 5.4002C6.19066 5.06882 5.91351 4.8002 5.57161 4.8002C5.22972 4.8002 4.95257 5.06882 4.95257 5.4002C4.95257 5.73157 5.22972 6.0002 5.57161 6.0002ZM8.6669 5.4002C8.6669 5.73157 8.38974 6.0002 8.04785 6.0002C7.70596 6.0002 7.4288 5.73157 7.4288 5.4002C7.4288 5.06882 7.70596 4.8002 8.04785 4.8002C8.38974 4.8002 8.6669 5.06882 8.6669 5.4002ZM9.2859 7.2002C9.62779 7.2002 9.90495 6.93158 9.90495 6.6002C9.90495 6.26883 9.62779 6.0002 9.2859 6.0002C8.94401 6.0002 8.66685 6.26883 8.66685 6.6002C8.66685 6.93158 8.94401 7.2002 9.2859 7.2002ZM7.42871 6.6002C7.42871 6.93158 7.15155 7.2002 6.80966 7.2002C6.46777 7.2002 6.19062 6.93158 6.19062 6.6002C6.19062 6.26883 6.46777 6.0002 6.80966 6.0002C7.15155 6.0002 7.42871 6.26883 7.42871 6.6002ZM4.33357 7.2002C4.67546 7.2002 4.95261 6.93158 4.95261 6.6002C4.95261 6.26883 4.67546 6.0002 4.33357 6.0002C3.99168 6.0002 3.71452 6.26883 3.71452 6.6002C3.71452 6.93158 3.99168 7.2002 4.33357 7.2002ZM2.47638 6.6002C2.47638 6.93158 2.19922 7.2002 1.85733 7.2002C1.51544 7.2002 1.23828 6.93158 1.23828 6.6002C1.23828 6.26883 1.51544 6.0002 1.85733 6.0002C2.19922 6.0002 2.47638 6.26883 2.47638 6.6002Z" fill="url(#paint0_linear)"/>
</g>
</g>
</g>
<defs>
<filter id="filter0_d" x="1.23828" y="1.2002" width="8.66667" height="7.00001" filterUnits="userSpaceOnUse" color-interpolation-filters="sRGB">
<feFlood flood-opacity="0" result="BackgroundImageFix"/>
<feColorMatrix in="SourceAlpha" type="matrix" values="0 0 0 0 0 0 0 0 0 0 0 0 0 0 0 0 0 0 127 0"/>
<feOffset dy="1"/>
<feColorMatrix type="matrix" values="0 0 0 0 0 0 0 0 0 0 0 0 0 0 0 0 0 0 0.06 0"/>
<feBlend mode="normal" in2="BackgroundImageFix" result="effect1_dropShadow"/>
<feBlend mode="normal" in="SourceGraphic" in2="effect1_dropShadow" result="shape"/>
</filter>
<linearGradient id="paint0_linear" x1="1.23828" y1="1.2002" x2="1.23828" y2="7.2002" gradientUnits="userSpaceOnUse">
<stop stop-color="white"/>
<stop offset="1" stop-color="#F0F0F0"/>
</linearGradient>
</defs>
</svg>
