<svg width="16" height="16" viewBox="0 0 16 16" fill="none" xmlns="http://www.w3.org/2000/svg">
<path d="M1.33436 14.5562C1.08928 14.9239 1.18862 15.4206 1.55624 15.6656C1.92386 15.9107 2.42056 15.8114 2.66564 15.4438L1.33436 14.5562ZM13.3344 15.4438C13.5794 15.8114 14.0761 15.9107 14.4438 15.6656C14.8114 15.4206 14.9107 14.9239 14.6656 14.5562L13.3344 15.4438ZM2 15C2.66564 15.4438 2.66545 15.444 2.66526 15.4443C2.66521 15.4444 2.66503 15.4447 2.66493 15.4448C2.66472 15.4451 2.66454 15.4454 2.66439 15.4456C2.6641 15.4461 2.66392 15.4463 2.66385 15.4464C2.66373 15.4466 2.66407 15.4461 2.66489 15.4449C2.66652 15.4425 2.67002 15.4375 2.6754 15.4299C2.68617 15.4148 2.7044 15.3896 2.7301 15.3559C2.78153 15.2884 2.86252 15.187 2.97293 15.0627C3.1943 14.8137 3.53047 14.4771 3.98 14.14C4.87666 13.4675 6.2124 12.8 8 12.8V11.2C5.7876 11.2 4.12334 12.0325 3.02 12.86C2.46953 13.2729 2.0557 13.6863 1.77707 13.9998C1.63748 14.1568 1.53097 14.2897 1.4574 14.3863C1.4206 14.4346 1.39196 14.4739 1.37147 14.5027C1.36123 14.5171 1.35302 14.5289 1.34683 14.5379C1.34374 14.5424 1.34116 14.5462 1.33908 14.5492C1.33804 14.5508 1.33713 14.5521 1.33634 14.5533C1.33595 14.5539 1.33558 14.5544 1.33525 14.5549C1.33509 14.5551 1.33487 14.5555 1.33478 14.5556C1.33457 14.5559 1.33436 14.5562 2 15ZM8 12.8C9.7876 12.8 11.1233 13.4675 12.02 14.14C12.4695 14.4771 12.8057 14.8137 13.0271 15.0627C13.1375 15.187 13.2185 15.2884 13.2699 15.3559C13.2956 15.3896 13.3138 15.4148 13.3246 15.4299C13.33 15.4375 13.3335 15.4425 13.3351 15.4449C13.3359 15.4461 13.3363 15.4466 13.3361 15.4464C13.3361 15.4463 13.3359 15.4461 13.3356 15.4456C13.3355 15.4454 13.3353 15.4451 13.3351 15.4448C13.335 15.4447 13.3348 15.4444 13.3347 15.4443C13.3346 15.444 13.3344 15.4438 14 15C14.6656 14.5562 14.6654 14.5559 14.6652 14.5556C14.6651 14.5555 14.6649 14.5551 14.6647 14.5549C14.6644 14.5544 14.6641 14.5539 14.6637 14.5533C14.6629 14.5521 14.662 14.5508 14.6609 14.5492C14.6588 14.5462 14.6563 14.5424 14.6532 14.5379C14.647 14.5289 14.6388 14.5171 14.6285 14.5027C14.608 14.4739 14.5794 14.4346 14.5426 14.3863C14.469 14.2897 14.3625 14.1568 14.2229 13.9998C13.9443 13.6863 13.5305 13.2729 12.98 12.86C11.8767 12.0325 10.2124 11.2 8 11.2V12.8Z" fill="#9FA4BB"/>
<circle cx="8" cy="5" r="4" stroke="#9FA4BB" stroke-width="1.6"/>
</svg>
