<svg width="38" height="12" viewBox="0 0 38 12" fill="none" xmlns="http://www.w3.org/2000/svg">
<path d="M16.4669 11.5355H13.3887L15.314 0.5H18.3921L16.4669 11.5355Z" fill="#00579F"/>
<path d="M27.6265 0.769874C27.0194 0.546586 26.0563 0.300049 24.8656 0.300049C21.8257 0.300049 19.685 1.80268 19.6719 3.95098C19.6466 5.536 21.2045 6.41635 22.3697 6.94485C23.5607 7.48489 23.9655 7.83737 23.9655 8.31874C23.9534 9.05804 23.0032 9.39883 22.1169 9.39883C20.8879 9.39883 20.2294 9.22313 19.2287 8.81182L18.8233 8.6355L18.3926 11.1127C19.1145 11.4176 20.4447 11.6882 21.8257 11.7C25.0556 11.7 27.1584 10.2207 27.1833 7.93131C27.1956 6.67506 26.373 5.71247 24.5994 4.9259C23.5228 4.42096 22.8634 4.08049 22.8634 3.56386C22.8761 3.09419 23.4211 2.61313 24.6365 2.61313C25.6372 2.58957 26.3725 2.81254 26.9295 3.03567L27.2079 3.15286L27.6265 0.769874Z" fill="#00579F"/>
<path d="M31.7177 7.62601C31.9712 6.99204 32.9466 4.53837 32.9466 4.53837C32.9339 4.56193 33.1996 3.89269 33.3516 3.48185L33.5668 4.43273C33.5668 4.43273 34.1497 7.07427 34.2763 7.62601C33.7952 7.62601 32.3257 7.62601 31.7177 7.62601ZM35.5174 0.5H33.1364C32.4021 0.5 31.8442 0.699414 31.5274 1.41562L26.9551 11.5353H30.185C30.185 11.5353 30.7168 10.1733 30.8311 9.87996C31.1854 9.87996 34.3275 9.87996 34.7833 9.87996C34.8717 10.2674 35.1506 11.5353 35.1506 11.5353H38.0008L35.5174 0.5Z" fill="#00579F"/>
<path d="M10.8168 0.5L7.80213 8.02515L7.4727 6.49896C6.91536 4.73794 5.16741 2.82463 3.2168 1.87327L5.97809 11.5238H9.23328L14.0718 0.5H10.8168Z" fill="#00579F"/>
<path d="M5.0033 0.5H0.0506673L0 0.722975C3.86336 1.63875 6.42199 3.84619 7.47321 6.49943L6.39657 1.42763C6.21932 0.72282 5.6746 0.523249 5.0033 0.5Z" fill="#FAA61A"/>
</svg>
