<svg width="22" height="22" viewBox="0 0 22 22" fill="none" xmlns="http://www.w3.org/2000/svg">
<path fill-rule="evenodd" clip-rule="evenodd" d="M16.8459 5.14815C16.0848 4.38571 15.1793 3.78115 14.1818 3.3695C13.1843 2.95785 12.1146 2.74729 11.0348 2.75003C6.50665 2.75003 2.82047 6.4178 2.81864 10.9262C2.81864 12.3671 3.19659 13.7734 3.91497 15.0139L2.75 19.25L7.10515 18.1124C8.30983 18.7651 9.65949 19.1073 11.0311 19.1079H11.0348C15.562 19.1079 19.2481 15.4401 19.25 10.9317C19.2531 9.85741 19.0422 8.79315 18.6296 7.80044C18.2169 6.80774 17.6107 5.90627 16.8459 5.14815ZM11.0348 17.7281H11.032C9.80895 17.7282 8.60839 17.4007 7.55631 16.7799L7.30739 16.6324L4.72304 17.3073L5.41214 14.7999L5.25016 14.543C4.56636 13.4595 4.20437 12.2057 4.20599 10.9262C4.20782 7.17923 7.27079 4.13079 11.0375 4.13079C11.9346 4.12881 12.8231 4.30392 13.6517 4.64599C14.4804 4.98805 15.2326 5.49028 15.8649 6.12361C16.5005 6.75392 17.0044 7.50337 17.3473 8.32865C17.6902 9.15392 17.8653 10.0387 17.8626 10.9317C17.8608 14.6787 14.7978 17.7281 11.0348 17.7281ZM14.7804 12.6376C14.5745 12.5347 13.566 12.0411 13.3775 11.9727C13.1899 11.9044 13.0536 11.8707 12.9163 12.0748C12.779 12.2788 12.3855 12.7387 12.2656 12.8753C12.1457 13.012 12.0259 13.0284 11.8209 12.9263C11.6159 12.8243 10.9542 12.6085 10.17 11.9126C9.55955 11.3707 9.14774 10.7022 9.02786 10.4973C8.90797 10.2923 9.01505 10.1821 9.11846 10.0801C9.21089 9.98903 9.32345 9.84148 9.42594 9.72217C9.52844 9.60285 9.5623 9.51815 9.63093 9.38153C9.69957 9.24491 9.66571 9.1256 9.61355 9.02359C9.5623 8.92067 9.1514 7.91515 8.98027 7.5062C8.81463 7.11 8.64533 7.16283 8.51904 7.15737C8.38825 7.15204 8.25735 7.14961 8.12644 7.15008C8.02235 7.15272 7.91993 7.17674 7.8256 7.22062C7.73127 7.2645 7.64707 7.32731 7.57828 7.4051C7.38976 7.61003 6.85989 8.10368 6.85989 9.1092C6.85989 10.1147 7.59566 11.0865 7.69816 11.2232C7.80065 11.3598 9.14591 13.4227 11.205 14.308C11.6955 14.5184 12.078 14.6441 12.3754 14.7388C12.8669 14.8946 13.3144 14.8718 13.6685 14.8199C14.063 14.7616 14.8829 14.3262 15.0541 13.849C15.2252 13.3717 15.2252 12.9628 15.1739 12.8772C15.1227 12.7915 14.9845 12.7396 14.7804 12.6376Z" fill="#5BE893"/>
</svg>
