<svg width="24" height="24" viewBox="0 0 24 24" fill="none" xmlns="http://www.w3.org/2000/svg">
<g clip-path="url(#clip0)">
<path d="M22.6795 1.32019C21.7996 0.440118 20.7396 0 19.5001 0H4.49997C3.2605 0 2.20043 0.440118 1.32019 1.32019C0.440119 2.20043 0 3.26044 0 4.49997V19.4999C0 20.7393 0.440119 21.7994 1.32019 22.6797C2.20043 23.5599 3.2605 24 4.49997 24H19.4999C20.7394 24 21.7995 23.5599 22.6793 22.6797C23.5596 21.7994 23.9997 20.7394 23.9997 19.4999V4.49997C23.9996 3.26044 23.5595 2.20026 22.6795 1.32019ZM14.172 3.46852H15.2189V7.71833C15.2189 7.96843 15.2238 8.10388 15.2342 8.12473C15.2447 8.29143 15.3283 8.37467 15.4844 8.37467C15.6927 8.37467 15.9117 8.21334 16.1407 7.89045V3.46852H17.1876V9.24977H16.1407H16.1403V8.62451C15.7133 9.09314 15.3123 9.32775 14.9374 9.32775C14.6042 9.32775 14.3802 9.18721 14.2654 8.90591C14.2028 8.71853 14.172 8.43197 14.172 8.04647V3.46852ZM10.2188 5.34359C10.2188 4.73951 10.3282 4.28626 10.547 3.98427C10.8282 3.58848 11.2343 3.39048 11.7655 3.39048C12.2761 3.39048 12.6825 3.58865 12.9842 3.98427C13.2031 4.28631 13.3125 4.73951 13.3125 5.34359V7.37491C13.3125 7.99996 13.2031 8.4531 12.9842 8.73429C12.6825 9.1303 12.2761 9.32819 11.7655 9.32819C11.2343 9.32819 10.8282 9.13013 10.547 8.73429C10.3282 8.43219 10.2188 7.97905 10.2188 7.37491V5.34359ZM7.40617 1.48415L8.23436 4.53122L9.03119 1.48415H10.2031L8.7968 6.10918H8.79702V9.24977H7.64079V6.10918C7.52608 5.53629 7.28654 4.71335 6.922 3.64053C6.68245 2.92174 6.5626 2.56234 6.5626 2.56234L6.18744 1.48415H7.40617ZM20.2815 20.3438C20.1773 20.7915 19.956 21.1716 19.6171 21.4844C19.2789 21.7968 18.8858 21.9792 18.4378 22.0315C17.0109 22.1875 14.8647 22.2657 12.0003 22.2657C9.13562 22.2657 6.9898 22.1875 5.56278 22.0315C5.11495 21.9792 4.72178 21.7968 4.38313 21.4844C4.04459 21.1716 3.82332 20.7915 3.71912 20.3438C3.51088 19.4686 3.40674 18.1144 3.40674 16.2812C3.40674 14.4788 3.51088 13.1251 3.71912 12.2186C3.82338 11.7603 4.04464 11.3774 4.38313 11.07C4.72178 10.7626 5.12009 10.5829 5.57849 10.5309C6.99495 10.3744 9.13562 10.2964 12.0003 10.2964C14.8754 10.2964 17.0213 10.3746 18.4378 10.5309C18.8858 10.583 19.2811 10.7625 19.625 11.07C19.9688 11.3772 20.193 11.7601 20.2971 12.2186C20.4947 13.0832 20.5938 14.4372 20.5938 16.2812C20.5939 18.1143 20.4897 19.4684 20.2815 20.3438Z" fill="#2272FF"/>
<path d="M4.6875 13.3906H5.90628V19.9999H7.06251V13.3906H8.31254V12.2968H4.6875V13.3906Z" fill="#2272FF"/>
<path d="M10.4063 18.6406C10.1772 18.9633 9.95833 19.1248 9.75009 19.1248C9.60424 19.1248 9.52609 19.0467 9.51569 18.8905C9.50524 18.8697 9.49998 18.7343 9.49998 18.4841V14.2653H8.46875V18.7965C8.46875 19.1924 8.50005 19.4737 8.56261 19.64C8.6563 19.9318 8.87516 20.0775 9.21885 20.0775C9.60424 20.0775 10.0001 19.8432 10.4063 19.3744V19.9996H11.453V14.2656H10.4063V18.6406Z" fill="#2272FF"/>
<path d="M14.454 14.1873C14.079 14.1873 13.7247 14.3956 13.3917 14.8124V12.2968H12.3447V19.9999H13.3917V19.4373C13.7351 19.8643 14.0897 20.0778 14.454 20.0778C14.8812 20.0778 15.1571 19.8591 15.2818 19.4216C15.3548 19.2028 15.3911 18.8226 15.3911 18.281V15.9998C15.3911 15.4477 15.3544 15.0622 15.2818 14.8435C15.157 14.406 14.8811 14.1873 14.454 14.1873ZM14.3601 18.3593C14.3601 18.8696 14.2092 19.1245 13.9069 19.1249C13.7301 19.1249 13.558 19.0414 13.3913 18.8747V15.3747C13.558 15.2084 13.7301 15.1249 13.9069 15.1249C14.2092 15.1249 14.3601 15.385 14.3601 15.9059V18.3593Z" fill="#2272FF"/>
<path d="M18.2498 18.3515C18.2498 18.4608 18.2471 18.5466 18.2423 18.6092C18.2372 18.6717 18.2344 18.7082 18.2344 18.7185C18.172 18.9891 18.0156 19.1245 17.7657 19.1245C17.4115 19.1245 17.2343 18.8589 17.2343 18.3278V17.3123H19.3125V16.1246C19.3125 15.5206 19.2033 15.0728 18.9844 14.781C18.7034 14.3852 18.297 14.1871 17.7657 14.1871C17.2343 14.1871 16.8178 14.3852 16.5155 14.781C16.3072 15.0623 16.2031 15.5104 16.2031 16.1246V18.1403C16.2031 18.755 16.3125 19.203 16.5312 19.4843C16.8335 19.8801 17.2553 20.0782 17.7971 20.0782C18.3492 20.0782 18.7657 19.8699 19.0473 19.4531C19.1722 19.2654 19.2506 19.0572 19.2817 18.8281C19.3023 18.6822 19.3128 18.4582 19.3128 18.1561V18.0159V18.0155H18.2502V18.3515H18.2498V18.3515ZM17.2347 15.9216C17.2347 15.3905 17.4066 15.1249 17.7503 15.1249C18.0942 15.1249 18.2659 15.3905 18.2659 15.9216V16.4531H17.2347V15.9216Z" fill="#2272FF"/>
<path d="M11.7665 8.37471C12.0999 8.37471 12.2665 8.10922 12.2665 7.57798V5.14042C12.2665 4.59889 12.0999 4.32788 11.7665 4.32788C11.4332 4.32788 11.2666 4.59889 11.2666 5.14042V7.57798C11.2666 8.10906 11.4332 8.37471 11.7665 8.37471Z" fill="#2272FF"/>
</g>
<defs>
<clipPath id="clip0">
<rect width="24" height="24" fill="white"/>
</clipPath>
</defs>
</svg>
