<svg width="48" height="48" viewBox="0 0 48 48" fill="none" xmlns="http://www.w3.org/2000/svg">
<path d="M12.7997 16.0004V14.4004C12.7997 12.2787 13.6425 10.2438 15.1428 8.74354C16.6431 7.24325 18.6779 6.40039 20.7997 6.40039C22.9214 6.40039 24.9562 7.24325 26.4565 8.74354C27.9568 10.2438 28.7997 12.2787 28.7997 14.4004V32.938L36.3677 25.37L35.2573 21.226L35.2541 21.2068H35.2509C35.1601 20.8661 35.1843 20.505 35.3199 20.1796C35.4554 19.8542 35.6947 19.5826 36.0004 19.4071C36.3062 19.2316 36.6613 19.162 37.0107 19.2091C37.3601 19.2562 37.6841 19.4174 37.9325 19.6676L44.3325 26.0676C44.5814 26.3157 44.7418 26.6389 44.7887 26.9873C44.8356 27.3356 44.7665 27.6897 44.5921 27.9949C44.4177 28.3 44.1476 28.5392 43.8236 28.6756C43.4997 28.8119 43.1398 28.8378 42.7997 28.7492L42.7677 28.7396L38.6301 27.6324L28.7997 37.4628V38.4004C28.7997 39.2491 28.4625 40.063 27.8624 40.6631C27.2623 41.2632 26.4484 41.6004 25.5997 41.6004H15.9997C15.151 41.6004 14.337 41.2632 13.7369 40.6631C13.1368 40.063 12.7997 39.2491 12.7997 38.4004V36.9156L5.54207 29.658C4.04367 28.1564 3.20215 26.1217 3.20215 24.0004C3.20215 21.8791 4.04367 19.8444 5.54207 18.3428C6.28435 17.599 7.16627 17.0091 8.13718 16.6072C9.10808 16.2052 10.1488 15.999 11.1997 16.0004H12.7997ZM12.7997 19.2004H11.1997C10.25 19.2 9.32155 19.4812 8.53179 20.0086C7.74204 20.536 7.12647 21.2859 6.76299 22.1632C6.39951 23.0406 6.30445 24.006 6.48984 24.9374C6.67523 25.8688 7.13274 26.7243 7.80447 27.3956L12.7997 32.3876V19.2004ZM25.5997 16.0004V14.4004C25.5997 13.1274 25.094 11.9065 24.1938 11.0063C23.2936 10.1061 22.0727 9.60039 20.7997 9.60039C19.5266 9.60039 18.3057 10.1061 17.4056 11.0063C16.5054 11.9065 15.9997 13.1274 15.9997 14.4004V16.0004H25.5997Z" fill="#292D32"/>
</svg>
