<svg width="48" height="48" viewBox="0 0 48 48" fill="none" xmlns="http://www.w3.org/2000/svg">
<path d="M11.9884 8.5C11.9884 9.16304 11.725 9.79893 11.2562 10.2678C10.7874 10.7366 10.1515 11 9.48843 11C8.82539 11 8.18951 10.7366 7.72067 10.2678C7.25183 9.79893 6.98843 9.16304 6.98843 8.5C6.98843 7.83696 7.25183 7.20107 7.72067 6.73223C8.18951 6.26339 8.82539 6 9.48843 6C10.1515 6 10.7874 6.26339 11.2562 6.73223C11.725 7.20107 11.9884 7.83696 11.9884 8.5ZM13.9884 8.5C13.9899 9.47219 13.675 10.4185 13.0914 11.196C15.7224 12.048 18.3614 13.108 20.1014 14.998C20.1249 15.0238 20.1534 15.0447 20.1851 15.0592C20.2169 15.0738 20.2512 15.0819 20.2861 15.0829C20.321 15.0839 20.3558 15.0779 20.3883 15.0652C20.4208 15.0525 20.4505 15.0334 20.4754 15.009C21.3006 14.199 22.2226 13.4941 23.2204 12.91C23.2522 12.8918 23.2795 12.8667 23.3005 12.8367C23.3215 12.8067 23.3356 12.7724 23.3418 12.7363C23.348 12.7002 23.3462 12.6632 23.3364 12.6278C23.3267 12.5925 23.3093 12.5598 23.2854 12.532C20.9354 9.86 17.5154 8.712 13.9444 7.867C13.9734 8.074 13.9884 8.285 13.9884 8.5ZM10.7204 12.83C10.3284 12.94 9.91543 13 9.48843 13C8.59443 13 7.76143 12.74 7.06143 12.29L6.08543 23.452L6.00343 25.792C5.9683 26.7944 6.31104 27.7734 6.96374 28.5351C7.61645 29.2967 8.53146 29.7853 9.52743 29.904L9.70843 29.926C10.4857 30.0184 11.2731 29.8808 11.9729 29.5301C12.6727 29.1793 13.2542 28.631 13.6454 27.953L15.8414 24.147C15.8659 24.1047 15.8773 24.0561 15.8744 24.0073C15.8716 23.9585 15.8544 23.9116 15.8251 23.8724C15.7959 23.8333 15.7558 23.8035 15.7098 23.7869C15.6638 23.7703 15.614 23.7676 15.5664 23.779L13.7924 24.209C13.7677 24.2155 13.742 24.2182 13.7164 24.217L11.0504 24.043L9.32043 23.837C9.2872 23.8331 9.2551 23.8225 9.22602 23.806C9.19694 23.7894 9.17148 23.7672 9.15115 23.7406C9.13082 23.714 9.11604 23.6836 9.10767 23.6512C9.0993 23.6188 9.09752 23.5851 9.10243 23.552L10.7194 12.829L10.7204 12.83Z" fill="#292D32"/>
<path fill-rule="evenodd" clip-rule="evenodd" d="M31.102 13C24.733 13 19.474 17.975 19.12 24.334L18.809 29.944C18.8014 30.0798 18.8215 30.2157 18.8683 30.3434C18.915 30.4712 18.9872 30.588 19.0806 30.6869C19.1741 30.7857 19.2867 30.8645 19.4115 30.9183C19.5364 30.9721 19.671 30.9999 19.807 31H41.457C41.5261 31 41.5944 30.9856 41.6577 30.9578C41.7209 30.93 41.7778 30.8895 41.8246 30.8386C41.8713 30.7878 41.9071 30.7278 41.9295 30.6625C41.952 30.5971 41.9607 30.5279 41.955 30.459L41.365 23.375C41.3336 23.0001 41.1626 22.6506 40.8856 22.396C40.6087 22.1413 40.2462 21.9999 39.87 22H36.044C36.0319 22.0001 36.0201 21.9958 36.0109 21.9879C36.0017 21.98 35.9957 21.969 35.994 21.957L34.99 14.725C34.9236 14.2468 34.6865 13.8087 34.3224 13.4917C33.9583 13.1746 33.4918 13 33.009 13H31.102ZM31.532 17.215C31.525 17.0891 31.4687 16.971 31.3754 16.8862C31.282 16.8014 31.159 16.7568 31.033 16.762C26.767 16.978 23.339 20.148 23.076 24.496L23.041 25.075C23.0363 25.153 23.05 25.231 23.0809 25.3027C23.1118 25.3745 23.1591 25.438 23.219 25.4881C23.2789 25.5383 23.3497 25.5738 23.4258 25.5916C23.5019 25.6095 23.581 25.6093 23.657 25.591L29.462 24.189C29.833 24.064 30.225 23.999 30.62 23.999H31.732C31.7662 23.9991 31.8001 23.9921 31.8315 23.9786C31.8629 23.965 31.8912 23.9452 31.9147 23.9202C31.9381 23.8953 31.9562 23.8658 31.9678 23.8336C31.9793 23.8014 31.9842 23.7672 31.982 23.733L31.532 17.215ZM17 37.5C17 36.3065 17.4741 35.1619 18.318 34.318C19.1619 33.4741 20.3065 33 21.5 33H37.5C38.0909 33 38.6761 33.1164 39.2221 33.3425C39.768 33.5687 40.2641 33.9002 40.682 34.318C41.0998 34.7359 41.4313 35.232 41.6575 35.7779C41.8836 36.3239 42 36.9091 42 37.5C42 38.0909 41.8836 38.6761 41.6575 39.2221C41.4313 39.768 41.0998 40.2641 40.682 40.682C40.2641 41.0998 39.768 41.4313 39.2221 41.6575C38.6761 41.8836 38.0909 42 37.5 42H21.5C20.3065 42 19.1619 41.5259 18.318 40.682C17.4741 39.8381 17 38.6935 17 37.5ZM25 37.5C25 37.697 24.9612 37.892 24.8858 38.074C24.8104 38.256 24.6999 38.4214 24.5607 38.5607C24.4214 38.6999 24.256 38.8104 24.074 38.8858C23.892 38.9612 23.697 39 23.5 39C23.303 39 23.108 38.9612 22.926 38.8858C22.744 38.8104 22.5786 38.6999 22.4393 38.5607C22.3001 38.4214 22.1896 38.256 22.1142 38.074C22.0388 37.892 22 37.697 22 37.5C22 37.1022 22.158 36.7206 22.4393 36.4393C22.7206 36.158 23.1022 36 23.5 36C23.8978 36 24.2794 36.158 24.5607 36.4393C24.842 36.7206 25 37.1022 25 37.5ZM29.5 39C29.8978 39 30.2794 38.842 30.5607 38.5607C30.842 38.2794 31 37.8978 31 37.5C31 37.1022 30.842 36.7206 30.5607 36.4393C30.2794 36.158 29.8978 36 29.5 36C29.1022 36 28.7206 36.158 28.4393 36.4393C28.158 36.7206 28 37.1022 28 37.5C28 37.8978 28.158 38.2794 28.4393 38.5607C28.7206 38.842 29.1022 39 29.5 39ZM37 37.5C37 37.8978 36.842 38.2794 36.5607 38.5607C36.2794 38.842 35.8978 39 35.5 39C35.1022 39 34.7206 38.842 34.4393 38.5607C34.158 38.2794 34 37.8978 34 37.5C34 37.1022 34.158 36.7206 34.4393 36.4393C34.7206 36.158 35.1022 36 35.5 36C35.8978 36 36.2794 36.158 36.5607 36.4393C36.842 36.7206 37 37.1022 37 37.5Z" fill="#292D32"/>
</svg>
