<svg width="48" height="48" viewBox="0 0 48 48" fill="none" xmlns="http://www.w3.org/2000/svg">
<path fill-rule="evenodd" clip-rule="evenodd" d="M24.5001 8.59774C24.3481 8.50997 24.1756 8.46377 24.0001 8.46377C23.8246 8.46377 23.6521 8.50997 23.5001 8.59774L12.4121 14.9997L16.0381 17.0937L27.6341 10.4077L24.5001 8.59774ZM31.6361 12.7177L20.0401 19.4037L23.5001 21.4017C23.6521 21.4895 23.8246 21.5357 24.0001 21.5357C24.1756 21.5357 24.3481 21.4895 24.5001 21.4017L35.5881 14.9997L31.6361 12.7177ZM37.5881 18.4637L26.5001 24.8657C26.3388 24.96 26.1718 25.0442 26.0001 25.1177V38.5357L37.0881 32.1337C37.2401 32.046 37.3664 31.9197 37.4541 31.7677C37.5419 31.6157 37.5881 31.4433 37.5881 31.2677V18.4637ZM22.0001 38.5357V25.1177C21.8289 25.0431 21.6619 24.959 21.5001 24.8657L10.4121 18.4637V31.2677C10.4121 31.4433 10.4583 31.6157 10.5461 31.7677C10.6339 31.9197 10.7601 32.046 10.9121 32.1337L22.0001 38.5357ZM21.5001 5.13374C22.2602 4.6949 23.1224 4.46387 24.0001 4.46387C24.8778 4.46387 25.74 4.6949 26.5001 5.13374L39.0881 12.4017C39.8482 12.8406 40.4794 13.4717 40.9182 14.2318C41.357 14.9919 41.5881 15.8541 41.5881 16.7317V31.2677C41.5881 32.1454 41.357 33.0076 40.9182 33.7677C40.4794 34.5277 39.8482 35.1589 39.0881 35.5977L26.5001 42.8657C25.74 43.3046 24.8778 43.5356 24.0001 43.5356C23.1224 43.5356 22.2602 43.3046 21.5001 42.8657L8.91211 35.5977C8.15203 35.1589 7.52085 34.5277 7.08201 33.7677C6.64317 33.0076 6.41213 32.1454 6.41211 31.2677V16.7317C6.41213 15.8541 6.64317 14.9919 7.08201 14.2318C7.52085 13.4717 8.15203 12.8406 8.91211 12.4017L21.5001 5.13374Z" fill="#292D32"/>
</svg>
