<svg width="48" height="48" viewBox="0 0 48 48" fill="none" xmlns="http://www.w3.org/2000/svg">
<path d="M32.25 15H15.75C15.3358 15 15 15.3358 15 15.75V32.25C15 32.6642 15.3358 33 15.75 33H32.25C32.6642 33 33 32.6642 33 32.25V15.75C33 15.3358 32.6642 15 32.25 15Z" fill="#292D32"/>
<path d="M43.5 18C43.8978 18 44.2794 17.842 44.5607 17.5607C44.842 17.2794 45 16.8978 45 16.5C45 16.1022 44.842 15.7206 44.5607 15.4393C44.2794 15.158 43.8978 15 43.5 15H42V12C41.9983 10.4092 41.3656 8.88412 40.2407 7.75928C39.1159 6.63444 37.5908 6.00174 36 6H33V4.5C33 4.10218 32.842 3.72064 32.5607 3.43934C32.2794 3.15804 31.8978 3 31.5 3C31.1022 3 30.7206 3.15804 30.4393 3.43934C30.158 3.72064 30 4.10218 30 4.5V6H25.5V4.5C25.5 4.10218 25.342 3.72064 25.0607 3.43934C24.7794 3.15804 24.3978 3 24 3C23.6022 3 23.2206 3.15804 22.9393 3.43934C22.658 3.72064 22.5 4.10218 22.5 4.5V6H18V4.5C18 4.10218 17.842 3.72064 17.5607 3.43934C17.2794 3.15804 16.8978 3 16.5 3C16.1022 3 15.7206 3.15804 15.4393 3.43934C15.158 3.72064 15 4.10218 15 4.5V6H12C10.4092 6.00174 8.88412 6.63444 7.75928 7.75928C6.63444 8.88412 6.00174 10.4092 6 12V15H4.5C4.10218 15 3.72064 15.158 3.43934 15.4393C3.15804 15.7206 3 16.1022 3 16.5C3 16.8978 3.15804 17.2794 3.43934 17.5607C3.72064 17.842 4.10218 18 4.5 18H6V22.5H4.5C4.10218 22.5 3.72064 22.658 3.43934 22.9393C3.15804 23.2206 3 23.6022 3 24C3 24.3978 3.15804 24.7794 3.43934 25.0607C3.72064 25.342 4.10218 25.5 4.5 25.5H6V30H4.5C4.10218 30 3.72064 30.158 3.43934 30.4393C3.15804 30.7206 3 31.1022 3 31.5C3 31.8978 3.15804 32.2794 3.43934 32.5607C3.72064 32.842 4.10218 33 4.5 33H6V36C6.00174 37.5908 6.63444 39.1159 7.75928 40.2407C8.88412 41.3656 10.4092 41.9983 12 42H15V43.5C15 43.8978 15.158 44.2794 15.4393 44.5607C15.7206 44.842 16.1022 45 16.5 45C16.8978 45 17.2794 44.842 17.5607 44.5607C17.842 44.2794 18 43.8978 18 43.5V42H22.5V43.5C22.5 43.8978 22.658 44.2794 22.9393 44.5607C23.2206 44.842 23.6022 45 24 45C24.3978 45 24.7794 44.842 25.0607 44.5607C25.342 44.2794 25.5 43.8978 25.5 43.5V42H30V43.5C30 43.8978 30.158 44.2794 30.4393 44.5607C30.7206 44.842 31.1022 45 31.5 45C31.8978 45 32.2794 44.842 32.5607 44.5607C32.842 44.2794 33 43.8978 33 43.5V42H36C37.5908 41.9983 39.1159 41.3656 40.2407 40.2407C41.3656 39.1159 41.9983 37.5908 42 36V33H43.5C43.8978 33 44.2794 32.842 44.5607 32.5607C44.842 32.2794 45 31.8978 45 31.5C45 31.1022 44.842 30.7206 44.5607 30.4393C44.2794 30.158 43.8978 30 43.5 30H42V25.5H43.5C43.8978 25.5 44.2794 25.342 44.5607 25.0607C44.842 24.7794 45 24.3978 45 24C45 23.6022 44.842 23.2206 44.5607 22.9393C44.2794 22.658 43.8978 22.5 43.5 22.5H42V18H43.5ZM36 33C36 33.7956 35.6839 34.5587 35.1213 35.1213C34.5587 35.6839 33.7956 36 33 36H15C14.2044 36 13.4413 35.6839 12.8787 35.1213C12.3161 34.5587 12 33.7956 12 33V15C12 14.2044 12.3161 13.4413 12.8787 12.8787C13.4413 12.3161 14.2044 12 15 12H33C33.7956 12 34.5587 12.3161 35.1213 12.8787C35.6839 13.4413 36 14.2044 36 15V33Z" fill="#292D32"/>
</svg>
