<svg width="48" height="48" viewBox="0 0 48 48" fill="none" xmlns="http://www.w3.org/2000/svg">
<path d="M25.5 15C25.5 14.6022 25.342 14.2206 25.0607 13.9393C24.7794 13.658 24.3978 13.5 24 13.5C23.6022 13.5 23.2206 13.658 22.9393 13.9393C22.658 14.2206 22.5 14.6022 22.5 15V22.5H18C17.6022 22.5 17.2206 22.658 16.9393 22.9393C16.658 23.2206 16.5 23.6022 16.5 24C16.5 24.3978 16.658 24.7794 16.9393 25.0607C17.2206 25.342 17.6022 25.5 18 25.5H24C24.3978 25.5 24.7794 25.342 25.0607 25.0607C25.342 24.7794 25.5 24.3978 25.5 24V15Z" fill="#292D32"/>
<path d="M17.001 48C14.241 48 12 45.762 12 42.999V37.419C10.1098 35.7322 8.59798 33.6644 7.56387 31.3516C6.52977 29.0389 5.99681 26.5334 6.00001 24C6.00001 18.669 8.31601 13.878 12 10.584V5.001C12 2.241 14.238 0 17.001 0H30.999C33.759 0 36 2.238 36 5.001V10.581C39.05 13.3049 41.0798 16.9877 41.754 21.021C41.9687 20.9863 42.1883 20.9986 42.3977 21.0569C42.6072 21.1151 42.8015 21.2181 42.9674 21.3586C43.1333 21.4991 43.2668 21.6739 43.3588 21.871C43.4507 22.068 43.4989 22.2826 43.5 22.5V25.5C43.4999 25.7177 43.4524 25.9328 43.3608 26.1304C43.2692 26.3279 43.1357 26.5031 42.9695 26.6439C42.8034 26.7846 42.6086 26.8875 42.3987 26.9454C42.1888 27.0032 41.9688 27.0147 41.754 26.979C41.0798 31.0123 39.05 34.6951 36 37.419V42.999C36 45.759 33.762 48 30.999 48H17.001ZM39 24C39 20.0218 37.4197 16.2064 34.6066 13.3934C31.7936 10.5804 27.9783 9 24 9C20.0218 9 16.2065 10.5804 13.3934 13.3934C10.5804 16.2064 9.00001 20.0218 9.00001 24C9.00001 27.9782 10.5804 31.7936 13.3934 34.6066C16.2065 37.4196 20.0218 39 24 39C27.9783 39 31.7936 37.4196 34.6066 34.6066C37.4197 31.7936 39 27.9782 39 24Z" fill="#292D32"/>
</svg>
