<svg width="176" height="176" viewBox="0 0 176 176" fill="none" xmlns="http://www.w3.org/2000/svg">
<rect x="0.5" y="0.5" width="175" height="175" rx="3.5" fill="white" stroke="#E5F2FD"/>
<path d="M64.6667 90.3335V91.5002V101.733C64.6667 105.094 64.6667 106.774 65.3206 108.057C65.8959 109.186 66.8138 110.104 67.9427 110.68C69.2262 111.333 70.9064 111.333 74.2667 111.333H101.733C105.094 111.333 106.774 111.333 108.057 110.68C109.186 110.104 110.104 109.186 110.679 108.057C111.333 106.774 111.333 105.094 111.333 101.733V74.2668C111.333 70.9065 111.333 69.2264 110.679 67.9429C110.104 66.8139 109.186 65.896 108.057 65.3208C106.774 64.6668 105.094 64.6668 101.733 64.6668H74.2667C70.9064 64.6668 69.2262 64.6668 67.9427 65.3208C66.8138 65.896 65.8959 66.8139 65.3206 67.9429C64.6667 69.2264 64.6667 70.9065 64.6667 74.2668V76.3532C64.6667 77.1933 64.6667 77.6134 64.8302 77.9342C64.974 78.2165 65.2035 78.4459 65.4857 78.5898C65.8066 78.7532 66.2266 78.7532 67.0667 78.7532H99.6667M78.6667 62.3335V69.3335M97.3334 62.3335V69.3335M99.6667 99.6668H95" stroke="#2F384C" stroke-width="2.5" stroke-linecap="round" stroke-linejoin="round"/>
</svg>
