<svg width="578" height="479" viewBox="0 0 578 479" fill="none" xmlns="http://www.w3.org/2000/svg">
<path opacity="0.15" d="M288.579 479C447.957 479 577.159 473.066 577.159 465.745C577.159 458.424 447.957 452.49 288.579 452.49C129.201 452.49 0 458.424 0 465.745C0 473.066 129.201 479 288.579 479Z" fill="black"/>
<path d="M472.148 213.584H135.046V407.25H472.148V213.584Z" fill="#DFE2E2"/>
<path d="M468.203 189.375H138.976C122.51 189.375 109.114 201.854 109.114 217.192V437.518C109.114 440.861 112.017 443.571 115.597 443.571H491.597C495.177 443.571 498.08 440.861 498.08 437.518V217.192C498.08 201.854 484.677 189.375 468.203 189.375ZM135.046 401.205V219.636C135.046 216.294 137.948 213.584 141.529 213.584H465.665C469.246 213.584 472.148 216.294 472.148 219.636V401.205C472.148 404.547 469.246 407.257 465.665 407.257H141.529C137.948 407.257 135.046 404.547 135.046 401.205Z" fill="url(#paint0_linear_373_7311)"/>
<path d="M504.563 431.459H102.631C99.0509 431.459 96.1484 434.168 96.1484 437.511C96.1484 450.875 107.787 461.741 122.102 461.741H485.085C499.4 461.741 511.038 450.868 511.038 437.511C511.046 434.168 508.143 431.459 504.563 431.459Z" fill="#3C415E"/>
<path d="M277.662 443.563H329.525C336.686 443.563 342.491 438.144 342.491 431.459H264.696C264.696 438.144 270.501 443.563 277.662 443.563Z" fill="#DFE2E2"/>
<path d="M409.478 407.317H197.709V133.29H362.567L409.478 173.335V407.317Z" fill="#FAF9F9"/>
<path d="M362.566 133.29V173.334H409.478L362.566 133.29Z" fill="#D5DAEB"/>
<path d="M347.821 173.334H259.365V232.142H347.821V173.334Z" fill="#3C415E"/>
<path d="M370.61 259.666H235.243C232.282 259.666 229.883 257.426 229.883 254.662C229.883 251.898 232.282 249.658 235.243 249.658H370.61C373.571 249.658 375.97 251.898 375.97 254.662C375.97 257.426 373.571 259.666 370.61 259.666Z" fill="#3C415E"/>
<path d="M370.61 283.446H235.243C232.282 283.446 229.883 281.206 229.883 278.442C229.883 275.678 232.282 273.438 235.243 273.438H370.61C373.571 273.438 375.97 275.678 375.97 278.442C375.97 281.2 373.571 283.446 370.61 283.446Z" fill="#3C415E"/>
<path d="M370.61 307.22H235.243C232.282 307.22 229.883 304.98 229.883 302.216C229.883 299.452 232.282 297.212 235.243 297.212H370.61C373.571 297.212 375.97 299.452 375.97 302.216C375.97 304.98 373.571 307.22 370.61 307.22Z" fill="#3C415E"/>
<path d="M370.61 330.994H235.243C232.282 330.994 229.883 328.754 229.883 325.99C229.883 323.226 232.282 320.986 235.243 320.986H370.61C373.571 320.986 375.97 323.226 375.97 325.99C375.97 328.754 373.571 330.994 370.61 330.994Z" fill="#3C415E"/>
<path d="M370.61 354.767H235.243C232.282 354.767 229.883 352.527 229.883 349.763C229.883 346.999 232.282 344.759 235.243 344.759H370.61C373.571 344.759 375.97 346.999 375.97 349.763C375.97 352.527 373.571 354.767 370.61 354.767Z" fill="#3C415E"/>
<path d="M370.61 378.541H235.243C232.282 378.541 229.883 376.301 229.883 373.537C229.883 370.773 232.282 368.533 235.243 368.533H370.61C373.571 368.533 375.97 370.773 375.97 373.537C375.97 376.301 373.571 378.541 370.61 378.541Z" fill="#3C415E"/>
<path d="M229.635 464.933C263.655 464.933 291.234 439.186 291.234 407.426C291.234 375.666 263.655 349.919 229.635 349.919C195.616 349.919 168.037 375.666 168.037 407.426C168.037 439.186 195.616 464.933 229.635 464.933Z" fill="#FB7668"/>
<path d="M229.636 456.45C258.638 456.45 282.148 434.501 282.148 407.425C282.148 380.35 258.638 358.401 229.636 358.401C200.634 358.401 177.124 380.35 177.124 407.425C177.124 434.501 200.634 456.45 229.636 456.45Z" fill="#FAF9F9"/>
<path d="M229.635 444.713C207.613 444.713 189.695 427.986 189.695 407.426C189.695 386.866 207.613 370.139 229.635 370.139C251.658 370.139 269.576 386.866 269.576 407.426C269.576 427.986 251.658 444.713 229.635 444.713Z" fill="#FB7668"/>
<path d="M229.636 432.976C214.541 432.976 202.268 421.511 202.268 407.426C202.268 393.333 214.548 381.875 229.636 381.875C244.731 381.875 257.004 393.34 257.004 407.426C257.004 421.511 244.724 432.976 229.636 432.976Z" fill="#FAF9F9"/>
<path d="M229.635 421.24C221.475 421.24 214.839 415.045 214.839 407.427C214.839 399.808 221.475 393.613 229.635 393.613C237.795 393.613 244.431 399.808 244.431 407.427C244.431 415.045 237.795 421.24 229.635 421.24Z" fill="#FB7668"/>
<path d="M280.323 364.658L231.946 409.822C230.619 411.061 228.46 411.061 227.133 409.822C225.806 408.583 225.806 406.568 227.133 405.329L275.51 360.165L280.323 364.658Z" fill="#738598"/>
<path d="M280.324 364.659L231.947 409.823C230.619 411.062 228.461 411.062 227.134 409.823L277.917 362.412L280.324 364.659Z" fill="#3C415E"/>
<path d="M252.54 367.123L271.165 349.735L275.511 360.165L256.886 377.553L252.54 367.123Z" fill="#488B8F"/>
<path d="M256.733 363.208L259.526 360.601L263.872 371.03L261.079 373.638L256.733 363.208Z" fill="#ADD2C9"/>
<path d="M263.56 356.835L266.359 354.221L270.698 364.658L267.905 367.265L263.56 356.835Z" fill="#ADD2C9"/>
<path d="M280.324 364.658L261.699 382.046L272.871 386.103L291.496 368.716L280.324 364.658Z" fill="#488B8F"/>
<path d="M275.511 369.151L272.718 371.759L283.89 375.816L286.69 373.202L275.511 369.151Z" fill="#ADD2C9"/>
<path d="M268.686 375.523L265.893 378.131L277.065 382.188L279.858 379.581L268.686 375.523Z" fill="#ADD2C9"/>
<path d="M424.981 312.947L425.812 326.869C425.893 328.21 425.659 329.552 425.12 330.797L419.344 344.277L415.581 340.764L419.344 327.366L418.535 314.009L424.981 312.947Z" fill="#FFE1BD"/>
<path d="M402.215 348.865L419.446 335.937C419.446 335.937 423.486 345.032 420.285 354.563C418.71 359.254 420.387 362.583 419.534 364.809C418.739 366.886 412.898 396.398 413.219 398.57C413.54 400.742 416.114 406.869 416.996 413.262C417.959 420.294 417.332 441.753 417.835 450.467H417.849C417.849 450.467 418.258 456.955 419.045 458.392C419.826 459.828 420.941 461.428 421.095 463.348C421.182 464.457 420.489 465.622 419.104 466.248C417.718 466.874 416.821 466.166 416.325 466.214C413.459 466.473 412.898 468.488 407.968 469.135C406.452 469.332 404.147 468.808 402.835 467.8C402.331 467.412 402.361 466.793 402.66 466.377C402.958 465.962 406.612 464.879 408.267 463.94C409.85 463.041 411.439 460.502 411.884 459.631C412.001 459.406 411.994 458.766 411.913 457.949C411.731 456.581 411.52 455.158 411.294 453.694C411.097 452.591 410.936 451.774 410.936 451.774L410.987 451.767C407.895 432.821 401.872 407.74 401.07 399.121C400.18 389.509 401.084 371.992 402.215 348.865Z" fill="#FFE1BD"/>
<path d="M402.44 468.12C402.097 467.541 402.024 466.676 402.367 466.472C402.834 466.186 404.504 465.213 405.466 464.825C406.429 464.437 407.946 464.11 407.406 464.369C406.866 464.627 407.822 465.648 408.711 465.621C411.796 465.512 414.115 463.654 415.872 463.286C418.417 462.755 419.548 459.984 419.672 459.535C420.146 459.828 421.196 462.102 421.407 462.81C421.597 463.449 421.932 464.627 421.721 465.288C421.575 465.744 421.254 466.663 421.378 467.636C421.378 467.636 420.868 467.984 419.54 468.208C418.702 468.351 417.579 468.188 417.579 468.188L417.396 466.697C417.396 466.697 416.711 466.656 415.829 466.806C414.946 466.955 413.495 467.704 413.408 467.793C413.043 468.174 412.744 468.882 412.277 469.093C411.03 469.645 409.783 469.89 408.216 469.944C404.934 470.053 403.031 469.114 402.44 468.12Z" fill="#3C415E"/>
<path d="M377.435 466.643C377.799 466.275 381.723 465.717 383.568 465.016C385.325 464.349 387.469 462.177 387.892 461.251C388.315 460.325 388.271 455.607 388.242 453.626C388.023 439.983 385.682 406.631 385.383 398.652C384.851 384.77 386.937 370.474 392.895 348.259L414.349 333.207C414.349 333.207 420.197 343.609 418.097 353.481C416.879 359.206 411.767 360.044 410.877 362.27C409.988 364.489 396.723 400.34 396.723 400.34C396.723 400.34 399.144 408.142 399.195 416.659C399.239 423.93 395.469 445.831 394.725 454.184C394.63 455.818 394.287 459.719 394.79 460.972C395.403 462.504 396.993 464.308 396.898 466.234C396.84 467.351 395.965 468.406 394.448 468.828C392.938 469.25 392.1 468.426 391.582 468.406C388.585 468.263 387.731 470.183 382.547 470.128C380.95 470.115 378.638 469.264 377.427 468.086C376.946 467.623 377.063 467.017 377.435 466.643Z" fill="#FFE1BD"/>
<path d="M376.968 468.345C376.691 467.718 376.742 466.854 377.114 466.697C377.639 466.486 379.491 465.744 380.541 465.499C381.591 465.247 383.203 465.138 382.612 465.315C382.022 465.492 382.868 466.643 383.794 466.738C386.995 467.065 389.642 465.547 391.516 465.431C394.222 465.261 395.236 462.674 395.425 462.245C395.87 462.606 397.182 465.009 397.299 465.737C397.409 466.398 397.591 467.61 397.285 468.236C397.073 468.665 396.614 469.529 396.614 470.517C396.614 470.517 396.045 470.789 394.638 470.823C393.748 470.843 392.617 470.53 392.617 470.53L392.632 469.032C392.632 469.032 391.925 468.896 390.999 468.917C390.065 468.944 388.913 469.373 388.352 469.761C387.907 470.067 387.44 470.585 386.922 470.7C385.42 471.041 384.341 471.129 382.714 470.959C379.28 470.605 377.442 469.414 376.968 468.345Z" fill="#3C415E"/>
<path d="M343.19 290.928C342.125 291.214 338.639 290.091 337.742 288.75C337.451 288.321 337.276 287.817 337.334 287.307C336.809 286.728 335.905 284.692 337.48 285.114C335.861 284.1 335.453 282.568 335.015 280.846C334.869 280.267 335.584 280.097 336.328 281.241C337.363 282.827 338.982 283.739 341.024 284.168C341.155 283.855 340.703 283.753 340.368 283.079C339.996 282.337 340.236 281.819 340.594 281.697C340.864 281.601 341.476 282.452 341.68 282.616C342.475 283.242 343.263 283.868 344.058 284.502C344.925 285.189 345.385 285.686 345.779 286.694C345.844 286.864 346.26 288.566 345.48 288.328" fill="#FFE1BD"/>
<path d="M394.841 306.662C386.849 306.573 372.541 305.3 370.573 304.939C362.821 303.523 343.022 290.847 343.022 290.847C343.022 290.847 342.643 287.885 345.662 287.068C350.686 290.874 368.662 295.694 371.061 297.056C372.614 297.934 397.751 296.974 397.751 296.974" fill="#FFE1BD"/>
<path d="M421.459 297.5C421.459 297.5 424.857 306.044 425.966 312.804L417.747 314.009V303.144" fill="#F9B253"/>
<path d="M393.69 332.321C393.551 333.54 386.551 347.203 385.683 361.854C385.107 371.569 384.954 377.138 385.77 384.143C393.077 388.16 409.215 388.63 417.164 383.252C417.062 377.451 418.805 369.969 419.658 364.884C420.03 362.651 422.451 356.503 422.764 354.27C423.953 345.821 421.685 337.911 415.764 333.138L393.69 332.321Z" fill="#3C415E"/>
<path d="M393.909 319.156C394.208 321.77 393.909 325.794 393.523 330.266C393.45 331.029 393.063 332.438 393.136 333.194C393.173 333.643 393.384 334.024 393.756 334.338C394.609 335.114 396.257 335.597 398.066 335.897C403.951 336.891 413.263 336.23 415.888 336.707C418.353 337.17 420.891 336.394 420.891 334.984C420.891 334.011 419.936 333.459 419.848 331.539C419.651 327.332 419.797 317.767 420.628 313.498C421.416 309.454 421.941 306.153 422.175 302.824C422.692 295.382 416.486 289.017 408.501 288.847C404.994 288.772 402.018 288.731 401.501 288.813C400.487 288.963 394.799 294.014 393.187 299.971C392.21 301.51 391.517 302.769 391.109 303.845C390.314 305.846 390.402 307.324 391.124 309.141C392.495 312.661 393.472 315.194 393.909 319.156Z" fill="#DFE2E2"/>
<path d="M393.908 319.156C394.207 321.77 393.908 325.794 393.522 330.267C393.449 331.029 393.063 332.438 393.135 333.194C393.172 333.643 393.383 334.025 393.755 334.338V334.324C393.223 333.215 394.499 327.7 395.053 324.609C395.622 321.498 395.461 315.507 394.273 311.715C393.106 307.923 392.662 306.119 392.662 306.119C392.662 306.119 391.743 304.825 391.101 303.852C390.306 305.853 390.394 307.331 391.116 309.148C392.494 312.661 393.471 315.194 393.908 319.156Z" fill="#CCCCCC"/>
<path d="M398.408 292.448C398.408 292.448 393.121 292.128 390.525 293.558C387.061 295.471 379.82 296.594 379.82 296.594C379.82 296.594 379.266 304.314 380.155 307.276C380.155 307.276 382.562 306.922 389.687 307.643C397.052 308.392 406.889 312.947 406.889 312.947L398.408 292.448Z" fill="#DFE2E2"/>
<path d="M395.775 266.611C397.54 263.459 400.333 259.006 407.013 259.619C413.692 260.239 419.417 264.167 419.337 268.844C419.257 273.521 415.866 279.151 414.56 282.385C413.255 285.619 413.809 290.425 413.809 290.425L399.589 290.03C399.589 290.03 399.385 285.707 398.481 284.107C397.977 283.215 395.987 281.541 393.689 279.805C392.683 279.049 391.874 277.463 392.472 274.998C393.369 271.308 393.697 269.688 394.273 268.606C394.681 267.823 395.396 267.298 395.775 266.611Z" fill="#FFE1BD"/>
<path d="M399.583 264.773C397.344 263.561 396.054 258.183 402.879 256.869C409.705 255.548 425.937 255.991 423.582 275.101C421.227 294.211 437.095 304.627 438.641 305.852C441.696 308.269 439.115 313.321 432.996 310.461C426.878 307.609 428.526 314.417 425.937 315.07C423.349 315.731 421.329 315.438 417.755 312.946C414.175 310.454 413.781 314.301 411.12 314.628C405.709 315.288 405.001 309.794 406.416 306.724C407.831 303.647 413.708 278.389 406.89 273.562C405.03 272.241 403.032 272.35 401.734 272.643C401.216 272.759 400.772 272.282 400.976 271.826C401.793 269.933 402.741 266.475 399.583 264.773Z" fill="#002B55"/>
<path opacity="0.1" d="M410.566 89.1006L390.49 59.9897L370.771 89.1006H381.885V113.174H399.452V89.1006H410.566Z" fill="#738598"/>
<path opacity="0.1" d="M469.457 59.106L449.381 29.9951L429.663 59.106H440.777V113.174H458.344V59.106H469.457Z" fill="#738598"/>
<path opacity="0.1" d="M528.242 29.1108L508.166 0L488.447 29.1108H499.561V113.174H517.128V29.1108H528.242Z" fill="#738598"/>
<defs>
<linearGradient id="paint0_linear_373_7311" x1="109.113" y1="316.472" x2="498.078" y2="316.472" gradientUnits="userSpaceOnUse">
<stop stop-color="#738598"/>
<stop offset="1" stop-color="#3C415E"/>
</linearGradient>
</defs>
</svg>
