<svg width="32" height="32" viewBox="0 0 32 32" fill="none" xmlns="http://www.w3.org/2000/svg">
	<path fill-rule="evenodd" clip-rule="evenodd" d="M15.1961 1.16918C15.726 1.05282 16.2748 1.05282 16.8047 1.16918C17.4058 1.30119 17.9548 1.63088 18.7493 2.10799L18.8558 2.17197L27.3892 7.29196L27.4897 7.35224C28.2424 7.80349 28.7628 8.11543 29.1499 8.55566C29.4913 8.94392 29.7487 9.39859 29.906 9.89111C30.0843 10.4495 30.0841 11.0562 30.0837 11.9338V11.9339L30.0837 12.0511V19.949L30.0837 20.0662V20.0662C30.0841 20.9438 30.0843 21.5505 29.906 22.1089C29.7487 22.6014 29.4913 23.0561 29.1499 23.4444C28.7628 23.8846 28.2424 24.1965 27.4897 24.6478L27.3892 24.708L18.8558 29.828L18.7493 29.892C17.9548 30.3691 17.4058 30.6988 16.8047 30.8308C16.2748 30.9472 15.726 30.9472 15.1961 30.8308C14.5949 30.6988 14.046 30.3691 13.2515 29.892L13.1449 29.828L4.6116 24.708L4.5111 24.6478C3.75835 24.1965 3.238 23.8846 2.85091 23.4444C2.5095 23.0561 2.25207 22.6014 2.09479 22.1089C1.91645 21.5505 1.91669 20.9438 1.91702 20.0661L1.91705 19.949V12.051L1.91702 11.9339C1.91669 11.0562 1.91645 10.4495 2.09479 9.89111C2.25207 9.39859 2.5095 8.94392 2.85091 8.55566C3.238 8.11543 3.75834 7.80349 4.51108 7.35224L4.51109 7.35223L4.5111 7.35223L4.6116 7.29197L13.1449 2.17197L13.2515 2.10799C14.046 1.63088 14.5949 1.30119 15.1961 1.16918ZM16.483 2.63427C16.165 2.56445 15.8357 2.56445 15.5178 2.63427C15.1869 2.70694 14.8598 2.89236 13.9167 3.45821L5.38334 8.57821C5.14768 8.7196 4.9533 8.83692 4.7909 8.93747L9.72758 11.9543L20.8827 5.13738L18.0841 3.45821C17.141 2.89235 16.8139 2.70694 16.483 2.63427ZM11.1659 12.8333L16.0004 15.7877L27.2099 8.93747C27.0475 8.83692 26.8531 8.7196 26.6174 8.5782L22.3342 6.00827L11.1659 12.8333ZM28.3366 10.0068L16.7504 17.0873V29.2818C17.0249 29.1714 17.3855 28.961 18.0841 28.5418L26.6174 23.4218C27.5097 22.8864 27.8102 22.6963 28.0234 22.4538C28.2282 22.2209 28.3827 21.9481 28.4771 21.6526C28.5753 21.345 28.5837 20.9895 28.5837 19.949V12.0511C28.5837 11.0105 28.5753 10.655 28.4771 10.3474C28.4396 10.2299 28.3925 10.116 28.3366 10.0068ZM15.2504 29.2818V17.0873L3.66413 10.0068C3.60823 10.116 3.56121 10.2299 3.52369 10.3474C3.42548 10.655 3.41705 11.0105 3.41705 12.051V19.949C3.41705 20.9895 3.42548 21.345 3.52369 21.6526C3.61806 21.9481 3.77252 22.2209 3.97736 22.4539C4.19055 22.6963 4.49105 22.8864 5.38334 23.4218L13.9167 28.5418C14.6153 28.961 14.9759 29.1714 15.2504 29.2818Z" fill="black"/>
</svg>

