<?xml version="1.0" encoding="utf-8"?>
<!-- Generator: Adobe Illustrator 19.2.1, SVG Export Plug-In . SVG Version: 6.00 Build 0)  -->
<svg version="1.1" id="layer" xmlns="http://www.w3.org/2000/svg" xmlns:xlink="http://www.w3.org/1999/xlink" x="0px" y="0px"
	 viewBox="0 0 652 652" style="enable-background:new 0 0 652 652;" xml:space="preserve">
<style type="text/css">
	.st0{fill:#69BE28;}
</style>
<g>
	<path class="st0" d="M495.9,507.3c0,35.4-28.7,64.2-64.2,64.2H208.9c-35.4,0-64.2-28.7-64.2-64.2V135.6c0-35.4,28.7-64.2,64.2-64.2
		h222.8c35.4,0,64.2,28.7,64.2,64.2V507.3z M213.6,456c0-10.9-4.8-17.1-16.8-17.1c-13.9,0-18.1,9.3-18.1,27.4
		c0,18.6,2.6,28.6,16,28.6c5.1,0,8.8-1.8,11.3-6h0.1v5h8v-29.1h-17.6v8h7.2v5.5c0,5.8-4.1,8.6-6.7,8.6c-6.3,0-7.5-8.2-7.5-21.1
		c0-13.4,2.1-18.9,7.4-18.9c4.4,0,6.2,5.1,6.2,9.1H213.6z M261.9,493.9V485h-19.2v-45h-10.9v53.9H261.9z M276.1,467
		c0,16.4,2,28,18.3,28c16.3,0,18.3-11.6,18.3-28c0-16.4-2-28-18.3-28C278.2,439,276.1,450.6,276.1,467 M287,467
		c0-14.4,1.1-20,7.5-20c6.4,0,7.5,5.6,7.5,20c0,14.5-1.1,20-7.5,20C288.1,487,287,481.5,287,467 M329.8,493.9h18.3
		c12.7,0,16.8-7.3,16.8-15.8c0-7.2-3.8-11.7-9.8-12.5v-0.1c5.4-1.5,8.2-6,8.2-11.8c0-10.3-6.4-13.7-15.3-13.7h-18.2V493.9z
		 M340.7,448h3.9c5.4,0,7.9,1.9,7.9,7c0,5.1-2.7,7.1-8.7,7.1h-3.1V448z M340.7,469.7h4.7c4.8,0,8.3,1.8,8.3,8.1
		c0,6.3-3.5,8.1-8.8,8.1h-4.2V469.7z M378.5,493.9h11.3l2.5-11.4h14.3l2.5,11.4h11.3L406.2,440h-13.4L378.5,493.9z M399.4,449.4h0.1
		l5.2,24.2h-10.6L399.4,449.4z M464.9,493.9V485h-19.2v-45h-10.9v53.9H464.9z M178.7,532v1.7c0,7.9,3.8,12.4,13.6,12.4
		c9.3,0,14.8-4.1,14.8-13.1c0-5.2-1.7-8.5-8.1-11.3l-6.6-2.9c-3.7-1.6-4.4-3.2-4.4-5.8c0-2.5,1-5,4.9-5c3.3,0,4.7,2.3,4.7,6.3h8.3
		v-1.2c0-8.2-5.6-11.5-13.2-11.5c-8.1,0-13.2,4.2-13.2,12.6c0,7.1,3.5,10.3,11.2,12.9c5.7,2,7.7,3.4,7.7,7.3c0,3.6-2.5,5.3-5.1,5.3
		c-4.5,0-5.7-2.6-5.7-6.6V532H178.7z M209.2,502.6v7.1h9.3v35.6h8.6v-35.6h9.3v-7.1H209.2z M233.9,545.3h9l2-9h11.4l2,9h9
		l-11.3-42.7h-10.6L233.9,545.3z M250.4,510h0.1l4.1,19.2h-8.4L250.4,510z M270.1,502.6v42.7h7.9v-29.9h0.1l10.5,29.9h9.8v-42.7
		h-7.9v29.3h-0.1L280,502.6H270.1z M304.9,545.3h13.6c11.4,0,14.6-6.8,14.6-22c0-12.6-2.1-20.8-14.1-20.8h-14.1V545.3z M313.5,509
		h3.6c6.6,0,7.4,5,7.4,14.7c0,11.6-1.2,15.4-7.2,15.4h-3.8V509z M333.8,545.3h9l2-9h11.4l2,9h9l-11.3-42.7h-10.7L333.8,545.3z
		 M350.3,510h0.1l4.1,19.2h-8.4L350.3,510z M370,545.3h8.6v-18.1h4.6c3.5,0,5,2,5.1,5.4l0.2,8.2c0.1,1.7,0.2,3.3,1.1,4.5h9.3V545
		c-1.6-0.8-1.9-3.2-1.9-7.7c-0.1-9-1-12.3-6.9-13v-0.1c4.8-1,7.1-4.9,7.1-10.5c0-7.3-4.3-11-11.4-11H370V545.3z M378.6,509h4.1
		c3.9,0,6,2,6,5.9c0,4.6-2.3,6.4-6.5,6.4h-3.6V509z M403.7,545.3h13.6c11.4,0,14.7-6.8,14.7-22c0-12.6-2.2-20.8-14.1-20.8h-14.1
		V545.3z M412.3,509h3.7c6.6,0,7.4,5,7.4,14.7c0,11.6-1.2,15.4-7.2,15.4h-3.8V509z M435.9,532v1.7c0,7.9,3.8,12.4,13.6,12.4
		c9.3,0,14.8-4.1,14.8-13.1c0-5.2-1.7-8.5-8.1-11.3l-6.6-2.9c-3.7-1.6-4.4-3.2-4.4-5.8c0-2.5,1-5,4.9-5c3.3,0,4.7,2.3,4.7,6.3h8.3
		v-1.2c0-8.2-5.6-11.5-13.2-11.5c-8.1,0-13.2,4.2-13.2,12.6c0,7.1,3.5,10.3,11.2,12.9c5.7,2,7.7,3.4,7.7,7.3c0,3.6-2.5,5.3-5.1,5.3
		c-4.6,0-5.7-2.6-5.7-6.6V532H435.9z M455.5,97.1C343.9,149.5,305.6,190.6,263,234.3c-8.5-10.6-20.3-18.2-33.2-24.2
		c-14.2-6.6-29.4-11.3-39.5-13c-0.1,0,1.3,1.8,1.3,1.5c18.1,22,54.1,59.2,76.3,110.2c0,0.1,0.4,0.6,0.5,0.8
		c53.9-103.4,96.7-141,115-157.2C401.7,134.2,453,99,453,99L455.5,97.1 M179.4,427.1h44.5c34.2,0,37.7-19.9,37.7-29.9
		c0-13.7-8.7-23.9-22.3-25.6v-0.3c10.9-2.4,18.3-12.5,18.3-23.6c0-19.6-16.1-25.8-33.8-25.8h-44.5V427.1z M189.4,330.4h34.5
		c15.6,0,23.7,6.6,23.7,19.8c0,9.9-7.7,17.8-23.7,17.8h-34.5V330.4z M189.4,376.5h34.5c17.5,0,27.7,6.9,27.7,20.4
		c0,16.8-12.8,21.8-27.7,21.7h-34.5V376.5z M277.7,427.1h10v-46.7h38c19-0.7,20.2,15.6,21.1,30.4c0.3,4.4,0.3,12.2,2.8,16.4h11.1
		c-4.4-5.3-4.4-19.8-4.9-27c-0.7-12.5-4.7-22-18.4-23.7v-0.3c13.6-2.7,20.5-13.6,20.5-26.8c0-19-14.6-27.4-32-27.4h-48.2V427.1z
		 M287.7,330.4h37.4c15,0,22.7,8.1,22.7,20.9c0,12.8-10.5,20.5-22.7,20.5h-37.4V330.4z M463,353.7c-2.7-22.1-22.4-34.1-42.3-34.1
		c-33.2,0-49.7,26.1-49.7,54.8c0,28.7,16.5,54.8,49.7,54.8c24.6,0,41-16.5,43.8-42.3h-10c-1.9,18.7-14.3,33.8-33.8,33.8
		c-27.9,0-39.7-23.3-39.7-46.3c0-23,11.8-46.3,39.7-46.3c15.3,0,28.7,9.3,32.3,25.5H463z"/>
</g>
</svg>
