<?xml version="1.0" encoding="UTF-8"?>
<svg xmlns="http://www.w3.org/2000/svg" xmlns:xlink="http://www.w3.org/1999/xlink" width="296.98pt" height="303.88pt" viewBox="0 0 296.98 303.88" version="1.1">
<defs>
<clipPath id="clip1">
  <path d="M 0 0 L 296.980469 0 L 296.980469 234 L 0 234 Z M 0 0 "/>
</clipPath>
<clipPath id="clip2">
  <path d="M 0 233 L 296.980469 233 L 296.980469 303.878906 L 0 303.878906 Z M 0 233 "/>
</clipPath>
</defs>
<g id="surface1">
<path style=" stroke:none;fill-rule:nonzero;fill:rgb(0%,68.199158%,93.699646%);fill-opacity:1;" d="M 290.019531 296.914063 L 6.964844 296.914063 L 6.964844 233.65625 L 290.019531 233.65625 L 290.019531 296.914063 "/>
<g clip-path="url(#clip1)" clip-rule="nonzero">
<path style=" stroke:none;fill-rule:nonzero;fill:rgb(100%,100%,100%);fill-opacity:1;" d="M 296.984375 233.65625 L 0 233.65625 L 0 -0.00390625 L 296.984375 -0.00390625 L 296.984375 233.65625 "/>
</g>
<path style=" stroke:none;fill-rule:nonzero;fill:rgb(0%,68.199158%,93.699646%);fill-opacity:1;" d="M 148.476563 33.132813 C 206.679688 33.132813 258.289063 61.792969 290.019531 105.738281 L 290.019531 6.972656 L 6.972656 6.972656 L 6.972656 105.703125 C 38.671875 61.785156 90.289063 33.132813 148.476563 33.132813 "/>
<path style=" stroke:none;fill-rule:nonzero;fill:rgb(0%,68.199158%,93.699646%);fill-opacity:1;" d="M 148.476563 40.105469 C 89.550781 40.105469 37.527344 70.222656 6.972656 115.867188 L 6.972656 226.675781 L 290.019531 226.675781 L 290.019531 115.902344 C 259.46875 70.238281 207.425781 40.105469 148.476563 40.105469 "/>
<path style=" stroke:none;fill-rule:nonzero;fill:rgb(100%,100%,100%);fill-opacity:1;" d="M 148.476563 40.105469 C 207.425781 40.105469 259.46875 70.238281 290.019531 115.902344 L 290.019531 105.738281 C 258.289063 61.792969 206.679688 33.132813 148.476563 33.132813 C 90.289063 33.132813 38.671875 61.785156 6.972656 105.703125 L 6.972656 115.867188 C 37.527344 70.222656 89.550781 40.105469 148.476563 40.105469 "/>
<path style=" stroke:none;fill-rule:nonzero;fill:rgb(100%,100%,100%);fill-opacity:1;" d="M 34.851563 156.371094 C 34.253906 157.539063 33.816406 158.625 33.457031 159.675781 C 22.082031 163.074219 14.503906 160.054688 13.996094 159.835938 C 12.867188 159.367188 11.554688 159.890625 11.082031 161.019531 C 10.589844 162.15625 11.109375 163.453125 12.25 163.9375 C 12.785156 164.179688 20.667969 167.402344 32.4375 164.5625 C 32.433594 164.710938 32.410156 164.878906 32.410156 165.023438 C 32.410156 168.335938 33.800781 170.589844 35.628906 171.773438 C 40.738281 175.109375 51.992188 172.265625 68.316406 155.597656 C 67.265625 158.609375 66.316406 161.902344 65.710938 165.316406 C 65.683594 165.464844 65.675781 165.617188 65.675781 165.753906 C 65.675781 166.691406 66.226563 167.539063 67.101563 167.886719 C 68.867188 168.605469 69.882813 167.136719 70.773438 165.859375 L 73.035156 162.484375 C 75 159.535156 79.40625 152.898438 82.394531 149.429688 C 82.03125 151.335938 81.664063 153.488281 81.664063 155.527344 C 81.664063 158.285156 82.332031 160.808594 84.558594 162.113281 C 86.429688 163.195313 89.421875 163.582031 95.910156 159.710938 C 96.457031 161.214844 97.554688 161.925781 98.1875 162.222656 C 102.332031 164.144531 110.140625 159.988281 118.292969 152.191406 C 117.191406 154.65625 116.351563 156.710938 116.132813 157.570313 C 116.082031 157.808594 116.058594 158.039063 116.058594 158.242188 C 116.058594 159.277344 116.6875 160.027344 117.410156 160.355469 C 119.199219 161.144531 120.339844 159.574219 121.238281 158.292969 L 123.695313 154.742188 C 125.738281 151.734375 130.527344 144.683594 133.328125 141.753906 C 134.160156 143.78125 135.636719 146.339844 138.296875 147.832031 C 137.523438 149.582031 137.132813 151.089844 137.132813 152.355469 C 137.132813 153.914063 137.71875 155.089844 138.886719 155.882813 C 140.980469 157.308594 144.164063 156.527344 147.480469 154.722656 C 136.894531 165.230469 132.023438 175.695313 131.871094 180.34375 C 131.863281 180.429688 131.863281 180.523438 131.863281 180.609375 C 131.863281 183.199219 133.136719 184.238281 133.921875 184.625 C 135.527344 185.433594 137.492188 184.929688 139.769531 183.128906 C 147.742188 176.792969 153.550781 161.765625 156.515625 152.566406 C 160.492188 149.324219 165.152344 146.167969 170.503906 143.28125 C 168.765625 146.328125 167.78125 149.210938 167.78125 151.539063 C 167.78125 152.378906 167.910156 153.15625 168.152344 153.835938 C 168.765625 155.46875 170.085938 156.511719 171.761719 156.683594 C 175.441406 157.085938 180.527344 153.230469 186.53125 145.824219 C 186.019531 147.296875 185.511719 148.726563 185.003906 150.128906 C 168.339844 163.257813 160.847656 177.296875 159.890625 184.914063 C 159.804688 185.535156 159.761719 186.105469 159.761719 186.632813 C 159.761719 189.667969 160.984375 191.074219 162.109375 191.714844 C 163.375 192.433594 165.53125 192.78125 168.699219 190.359375 C 172.222656 187.667969 180.632813 174.492188 188.773438 152.785156 C 199.582031 144.480469 214.398438 136.539063 234.105469 131.089844 C 235.09375 130.8125 235.753906 129.917969 235.753906 128.929688 C 235.753906 128.738281 235.71875 128.535156 235.667969 128.34375 C 235.335938 127.148438 234.105469 126.460938 232.902344 126.785156 C 215.695313 131.554688 202.058594 138.21875 191.40625 145.445313 C 192.675781 141.675781 193.9375 137.691406 195.164063 133.503906 C 195.226563 133.292969 195.253906 133.085938 195.253906 132.875 C 195.253906 132.019531 194.753906 131.207031 193.9375 130.839844 C 192.925781 130.386719 191.730469 130.75 191.144531 131.679688 C 180.035156 149.121094 173.746094 152.285156 172.359375 152.257813 C 172.277344 152.105469 172.222656 151.890625 172.222656 151.578125 C 172.222656 149.589844 173.929688 144.621094 179.421875 138.796875 C 179.8125 138.375 180.035156 137.824219 180.035156 137.265625 C 180.035156 136.820313 179.890625 136.378906 179.625 135.992188 C 179.015625 135.132813 177.894531 134.800781 176.925781 135.210938 C 169.910156 138.175781 163.867188 141.6875 158.613281 145.410156 C 158.671875 145.199219 158.71875 145.03125 158.730469 144.960938 C 158.769531 144.777344 158.8125 144.601563 158.8125 144.421875 C 158.8125 143.609375 158.34375 142.835938 157.601563 142.449219 C 157.554688 142.433594 157.519531 142.433594 157.480469 142.414063 C 159.015625 141.210938 160.597656 139.878906 162.257813 138.347656 C 164.011719 136.710938 164.460938 135.234375 164.460938 134.136719 C 164.460938 133.65625 164.371094 133.257813 164.269531 132.945313 C 163.753906 131.367188 162.296875 130.328125 160.292969 130.085938 C 155.359375 129.511719 147.554688 133.6875 140.554688 143.988281 C 138.164063 142.710938 137.230469 139.59375 136.800781 138.167969 L 136.625 137.601563 C 136.335938 136.667969 135.484375 136.082031 134.496094 136.085938 C 132.988281 136.101563 131.363281 137.144531 128.820313 140.132813 C 128.855469 140.0625 128.890625 139.984375 128.933594 139.925781 C 129.074219 139.617188 129.140625 139.285156 129.140625 138.960938 C 129.140625 138.199219 128.75 137.464844 128.066406 137.046875 C 127.078125 136.453125 125.804688 136.703125 125.121094 137.621094 C 112.683594 154.375 101.792969 159.027344 100.089844 158.179688 C 100.078125 158.128906 100.039063 158.011719 100.039063 157.722656 C 100.039063 157.535156 100.074219 157.257813 100.128906 156.933594 C 102.910156 154.945313 106.191406 152.347656 110.078125 148.964844 C 113.683594 145.835938 114.511719 143.308594 114.511719 141.636719 C 114.511719 140.875 114.332031 140.296875 114.179688 139.921875 C 113.441406 138.199219 111.664063 137.242188 109.515625 137.429688 C 104.898438 137.828125 99.132813 143.230469 96.226563 154.226563 C 89.015625 159.148438 87.070313 158.402344 86.804688 158.25 C 85.824219 157.683594 85.902344 154.597656 87.023438 149.078125 C 87.511719 146.625 87.738281 145.511719 87.1875 144.492188 C 86.652344 143.488281 85.714844 142.894531 84.621094 142.84375 C 82.28125 142.730469 79.625 145.1875 74.105469 152.988281 C 76.296875 147.789063 78.425781 144.21875 78.46875 144.167969 C 78.691406 143.800781 78.789063 143.402344 78.789063 143.007813 C 78.789063 142.308594 78.464844 141.621094 77.847656 141.179688 C 76.902344 140.503906 75.585938 140.683594 74.832031 141.59375 C 55.214844 165.542969 41.875 170.519531 38.066406 168.042969 C 37.253906 167.507813 36.855469 166.472656 36.855469 165.082031 C 36.855469 164.507813 36.949219 163.863281 37.085938 163.171875 C 44.433594 160.558594 52.921875 155.535156 61.917969 146.320313 C 67.222656 140.894531 70.074219 135.804688 70.074219 131.941406 C 70.074219 131.070313 69.929688 130.265625 69.640625 129.53125 C 68.851563 127.527344 67.039063 126.304688 64.679688 126.183594 C 57.632813 125.855469 45.679688 135.054688 34.851563 156.371094 Z M 64.46875 130.644531 C 65.296875 130.6875 65.425781 131.007813 65.496094 131.164063 C 65.5625 131.367188 65.613281 131.632813 65.613281 131.941406 C 65.613281 133.882813 63.914063 137.898438 58.722656 143.207031 C 51.769531 150.332031 45.191406 154.753906 39.324219 157.441406 C 49.640625 137.585938 60.179688 130.441406 64.46875 130.644531 Z M 108.460938 142.351563 C 109.191406 141.960938 109.710938 141.878906 110.011719 141.878906 C 109.898438 142.410156 109.332031 143.699219 107.148438 145.605469 C 105.527344 147.003906 104.027344 148.269531 102.652344 149.386719 C 104.925781 144.621094 107.511719 142.851563 108.460938 142.351563 Z M 157.972656 134.675781 C 158.789063 134.488281 159.347656 134.484375 159.703125 134.53125 C 159.585938 134.683594 159.457031 134.855469 159.214844 135.070313 C 154.089844 139.824219 149.578125 142.851563 146.003906 144.023438 C 151.597656 136.761719 156.441406 135.042969 157.972656 134.675781 Z M 151.238281 146.605469 C 146.917969 150.425781 142.988281 152.1875 141.597656 152.191406 C 141.613281 151.769531 141.800781 150.800781 142.667969 148.996094 C 145.214844 149.089844 148.0625 148.308594 151.238281 146.605469 Z M 149.511719 158.957031 C 146.476563 166.761719 142.171875 175.519531 136.988281 179.628906 C 136.734375 179.832031 136.519531 179.988281 136.335938 180.117188 C 136.566406 176.890625 140.515625 168.222656 149.511719 158.957031 Z M 164.230469 186.625 C 164.230469 185.597656 164.460938 183.957031 165.296875 181.597656 C 167.34375 175.75 172.472656 167.429688 181.5625 158.910156 C 174.726563 175.3125 168.324219 185.015625 165.980469 186.832031 C 165.210938 187.410156 164.675781 187.667969 164.390625 187.75 C 164.304688 187.546875 164.230469 187.214844 164.230469 186.625 "/>
<path style=" stroke:none;fill-rule:nonzero;fill:rgb(100%,100%,100%);fill-opacity:1;" d="M 228.125 80.867188 C 226.742188 80.867188 225.515625 81.707031 225.003906 82.996094 C 225.003906 82.996094 212.753906 114.417969 211.347656 118.007813 C 207.503906 118.21875 173.992188 119.984375 173.992188 119.984375 C 172.214844 120.082031 170.820313 121.558594 170.820313 123.320313 C 170.820313 123.375 170.828125 123.4375 170.828125 123.5 C 170.925781 125.335938 172.492188 126.75 174.351563 126.664063 L 213.855469 124.566406 C 215.160156 124.503906 216.316406 123.667969 216.796875 122.449219 C 216.796875 122.449219 224.277344 103.226563 228.117188 93.398438 C 231.9375 103.210938 239.386719 122.332031 239.386719 122.332031 C 239.859375 123.550781 241.003906 124.375 242.296875 124.453125 C 242.296875 124.453125 262.699219 125.621094 273.125 126.226563 C 265.085938 132.898438 249.316406 146.011719 249.316406 146.011719 C 248.53125 146.65625 248.097656 147.59375 248.097656 148.574219 C 248.097656 148.855469 248.128906 149.132813 248.199219 149.402344 C 248.199219 149.402344 253.261719 169.195313 255.871094 179.339844 C 247.089844 173.675781 229.980469 162.636719 229.980469 162.636719 C 228.890625 161.925781 227.472656 161.925781 226.375 162.617188 C 226.375 162.617188 209.078125 173.636719 200.117188 179.328125 C 202.851563 169.476563 207.761719 151.738281 207.761719 151.738281 C 207.824219 151.449219 207.871094 151.140625 207.871094 150.851563 C 207.871094 149.382813 206.90625 148.046875 205.417969 147.632813 C 203.640625 147.140625 201.789063 148.183594 201.304688 149.964844 L 191.367188 185.929688 C 191 187.25 191.484375 188.679688 192.597656 189.5 C 193.710938 190.320313 195.21875 190.359375 196.386719 189.625 C 196.386719 189.625 224.90625 171.46875 228.152344 169.40625 C 231.363281 171.484375 259.414063 189.574219 259.414063 189.574219 C 260.574219 190.320313 262.058594 190.285156 263.183594 189.484375 C 264.0625 188.839844 264.578125 187.832031 264.578125 186.773438 C 264.578125 186.5 264.53125 186.207031 264.460938 185.945313 C 264.460938 185.945313 256.132813 153.464844 255.199219 149.796875 C 258.101563 147.375 283.910156 125.941406 283.910156 125.941406 C 284.683594 125.292969 285.121094 124.347656 285.121094 123.375 C 285.121094 123.019531 285.0625 122.671875 284.945313 122.332031 C 284.527344 121.027344 283.34375 120.121094 281.972656 120.042969 C 281.972656 120.042969 248.667969 118.128906 244.828125 117.90625 C 243.425781 114.332031 231.234375 82.996094 231.234375 82.996094 C 230.738281 81.710938 229.496094 80.867188 228.125 80.867188 "/>
<g clip-path="url(#clip2)" clip-rule="nonzero">
<path style=" stroke:none;fill-rule:nonzero;fill:rgb(100%,100%,100%);fill-opacity:1;" d="M 290.019531 233.65625 L 290.019531 296.914063 L 6.964844 296.914063 L 6.964844 233.65625 L 0 233.65625 L 0 303.878906 L 296.984375 303.878906 L 296.984375 233.65625 L 290.019531 233.65625 "/>
</g>
<path style=" stroke:none;fill-rule:nonzero;fill:rgb(100%,100%,100%);fill-opacity:1;" d="M 19.171875 282.984375 L 19.171875 247.585938 L 37.410156 247.585938 L 37.410156 251.511719 L 23.679688 251.511719 L 23.679688 262.886719 L 36.429688 262.886719 L 36.429688 266.8125 L 23.679688 266.8125 L 23.679688 279.0625 L 37.707031 279.0625 L 37.707031 282.984375 L 19.171875 282.984375 "/>
<path style=" stroke:none;fill-rule:nonzero;fill:rgb(100%,100%,100%);fill-opacity:1;" d="M 67.625 247.585938 L 67.625 282.984375 L 61.445313 282.984375 L 47.472656 252.296875 L 47.375 252.296875 L 47.375 282.984375 L 43.355469 282.984375 L 43.355469 247.585938 L 49.726563 247.585938 L 63.507813 277.886719 L 63.601563 277.886719 L 63.601563 247.585938 L 67.625 247.585938 "/>
<path style=" stroke:none;fill-rule:nonzero;fill:rgb(100%,100%,100%);fill-opacity:1;" d="M 73.882813 282.984375 L 73.882813 247.585938 L 92.125 247.585938 L 92.125 251.511719 L 78.394531 251.511719 L 78.394531 262.886719 L 91.144531 262.886719 L 91.144531 266.8125 L 78.394531 266.8125 L 78.394531 279.0625 L 92.417969 279.0625 L 92.417969 282.984375 L 73.882813 282.984375 "/>
<path style=" stroke:none;fill-rule:nonzero;fill:rgb(100%,100%,100%);fill-opacity:1;" d="M 102.355469 251.511719 L 109.175781 251.511719 C 112.652344 251.511719 113.933594 254.351563 113.933594 256.902344 C 113.933594 259.996094 112.359375 262.785156 109.121094 262.785156 L 102.355469 262.785156 Z M 107.648438 266.710938 C 109.175781 266.710938 112.652344 266.902344 112.996094 271.222656 C 113.386719 275.925781 113.097656 280.539063 114.371094 282.984375 L 119.078125 282.984375 C 118.386719 280.789063 117.898438 275.238281 117.851563 273.71875 C 117.609375 266.605469 116.140625 265.242188 112.066406 264.601563 L 112.066406 264.5 C 116.230469 263.765625 118.539063 260.585938 118.539063 256.414063 C 118.539063 252.003906 116.332031 247.585938 110.050781 247.585938 L 97.847656 247.585938 L 97.847656 282.984375 L 102.355469 282.984375 L 102.355469 266.710938 L 107.648438 266.710938 "/>
<path style=" stroke:none;fill-rule:nonzero;fill:rgb(100%,100%,100%);fill-opacity:1;" d="M 140.378906 257.050781 C 140.378906 252.878906 138.664063 250.625 134.097656 250.625 C 132.679688 250.625 127.582031 250.871094 127.582031 258.277344 L 127.582031 270.242188 C 127.582031 277.992188 129.839844 279.949219 134.097656 279.949219 C 137.339844 279.949219 139.492188 279.0625 140.433594 278.378906 L 140.433594 267.789063 L 133.90625 267.789063 L 133.90625 263.867188 L 144.941406 263.867188 L 144.941406 281.082031 C 142.046875 282.648438 138.664063 283.726563 134.097656 283.726563 C 126.601563 283.726563 122.972656 279.84375 122.972656 270.042969 L 122.972656 258.421875 C 122.972656 251.363281 126.601563 246.851563 134.097656 246.851563 C 141.753906 246.851563 145.386719 249.644531 145.085938 257.050781 L 140.378906 257.050781 "/>
<path style=" stroke:none;fill-rule:nonzero;fill:rgb(100%,100%,100%);fill-opacity:1;" d="M 166.550781 247.585938 L 171.105469 247.585938 L 161.453125 269.496094 L 161.453125 282.984375 L 156.945313 282.984375 L 156.945313 269.496094 L 147.429688 247.585938 L 152.480469 247.585938 L 159.394531 264.695313 L 166.550781 247.585938 "/>
<path style=" stroke:none;fill-rule:nonzero;fill:rgb(100%,100%,100%);fill-opacity:1;" d="M 186.34375 272.445313 L 186.34375 273.472656 C 186.34375 278.28125 189.390625 279.800781 192.28125 279.800781 C 195.863281 279.800781 198.605469 278.28125 198.605469 274.0625 C 198.605469 266.21875 182.71875 267.105469 182.71875 256.457031 C 182.71875 250.1875 187.179688 246.851563 193.121094 246.851563 C 199.59375 246.851563 203.222656 249.988281 202.921875 257.199219 L 198.214844 257.199219 C 198.261719 253.320313 197.039063 250.773438 192.777344 250.773438 C 190.074219 250.773438 187.332031 252.144531 187.332031 255.972656 C 187.332031 263.765625 203.222656 262.644531 203.222656 273.867188 C 203.222656 281.320313 198.070313 283.726563 192.230469 283.726563 C 181.785156 283.816406 181.785156 275.828125 181.886719 272.445313 L 186.34375 272.445313 "/>
<path style=" stroke:none;fill-rule:nonzero;fill:rgb(100%,100%,100%);fill-opacity:1;" d="M 228.394531 247.585938 L 228.394531 251.511719 L 219.082031 251.511719 L 219.082031 282.984375 L 214.566406 282.984375 L 214.566406 251.511719 L 205.253906 251.511719 L 205.253906 247.585938 L 228.394531 247.585938 "/>
<path style=" stroke:none;fill-rule:nonzero;fill:rgb(100%,100%,100%);fill-opacity:1;" d="M 244.3125 270.632813 L 232.984375 270.632813 L 238.523438 251.757813 L 238.617188 251.757813 Z M 224.652344 282.984375 L 229.210938 282.984375 L 231.859375 274.550781 L 245.542969 274.550781 L 248.085938 282.984375 L 253.136719 282.984375 L 241.617188 247.585938 L 235.878906 247.585938 L 224.652344 282.984375 "/>
<path style=" stroke:none;fill-rule:nonzero;fill:rgb(100%,100%,100%);fill-opacity:1;" d="M 261.125 251.511719 L 267.941406 251.511719 C 271.421875 251.511719 272.695313 254.351563 272.695313 256.902344 C 272.695313 259.996094 271.117188 262.785156 267.890625 262.785156 L 261.125 262.785156 Z M 266.417969 266.710938 C 267.941406 266.710938 271.421875 266.902344 271.765625 271.222656 C 272.15625 275.925781 271.859375 280.539063 273.140625 282.984375 L 277.84375 282.984375 C 277.152344 280.789063 276.675781 275.238281 276.621094 273.71875 C 276.378906 266.605469 274.902344 265.242188 270.835938 264.601563 L 270.835938 264.5 C 274.992188 263.765625 277.300781 260.585938 277.300781 256.414063 C 277.300781 252.003906 275.097656 247.585938 268.820313 247.585938 L 256.609375 247.585938 L 256.609375 282.984375 L 261.125 282.984375 L 261.125 266.710938 L 266.417969 266.710938 "/>
</g>
</svg>
