<?xml version="1.0" encoding="utf-8"?>
<!-- Generator: Adobe Illustrator 27.5.0, SVG Export Plug-In . SVG Version: 6.00 Build 0)  -->
<svg version="1.1" id="_x2018_ëîé_x5F_1" xmlns="http://www.w3.org/2000/svg" xmlns:xlink="http://www.w3.org/1999/xlink"
	 x="0px" y="0px" viewBox="0 0 2286.424 2000" style="enable-background:new 0 0 2286.424 2000;" xml:space="preserve">
<rect style="fill:#FFFFFF;" width="2286.424" height="2000"/>
<g>
	<g>
		<g>
			<linearGradient id="SVGID_1_" gradientUnits="userSpaceOnUse" x1="1143.2119" y1="311.6006" x2="1143.2119" y2="1654.2399">
				<stop  offset="0" style="stop-color:#A7D63F"/>
				<stop  offset="0.0738" style="stop-color:#9FD340"/>
				<stop  offset="1" style="stop-color:#39B54A"/>
			</linearGradient>
			<path style="fill:url(#SVGID_1_);" d="M1143.212,315.906c-374.638,0-678.342,306.279-678.342,684.094
				s303.704,684.094,678.342,684.094s678.342-306.279,678.342-684.094S1517.85,315.906,1143.212,315.906z M1143.212,1477.84
				c-261.685,0-473.823-213.937-473.823-477.84c0-263.904,212.138-477.841,473.823-477.841S1617.035,736.096,1617.035,1000
				C1617.035,1263.904,1404.897,1477.84,1143.212,1477.84z"/>
			
				<linearGradient id="SVGID_00000141423380178903483680000013181097570876103311_" gradientUnits="userSpaceOnUse" x1="1143.2119" y1="859.1443" x2="1143.2119" y2="1158.272">
				<stop  offset="0" style="stop-color:#285910"/>
				<stop  offset="1" style="stop-color:#09210C"/>
			</linearGradient>
			<polygon style="fill:url(#SVGID_00000141423380178903483680000013181097570876103311_);" points="2033.412,836.203 
				253.011,836.203 380.762,1000 253.011,1163.797 2033.412,1163.797 1905.661,1000 			"/>
			<g>
				
					<linearGradient id="SVGID_00000085952775659419010600000014918146495162030517_" gradientUnits="userSpaceOnUse" x1="1143.2122" y1="311.6003" x2="1143.2122" y2="1654.2393">
					<stop  offset="0" style="stop-color:#A7D63F"/>
					<stop  offset="0.0738" style="stop-color:#9FD340"/>
					<stop  offset="1" style="stop-color:#39B54A"/>
				</linearGradient>
				<polygon style="fill:url(#SVGID_00000085952775659419010600000014918146495162030517_);" points="1143.212,1259.15 
					1166.728,1307.529 1219.311,1315.287 1181.261,1352.945 1190.243,1406.12 1143.212,1381.014 1096.181,1406.12 
					1105.162,1352.945 1067.114,1315.287 1119.696,1307.529 				"/>
				<g>
					
						<linearGradient id="SVGID_00000037653441337293355130000000127800743206125231_" gradientUnits="userSpaceOnUse" x1="1366.1143" y1="311.5628" x2="1366.1143" y2="1654.199">
						<stop  offset="0" style="stop-color:#A7D63F"/>
						<stop  offset="0.0738" style="stop-color:#9FD340"/>
						<stop  offset="1" style="stop-color:#39B54A"/>
					</linearGradient>
					<polygon style="fill:url(#SVGID_00000037653441337293355130000000127800743206125231_);" points="1366.114,1224.245 
						1382.34,1257.627 1418.622,1262.979 1392.368,1288.964 1398.566,1325.654 1366.114,1308.331 1333.662,1325.654 
						1339.86,1288.964 1313.607,1262.979 1349.889,1257.627 					"/>
					
						<linearGradient id="SVGID_00000145768969161297069280000007479456231368102078_" gradientUnits="userSpaceOnUse" x1="920.3095" y1="311.5628" x2="920.3095" y2="1654.199">
						<stop  offset="0" style="stop-color:#A7D63F"/>
						<stop  offset="0.0738" style="stop-color:#9FD340"/>
						<stop  offset="1" style="stop-color:#39B54A"/>
					</linearGradient>
					<polygon style="fill:url(#SVGID_00000145768969161297069280000007479456231368102078_);" points="920.309,1224.245 
						936.535,1257.627 972.817,1262.979 946.563,1288.964 952.762,1325.654 920.309,1308.331 887.858,1325.654 894.056,1288.964 
						867.802,1262.979 904.084,1257.627 					"/>
				</g>
			</g>
			<g>
				<path style="fill:#FFFFFF;" d="M566.64,948.453h-53.164v30.781h48.433v40.553h-48.433v72.313h-44.153V907.9h97.317V948.453z"/>
				<path style="fill:#FFFFFF;" d="M690.088,1060.096h-63.075l-10.138,32.004h-47.081l64.652-184.2h48.208l64.652,184.2h-47.081
					L690.088,1060.096z M678.375,1023.696l-19.823-61.319l-19.824,61.319H678.375z"/>
				<path style="fill:#FFFFFF;" d="M810.83,907.9v184.2h-44.153V907.9H810.83z"/>
				<path style="fill:#FFFFFF;" d="M987.665,1092.1h-54.966l-42.126-70.846v70.846H846.42V907.9h68.707
					c9.462,0,17.719,1.508,24.78,4.519c7.058,3.015,12.876,7.127,17.459,12.336c4.58,5.216,8.032,11.238,10.363,18.079
					c2.326,6.839,3.492,14.168,3.492,21.986c0,14.009-3.119,25.369-9.349,34.08c-6.233,8.715-15.43,14.619-27.595,17.711
					L987.665,1092.1z M890.573,990.228h8.335c8.708,0,15.392-1.954,20.049-5.863c4.653-3.909,6.983-9.528,6.983-16.857
					c0-7.329-2.33-12.948-6.983-16.857c-4.657-3.909-11.341-5.863-20.049-5.863h-8.335V990.228z"/>
				<path style="fill:#FFFFFF;" d="M1147.154,948.453V1092.1h-44.153V948.453h-36.268V907.9h116.69v40.553H1147.154z"/>
				<path style="fill:#FFFFFF;" d="M1344.266,1092.1h-54.966l-42.126-70.846v70.846h-44.153V907.9h68.707
					c9.462,0,17.719,1.508,24.779,4.519c7.058,3.015,12.876,7.127,17.459,12.336c4.58,5.216,8.032,11.238,10.363,18.079
					c2.326,6.839,3.492,14.168,3.492,21.986c0,14.009-3.119,25.369-9.349,34.08c-6.233,8.715-15.43,14.619-27.595,17.711
					L1344.266,1092.1z M1247.173,990.228h8.336c8.708,0,15.392-1.954,20.049-5.863c4.653-3.909,6.984-9.528,6.984-16.857
					c0-7.329-2.331-12.948-6.984-16.857c-4.657-3.909-11.341-5.863-20.049-5.863h-8.336V990.228z"/>
				<path style="fill:#FFFFFF;" d="M1466.811,1060.096h-63.075l-10.138,32.004h-47.081l64.652-184.2h48.208l64.652,184.2h-47.081
					L1466.811,1060.096z M1455.098,1023.696l-19.823-61.319l-19.824,61.319H1455.098z"/>
				<path style="fill:#FFFFFF;" d="M1543.401,907.9h65.328c11.563,0,22.415,2.525,32.551,7.573
					c10.138,5.048,18.997,11.767,26.583,20.153c7.581,8.39,13.551,18.162,17.909,29.315c4.354,11.159,6.532,22.842,6.532,35.058
					c0,12.055-2.14,23.659-6.42,34.812c-4.28,11.157-10.215,20.97-17.796,29.437c-7.585,8.471-16.445,15.232-26.582,20.278
					c-10.138,5.05-21.063,7.573-32.777,7.573h-65.328V907.9z M1587.554,1051.547h10.138c7.659,0,14.491-1.303,20.499-3.909
					c6.005-2.604,11.074-6.188,15.205-10.75c4.13-4.558,7.283-9.974,9.462-16.245c2.176-6.268,3.267-13.151,3.267-20.643
					c0-7.329-1.126-14.171-3.379-20.522c-2.253-6.351-5.445-11.807-9.574-16.369c-4.133-4.556-9.2-8.142-15.205-10.748
					c-6.008-2.604-12.766-3.909-20.274-3.909h-10.138V1051.547z"/>
				<path style="fill:#FFFFFF;" d="M1817.101,948.453h-52.488v30.781h49.559v40.553h-49.559v31.76h52.488v40.553h-96.639V907.9
					h96.639V948.453z"/>
			</g>
		</g>
		<g>
			
				<linearGradient id="SVGID_00000005260581994001300560000004161374424193290381_" gradientUnits="userSpaceOnUse" x1="1068.2612" y1="764.3228" x2="1178.9308" y2="566.1811">
				<stop  offset="0" style="stop-color:#A7D63F"/>
				<stop  offset="0.0738" style="stop-color:#9FD340"/>
				<stop  offset="1" style="stop-color:#39B54A"/>
			</linearGradient>
			<polygon style="fill:url(#SVGID_00000005260581994001300560000004161374424193290381_);" points="1261.965,624.528 
				1199.244,581.367 1090.725,719.679 1038.613,654.299 1002.331,675.353 1091.062,772.774 			"/>
			
				<linearGradient id="SVGID_00000114044454414596650640000005709462553929724552_" gradientUnits="userSpaceOnUse" x1="1208.2021" y1="577.2596" x2="1274.114" y2="626.3992">
				<stop  offset="0" style="stop-color:#A7D63F"/>
				<stop  offset="0.0738" style="stop-color:#9FD340"/>
				<stop  offset="1" style="stop-color:#39B54A"/>
			</linearGradient>
			<polygon style="fill:url(#SVGID_00000114044454414596650640000005709462553929724552_);" points="1221.372,579.892 
				1199.244,581.367 1261.965,624.528 1284.093,623.052 			"/>
			
				<linearGradient id="SVGID_00000129181980475002300620000014290521924055315387_" gradientUnits="userSpaceOnUse" x1="1048.4856" y1="649.684" x2="1097.9008" y2="717.0416">
				<stop  offset="0" style="stop-color:#4FAD1F"/>
				<stop  offset="1" style="stop-color:#20782C"/>
			</linearGradient>
			<polygon style="fill:url(#SVGID_00000129181980475002300620000014290521924055315387_);" points="1060.741,652.824 
				1038.613,654.299 1090.725,719.679 1102.285,704.945 			"/>
			
				<linearGradient id="SVGID_00000060715219627416915290000017397966912736922545_" gradientUnits="userSpaceOnUse" x1="1273.8326" y1="620.1364" x2="1101.989" y2="775.0879">
				<stop  offset="0" style="stop-color:#20782C"/>
				<stop  offset="1" style="stop-color:#4FAD1F"/>
			</linearGradient>
			<polygon style="fill:url(#SVGID_00000060715219627416915290000017397966912736922545_);" points="1091.062,772.774 
				1113.189,771.299 1284.093,623.052 1261.965,624.528 			"/>
		</g>
	</g>
	<g>
		<path style="fill:#FFFFFF;" d="M734.184,579.102c-11.107-0.399-20.091,3.288-26.938,11.061c-3.014,3.422-5.181,7.138-6.504,11.147
			c-1.326,4.012-1.842,8.007-1.552,11.989c0.287,3.983,1.376,7.879,3.269,11.684c1.893,3.81,4.547,7.219,7.969,10.231
			c3.498,3.083,7.255,5.322,11.27,6.72c4.015,1.399,8.056,1.987,12.114,1.767c4.06-0.22,7.979-1.219,11.757-3.003
			c3.775-1.778,7.138-4.341,10.082-7.683c6.435-7.305,9.119-16.616,8.032-27.924l27.049,23.832l-1.235,3.05
			c-1.837,4.595-3.802,8.666-5.889,12.211c-2.087,3.544-4.433,6.794-7.034,9.747c-5.341,6.063-11.611,10.862-18.796,14.402
			c-7.188,3.54-14.731,5.594-22.625,6.167c-7.886,0.574-15.822-0.375-23.796-2.845c-7.971-2.467-15.34-6.682-22.103-12.638
			c-6.762-5.958-11.848-12.683-15.261-20.175c-3.41-7.488-5.287-15.151-5.636-22.983c-0.351-7.833,0.796-15.557,3.432-23.174
			c2.641-7.617,6.661-14.497,12.071-20.637c3.083-3.499,6.483-6.613,10.199-9.344c3.719-2.732,7.995-5.275,12.838-7.638
			L734.184,579.102z"/>
		<polygon style="fill:#FFFFFF;" points="824.076,492.363 794.59,513.375 805.956,529.321 833.793,509.48 848.766,530.488 
			820.923,550.327 832.648,566.78 862.134,545.768 877.104,566.775 822.814,605.463 754.817,510.043 809.108,471.355 		"/>
		<path style="fill:#FFFFFF;" d="M1003.593,509.432l-35.159,14.192l-43.817-30.912l16.869,41.788l-28.245,11.399l-43.854-108.652
			l43.95-17.738c6.052-2.443,11.693-3.686,16.93-3.733c5.229-0.043,9.931,0.88,14.1,2.77c4.175,1.893,7.817,4.555,10.937,7.987
			c3.115,3.436,5.607,7.458,7.468,12.067c3.337,8.265,4.044,15.771,2.133,22.517c-1.912,6.75-6.39,12.606-13.434,17.571
			L1003.593,509.432z M917.231,474.41l5.33-2.152c5.572-2.25,9.382-5.126,11.432-8.635c2.045-3.506,2.197-7.421,0.453-11.746
			c-1.747-4.324-4.574-7.034-8.482-8.139c-3.908-1.102-8.647-0.53-14.22,1.717l-5.333,2.152L917.231,474.41z"/>
		<polygon style="fill:#FFFFFF;" points="1065.873,406.344 1079.981,496.623 1049.886,501.325 1035.781,411.046 1011.063,414.91 
			1007.078,389.424 1086.61,376.995 1090.59,402.483 		"/>
		
			<rect x="1097.422" y="419.184" transform="matrix(0.0218 -0.9998 0.9998 0.0218 696.4818 1580.6671)" style="fill:#FFFFFF;" width="117.169" height="30.455"/>
		<polygon style="fill:#FFFFFF;" points="1299.534,420.982 1263.603,413.627 1259.679,432.809 1292.41,439.509 1287.239,464.783 
			1254.509,458.083 1245.286,503.146 1215.447,497.039 1238.939,382.25 1304.704,395.711 		"/>
		
			<rect x="1295.745" y="459.825" transform="matrix(0.3738 -0.9275 0.9275 0.3738 407.4835 1553.649)" style="fill:#FFFFFF;" width="117.168" height="30.458"/>
		<polygon style="fill:#FFFFFF;" points="1493.058,513.21 1462.497,493.789 1451.996,510.313 1480.851,528.647 1467.015,550.421 
			1438.163,532.086 1427.327,549.134 1457.883,568.555 1444.047,590.327 1387.786,554.571 1450.628,455.679 1506.894,491.437 		"/>
		<path style="fill:#FFFFFF;" d="M1562.114,534.515l31.078,32.638c5.5,5.775,9.499,12.304,11.994,19.582
			c2.497,7.279,3.618,14.654,3.363,22.12c-0.258,7.467-1.92,14.737-4.984,21.807c-3.07,7.067-7.417,13.282-13.04,18.641
			c-5.554,5.287-11.919,9.307-19.089,12.062c-7.178,2.758-14.521,4.099-22.028,4.026c-7.51-0.074-14.84-1.536-21.986-4.386
			c-7.151-2.849-13.509-7.2-19.081-13.052l-31.078-32.635L1562.114,534.515z M1516.947,619.585l4.824,5.063
			c3.642,3.827,7.492,6.668,11.549,8.526c4.057,1.857,8.12,2.818,12.188,2.882c4.063,0.063,8.056-0.737,11.983-2.401
			c3.922-1.663,7.612-4.135,11.062-7.421c3.376-3.216,5.99-6.78,7.849-10.691c1.85-3.911,2.846-7.898,2.982-11.963
			c0.133-4.061-0.623-8.167-2.284-12.311c-1.656-4.143-4.268-8.092-7.843-11.842l-4.822-5.064L1516.947,619.585z"/>
	</g>
	<g>
		<path style="fill:#FFFFFF;" d="M774.769,1426.956c1.171-11.054-1.879-20.267-9.151-27.643c-3.201-3.247-6.754-5.671-10.663-7.274
			c-3.908-1.603-7.859-2.399-11.85-2.391c-3.993,0.011-7.955,0.825-11.882,2.444c-3.935,1.621-7.521,4.031-10.767,7.234
			c-3.32,3.272-5.817,6.864-7.495,10.769c-1.675,3.908-2.545,7.896-2.609,11.959c-0.067,4.065,0.655,8.046,2.17,11.938
			c1.51,3.892,3.831,7.426,6.959,10.599c6.836,6.931,15.934,10.258,27.289,9.97l-25.668,25.314l-2.961-1.451
			c-4.449-2.156-8.373-4.398-11.765-6.73c-3.389-2.33-6.466-4.899-9.23-7.702c-5.672-5.752-10.024-12.343-13.046-19.76
			c-3.03-7.42-4.547-15.085-4.566-22.995c-0.021-7.912,1.483-15.758,4.502-23.541c3.027-7.779,7.745-14.835,14.161-21.163
			c6.419-6.328,13.482-10.932,21.195-13.807c7.71-2.878,15.484-4.214,23.322-4.012c7.838,0.2,15.466,1.885,22.878,5.048
			c7.412,3.168,13.992,7.663,19.739,13.49c3.274,3.32,6.142,6.93,8.605,10.828c2.463,3.9,4.702,8.349,6.72,13.344L774.769,1426.956z
			"/>
		<polygon style="fill:#FFFFFF;" points="872.549,1478.598 842.201,1458.854 831.522,1475.264 860.177,1493.909 846.109,1515.53 
			817.454,1496.888 806.438,1513.821 836.788,1533.567 822.718,1555.188 766.841,1518.831 830.74,1420.622 886.617,1456.977 		"/>
		<path style="fill:#FFFFFF;" d="M970.087,1618.531l-35.516-13.274l-11.445-52.384l-15.774,42.214l-28.532-10.665l41.019-109.753
			l44.397,16.592c6.113,2.284,11.113,5.178,15.005,8.679c3.89,3.498,6.733,7.354,8.533,11.565c1.8,4.212,2.689,8.634,2.67,13.275
			c-0.021,4.638-0.897,9.286-2.638,13.943c-3.122,8.347-7.665,14.363-13.631,18.048c-5.969,3.687-13.226,4.984-21.775,3.89
			L970.087,1618.531z M930.035,1534.385l5.386,2.013c5.628,2.103,10.383,2.553,14.262,1.347c3.876-1.203,6.632-3.988,8.264-8.357
			c1.635-4.366,1.376-8.277-0.759-11.728c-2.138-3.456-6.022-6.235-11.648-8.338l-5.386-2.01L930.035,1534.385z"/>
		<polygon style="fill:#FFFFFF;" points="1080.093,1545.335 1066.962,1635.759 1036.822,1631.379 1049.952,1540.955 
			1025.198,1537.358 1028.904,1511.832 1108.564,1523.402 1104.855,1548.932 		"/>
		
			<rect x="1141.559" y="1522.844" transform="matrix(0.9997 -0.0236 0.0236 0.9997 -36.943 27.6972)" style="fill:#FFFFFF;" width="30.459" height="117.168"/>
		<polygon style="fill:#FFFFFF;" points="1283.874,1531.621 1247.879,1538.652 1251.63,1557.866 1284.423,1551.466 
			1289.369,1576.782 1256.577,1583.185 1265.392,1628.331 1235.499,1634.169 1213.042,1519.172 1278.927,1506.305 		"/>
		
			<rect x="1332.932" y="1485.526" transform="matrix(0.9356 -0.353 0.353 0.9356 -458.2968 575.3356)" style="fill:#FFFFFF;" width="30.459" height="117.168"/>
		<polygon style="fill:#FFFFFF;" points="1451.174,1455.395 1419.949,1473.728 1429.867,1490.613 1459.347,1473.302 
			1472.408,1495.546 1442.926,1512.857 1453.157,1530.279 1484.376,1511.944 1497.44,1534.188 1439.954,1567.943 1380.624,1466.907 
			1438.112,1433.151 		"/>
		<path style="fill:#FFFFFF;" d="M1468.801,1412.087l32.646-31.072c5.777-5.498,12.305-9.494,19.582-11.991
			c7.281-2.495,14.656-3.613,22.121-3.354c7.468,0.258,14.736,1.922,21.805,4.989c7.071,3.072,13.283,7.417,18.639,13.046
			c5.287,5.554,9.305,11.919,12.058,19.094c2.756,7.175,4.095,14.521,4.02,22.026c-0.077,7.51-1.539,14.84-4.39,21.986
			c-2.849,7.146-7.204,13.506-13.059,19.076l-32.64,31.072L1468.801,1412.087z M1553.86,1457.272l5.064-4.822
			c3.828-3.642,6.669-7.492,8.53-11.549c1.858-4.057,2.817-8.117,2.883-12.185c0.064-4.063-0.737-8.059-2.396-11.986
			c-1.667-3.922-4.137-7.612-7.423-11.065c-3.211-3.376-6.776-5.993-10.689-7.846c-3.908-1.856-7.896-2.851-11.962-2.99
			c-4.06-0.136-8.166,0.626-12.308,2.279c-4.145,1.659-8.096,4.27-11.847,7.841l-5.064,4.822L1553.86,1457.272z"/>
	</g>
</g>
</svg>
