<?xml version="1.0" encoding="utf-8"?>
<!-- Generator: Adobe Illustrator 26.0.3, SVG Export Plug-In . SVG Version: 6.00 Build 0)  -->
<svg version="1.1" id="Слой_1" xmlns="http://www.w3.org/2000/svg" xmlns:xlink="http://www.w3.org/1999/xlink" x="0px" y="0px"
	 viewBox="0 0 500 500" style="enable-background:new 0 0 500 500;" xml:space="preserve">
<style type="text/css">
	.st0{fill:#FFFFFF;}
</style>
<g>
	<path d="M250.2,25.1C375.8,25.4,475,127.3,475,250.1c0,122.7-99.4,225-225.4,224.8c-126-0.2-225-102.8-224.6-225.5
		C25.4,127,124.5,25.2,250.2,25.1z M399.7,250.1c-0.2-82.9-66.8-149-148.2-149.7c-84.1-0.8-150.9,67.3-151.2,149
		c-0.4,81.1,64.8,149.7,148.8,150.3C332.2,400.2,399.5,333.3,399.7,250.1z M368.2,427.6c0.7-0.2,1-0.3,1.2-0.4
		c4.5-3.5,9.2-6.8,13.5-10.5c6.8-5.8,8.9-13.5,6.9-22.1c-3.5-15.4-22-22.1-34.8-12.8c-4.3,3.1-8.5,6.5-12.7,9.7
		c-0.4,0.3-0.6,0.7-1,1.2C350.3,404.5,359.2,416,368.2,427.6z M374,78.6c-0.6,0.6-1.2,1.1-1.7,1.7c-8.6,10.2-17.1,20.4-25.7,30.6
		c-0.4,0.4-0.6,1-0.9,1.4c2,2.1,12.8,11.2,14.7,12.5c11.4,7.5,27.8,2.7,32.8-10.7c3.6-9.4,0.2-19.6-6.2-24.9
		c-3.7-3-7.4-6.2-11.1-9.3C375.4,79.5,374.7,79.1,374,78.6z M196.9,433.3c1.3-0.2,2.4-0.4,3.5-0.5c3.7-0.5,6.4-2.4,8.1-5.6
		c0.9-1.8,1.6-3.7,2-5.7c1-5.2-0.8-9.5-5.1-12.6c-1.5-1.1-3.3-1.9-5-2.6c-5-1.9-10-3.6-15-5.4c-0.6-0.2-1.2-0.2-1.8-0.2
		c-0.3,0.6-0.6,1.1-0.7,1.5c-4.6,12.6-9.1,25.3-13.6,37.9c-0.2,0.7-0.3,1.4-0.5,2.2c3.6,1.5,7,2.8,10.8,3.8c0.6-1.6,1.2-3.1,1.8-4.7
		c0.6-1.7,1.1-3.4,1.8-5c0.6-1.4,0.8-3.1,2.3-4.7c1.8,6.4,2.8,12.5,4.5,18.3c4.4,1.6,8.5,3.3,13.3,4.6
		C201.4,447.1,198.6,440.4,196.9,433.3z M182.7,101.6c3.9-0.8,7.3-2.3,10.8-3.9c-1.3-5-3.6-9.5-5.1-14.9c2.3,1.1,3.7,2.5,5.3,3.7
		c1.7,1.3,3.5,2.6,5.2,3.9c1.6,1.2,3.2,2.4,4.7,3.5c4.2-1,10.5-3.4,13.1-5c-1.2-1.4-2.8-2.1-4.3-3c-1.5-1-3-1.9-4.5-2.9
		c-1.6-1-3.2-2-4.8-3.1c-1.4-1-3.1-1.6-4.4-3.1c0.4-0.5,0.7-0.9,1.1-1.2c4.4-3.7,5.1-8.9,2.7-14.6c-2-4.8-6.3-9-13.6-8.1
		c-1.5,0.2-3,0.5-4.4,1c-5,1.8-10,3.7-15,5.5c-0.7,0.2-1.2,0.7-2,1.1C172.6,74.4,177.6,87.9,182.7,101.6z M164.6,420.4
		c2-2.6,3.6-5.3,5.1-8.2c-3.3-2.7-7.3-4.3-10.6-7.1c1.2-2.1,2.1-4.1,3.9-5.7c3.9,2.1,7.4,4.7,11.3,6.7c2-2.7,3.8-5.3,5-8.2
		c-0.5-0.4-0.8-0.8-1.3-1.1c-6.5-4-13-7.9-19.5-11.8c-0.1-0.1-0.2-0.1-0.4-0.1c-0.1,0-0.2,0.1-0.5,0.2c-0.2,0.3-0.5,0.6-0.8,1.1
		c-7.3,11.9-14.6,23.8-21.9,35.6c-0.1,0.1-0.1,0.2-0.1,0.4c0,0.1,0.1,0.2,0.2,0.6c0.2,0.2,0.6,0.5,1,0.8c6.5,4,13,7.9,19.5,11.9
		c0.1,0.1,0.2,0.1,0.4,0c0.1,0,0.2-0.1,0.7-0.2c1.4-2.3,3-4.9,4.7-7.6c-3.5-3-7.7-4.6-11.3-7.5c0.3-0.7,0.6-1.2,0.9-1.7
		c0.8-1.4,1.7-2.8,2.7-4.3C157.5,415.8,160.7,418.6,164.6,420.4z M343.6,410.5c-4,1.4-7.5,3.8-11.7,5c-1-2.1-1.9-4-2.9-6.1
		c3.9-2.6,8.2-3.8,12.1-6.2c-1-3.1-2.4-5.9-4-8.6c-3.7,1.1-20.5,9-22.7,10.8c0.1,0.4,0.2,0.9,0.4,1.4c5.8,12.4,11.6,24.8,17.4,37.2
		c0.2,0.5,0.7,0.9,1.1,1.3c8.6-3.5,20.1-9.1,22.5-10.9c-1.2-2.8-2.3-5.7-4.2-8.3c-4.3,1.4-8,4.1-12.3,5.1c-1-2.2-2.4-4.1-2.6-6.5
		c3.6-2.1,7.5-3.3,11.1-5.7C346.5,416.2,345.4,413.2,343.6,410.5z M147.6,83.4c1.1-0.8,1.9-1.4,2.8-1.9c2.2-1.5,4.5-2.9,6.7-4.4
		c0.6-0.4,1.1-1,1.7-1.5c-1.5-2.3-2.8-4.4-4.2-6.5c-0.3-0.4-0.7-0.7-1-1.2c-0.6,0.3-1.2,0.6-1.7,0.9c-5.9,3.8-11.7,7.5-17.6,11.3
		c-0.6,0.4-1.1,1-1.6,1.4c3.8,6.8,22,34.6,24,36.8c0.4-0.2,0.9-0.4,1.3-0.6c6.1-3.9,12.2-7.8,18.2-11.8c0.5-0.3,0.9-0.8,1.3-1.3
		c-1.7-2.7-3.2-5.3-5.3-7.8c-0.9,0.5-1.6,0.9-2.4,1.3c-2.4,1.5-4.7,3-7,4.5c-0.6,0.4-1.3,0.6-2,0.9c-1.4-2-2.8-3.7-3.7-5.9
		c3.3-2.6,7-4.3,10.2-7c-1.4-2.9-3.1-5.6-5.3-8c-3.6,2-6.8,4.5-10.5,6.5C149.8,87.5,148.9,85.5,147.6,83.4z M360.2,70.2
		c-2.4-1.7-5-2.7-7.5-4c-2.5-1.3-4.9-2.6-7.5-3.8c-2.5-1.2-4.8-2.7-7.4-3.5c-2.1,3.1-18.8,36.1-19.9,39.3c3.5,2.3,7.3,3.9,11,5.8
		c3.7,1.9,7.3,4,11.4,5.5c1.5-2.9,2.8-5.6,4.3-8.5c-3.9-2.5-8.1-3.9-11.8-6.5c0.9-2.3,1.8-4.3,3.2-6.3c4,1.6,7.4,4,11.5,5.4
		c1.3-2.5,2.4-4.7,3.6-6.9c0.2-0.4,0.3-0.9,0.5-1.5c-1.6-1.4-3.6-2.1-5.3-3c-1.8-1-3.9-1.8-5.7-3.2c0.6-1.2,1-2.2,1.6-3.2
		c0.6-0.9,0.6-2.3,2.1-2.7c1.8,0.9,3.7,1.9,5.7,2.8c1.9,0.9,3.7,2.1,5.9,2.7c0.6-0.9,1.1-1.6,1.4-2.4
		C358.2,74.2,359.1,72.3,360.2,70.2z M145,392.6c2.7-2.2,7.1-6.9,8.7-9.4c-3.8-10-14.8-17-26.7-14.7c-10.4,2-18.6,11.5-18.9,22.3
		c-0.4,11,6.6,20.7,16.8,23.4c3.3-2.8,7.3-7.2,8.6-9.6c-1.2-0.1-2.3-0.2-3.4-0.4c-7.6-1.6-10.6-7.9-10-12.8
		c0.7-6.6,6.5-11.7,13-11.4c5.2,0.3,9.8,4.3,11,9.5C144.2,390.5,144,391.8,145,392.6z M121.6,90.9c-10.2,3.2-17.3,13.6-16.3,24.3
		c1.2,12.8,11.7,20.2,21,21.2c10.4,1.1,21.1-5.1,24.6-15.8c-1.1-1.8-2.8-3.1-4.3-4.6c-1.5-1.4-2.7-3.3-4.8-4.2c-0.4,1.6-0.6,3-1,4.3
		c-1.5,5.1-6.1,8.6-11.3,8.6c-5.9,0-11.4-4.7-12.3-10.4c-0.9-6.2,3-11.8,9.2-13.4c1.2-0.3,2.4-0.5,4-0.8
		C127.7,96.6,124.5,93.9,121.6,90.9z M284.9,458c-0.3-6-1.7-11.4-2-17c0.9-0.3,1.6-0.6,2.3-0.7c2.4-0.4,4.8-0.6,7.2-1
		c0.8-0.1,1.7-0.4,2.6-0.7c-0.1-1.2,0-2.2-0.2-3.2c-0.3-2-0.7-3.9-1-6c-4.2-0.5-8.1,1.2-12.4,1c-0.5-2.2-1.2-4.3-0.8-6.7
		c4.4-1.2,8.9-1.1,13.2-2.4c-0.3-3.2-0.4-6.4-1.5-9.5c-4.3,0.6-8.4,1-12.5,1.7c-4.1,0.7-8.2,0.8-12.4,2.1c0.2,1.4,0.3,2.7,0.4,3.9
		c0.4,2.6,0.8,5.3,1.1,7.9c1.3,9.5,2.7,19.1,4.1,28.6c0.2,1.1,0.1,2.3,1.3,3.4C277.6,459,281,458.6,284.9,458z M300.8,46.4
		c-8-1.4-16.1-2.7-24.3-3.9c-0.3,0.9-0.5,1.6-0.7,2.3c-0.4,2.4-0.7,4.8-1.1,7.1c-1.6,10.1-3.3,20.3-4.9,30.4c-0.2,1.2-0.6,2.5,0,3.7
		c3.8,1.1,8.3,1.8,10.9,1.5c1.4-5.3,1.4-10.9,3.1-16.5c4.1,0.6,7.9,1.1,12,1.7c0.7-3.2,1.5-6.2,1.3-9.5c-3.9-1.3-8.1-1-11.9-2.5
		c0.2-1.7,0.4-3.2,0.6-4.6c0.1-0.7,0.5-1.3,0.8-2c4.5,0.7,8.7,1.3,12.9,1.9C300.8,52.2,301.2,49.6,300.8,46.4z M230.3,458.2
		c0.2-0.5,0.4-1.1,0.5-1.7c1.4-9.3,2.7-18.6,4-27.8c0.2-1.3,0.3-2.8,1-3.9c3.1-0.3,5.9,1,8.7,0.7c1-3.3,1.5-6.9,1.2-9.3
		c-5.7-1.5-26.5-4.3-29.8-4.1c-0.7,2.9-1.3,5.8-1.3,8.9c2.8,1.5,6.2,0.6,9,2.3c-1.6,11.1-3.2,22.2-4.8,33.2
		C221.7,457.7,227.1,458.5,230.3,458.2z M237.1,86.8c-0.4-3.1-0.8-5.8-1.2-8.6c-0.4-2.8-0.8-5.5-1.2-8.3c-0.4-2.9-1-5.8-1.3-8.7
		c-0.2-2.7-1.3-5.4-0.8-8.4c2.9-0.5,5.7-1,8.5-1.5c0-4-0.4-6.8-1.6-9.4c-0.2,0-0.5-0.2-0.7-0.1c-9,1.3-18.1,2.6-27.1,3.9
		c-0.6,0.1-1.1,0.5-1.7,0.8c0.1,1.4,0.2,2.7,0.4,3.9c0.2,1.6,0.6,3.2,0.9,4.8c3.2,0.8,6.1-1,9.2-0.4c0.1,0.8,0.3,1.4,0.4,2
		c1.3,9,2.6,18.1,3.9,27.1c0.2,1.5,0.2,3,1.3,4.5c2.9-0.4,5.8-0.7,8.7-1.1C235.4,87.3,236,87.1,237.1,86.8z M444.5,249.9
		c0.1-6.3-5-12.9-13.1-12.9c-7.1-0.1-13,5.9-13,13.1c0,7.3,6.1,13.4,13.4,13.1C439.8,262.8,444.8,256.3,444.5,249.9z M81.6,249.9
		c0.1-5.6-4.3-13-13.1-13c-8.5,0-13,7-13.1,13c0,6.1,4.7,13.2,13.3,13.2C75.9,263.1,81.6,257.1,81.6,249.9z M296.7,410.5
		c0.2,1,0.3,1.6,0.5,2.2c3.8,12.8,7.6,25.5,11.4,38.3c0.2,0.7,0.6,1.3,0.9,2.1c3.7-1.1,7.3-1.8,10.8-3.4c-1.1-5-2.7-9.6-4.1-14.3
		c-1.3-4.6-2.7-9.2-4.1-13.8c-1.5-4.7-2.5-9.5-4.4-14.2C303.8,408,300.4,409,296.7,410.5z M250.4,41.8c-0.1,1-0.2,1.6-0.2,2.2
		c-0.1,13.2-0.1,26.4-0.2,39.6c0,0.7,0.2,1.4,0.3,2.4c1.9,0,3.7,0.1,5.4,0.1c1.9,0,3.8,0.3,5.7-0.5c0.1-1.5,0.1-2.8,0.2-4.2
		c0-2.4,0-4.8,0-7.2c0.1-9.5,0.2-19,0.3-28.5c0-1.2,0.3-2.5-0.7-3.8C257.8,41.8,254.3,41.8,250.4,41.8z M249.1,415.7
		c-0.1,0.9-0.2,1.5-0.2,2.2c-0.1,13.3-0.2,26.6-0.2,39.9c0,0.7,0.3,1.4,0.5,2.3c3.8-0.2,7.4,0.4,11.2-0.3c0.1-0.9,0.2-1.6,0.2-2.3
		c0-13.2,0.1-26.3,0.1-39.5c0-0.7-0.2-1.4-0.4-2.4C256.5,415.5,253,415.4,249.1,415.7z M313.2,50c-1.8,4.2-12.9,38.8-13.5,42
		c1.5,1.2,3.4,1.4,5.2,2c1.8,0.6,3.4,1.5,5.6,1.3c4.5-13.9,9-27.7,13.4-41.6C320.4,52.1,316.9,51.1,313.2,50z"/>
	<path class="st0" d="M399.7,250.1c-0.2,83.2-67.6,150.1-150.7,149.6c-84-0.5-149.1-69.2-148.8-150.3c0.4-81.7,67.1-149.8,151.2-149
		C332.9,101.2,399.6,167.2,399.7,250.1z M368.6,250.1c-0.2-66.9-54.8-118.5-118.6-118.6c-63.8,0-118.5,51.6-118.6,118.5
		c0,66.4,54.1,118.5,118.5,118.6C314.3,368.6,368.3,316.6,368.6,250.1z"/>
	<path class="st0" d="M368.2,427.6c-9-11.6-17.9-23.2-26.8-34.8c0.4-0.5,0.7-0.9,1-1.2c4.2-3.3,8.4-6.6,12.7-9.7
		c12.8-9.3,31.2-2.6,34.8,12.8c1.9,8.5-0.1,16.2-6.9,22.1c-4.3,3.7-9,7-13.5,10.5C369.2,427.4,368.9,427.4,368.2,427.6z
		 M371.6,412.8c5-3.4,8.2-7.3,7.1-13.2c-0.9-5.1-4-8.8-9-10.3c-5-1.5-9.3,0.3-13,4.2C361.7,399.9,366.6,406.2,371.6,412.8z"/>
	<path class="st0" d="M374,78.6c0.7,0.5,1.4,0.9,1.9,1.3c3.7,3.1,7.3,6.2,11.1,9.3c6.5,5.3,9.8,15.5,6.2,24.9
		c-5.1,13.3-21.5,18.2-32.8,10.7c-1.9-1.2-12.6-10.4-14.7-12.5c0.3-0.4,0.5-1,0.9-1.4c8.5-10.2,17.1-20.4,25.7-30.6
		C372.8,79.8,373.4,79.3,374,78.6z M361,112.3c3.7,3.8,7.9,6,13,4.4c5.1-1.6,8.3-5.3,9.1-10.6c0.9-5.5-2.1-9.3-6.4-12.3
		C374.5,95.8,364.2,107.9,361,112.3z"/>
	<path class="st0" d="M196.9,433.3c1.8,7.1,4.6,13.8,6.4,21.1c-4.8-1.2-8.9-3-13.3-4.6c-1.8-5.9-2.7-12-4.5-18.3
		c-1.5,1.6-1.7,3.3-2.3,4.7c-0.7,1.6-1.2,3.3-1.8,5c-0.6,1.5-1.2,3-1.8,4.7c-3.8-0.9-7.2-2.3-10.8-3.8c0.2-0.8,0.3-1.5,0.5-2.2
		c4.5-12.6,9.1-25.3,13.6-37.9c0.2-0.5,0.4-0.9,0.7-1.5c0.6,0.1,1.2,0.1,1.8,0.2c5,1.8,10,3.5,15,5.4c1.8,0.7,3.5,1.5,5,2.6
		c4.3,3.1,6.1,7.4,5.1,12.6c-0.4,2-1.1,3.9-2,5.7c-1.7,3.2-4.4,5.2-8.1,5.6C199.3,432.9,198.2,433.1,196.9,433.3z M188,422.5
		c2,1.2,3.7,1.7,5.5,1.6c2.5-0.1,4-1.2,4.8-3.6c0.7-2.1,0.2-4-1.6-5.4c-1.5-1.2-3.1-2-5.3-2.2C190.3,416.2,189.2,419.3,188,422.5z"
		/>
	<path class="st0" d="M182.7,101.6c-5.1-13.8-10.1-27.3-15.2-41c0.8-0.4,1.3-0.9,2-1.1c5-1.9,10-3.7,15-5.5c1.4-0.5,2.9-0.8,4.4-1
		c7.4-0.8,11.6,3.4,13.6,8.1c2.4,5.6,1.6,10.9-2.7,14.6c-0.4,0.3-0.6,0.7-1.1,1.2c1.3,1.4,3,2.1,4.4,3.1c1.6,1.1,3.2,2,4.8,3.1
		c1.5,0.9,3,1.9,4.5,2.9c1.4,1,3.1,1.6,4.3,3c-2.6,1.6-8.9,4-13.1,5c-1.5-1.1-3.1-2.3-4.7-3.5c-1.7-1.3-3.4-2.6-5.2-3.9
		c-1.6-1.2-3-2.5-5.3-3.7c1.5,5.4,3.8,9.9,5.1,14.9C190,99.4,186.6,100.8,182.7,101.6z M185.4,74.6c2.1-0.6,3.7-1.3,5.1-2.5
		c1.7-1.5,2-3.4,1.4-5.5c-0.6-2-2.4-3.4-4.5-3.4c-2,0-3.9,0.4-5.5,1.8C182.8,68.3,183.8,71.4,185.4,74.6z"/>
	<path class="st0" d="M164.6,420.4c-3.9-1.8-7.1-4.6-11.1-6.3c-0.9,1.5-1.8,2.9-2.7,4.3c-0.3,0.5-0.5,1.1-0.9,1.7
		c3.5,2.9,7.7,4.5,11.3,7.5c-1.6,2.7-3.2,5.2-4.7,7.6c-0.4,0.1-0.6,0.2-0.7,0.2c-0.1,0-0.3,0-0.4,0c-6.5-4-13-7.9-19.5-11.9
		c-0.4-0.3-0.8-0.6-1-0.8c-0.1-0.3-0.2-0.4-0.2-0.6c0-0.1,0-0.3,0.1-0.4c7.3-11.9,14.6-23.8,21.9-35.6c0.3-0.4,0.6-0.8,0.8-1.1
		c0.3-0.1,0.4-0.2,0.5-0.2c0.1,0,0.3,0,0.4,0.1c6.5,3.9,13,7.9,19.5,11.8c0.4,0.3,0.8,0.6,1.3,1.1c-1.2,3-3,5.5-5,8.2
		c-3.9-2-7.4-4.6-11.3-6.7c-1.8,1.6-2.7,3.6-3.9,5.7c3.3,2.8,7.3,4.3,10.6,7.1C168.2,415.1,166.6,417.8,164.6,420.4z"/>
	<path class="st0" d="M343.6,410.5c1.8,2.7,2.9,5.7,4.2,8.6c-3.6,2.4-7.5,3.6-11.1,5.7c0.3,2.4,1.6,4.2,2.6,6.5
		c4.4-1.1,8-3.8,12.3-5.1c1.9,2.6,2.9,5.5,4.2,8.3c-2.4,1.8-13.9,7.4-22.5,10.9c-0.3-0.4-0.8-0.8-1.1-1.3
		c-5.8-12.4-11.6-24.8-17.4-37.2c-0.2-0.4-0.3-0.9-0.4-1.4c2.3-1.7,19.1-9.7,22.7-10.8c1.5,2.7,2.9,5.5,4,8.6
		c-3.9,2.4-8.2,3.6-12.1,6.2c1,2,1.9,4,2.9,6.1C336.1,414.2,339.6,411.9,343.6,410.5z"/>
	<path class="st0" d="M147.6,83.4c1.3,2.1,2.2,4.1,3.9,5.7c3.6-1.9,6.8-4.4,10.5-6.5c2.2,2.5,3.8,5.1,5.3,8c-3.2,2.7-6.9,4.4-10.2,7
		c0.8,2.2,2.2,3.9,3.7,5.9c0.7-0.3,1.4-0.6,2-0.9c2.4-1.5,4.7-3,7-4.5c0.7-0.5,1.5-0.9,2.4-1.3c2.1,2.4,3.6,5.1,5.3,7.8
		c-0.4,0.4-0.8,1-1.3,1.3c-6.1,3.9-12.1,7.8-18.2,11.8c-0.4,0.3-0.9,0.4-1.3,0.6c-2.1-2.2-20.2-30-24-36.8c0.5-0.5,1-1,1.6-1.4
		c5.8-3.8,11.7-7.6,17.6-11.3c0.5-0.3,1.1-0.6,1.7-0.9c0.4,0.4,0.8,0.8,1,1.2c1.4,2.1,2.7,4.3,4.2,6.5c-0.6,0.6-1.1,1.1-1.7,1.5
		c-2.2,1.5-4.5,2.9-6.7,4.4C149.5,82,148.7,82.6,147.6,83.4z"/>
	<path class="st0" d="M360.2,70.2c-1,2.1-1.9,4-2.9,5.9c-0.4,0.8-0.9,1.5-1.4,2.4c-2.2-0.5-4-1.8-5.9-2.7c-1.9-0.9-3.8-1.9-5.7-2.8
		c-1.5,0.4-1.6,1.7-2.1,2.7c-0.6,1-1,2-1.6,3.2c1.8,1.4,3.8,2.2,5.7,3.2c1.7,1,3.7,1.6,5.3,3c-0.2,0.6-0.3,1.1-0.5,1.5
		c-1.1,2.3-2.3,4.5-3.6,6.9c-4.1-1.4-7.5-3.8-11.5-5.4c-1.4,2-2.3,4-3.2,6.3c3.7,2.6,7.9,4,11.8,6.5c-1.5,2.9-2.8,5.6-4.3,8.5
		c-4.1-1.5-7.7-3.6-11.4-5.5c-3.7-1.9-7.5-3.5-11-5.8c1.1-3.2,17.9-36.2,19.9-39.3c2.6,0.8,4.9,2.3,7.4,3.5c2.5,1.2,5,2.5,7.5,3.8
		C355.1,67.4,357.7,68.4,360.2,70.2z"/>
	<path class="st0" d="M145,392.6c-1-0.8-0.7-2.1-1-3.1c-1.2-5.2-5.8-9.2-11-9.5c-6.4-0.3-12.3,4.7-13,11.4
		c-0.5,4.9,2.4,11.2,10,12.8c1.1,0.2,2.2,0.3,3.4,0.4c-1.2,2.4-5.3,6.9-8.6,9.6c-10.2-2.7-17.1-12.4-16.8-23.4
		c0.4-10.8,8.5-20.3,18.9-22.3c11.9-2.2,22.9,4.7,26.7,14.7C152.1,385.7,147.7,390.4,145,392.6z"/>
	<path class="st0" d="M121.6,90.9c2.9,3,6.1,5.7,8.9,9.2c-1.6,0.3-2.8,0.5-4,0.8c-6.2,1.6-10.1,7.2-9.2,13.4
		c0.8,5.8,6.4,10.5,12.3,10.4c5.2,0,9.8-3.5,11.3-8.6c0.4-1.3,0.6-2.7,1-4.3c2.1,0.9,3.3,2.8,4.8,4.2c1.5,1.5,3.2,2.9,4.3,4.6
		c-3.5,10.7-14.2,16.9-24.6,15.8c-9.4-1-19.8-8.4-21-21.2C104.3,104.5,111.4,94.1,121.6,90.9z"/>
	<path class="st0" d="M284.9,458c-3.9,0.5-7.4,1-10.6,1.4c-1.2-1.1-1.2-2.3-1.3-3.4c-1.4-9.5-2.7-19.1-4.1-28.6
		c-0.4-2.6-0.8-5.3-1.1-7.9c-0.2-1.2-0.3-2.5-0.4-3.9c4.2-1.4,8.3-1.4,12.4-2.1c4.1-0.7,8.2-1.1,12.5-1.7c1.1,3.2,1.2,6.3,1.5,9.5
		c-4.3,1.3-8.8,1.2-13.2,2.4c-0.4,2.4,0.3,4.5,0.8,6.7c4.2,0.2,8.1-1.5,12.4-1c0.4,2.1,0.7,4,1,6c0.1,1,0.1,2,0.2,3.2
		c-1,0.3-1.8,0.5-2.6,0.7c-2.4,0.4-4.8,0.6-7.2,1c-0.7,0.1-1.4,0.4-2.3,0.7C283.2,446.6,284.6,452,284.9,458z"/>
	<path class="st0" d="M300.8,46.4c0.4,3.2,0,5.8-1.3,9.7c-4.2-0.6-8.4-1.2-12.9-1.9c-0.3,0.7-0.7,1.3-0.8,2c-0.3,1.5-0.4,3-0.6,4.6
		c3.9,1.5,8,1.2,11.9,2.5c0.2,3.3-0.7,6.3-1.3,9.5c-4.1-0.6-8-1.1-12-1.7c-1.7,5.5-1.7,11.2-3.1,16.5c-2.6,0.3-7-0.4-10.9-1.5
		c-0.7-1.2-0.2-2.5,0-3.7c1.6-10.1,3.3-20.3,4.9-30.4c0.4-2.4,0.7-4.8,1.1-7.1c0.1-0.7,0.4-1.4,0.7-2.3
		C284.7,43.8,292.8,45,300.8,46.4z"/>
	<path class="st0" d="M230.3,458.2c-3.2,0.3-8.6-0.5-11.4-1.8c1.6-11,3.2-22.2,4.8-33.2c-2.9-1.7-6.2-0.8-9-2.3c0-3.1,0.6-6,1.3-8.9
		c3.3-0.3,24.1,2.6,29.8,4.1c0.3,2.4-0.1,6.1-1.2,9.3c-2.9,0.3-5.7-1-8.7-0.7c-0.8,1.1-0.8,2.5-1,3.9c-1.4,9.3-2.7,18.6-4,27.8
		C230.7,457.1,230.5,457.7,230.3,458.2z"/>
	<path class="st0" d="M237.1,86.8c-1.1,0.3-1.7,0.5-2.3,0.6c-2.9,0.4-5.8,0.8-8.7,1.1c-1-1.5-1-3-1.3-4.5c-1.3-9-2.6-18.1-3.9-27.1
		c-0.1-0.6-0.2-1.2-0.4-2c-3.1-0.6-6.1,1.2-9.2,0.4c-0.3-1.6-0.6-3.2-0.9-4.8c-0.2-1.2-0.2-2.5-0.4-3.9c0.6-0.3,1.1-0.7,1.7-0.8
		c9-1.3,18.1-2.6,27.1-3.9c0.2,0,0.5,0.1,0.7,0.1c1.1,2.6,1.6,5.5,1.6,9.4c-2.8,0.5-5.6,1-8.5,1.5c-0.6,3,0.5,5.7,0.8,8.4
		c0.2,2.9,0.8,5.8,1.3,8.7c0.4,2.8,0.8,5.5,1.2,8.3C236.3,81,236.6,83.7,237.1,86.8z"/>
	<path class="st0" d="M444.5,249.9c0.3,6.4-4.8,13-12.8,13.3c-7.2,0.2-13.4-5.8-13.4-13.1c0-7.1,5.9-13.1,13-13.1
		C439.6,237,444.7,243.5,444.5,249.9z"/>
	<path class="st0" d="M81.6,249.9c0,7.2-5.7,13.2-12.9,13.2c-8.6,0-13.3-7-13.3-13.2c0-5.9,4.6-13,13.1-13
		C77.3,237,81.7,244.3,81.6,249.9z"/>
	<path class="st0" d="M296.7,410.5c3.7-1.5,7.1-2.4,10.9-3.2c1.9,4.7,2.9,9.5,4.4,14.2c1.4,4.6,2.8,9.2,4.1,13.8
		c1.3,4.7,3,9.4,4.1,14.3c-3.5,1.6-7,2.3-10.8,3.4c-0.4-0.8-0.7-1.4-0.9-2.1c-3.8-12.7-7.6-25.5-11.4-38.3
		C297,412.1,296.9,411.5,296.7,410.5z"/>
	<path class="st0" d="M250.4,41.8c3.9,0,7.4,0,10.9,0c1,1.2,0.7,2.6,0.7,3.8c-0.1,9.5-0.2,19-0.3,28.5c0,2.4,0,4.8,0,7.2
		c0,1.4-0.1,2.8-0.2,4.2c-2,0.8-3.9,0.4-5.7,0.5c-1.8,0-3.5,0-5.4-0.1c-0.1-0.9-0.4-1.7-0.3-2.4c0-13.2,0.1-26.4,0.2-39.6
		C250.2,43.4,250.3,42.8,250.4,41.8z"/>
	<path class="st0" d="M249.1,415.7c3.9-0.3,7.4-0.2,11.1-0.1c0.2,0.9,0.4,1.6,0.4,2.4c0,13.2,0,26.3-0.1,39.5c0,0.7-0.1,1.5-0.2,2.3
		c-3.8,0.7-7.4,0.1-11.2,0.3c-0.2-0.9-0.5-1.6-0.5-2.3c0.1-13.3,0.1-26.6,0.2-39.9C248.9,417.2,249,416.6,249.1,415.7z"/>
	<path class="st0" d="M313.2,50c3.7,1.1,7.2,2.1,10.8,3.6c-4.4,14-8.9,27.8-13.4,41.6c-2.2,0.2-3.9-0.8-5.6-1.3
		c-1.8-0.6-3.7-0.8-5.2-2C300.3,88.8,311.4,54.2,313.2,50z"/>
	<path d="M368.6,250.1c-0.3,66.5-54.3,118.5-118.6,118.5c-64.4,0-118.5-52.2-118.5-118.6c0-66.9,54.8-118.5,118.6-118.5
		C313.8,131.5,368.4,183.1,368.6,250.1z M179,161.4c-1.2,0.9-2.2,1.7-3.1,2.5c-31,26.7-45.6,68-37.4,108.5
		c5.3,26.1,18.3,47.6,38.5,64.8c0.6,0.6,1.4,0.9,2.1,1.3c3-1.8,5.9-3.5,8.8-5c2.8-1.5,5.7-2.9,8.5-4.3c2.9-1.4,6.1-2.4,9.3-4
		c-3.6-5.9-7.1-11.6-9.7-18c1.8-0.4,3.4-0.4,5,0c1.6,2.9,3,5.7,4.6,8.4c1.6,2.7,3.1,5.5,5.1,8c4.3-1,8.3-2.1,12.4-3
		c4-0.8,8-1.5,12-2c4.1-0.6,8.3-0.5,12.6-1.2c0-2.7,0-5.3,0.1-7.8c0-0.8,0.3-1.7,0.4-2.6c1.5,0.1,2.7,0.1,4,0.2
		c0.5,1.8,0.2,3.5,0.3,5.1c0.1,1.7-0.4,3.5,0.6,5.4c12.3,0.5,24.4,2.3,36.3,6.1c4.2-5.2,6.8-11.2,10-16.6c1.7-0.1,3.2-0.3,4.8,0.2
		c-0.4,1.8-1.3,3.2-2,4.7c-0.7,1.5-1.5,2.9-2.3,4.4c-0.9,1.6-1.8,3.1-2.6,4.6c-0.8,1.4-2,2.6-2.3,4.5c3.1,1.3,6.2,2.5,9.1,3.9
		c3,1.4,5.9,2.9,8.9,4.4c2.9,1.5,5.5,3.6,8.7,4.8c18.6-15.2,31.4-34.2,38-57.2c7.1-25.1,5.8-50-4-74.2c-7.3-18-23.6-39.4-34.5-45.5
		c-4.2,2.3-8.3,4.8-12.6,7c-4.4,2.2-9,4.1-13.7,6.2c0.5,1,1,1.9,1.4,2.7c2.4,4.4,4.9,8.9,7.3,13.3c0.3,0.6,0.4,1.3,0.6,2.1
		c-1.8,0-3.3,0-4.8,0c-0.6-1.2-1.2-2.4-1.8-3.4c-2.1-3.7-4.3-7.5-6.5-11.2c-0.4-0.7-1.1-1.3-1.6-1.8c-4.2,1-8.1,2.1-12,3
		c-7.2,1.6-14.5,2.3-21.9,2.8c-0.9,0.1-1.7,0.3-2.5,0.4c-0.9,3.5,0.3,7-0.8,10.2c-1.4,0-2.6,0-4,0c-0.7-3.5,0.3-7-0.6-10.2
		c-0.4-0.1-0.6-0.3-0.9-0.3c-1-0.1-2-0.2-3-0.2c-10.7-0.6-21.2-2.3-31.4-5.5c-0.5-0.1-1-0.1-1.5-0.1c-3.8,5.2-6.6,10.9-9.6,16.4
		c-1.7,0-3.2,0-5,0c0.6-1.4,1-2.6,1.6-3.7c2.3-4.2,4.7-8.4,7.1-12.6c0.3-0.6,0.5-1.3,0.9-2.1C196.1,171.1,187.5,166.8,179,161.4z
		 M257.6,363.1c1.5,0,2.5,0.2,3.4,0c4.6-0.7,9.3-1.3,13.9-2.3c14.3-3.1,27.4-9,39.5-17.3c0.7-0.5,1.6-0.8,1.7-1.8
		c-4.3-3.7-18.7-10.7-24.9-12c-1,1.3-2.1,2.7-3.2,4.1c-1.1,1.4-2.2,2.8-3.3,4.1c-1.1,1.3-2.1,2.5-3.2,3.7c-1.2,1.3-2.4,2.6-3.7,3.9
		c-1.2,1.3-2.5,2.5-3.8,3.8c-1.3,1.2-2.6,2.4-3.9,3.6c-1.2,1.1-2.5,2.2-3.8,3.2c-1.4,1.1-2.8,2.2-4.2,3.3
		C260.8,360.6,259.2,361.4,257.6,363.1z M291.2,170.2c0.5,0,0.8,0.1,1,0c8-2.9,15.7-6.5,22.9-11c0.5-0.3,0.8-0.8,1.3-1.4
		c-7.3-5.4-15-9.5-23.1-12.9c-9.9-4.1-20.2-6.7-30.8-7.9c-1.4-0.2-2.9-0.5-5,0.2c2.9,2.2,5.5,4,7.9,6c2.4,2,4.9,4.1,7.2,6.2
		c2.2,2.1,4.4,4.2,6.5,6.4c2.2,2.3,4.3,4.7,6.3,7.1C287.4,165.4,289.3,167.9,291.2,170.2z M208.8,170.3c1.3-1.7,2.7-3.5,4.1-5.3
		c1.4-1.7,2.7-3.3,4.1-5c1.5-1.7,3-3.4,4.6-5.1c1.6-1.6,3.2-3.3,4.9-4.8c1.7-1.6,3.4-3.1,5.1-4.6c1.6-1.4,3.3-2.7,5-4.1
		c1.7-1.4,3.7-2.5,5.7-4.5c-1.1-0.1-1.7-0.2-2.3-0.2c-3.9,0.5-7.8,0.9-11.7,1.6c-15.8,3-30.2,9.2-43.4,18.4
		c-0.5,0.3-0.9,0.8-1.3,1.2C188.1,161.9,201.9,168.7,208.8,170.3z M241.6,363.4c0.1-0.3,0.3-0.5,0.4-0.8c-3.1-2.4-6.2-4.7-9.1-7.2
		c-3-2.5-5.9-5.2-8.7-7.9c-2.8-2.8-5.5-5.7-8-8.6c-2.6-3-4.9-6.1-7.3-8.9c-0.4-0.1-0.5-0.1-0.7-0.1c-8.3,2.8-16.2,6.6-23.6,11.3
		c-0.4,0.2-0.6,0.7-0.9,1.2C201.2,354.7,220.4,361.8,241.6,363.4z M285.9,327.9c-9.1-3.4-26.9-6-33-4.9c-0.1,0.2-0.3,0.4-0.3,0.7
		c-0.1,0.6-0.1,1.3-0.1,1.9c0,11.1,0.1,22.3,0.1,33.4c0,0.1,0,0.3,0.1,0.3c0.1,0.1,0.2,0.1,0.3,0.2
		C260.5,356.5,281.6,336.7,285.9,327.9z M252.3,140.3c0,12.1,0,23.7,0,35.4c0,0.5,0.2,1,0.3,1.6c1.1,0.1,2.1,0.2,3,0.2
		c9.9-0.3,19.6-2,29.2-4.8c0.3-0.1,0.6-0.4,0.8-0.7C282,164.1,261.3,144.2,252.3,140.3z M213.9,328c0.7,1.1,1.2,2,1.8,2.7
		c3.3,3.9,6.5,7.8,10,11.5c5.9,6.2,12.4,11.6,19.4,16.4c0.7,0.5,1.3,1.3,2.5,0.6c0-11.7,0-23.5,0-35.3c0-0.3-0.2-0.7-0.3-1
		C240.8,321.9,223.3,324.5,213.9,328z M247.4,177.1c0.1-0.7,0.2-1.2,0.2-1.7c0-11.4-0.1-22.8-0.1-34.2c0-0.1,0-0.3-0.1-0.4
		c-0.1-0.1-0.2-0.1-0.5-0.4c-0.4,0.2-1,0.4-1.5,0.7c-1.5,1-2.9,2-4.3,3.1c-9.7,7.3-18.2,15.7-25.6,25.3c-0.6,0.7-1.6,1.4-1.2,2.6
		C222.3,175.3,240.3,178.1,247.4,177.1z"/>
	<path d="M371.6,412.8c-5.1-6.6-9.9-12.9-14.9-19.3c3.7-3.8,7.9-5.7,13-4.2c5,1.5,8.1,5.2,9,10.3
		C379.8,405.5,376.6,409.4,371.6,412.8z"/>
	<path d="M361,112.3c3.1-4.4,13.5-16.5,15.8-18.5c4.2,3,7.2,6.8,6.4,12.3c-0.8,5.3-4,9-9.1,10.6C368.9,118.3,364.7,116.1,361,112.3z
		"/>
	<path d="M188,422.5c1.2-3.3,2.3-6.4,3.5-9.6c2.1,0.2,3.8,1,5.3,2.2c1.8,1.4,2.3,3.4,1.6,5.4c-0.8,2.4-2.3,3.5-4.8,3.6
		C191.7,424.2,190,423.8,188,422.5z"/>
	<path d="M185.4,74.6c-1.5-3.2-2.6-6.3-3.6-9.5c1.6-1.4,3.5-1.9,5.5-1.8c2.1,0,3.9,1.4,4.5,3.4c0.7,2.1,0.4,4-1.4,5.5
		C189.1,73.3,187.5,74,185.4,74.6z"/>
	<path class="st0" d="M179,161.4c8.5,5.5,17.1,9.8,26.4,13.2c-0.3,0.8-0.5,1.5-0.9,2.1c-2.3,4.2-4.7,8.4-7.1,12.6
		c-0.6,1.1-1,2.3-1.6,3.7c1.8,0,3.3,0,5,0c3-5.4,5.8-11.1,9.6-16.4c0.5,0,1-0.1,1.5,0.1c10.2,3.1,20.7,4.9,31.4,5.5
		c1,0.1,2,0.1,3,0.2c0.2,0,0.5,0.2,0.9,0.3c0.9,3.2-0.1,6.7,0.6,10.2c1.4,0,2.6,0,4,0c1.1-3.3-0.1-6.8,0.8-10.2
		c0.8-0.1,1.7-0.3,2.5-0.4c7.4-0.5,14.7-1.2,21.9-2.8c4-0.9,7.9-2,12-3c0.5,0.5,1.2,1.1,1.6,1.8c2.2,3.7,4.4,7.4,6.5,11.2
		c0.6,1.1,1.2,2.2,1.8,3.4c1.5,0,3,0,4.8,0c-0.2-0.8-0.3-1.5-0.6-2.1c-2.4-4.5-4.9-8.9-7.3-13.3c-0.5-0.9-0.9-1.7-1.4-2.7
		c4.7-2.1,9.3-4,13.7-6.2c4.3-2.2,8.4-4.6,12.7-7c10.8,6,27.2,27.5,34.5,45.5c9.8,24.3,11.2,49.1,4,74.2c-6.5,23-19.4,41.9-38,57.2
		c-3.2-1.2-5.8-3.4-8.7-4.8c-3-1.5-5.9-3-8.9-4.4c-3-1.4-6-2.6-9.1-3.9c0.3-1.9,1.5-3.1,2.3-4.5c0.8-1.6,1.8-3.1,2.6-4.6
		c0.8-1.4,1.6-2.9,2.3-4.4c0.7-1.5,1.6-2.9,2-4.7c-1.6-0.5-3.1-0.3-4.8-0.2c-3.2,5.5-5.8,11.4-10,16.6c-11.8-3.8-24-5.5-36.3-6.1
		c-1-1.9-0.5-3.7-0.6-5.4c-0.1-1.6,0.2-3.3-0.3-5.1c-1.3-0.1-2.5-0.1-4-0.2c-0.2,1-0.4,1.8-0.4,2.6c-0.1,2.5-0.1,5-0.1,7.8
		c-4.3,0.7-8.5,0.7-12.6,1.2c-4,0.5-8,1.2-12,2c-4.1,0.8-8.1,2-12.4,3c-1.9-2.5-3.5-5.2-5.1-8c-1.6-2.8-3-5.6-4.6-8.4
		c-1.6-0.4-3.2-0.4-5,0c2.6,6.4,6.1,12.1,9.7,18c-3.2,1.7-6.3,2.6-9.3,4c-2.8,1.4-5.7,2.8-8.5,4.3c-2.9,1.6-5.7,3.3-8.8,5
		c-0.7-0.4-1.5-0.8-2.1-1.3c-20.2-17.2-33.3-38.8-38.5-64.8c-8.2-40.5,6.4-81.8,37.4-108.5C176.8,163.1,177.8,162.3,179,161.4z
		 M246.6,295.3c3.9-4.7,8.1-9.3,11.6-14.4c1.7-2.4,2.7-5.2,3.3-8c1.8-8.3-2.7-15.6-11-17.7c-3.5-0.9-7-0.9-10.6-0.1
		c-8.6,2-13.4,9.6-11.3,18.2c1.7,7,7.9,11.2,14.4,10.3c0.4-0.1,0.9,0,1.8,0c-0.9,1.1-1.5,1.9-2.1,2.7c-2.2,2.5-4.3,5-6.5,7.5
		c-0.4,0.5-0.9,0.9-0.4,1.7C239.3,295.3,242.8,295.3,246.6,295.3z M318.2,295.3c2.3-2.2,10.1-11.7,11.5-13.8c1.8-2.7,3-5.6,3.7-8.7
		c1.6-7.6-2-14.3-9.3-17c-3.9-1.5-7.9-1.7-12-0.7c-8.3,1.9-13,8.5-11.9,16.8c1,7.7,7.8,12.8,14.7,11.6c0.4-0.1,0.9,0,1.8,0
		c-0.9,1.1-1.4,1.8-1.9,2.4c-2.2,2.6-4.5,5.2-6.7,7.8c-0.4,0.5-0.9,0.9-0.3,1.7C311.2,295.3,314.8,295.3,318.2,295.3z M219,255.8
		c-1.5-0.1-2.4-0.2-3.2-0.2c-2.4,0-4.8,0-7.2,0c-1,0-1.6,0.7-2.2,1.4c-3.1,3.7-6.2,7.4-9.1,11.2c-2.4,3-3.9,6.5-4.7,10.3
		c-1.5,7.7,2.2,14.2,9.6,16.8c4.1,1.4,8.3,1.5,12.4,0.5c6.5-1.6,10.6-6.3,11.4-12.8c0.7-5.7-2.2-13.5-10.5-15.5
		c-1.9-0.4-3.7-0.2-6.3,0.2C212.3,263.5,215.8,260.2,219,255.8z M292.8,279.1c-0.1-1.4-0.2-2.6-0.2-3.9c0-5.5,0-10.9,0-16.4
		c0-1-0.2-1.9-0.3-3.1c-4.6-0.2-9-0.2-12.9,0c-0.6,0.5-0.8,0.6-0.9,0.8c-4.6,7.5-9.1,14.9-13.7,22.4c-1.6,2.6-1.1,5.3-0.5,8.2
		c3.2,0,6.3-0.1,9.3,0c3,0.1,6-0.3,9.2,0.3c0.7,2.5-0.1,5.1,0.7,7.7c3.1,0.3,6,0.5,9-0.1c0.6-2.6-0.2-5.2,0.6-7.6
		c1.5-0.2,2.8-0.4,4.2-0.7c0.1-2.6,0.5-4.9-0.3-7.3c-0.8-0.1-1.4-0.1-2-0.1C294.2,279.3,293.6,279.2,292.8,279.1z M233.3,238.4
		c0.8-0.1,1.9-0.1,2.9-0.2c7.2-0.9,12.7-6.4,13.9-13.6c1.1-6.6-2.1-14-9.1-17.2c-3.7-1.6-7.5-2-11.5-1.3
		c-13,2.5-16.3,16.4-10.8,24.8C222,236.2,227,238.4,233.3,238.4z M322.2,208.4c-3.1-1.9-6.2-2.4-9.4-2.6c-1.9-0.1-3.8,0.3-5.5,1.2
		c-3.9,2-5.3,5.3-5.2,9.4c0.1,3.9,2.3,6.3,5.9,7.6c0.8,0.3,1.7,0.6,2.5,0.9c0.9,0.4,1.9,0.7,2.8,1.1c1.4,0.7,2.1,1.9,1.8,3
		c-0.3,1.4-1.4,2.3-3,2.5c-1.7,0.2-3.3-0.1-4.8-0.9c-1-0.5-2-1.1-3.1-1.7c-1.5,1.9-2.4,3.9-3.3,6c4.7,3.5,9.7,4,15,2.9
		c1-0.2,1.9-0.7,2.8-1.2c3.4-2,4.8-5.1,4.8-8.9c0-3.8-1.8-6.5-5.3-8.1c-1.3-0.6-2.6-0.9-3.9-1.4c-0.9-0.4-1.9-0.7-2.8-1.3
		c-1.6-1-1.4-3.1,0.3-4c1.2-0.7,2.4-0.8,3.7-0.3c1.2,0.4,2.3,0.9,3.6,1.4C320.5,212.4,321.3,210.5,322.2,208.4z M189.7,234.8
		c4.6,3.4,10.6,4.5,15.4,3c0.8-0.3,1.7-0.6,2.4-1.1c3.5-2,4.8-5.1,4.8-8.9c0-3.8-1.8-6.5-5.3-8.1c-1.3-0.6-2.6-0.9-3.9-1.5
		c-0.9-0.4-1.9-0.7-2.8-1.2c-1.6-1-1.5-3.1,0.2-4c1.2-0.7,2.4-0.8,3.7-0.4c1.2,0.4,2.3,0.9,3.6,1.4c1.3-1.8,2.3-3.6,2.8-5.7
		c-3.1-1.8-7-2.9-9.9-2.6c-1.4,0.1-2.8,0.4-4.1,0.9c-3.8,1.4-6,5-5.9,9.3c0,3.9,1.8,6.3,5.9,8c1.1,0.4,2.2,0.8,3.2,1.2
		c0.8,0.3,1.7,0.6,2.4,1c1.1,0.6,1.7,1.5,1.5,2.8c-0.2,1.3-1.2,2.2-2.6,2.4c-1.8,0.3-3.5,0.1-5.2-0.8c-1-0.5-1.9-1.1-3.1-1.7
		C191.6,230.8,190.7,232.7,189.7,234.8z M171.9,264.5c0.1,1.4,0.2,2.6,0.2,3.9c0,7.8,0,15.7,0,23.5c0,1.1-0.3,2.3,0.7,3.5
		c2.9-0.1,6,0.4,9.2-0.3c0.1-0.7,0.2-1.1,0.2-1.6c0-11.9,0-23.8,0-35.7c0-0.6-0.2-1.2-0.4-2c-2.7,0-5.2-0.2-7.7-0.1
		c-2.6,0.1-5.3-0.5-7.9,0.5c-0.2,2.7-0.2,5.1,0,7.8c1,0.1,1.9,0.2,2.7,0.2C169.9,264.3,170.8,264.4,171.9,264.5z M298.4,207.1
		c-2.3-0.7-4.6-0.3-6.9-0.4c-2.4-0.1-4.8-0.1-7.2,0c-2.2,0.1-4.5-0.3-6.8,0.4c-0.2,2.1-0.3,3.9,0.1,6c2.1,0.2,4,0.4,6.2,0.6
		c0.1,1.4,0.2,2.7,0.2,3.9c0,5.6,0,11.1,0,16.7c0,1,0.2,1.9,0.3,3.1c2.6,0.2,4.9,0.3,7.4,0c0.1-1.5,0.2-2.7,0.2-4
		c0-5.6,0-11.1,0-16.7c0-1,0.2-1.9,0.3-2.9c2.1-0.9,4.3,0,6.3-1C298.7,211,298.7,209.1,298.4,207.1z M176.6,207
		c-0.1,0.8-0.3,1.3-0.3,1.7c0,9.1,0,18.2,0,27.3c0,0.4,0.2,0.7,0.3,1c3.1,0.6,4.6,0.6,7.5-0.1c0.1-0.4,0.2-0.9,0.2-1.4
		c0-9.1,0-18.2,0-27.3c0-0.4-0.2-0.7-0.4-1.3C181.6,206.6,179.2,206.6,176.6,207z M269.4,203.5c-0.4,0.7-0.7,1.1-0.9,1.5
		c-5.3,12.9-10.5,25.8-15.7,38.6c0,0.1,0,0.2,0,0.4c0,0.1,0.1,0.2,0.3,0.5c1.6,0.4,3.3,0.4,4.9-0.1c0.2-0.4,0.4-0.6,0.5-0.8
		c5.3-12.7,10.5-25.5,15.7-38.2c0.2-0.4,0.1-0.9,0.2-1.5c-0.6-0.1-1.1-0.3-1.6-0.3C271.6,203.5,270.5,203.5,269.4,203.5z"/>
	<path class="st0" d="M257.6,363.1c1.6-1.8,3.1-2.6,4.5-3.6c1.4-1.1,2.8-2.2,4.2-3.3c1.3-1,2.5-2.1,3.8-3.2c1.3-1.2,2.6-2.4,3.9-3.6
		c1.3-1.2,2.5-2.5,3.8-3.8c1.2-1.3,2.5-2.6,3.7-3.9c1.1-1.2,2.2-2.5,3.2-3.7c1.1-1.4,2.2-2.8,3.3-4.1c1.1-1.4,2.2-2.8,3.2-4.1
		c6.2,1.3,20.6,8.3,24.9,12c-0.1,1.1-1,1.4-1.7,1.8c-12,8.3-25.2,14.2-39.5,17.3c-4.6,1-9.2,1.6-13.9,2.3
		C260.1,363.3,259.2,363.2,257.6,363.1z"/>
	<path class="st0" d="M291.2,170.2c-1.9-2.3-3.8-4.9-5.8-7.3c-2-2.4-4.1-4.8-6.3-7.1c-2.1-2.2-4.3-4.4-6.5-6.4
		c-2.3-2.1-4.8-4.2-7.2-6.2c-2.4-2-5-3.8-7.9-6c2.1-0.7,3.6-0.4,5-0.2c10.6,1.2,20.9,3.8,30.8,7.9c8.1,3.4,15.8,7.5,23.1,12.9
		c-0.5,0.6-0.8,1.1-1.3,1.4c-7.2,4.5-14.9,8.1-22.9,11C292,170.3,291.7,170.2,291.2,170.2z"/>
	<path class="st0" d="M208.8,170.3c-6.9-1.6-20.7-8.4-25.1-12.2c0.4-0.4,0.8-0.9,1.3-1.2c13.2-9.2,27.6-15.4,43.4-18.4
		c3.9-0.7,7.8-1.1,11.7-1.6c0.6-0.1,1.2,0.1,2.3,0.2c-2,2-4,3.1-5.7,4.5c-1.7,1.4-3.4,2.7-5,4.1c-1.7,1.5-3.4,3-5.1,4.6
		c-1.7,1.6-3.3,3.2-4.9,4.8c-1.6,1.6-3.1,3.3-4.6,5.1c-1.4,1.6-2.8,3.3-4.1,5C211.5,166.8,210.1,168.6,208.8,170.3z"/>
	<path class="st0" d="M241.6,363.4c-21.2-1.6-40.4-8.7-58-21.1c0.4-0.5,0.6-1,0.9-1.2c7.5-4.6,15.3-8.5,23.6-11.3
		c0.1,0,0.2,0,0.7,0.1c2.3,2.9,4.7,6,7.3,8.9c2.6,3,5.2,5.9,8,8.6c2.8,2.8,5.7,5.4,8.7,7.9c3,2.5,6.1,4.8,9.1,7.2
		C241.9,362.9,241.7,363.1,241.6,363.4z"/>
	<path class="st0" d="M285.9,327.9c-4.3,8.8-25.4,28.6-32.9,31.6c-0.1-0.1-0.3-0.1-0.3-0.2c-0.1-0.1-0.1-0.2-0.1-0.3
		c0-11.1-0.1-22.3-0.1-33.4c0-0.6,0-1.3,0.1-1.9c0-0.2,0.2-0.4,0.3-0.7C259,321.9,276.8,324.5,285.9,327.9z"/>
	<path class="st0" d="M252.3,140.3c9,3.9,29.7,23.8,33.4,31.7c-0.3,0.2-0.5,0.6-0.8,0.7c-9.5,2.8-19.2,4.5-29.2,4.8
		c-1,0-2-0.1-3-0.2c-0.1-0.6-0.3-1.1-0.3-1.6C252.3,164,252.3,152.3,252.3,140.3z"/>
	<path class="st0" d="M213.9,328c9.4-3.5,26.9-6.1,33.3-5c0.1,0.3,0.3,0.7,0.3,1c0,11.8,0,23.6,0,35.3c-1.1,0.7-1.8-0.1-2.5-0.6
		c-7-4.8-13.5-10.3-19.4-16.4c-3.5-3.7-6.7-7.6-10-11.5C215.1,330,214.6,329.1,213.9,328z"/>
	<path class="st0" d="M247.4,177.1c-7.1,1-25.1-1.7-33.1-4.9c-0.4-1.2,0.6-1.8,1.2-2.6c7.4-9.6,15.9-18.1,25.6-25.3
		c1.4-1.1,2.9-2.1,4.3-3.1c0.5-0.3,1.1-0.5,1.5-0.7c0.3,0.2,0.5,0.3,0.5,0.4c0.1,0.1,0.1,0.2,0.1,0.4c0,11.4,0.1,22.8,0.1,34.2
		C247.6,175.8,247.5,176.3,247.4,177.1z"/>
	<path d="M246.6,295.3c-3.8,0-7.3,0-10.8,0c-0.6-0.8,0-1.2,0.4-1.7c2.2-2.5,4.3-5,6.5-7.5c0.6-0.8,1.2-1.6,2.1-2.7
		c-0.9,0-1.3-0.1-1.8,0c-6.4,1-12.7-3.2-14.4-10.3c-2-8.6,2.8-16.1,11.3-18.2c3.5-0.8,7-0.8,10.6,0.1c8.3,2.1,12.8,9.4,11,17.7
		c-0.6,2.9-1.7,5.6-3.3,8C254.7,286,250.5,290.6,246.6,295.3z M251.7,269c-0.1-3.6-3-6.5-6.6-6.5c-3.7,0-6.7,3.3-6.6,6.9
		c0.2,3.5,3.3,6.3,6.9,6.2C249,275.7,251.7,272.7,251.7,269z"/>
	<path d="M318.2,295.3c-3.4,0-7,0-10.5,0c-0.6-0.7,0-1.2,0.3-1.7c2.2-2.6,4.5-5.2,6.7-7.8c0.6-0.7,1.1-1.4,1.9-2.4
		c-0.9,0-1.3-0.1-1.8,0c-7,1.2-13.7-3.9-14.7-11.6c-1.1-8.4,3.6-15,11.9-16.8c4.1-0.9,8.1-0.7,12,0.7c7.3,2.7,11,9.4,9.3,17
		c-0.7,3.1-1.9,6-3.7,8.7C328.3,283.6,320.5,293,318.2,295.3z M317.1,262.6c-3.5-0.1-6.6,2.8-6.8,6.4c-0.2,3.5,2.8,6.6,6.3,6.8
		c3.8,0.2,6.9-2.9,7-6.5C323.7,265.8,320.6,262.7,317.1,262.6z"/>
	<path d="M219,255.8c-3.2,4.4-6.7,7.7-9.9,11.9c2.5-0.4,4.4-0.7,6.3-0.2c8.3,2,11.2,9.8,10.5,15.5c-0.8,6.4-4.9,11.2-11.4,12.8
		c-4.1,1-8.3,1-12.4-0.5c-7.4-2.6-11-9.2-9.6-16.8c0.7-3.8,2.3-7.3,4.7-10.3c3-3.8,6.1-7.5,9.1-11.2c0.6-0.7,1.2-1.4,2.2-1.4
		c2.4,0,4.8,0,7.2,0C216.6,255.6,217.5,255.7,219,255.8z M209,275c-3.5,0.1-6.5,3.1-6.5,6.7c0,3.6,3,6.6,6.5,6.6
		c3.6,0.1,6.8-3.2,6.7-6.9C215.6,278,212.4,275,209,275z"/>
	<path d="M292.8,279.1c0.8,0.1,1.4,0.2,2,0.3c0.6,0.1,1.3,0.1,2,0.1c0.9,2.3,0.4,4.7,0.3,7.3c-1.4,0.2-2.7,0.4-4.2,0.7
		c-0.9,2.4,0,5-0.6,7.6c-3,0.6-5.9,0.4-9,0.1c-0.8-2.6,0-5.2-0.7-7.7c-3.1-0.7-6.1-0.3-9.2-0.3c-3-0.1-6.1,0-9.3,0
		c-0.6-2.9-1.1-5.6,0.5-8.2c4.6-7.5,9.1-14.9,13.7-22.4c0.1-0.2,0.4-0.3,0.9-0.8c4-0.3,8.3-0.2,12.9,0c0.1,1.2,0.3,2.2,0.3,3.1
		c0,5.5,0,10.9,0,16.4C292.6,276.4,292.7,277.7,292.8,279.1z M282.8,265.5c-0.2-0.1-0.5-0.2-0.7-0.2c-2.6,4-4.9,8.2-7.2,12.3
		c-0.2,0.4-0.3,0.9-0.5,1.6c3,0.2,5.7,0.5,8.4-0.3C282.8,274.3,282.8,269.9,282.8,265.5z"/>
	<path d="M233.3,238.4c-6.3,0-11.3-2.2-14.7-7.5c-5.5-8.4-2.2-22.2,10.8-24.8c4-0.8,7.8-0.4,11.5,1.3c7.1,3.2,10.2,10.6,9.1,17.2
		c-1.2,7.2-6.7,12.7-13.9,13.6C235.2,238.4,234.2,238.4,233.3,238.4z M233.1,230.7c4.9,0,8.8-3.7,8.9-8.5c0-4.8-3.8-8.6-8.8-8.5
		c-4.8,0-8.5,3.6-8.6,8.3C224.4,226.8,228.1,230.7,233.1,230.7z"/>
	<path d="M322.2,208.4c-0.9,2.1-1.7,4-3,5.7c-1.3-0.5-2.4-1-3.6-1.4c-1.3-0.4-2.5-0.4-3.7,0.3c-1.7,0.9-1.8,3-0.3,4
		c0.8,0.5,1.8,0.9,2.8,1.3c1.3,0.5,2.7,0.9,3.9,1.4c3.5,1.6,5.3,4.3,5.3,8.1c0,3.8-1.4,6.9-4.8,8.9c-0.9,0.5-1.8,1-2.8,1.2
		c-5.3,1.1-10.3,0.6-15-2.9c0.9-2.1,1.8-4.1,3.3-6c1.1,0.6,2.1,1.2,3.1,1.7c1.5,0.8,3.1,1.1,4.8,0.9c1.6-0.2,2.7-1.1,3-2.5
		c0.2-1.1-0.4-2.3-1.8-3c-0.9-0.5-1.9-0.8-2.8-1.1c-0.8-0.3-1.7-0.6-2.5-0.9c-3.6-1.3-5.8-3.7-5.9-7.6c-0.1-4.1,1.3-7.5,5.2-9.4
		c1.7-0.9,3.6-1.3,5.5-1.2C316,206,319.2,206.5,322.2,208.4z"/>
	<path d="M189.7,234.8c1-2.1,1.9-4,3.3-5.8c1.1,0.6,2.1,1.2,3.1,1.7c1.6,0.9,3.4,1.1,5.2,0.8c1.4-0.2,2.4-1.2,2.6-2.4
		c0.2-1.3-0.4-2.2-1.5-2.8c-0.8-0.4-1.6-0.7-2.4-1c-1.1-0.4-2.2-0.7-3.2-1.2c-4.1-1.6-5.8-4-5.9-8c0-4.3,2.2-7.9,5.9-9.3
		c1.3-0.5,2.7-0.7,4.1-0.9c2.9-0.3,6.8,0.8,9.9,2.6c-0.6,2-1.6,3.9-2.8,5.7c-1.3-0.5-2.4-1-3.6-1.4c-1.3-0.4-2.5-0.3-3.7,0.4
		c-1.7,1-1.8,3-0.2,4c0.8,0.5,1.8,0.9,2.8,1.2c1.3,0.5,2.6,0.9,3.9,1.5c3.5,1.5,5.3,4.3,5.3,8.1c0,3.8-1.4,7-4.8,8.9
		c-0.8,0.4-1.6,0.8-2.4,1.1C200.3,239.4,194.3,238.2,189.7,234.8z"/>
	<path d="M171.9,264.5c-1.1-0.1-1.9-0.2-2.8-0.3c-0.8-0.1-1.7-0.1-2.7-0.2c-0.2-2.7-0.2-5.2,0-7.8c2.6-1,5.3-0.4,7.9-0.5
		c2.5-0.1,5,0,7.7,0.1c0.2,0.8,0.4,1.4,0.4,2c0,11.9,0,23.8,0,35.7c0,0.5-0.1,1-0.2,1.6c-3.1,0.7-6.2,0.2-9.2,0.3
		c-1.1-1.2-0.7-2.4-0.7-3.5c0-7.8,0-15.7,0-23.5C172.1,267.1,171.9,265.9,171.9,264.5z"/>
	<path d="M298.4,207.1c0.3,2,0.3,3.8,0.1,5.7c-2,1-4.1,0.1-6.3,1c-0.1,0.9-0.3,1.9-0.3,2.9c0,5.6,0,11.1,0,16.7c0,1.2-0.1,2.5-0.2,4
		c-2.5,0.3-4.9,0.3-7.4,0c-0.1-1.1-0.3-2.1-0.3-3.1c0-5.6,0-11.1,0-16.7c0-1.2-0.1-2.5-0.2-3.9c-2.2-0.2-4.1-0.4-6.2-0.6
		c-0.4-2-0.3-3.9-0.1-6c2.3-0.7,4.5-0.3,6.8-0.4c2.4-0.1,4.8-0.1,7.2,0C293.7,206.8,296,206.4,298.4,207.1z"/>
	<path d="M176.6,207c2.7-0.5,5-0.4,7.3-0.1c0.2,0.6,0.4,1,0.4,1.3c0,9.1,0,18.2,0,27.3c0,0.5-0.1,1-0.2,1.4c-3,0.7-4.4,0.7-7.5,0.1
		c-0.1-0.3-0.3-0.7-0.3-1c0-9.1,0-18.2,0-27.3C176.3,208.3,176.4,207.8,176.6,207z"/>
	<path d="M269.4,203.5c1,0,2.2,0,3.3,0c0.5,0,1,0.2,1.6,0.3c-0.1,0.6,0,1.1-0.2,1.5c-5.2,12.8-10.5,25.5-15.7,38.2
		c-0.1,0.2-0.3,0.4-0.5,0.8c-1.6,0.6-3.3,0.5-4.9,0.1c-0.1-0.3-0.2-0.4-0.3-0.5c0-0.1,0-0.3,0-0.4c5.2-12.9,10.5-25.8,15.7-38.6
		C268.7,204.6,269,204.2,269.4,203.5z"/>
	<path class="st0" d="M251.7,269c0.1,3.7-2.7,6.6-6.3,6.7c-3.6,0.1-6.7-2.7-6.9-6.2c-0.2-3.7,2.9-6.9,6.6-6.9
		C248.6,262.6,251.6,265.4,251.7,269z"/>
	<path class="st0" d="M317.1,262.6c3.5,0.1,6.6,3.2,6.5,6.6c-0.1,3.7-3.2,6.8-7,6.5c-3.5-0.2-6.5-3.4-6.3-6.8
		C310.5,265.4,313.6,262.5,317.1,262.6z"/>
	<path class="st0" d="M209,275c3.5-0.1,6.6,3,6.7,6.5c0.1,3.7-3,6.9-6.7,6.9c-3.5,0-6.5-3.1-6.5-6.6
		C202.5,278.2,205.5,275.1,209,275z"/>
	<path class="st0" d="M282.8,265.5c0,4.4,0,8.8,0,13.3c-2.8,0.8-5.5,0.5-8.4,0.3c0.2-0.7,0.2-1.2,0.5-1.6c2.4-4.1,4.6-8.3,7.2-12.3
		C282.3,265.4,282.6,265.5,282.8,265.5z"/>
	<path class="st0" d="M233.1,230.7c-4.9,0-8.7-3.9-8.6-8.7c0.1-4.7,3.8-8.3,8.6-8.3c5,0,8.8,3.7,8.8,8.5
		C241.9,227,238,230.7,233.1,230.7z"/>
</g>
</svg>
