<?xml version="1.0" encoding="utf-8"?>
<!-- Generator: Adobe Illustrator 27.5.0, SVG Export Plug-In . SVG Version: 6.00 Build 0)  -->
<svg version="1.1" xmlns="http://www.w3.org/2000/svg" xmlns:xlink="http://www.w3.org/1999/xlink" x="0px" y="0px"
	 viewBox="0 0 4100 4100" style="enable-background:new 0 0 4100 4100;" xml:space="preserve">
<g id="_x2018_ëîé_x5F_4">
	<rect style="fill:#FEFFFD;" width="4100" height="4100"/>
</g>
<g id="_x2018_ëîé_x5F_27">
	<g>
		<path style="fill:#8FBA2F;" d="M3115.13,994.201C2434.102,303.86,1047.76,520.932,684.199,1354.839
			c-122.046,279.939-211.366,676.422-181.352,944.159c61.503,548.562,429.446,819.433,903.567,1047.432
			c525.803,252.854,1146.432,250.729,1603.291-170.987c372.983-344.296,712.436-938.604,552.878-1457.654
			C3475.044,1433.034,3327.384,1209.357,3115.13,994.201z"/>
	</g>
</g>
<g id="_x2018_ëîé_x5F_3">
	<g>
		<g>
			<g>
				<g>
					<path style="fill:#FEFFFD;" d="M2037.392,3268.927l-12.938-39.811c-1.377-4.245-5.331-7.117-9.793-7.117h-41.862
						c-9.978,0-14.127-12.768-6.055-18.631l33.869-24.605c3.61-2.623,5.118-7.273,3.741-11.518l-12.938-39.811
						c-3.081-9.488,7.777-17.378,15.848-11.515l33.869,24.605c3.61,2.623,8.498,2.623,12.107,0l33.865-24.605
						c8.072-5.864,18.933,2.027,15.848,11.515l-12.934,39.811c-1.381,4.245,0.131,8.895,3.741,11.518l33.866,24.605
						c8.072,5.864,3.922,18.631-6.055,18.631h-41.859c-4.462,0-8.416,2.872-9.796,7.117l-12.934,39.811
						C2053.897,3278.415,2040.473,3278.415,2037.392,3268.927z"/>
				</g>
				<g>
					<path style="fill:#FEFFFD;" d="M2367.323,3203.646l-14.943-23.011c-1.594-2.453-4.586-3.599-7.411-2.843l-26.5,7.099
						c-6.314,1.693-11.106-5.686-6.992-10.765l17.265-21.322c1.842-2.275,2.009-5.473,0.415-7.926l-14.94-23.011
						c-3.564-5.484,1.973-12.32,8.079-9.978l25.613,9.832c2.733,1.047,5.825,0.22,7.667-2.052l17.265-21.325
						c4.117-5.079,12.331-1.927,11.987,4.604l-1.434,27.399c-0.153,2.921,1.59,5.608,4.32,6.655l25.616,9.832
						c6.105,2.343,5.644,11.131-0.675,12.821l-26.5,7.103c-2.826,0.756-4.841,3.248-4.994,6.165l-1.434,27.398
						C2379.38,3206.851,2370.883,3209.13,2367.323,3203.646z"/>
				</g>
				<g>
					<path style="fill:#FEFFFD;" d="M2672.449,3080.681l-20.392-18.358c-2.172-1.956-5.36-2.293-7.89-0.831l-23.76,13.719
						c-5.665,3.269-12.203-2.616-9.541-8.59l11.156-25.066c1.193-2.669,0.525-5.803-1.647-7.763l-20.392-18.358
						c-4.86-4.376-1.281-12.413,5.225-11.728l27.285,2.868c2.907,0.305,5.683-1.299,6.872-3.968l11.159-25.067
						c2.659-5.974,11.412-5.054,12.771,1.342l5.704,26.838c0.607,2.861,2.989,5.005,5.896,5.31l27.288,2.868
						c6.502,0.685,8.331,9.289,2.669,12.558l-23.76,13.719c-2.534,1.462-3.837,4.391-3.23,7.251l5.704,26.834
						C2684.925,3080.656,2677.308,3085.058,2672.449,3080.681z"/>
				</g>
				<g>
					<path style="fill:#FEFFFD;" d="M1412.33,3068.56l5.704-26.834c0.61-2.861-0.692-5.789-3.227-7.251l-23.76-13.719
						c-5.661-3.269-3.833-11.873,2.669-12.558l27.285-2.868c2.911-0.305,5.292-2.449,5.899-5.31l5.704-26.838
						c1.359-6.396,10.109-7.315,12.771-1.342l11.156,25.066c1.193,2.669,3.965,4.274,6.875,3.968l27.285-2.868
						c6.503-0.685,10.081,7.351,5.221,11.728l-20.388,18.358c-2.172,1.959-2.839,5.094-1.65,7.763l11.159,25.066
						c2.659,5.974-3.88,11.859-9.541,8.59l-23.76-13.719c-2.534-1.462-5.718-1.125-7.894,0.831l-20.388,18.358
						C1418.592,3079.357,1410.971,3074.956,1412.33,3068.56z"/>
				</g>
				<g>
					<path style="fill:#FEFFFD;" d="M1715.036,3197.37l-1.434-27.398c-0.156-2.921-2.172-5.409-4.994-6.166l-26.504-7.103
						c-6.314-1.693-6.776-10.478-0.671-12.821l25.613-9.832c2.73-1.051,4.476-3.738,4.324-6.655l-1.438-27.402
						c-0.341-6.528,7.873-9.683,11.99-4.6l17.265,21.322c1.839,2.272,4.934,3.102,7.663,2.055l25.617-9.832
						c6.105-2.343,11.642,4.494,8.078,9.978l-14.943,23.011c-1.59,2.453-1.423,5.651,0.415,7.922l17.268,21.322
						c4.114,5.083-0.678,12.462-6.993,10.769l-26.504-7.099c-2.822-0.76-5.814,0.39-7.408,2.843l-14.943,23.008
						C1723.878,3206.177,1715.381,3203.901,1715.036,3197.37z"/>
				</g>
			</g>
		</g>
		<g>
			<g>
				<g>
					<g>
						<path style="fill:#FEFFFD;" d="M2059.235,1102.779c37.075-77.973,108.157-137.814,188.497-174.128
							c80.344-36.313,209.953-58.813,298.53-62.697c-5.689,104.183-52.873,220.565-105.053,311.849
							c-45.358,79.345-204.858,213.656-307.682,206.495c-3.164-0.22-6.22-0.598-9.206-1.063
							c40.279-92.824,85.438-158.109,161.651-226.753c10.703-9.639,11.672-26.34,1.72-36.7
							c-9.949-10.352-27.063-10.458-37.766-0.813c-80.894,72.85-129.901,143.153-173.083,241.488
							C2016.563,1304.001,2030.387,1163.451,2059.235,1102.779z"/>
					</g>
				</g>
			</g>
			<g>
				<g>
					<g>
						<path style="fill:#FEFFFD;" d="M1880.613,1007.345c64.205,69.265,147.647,259.64,109.238,347.907
							c-4.463,10.256-10.334,18.67-17.29,25.536c-94.291-83.081-151.282-158.779-190.69-275.899
							c-4.529-13.452-19.463-20.806-33.359-16.424c-13.897,4.383-21.493,18.84-16.965,32.296
							c39.976,118.806,96.265,196.517,189.501,283.428c-75.96,10.245-185.797-44.51-230.745-86.748
							c-65.38-61.438-102.553-146.276-113.759-230.647c-11.208-84.373,2.376-193.295,25.578-273.028
							C1702.854,857.094,1806.752,927.659,1880.613,1007.345z"/>
					</g>
				</g>
			</g>
		</g>
	</g>
</g>
<g id="_x2018_ëîé_x5F_28">
	<g>
		<path style="fill:#FEFFFD;" d="M1526.998,994.398l2.552,7.306c0.43,1.182,0.779,2.256,1.047,3.331h0.081
			c0.295-1.074,0.671-2.149,1.101-3.331l2.525-7.306h2.471l-5.104,13h-2.256l-4.942-13H1526.998z"/>
	</g>
	<g>
		<path style="fill:#FEFFFD;" d="M1703.937,1854.579c7.24,0,12.308,1.448,15.204,4.344s4.344,7.964,4.344,15.204v92.672
			c0,52.128-17.738,93.883-53.214,125.252c-35.476,31.381-85.319,47.061-149.506,47.061c-64.685,0-114.641-16.403-149.868-49.232
			c-35.239-32.817-52.852-78.192-52.852-136.112v-165.072c0-57.92,17.613-103.283,52.852-136.112
			c35.227-32.817,85.183-49.232,149.868-49.232c102.808,0,167.719,41.03,194.756,123.08c3.857,12.07-0.249,20.272-12.308,24.616
			l-29.684,10.136c-6.765,2.421-11.946,2.783-15.566,1.086c-3.62-1.686-6.641-5.905-9.05-12.67
			c-9.175-27.512-23.892-47.897-44.164-61.178c-20.272-13.27-48.271-19.91-83.984-19.91c-42.965,0-75.782,10.385-98.464,31.132
			c-22.693,20.758-34.028,50.205-34.028,88.328v165.796c0,38.134,11.459,67.694,34.39,88.69
			c22.919,20.996,55.624,31.494,98.102,31.494c41.992,0,74.686-9.774,98.102-29.322c23.406-19.548,35.114-45.487,35.114-77.83
			v-47.06h-125.252c-7.24,0-12.195-1.323-14.842-3.982c-2.658-2.647-3.982-7.602-3.982-14.842v-27.512
			c0-6.753,1.324-11.584,3.982-14.48c2.647-2.896,7.602-4.344,14.842-4.344H1703.937z"/>
		<path style="fill:#FEFFFD;" d="M2266.477,1614.211c6.754,0,11.584,1.448,14.48,4.344c2.896,2.896,4.344,7.726,4.344,14.48v476.392
			c0,6.765-1.448,11.584-4.344,14.479c-2.896,2.896-7.727,4.345-14.48,4.345h-28.96c-7.24,0-12.194-1.448-14.842-4.345
			c-2.659-2.896-3.982-7.715-3.982-14.479v-261.364c0-40.058,4.345-85.432,13.032-136.112h-3.62
			c-14.005,37.648-33.304,78.192-57.92,121.632l-91.948,163.624c-5.316,9.174-12.794,13.756-22.443,13.756h-18.101
			c-9.661,0-17.138-4.582-22.444-13.756l-93.396-165.072c-20.994-35.772-38.917-75.313-53.769-118.63
			c-0.318-0.927-1.188-1.554-2.169-1.554l0,0c-1.418,0-2.492,1.273-2.261,2.672c7.419,44.951,11.139,89.424,11.139,133.44v261.364
			c0,6.765-1.334,11.584-3.982,14.479c-2.658,2.896-7.602,4.345-14.842,4.345h-27.512c-6.765,0-11.584-1.448-14.48-4.345
			c-2.896-2.896-4.344-7.715-4.344-14.479v-476.392c0-6.754,1.448-11.584,4.344-14.48s7.715-4.344,14.48-4.344h25.34
			c7.715,0,13.27,0.973,16.652,2.896c3.371,1.935,6.753,5.792,10.136,11.584l166.52,296.116l165.796-295.392
			c3.371-6.267,6.629-10.374,9.774-12.308c3.134-1.923,8.563-2.896,16.29-2.896H2266.477z"/>
		<path style="fill:#FEFFFD;" d="M2377.244,1788.695c0-57.92,17.613-103.283,52.852-136.112
			c35.227-32.817,85.184-49.232,149.867-49.232c64.674,0,114.631,16.415,149.869,49.232c35.227,32.829,52.852,78.192,52.852,136.112
			v165.072c0,57.92-17.625,103.294-52.852,136.112c-35.238,32.829-85.195,49.232-149.869,49.232
			c-64.684,0-114.641-16.403-149.867-49.232c-35.238-32.817-52.852-78.192-52.852-136.112V1788.695z M2712.455,1788.695
			c0-38.609-11.471-68.293-34.389-89.052c-22.932-20.747-55.635-31.132-98.104-31.132c-42.479,0-75.182,10.385-98.102,31.132
			c-22.93,20.758-34.39,50.442-34.39,89.052v165.072c0,38.621,11.46,68.305,34.39,89.052c22.92,20.759,55.623,31.132,98.102,31.132
			c42.469,0,75.172-10.374,98.104-31.132c22.918-20.747,34.389-50.431,34.389-89.052V1788.695z"/>
		<path style="fill:#FEFFFD;" d="M1655.354,2377.551c8.737,0,14.82,1.71,18.24,5.131c3.42,3.42,5.13,9.502,5.13,18.239v38.19
			c0,8.746-1.71,14.73-5.13,17.955c-3.42,3.232-9.503,4.845-18.24,4.845h-159.6v81.51h131.1c8.737,0,14.82,1.71,18.24,5.13
			s5.13,9.503,5.13,18.24v38.19c0,8.745-1.71,14.73-5.13,17.954c-3.42,3.233-9.503,4.846-18.24,4.846h-131.1v131.1
			c0,8.746-1.71,14.82-5.13,18.24c-3.42,3.42-9.503,5.13-18.24,5.13h-46.17c-8.746,0-14.82-1.71-18.24-5.13s-5.13-9.494-5.13-18.24
			v-357.96c0-8.737,1.71-14.819,5.13-18.239c3.42-3.421,9.494-5.131,18.24-5.131H1655.354z"/>
		<path style="fill:#FEFFFD;" d="M1908.999,2377.551c41.414,0,74.189,11.596,98.325,34.77c24.127,23.184,36.195,55.291,36.195,96.33
			c0,57.767-22.043,96.714-66.12,116.851c1.14,1.523,5.13,8.176,11.97,19.95l58.71,112.29c4.177,6.84,5.317,12.638,3.42,17.385
			c-1.905,4.756-7.036,7.125-15.39,7.125h-45.6c-14.446,0-24.991-1.514-31.635-4.56c-6.653-3.037-12.068-8.925-16.245-17.671
			l-42.18-87.779c-6.466-13.297-13.395-22.23-20.805-26.79c-7.41-4.561-19.291-6.84-35.625-6.84h-23.37v120.27
			c0,8.746-1.71,14.82-5.13,18.24c-3.42,3.42-9.503,5.13-18.24,5.13h-46.17c-8.746,0-14.82-1.71-18.24-5.13s-5.13-9.494-5.13-18.24
			v-357.96c0-8.737,1.71-14.819,5.13-18.239c3.42-3.421,9.494-5.131,18.24-5.131H1908.999z M1934.934,2543.136
			c8.167-8.167,12.255-19.665,12.255-34.485c0-14.819-4.088-26.309-12.255-34.484c-8.176-8.167-19.861-12.255-35.055-12.255h-79.23
			v93.479h79.23C1915.073,2555.391,1926.758,2551.312,1934.934,2543.136z"/>
		<path style="fill:#FEFFFD;" d="M2354.164,2377.551c8.736,0,14.82,1.71,18.24,5.131c3.42,3.42,5.129,9.502,5.129,18.239v38.19
			c0,8.746-1.709,14.73-5.129,17.955c-3.42,3.232-9.504,4.845-18.24,4.845h-159.6v73.53h131.1c8.736,0,14.82,1.62,18.24,4.845
			c3.42,3.232,5.129,9.218,5.129,17.955v38.189c0,8.746-1.709,14.82-5.129,18.24s-9.504,5.13-18.24,5.13h-131.1v77.521h165.299
			c8.354,0,14.34,1.808,17.955,5.415c3.607,3.615,5.416,9.601,5.416,17.955v38.189c0,8.746-1.711,14.82-5.131,18.24
			s-9.503,5.13-18.24,5.13h-234.84c-8.746,0-14.82-1.71-18.24-5.13s-5.129-9.494-5.129-18.24v-357.96
			c0-8.737,1.709-14.819,5.129-18.239c3.42-3.421,9.494-5.131,18.24-5.131H2354.164z"/>
		<path style="fill:#FEFFFD;" d="M2687.044,2377.551c8.736,0,14.819,1.71,18.239,5.131c3.421,3.42,5.131,9.502,5.131,18.239v38.19
			c0,8.746-1.71,14.73-5.131,17.955c-3.42,3.232-9.503,4.845-18.239,4.845h-159.601v73.53h131.101c8.736,0,14.819,1.62,18.239,4.845
			c3.421,3.232,5.131,9.218,5.131,17.955v38.189c0,8.746-1.71,14.82-5.131,18.24c-3.42,3.42-9.503,5.13-18.239,5.13h-131.101v77.521
			h165.301c8.354,0,14.339,1.808,17.954,5.415c3.607,3.615,5.415,9.601,5.415,17.955v38.189c0,8.746-1.71,14.82-5.13,18.24
			s-9.503,5.13-18.239,5.13h-234.84c-8.746,0-14.82-1.71-18.24-5.13s-5.131-9.494-5.131-18.24v-357.96
			c0-8.737,1.711-14.819,5.131-18.239c3.42-3.421,9.494-5.131,18.24-5.131H2687.044z"/>
	</g>
</g>
</svg>
