<?xml version="1.0" encoding="utf-8"?>
<!-- Generator: Adobe Illustrator 27.5.0, SVG Export Plug-In . SVG Version: 6.00 Build 0)  -->
<svg version="1.1" id="Layer_1" xmlns="http://www.w3.org/2000/svg" xmlns:xlink="http://www.w3.org/1999/xlink" x="0px" y="0px"
	 viewBox="0 0 2000 2000" style="enable-background:new 0 0 2000 2000;" xml:space="preserve">
<g>
	<rect style="fill:#FFFFFF;" width="2000" height="2000"/>
</g>
<g>
	<path style="fill:#69B72C;" d="M648.607,710.758l-30.334,41.56c-18.499,25.344-34.863,28.02-57.755,11.312l-29.705-21.682
		c-25.89-18.897-26.993-33.695-8.195-59.449l30.334-41.56c17.107-23.437,32.049-29.03,58.62-9.636l29.705,21.682
		C664.85,670.191,667.902,684.323,648.607,710.758z M603.447,733.142l21.881-29.978c10.542-14.443,9.795-20.001-3.013-29.35
		l-25.208-18.399c-13.762-10.045-20.278-7.7-30.124,5.79l-21.284,29.16c-10.344,14.171-9.685,20.708,3.805,30.555l25.208,18.399
		C587.111,748.37,593.402,746.904,603.447,733.142z"/>
	<path style="fill:#69B72C;" d="M774.187,603.7l-10.372-14.978c-6.531-9.431-14.405-10.134-27.719-0.914l-44.657,30.924
		l19.784,28.569l-23.022,15.942l-66.651-96.249l73.088-50.613c19.971-13.83,38.77-17.203,57.689,10.118
		c10.18,14.701,7.567,25.744,3.375,34.802c11.778-3.437,20.474-3.918,27.676,6.484l13.83,19.971L774.187,603.7z M678.186,599.594
		l48.124-33.326c9.847-6.819,10.198-13.423,2.995-23.825c-7.011-10.124-13.092-12.684-23.355-5.577l-48.125,33.326L678.186,599.594z
		"/>
	<path style="fill:#69B72C;" d="M931.968,476.483l8.161,30.123c7.367,27.192-2.093,39.368-31.239,47.264l-54.709,14.822
		c-27.681,7.5-44.728,0.058-52.139-27.297l-9.396-34.682c-8.205-30.286,1.095-44.341,30.567-52.326l54.221-14.689
		c27.355-7.411,43.286-4.736,50.917,23.433l-27.029,7.323c-2.338-8.63-8.519-10.8-24.801-6.389l-39.893,10.808
		c-16.283,4.411-20.614,11.003-16.026,27.937l7.764,28.658c4.147,15.306,8.818,17.71,26.729,12.858l44.452-12.043
		c13.515-3.661,16.289-8.258,14.083-16.399l-3.264-12.049L865.75,515.92l-5.426-20.027L931.968,476.483z"/>
	<path style="fill:#69B72C;" d="M960.043,540.212l72.334-111.032l41.331,3.724l50.82,122.127l-32.763-2.952l-12.305-30.75
		l-69.054-6.221l-17.77,28.04L960.043,540.212z M1070.188,498.305l-18.272-45.346l-1.345-0.121l-26.923,41.274L1070.188,498.305z"/>
	<path style="fill:#69B72C;" d="M1229.687,475.931l22.032,115.775l3.473,1.73l41.835-83.948l25.063,12.49l-52.218,104.784
		l-43.031-21.444l-21.127-115.324l-3.473-1.73l-41.834,83.948l-25.063-12.49l52.218-104.784L1229.687,475.931z"/>
	<path style="fill:#69B72C;" d="M1310.308,667.814l-21.082-18.43l77.05-88.137l21.082,18.43L1310.308,667.814z"/>
	<path style="fill:#69B72C;" d="M1443.773,770.371c-25.56,17.906-37.519,17.077-57.514-11.138l-30.138-42.529
		c-18.727-26.426-16.556-40.576,9.044-58.717l27.114-19.214c27.939-19.799,42.125-16.413,62.021,11.665l26.92,37.987
		c15.995,22.572,19.572,41.333-7.267,60.352l-16.19-22.847c10.048-7.12,10.705-15.236,1.342-28.449l-20.774-29.316
		c-10.826-15.277-15.685-16.59-30.687-5.958l-23.673,16.776c-14.59,10.338-13.539,17.657-4.272,30.732l20.774,29.316
		c9.656,13.626,15.449,16.55,27.011,8.357L1443.773,770.371z"/>
</g>
<g>
	<path style="fill:#69B72C;" d="M543.216,1339.371l-16.34-19.876l83.097-68.313l46.56,56.635
		c17.226,20.954,15.876,35.909-5.078,53.136c-21.172,17.204-36.444,15.713-53.276-4.762l-30.416-36.998L543.216,1339.371z
		 M611.552,1338.775c8.269,10.058,14.583,9.683,23.563,2.301c8.142-6.694,10.505-12.851,1.941-23.268l-27.267-33.167l-25.503,20.967
		L611.552,1338.775z"/>
	<path style="fill:#69B72C;" d="M707.097,1488.518l9.519-13.771c5.993-8.67,4.047-15.668-8.193-24.129l-41.056-28.38l-18.156,26.266
		l-21.166-14.63l61.166-88.487l67.194,46.447c18.36,12.691,27.351,27.762,9.988,52.88c-9.342,13.516-19.684,14.847-28.83,14.177
		c6.771,9.014,10.001,16.334,3.391,25.896l-12.691,18.36L707.097,1488.518z M679.53,1404.644l44.244,30.582
		c9.052,6.258,14.845,4.421,21.455-5.142c6.434-9.308,6.665-15.366-2.77-21.889l-44.244-30.583L679.53,1404.644z"/>
	<path style="fill:#69B72C;" d="M852.017,1549.46l-45.078-14.251c-27.49-8.69-34.612-22.158-26.763-46.988l10.186-32.22
		c8.877-28.081,21.443-33.376,49.376-24.545l45.078,14.25c25.421,8.036,34.667,19.413,25.557,48.233l-10.186,32.22
		C892.104,1551.728,880.69,1558.524,852.017,1549.46z M819.299,1516.683l32.515,10.278c15.667,4.953,20.288,2.675,24.68-11.218
		l8.644-27.343c4.719-14.928,0.769-19.915-13.863-24.541l-31.628-9.998c-15.371-4.859-20.872-2.372-25.498,12.26l-8.644,27.343
		C801.253,1506.914,804.371,1511.963,819.299,1516.683z"/>
	<path style="fill:#69B72C;" d="M1021.232,1461.161c26.348,0.428,37.95,11.469,37.489,39.83l-0.463,28.518
		c-0.453,27.896-10.876,39.664-38.618,39.214l-83.226-1.353l1.747-107.559L1021.232,1461.161z M1008.829,1547.153
		c19.218,0.313,23.491-5.044,23.7-17.908l0.458-28.207c0.196-12.088-4.353-18.363-23.105-18.668l-46.34-0.753l-1.052,64.783
		L1008.829,1547.153z"/>
	<path style="fill:#69B72C;" d="M1095.916,1452.292l18.928,64.068c4.216,14.271,11.286,16.869,24.517,12.96l34.041-10.056
		c12.189-3.602,16.625-9.922,12.453-24.044l-18.883-63.92l24.676-7.29l19.63,66.447c8.036,27.203,0.59,39.747-26.019,47.607
		l-45.339,13.395c-26.014,7.685-41.672-0.458-49.05-25.432l-19.63-66.446L1095.916,1452.292z"/>
	<path style="fill:#69B72C;" d="M1346.201,1407.765c15.738,23.97,14.646,34.93-11.821,52.513l-39.893,26.503
		c-24.788,16.468-37.725,14.083-53.678-9.931l-16.896-25.434c-17.411-26.208-13.908-39.143,12.429-56.64l35.634-23.672
		c21.173-14.066,38.502-16.833,55.227,8.343l-21.432,14.237c-6.261-9.425-13.696-10.253-26.091-2.02l-27.499,18.27
		c-14.331,9.521-15.67,13.945-6.321,28.019l14.752,22.206c9.092,13.685,15.843,12.922,28.107,4.773l27.499-18.269
		c12.781-8.491,15.627-13.731,8.423-24.576L1346.201,1407.765z"/>
	<path style="fill:#69B72C;" d="M1390.258,1252.253l16.314,13.833l-29.369,34.64l65.733,55.73l-16.639,19.626l-65.733-55.731
		l-29.068,34.286l-16.314-13.833L1390.258,1252.253z"/>
</g>
<g>
	<path style="fill:#69B72C;" d="M1000,1649.777c-87.713,0-172.81-17.182-252.927-51.068
		c-77.376-32.728-146.865-79.577-206.535-139.247c-59.67-59.67-106.52-129.158-139.247-206.534
		c-33.887-80.117-51.068-165.214-51.068-252.927s17.182-172.81,51.068-252.927c32.728-77.376,79.577-146.865,139.247-206.535
		c59.67-59.67,129.158-106.519,206.535-139.247c80.117-33.886,165.213-51.068,252.927-51.068
		c87.714,0,172.811,17.182,252.927,51.068c77.377,32.728,146.865,79.577,206.535,139.247s106.52,129.159,139.247,206.535
		c33.887,80.117,51.068,165.213,51.068,252.927s-17.182,172.81-51.068,252.927c-32.728,77.376-79.577,146.864-139.247,206.534
		s-129.158,106.52-206.535,139.247C1172.81,1632.595,1087.714,1649.777,1000,1649.777z M1000,377.685
		c-343.146,0-622.315,279.169-622.315,622.315S656.854,1622.316,1000,1622.316c343.146,0,622.316-279.17,622.316-622.316
		S1343.146,377.685,1000,377.685z"/>
</g>
<g>
	<g>
		<path style="fill:#69B72C;" d="M999.999,1400.94c129.96,0,245.49-61.84,318.75-157.7h-637.49
			C754.509,1339.1,870.039,1400.94,999.999,1400.94z"/>
	</g>
	<g>
		<path style="fill:#69B72C;" d="M1331.399,827.48c10.8,0,21.41,0.83,31.77,2.43c-63.98-136.4-202.55-230.85-363.17-230.85
			c-159.76,0-297.69,93.44-362.12,228.65c3.21-0.16,6.44-0.23,9.69-0.23H1331.399z M1081.83,688.068h0.487
			c0,0,9.935,29.74,7.305,58.181s-18.896,41.98-28.636,48.506c-9.74,6.526-42.662,15.876-42.662,15.876l-0.39-0.682
			c43.928-37.012,55.811-83.278,55.811-83.278s-13.052,39.934-69.155,87.758c14.513-16.169,4.967-25.617,8.182-48.603
			c3.214-22.987,14.026-38.279,40.519-53.084C1079.785,697.938,1081.83,688.068,1081.83,688.068z M975.169,658.906
			c12.228-25.943,8.375-34.655,8.375-34.655l0.374-0.268c0,0,23.984,17.401,37.596,40.71c13.612,23.309,8.549,42.657,4.649,53.028
			c-3.9,10.37-24.068,35.654-24.068,35.654l-0.674-0.31c13.424-52.598-2.872-94.695-2.872-94.695s11.917,37.873-4.923,105.474
			c2.269-20.406-10.262-22.422-20.426-41.859C963.036,702.547,962.941,684.849,975.169,658.906z M911.755,688.068h0.487
			c0,0,2.045,9.87,28.538,24.675c26.493,14.805,37.305,30.097,40.519,53.084c3.214,22.987-6.331,32.435,8.182,48.603
			c-56.103-47.824-69.155-87.758-69.155-87.758s11.883,46.266,55.811,83.278l-0.39,0.682c0,0-32.922-9.351-42.662-15.876
			c-9.74-6.526-26.006-20.065-28.636-48.506C901.821,717.808,911.755,688.068,911.755,688.068z"/>
	</g>
	<g>
		<path style="fill:#69B72C;" d="M1027.813,976.515c-13.969,0-23.35,5.316-28.143,15.948c-4.798,10.632-7.192,25.749-7.192,45.343
			c0,19.808,2.394,35.076,7.192,45.812c4.793,10.739,14.174,16.104,28.143,16.104c13.76,0,22.984-5.364,27.675-16.104
			c4.69-10.735,7.036-26.004,7.036-45.812c0-19.804-2.346-34.97-7.036-45.5C1050.798,981.782,1041.573,976.515,1027.813,976.515z"/>
	</g>
	<g>
		<path style="fill:#69B72C;" d="M826.43,976.515c-13.969,0-23.351,5.316-28.144,15.948c-4.798,10.632-7.192,25.749-7.192,45.343
			c0,19.808,2.394,35.076,7.192,45.812c4.793,10.739,14.174,16.104,28.144,16.104c13.759,0,22.984-5.364,27.674-16.104
			c4.691-10.735,7.036-26.004,7.036-45.812c0-19.804-2.345-34.97-7.036-45.5C849.414,981.782,840.19,976.515,826.43,976.515z"/>
	</g>
	<g>
		<path style="fill:#69B72C;" d="M1319.882,1080.333c-5.214,0-9.278,1.828-12.195,5.473c-2.922,3.65-4.378,8.707-4.378,15.166
			c0,6.675,1.456,11.834,4.378,15.479c2.917,3.649,6.981,5.473,12.195,5.473c5.003,0,9.015-1.823,12.039-5.473
			c3.02-3.646,4.534-8.805,4.534-15.479c0-6.459-1.515-11.516-4.534-15.166C1328.896,1082.162,1324.885,1080.333,1319.882,1080.333z
			"/>
	</g>
	<g>
		<path style="fill:#69B72C;" d="M1200.427,993.558c3.127-3.645,4.69-8.702,4.69-15.167c0-6.459-1.563-11.516-4.69-15.166
			c-3.127-3.645-7.3-5.473-12.509-5.473c-5.003,0-8.966,1.828-11.883,5.473c-2.922,3.65-4.378,8.707-4.378,15.166
			c0,6.464,1.456,11.521,4.378,15.167c2.917,3.65,6.88,5.472,11.883,5.472C1193.128,999.03,1197.301,997.207,1200.427,993.558z"/>
	</g>
	<g>
		<path style="fill:#69B72C;" d="M1331.396,851.021h-683.83c-101.807,0-184.338,82.531-184.338,184.338v0
			c0,101.807,82.531,184.338,184.338,184.338h683.83c101.807,0,184.338-82.531,184.338-184.338v0
			C1515.734,933.552,1433.203,851.021,1331.396,851.021z M706.976,1150.693h-56.287V979.642h-33.147v-50.033h89.434V1150.693z
			 M893.193,1120.047c-14.072,20.224-36.328,30.333-66.763,30.333c-30.646,0-52.955-10.109-66.919-30.333
			c-13.969-20.218-20.951-47.634-20.951-82.241c0-34.398,6.982-61.653,20.951-81.773c13.964-20.116,36.274-30.176,66.919-30.176
			c30.435,0,52.691,10.061,66.763,30.176c14.072,20.121,21.108,47.375,21.108,81.773
			C914.301,1072.414,907.265,1099.83,893.193,1120.047z M1094.577,1120.047c-14.072,20.224-36.328,30.333-66.764,30.333
			c-30.645,0-52.955-10.109-66.919-30.333c-13.969-20.218-20.951-47.634-20.951-82.241c0-34.398,6.982-61.653,20.951-81.773
			c13.964-20.116,36.274-30.176,66.919-30.176c30.436,0,52.691,10.061,66.764,30.176c14.071,20.121,21.107,47.375,21.107,81.773
			C1115.684,1072.414,1108.648,1099.83,1094.577,1120.047z M1136.01,978.391c0-16.676,4.848-29.6,14.541-38.775
			c9.694-9.171,22.358-13.759,37.994-13.759c15.215,0,27.675,4.588,37.368,13.759c9.694,9.176,14.541,22.1,14.541,38.775
			c0,16.681-4.847,29.604-14.541,38.776c-9.693,9.176-22.153,13.759-37.368,13.759c-15.636,0-28.3-4.583-37.994-13.759
			C1140.857,1007.996,1136.01,995.072,1136.01,978.391z M1167.906,1150.693l120.705-221.709h51.597l-120.705,221.709H1167.906z
			 M1357.406,1139.905c-9.591,9.278-22.1,13.915-37.524,13.915c-15.22,0-27.675-4.637-37.368-13.915
			c-9.694-9.274-14.541-22.251-14.541-38.933c0-16.676,4.847-29.6,14.541-38.775c9.693-9.171,22.148-13.759,37.368-13.759
			c15.425,0,27.934,4.588,37.524,13.759c9.587,9.176,14.385,22.1,14.385,38.775
			C1371.791,1117.654,1366.993,1130.63,1357.406,1139.905z"/>
	</g>
</g>
</svg>
