<?xml version="1.0" encoding="utf-8"?>
<!-- Generator: Adobe Illustrator 26.0.3, SVG Export Plug-In . SVG Version: 6.00 Build 0)  -->
<svg version="1.1" id="Ñëîé_1" xmlns="http://www.w3.org/2000/svg" xmlns:xlink="http://www.w3.org/1999/xlink" x="0px" y="0px"
	 viewBox="0 0 500 500" style="enable-background:new 0 0 500 500;" xml:space="preserve">
<style type="text/css">
	.st0{fill-rule:evenodd;clip-rule:evenodd;fill:#FCFCFC;}
	.st1{fill-rule:evenodd;clip-rule:evenodd;}
</style>
<rect x="0.5" y="0.5" class="st0" width="500" height="500"/>
<path class="st1" d="M97.9,25h304.2c12.5,0,24,5.2,32.3,13.4c8.3,8.3,13.4,19.7,13.4,32.3v358.6c0,12.6-5.2,24-13.4,32.3
	c-8.3,8.3-19.7,13.4-32.3,13.4H97.9c-12.6,0-24-5.2-32.3-13.4c-8.3-8.3-13.4-19.7-13.4-32.3V70.7c0-12.5,5.2-24,13.4-32.3
	C73.9,30.2,85.3,25,97.9,25L97.9,25L97.9,25z M176.2,384.2L162.7,358c5.9-2.9,13.3-9.7,13.3-22.4c0-13.9-9.3-25.4-26.7-25.4h-39.5
	v74.1h22.4v-23.3h8.1l10.2,23.3H176.2L176.2,384.2L176.2,384.2z M146,341.3c3.8,0,7.3-1.8,7.3-5.9c0-4-3.6-5.8-7.3-5.8h-13.7v11.7
	L146,341.3L146,341.3L146,341.3z M207.9,385.5c19.1,0,30.2-13.2,30.2-28.2c0-15-11.1-28.1-30.2-28.1c-19,0-30.1,13.1-30.1,28.1
	C177.8,372.3,188.9,385.5,207.9,385.5L207.9,385.5L207.9,385.5z M207.9,367.9c6.2,0,9.7-4.6,9.7-10.6c0-5.9-3.4-10.4-9.7-10.4
	c-6.1,0-9.6,4.6-9.6,10.4C198.3,363.3,201.7,367.9,207.9,367.9L207.9,367.9L207.9,367.9z M317.4,384.2v-74.1h-22.4v26.2h-26.5v-26.2
	H246v74.1h22.4v-28.3h26.5v28.3H317.4L317.4,384.2L317.4,384.2z M358.1,385.5c19.9,0,32-9.5,32-25.8c0-27.6-41.2-21.6-41.2-28.6
	c0-1.9,1.2-3.3,5.7-3.3c7,0,15.3,2.4,21.8,7.3l12-15.9c-8.4-6.9-19.3-10.3-31.4-10.3c-20.3,0-30.8,12-30.8,24.5
	c0,29.2,41.3,22,41.3,29.1c0,2.9-4,4-8.2,4c-10,0-18.3-4.2-23.9-9.5l-11.7,16.7C331.6,380.9,342.4,385.5,358.1,385.5L358.1,385.5
	L358.1,385.5z M205.1,170.7l37.4,27.9l60-78c-14.3-11.8-32.7-18.9-52.8-18.9c-22.9,0-43.7,9.3-58.7,24.3c-15,15-24.3,35.8-24.3,58.7
	c0,22.9,9.3,43.7,24.3,58.7c15,15,35.8,24.3,58.7,24.3c22.9,0,43.7-9.3,58.7-24.3c15-15,24.3-35.8,24.3-58.7
	c0-12.7-2.9-24.7-7.9-35.5l-81.5,90.5l-53.7-43.9L205.1,170.7L205.1,170.7L205.1,170.7z M339.4,132.9l23-25.5L334,79.7L315,104.3
	c-17.8-14.5-40.6-23.2-65.4-23.2c-28.6,0-54.5,11.6-73.3,30.4c-18.7,18.8-30.3,44.6-30.3,73.2s11.6,54.5,30.3,73.3
	c18.7,18.7,44.7,30.3,73.3,30.3c28.6,0,54.5-11.6,73.3-30.3c18.7-18.7,30.3-44.7,30.3-73.3C353.2,165.8,348.2,148.2,339.4,132.9
	L339.4,132.9L339.4,132.9z M128.6,431.8c7.5,0,11.6-4.3,13.6-8.4l-6.9-3.3c-1,2.5-3.7,4.6-6.7,4.6c-5.1,0-8.7-4-8.7-9.1
	c0-5.1,3.6-9.1,8.7-9.1c3,0,5.7,2.1,6.7,4.6l6.9-3.3c-2.1-4.1-6.1-8.4-13.6-8.4c-9.6,0-16.9,6.5-16.9,16.2
	C111.7,425.3,119,431.8,128.6,431.8L128.6,431.8L128.6,431.8z M161.6,431.8c9.6,0,16.7-6.6,16.7-16.2s-7.1-16.2-16.7-16.2
	c-9.6,0-16.7,6.7-16.7,16.2C144.8,425.2,152,431.8,161.6,431.8L161.6,431.8L161.6,431.8z M161.6,424.7c5.2,0,8.5-4,8.5-9.1
	c0-5.1-3.3-9.1-8.5-9.1c-5.2,0-8.5,4-8.5,9.1C153.1,420.7,156.4,424.7,161.6,424.7L161.6,424.7L161.6,424.7z M218.6,431.3V400h-11.2
	l-6.6,17l-6.5-17h-11.2v31.3h8.1v-20.3l7.9,20.3h3.6l7.9-20.3v20.3H218.6L218.6,431.3L218.6,431.3z M233,431.3v-10.5h7.6
	c7,0,10.9-4.7,10.9-10.3c0-5.7-3.8-10.4-10.9-10.4h-15.7v31.3L233,431.3L233,431.3L233,431.3z M239.5,413.7c2.2,0,3.7-1.2,3.7-3.3
	c0-2.2-1.6-3.4-3.7-3.4H233v6.7H239.5L239.5,413.7L239.5,413.7z M276.4,431.3v-7h-12.5V400h-8.1v31.3H276.4L276.4,431.3L276.4,431.3
	z M289.4,431.3V400h-8.1v31.3H289.4L289.4,431.3L289.4,431.3z M326.1,431.3L314.3,400h-10.1l-11.8,31.3h9.1l1.5-4.5h12.3l1.5,4.5
	H326.1L326.1,431.3L326.1,431.3z M313.2,419.7l-4-11.8l-4,11.8H313.2L313.2,419.7L313.2,419.7z M358.2,431.3V400h-8.1v17.2
	L337.5,400h-8.3v31.3h8.1v-18.1l13.2,18.1H358.2L358.2,431.3L358.2,431.3z M379.6,431.3V407h8.7v-7h-25.5v7h8.8v24.2H379.6
	L379.6,431.3L379.6,431.3z M402.1,39.6H97.9c-8.6,0-16.4,3.5-22,9.1c-5.6,5.6-9.1,13.4-9.1,22v358.6c0,8.6,3.5,16.4,9.1,22
	c5.6,5.6,13.4,9.1,22,9.1h304.2c8.6,0,16.4-3.5,22-9.1c5.6-5.6,9.1-13.4,9.1-22V70.7c0-8.6-3.5-16.4-9.1-22
	C418.5,43.1,410.7,39.6,402.1,39.6z"/>
</svg>
