<svg width="38" height="38" viewBox="0 0 38 38" fill="none" xmlns="http://www.w3.org/2000/svg">
	<rect x="0.5" y="0.5" width="37" height="37" rx="7.5" stroke="black"/>
	<path d="M25 29C24.1667 29 23.4583 28.7083 22.875 28.125C22.2917 27.5417 22 26.8333 22 26C22 25.8833 22.0083 25.7623 22.025 25.637C22.0417 25.5117 22.0667 25.3993 22.1 25.3L15.05 21.2C14.7667 21.45 14.45 21.646 14.1 21.788C13.75 21.93 13.3833 22.0007 13 22C12.1667 22 11.4583 21.7083 10.875 21.125C10.2917 20.5417 10 19.8333 10 19C10 18.1667 10.2917 17.4583 10.875 16.875C11.4583 16.2917 12.1667 16 13 16C13.3833 16 13.75 16.071 14.1 16.213C14.45 16.355 14.7667 16.5507 15.05 16.8L22.1 12.7C22.0667 12.6 22.0417 12.4877 22.025 12.363C22.0083 12.2383 22 12.1173 22 12C22 11.1667 22.2917 10.4583 22.875 9.875C23.4583 9.29167 24.1667 9 25 9C25.8333 9 26.5417 9.29167 27.125 9.875C27.7083 10.4583 28 11.1667 28 12C28 12.8333 27.7083 13.5417 27.125 14.125C26.5417 14.7083 25.8333 15 25 15C24.6167 15 24.25 14.9293 23.9 14.788C23.55 14.6467 23.2333 14.4507 22.95 14.2L15.9 18.3C15.9333 18.4 15.9583 18.5127 15.975 18.638C15.9917 18.7633 16 18.884 16 19C16 19.1167 15.9917 19.2377 15.975 19.363C15.9583 19.4883 15.9333 19.6007 15.9 19.7L22.95 23.8C23.2333 23.55 23.55 23.3543 23.9 23.213C24.25 23.0717 24.6167 23.0007 25 23C25.8333 23 26.5417 23.2917 27.125 23.875C27.7083 24.4583 28 25.1667 28 26C28 26.8333 27.7083 27.5417 27.125 28.125C26.5417 28.7083 25.8333 29 25 29ZM25 13C25.2833 13 25.521 12.904 25.713 12.712C25.905 12.52 26.0007 12.2827 26 12C26 11.7167 25.904 11.479 25.712 11.287C25.52 11.095 25.2827 10.9993 25 11C24.7167 11 24.479 11.096 24.287 11.288C24.095 11.48 23.9993 11.7173 24 12C24 12.2833 24.096 12.521 24.288 12.713C24.48 12.905 24.7173 13.0007 25 13ZM13 20C13.2833 20 13.521 19.904 13.713 19.712C13.905 19.52 14.0007 19.2827 14 19C14 18.7167 13.904 18.479 13.712 18.287C13.52 18.095 13.2827 17.9993 13 18C12.7167 18 12.479 18.096 12.287 18.288C12.095 18.48 11.9993 18.7173 12 19C12 19.2833 12.096 19.521 12.288 19.713C12.48 19.905 12.7173 20.0007 13 20ZM25 27C25.2833 27 25.521 26.904 25.713 26.712C25.905 26.52 26.0007 26.2827 26 26C26 25.7167 25.904 25.479 25.712 25.287C25.52 25.095 25.2827 24.9993 25 25C24.7167 25 24.479 25.096 24.287 25.288C24.095 25.48 23.9993 25.7173 24 26C24 26.2833 24.096 26.521 24.288 26.713C24.48 26.905 24.7173 27.0007 25 27Z" fill="black"/>
</svg>

