<svg width="24" height="24" viewBox="0 0 24 24" fill="none" xmlns="http://www.w3.org/2000/svg">
<path d="M19.3125 12C19.3122 10.8396 19.0353 9.69592 18.505 8.66377C17.9747 7.63162 17.206 6.74066 16.2628 6.06469L15.6656 2.76563C15.6107 2.46304 15.4513 2.18935 15.2152 1.99231C14.9791 1.79527 14.6813 1.68739 14.3738 1.6875H9.62627C9.31874 1.68739 9.02094 1.79527 8.78484 1.99231C8.54873 2.18935 8.38931 2.46304 8.33439 2.76563L7.7372 6.06469C6.79368 6.74038 6.02484 7.63127 5.49445 8.66348C4.96405 9.6957 4.68738 10.8395 4.68738 12C4.68738 13.1605 4.96405 14.3043 5.49445 15.3365C6.02484 16.3687 6.79368 17.2596 7.7372 17.9353L8.33439 21.2344C8.38931 21.537 8.54873 21.8106 8.78484 22.0077C9.02094 22.2047 9.31874 22.3126 9.62627 22.3125H14.3738C14.6813 22.3126 14.9791 22.2047 15.2152 22.0077C15.4513 21.8106 15.6107 21.537 15.6656 21.2344L16.2628 17.9353C17.206 17.2593 17.9747 16.3684 18.505 15.3362C19.0353 14.3041 19.3122 13.1604 19.3125 12ZM9.44158 2.96625C9.44957 2.92257 9.4728 2.88314 9.50713 2.85499C9.54147 2.82683 9.58468 2.81178 9.62908 2.8125H14.3766C14.421 2.81178 14.4642 2.82683 14.4985 2.85499C14.5329 2.88314 14.5561 2.92257 14.5641 2.96625L14.9916 5.32781C14.0527 4.90575 13.035 4.68752 12.0056 4.68752C10.9763 4.68752 9.95858 4.90575 9.0197 5.32781L9.44158 2.96625ZM14.5585 21.0338C14.5505 21.0774 14.5272 21.1169 14.4929 21.145C14.4586 21.1732 14.4154 21.1882 14.371 21.1875H9.62627C9.58187 21.1882 9.53866 21.1732 9.50432 21.145C9.46998 21.1169 9.44675 21.0774 9.43877 21.0338L9.01127 18.6722C9.95014 19.0942 10.9678 19.3125 11.9972 19.3125C13.0266 19.3125 14.0443 19.0942 14.9831 18.6722L14.5585 21.0338ZM12 18.1875C10.7762 18.1875 9.57996 17.8246 8.56243 17.1447C7.5449 16.4648 6.75183 15.4985 6.28351 14.3679C5.8152 13.2372 5.69266 11.9931 5.93141 10.7929C6.17015 9.59262 6.75946 8.49011 7.62479 7.62478C8.49013 6.75944 9.59264 6.17014 10.7929 5.93139C11.9932 5.69265 13.2373 5.81518 14.3679 6.2835C15.4985 6.75181 16.4648 7.54488 17.1447 8.56241C17.8246 9.57994 18.1875 10.7762 18.1875 12C18.1855 13.6404 17.533 15.2131 16.373 16.373C15.2131 17.533 13.6404 18.1855 12 18.1875ZM16.3125 12C16.3125 12.1492 16.2533 12.2923 16.1478 12.3977C16.0423 12.5032 15.8992 12.5625 15.75 12.5625H12C11.8508 12.5625 11.7078 12.5032 11.6023 12.3977C11.4968 12.2923 11.4375 12.1492 11.4375 12V8.25C11.4375 8.10082 11.4968 7.95774 11.6023 7.85225C11.7078 7.74676 11.8508 7.6875 12 7.6875C12.1492 7.6875 12.2923 7.74676 12.3978 7.85225C12.5033 7.95774 12.5625 8.10082 12.5625 8.25V11.4375H15.75C15.8992 11.4375 16.0423 11.4968 16.1478 11.6023C16.2533 11.7077 16.3125 11.8508 16.3125 12Z" fill="black"/>
</svg>
