<svg width="32" height="32" viewBox="0 0 32 32" fill="none" xmlns="http://www.w3.org/2000/svg">
	<g clip-path="url(#clip0_5170_30759)">
		<path d="M30.811 17.1794C30.5854 20.0149 29.5505 22.726 27.8295 24.9906C26.1084 27.2552 23.7734 28.9782 21.1019 29.9548C18.4304 30.9314 15.5347 31.1207 12.7589 30.5C9.98298 29.8794 7.44362 28.4749 5.44246 26.4535C3.44129 24.4321 2.06244 21.8788 1.46971 19.0968C0.876987 16.3149 1.09531 13.4212 2.09873 10.7597C3.10216 8.09815 4.84851 5.78059 7.13031 4.08235C9.41212 2.38411 12.1335 1.37658 14.971 1.17944" stroke="black" stroke-width="1.5" stroke-linecap="round" stroke-linejoin="round"/>
		<path d="M22.3768 18.4914C21.964 19.5538 21.2929 20.4965 20.4242 21.2344C19.5556 21.9722 18.5167 22.4819 17.4015 22.7174C16.2863 22.9528 15.13 22.9065 14.0372 22.5828C12.9444 22.259 11.9496 21.668 11.1426 20.8631C10.3356 20.0582 9.74201 19.0648 9.41544 17.9729C9.08887 16.8809 9.03963 15.7247 9.27219 14.609C9.50474 13.4932 10.0118 12.453 10.7474 11.5824C11.483 10.7118 12.424 10.0383 13.4853 9.62282M15.9996 16L21.7139 10.2857M21.7139 10.2857L26.2853 11.4285L30.8568 6.85711L26.2853 5.71425L25.1425 1.14282L20.571 5.71425L21.7139 10.2857Z" stroke="black" stroke-width="1.5" stroke-linecap="round" stroke-linejoin="round"/>
	</g>
	<defs>
		<clipPath id="clip0_5170_30759">
			<rect width="32" height="32" fill="white"/>
		</clipPath>
	</defs>
</svg>

